<?xml version="1.0" encoding="utf-8"?>
<!-- Generator: Adobe Illustrator 23.0.1, SVG Export Plug-In . SVG Version: 6.00 Build 0)  -->
<svg version="1.1" id="Layer_1" xmlns="http://www.w3.org/2000/svg" xmlns:xlink="http://www.w3.org/1999/xlink" x="0px" y="0px"
	 viewBox="0 0 521.1 489.7" style="enable-background:new 0 0 521.1 489.7;" xml:space="preserve">
<style type="text/css">
	.st0{display:none;}
	.st1{display:inline;fill:#FF0000;}
	.st2{font-family:'Arial-BoldMT';}
	.st3{font-size:50px;}
</style>
<g id="design">
	
		<rect x="245.3" y="304.5" transform="matrix(2.617695e-02 -0.9997 0.9997 2.617695e-02 -41.1907 568.1089)" width="51.4" height="1.4"/>
	<path d="M188.6,409.2c-0.2-3.6,2-23.5,2.7-27.6c0.7-3.9,5.4-5.3,5.6-11.2c0.4-10-15.1-17.5-20.8-6.7c-3.7,7.1,0.8,7,1.1,10.9
		c0.2,2.4-2.1,6.1-1.3,9.1c-4.4,0.9-2.2-4.9-4.1-9.2c-5.3-11.7-19.4-3.7-15.8,4.6c1.1,2.4,4.7,4.6,5.2,7.1c0.9,4-1.2,27.5-2.4,32.5
		c-3,13.1-16.7,28.4-3.9,40.7l4.3-1.4l6.9-27.2v27.1c0,3.9,5.3,8.3,9.7,6.2c1.7-4.2,0.4-32,3.5-32c4.8,5.1,10.9,33.8,19.3,31.9
		c1.8-0.4,3.5-4.4,3.6-6.2c0-2-4.9-22.3-5.9-25.9c-2-7.1-7.4-16.4-7.9-22.9L188.6,409.2L188.6,409.2z M156.5,450.4l-1.3-7.5l4-10.5
		l-2.8,18.1L156.5,450.4L156.5,450.4z M183.1,423.2l-5.4-0.3l-4.4,10.8l-4.2-13.9l-6.9,4.2c2.9-10.6,6.8-23,5.6-34.2
		c-0.7-7.1-5.7-7.7-5.6-14.5c2.3-0.4,3.7,1.1,4.8,2.9c0.4,0.7,4.4,13.9,4.5,14.7c0.4,2.6-1.3,8.1-1,12.3c0.4,6.3,2.2,21.5,9.5,12.5
		c-2.9-6.5-5-12.1-3.8-19.4c0.5-3,4.9-12,6.4-17.2c1.1-3.9,5-5.5,1.9-10.4c-1.2-1.8-5.1-1.6-4.2-5.1l11.1,3.5
		c-7.5,8.4-4.5,14.3-5.6,23.6c-0.7,5.6-3.1,12.6-2.8,18c0.3,5.9,7,17.1,9.1,24.4c1.7,5.9,2.5,12,3.5,18.1L183.1,423.2L183.1,423.2
		L183.1,423.2z"/>
	<path d="M93.7,413.8c-1.7,1.9-0.3,5.1-2.7,4.9c-1-8.3,8.5-25.6-5.2-27.6c-12.7-1.9-12.4,16.6-11.5,24.8c-2.5,0,0-4.3-4.7-2.6
		c-3.9,1.5-5.2,11.7-4.8,15.4c0.5,4.5,5,8.7,5.3,11.5c0,1.5-1.7,11.4-2.4,12.9c-3.1,6.7-22.5,5.2-23.9,10.9
		c-1.2,5.2,4.7,4.3,6.7,5.4c3.1,1.7,2.2,6.6,7.6,6.3c1.6,0,18.8-8.3,19.6-9.8c1.4-2.6-0.9-6.6,3.5-5.5c3.4,6.8-2.5,29.1,7.7,29.3
		c3.4,0,3.4-5.3,3.5-7.7c0.5-9.3-0.6-20.3-0.3-30.6c0-4.1-2.4-8.6-0.8-13.6c1.4-4.6,15.1-8.3,15.1-21.2S96.7,410.7,93.7,413.8
		L93.7,413.8L93.7,413.8z M84.2,434.9l2.6,21.3c-4.9-0.9-0.6-13.7-6.2-12.5c-3.5,0.7-6.3,15.7-9.8,19.4c-2.1,2.2-15.7,9-14.5,1.5
		c13.1,2.2,21.9-15,20.8-25.7c-0.3-3.6-7.4-10.4-5.5-16l6.9,2.8c3.9-7.4,0.9-13.3,1.3-20.2c0.4-6.7,4.1-10.7,8.3-3.9
		c-7.8,11-2.9,38.4,11.2,17.2c2,7.1-14.4,13.8-15.1,16.2l0,0L84.2,434.9z"/>
	<path d="M509.1,269.7c7.7-7.7,3.8-24.9-8.5-21c-11,3.5-5.2,19.7-6.9,28.6h-7c0.6-5.9-0.2-11.3-4.1-16l-10.8,1.1
		c-1,1.2-2.8,15.2-2.7,17.3c0.2,2.9,2.4,4.6,2.3,7.9c-0.1,4.3-4.8,11.1-5.1,15.6c-0.4,5.4,2.4,15.9,9.3,8.9
		c-1.1,12.9-5,26.8-5.5,39.6c-0.3,7.9-0.7,13.5,7.6,7.6c8.4-6,8.9-16.8,9.1-26.4l3,5.4l5.4,0.2c-0.3,6.4-1.1,11.4,4.9,15.3l3.8-4.5
		c1.1-13.7,3-27.3,4.7-40.9c0.6-5.2-1.2-11.3,3.7-16.7c1.6-1.8,5.6-2.4,7.1-4.7c7.1-10.6-10.1-15.6-10.2-17.3H509.1z M502.1,304.4
		c-0.2,2.1,1.4,4.4,1.3,6.8c-0.3,5-2.3,10.6-1.3,16.1l-3-12.3h-5.2l-1.5,8.2c-15-4.8-7.2,22.6-16.7,29.2c0-8.8,2.2-17.5,4.1-26.1
		s2-9,2.7-13.6s1.4-8.9-0.7-13.1c-0.8,0.6-1.7,1.1-2.7,1.4s-2.1,0-2.8-0.7c-0.7-0.8-0.8-2-0.4-3.1s1-1.9,1.5-2.9c2-4,1-7.7-0.9-11.4
		s-1.1-4.9-1.2-7.3c0-3.4,0.5-11.5,5.8-7.9c-0.6,7.2,0.9,12.6,3,19.2l6.9-1.3c-3.5,7-9,21.5,2.9,21.6c1.6-0.9,3.6-8.1,3.8-10.2
		c0.5-4.3-1-6.7-0.9-9.4c0.1-2.6,4-7.5,4.1-12.5c0-4.8-0.8-5.8-0.5-11.2c0.3-5.5-3.5-8.9,6-10.2c3.9,8-2.2,12.9-4.1,20
		c4.4,3.6,10.7,4.1,12.5,10.5c-8.9,3-11.8,11.5-12.5,20.2L502.1,304.4L502.1,304.4z"/>
	<path d="M457.5,325.4c-0.1-4.2-3.5-8.8-3.7-11.5c-0.2-2.2,2.1-4.3,2.5-6.8c1-7.2-5.2-16.4-11.8-10.3c-5.4,4.9-0.6,12.9-3.5,19.4
		c-7.2,0.8-11.2-6.7-19.2-3.9l-1.3,3.5c0.2,6.3,15.5,11.8,16.2,13.8c-0.1,9.8-7.1,49.3,9.9,29.7l1.4,5.5l5.4-2.2
		C450.4,351,457.9,336.4,457.5,325.4L457.5,325.4L457.5,325.4z M448.6,301c3.1,0,1.7,7.7,0.7,9.7C447,310.4,445.9,301.1,448.6,301z
		 M440.9,357.9c-2.7-0.4-1.4-7-1.2-8.8c0.3-3.3,0.8-10.5,4-12L440.9,357.9z M450.6,345.4c-3.2-1.9-0.4-8.5-1.5-11.7
		c-1-2.9-6.7,0-6.4-8.8c0.1-3.8,4.2-6.1,3.8-10.1c2.7,1.4,5.2,7.8,5.5,10.6C452.6,331.2,449.2,338.9,450.6,345.4L450.6,345.4
		L450.6,345.4z"/>
	<path d="M382.1,166.1c-0.8-0.8,6.3-20-9.4-13.4c-9.8,4.1-4.8,24-9.2,32.4h5.5c-1.1-4.8,4.5-10.9,4.6-14.3c0-4-6.6-11.4,4.6-11.7
		c-6.6,8.6-1.3,12.9,8,14.1C390.5,165.7,382.6,166.5,382.1,166.1L382.1,166.1L382.1,166.1z"/>
	<path d="M415.8,178.2c-3.4-7.8-9.2,4.5-11.9,2.4l-1-16.7c-5-0.8-7,4-10.8,6.4c-2.1,1.3-4.9,2-6.1,2.8c-1.9,1.2-7.9,4.9-8.2,6.2
		c3.9,6.5-5.1,18.7,3.3,20.1c1.7-6.4,9.8-8.2,13.6-13.5c1.9,1.2-0.7,4.3-1.7,5.4c-4.5,4.8-15.6,13.3-21.2,17.6
		c-13.1,10-28.2,17.5-39.7,29.6l-2-57.8c1-6.3,16.4-16.7,22.2-20.9c18.5-13.6,38.3-25.3,57.2-38.2c5.1-3.5,52.7-39.5,55.3-36.6
		l-2.6,99.4l-2.2,2.9h-15.4c-3.3,8.6,7.7,4.3,12.4,4.5c4.8,0.3,14.3,6.5,16.1-1.6c3.2-14.5-1.1-37.4,1.5-52.9
		c-2.5-20.8,1.4-42.8,1.5-63.7c0-11.2-17-19.7-24.2-27.2c-4.7-4.8-9.4-12.9-14.1-17.8c-9.1-9.4-21.5-16.8-29.8-27.3L401.3,0
		c-13,8.6-27,15.4-40.4,23.1c-3.6,2.1-10.3,8.3-12.9,9.2c-2.9,1.1-5.9,0-8.3,1.2c-1.9,0.9-3,4.6-5,6.1
		c-31.9,25.3-67.4,46.5-99.5,71.1c-48.8,2-96.8-0.5-145.7-1.2c-9.1,0-18.6-0.9-27.8-0.8c-3.2,0-6,0.4-9,1.3c-0.8,1,1.1,4.5,1,6.3
		c-0.2,2.9-25.4,44.4-29.2,50.3C16.9,178.4,7.9,189.3,0.1,201c-0.6,2.8,3.8,2.8,4.2,4.5c1.9,8.7-2.3,26.2-1,35.9l3.9,89.7l2.6,2.3
		l7.9-1.4c3.5-4.4-0.7-45,1.4-55.4c1.4-7.1,12.3-15.6,16.9-22.1c8.5-11.8,13.3-26,15.2-40.4l168.8,3.1c4.6,0.7,9.3,14.4,12.8,19.1
		c1.7,2.3,16.9,16.9,16.2,17.8l-32.1,3.3c3-9.1,0.7-18.9-10.7-17c-1.4-1.4,6-11.3-4.1-15.7c-16.6-7.3-9.5,17.7-11.4,19.4
		c-9.8-0.7-12.1,5.2-8.6,13.7c-7.9-2.3-24.9,3-31-0.7c-6.8-4.2-0.8-17.6-3.3-19.6l-9.7,1.1c-0.7-0.7,8.4-14-3.4-16.6
		c-12.5-2.7-14.1,16.3-7,14.9c3.1-0.6,0.4-9.7,4.4-9.6c5.1,0.2,0.9,8.7,1.7,11c-8.1,2.4-15.5,0.9-23.5-0.5l-0.6,21.5
		c0,4.1,10.6,0.4,11.1,1l1.1,9.8l-37.5,0.4l-0.5-9.7l11.9-4.7l-0.9-20.5l-2-2.1L82.7,233c2.8-16.6-19.2-18.1-18.1-0.5
		c3.9,0.9,4.7-4,6.4-5.4c5.4-4.3,7.9,0.3,7.5,5.7c-5.4,0.4-10.8,1.7-16.2,2.2c-2,0.2-4.4-1.8-6.1-0.8c-5.8,3.2,2.3,20.6-2.1,27.2
		l-12.5-0.9l-16.5,15.4c1.6,15.2-1.2,31.6,1,46.7c0.8,5.7,6.8,5.4,7.1-2.6c0.5-9.6-6.7-24.5,0-34.1l27.1,0.7c0,1.9-0.9,3.8-0.8,5.7
		c0.4,4.3,8.2,20.9,12.6,18.2l1.8-13.8c0.8,2.3,4.7,16.4,8,14.1c3.6-8.2-0.8-16.5,0.7-25l30.6-0.6c1,1-8.8,24.9,1.4,25.1
		c6,0,6-17.9,13.1-20.6c2.6-1,2,1.6,2.4,3.1c1,3.8,0.9,13.6,7,9.7l2.5-18l32.4,1.1c2.9,3.9,14.9,21.6,19,21.2
		c5-5.6,0.2-11.5-1.4-17.3c18.1-13.5,0.4,17.7,14,14.8c7.7-1.6,7.4-16,11.3-21.7l29.6-2c3.1,0.8,3.2,7.6,3.3,10.2
		c0.2,4.6-2.1,19.4-1.7,20.7c1.1,3.8,8.4,3.2,8.1-0.7c0-1.3-1.9-2.8-2-4.6c-0.5-6.5,1.4-13.5,1.5-19.2c0-4.1-3.4-11.9-3.2-13.5
		c0.4-3.1,4.5-5.8,3.8-9.5c-4.7-1.6-6.5,2.5-9.4,3.6c-9.2,3.5-24.1,0.4-34.5,0.8c-24.8,1-49.5,4.7-74.4,2.1v-10.4
		c1.2-0.7,2.4-0.5,3.6-0.6c9.7-1.1,6.1,1.1,8.3,4.4c2.1,3.1,15.2-0.6,19.5-0.8c23.8-1,42.6-0.2,66.8-2.4c5.5-0.5,15.2,3.2,16.1-3.8
		h2.7l14.6,27.7l-4.1,53.8c0.8,3.1,9.1,1.6,11.4,0.8c4.1-1.4,35.4-32.5,42.4-38.2c3.9-3.2,13.1-6.2,13.8-10.9
		c0.3-2.1-0.9-5.3-0.8-8.1c0.4-9.5,0-19.1,1.6-28.5c2.8-3,5.6-6.7,8.5-9.5c6.2-6,19.4-17.3,26.3-22.3c2.1-1.5,4.2-3.6,7.1-3.3
		l-0.6,24.3c0,1-3.2,6.4,1.9,7.7c5.8,1.4,2.5-9.8,2.7-11.7c0.5-8.8,1.9-18.1,2.6-27l24.1-18.8c2.9-0.3,1.8,0.2,2,2.1
		c1,8.7-3,18.2-3.4,26.9c15.4,4.9,10.5-1.5,11.2-10c0.6-7.8,4.4-27.7,1.7-34L415.8,178.2L415.8,178.2z M180,286.6l4.2-2l2.5,11.2
		L180,286.6z M203.4,297.6c0-3.5,0.7-7.1,1.6-10.5c0.6-2.3-1.3-4.1,2.9-3.3C207.9,287.9,207.1,294.9,203.4,297.6z M142,276.5
		c8.9-0.9,20,1.1,29.3,0.8c22.9-0.6,45.8-4,68.8-2.4l-19.2,3.3c-9.7-2.1-20.5,0.6-30.3,0.9c-16.9,0.5-33.9-1-50.7,0
		C137.7,277.3,139.9,276.6,142,276.5L142,276.5L142,276.5z M89.3,240.5L89,252.7c-3.2,1.2-11.1-0.6-12.3,3.5
		c-0.6,1.8,1.3,7.6,1.7,10.2c0.2,1.5,1.7,4.6-0.9,4.2c0.6-2.9-3.4-3.3-3.9-5.2c-2.1-7.2,9.6-13.5-12.4-10.6l-1-11.7
		c8.3-5.5,19.5-5.2,29-2.7L89.3,240.5L89.3,240.5z M52.7,267.9c4.5-0.8,7-10.6,15.3-7.2l-0.3,11.1l-29.3,2
		c1.9-8.7,10.2-5.2,14.2-5.9H52.7L52.7,267.9z M69.8,301H67c-1.8-6.1-2.6-9.4,0.6-15.1l9.4,0.2l1.3,8.2
		C70.3,285.7,66.1,291.4,69.8,301L69.8,301L69.8,301z M117.3,292.6l1.6-7.4l4.2-0.8L117.3,292.6L117.3,292.6L117.3,292.6z
		 M137.2,276.4c-5.3,5.2-17,1.7-24.4,2.1c-7,0.3-15.3,2-22.3,2.2c-15,0.4-30.2-1.2-45.2,0.2c0.6-2.7,2.9-2.4,4.9-2.6
		C78.6,274.5,108.5,277.3,137.2,276.4L137.2,276.4L137.2,276.4z M126.5,260.8h2.8l-0.2,8.4h-1.4L126.5,260.8L126.5,260.8
		L126.5,260.8z M141.8,254.1l-25,0.3l-1-7.7l26.4-2.1l-0.4,9.6l0,0V254.1z M195.4,257.4c-5.7-0.4-8.7,4.7-8.9-6
		c15-1.2,7.9-12,10.3-22c11.5,2.4-0.7,10.6,3.6,16.2l11,2.4C214.9,263.4,204.5,258,195.4,257.4L195.4,257.4L195.4,257.4z
		 M353.9,152.5l-58.7-63.2l26.2-18.9c2.1,0,17.5,15.7,20.5,18.7c14.2,13.8,27.3,28.8,41.1,43L353.9,152.5L353.9,152.5L353.9,152.5z
		 M387.9,129.8L333,76.6L326.4,66c7.8-0.5,20.8-15.5,27.5-14.6c3.1,0.4,25.8,23.7,30,27.8c10.4,10.3,20.2,22.5,31.7,30.9l-27.7,19.8
		l0,0V129.8z M419.1,108.6l-61.6-60.7l23.2-16.7l60.4,62.7l-21.9,14.7L419.1,108.6L419.1,108.6z M470.1,99.6
		c0.3,21.7-1.9,43.7-1.8,65.4c0,3.6,1.1,7.1,1.2,11c0,1.5,0.8,6.6-1.6,6.3c1.6-3.3-1.2-8.6-1.1-10.5l2.1-77.1
		C471.4,94.5,470.1,97.9,470.1,99.6L470.1,99.6L470.1,99.6z M424.1,24c3.2,2.9,8.2,7.4,11.1,10.5c3.1,3.3,6.1,9.1,9.2,12.3
		c6.2,6.5,14.1,11.8,19.7,17.9c1.4,1.5,3.2,2.5,2.6,5l-21.8-17.9l-31-34.9C415,16,422.7,22.9,424.1,24L424.1,24L424.1,24z
		 M405.8,8.2c0.5-0.5,7.3,6.7,6.7,7.1C410.9,16.6,404.8,10.7,405.8,8.2z M400,12.8l2-0.5c14.5,11.1,25.2,26.5,37.9,39.4
		c3.6,3.7,25.2,20.8,25.1,24.1c-1.3,3.7-5.4,2.1-7.2,3.2c-1.8,1.1-10.3,10.7-11.7,10.7l-58.2-57c-6.7-9.1,9.2-11.8,12.2-19.9H400
		L400,12.8z M308.1,66c16.2-13.1,33.2-25.6,50.7-36.5c3.8-2.4,35.5-21.8,37.1-20.1c0.5,2.7-1.5,3.2-3,4.6
		c-31.7,29.4-75,53.8-111.4,78.3c-5,3.4-17,8.2-20.8,12.1c-1.7,1.7-0.9,3.6-1,5.7l-15.3-0.4L308,66.1L308.1,66L308.1,66z
		 M260.9,116.2c3.7-3.6,22.1-0.3,27.9,0l-25.7,80.7c-2.3,3.5-5.3,0.6-7.7,0.7c-10.9,0.6-21.8,0.6-32.7,1.6
		c12.4-27.8,22.1-57.3,38.3-83.2h-0.1L260.9,116.2z M213.7,116.5l41.7-1l-38.5,83.7l-45.8-1.8c-2.1-1.7-0.7-1.6,0-3
		c4.3-11,11.5-22,16.7-32.5C195.6,146,200.6,128.7,213.7,116.5L213.7,116.5L213.7,116.5z M174.7,116.7c9.1,0,18.2-1,27.2-1.3
		c4-0.2,1.7,4.4,0.8,6.6c-6.4,16.5-25,54.7-34.8,69c-1.7,2.5-3.2,4.9-5.8,6.8l-34-0.9c6.3-12.2,12.1-24.6,18.8-36.6
		c7-12.4,15.8-27.4,24.9-38C173.2,120.7,173.2,118.3,174.7,116.7z M169.2,116l-45.6,80.5l-37.2,0.7l30.5-57.1l14-22.4
		C134.2,114.4,162.7,117.3,169.2,116L169.2,116L169.2,116z M91.7,126.3c2.5-3.5,2.5-8,5.9-10.9l28.5,0.8l-47.3,82.3
		c-7,0.5-14.4-1.2-21.1-1.5c-1.9,0-14.7,2.7-12.9-1.5c1.3-3.1,7.7-9.1,9.8-12.5c9.7-15.7,18.2-35.6,29.3-50.1
		c1.6-2.1,5.5-3.2,7.8-6.4L91.7,126.3L91.7,126.3z M55,125.4c-0.5,3.3-2.7,8-5.8,9.6C49.7,131.7,51.9,127,55,125.4z M40.4,151.4
		c-0.5,3.3-2.7,8-5.8,9.6C35.1,157.7,37.3,153,40.4,151.4z M39.8,161.6c6.2-9.9,20.3-40,27.3-45.6c3.6-2.8,17.4,1.9,22.9-0.8
		L51.9,180c-8.8,12-17.9,24.2-33.4,13.8C23.6,181.6,33.1,172.3,39.8,161.6L39.8,161.6L39.8,161.6z M23.9,247
		c-0.4-10.3,2.3-20.3,3.6-30.5h4.2c0.8,1-3.2,20.8-4.1,23.7C26.9,242.6,26.8,246.3,23.9,247z M26.4,256.8c5.8-13,8.3-26.5,10.8-40.5
		l7.6-2.1l1.9,3.1c-3.2,14.4-9,29.5-20.2,39.4L26.4,256.8L26.4,256.8z M230.7,219.5l2.6-1.8l2.5,11.2L230.7,219.5L230.7,219.5
		L230.7,219.5z M238.8,217.9c17.3-6.6,9.1,14.9,13.2,25.4C247.4,241.6,236.5,220.3,238.8,217.9z M260.8,250.6
		c-0.4-0.9-2.5-1.3-3.2-2.6c-1.6-3.2-3.2-29.9-2-31l9.5,0.5l3,49.9C263.2,263.8,262.9,255.9,260.8,250.6z M268,210.1
		c-8.2,0-17.5,2.4-25.5,2.4c-53.4,0.2-108.4-4.6-162.5-4.5c-6.7,0-20.8,1.6-25.2,1c-2.9-0.4-5.1-3-6.6-2.8c-5,0.7-13.1,2.8-18.5,3.3
		c-3.7,0.4-8.6-1-11.8,0.5c-6,2.7-2.1,21.2-2.2,26.5c0,2.8-1.4,5.3-1.5,8.1c-0.6,19.9-1.4,40-1.5,59.8c0,3,1.2,6.1,1.2,9.7
		s0.8,9.5-1.7,10.4l-3.4-84.2l2.5-39.6c8.3,4.3,16.2,0.6,24.3,0.7c70.7,0,143-1.3,214,1.5c4.1,0.2,9.5,2.6,13.8,3
		c6.8-1.4,20.6-62.4,24.3-71.4c2.3,0-1.1,13.8-1.5,15.6c-1.8,7.3-15.4,58.6-18.1,60.2v-0.2H268z M272,331.4h-1.4l1.4-51.5h1.4
		L272,331.4z M271.4,249.4c2.2-9.1-1.9-21.7-0.6-29.9c0.3-1.9,1.1-4.3,2.8-2c-0.4,7.3-0.5,14.4,0.9,21.6L271.4,249.4L271.4,249.4
		L271.4,249.4z M272.4,210.5l24.4-86.4l2.9-1.8c3.8,11.6,25.1,45.9,22.2,56.6c0,0.4-5.8,5.4-6.7,6.2c-7.6,6.2-26.3,18-35.2,22.9
		C277.7,209.3,275.1,210.8,272.4,210.5L272.4,210.5L272.4,210.5z M324.6,288.8l-47,41.4c1.2-27.5-0.9-55.2,0.2-82.7
		c0.5-12.1-1.7-31.8,8.7-38.6l38-23.4c2.3,34.4,1.2,68.8,0,103.3L324.6,288.8L324.6,288.8z M326.3,171.6l-24.9-61.7l-35.3,0.3
		l-0.6-2.8c6.3-1.9,20.9-16.3,26.7-13.9l58.2,63.4L326.3,171.6L326.3,171.6L326.3,171.6z M331.3,246.8c-0.7-3.7,0.4-3,1.8-4.5
		c2.6-2.6,8-7.3,11-9.7c4.4-3.5,10.3-7.9,15.6-10c-8.2,9.3-18.5,16.8-28.4,24.3l0,0V246.8z M382.8,189.8
		c-1.7-10.4,7.9-12.2,14.3-17.7C398.6,181.4,388.6,185.1,382.8,189.8z"/>
	<path d="M424.7,208.6c7.1-1.4,1.7-9.4,10.7-8.3c2.7-1.7,2.8-22,3.5-26.4c1.3-8.5,6.2-21.7,6.1-29.1c0-4.3-4.4-7.5-4.9-10.1
		c-0.5-2.8,7.3-15.5-3.2-15.8c-10.6-0.3-8.4,10.8-12,17.4c-4.8,8.7-19.8,16.9-12.3,30.1c3.6,2.8,8.2-2.5,8.5-2l-1,38.2
		c0,0.7,3.5,5.8,4.7,6L424.7,208.6L424.7,208.6z M424,155.6c-1.4,0.5-8.5,4.2-7.9,0.6s5.2-4.9,7.5-6.4c0.6-0.4,1.2-0.8,1.7-1.4
		c0.7-0.9,0.5-2,1.2-2.9s1.4-1.3,2.2-1.9s1.7-1,2.4-1.7s0.9-1.8,1.5-2.4h-0.1c0.6-1.9-2.2-14.8,3.1-15.2c4.2-0.3-2.8,9-2.2,11.4
		c0.6,2.5,4.9,4.5,5.9,6.7c2.2,5.2-0.4,11.8-1.9,16.8s-0.9,3.1-1.4,4.7c-1,3.8-1.8,7.4-1.5,11.4c0.2,2.1,0.5,4.3,0.5,6.4
		s-0.4,4.4-1.6,6.1c-1.6-2.8-3.2-5.7-4.7-8.5c-0.7,1.2-1.1,2.5-1.3,3.9c0-0.4-1.3-2.1-1.5-2.5c-0.5-1-0.8-2.1-1.1-3.2
		c-0.4-2.3-0.4-4.7-0.2-7.1s0.5-4.9,1.1-7.3s0-4.6-0.4-7c0-0.2,0-0.5-0.2-0.6c-0.2-0.2-0.6-0.1-0.9,0L424,155.6z"/>
	<path d="M335.7,188.1l-0.6,27.3l3.2,2.5l6.3-2.7l-0.2,6.9l4.3-0.5l1.7-13.2c2.7,0,0.6,6.4,4.7,5.7c2.7-0.5,1.8-6,2.7-7.9
		c0.2-0.4,1.9-0.6,2.4-1.3c4.1-7.5,0.6-7.4,0.4-14.9c-0.2-7.1,1.3-13.3,2-20.2C359.9,166.9,340.2,186.7,335.7,188.1L335.7,188.1
		L335.7,188.1z M354,200.1l-13.5,10.8c-4.2-15.1,4.6-23.7,16.1-31.6L354,200.1L354,200.1L354,200.1z"/>
</g>
<g id="text" class="st0">
	<g>
		<text transform="matrix(1 0 0 1 400.856 188.5998)" class="st1 st2 st3">DOHLÁŠKY</text>
	</g>
	<g>
		<text transform="matrix(1 0 0 1 -154.044 158.5998)" class="st1 st2 st3">PŘIHLÁŠKY</text>
	</g>
	<g>
		<text transform="matrix(1 0 0 1 -336.244 -350.9001)" class="st1 st2 st3">KORIDOR III.</text>
	</g>
	<g>
		<text transform="matrix(1 0 0 1 -32.144 -591.2001)" class="st1 st2 st3">START</text>
	</g>
	<g>
		<text transform="matrix(1 0 0 1 -251.744 -296.0002)" class="st1 st2 st3">KORIDOR II.</text>
	</g>
	<g>
		<text transform="matrix(1 0 0 1 -174.644 -234.8002)" class="st1 st2 st3">KORIDOR I.</text>
	</g>
	<g>
		<text transform="matrix(1 0 0 1 -1554.344 -215.9001)" class="st1 st2 st3">SBĚRKA</text>
	</g>
	<g>
		<text transform="matrix(1 0 0 1 -1234.0441 47.2999)" class="st1 st2 st3">CÍL</text>
	</g>
	<g>
		<text transform="matrix(1 0 0 1 -1142.844 -758.8001)" class="st1 st2 st3">RADIO 2</text>
	</g>
	<g>
		<text transform="matrix(1 0 0 1 -709.244 -534.4001)" class="st1 st2 st3">RADIO 1</text>
	</g>
	<g>
		<text transform="matrix(1 0 0 1 -971.544 476.7999)" class="st1 st2 st3">VYČÍTÁNÍ ČIPŮ</text>
	</g>
	<g>
		<text transform="matrix(1 0 0 1 -811.544 145.2999)" class="st1 st2 st3">CENTRUM IT</text>
	</g>
	<g>
		<text transform="matrix(1 0 0 1 -512.644 644.7999)" class="st1 st2 st3">VÝSLEDKY</text>
		<text transform="matrix(1 0 0 1 -628.744 704.7999)" class="st1 st2 st3">MY RESULTS BOARD</text>
	</g>
</g>
</svg>
