<?xml version="1.0" encoding="UTF-8"?>
<svg id="Layer_1" xmlns="http://www.w3.org/2000/svg" version="1.1" viewBox="0 0 2500 1700">
  <!-- Generator: Adobe Illustrator 29.1.0, SVG Export Plug-In . SVG Version: 2.1.0 Build 142)  -->
  <defs>
    <style>
      .st0, .st1 {
        isolation: isolate;
      }

      .st0, .st2 {
        display: none;
      }

      .st1 {
        fill: red;
        font-family: K2D-Bold, K2D;
        font-size: 50px;
        font-weight: 700;
      }
    </style>
  </defs>
  <g id="design">
    <path d="M411.6,1010.2c2-8-6.6-7.1-12.1-9.5-8.8-3.8-16.1-10-25.3-13l1.2-15.1h-5.5v12.5c-11.3-4.3-19.5-6.5-16.7-20.8-4.4-.6-5.1,3.7-9.3,1.8-6.2-2.8-10-12.4-16.5-15.6-3.5-3.7-1.6-9.3-2-14l-4.9,1.4v5.6c-4.6-5.1-13.2-9.5-15.3-16.6-1.6-5.5.9-35.4,2.2-42.4,1.3-7.2,5-8.9,11-11.9,1.4,2-3.1,14.4,4.2,13.9l.7-22.2,23.6-27.8-.7,19.4c10.8,0,3-19.4,6.3-27.7,1.1-2.7,15-19,18-22.3,4-4.4,8.6-8.8,13.2-12.5v25.7l5.4-.2c-.8-9.9-3.1-20.3,1-29.8l31.1-15.2c2,2.7-5.4,25.2,2.1,23.6,2.2-.5,1.6-3,1.7-4.4.4-5.5-.4-17.6,2.5-21.9,4-5.9,32.1-13.7,37.5-22.3,3.3,3.3-4.8,28,2.8,26.4,3.3-.7,1.5-22.6,2.4-26.8,2-9,24.4-12.6,32.6-16,9-3.8,22.6-13.2,30.4-15.5,4.8-1.4.4,11.5.6,13.2.4,4.7,5,5.1,5.7-1.3.7-6.4-2.9-12.3,4-15.5l-1.2-4.6,42.3-36.3c1,5.8-3.6,13.3,1.4,18.1l3.5-2.1v-20.9l12.5-11.8-1.4,13.9h5.5l1.5-30.8-5.3,1.6c.4,7.7-3.8,13.5-10,18.1-4.8-15.2-5.2,4.4-7.8,8.2-1.1,1.7-8.2,8.6-10.3,10.6-9.7,9.5-22.4,18-32.7,27.1v-7l-4.9-1.4c-.5,4-.5,10.8-1.7,14.3-1.1,3.1-21.9,13.2-26.6,15.2-11,4.7-22.7,7.6-33.8,12.1-3.9,1,0-9.3-5.4-8.2-3.6.8-1.3,10-2.3,11-.4.4-2.8-.3-3.6.4-.8.7-.6,3.4-1.7,4.6-9.2,10-21.4,13.3-32.7,20.2l-.7-8.3h-5.5c.1,4.7,3.2,7.1-.6,11.2-1.1,1.2-26.6,14.6-28.2,15-5.1,1.3-2.9-5.4-8-3.9-3.7,1,.1,6.1-1.3,8.3s-15.1,7.6-15.8,8.6c-.8,1.2-.4,4.6-1.9,7.2-3.6,6.1-10.3,11.6-14.4,17.6l.7-4.8c-7.6-6.6-4.9,7.1-5.6,11-1.2,6.9-20.6,23.5-24.3,31.3v-7l-4.9-1.4c2.9,14-5.6,19.7-15.3,27.4l-2.8,40.7-4.1-1.4c-3.2,5.7,1.4,6,2.5,9.4.9,2.6-.4,5.3,1.6,8.2,1.4,2,4.1.4,6.3,1.8,3.7,2.3,10.8,11.2,14.6,14.7v27.8l2.8,1.4c4.8-2.1-.4-20.3,1.4-25.7,5.2,3,7.9,8.4,11.7,12.6,1.8,1.9,5.3,3.2,6.5,4.7,1.2,1.6-.4,3.7.5,4.9.9,1.3,3.5,1.2,3.5,1.4v25h5.6l-1.4-22.2,17.8,8.6c2.3,5.6-2.8,30.3.2,32.5l4.2.6v-30.6c5.3,2.2,34.7,21,37.5,18.1l.2-.2Z"/>
    <path d="M612.3,1149.3c1.9,1.5,2.3,2.3,4.2,0,2.6-3.9-7.3-18-9.3-22.7-20.4-48.1-19.7-82.9-17.9-133.7.2-4.8,2.4-9.5,1.4-14.5-4.4-1-7.2,2.6-11,3.6-18,4.4-36.8,4.8-54.8,7.7-31.3,5.2-63.5,14.4-94.7,17.9-4.2.5-11.5-2-14.5.7-1.7,1.5-.8,5.5-4.2,4.9.4,2.5,2.4,2.3,4.1,1.4-.2,33.6-3.9,67.3-8.5,100.6-6.2,44.4-14.7,78.9-29,121.2-.9,2.7-3.1,5.6-3.6,7.6-1.2,4.8,4.2,6,6.1,1.9,19.3-51.5,30.1-105.4,35-160.3,2.4-.3,1.3,3.2,1.4,4.8.6,13.4.3,28.3,0,41.8-.5,24.9-2.2,50.1-2.8,75.1-.1,5-4.7,11.8,2.3,13l3-2.1,4.6-146.2,156.9-30.8-7.6,122.5,2.7,4c1.9-1.9,4.3-3.3,4.8-6.3,1.6-8.4-.6-22.6,0-32,.4-7,2.3-15.2,2.8-22.2.7-11-.2-21.9,1.4-32.6l8.7,32.3c2.1,7,14.2,39.5,18.3,42.8l.2-.4ZM581.1,1035.3l-157.1,29.2c.2-16.5-3.4-33.6-1.1-49.8l161-26.7-2.8,47.3Z"/>
    <path d="M555.7,1285.2c-.5-1.7-1.7-4.9-2.9-6.1-11.2-12.2-26.9,6.9-12.1,16.9-4,4.1-18.7,10.4-18.1,16.6,1.1,12.1,17.4-2.8,19.5-.6l-1.4,13.9c-3.5-2-13.3-8.9-16.8-6.4-2.3,1.7-2.1,14,.7,16.2,1.8,1.4,5.2.2,5,2.6l-7.6,1.4c-2.7-5.8-1.8-11.2-.8-17.2l-4.1-2.3c5.4-5.1.9-6.1.4-9.2-.6-3.4,4.1-7.5-3.3-9.4-6.9-1.8-6.9,4.9-6.9,10.4-9.3,1.6-7.3-1.1-12-6.8l-6.6,1.1-1.5,14c-5.9-4.3-12.9-11-9.4-19.1,1.9-4.3,8.3-5.3,4.6-10.9-7.4-11.2-30.9-8.5-27.6,5.3.7,3,6.4,8.2,6.5,11.4.2,3.8-2.4,11-2.6,15.4-.7,11.3,3.8,18.2,4,27.9.2,9.1-2.8,21.2-2.7,30.5,0,2.7,1.4,15.5,3.6,16l5.5-4.1c2.1,0,1.7,12.7,9.2,7.5l1.2-67.3,9.4,5.3,4.5-.4c6.7-7.2-1.2-8.4-2.8-14.6,2.5-.8,3.3,2.1,5.2,2.5,1.7.4,3.8-1.2,4.3-.9.4.2,3.1,5.6,5.7,6l-5.5,4.1c.7,3.2,6.7,3.2,7,3.5.2.2-2.9,4.8,0,6.3l6.9,2.2,1.8,34.4c3.5.3,9,1.5,10.7-2.1,2.7-8.2-4.5-31.9,1.9-35.7,1.3-.8,12.9-4,13.6-3.7.4,5.3-4.2,30.4.7,31.9l4.6-2.3,1.7-10.2c4.8-1.1,2.2,7,6.4,8.2,11.7,3.4,2.9-28.2,4.7-30.5l5.6.8c6.5-8.9-.2-13.8-2.5-21.4-3.1-10.4-4.9-21.2-7.7-31.3v.2ZM475.4,1323.1l-1.4,51.4h-6.3l-2,9.7c-.5-6.7-.4-13.4,0-20.1.4-6.4,2.8-16.2,2.6-22.3,0-3.2-3-5.6-3.7-8.6-2.8-13,11.1-27.3-4.5-40,4.8-6.6,11.1-4.8,16.6,0-8,4.6-6.2,16.1-2,22.8,2.8,4.4,9.9,5.5,10.3,11.2-3.3-2.3-5-5.2-9.7-4.2h.1ZM507.4,1334.2l2.8-9.7,1.4,9.7h-4.2,0ZM510.2,1320.3v-5.6h2.1l2.1,2.1-4.1,3.5h0ZM521.3,1375.9l-2.8-11.9,1.5-14.5,2.2,16.2-.9,10.2h0ZM540.8,1335.6l-8.3,1.4-1.4-9.7c3.2-1.8,11.3,6.9,9.7,8.3h0ZM554,1342.5l-3.5-.7-4.1,6.3c-.4-4.5,5.4-12.5,2.9-15.7l-7-2.3c-.4-2.5,2.5-.8,3.8-1.6,2.1-1.4,2-19-.4-22-3.9-4.9-12.6,5.8-17.4,5.5,3.9-6.1,20.4-9.2,17.9-18.5-.5-1.7-10.5-9.6-3.1-12,10.9-3.6,5.5,13.4,6.2,15.6s4.5,2.3,5.2,4.6c.2.7,2.3,11.7,2.4,12.9,0,1.5-1,8.1-.8,13.3.5,10.9.5,21.8,1.4,32.6l-3.4-18.1h-.1Z"/>
    <path d="M653.5,1251.3c-2.4,1.1-5.1,7.8-7.6,4.8-7.1-8.4.3-19.3-5.3-24.6-2.4-2.3-8.7-2.7-10.9.2-1.7,3.6-1.4,7.6-2.4,11.5-.6,2.4,1,3.9-3,3.2,1.4-6.3,2-14.2-3.1-19.1-2.7-2.6-9.7-2.4-12.2.6-5.2,6.3,0,13.6,1.5,20.4-12.2,6-8.3,11-9.8,21-1.5,10.4-7.9,21.5,3.9,27.9-1.5,11.4.3,22.7-.9,34.4,6,3.2,5.5,12.6,13.4,10.4.5-1.3,1.9-2.8,2.2-4,3.5-11.8-1.1-31.9,2.3-45l6.9-13.3,2,5.7,8.2,1.1c3.4,7.7.6,19.2.9,28.7.2,7.1,1.1,21.3,3.2,27.3.4,1.3,2.1,5.3,3.8,5.3,1.5-9.9,6-19.1,8-28.8,1.1-5.3-1.4-13.6,4-16.9,2.4-1.5,6-1,7.2-1.8,5.1-3.5-2.6-26.8-3.8-32.5-1-5,1.4-21.2-8.4-16.6h-.1ZM615.3,1231.1l4.5,7.6-2.4,7.7-3.9-9.4,1.8-5.9h0ZM649,1320.5l-3.8,9.4c0-9.5,0-19,0-28.5,0-3,1.5-5.6,1.4-8.3,0-13.8-13-11.7-15.2-25.1-8.1-1.4-7.6,7.9-10,12.4-1,2-3.6,3.2-4.6,5.1-3.9,7.5-2.1,21.2-1.3,29.5l-2.2,16.2c-.3-2.7.7-6.3-.2-8.9-.7-1.9-3.6-1.8-4-3.2-2.1-8,4-21.8-.8-28.1-1.4-1.9-4.2-1.6-4.8-5-.7-4.1,2-9.8,2.7-14,.8-5-1.4-11.2,3-15.1,2.7-2.4,7.8-1.8,6.9-7.7,2.3-2.5,5,7.8,9.7,4.9.4-.2,5.7-6.2,5.9-6.6,1.7-3.9-.8-10.9,5.2-10.8-.9,9-3,18.3,4.9,25,6.1,5.2,13.1-4.4,14.6-2.8-1,12.2,5.3,23.1,5.7,35.3-12.6,4.1-13.2,14.5-13,26.2h-.1Z"/>
    <path d="M659.1,1381.3c-2-8.1,10.4-20.9.4-26.1-13.5-7.1-17.6,8.3-24.7,16.4-2.4,2.7-13.1,10.6-13.3,13.2-1,9.9,16.8,4.9,22.3,4.8-.5,11.8.6,23.7,0,35.5-.4,7.5-7.3,31.5,2,35.4,3.3,1.3,3.9-9.3,4.9-11.1l2.8,6.9h4c7.5-22.7,5.8-46.9,9.7-70.2-.2-4.2-4.8-5.1-8.2-4.8h0ZM631.3,1384l7.7-8.3,3.5,6.9-11.1,1.4h-.1ZM655.6,1445.2c-3.2-4.9,1.3-31.9-.7-33.4l-5.5,1.4,1.2-29.8c-9.5-4,4.8-8.3-5.4-12.6l5.5-9.9,7,.8c.6,3.2-3.1,4-3.9,6.5-1.9,6.4-1.7,18.5,6.8,19.3.2,19.3-.5,38.8-5,57.5v.2Z"/>
    <path d="M596.5,808c.3-6.6-3.6-11.3-10.4-8.8-2.4.9-1.3,4.2-3.6,4l-2-5.7c-4.9-5-11.7,4.8-11.8,9.2-.2,5.3,4.6,3.5,4,7.6-7.4.2-13.5,4.2-19.6,7.8-1.1,14,17.3,3,20.3,7.4,2,2.9-.7,19.6,3.1,27.5,5.9,12.2,9.6-4.2,8.6-10.7l4.9,4.2c1.5.3,2.8-.9,3.2-2.3,2.1-6.8-2.5-20.3-1.2-29,.6-4.6,4.1-6.4,4.3-11.1h.2ZM578.3,803.2l2.8,9.7-6.9-5.6,4.1-4.1h0ZM581.4,830.5c-.9,4.3-.2,9.2-.3,13.7,0,1.7,1,5.2-1.4,4.8-1.7-8.1,3.5-26.7-9-26.4-4.1,0-6.9,3.2-10.4,2.1,3.8-6.9,9.2-3.6,14.3-5.1,1.9-.6,3.3-3.5,4.4-3.6.7,0,4.9,3.7,7.6,2.5,2.4,7.2-4.2,7.2-5.2,12h0ZM586.7,812.9c.2-2.7-.4-9.3,4.1-8.3.3,4.9,1.1,7-4.1,8.3Z"/>
    <path d="M114.2,839.5c-.6-3.6,7.3-15.6-.3-22.4-6-2.9-12.7.6-13.4,7.4-.2,2.2,1.3,4.1.4,7.3-1,3.8-5.6,7.8-6.8,12.8-2.5,10.9,3.6,18.9,4.3,30.2.3,6-2.6,23,0,26.9,4.8,7.6,6.7-15.2,6.3-18.1l4.8,16.7c1.5,2.3,5.6,1.5,6.3-.7,1.1-3.7,0-18.3,0-23.6,0-7.7-3.4-8.7.8-20.1,1.7-4.7,7.8-6,2.6-12.6-1.4-1.8-4.8-2.7-5-3.7h0ZM109.5,862.6c-7.2-.2-10.5-4.6-10.5-11.9s7.3-14.3,8.1-18.4c.8-3.9-4.9-10.8,4.4-10.1,2.6,5.1-3.7,14.3-3.5,16.8.5,5.5,6.4,5.7,6.4,8.9s-6,10.3-4.9,14.7Z"/>
    <path d="M140.1,835.6c-6.4,3-3.3,11.5-6.1,16.9-11.2-2.6-12.9,10-10.6,17.9l6.7,2.6c1.6,9.3-4.5,21.9,0,30.2,1.3,2.3,3.7,5.2,6.2,2.3l3.4-11.2c0,3.8,1.8,7.4,6.2,6.9,4.8-1.5,3.8-22.4,3.6-27-.2-5.4-3-15.9-2.4-20.7.3-2.3,2.9-3.9,3.5-6,2.1-7.5-2.5-15.6-10.5-11.8h0ZM143.3,884.6l-1.3-8.5-5-2.1-.5-11.7h-5.6l-.7-2.7,9.1-1.3c.8-4.5.9-9,2-13.4.6-2.3-1.4-4.1,2.8-3.4-6.2,14.4,3.1,28.1-.7,43.1h-.1Z"/>
    <path d="M705.8,780.4l3.4,1.1,2.8-4.4c-1.3,4.2,3.1,25.4,7.9,15.1,2.1-4.6-.3-11.3,0-16.8.2-6.5,1.4-21.5,2.3-27.7.9-6.1,8.8-10.7,2.7-16.2-11.1-10.3-21.4,5.3-11.7,15.1-11.7,6.8-8.8,22.6-7.2,34v-.2ZM716.4,784.8h-1.1v-6.7h1.1v6.7ZM721.9,733.6c2.7,2.1-3.4,7.3-3.9,10-3.5-1.6-4.9-4.4-5-8.2.4-1.5,8.5-2.1,8.8-1.8h.1ZM717.5,748.1l-1.1,20-3.9-2.2-3.9,6.7c-.6-10.3-.9-18.7,8.9-24.5Z"/>
    <path d="M606,728.8c.6,7.8,4.9,5.4,5.7,9.7,1.1,5.8-.4,31,1.2,33.3,5.4,3.9,6.2-2.4,7.3-3.2l5.9,1.2,2-2.2c-.5-9.2,1.5-18.4,1.6-27.5,0-6.8,1.1-20.7,0-26.5-.6-3.2-3.9-4.2-4.1-6.9-.2-4.2,3.7-6.7-.7-12-5.9-7.2-16.3,5-16.2,11.9,0,2.5,1.5,5.1,1.4,7-.2,3.6-4.7,7.4-4.1,15.3h0ZM617.3,714.8c.2-3.2-6.6-11.3.8-14.3,7.8-3.1-1,8.7-.7,10.1,2.2,4.4,8.3,2.2,8,8.5,0,1.3-1.2,2.4-1.2,2.8v29.9l-6.9-1.5c-.8-.8.6-12.3-.4-15.6-.8-2.8-5-3.8-5.2-7.2-.3-4.6,5.3-9.8,5.6-12.7h0Z"/>
    <path d="M557.4,760.8c.3,9.8,2.9,19.9,2.9,29.8,5.2,1.6,4.8-3.6,5.6-4.2.5-.4,4.5,4.4,6.8,2.7,7.6-13,1.7-23,.2-35.5-.5-3.9-1.4-13-1.3-16.5,0-4.9,4.1-10.1,3.9-13.8,0-1.2-5.2-12.2-5.9-13-4.4-4.4-11.5,2.6-12.1,7.4-.7,6.6,2.6,9.2,2.6,12.4s-2.3,4.4-2.6,7c-.6,4.8-.3,18.3,0,23.6h0ZM565.1,715.6c.9,0,4.5,8,4.6,9.3.2,2.3-2.2,4.3-2.4,6.8-.8,11.5,0,22.8,2.7,34h-6.9c4.1-8.2-.7-17.7,0-25.7.3-3.9,3-7.7,2.8-11.1-.3-3.9-6.1-9.1-.7-13.3h0Z"/>
    <path d="M526.9,1136.7v-9.6c-3.1-1.3-4.4-1.7-6.3,1.3l.7,8.3c-3.7,0-7.6-.6-11.2.6-7,2.3-2.9,6.5-2.7,11.2.2,6.2-.1,12.5,0,18.8l12.5-1.4c-.7,4.5,1.3,8.8,1.5,13.2,0,2.8-3.3,9.2.6,10.4,9.6,2.9,2.3-22.5,3.5-23.6,16.2,1.5,8.8-7.4,9.7-17.4.8-8.4,8.5-16.6-8.3-11.8ZM513,1156.2c-1.6-9-1.8-15.8,9.7-13.9l-9.7,13.9Z"/>
    <path d="M558.6,880.1c.6-1.8,1.7-11.4,1.8-13.6,0-7.4-2.7-9.3-9.8-9,2.7-4,6.3-13.3,1-16.3-3.6-2.1-12.1-2.4-14.2,2.5-2.7,6.4,1.1,9,1.4,13.1.3,4.4-2.9,9.6-2.1,15.2.5,3.5,3.5,5.5,3.8,7.3.4,2.3-1.7,5-1.7,7.2,0,8,2.3,18.8,4.1,26.7.5,2.2,2.9,6.9,5.6,6.6,2-.8,3.1-2.5,3.4-4.6,1.5-8.3-.2-23.6,1.4-30.3.4-1.7,4.3-1.5,5.3-4.7h0ZM542.1,846.3h7c.5.5-1.7,10.9-4.1,11.1-1.4-3.7-3.7-6.8-2.8-11.1h-.1ZM547.7,910.2h-1.4v-20.9h1.4v20.9ZM547.7,886.6c-5.6-2.4-.9-8.2-1.9-12.6-.7-2.8-3.7-2.1-3.8-4.7,0-3.9,2-5.8,3-9,2.3-.6.9,2,1.6,2.4,1.9,1.2,5.7,0,8.1.3.5.5-1,13-1.4,14.3-.4,1.5-7.2,4.2-5.6,9.4h0Z"/>
    <path d="M450.3,1374c-6.7-4.7-13.6-7.7-21.5-9.1l2.2-28.4c-.7-2.7-6-.6-6.7-1.1-1.4-1-.9-5.4-5.9-3.9l-1.2,60.2,5.3,2.3c-1-6.1-2.2-12.6-1.4-18.8.2-1.9.7-3.9,2.8-2.1-1,3.6,4,5.8,4.2,6.5.8,3.4-2.5,22.9,5.4,18.3.2,0,2.4-4.3,2.4-4.7.3-2.9-3.4-3.4-3.6-4.4-.7-3.4.4-7.9,0-11.5,5-1.6,1.9,10.3,6.2,8.3,3.3-1.5,0-8.8,2.8-11.1,4.5,3.1,3.6,23.7,4.9,25h5.5c-1.2-9-4.8-16.2-1.5-25.5h.1ZM424,1344.6v22.9h-1.4v-29.2l2.6,2.4c.5,2.1-1.3,3.4-1.3,3.9h0Z"/>
    <path d="M531.1,831.9c-.2-.2-4.3-3.2-4.6-3.3-12.3-5-4.9,15.4-5.3,16.7-.9,2.9-21.9,17.3-4.1,20.4-2.5,11.1-1.3,22.3,0,33.3,6.3.6,7.6-4.4,7-9.7l1.5,4c5.9,1.8,6.6-2.3,6.9-7.6.5-12.3-1.4-25.4,0-38.8.6-6.2,5.6-7.1-1.4-15.1h0ZM521.3,869.9v-10.2c-9.6-2.5-1.2-4.2.9-6.9,1.9-2.4,1.8-6.9,4.6-7.9-3.5,8.4,4.6,22.3-5.5,25h0ZM528.2,842.1h-2.8l-1.4-6.9c4.2-.4,4.5,3.5,4.2,6.9Z"/>
    <path d="M367.2,703.2c.6.9,0,18.9,0,22.3l1.9,1.7,5.3-1.1v21.7c9,.8,3-14.1,5-19.7,1-2.7,3.8-1.3,5.5-2.3,6.2-3.6,1.8-18.1,5.1-24.5l-1.9-2.7-8.9-.7-1.1-8.5c-7.9-3-3.2,7.4-3.6,7.8-3.2-.7-11.1,0-10.8,4.2,0,1.3,3.5,1.6,3.6,1.8h-.1ZM372.2,703.4h8.3c.9.6-5.6,9.5-6.5,10.8-1,1.4,0,3-3.1,2.3l1.3-13.1h0Z"/>
    <path d="M735.1,740.6c-3.3,8.7,2.7,8.4,3.3,11.5.5,2.7-1.8,12-2,15.5,0,3.1-.6,10.1,2.8,11.6,3.9,1.8,2.5-3,2.8-3.3,3.9,1,1.3,6.9,2.4,8.7l4.7,1.2c6.4-1.9-2.8-27.6.4-34.2,1.4-2.9,4.2-1.7,4.8-6.3,2.1-15.6-14.9-16-19.2-4.8h0ZM740.9,765.9c1.8-4,0-10.6,3.3-13.4-.2,4.5,1.4,10.7-3.3,13.4ZM749.6,745.7c-1.6,2.6-12.7,3.4-10.8-3.5,1-3.6,5.8-3.1,7-6.4,3.8.8,5.4,7.2,3.7,9.8h0Z"/>
    <path d="M539.3,788.6c.6,5.7-.4,11.5.2,17.1,8.8,4.2,6.6-10.5,6.8-16.5l6.9,1.4c0-10,5.6-29.8,1.7-38.6-.9-2.1-4.1-4.1-4.4-5.4-.3-1.9,6.9-7.3,1.9-14.4-2.3-3.4-13.7.7-14.6,6.4-.8,5.1,2.8,7.6,2.5,9.4-.2,1.1-2.2,3.4-2.8,5.6-3,12.2,3.6,10.1,4.3,12.8.6,2.5-5.6,12.1-5.3,16.6,0,2.1,2.4,3.5,2.6,5.6h.2ZM543.6,737.8c3.6-3.6,7.5,5.5,2.1,5.5s-2.9-4.7-2.1-5.5ZM547,750.4c4.8,2.2,4,16.3,2.8,20.9l-4.9,1.3c7.9-8.1-2.4-13.7-2.5-14.5,0-.4,2.3-8.8,4.6-7.7h0Z"/>
    <path d="M498.3,843.5l4.2,1.3,5-16.5,6.6-.3c4-2.4-1.3-20.9-1.1-25.4.3-7.5,7.8-9.9,1.3-19.6-2.7-4-5.8-6.6-9.8-2.8-4.5,4.4-.2,10.5-1.3,16-3.1-.5,0-5-4.9-5.6-3.6-.5-7,1.1-7.6,4.9,10.4,14.5,5.3,31.4,7.6,48h0ZM511.6,789.3l-1.4,6.9h-1.4l-1.4-6.9h4.2,0ZM500.5,801.8l2.2,2.9,4.7-1.5,2.6,13.1-8.2,10.5c-.3-6.7.4-13.5,0-20.2,0-.9-2.1-3-1.4-4.9h0Z"/>
    <path d="M690.9,1139.6c-3.8,1.3-7.2,1.2-10.5-1.4,4.9-10.4-3-11.3-5.5-1.4-7.2-4.2-16.8-6.9-24-10.7-1.5-.8-1.7-2.3-2.2-2.7-3.9-2.3-9.7-1-6.9-8.2l-1.7-2c-9.4,4.7-24.1-14.6-30.7-15.2-2.3-.2-3.7,1.9-3.3,4l30.3,18.4c1.1,1.8,1.1,26.3,1.6,31.1.2,2.1.2,3.5,2.2,4.8,5.8,1.2.9-13,.7-16-.4-5.3.2-10.7,0-16,9.4,9,23.2,10.9,34.5,16.9,1.4,4.9-2.5,33,3.7,33.1,4.3-3.4.8-8.6.6-13.1-.2-5.8.3-11.6,0-17.4l11.1,1.4v-5.5h.1Z"/>
    <path d="M574.1,896.3l6.2,4.2c1.6-1.3,2.8-3.2,3.2-5.2.7-3.2-1.9-22.8-2.6-27.4-.9-5.6-6.2-8.7-11.7-7.8-8.7,1.4-.3,16.5-.9,18.5-.4,1.5-4.8,5.5-6.1,9.3-6.9,19.4,4,31.2,11.8,8.3h0ZM574.2,866.4l1.4,4.9-4.2-.7-1.4-4.9,4.2.7ZM566.7,891c.6-2.2,5.7-11.9,8.1-11.4l3.5,4.9c-9.2,3.3-8.7,9.1-11.1,17.4-3-1-1.1-8.7-.4-10.9h0Z"/>
    <path d="M546.3,1072.9c-11.1-3.2-26-1.9-30.5-14.7l-9-.6c-3.2,4.5,4.2,5.1,4.8,9.1,1.1,6.2-.8,15,0,21.5h4.2v-19.5c.8-.8,11.6,5.7,13.9,6.3,4.6,1.2,18-.5,18,8.3v24.3c3.6.4,4.8.5,4.8-3.4,0-8.1-.9-17.7-2-25.7,3.8-.7,2.9,2.7,5.6,4.8,2.4,1.9,9.5,5.5,11.9,2.2l.6-4.2c-8.4,2.6-9.5-8.4-16.7-4.2,4-10-5.9-16.2-5.6-4.2h0Z"/>
    <path d="M608.2,865.7l4.9-11.1c2.1,0,2.2,3.4,3,3.9,1.9,1.1,5.9.4,6.6-2,.7-2.4-2.7-8.8-2.7-12.4,0-7.8,4.1-13.1-6.2-18.8-4.2,2-10.3,4.6-8.8,10.1.4,1.4,2.5,2.6,2.3,4.3-.2,1.4-3.1,3.5-3.7,6.1-1.4,6-.6,15.8,4.6,19.8h0ZM611.7,832.4l5.5,1.4-3.5,2.8c-1.5-1.3-2.6-2.1-2.1-4.2h0ZM613,842.1l-2.8,9.7c-3.8-1.8-.5-9.1,2.8-9.7Z"/>
    <path d="M720,1151.5c-2.8-1.9,2.9-13.2-3.4-11.9-4,.8.4,8.6-.7,9.7-4.6,3.1-17.5-6.1-19.5-4.2-4.5,4.4,14.8,10.4,18,8.4,2.7,9.6.9,19.2.4,28.8,0,1.6-.7,5.9,1.7,5.8,7-.2-.3-26.9,2.7-32,4-2.9,20.1,5.1,17.4-3.4-3.9-5.5-12.5,1.4-16.7-1.3h0Z"/>
    <path d="M458.9,1167.6c2.8-1.7,2.5-3.8,2.8-6.5,1.8-12.8,3.1-26.1,6-38.6,1.6-6.7,8.7-10.5,2.2-18-1.4-1.6-4.5-2.3-5.4-3.9-2.6-4.4.6-15.3-7.8-18.4-17.8,1-9.9,19-19.3,28.7-1,8.4,8.1,6.4,10.8,8.7,1,.8,5.8,21.6,6,24.7.6,6.2-5.6,26.4,4.6,23.3h0ZM446.8,1111.8c-2-5.1,5-3.8,5.6-6.6.2-.9-8-15.1.9-15.7,4.2-.3.2,9.5,1.8,12.9,1.7,3.7,9.6,6.1,10.2,8.6l-5.5,23.1-3.8-19.4-9.2-2.9Z"/>
    <path d="M478.1,1040.3l4.2.6.7-13.9,11.1,15.3c4.8-1-1.7-22.8,2.1-27.8l-5.3,2.3-.9,13c-2.3-5.4-8.2-8.9-7.7-15.2h-5.5l.2,24,1.1,1.7h0Z"/>
    <path d="M534.5,1032.5c4.6,0,.7-8.5,2.3-10.9l6-3,.8,11c9.4,3.9,3.8-7.3,3.9-11.7,0-5.1,2.6-10.5,1.5-16l-4.9,1.3c-1.4,5.6,1.2,10.2-5.6,12.5-4.1,1.1-1.2-11-2.1-12.5-4.2-4.8-5.1,15.4-5,17.1,0,3.4.4,9.5,3,12v.2Z"/>
    <path d="M446.8,1043.7c-.2,6.3,5.7,4.6,6,2.1-3.6-8.6,1.4-13.7,10.1-13.3l-2.1-5.6-9,4.2c-1.3-7.7,2.8-10.1,9.7-11.1l-2.1-5.5-14.6,6.2c4.7,7.3,2.2,15.1,2,22.9h0Z"/>
    <path d="M524.9,1034.1c6.1-5,1.2-16.5-3.6-21h5.6c.8-8-9.4-10.1-10.9-1.8-1.4,8.2,9.4,8.9,6.7,18.4-3.7,2.4-6.8-7.3-9.7-4.2-3.4,3.6,7,12.5,11.9,8.5h0Z"/>
    <path d="M508.8,1040.9v-30.6c-9.3-.5-3.9,6.5-4.1,11.8-.2,5.9-5.2,16.8,4.1,18.8Z"/>
    <polygon points="473.7 1016.5 468.5 1014.5 465.8 1040 471.3 1042.3 473.7 1016.5"/>
    <path d="M369.8,1113.9c.2-2,2.7-3.7,2.5-5.3-.5-2.9-4.7-8.1-2.5-13.5-1.8,0-3.8-.5-4.9,1.4-1.4,2.2,3,6.6-1.3,5.6-3.6-.8-22.8-12.6-26.2-15.5-5.5-4.7-8.3-11-12.7-16.5l-2.7,2.8-36.2-29.2-.7-11.1-5.4.2-2.2,4c-3.4-3.9-7.9-7.2-11.2-11-1.5-1.7-1.5-4-2.5-5.2-1.2-1.5-4.9-2.4-5.8-4.6-.7-1.8,1.6-4.6,0-7.1-.9-1.5-3.7,0-6.3-1.8-2.5-1.7-16.3-19.1-17.3-21.7-1.5-3.6-.6-7.4-.8-11.1l-6.9,4.2c-7.5-13.9-27.2-23.2-30.2-39.8-1.5-8.5-3.5-16.5-5.4-25.5-3.8-18.1-5-21,2.3-38.1,4.5-10.5,11-21.9,17.2-31.5,3.3,8.3.1,23.9,2,31,.3,1.2,3.5,2.8,4.9.9,4.5-6-4.7-31.5-1.5-41.8l30.7-40.2c-.5,10.4-.6,20.8-.6,31.3s-4,13.7,4.8,10.4l.7-43.8c1-5.2,16.2-20.2,20.8-23.7,1.4-1.1,1.8-2.7,4.2-2.1-.2,7.6.3,15.3,0,23-.1,4.5-2.7,10.6-1.5,15,.3,1.1,3.9,2.9,5,1l2.3-49.1,22-21.8v28.5c0,.2-2.4,2.8.7,3.5,7.2,1.6,3.5-6.2,3.5-9,.1-7.6.1-28.3,2.5-33.6,2.6-5.8,9.1-11.4,10-18.5,2.5-.3,1.3,3.1,1.2,4.7-.3,4.5-3.5,9.5,4.3,10.6l1.2-42.2c-1.3-4.4-6.6,0-8.1-1-1.5-6-5.8-10.9-7.5-16.9-.8-2.7-.9-5.4-1.1-8-1.5-1.3-3.8-3.1-5.5-4.3-1.8,1-13.4-7.8-14.5-9.8-.2-.4-.5-2.4-.9-5.3l-3-1.5c-13.2.8-2.5,5.5-1.7,12.4,1.1,10.1-2.1,19.7.8,29.2,3.5.7,4.8,0,5-3.6.3-7.1-2.7-16.6-.2-24.1l14.6,10.7-.8,31c7.3,4.6,4.7-11.3,4.9-16.1,0-1.6-.9-3.8,1.4-3.4,1.7,8.5,12.2,17.3,10.2,26.1-.7,3.1-9.5,22.2-11.5,23.3-1.2.6-3.3-.9-4.7-.5l-1.6,1.2c2.9,10.9-10.9,23.7-19.4,29.2-2.2,1.5-5.7,1.1-7,2.7-1.5,2-3,10.6-5.6,13.9-4,5.2-15.3,11.7-19.4,18.1l-.7-4.2c-8.5-.7-3.3,4.7-4.8,8.3l-30.6,40.4c.2-2.4-2.7-9.9-6.2-6.9-1.3,1.1.2,9.5,0,11.6-2.3,15.8-20.3,34.4-23.6,50.9l-3.5-4.2-4.6,2.4,2.8,44c10.2,7.7,4.6-7.1,4.1-12.5-.1-1.6-1.3-5,1.2-4.7.4,10.1,5.8,21.2,4.1,31.2-.9,5.3-4.8,3.6,1.4,11.2l.7,35.4c9.8,8.2,5-6.5,4.9-11.7-.2-6.1-.3-12.8.7-18.8l29.6,31.6,2.3,46.3c2.2,3.4,6-.8,6.3-3.5l-4.2-34c1.6-1.3,5.1,3,6.3,4.1,2.1,2.2,14.6,17.3,14.6,18.8v38.9c0,1.9,5.9,3.6,6.8-.2.6-2.2-2.4-15.5-2.7-19.3-.2-3.9,0-7.9,0-11.8,6.7,7.6,23.6,16.3,23.6,27.1v38.2h5.6l-.7-40.3,36.6,31.6c3.5,15.5.3,32,4.5,47.7h4.1l-2.8-41.7,36.2,21.8,1.9,38c-1.5,5.1,5.9,6.1,6.4.7-1-10.4-3.9-23.1-2.8-33.3v-.2Z"/>
    <path d="M417.7,694.5c-.1,6.6-7.6,9.2-7.7,14.6,0,3.1,5,23.1,6.5,26,1.6,3.1,3.1,3.8,6.1,1.6-.2-4.5-.1-9.9-.7-14.6-.7-5.9-4.8-7.5,2.9-12.4.8,0,11.8,8.7,13.4,10.2,2.7,2.4,7.7,11,11.8,9.9,9.9-2.5-6.7-14.7-9.1-18-3.3-4.5-6-11.8-9.3-16.6,2.3-1.4,4.6-3,6.3-5.1,1-1.2,1.7-2.5,2.1-4,.2-.6.5-1.6.3-2.3s-.8-1.6-1.3-2.1c-.6-.5-1.2-.9-1.9-1.2-1.2-.6-2.4-1.1-3.6-1.6-.8-.4-1.9-.8-2.4-1.6-.8-1.3-1-9.5-.3-10.6h0c-.7-.8-1.8-1.9-2.5-2.8-1.4-.3-2.6-1.8-4.8-1.8-6.3,0-10.2,13-6,16.9l-4.3,1.6c1.1-3.6-1.6-13.2-6-8.7-3.1,3.2.1,8.7.4,12.6.7,9.7-2.5,22.8,9.9,10.1h.2ZM421.5,682.6c1.2-2.5-.6-9.5,0-13,.4-2.6,1-2.4,3.7-2.1,2.3,3.9-1.3,8.2.6,11.9,1.2,2.3,7.9,2.8,8.2,7,0,3.1-8.6,4.5-7.7,10.7.5,3.2,10.3,10.5,9.8,15.7-7.8-6.3-10.5-11.3-18.9-2.2l-1.6,9.7-.9-11.1c.5-3,4.4-4.2,5.9-8.1,1.1-2.7,3.4-16.4-1.3-15.3l-7,6.5v-4.7l9.2-5h0Z"/>
  </g>
  <g id="text" class="st2">
    <g class="st0">
      <text class="st1" transform="translate(2042.3 1122.7)"><tspan x="0" y="0">DOHLÁŠKY</tspan></text>
    </g>
    <g class="st0">
      <text class="st1" transform="translate(1487.4 1092.7)"><tspan x="0" y="0">PŘIHLÁŠKY</tspan></text>
    </g>
    <g class="st0">
      <text class="st1" transform="translate(1305.2 583.2)"><tspan x="0" y="0">KORIDOR III.</tspan></text>
    </g>
    <g class="st0">
      <text class="st1" transform="translate(1609.3 342.9)"><tspan x="0" y="0">START</tspan></text>
    </g>
    <g class="st0">
      <text class="st1" transform="translate(1389.7 638.1)"><tspan x="0" y="0">KORIDOR II.</tspan></text>
    </g>
    <g class="st0">
      <text class="st1" transform="translate(1466.8 699.3)"><tspan x="0" y="0">KORIDOR I.</tspan></text>
    </g>
    <g class="st0">
      <text class="st1" transform="translate(87.1 718.2)"><tspan x="0" y="0">SBĚRKA</tspan></text>
    </g>
    <g class="st0">
      <text class="st1" transform="translate(407.4 981.4)"><tspan x="0" y="0">CÍL</tspan></text>
    </g>
    <g class="st0">
      <text class="st1" transform="translate(498.6 175.3)"><tspan x="0" y="0">RADIO 2</tspan></text>
    </g>
    <g class="st0">
      <text class="st1" transform="translate(932.2 399.7)"><tspan x="0" y="0">RADIO 1</tspan></text>
    </g>
    <g class="st0">
      <text class="st1" transform="translate(669.9 1410.9)"><tspan x="0" y="0">VYČÍTÁNÍ ČIPŮ</tspan></text>
    </g>
    <g class="st0">
      <text class="st1" transform="translate(829.9 1079.4)"><tspan x="0" y="0">CENTRUM IT</tspan></text>
    </g>
    <g class="st0">
      <text class="st1" transform="translate(1128.8 1578.9)"><tspan x="0" y="0">VÝSLEDKY</tspan></text>
      <text class="st1" transform="translate(1012.7 1638.9)"><tspan x="0" y="0">MY RESULTS BOARD</tspan></text>
    </g>
  </g>
</svg>