<?xml version="1.0" encoding="UTF-8"?>
<svg id="Layer_1" xmlns="http://www.w3.org/2000/svg" version="1.1" viewBox="0 0 2500 1700">
  <!-- Generator: Adobe Illustrator 29.1.0, SVG Export Plug-In . SVG Version: 2.1.0 Build 142)  -->
  <defs>
    <style>
      .st0, .st1 {
        isolation: isolate;
      }

      .st0, .st2 {
        display: none;
      }

      .st1 {
        fill: red;
        font-family: K2D-Bold, K2D;
        font-size: 50px;
        font-weight: 700;
      }
    </style>
  </defs>
  <g id="design">
    <path d="M911.3,1397.4c-1.6-1.6-4.8-1.2-5.5-2-3-3.4,1.2-18.8-13.9-14.1-11.6,3.6-4.4,18.3-6.9,21-1,1.1-6.1-.8-6.6,4.4-.6,6.8,7.3,14.6,8.4,22.1.8,5.3.4,12.8,0,18.4-.2,5.1-6.3,30,3.3,30.5,8.1-5.2,5.6,2.3,10.3,6.6,4.8,4.3,7.7,3.2,8.4-3.2,1.6-14-1-31.1,0-45.6.6-8.2,7.5-33.2,2.5-38h0ZM902,1440.4c-.2,8.3,5,17.6-.7,24.5-1.7-5.2,0-11-2.3-16.2-1.5-3.4-4.9-3.8-5.3-5.2-.9-3.7.5-9.9-.2-14.6-.6-4-5-16.1-4.8-17,.5-1.9,4.7-1.9,5.1-3.8,1.2-5.1-7.1-24,5-19.1l-.9,10.1,8.9,5.8c0,11.4-4.5,24.8-4.7,35.5h0Z"/>
    <path d="M861.7,1431.4c-2.8-5.3.3-13.8-6.1-16.9-8-3.8-12.5,4.4-10.5,11.8.6,2.1,3.2,3.7,3.5,6,.6,4.9-2.2,15.3-2.4,20.7-.2,4.7-1.3,25.5,3.6,27,4.4.5,6.2-3.1,6.2-6.9l3.4,11.2c2.5,2.8,4.9,0,6.2-2.3,4.6-8.3-1.5-21,0-30.2l6.7-2.6c2.3-8,.6-20.5-10.6-17.9h0ZM865,1441.3h-5.6l-.5,11.7-5,2.1-1.3,8.5c-3.8-15,5.6-28.7-.7-43.1,4.2-.7,2.2,1,2.8,3.4,1.1,4.4,1.2,8.9,2,13.4l9.1,1.3-.7,2.7h0Z"/>
    <path d="M972.6,1435.7c.6,4.6,3.4,3.4,4.8,6.3,3.2,6.6-6,32.3.4,34.2l4.7-1.2c1.1-1.8-1.5-7.8,2.4-8.7.3.3-1.2,5.1,2.8,3.3,3.4-1.5,2.9-8.5,2.8-11.6,0-3.5-2.5-12.8-2-15.5.6-3.1,6.6-2.8,3.3-11.5-4.3-11.3-21.3-10.8-19.2,4.8h0ZM982.7,1442.8c3.2,2.8,1.5,9.4,3.3,13.4-4.7-2.6-3.1-8.9-3.3-13.4ZM977.3,1436c-1.7-2.7,0-9.1,3.7-9.8,1.2,3.3,6,2.8,7,6.4,1.9,6.9-9.1,6.1-10.8,3.5h0Z"/>
    <path d="M1024.8,1293.6c.5-6.6,3-13.1,1.8-19.9-2.9-4.8-29.2,2.7-35.4,3.2-6.9.5-14.5-.7-21.5-.5,4.6-6.8-8.4-19.2-8.7-21.7-.4-3.1,2-6.7.5-12-3.4-12.2-19.6-2.5-17.1,8.2.9,3.7,5.6,1.2,2.8,11.2-4.1,14.6-24-.3-28.2,7.6-1.3,2.4,2.2,6.6,3,9.4,1.1,3.4-1.6,8.4,4.3,8.8-2.8,4.3-10.3,2-14.6,2.4-10.1,1.1-19.7,2.5-29.9,2.1l.2-8.4c4.4.2,8.8,0,13.1.4,2,.2,3.7,2,5.5,2.2,5.4.6,12.9-3.2,18.9-1.7v-5.5c0,0-17.8.8-17.8.8l-1.6-22.2c-2.4-3.6-13.5,0-17.5-.3,7.6-6.9,8-15.8-1.9-20.5-8-1.7-8.3,16.6-2.3,20.4l-21.6.8-.6,25.2-18.7.8c-.3-.3,1.2-2.1,1.2-3.4,0-5,0-15.3-.7-19.5-.3-2.3-1.9-3.1-2.6-4.9,12.7-2.4,11.4-18.9-1.6-19.6-9.9,3.7-10.2,13.4-4,20.8-1.9-.6-3.8,1.2-4.9,1.3-7.1.8-17.4-.4-25-.6-3.7,0-.8,10.4-.9,13.2-.3,10.2-5.8,20.4,11.4,13.5l2,7.6-17.5,1.7c-1.9,2.4,3.3,10,3.2,13.3l-.5,24.3c11.3,1,4.8-5.3,4.4-11.7-.3-6.6.6-13.5.5-20.1l13.9-1.1-5.7,11.5c.8,2.8,6.7,2.4,8.8,5.3,1.6,2.2,5.7,16.7,8,16.8,5-3.2,3.5-8.6,3.8-13.8,2.4.5,1.8,5,2.9,7.4,3,6.1,7.4,3.4,7.6-.9,0-2.3-7.9-14.8-4.6-20.3,7.1,3.3,15.2,1.1,22.3-.9l-.5,22.9c0,1.6,6.9,7,8.3.2.4-1.9-.7-5.1.9-6.2,5.3,0-2.1,8.5,2.6,9.8,2.1.6,5.9-1.6,6.2-3.5.2-1.5-2.2-3.4-2.5-5.5-1.1-7.7-1.1-16.5-.9-24.3,4-4.5,7.4,17.5,7.9,19,.6,1.9,5.7,15.8,9.5,12l-.7-22.1c.7-.8,18.4-2.2,21.5-2.4,6.4-.4,20.1,3.3,21.7-4.4.9-4.4-7.4.5-10.5.5s-5.9-1.7-8.3-1.7c-6.6,0-18,4.3-22.8-1.8,12.5,1.5,27.8-3.1,39.8-2,1.7,0,5.7,2.4,6,4,.8,5,.7,15,.6,20.5,0,5.6-4.4,16.8,7,9.8l-.9-13.1,6.6,13.4,13.8.9c4-5.4-4.3-23-2.3-25.5,7.4-2.5,27.8-6.8,31.9.7,3.6,6.4-.6,7.3-1.1,11.1-.4,3.3,1.7,7.9-.6,12.2l5.4,2.4c2.5-9,3.2-16.3,2-25.6l5.8-10.3-.5,21.5c0,2.4,3.9,10.7,3.1,14.7,11.4,4.3,3.3-9.7,2.6-16.1-.6-6.7.6-13.8.2-20.5l8.5-4.2-4.1-4.2,5.6-3.3c2.3,2.8-6,26.5,1.5,25,5.4-1,2-10.6,2.3-14.6h-.3ZM880,1245.2h2.8c0,2.7.2,6.2-2.9,6.9v-6.9h.1ZM832.8,1244.1c5.2-3.3,7.6,7.1.5,6.9-2.8,0-1.2-6.5-.5-6.9ZM813.2,1278.4c-2.2-.2-5,1.6-6.7,1.1-3.7-1.1-1.7-10.6-1.9-13.8l26.5-.2,1,14.7c-4-1.3-9.9,1.1-13.1.7-1.8-.2-3.5-2.3-5.7-2.5h0ZM825.6,1314.8l-8.2-7.2c5.3-6.4,7.2-11.6,16.9-9.3-4.1,5-9.9,9.1-8.7,16.5ZM846.1,1301.5c-2.6,0-8.8-.6-7.5-4.5l20.8.5c-2.1,3.6-9.6,4.1-13.3,4ZM864.6,1311.6l3-9.7c1.5,3.8,1.2,7.8-3,9.7ZM824.7,1292.6l.2-7,6.9.3.8,4.1c7.5-1.2,17.9,0,24.9-1,2.4-.4,16.1-6.7,17.6-5.1l1.2,8.4-51.5.3h-.1ZM862.6,1279.4l.5-15,31.8-2.3-1.7,16.1-30.6,1.2h0ZM956.5,1244.1l-.2,6.9-5.4-5.7,5.6-1.3h0ZM936,1289.5l-8.3-.2v-1.4l8.4.2v1.4h-.1ZM926.6,1274l18.7-.7,3.4,8.1c-7.9,2-25,5.4-22.1-7.4h0ZM955.1,1306.1c-.5,4.2,3.1,7.9,3.8,12.6.2,1.4,1,5.1-1.4,4.7-1.3-3.1-2.4-9.4-4-11.8-2.6-3.8-8.4-1.1-6.6-9.9,1.2-5.7,10.1-9.6,15.5-8.7-.7,5-6.6,8.1-7.3,13.2h0ZM966.5,1297.1c7.5-8.4,21.8-.7,32.1-3.4-7.4,8.4-21.9,0-32.1,3.4ZM1003.1,1288c-12.5,1.6-30-.8-42.7-.4-6,.2-12.8,1.5-18.8,2.1,3.5-4.6,11.7-1.7,16.7-5.3,1.5-4.9-5.1-7-5.9-11-.6-3.4,2.1-11.2,1-15.5,2.9,3.7,11.7,11.2,10.5,15.9-.6,2.5-5.7,6-.7,9,17.9-1.6,36.2-.9,53.7-5.4-1,5.6-8.8,9.9-13.8,10.6h0Z"/>
    <path d="M1106.8,1198.3c.2-3.1,2.6-9.1,2.2-11.2-.3-1.9-7.1-5.9-9.2-8.7-2.7-3.6-3.6-8.7-6.1-11.9-1.5-1.9-4.5-2.9-6.1-5-8.8-11.4-14.1-23.1-21.4-35.4l-174.6,4.1-2.2,6.6,16.7,1.1-29.8,61.3-42.5,1.7c-1.5-1.6,11.4-22.8,14.3-25.6l-3.1-4.7-18.1,29.5-32,1.4c-1.9-1.4,25.1-34.7,23.2-40.5-.8-8.5-10.6,12.8-11.2,13.9-6.4,10.4-13.7,22.6-24.5,28.4-2,7.4,16.6,2.7,20.1,2.5,43.7-2,88.7-.8,130.8-4,13.7-1,28.2.4,41.7-1.9l.6,5.6c5.2,1.5,4.1-3.8,7.7-4.1,15.9-1.6,34.4,3.6,50.8,1.3-3.1,5.3-1.1,10.9,4,6l27.4-73.4c8,19.8,24.1,32.1,32.9,50.8l-59.6,31,.4,64.4-4.1,60.4c-2.3-1.3-2.5-8-2.6-10.4-1.1-26.9,2-56.2,2-83.5s-3.8-20.4,2-30.4c-.8-3.3-18.9-2.7-22.9-2.7-74.1-.4-149.5-2.2-223.6-2-4.5,0-18.3,1.8-18.6,7.2.2,35.3,4.4,71.4-3.5,106.1l-1.7-18.7,2.4-100c6.8-11.8,14.2-23.2,20.9-35,8-14.2,11.6-37.5,32-34.1v-5.5c0,0-18.1,1.6-18.1,1.6-12.8,24.9-25.2,50.2-41.9,72.9,3,43.6,1.6,87.7-1.5,131.2,5,1.4,7.5,3.9,12.8,1.4,1.4-.7,17.3-13,18.8-14.5,1.7-1.7,7-7.6,1.6-8.3l-20.5,14.8c-.7-11,4.5-23.5,4.9-34,.7-18.5-.6-38.2,0-57.1,0-4.9-2.2-16.9,2.7-19.8h247.2c3.6,1.9.4,6,.5,10.2.2,12.5,1.4,25.1,1.3,37.6-.3,27.4-3.7,55.5-1.1,82.7,4.8-1.4,7.2-2.1,11.1,1.6,1.8-8.3,13.1-14.9,20-19.6,16.6-11.3,35.4-19.6,52-31-.8-2.6-2.4-3.8-2.7-6.8-3.1-28.2-3.1-69-1.4-97.2l-.4-.3ZM882.4,1199.3c7.5-14.5,13.1-31.6,20.7-45.9,2.7-5.1,9.7-17.3,15.1-18.3,4.5-.9,36.6-2.1,38-.8-7.7,22.2-17.1,43.8-29.2,64l-44.5,1.1h0ZM978.5,1196.6l-45.9,2.4,29.8-63.4c14.4-3.8,29.3-1.6,44-1.7l-27.8,62.7h0ZM1036.9,1196.6c-4,2.3-10.9-.7-14.7-.4-3.7.3-9.5,3.1-14.1,3.1-7.1,0-16.4-3-24.1-1.8l29.2-64.1c2.2-1.5,23.8,0,28.6,0s13.7-3.9,18.6,1l-23.6,62.1h0ZM1098.2,1302l-10.6,8.8-47,28.4,2.9-117.2c1.9-5.8,43.8-24.4,51.8-27.6-2.7,4.5.8,7,1.1,10.5,1.2,17.1.2,34.7.6,51.4.4,15.1,3.7,30.4,1.3,45.7h-.1ZM1102.9,1227.2c0,3-.2,6-.2,9-2.4.3-1.2-3.2-1.3-4.9,0-3,.2-6,.2-9,2.4-.3,1.2,3.2,1.3,4.9ZM1103.3,1200.6l-2.8,10.5c-.8-4.6,1.1-9,1.4-13.2.2-2.7-3.6-8.7,1.8-7.6l-.4,10.2h0Z"/>
    <path d="M832.4,1136.3c0,3.5,20.5,1.5,23.6,1.2,1.3,4.9-6.9,5.9-5.8,10.3,1.2,4.7,9.7,0,12.5,1.7,0,7.9-14.6,10.6-8.1,17.2,2.3.2,13.9-14.1,13.6-17.7,5.5,0,6.1,5.3,11.1.3,0,3.4,9.3,18.3,12.9,12.8,2.9-4.7-3.3-5.6-5.4-8.5-2.7-3.8-1.6-10.3-7.3-11.4l8.7-17.1c.3-7.2-23.3-3.1-27.9-3.5l-3,13.2c-2.4.6-.5-2.7-2.1-2.9-1.7-.3-4.6,1.3-6.9,1.4-5.4,0-14.2-2.7-16,3.1h.1ZM864.8,1126.8l16.5.2-6.2,14.8-15,2.8,4.8-17.8h0Z"/>
    <path d="M824.1,1121.2c2.1,12.2.6,24.4-.5,36.5h5.5c2.2-1.9-2.1-35.7,1-41.9,1.2-2.4,18.9-8.9,14.3-15.2-3.4-4.6-10.3,10.3-15.5,10-1-12,0-17.2,11.4-22.2l-1.1-6.7c-4.2-1.1-5.5,6-7.9,6.6-5.7,1.3-8.9-7.9-10.9-8.3-11.7,4.2,3,9.8,4.4,14.9,1.2,4.4-1.6,8.6-1.4,12.9-5.3-2.3-2.5-9.2-5.9-12.7h-2.8l-2,2.3c-.2.7,3.8,11.9,4.5,13,2.5,4.1,5.5,2.2,7,10.9h0Z"/>
  </g>
  <g id="text" class="st2">
    <g class="st0">
      <text class="st1" transform="translate(2042.3 1122.7)"><tspan x="0" y="0">DOHLÁŠKY</tspan></text>
    </g>
    <g class="st0">
      <text class="st1" transform="translate(1487.4 1092.7)"><tspan x="0" y="0">PŘIHLÁŠKY</tspan></text>
    </g>
    <g class="st0">
      <text class="st1" transform="translate(1305.2 583.2)"><tspan x="0" y="0">KORIDOR III.</tspan></text>
    </g>
    <g class="st0">
      <text class="st1" transform="translate(1609.3 342.9)"><tspan x="0" y="0">START</tspan></text>
    </g>
    <g class="st0">
      <text class="st1" transform="translate(1389.7 638.1)"><tspan x="0" y="0">KORIDOR II.</tspan></text>
    </g>
    <g class="st0">
      <text class="st1" transform="translate(1466.8 699.3)"><tspan x="0" y="0">KORIDOR I.</tspan></text>
    </g>
    <g class="st0">
      <text class="st1" transform="translate(87.1 718.2)"><tspan x="0" y="0">SBĚRKA</tspan></text>
    </g>
    <g class="st0">
      <text class="st1" transform="translate(407.4 981.4)"><tspan x="0" y="0">CÍL</tspan></text>
    </g>
    <g class="st0">
      <text class="st1" transform="translate(498.6 175.3)"><tspan x="0" y="0">RADIO 2</tspan></text>
    </g>
    <g class="st0">
      <text class="st1" transform="translate(932.2 399.7)"><tspan x="0" y="0">RADIO 1</tspan></text>
    </g>
    <g class="st0">
      <text class="st1" transform="translate(669.9 1410.9)"><tspan x="0" y="0">VYČÍTÁNÍ ČIPŮ</tspan></text>
    </g>
    <g class="st0">
      <text class="st1" transform="translate(829.9 1079.4)"><tspan x="0" y="0">CENTRUM IT</tspan></text>
    </g>
    <g class="st0">
      <text class="st1" transform="translate(1128.8 1578.9)"><tspan x="0" y="0">VÝSLEDKY</tspan></text>
      <text class="st1" transform="translate(1012.7 1638.9)"><tspan x="0" y="0">MY RESULTS BOARD</tspan></text>
    </g>
  </g>
</svg>