<?xml version="1.0" encoding="UTF-8"?>
<svg id="Layer_1" xmlns="http://www.w3.org/2000/svg" version="1.1" viewBox="0 0 2500 1700">
  <!-- Generator: Adobe Illustrator 29.1.0, SVG Export Plug-In . SVG Version: 2.1.0 Build 142)  -->
  <defs>
    <style>
      .st0, .st1 {
        isolation: isolate;
      }

      .st0, .st2 {
        display: none;
      }

      .st1 {
        fill: red;
        font-family: K2D-Bold, K2D;
        font-size: 50px;
        font-weight: 700;
      }
    </style>
  </defs>
  <g id="design">
    <path d="M781.1,498c0-31.3-25.5-56.8-56.8-56.8s-56.8,25.5-56.8,56.8,3.1,21.6,9.1,30.8l.8-.5c-5.9-9-8.9-19.5-8.9-30.3,0-30.8,25.1-55.8,55.8-55.8s55.8,25.1,55.8,55.8-3.2,21.7-9.3,30.9l.8.6c6.2-9.3,9.5-20.2,9.5-31.4h0Z"/>
    <path d="M763.4,524.1c5.2-7.7,7.9-16.7,7.9-26.1,0-25.9-21.1-47-47-47s-47,21.1-47,47,2.6,17.9,7.5,25.5l.8-.5c-4.8-7.4-7.4-16.1-7.4-25,0-25.4,20.6-46,46-46s46,20.6,46,46-2.7,17.9-7.7,25.5l.8.6h.1Z"/>
    <path d="M755.2,518.8c4.1-6.1,6.3-13.3,6.3-20.7,0-20.5-16.7-37.2-37.2-37.2s-37.2,16.7-37.2,37.2,2.1,14.1,6,20.2l.8-.5c-3.8-5.9-5.8-12.6-5.8-19.6,0-19.9,16.2-36.2,36.2-36.2s36.2,16.2,36.2,36.2-2.1,14.2-6.1,20.2l.8.6v-.2Z"/>
    <path d="M740.8,520.1l-1.4-30.6h-13.9c-.8-.8,2.1-10.7-4.2-9.7v9.6c0,0-12.5,1.5-12.5,1.5.2,6.7,2.3,13.4,1.5,20.2-.4,2.8-2.9,5.6-2.7,6.7.9,5.4,7.4,1.9,10.2,2.2,7.9.9,4.2,14.4,4.9,19.9l5.6,2.3c1.6-13.7-9.7-28.1,12.5-22.2h0ZM715.8,510.4l-1.2-13.7c5.2-2.4,11-1.5,16.5-1.6l-15.3,15.3h0Z"/>
    <path d="M1117.5,415.6c0-31.3-25.5-56.8-56.8-56.8s-56.8,25.5-56.8,56.8,3.1,21.6,9.1,30.8l.8-.5c-5.9-9-8.9-19.5-8.9-30.3,0-30.8,25.1-55.8,55.8-55.8s55.8,25.1,55.8,55.8-3.2,21.7-9.3,30.9l.8.6c6.2-9.3,9.5-20.2,9.5-31.4h0Z"/>
    <path d="M1099.8,441.7c5.2-7.7,7.9-16.7,7.9-26.1,0-25.9-21.1-47-47-47s-47,21.1-47,47,2.6,17.9,7.5,25.5l.8-.5c-4.8-7.4-7.4-16.1-7.4-25,0-25.4,20.6-46,46-46s46,20.6,46,46-2.7,17.9-7.7,25.5l.8.6h0Z"/>
    <path d="M1091.5,436.3c4.1-6.1,6.3-13.3,6.3-20.7,0-20.5-16.7-37.2-37.2-37.2s-37.2,16.7-37.2,37.2,2.1,14.1,6,20.2l.8-.5c-3.8-5.9-5.8-12.6-5.8-19.6,0-19.9,16.2-36.2,36.2-36.2s36.2,16.2,36.2,36.2-2.1,14.2-6.1,20.2l.8.6v-.2Z"/>
    <path d="M1064,405.2l-.3-5.8-4.2-.3-1.3,5.7c-3.6,2.2-11.9-1.9-12,2.4,0,9.5,2,19.5.7,29.1,1.2,5.4,10-1.4,11.5,1.8,1.8,3.6-3.8,22,2.4,21.2,4.5-2.5,0-20.2,2.5-22.1,4.6,2,13.8-1.3,14.4-6.4.3-2.5-2-5.7-2-8.7s1.7-5.2,2.1-8.1c1.7-14-8.1-3.5-13.9-8.6v-.2ZM1061.3,421.5l-9.7,7.6.7-18.2h17.5c0,.1-8.5,10.6-8.5,10.6Z"/>
  </g>
  <g id="text" class="st2">
    <g class="st0">
      <text class="st1" transform="translate(2042.3 1122.7)"><tspan x="0" y="0">DOHLÁŠKY</tspan></text>
    </g>
    <g class="st0">
      <text class="st1" transform="translate(1487.4 1092.7)"><tspan x="0" y="0">PŘIHLÁŠKY</tspan></text>
    </g>
    <g class="st0">
      <text class="st1" transform="translate(1305.2 583.2)"><tspan x="0" y="0">KORIDOR III.</tspan></text>
    </g>
    <g class="st0">
      <text class="st1" transform="translate(1609.3 342.9)"><tspan x="0" y="0">START</tspan></text>
    </g>
    <g class="st0">
      <text class="st1" transform="translate(1389.7 638.1)"><tspan x="0" y="0">KORIDOR II.</tspan></text>
    </g>
    <g class="st0">
      <text class="st1" transform="translate(1466.8 699.3)"><tspan x="0" y="0">KORIDOR I.</tspan></text>
    </g>
    <g class="st0">
      <text class="st1" transform="translate(87.1 718.2)"><tspan x="0" y="0">SBĚRKA</tspan></text>
    </g>
    <g class="st0">
      <text class="st1" transform="translate(407.4 981.4)"><tspan x="0" y="0">CÍL</tspan></text>
    </g>
    <g class="st0">
      <text class="st1" transform="translate(498.6 175.3)"><tspan x="0" y="0">RADIO 2</tspan></text>
    </g>
    <g class="st0">
      <text class="st1" transform="translate(932.2 399.7)"><tspan x="0" y="0">RADIO 1</tspan></text>
    </g>
    <g class="st0">
      <text class="st1" transform="translate(669.9 1410.9)"><tspan x="0" y="0">VYČÍTÁNÍ ČIPŮ</tspan></text>
    </g>
    <g class="st0">
      <text class="st1" transform="translate(829.9 1079.4)"><tspan x="0" y="0">CENTRUM IT</tspan></text>
    </g>
    <g class="st0">
      <text class="st1" transform="translate(1128.8 1578.9)"><tspan x="0" y="0">VÝSLEDKY</tspan></text>
      <text class="st1" transform="translate(1012.7 1638.9)"><tspan x="0" y="0">MY RESULTS BOARD</tspan></text>
    </g>
  </g>
</svg>