<?xml version="1.0" encoding="utf-8"?>
<!-- Generator: Adobe Illustrator 23.0.1, SVG Export Plug-In . SVG Version: 6.00 Build 0)  -->
<svg version="1.1" id="Layer_1" xmlns="http://www.w3.org/2000/svg" xmlns:xlink="http://www.w3.org/1999/xlink" x="0px" y="0px"
	 viewBox="0 0 282.2 222.4" style="enable-background:new 0 0 282.2 222.4;" xml:space="preserve">
<style type="text/css">
	.st0{display:none;}
</style>
<g>
	<path d="M273.3,143.2l0.3,0.3c-0.6-3,1.8-7.4,1.8-10.6s-2.5-8.2-2.2-12.2c0.4-4.2,6.5-15,6.4-16.8c-0.3-5.8-9-7.2-10.2-9.2
		c-1-1.6,6.4-14.4-2.4-21.9c-10.1-8.5-21.2,20.1-6.6,20.4c-1.5-5.5-3.9-14.3,4.2-15.3c4.5,7-2.1,15.3-0.8,20.9
		c1.1,4.7,6.4,2.7,9.1,6.2c-8,9.9-4.1,17.8-4,27.8c0,10.6-5.4,14.8,6.5,23.6l-4.5,9c-7.9-3.5-6.1-17.2-8.3-20.9
		c-0.6-1.1-4.4-3.5-5.6-1.4c-1.9,3.3,1.8,15.3,2.2,20.1c0.2,2.2,1,9.5-1.4,10.5c-6.6-20.3-3.6-41.9-7-62.5l5.4-1.6
		c0-2.7,2-17.6-3.3-16.5c-4.5,2.9-2.8,5.3-2.1,9.7c-6.4,2.6-9.3-1.7-15.3-2.8c2.7-9.8,1.8-15.2-5.6-22.2c4.2-0.7,12.8-6.5,9.1-11.3
		c-1.1-1.4-4.5-1.1-6.2-2.1c-3.3-1.9-11.8-10.9-14.7-10.3c-10.2,2,10.5,13,9,15.3l-28.5,16.7c-4.1,0.3-1.2-1.6,0.2-2.6
		c6-3.9,7.9-3.5,5.4-12.8c-3.3-5-8.8,5.1-13.2,4.2c-5.1-12.5,23.3-21.7,24.8-27.4c1.6-6-3.5-5.1-4-6.9c-0.4-1.4-1.3-14-1.4-16.4
		c0-4.7,3.8-12.1,0-16.8l-3.7-2C202,5,184.6,20.5,179.6,24.2c-5.1,3.8-17.9,9.6-21.8,15.1c-0.8,1.1,0,3.4-0.4,3.7
		c0,0.2-2.3-1.3-4.1-0.8c-4,1.1-8.8,5.6-13.2,6.4c-4.6,0.8,0.9-4.9-1.3-8.4c-5.4-3.1-21.3-6.8-15.8-16.4c2-3.5,31.6-12.3,36.5-17
		c4.1,0.8,1.1,17.2,2.3,21.3c0.9,3,4.1,3.2,5.1,0c0.5-1.4-0.7-22.4-1.2-24.8c-1.6-8.6-12.3,2.2-16.7,4.2
		c-9.5,4.3-20.7,7.5-30.6,11.1c-3.7,2.7,0.6,11.4,0,11.8c-5.7,0.6-11.4-2.5-16.5-5c-4.1-2.1-11.8-9.6-15.6-6.9
		c-2.2,1.6,0,18.2,0.2,22.3c0,6-3,17.1,1.7,19.2c12.5,5.6,25.5,1.6,21.9,21.9l-9-4.2c-2.2,1.7-2.8,3-1.4,5.6
		c2.5,4.8,24,10.4,28.6,15.9c4.1,2.4,6.1-1.9,6.9-5.5c-10.8-4-15.6-9.5-13.9-21.6c4.4,0,11.6,11,14.6,9.7c7.7-3.3-6.8-30.9,9-27.8
		l1.3,13c-5,1.7-11.5,9-3.7,10.2c9.5,1.5,9.5-2.5,13.5-10.1l-5.4-4.3l-0.3-12.2l8.4-6.5c2.2,7.8,1.1,35.9,6.9,39.7
		c2.1,1.4,2.1,0.3,3.5-0.7c1.8-1.2,16-14.1,17.3-12.5c5.6,12-22.8,15.2-14.7,26.5c1.7,2.4,6.4-0.2,6.3,2.7l-24.6,15l-11.6-3.2
		L80.6,84.5c1.6-8.5,17.3-6.6,15.3-16.6C92,68.6,71.7,79.2,71.1,81.4c-1,3.5,2.2,5.8,2.7,9.4c1.3,9.4-2.5,42.2,1.2,47.4
		c0.5,0.7,1.6,1.3,2.2,2c1.3-1,1.8-1.8,2.1-3.4c1.9-11.1-2.6-24.5-1.5-34.8c0.2-2.1,0-3.5,2.1-4.8c21.8,12.4,47.2,15.9,67.5,31.1
		c3.4,4.8,1.5,28.1,2.7,34.9c0.9,5.3,6.9,3.4,7.1,0c0.3-5.5-2.6-16.1-2.9-22.3c0-2.2-0.5-10.9,0.2-11.6c4.9-1,7.9-5.8,12.4-9.1
		c8.6-6.2,18.7-11.1,27.6-16.9c9-5.9,17.2-13.1,26.5-18.7c-3.4,6.5,0.8,11.1,1.2,14.8c0.2,1.8-2.3,3.4-2.6,5.4
		c-0.6,3.9,4.1,9.9-1.4,12.4c-4.2,2-12.5-1.3-13.9,7c-2.3,13.4,16.5,14.9,19.8,23.2c3.6,11.6,1.5,26.2,4.1,37.6
		c0.4,1.7,9.4,14.5,10.3,14.8c8.2,2.6,4.7-11.4,4.7-14.4c-0.2-11-1.8-26.4-1.4-36.2c0-2.2,1.8-8.2,4.3-9l11.2,57
		c11.3-0.2,3-20.4,6.9-29.2c2.9,0,2.2,6.4,2.8,6.9c6.9,5.7,12.8-18.1,15.2-21.5C282.2,150,274.2,148.1,273.3,143.2L273.3,143.2z
		 M156.2,121c1.4-2.9,5-5.6,8.3-5.5C163,118,159.2,120.9,156.2,121z M168.7,112.7c6-6.6,15.3-12,23.6-15.3
		C184.8,102.8,177.5,109.5,168.7,112.7z M186.7,93.2c1.5-2.5,5.3-5.4,8.3-5.5C193.6,90.6,190,93.3,186.7,93.2z M200.6,91.8
		c1-2.3,3.1-4.6,5.6-4.1C205.2,90,203.1,92.3,200.6,91.8z M231.2,87.7l-2.1,11.1C224.7,95.3,224.1,86.3,231.2,87.7z M239.5,190.5
		c-3.2-1.9-0.5-9.3-1.4-12.5C241.3,179.8,238.7,187.3,239.5,190.5z M242,134L242,134c-0.8,3.9-4.8,7.9-5.2,12.9
		c-0.5,5.1,2.4,10.4,1.3,15.8h-5.5c-0.5-4.6,0.7-10.2,0-14.7c-1-7.4-16.7-14.6-22.3-19.4c-1.2-4.9,10.7-2.1,14-6.8
		c2.6-3.7,3.7-15.9,1.3-20.2c3.4-0.9,3.2,2.7,4.6,3.7c1.9,1.3,8.3,3.9,9,5C240.6,112.7,242.7,130.7,242,134L242,134z M245.1,109.9
		c3.4,2.1,2.6,9.1,2.8,12.5C244.5,120.3,245.3,113.3,245.1,109.9z"/>
	<path d="M67,113.6L67,113.6L67,113.6L67,113.6z"/>
	<path d="M53.4,99.3c12.7-19.7-12.9-32.5-14-7.5l-11-4.2c-0.4-7.3,2.5-19.8-7.5-20.7c-7.9,5.2-5.1,20.8-9.1,25.7
		C9.7,95.2,1,96.2,0.5,98.3c-3.4,13.8,12,16,12.6,22c0.2,2.2-1.3,4.6-1.4,6.9c-0.3,13.2,0,33.8,2,46.6c0.7,4.6,2,11.6,7.1,6.9
		c1.4-3.8,0.3-7.8,0.8-11.7c0.2-1.7,0.6-7.6,2.6-7.8l2.7,24.2l4.2,0.8c4.1-13.8,5.1-26.7,5.6-41c0-1.7-1-5.2,1.4-4.8
		c1.9,6.4,3.3,26.8,11.1,25c1.3,5.7-2.7,28.3,1.3,31.4l4.2,0.6c0.2-5.8,4.7-12.4,5.5-17.5c1.5-9.7,3.6-27.5,4.3-37.4
		c0.5-6.3-1.8-18-1.2-22c0.4-2.6,3.8-4.6,3.7-6.9C66.6,109.1,56.7,102.4,53.4,99.3L53.4,99.3z M46.2,85.7l4.2-0.8
		c2.6,1.7,0,13.4-5.5,12.5L46.2,85.7z M21.3,75.2h1.4v9.7h-1.4V75.2z M18.5,150.2c-3.2-1.9-0.5-9.3-1.4-12.5
		C20.3,139.5,17.7,147,18.5,150.2z M33.8,121.7L33.8,121.7c-2.1,15.7,0.2,32.1-2.8,48c-2.8-0.5-2.3-2.9-2.8-4.9
		c-1.7-6.9-2-24.5-4.4-28.9c-1.7-3.2-5.2-1.6-5.4-3.1l2.8-17.7L7.4,103.7c-1.3-3,6.4-2.3,9-4.9c2.2-2.1,2.6-7.6,5.6-9.7
		c1.9,5.4,6.9,4.2,11.1,6.9C42.4,102.1,35,112.7,33.8,121.7L33.8,121.7z M59,144.2V144c-0.1,0-5.7,27.1-5.7,27.1v-25
		c-3.6-1.2-4.1-0.9-6.9,1.4l-2.6-13.1l-5.7-0.8c-1-10,2.2-19.4,5.5-28.6c5.3-0.6,13.9,4.9,15.1,10.2c1.1,4.9-3.9,2.7-4,6.6
		C59.6,129.2,59.4,135.5,59,144.2L59,144.2z"/>
	<path d="M194.9,145.3L194.9,145.3c-2.6-3.4,4.6-11.8-5.5-15.2c-11.2-3.8-9.6,8.6-11.6,14.6c-1.2,3.5-5.9,6.5-7.1,11
		c-2.2,8.3,4,11.8,10.6,14.8c2.3,16.7-9.6,33.7-0.8,49.2c3.8,0.8,6.5-8.3,6.3-11.1c3.7,1.8,1.7,9.8,3.4,12.5c2.4,3.1,5,0,5.9-2.5
		c7-18.8,1.4-34.8,4.6-51c0.7-3.8,4.4-4.6,5.2-7.3c0.5-1.6,0.8-7.7,0-8.6C205.5,151.2,197.1,148.2,194.9,145.3z M199.2,157.8
		c-8.3,6.8-2.6,19.9-2.6,29.3s-1.8,8.7-1.5,13.2l-4.8-5.3l-6.3,3.9l4.2-34c0-5.3-10.5-4.2-11.2-7c1.9-4.4,5.5-5.9,7.1-11.1
		c1.6-5.3-2.7-11.2,5.4-10.4l-1.8,10.7l11.5,8.8L199.2,157.8L199.2,157.8z"/>
</g>
<g id="text" class="st0">
	<g>
		
			<text transform="matrix(1 0 0 1 811.6897 -49.3193)" style="display:inline;fill:#FF0000; font-family:'Arial-BoldMT'; font-size:50px;">DOHLÁŠKY</text>
	</g>
	<g>
		
			<text transform="matrix(1 0 0 1 256.7897 -79.3193)" style="display:inline;fill:#FF0000; font-family:'Arial-BoldMT'; font-size:50px;">PŘIHLÁŠKY</text>
	</g>
	<g>
		
			<text transform="matrix(1 0 0 1 74.5896 -588.8192)" style="display:inline;fill:#FF0000; font-family:'Arial-BoldMT'; font-size:50px;">KORIDOR III.</text>
	</g>
	<g>
		
			<text transform="matrix(1 0 0 1 378.6897 -829.1192)" style="display:inline;fill:#FF0000; font-family:'Arial-BoldMT'; font-size:50px;">START</text>
	</g>
	<g>
		
			<text transform="matrix(1 0 0 1 159.0896 -533.9193)" style="display:inline;fill:#FF0000; font-family:'Arial-BoldMT'; font-size:50px;">KORIDOR II.</text>
	</g>
	<g>
		
			<text transform="matrix(1 0 0 1 236.1897 -472.7192)" style="display:inline;fill:#FF0000; font-family:'Arial-BoldMT'; font-size:50px;">KORIDOR I.</text>
	</g>
	<g>
		
			<text transform="matrix(1 0 0 1 -1143.5104 -453.8192)" style="display:inline;fill:#FF0000; font-family:'Arial-BoldMT'; font-size:50px;">SBĚRKA</text>
	</g>
	<g>
		
			<text transform="matrix(1 0 0 1 -823.2103 -190.6192)" style="display:inline;fill:#FF0000; font-family:'Arial-BoldMT'; font-size:50px;">CÍL</text>
	</g>
	<g>
		
			<text transform="matrix(1 0 0 1 -732.0103 -996.7192)" style="display:inline;fill:#FF0000; font-family:'Arial-BoldMT'; font-size:50px;">RADIO 2</text>
	</g>
	<g>
		
			<text transform="matrix(1 0 0 1 -298.4103 -772.3192)" style="display:inline;fill:#FF0000; font-family:'Arial-BoldMT'; font-size:50px;">RADIO 1</text>
	</g>
	<g>
		
			<text transform="matrix(1 0 0 1 -560.7103 238.8808)" style="display:inline;fill:#FF0000; font-family:'Arial-BoldMT'; font-size:50px;">VYČÍTÁNÍ ČIPŮ</text>
	</g>
	<g>
		
			<text transform="matrix(1 0 0 1 -400.7103 -92.6192)" style="display:inline;fill:#FF0000; font-family:'Arial-BoldMT'; font-size:50px;">CENTRUM IT</text>
	</g>
	<g>
		
			<text transform="matrix(1 0 0 1 -101.8103 406.8808)" style="display:inline;fill:#FF0000; font-family:'Arial-BoldMT'; font-size:50px;">VÝSLEDKY</text>
		
			<text transform="matrix(1 0 0 1 -217.9103 466.8808)" style="display:inline;fill:#FF0000; font-family:'Arial-BoldMT'; font-size:50px;">MY RESULTS BOARD</text>
	</g>
</g>
</svg>
