<?xml version="1.0" encoding="utf-8"?>
<!-- Generator: Adobe Illustrator 23.0.1, SVG Export Plug-In . SVG Version: 6.00 Build 0)  -->
<svg version="1.1" id="design" xmlns="http://www.w3.org/2000/svg" xmlns:xlink="http://www.w3.org/1999/xlink" x="0px" y="0px"
	 viewBox="0 0 2509.5 475" style="enable-background:new 0 0 2509.5 475;" xml:space="preserve">
<path d="M1925.8,447.1c2.3-1,4.6-3.1,4.1-5.6C1927.6,442.5,1925.3,444.6,1925.8,447.1z"/>
<path d="M1962.8,436.1c-2.8,4.7-6,9.5-6.4,15.2l16.7-26.4C1970.7,422.7,1963.8,434.4,1962.8,436.1L1962.8,436.1L1962.8,436.1z"/>
<polygon points="2126,441.6 2124.6,445.7 2128.7,445.7 2128.7,443.7 "/>
<path d="M305,253.2l-4.2-0.7l1.4-5.5c-3.7-3.1-7.5,7.3-7.7,9.6c-0.2,1.7,1.8,2.7,1.5,4.3c-0.5,2.7-4.5,5.9-3.5,9.7
	c0.8,0.8,5.2-2.2,5.6-2.8C300,264.4,300.7,257.1,305,253.2L305,253.2L305,253.2z"/>
<path d="M2226,405.4l-4.2,2.1l-11.1,23c-2.5-17.2-0.3-34.2,0-51.4c6.2,2.5,20.1-3.2,24.2-2.5c4.9,0.9,3,11.8,8.5,9.4
	c2.5-1.1,3.8-20.7,6.1-24.5c1.2-6-2.2-11.5-5.4-16.2c-0.9-1.3-3.5-1.7-4-3.3c-1.2-3.9,4.6-13.4,4-19.1c-0.6-6-5.8-6.1-6.7-8.7
	c-1.9-5.4,1.3-12.8,0.9-17.5c-0.3-3-3.4-7.3-3.3-10.1c0.2-4.3,11.1-11.6,9.1-17.9c-1.3-4-15.1-1.5-19.4-3.7l1.2-10.9
	c-13.7-1.3-10-14.9-22.8-15.6c-12.9-0.6-19.3,4.7-22.9,16.7c-3.1,2.3-13.3-16.4-22.7,0.2c-5.7,10.1-12.6,39.5-8.9,50.2
	c1.3,3.7,3.9,6.2,5.3,10c2.8,7.8,1.3,21.5,9.6,24.4v2c-14.8,9.3-7.5,15.9,6.9,16.1c-1.2,8.4,6.3,7.5,12.6,8.3
	c0.9,3.7-8.4,10.6-4.2,13.2c5,3.2,11.7-2.7,12.6-7.7c5,1.8,1,6.6,1.3,10.4c0.8,11.2,4,22.8,4.2,34.1c-6.1-3.3-8.4-13.7-11.5-17.7
	c-0.8-1-3.6-2.1-5.2-3.8c-3.3-3.7-5.7-9.8-11.1-9.1c-1.8,7.6,2.7,7,5.6,10.4c6.4,7.7,9.9,12.7,16.7,19.7c1.9,2,6.4,12.7,6.6,15.4
	c0.5,6.2-9.1,16.6-11.5,22.6c-0.9,2.2-0.6,5.5,1.3,5.5c3.1,0,8.3-21.6,15.4-20.8l-0.8-7c1.2,1,8.4-1,6.9,2.1l-15.3,23.6
	c0.1,1.4,1.8,0.9,2.8,0c5-4.1,27.4-40,28.8-46.2c0.4-2,0.4-3.9,0.3-5.9L2226,405.4L2226,405.4z M2223.3,373.5
	c0.5-3.9,3.7-8.8,6.9-11.1C2229.7,366.3,2226.5,371.2,2223.3,373.5z M2224.7,362.3l9.7-16.7C2233.5,351.4,2229,358.3,2224.7,362.3z
	 M2237,335c-5.1,10.3-15.4,21.6-20.4,32.5l2.6,5.9h-5.6l13.3-27.7l11.7-16.8C2239,331.3,2238,332.9,2237,335L2237,335L2237,335z
	 M2238.6,320.6l-2,5.6l-13.2,18c2.9-9.5,7.6-17.5,15.3-23.6H2238.6z M2233,316.5l-18,23.6C2214.7,336.6,2231.8,315.1,2233,316.5z
	 M2226,315.1c0.5,2.5-1.9,4.6-4.1,5.6C2221.4,318.2,2223.8,316.1,2226,315.1z M2227.4,310.9l4.2-1.4v4.2h-4.1L2227.4,310.9
	L2227.4,310.9L2227.4,310.9z M2231.3,274.4c1.7-2.4-2.1-5,7.2-3.8c-0.7,10.6-14.6,12.6-5.6,25c-12.4,3-15.5,18.2-25,25
	c-0.4-14.7,16.5-22.9,18.1-37.5c-0.6-0.7-5.2,1.6-4.2-2.1c1.4-3.7,8.6-5.5,9.4-6.7L2231.3,274.4L2231.3,274.4z M2195.5,342.9
	l-4.1-16.2c0.6-4.6,2.1-16.8-3.8-18.3c-8.1-2.1-2.4,6.7-2,9c1.4,7.1,1.9,14.6,3.3,21.7c1.8,9.2,5.9,18,5.1,27.5
	c-7.8,1.4-6.6-8.5-16.7-5.6v-8.4h-16.7c1.6-4.8,10.7-6.3,9.8-11.7c0-0.5-6.3-3.6-8.1-7.4c-2-4.1-2-10-3.5-14.6
	c-1.2-3.8-4.2-7.9-5.1-11.6c-0.9-3.9,3.5,1.3,4.1-4c-5.8-18.2-4.6-35.5,7.6-50.7c2-0.5,8.8,8.6,15,6.8c5.7-1.6,5.4-14.1,15.5-15.1
	c14-1.3,9.4,1.6,15.2,8.4c3,3.4,13.9,5.4,7.4,12.1c-0.9,0.9-11.9,4.5-6.6,8l13.9-1.4c-4.8,5.1-13,10.7-9.7,18.8l2.7,0.7l-8.3,12.6
	c-2.1,1.9-1.5-1.5-1.4-2.8c0.4-2.9,2.3-6.5,0.7-9.1c-1.4-2.4-5.4-1.7-6.2,1c-0.5,1.9,1.5,12.7,1.1,17.7c-1.1,12.1-8.3,21.2-9.6,32.8
	L2195.5,342.9L2195.5,342.9z M2202.4,422.1c-0.6-8.9-0.7-18.2-1.4-27.1c-0.9-10-6.7-15.7,4.2-23c1.3,9.3-1.1,19.5-1.2,28.3
	c0,5.8,4.7,17.3-1.5,21.7L2202.4,422.1L2202.4,422.1z M2201,348.4h4.2l-4.2,9l1.4,3c1,1.5,11.6,1-2.7,4.7c-0.3-3.8-3.1-9.7-2.8-13.2
	c0.2-1.6,6.1-21,7-22.2c1.7-2.3,4.5-2,6.1-3.7c4.8-5,7.1-13,13.3-16.6c0.6,0.7-7.4,13.8-8.6,15.7
	C2212.7,328.3,2199.1,346.5,2201,348.4L2201,348.4L2201,348.4z M2209.4,367.9c2-6.8,6.2-14.3,11.1-19.5
	C2217.9,354.8,2214.1,362.9,2209.4,367.9z"/>
<path d="M2086.5,405.4l-13.4-13.8c9.1-3.9,21.9-4.3,28.4-12.6c6.8-8.6,0.7-15,16.8-16.6c11-1.1,22.5,2.2,29.8-9.2
	c-4.6-9.7-4.9-1-7.6,2.2c-4.8,5.7-26.6,0-35.8,7c-3.2,2.5-3.4,9.5-5.3,13.1c-4.5,8-24.5,11.9-33.2,13.4c-4.5,4.8,18.3,10.7,15.3,18
	c-1.1,1.6-17.1,1.8-20.2,1.4c-5.1-0.6-9.3-3.4-14-4.1c-15.4-2.1-31.6,1.9-46.4,5.5l4.2,13.9c-8-2.8-17-0.8-25.5-1.6
	c-7.5-0.7-26.2-7.4-30.7-6.8c-6.3,0.8-5.3,10-9.1,11.9c-2.5,1.2-6.2,0.4-9.4,1.7c-2.6,1-6.4,5.3-9.7,7c-5.3,2.8-12.1,3.9-15.7,8.6
	c7.7-0.3,15.2-5.3,22.2-8.3l-10.5,18l2.9,4.2l2.1-6.9l1.4,4.2c7.8,1,5.1-4.9,6.3-6.9c1.4-2.3,9.7-13.8,11.2-15.3s3.6-3.2,6.1-2.9
	c1.2,1-17.6,21.2-15.3,25.7c7.1,3.2,5.9-5.5,7.7-8.9c4.2-8.1,15-16.1,14.5-26.5l-6.2,5.6c-3.2-10.5,6.9-6,13.2-5.6
	c1.4,1.4-20.4,29.2-18.1,34.7c11.1-8.3,12.5-25.1,23.6-33.4c-0.4,6.9-18.6,28.3-18.1,32.6c0,0.9,2.4,3,3.5,0.7l3.4-2.8
	c1.5,8.3,5.8,1.9,7.7,1.9s2.9,3,5.5,2.3c1-0.3,8.4-16.6,9.1-19.5c-2.3-2.5-11.7,14.8-12.5,16.7c-2,0.4-2.6-3.6-2.4-4.6
	c0.9-5.3,14.5-16.7,13.6-24.5c7,2.7,15.5-0.3,21.2,0.2c3.5,0.3,6.9,4.1,11.3,1.2l-1.9-14c4.9-1.2,9.7-3.4,14.7-4.1
	c17-2.4,23.9,1.1,38.8,2.6c4.2,0.4,28.3,1.1,26.6-5.6L2086.5,405.4L2086.5,405.4z M1925.8,447.1c-0.5-2.5,1.9-4.6,4.1-5.6
	C1930.4,444,1928,446.1,1925.8,447.1z M1956.4,451.3c0.4-5.7,3.5-10.5,6.4-15.2c1-1.7,7.9-13.4,10.3-11.2L1956.4,451.3L1956.4,451.3
	L1956.4,451.3z"/>
<path d="M2322,322c-6.7-13.6-10.8-31.3-17.4-44.5c-1.1-2.2-2.2-4-4.2-5.5l-3.3,3.7l36.1,82.3l4,0.2v-16.7c4.3-0.8,1.5,4.2,7,2.8
	c0.4-0.8-0.1-2.7,1.3-4.9c2.8-4.4,11.9-6.7,9.1-11.8c-6.3-1-9.1,6-14.6,7c-0.6-0.6,2.1-13.8,2.8-16c1.6-4.9,9.6-10.1-1.4-13.2
	l-7.6,32c-6.8-10.7-8.6-25.3-10.4-37.5c1.7-0.8,1.6,5.9,4.1,2.8c2.3-2.8-7.5-16-9.6-8.8c-0.9,3.2,4,19.3,4.8,24.1
	c0.3,1.4,1.8,4.6-0.8,4.2L2322,322L2322,322z"/>
<path d="M2340,351.9c5,7.3,15.1-10.1,12.5-13.2c-4-0.4-5.2,4.7-8.3,5.6C2343.2,346.3,2339.7,349.9,2340,351.9z"/>
<path d="M2282.4,391.5c5.4,1.2,13.3-20.4,2.1-13.9C2284.1,381.3,2277.4,390.4,2282.4,391.5z"/>
<path d="M2268.4,297c-3-0.5-4.3,0.5-4.8,3.5c-2.6,14.7,2.7,52.1,6,67.7c1.1,5.4,2.2,12.3,5.9,16.4l2.1-6.9l4.8,2.8
	c1.2,0,0.1-1.7,2.1-2.8c1.3-11.5,0.4-30.7,7.1-41c1.6-2.5,3.5-0.8,3.8-1c3.2-2.8,1.3-15.5-4.6-9.4c-4,10.2-6.3,20.7-9,31.3
	c-0.6,2.3,1.4,4.1-2.8,3.4v-22.9c0-2.2,3.7-16.4,5.1-18.5c1.8-2.6,3.7-1.1,4.7-2.5c2.8-3.6-3-10.7-6.3-6.1
	c-0.7,0.9-6.3,20.1-6.3,21.5v41l-3.8-12.2c-1.8-9.1-8-45.6-5.8-52.3C2267.2,307.1,2275.4,304.1,2268.4,297L2268.4,297L2268.4,297z"
	/>
<path d="M163.9,398.5c-5.4,6.3-5.2,18.7-11.8,23.6l9.5-26.8c-3.5-7.4-9-13.3-13-20.5c-5.1-9.3-7.2-18.9-12.5-27.8
	c-2.6,1.8-2.3,3.1-1.8,5.9c1.2,6.9,16.1,31.3,15.9,33.7c-3,4.7-16.6,39.2-16.2,41.7c0.3,2.1,4.6,3.2,5.3,0c0.2-1.1-1-3-0.5-4.8
	c3.1-11.7,9.4-22.7,11.9-34.7c2.4,0,2.7,4.4,2.5,5.9c-0.7,5.1-15.2,30.2-12.2,33h4.2c-0.6-11.1,6.6-21.5,11.1-31.3
	c2.7-1.9,1,2.5,0.8,3.5c-2.7,9.8-8.3,19-9.1,29.1c0.9,1.1,9-7,9.6-7.8c3.8-5.5,4.8-16.4,9.9-22.1c-1.6-1.6-1.5-2.8-3.4-0.7
	L163.9,398.5L163.9,398.5z"/>
<path d="M2183.5,440.2c0.8-3.3,4.8-7.1,5-11.1l6.9,1.4c2-1.9-13.7-13.6-17.2-12.4c-2.2,0.8-5.7,22-13.3,22.1
	c0-4.7,15.2-30.7,13.9-32c-3.1-2.9-6.7,5.2-7.7,6.9c-2.2,3.8-17.3,37.6-17.3,39.7s1.8,4.4,3.4,2c2.2-3.3,1.5-10.5,6.2-12.5
	c-3.9,8-2.2,22.5,2.5,5.9l16.3-25.4c2.9,2.1,1.9,2.5,1,5.1c-3,8.8-10.5,20.9-12.2,29.5c-0.5,2.7-1.3,3.7,1.5,5.6
	c2.1,0,4.3-12.2,6.2-14.4c1.2-1.4,3.4-0.4,4.4-1.7c1.7-2.3-0.2-6,0.5-8.9L2183.5,440.2L2183.5,440.2z"/>
<path d="M365.5,373.4l-0.7-6.1l-2.8-0.8l-25,29.2c1.9-9,7.7-19.9,15-25.3l-1.1-8.1c-13.4,13.7-18.4,32.7-25,50
	c-3.8-1.8,4.2-12.2-2.7-11.1c1.3,6-11,30-8.2,33.2c0.3,0.3,6.6,2.2,7.6,0.2c1.9-25.4,25.2-45.3,43.1-61.2L365.5,373.4L365.5,373.4z"
	/>
<path d="M2274.5,426.8l1.6-6c-2-2.3-7.9,9-8.6,10.2c-2,3.6-10,22.2-11.1,23c-1.3,0.9-4.4,1.1-4-1.9c0.2-1.7,14.1-29.1,15.2-30.4
	c1.3-1.6,4.3-0.3,6.4-2.2c1.6-1.4,8.4-15.9,11.8-20.2c4.9-6.2,13.5-14.5,20.6-17.6l0.2-5.3l-6.9,0.7l-29.6,34.4l-25.5,49.6
	c-2,8,7.5,0.6,7.8-4.1c3.5,0.3-1.2,7,0,8.3l8.3-6.3l-2.8-2.7l16.5-29.5H2274.5z"/>
<path d="M2362,381.6l0.2-8.1c-2.3-0.4-3.1,0-4.8,1.4c-6,5.2-23.5,35.5-26.1,43.4c-0.9,2.7-1.5,5-1.1,8c8,1.1,4.9-6.6,13.8-2.8
	c1.8-7.5,8.3-13.8,13.9-18.8c4.1-3.6,9.8-2.8,8.4-11.7c-3.8-3.9-22.2,21.6-26.4,23.6c-0.5-2.5,0.8-3.9,1.9-5.8
	c2.6-4.6,11.5-12.5,15.9-16.5c1.3-1.2,5.2-2.3,5.6-3c2.1-3.7,0-6.7-4.3-5.3c-1,0.3-8.6,11.9-12.1,12.5c2.5-6.5,7.1-17.2,15-16.9
	L2362,381.6L2362,381.6z"/>
<path d="M91.6,208c0.6-6.1,5.2-5,6-5.8c0.5-0.5,2.7-11.6,3.4-14c0.9-3.1,3.5-5.9,3.8-8.8c0.9-8-3.1-7-6.9-2c-0.2,9.6-5,17-7.2,25.5
	c-0.7,2.5-2.1,2.9,1,5.1L91.6,208L91.6,208z"/>
<path d="M78.4,206.6h3.5l0.7-5.5c2.7-0.7,0,5.9,3.4,4.2c3.4-1.8,8-22.9,11.8-27.8v-4.2c-2.6-1-6,1.2-7.7,1.2s-0.6-1.6-1.8-2.5
	c-0.8-0.6-2.7,0-3,0c-0.9-0.8,4.1-7.7-0.7-6.9l-14,34.8c1.9,2.7,9.6,0.5,7.8,6.9l0,0L78.4,206.6z M86,194.1
	c0.9-3.3,2.6-8.2,3.8-11.5c0.7-1.8,1.8-6.3,3.8-6.6l-7,22.2C83.9,198.4,85.5,195.4,86,194.1L86,194.1L86,194.1z M83.9,188.6
	l-2.8,11.1C77.6,198.7,81.5,189.4,83.9,188.6z M81.1,183c0.3,0.7-1,6.5-1.4,6.9c-0.2,0.2-0.9,0-1.4,0
	C77.8,188.8,79.2,182.2,81.1,183z"/>
<path d="M284.1,387.4c0-6.6-2.4-13.5-1.5-20.2c0.5-3.1,3.4-6.1,2.8-8.2c-0.7-2.7-6-3.1-6.8,0l1.2,30.3c-4.9,11.5-10.2,24.7-13.1,37
	c-0.8,3.5-3.8,8.5,0,11.1l13.2-41.7c2.5,0.6,2.7,2.2,2.5,4.5c-0.4,6.2-12,35.7-9.5,38.6c1.9,0.4,3.3-0.5,3.9-2.3
	c1.4-4.6,1.9-12.9,3.4-18.8c2.6-9.9,5.7-20,9.3-29.6c-1.7-2.7-3.1-1.2-5.6-0.7L284.1,387.4L284.1,387.4z"/>
<path d="M2113.4,412.4c-1.1-1.1-3.3-0.3-4.5,1.7c-7.1,11.3-10.1,25.6-21.2,34.4c-1,0.2-0.9-1.3-0.7-2.1c1.5-4.8,19.4-34,18-35.5
	l-4.2-0.8c-1.9,1.4-20.3,41-20.6,43.5c-1.1,10,8.1-0.2,10.2-3.8l1.4,6.9l6.2-4.9l-2.8-2.7c2.1-5.1,20.5-34.4,18.1-36.9v0.2
	L2113.4,412.4z"/>
<path d="M370.2,383.1v-8.3c-1.8-1.9-11.1,6.6-13,8.5c-6.9,6.7-14.5,17-17.6,26.2h-4.8c-0.5,9.6-6.3,17.5-8.8,26.1
	c-0.2,0.9-2.9,4.9,0.4,4.6c1.4,0,10.4-21.3,10.6-27.8l1.1,10.3c0.7,2.6-8.3,15.2-1.2,12.6c4.9-11,4.5-23.4,10.8-33.6
	C351.8,395.1,361.6,382.5,370.2,383.1L370.2,383.1L370.2,383.1z"/>
<path d="M309.1,427.7c3.6-9.2,5.1-23.5,13.2-29.2l0.6-3.4c-11.4-10-19.7-24.7-27.8-37.6l-8.3-2.1c-0.8,5.8,5.1,6.7,8.3,10.4
	c2.5,2.9,16.3,21.6,16.5,23.8l-15.1,40.8c8.3,0.8,5.1-5.9,6.1-9.7c2.8-9.8,8.1-19.2,9.2-29.2c2,0.5,3.6,3.4,3.9,5.2
	c1.3,8.4-13.4,31.2-12.3,41.4l2.8,0.7c1-4.8,8-9.1,6.3-13.9L309.1,427.7L309.1,427.7L309.1,427.7z"/>
<path d="M73.6,326.3c2-2.2,1.6-1.1,3.4,0.7c0.2,1.4-12.1,19.8-13.3,24.2c-0.7,2.8-1.2,3.7,1.5,5.6l14.6-25l0.7,2.8l4.8-2.1
	l-9.9-19.9c-6.9-1.8-17.9,1.2-11.6,9.5l4.2-5.5c1.7-0.4,5,2.9,4.7,4.7c-0.3,1.9-14,17.3-11,20.3C65.5,345.4,71.2,329,73.6,326.3
	L73.6,326.3L73.6,326.3z"/>
<path d="M2365.8,409.5c3.4-2.1,8.8,1.2,7.6-8.2c-3.4-3.3-21.5,13.9-23.4,17.5c-1.3,2.5-1.9,4.6-1.6,7.5c7.5-3.6,4.9,3.5,10.1,2.6
	c4.5-0.8,5.1-5.3,8-7.4c2.8-2.1,9.8-2.4,9.8-7c0-10.1-14.8,7.5-19.5,4.8C2359,416.7,2363.2,411.1,2365.8,409.5L2365.8,409.5
	L2365.8,409.5z"/>
<path d="M2320.5,406.1c3.6-3.1,8.5-1.6,7-9l-5.5,0.7c-2,5.5-20.5,19-19.5,23.6l5.5,2.2c-1.1,2.3-1.8,3.9,0.8,5.4
	c10.9,0.3,7.2-6.2,10.2-10.5c2.3-3.2,10.1-2.5,8.5-10.3c-2.3-2.3-15,10-17.4,12.5c-0.6-4.3,6.6-11.4,10.4-14.7l0,0V406.1z"/>
<path d="M2249,319.3l-3.2,4.6c3.5,9.7,8.2,19.1,11.5,28.8c3.5,10.3,7.2,29,12.2,37.8c3.2,5.7,7.6,4,6.4-0.8
	c-0.9-3.6-7.9-14.8-10.1-20.5c-4.2-10.9-9.7-26.3-12.6-37.5C2252.8,330,2254.1,319.2,2249,319.3L2249,319.3L2249,319.3z"/>
<path d="M2140.5,426.3c-3.1-1.4-4.3,11.6-8.3,12.5c-3.8-2.5,0.4-3.4,0.7-6.3c0.3-2.5-0.2-3.4-2.1-4.8l-3.5,5.5l-4.1-2.8
	c-0.6,2.9-15.3,21.2-16.7,19.5l7-18.1c3.9,3.7,7.4,3.8,6.7-2.6l-3.9-2.3c4.6-2.6,1.2-6.9-2.1-3.4c-2.4,2.6-15.3,30-13.3,31.9
	c0.5,0.5,6.6-1.4,7.7,4.1l16.7-26.4c2.1,7.7-17.5,22.4-6.3,25l3.5-8.3l4.2,6.9c4.2-3,4.3-7.2,6.2-10.5c2.1-3.6,13.6-17.4,7.7-20.1
	L2140.5,426.3L2140.5,426.3z M2124.6,445.7l1.4-4.2l2.8,2.1v2.1H2124.6z"/>
<path d="M2291.4,429.1c-10.8,5.3-10.6,22.8-22.2,27.8c3-9.5,9-18,12.1-27.5c0.8-2.6,2.8-3.8-0.3-5.8c-1.8,1.3-2.6,2.8-3.5,4.8
	c-1.8,3.7-12.8,30.3-12.4,32c0.5,2.5,2.1,1.6,3.7,0.9c1.8-0.8,7.8-2.6,8.1-2.9c4.1-4.2,6-17.1,11.8-20.9c0,8.1-7.7,16.3-9.5,23.2
	c-0.8,3-0.7,3.7,2.5,3.2l13.4-27.1L2291.4,429.1L2291.4,429.1L2291.4,429.1z"/>
<path d="M147.2,345.7c-5.9,1.3,2.7,10.9,3.7,13c3.3,6.9,13.8,32.9,20.1,35.5c6.1,2.5,3-7.9,0-10.5c-1.1-0.9-3-0.5-4.9-2.7
	C161.3,375.6,152.5,344.5,147.2,345.7L147.2,345.7L147.2,345.7z"/>
<path d="M2239.3,416.6c-8.1,15.5-21,30-24.4,47.2c4.9,0,4.3-6.2,6.2-9.8c9-17.3,23.3-33.3,28.6-52.7
	C2244.8,397.5,2240.7,414,2239.3,416.6L2239.3,416.6L2239.3,416.6z"/>
<path d="M2266.4,401.3c-2.8-0.5-3.3,1.3-4.3,3.4c-2.3,5.2-3.3,11.7-6.1,17.5c-6.4,13.6-17.7,26.8-23.7,40.3
	c-1.1,2.5-0.4,2.6,1.4,4.2c4,1.6,5.6-10,5.9-10.7c3.9-7.8,31.8-48.6,26.7-54.6h0.1L2266.4,401.3z"/>
<path d="M2232.2,451.3c3-12.5,18.4-31.3,23.3-43.5c0.9-2.2,1.4-4.1,1.1-6.6c-3.5-0.3-5.2,4.1-6.7,6.5c-4.9,7.8-20.5,38.4-21.9,46.2
	c-0.4,2.4-0.8,2.5,1.5,4.2c5.9-1.9,1.8-3.1,2.7-6.9l0,0L2232.2,451.3z"/>
<path d="M2317.2,386c2.3-3.7-1.2-8.2-6.1-3.3c-3.8,3.8-26.1,28.2-27.2,31.1c-0.9,2.3-1,4.5-0.7,6.9h4.1c1-6.2,5.4-10.7,9.1-15.3
	c3.1-3.8,9.8-11.4,13.2-14.6c2.1-2,6.9-3.4,7.8-4.7L2317.2,386L2317.2,386z"/>
<path d="M2410.9,413.8c-6.9,5.4-8.6,16.6-12.3,24.6c-4,8.6-11.7,20.5-14.4,28.7c-0.9,2.6-1.9,3,1,5.1c6.2-10.9,12.6-22.3,17.6-33.8
	C2406.1,430.9,2410.6,421.8,2410.9,413.8L2410.9,413.8L2410.9,413.8z"/>
<path d="M2096.1,412.4l-1.5-5.6c-3,6.4-27.5,46.7-24.3,50c3.8,0.6,6.4-2.1,8.1-5.1l0.3-2.5l-2.8-0.8L2096.1,412.4z"/>
<path d="M2328.2,381.8c-2.4-0.5-35.8,27.5-31.2,36.1c6.6,1.3,5.5-5.9,7.7-9.6c1.3-2.3,8-8.6,10.3-10.5c3.3-2.8,10.9-6.3,12.6-8.2
	c1.2-1.3,3.8-7.1,0.6-7.7l0,0L2328.2,381.8z"/>
<path d="M167.1,356.3c-1.2-1.3-3.7-3.9-5.4-2.3c-2.2,2.2,20,33.3,23.6,36.9c7.1,2.7,3-10.5,1.2-11.8c-0.6-0.4-2.5,0.9-3.2,0.7
	C178.1,378.2,171.4,360.8,167.1,356.3L167.1,356.3L167.1,356.3z"/>
<path d="M2418.6,420.8c0.7-2.8,1.2-3.7-1.5-5.6l-24.1,51l-0.3,3.2h4.2c1-10.9,9.1-20.2,13.7-30.1c2-4.3,6.9-14.6,7.9-18.5H2418.6
	L2418.6,420.8z"/>
<path d="M2408,463.1c4-14.8,19.3-31.7,21-48c-3.4-0.5-4.2,2.8-5.4,5c-4.3,7.9-16,33.5-18.3,41.5c-0.9,3-1.8,5.9-1.3,9.1h4.2
	C2407.1,467.5,2407.2,466.2,2408,463.1L2408,463.1L2408,463.1z"/>
<path d="M2235.8,404.1c-3.7-0.7-2.4,0.8-3.4,2.8c-6.4,13.1-16.4,29.9-21.4,42.6c-0.8,2-2.1,3.6-1.6,6.1c2.9,0.6,3.2-1.4,4.4-3.2
	c4.7-7,13-22.7,16.7-30.6c2.5-5.4,5.7-11.7,5.3-17.6l0,0V404.1z"/>
<path d="M2401.2,422.1c-0.3-0.3-4.6-0.7-4.5,1.7l-21.9,46.9l5.4-0.2C2379.8,463.5,2403.1,423.8,2401.2,422.1L2401.2,422.1
	L2401.2,422.1z"/>
<path d="M2084.3,412.4c-3.1-3-7.5,6.9-8.6,8.8c-2.6,4.4-18.6,33.4-16.4,35.7c10.1-0.3,6.6-6.3,7.6-11.1
	C2067.9,440.8,2086.6,414.7,2084.3,412.4L2084.3,412.4L2084.3,412.4z"/>
<path d="M302.2,357.4c-6.3,4.6,2.7,7.6,5.5,11.2c5.6,6.8,9.8,16,15,22.6c1.3,1.7,1.6,3.8,4.5,3.2c3.3-3.9-12.5-22-15.1-25.9
	c-2.7-4.1-3.4-13.8-9.9-10.9V357.4L302.2,357.4z"/>
<path d="M353.6,413.8l4.3-0.8c2.2-9.4,10.3-18.5,20.1-18.5l0.6-8.4C375.8,383.2,348.5,405.3,353.6,413.8L353.6,413.8L353.6,413.8z"
	/>
<path d="M2073.1,413.8c-1.1-1.1-3.3-0.3-4.5,1.7c-2.3,3.7-3.9,9.1-6.3,13.1c-4,6.7-10.4,14.4-13.5,21.3c-2.2,5,4.3,5.4,6.9,0
	c0.8-1.6-0.4-3.5,0.4-5C2058.2,440.8,2075.8,416.6,2073.1,413.8L2073.1,413.8L2073.1,413.8z"/>
<path d="M2356.7,431.4l-15.3,42.9l2.8,0.7l17.9-41.2C2362.7,431.1,2358,429,2356.7,431.4L2356.7,431.4L2356.7,431.4z"/>
<path d="M2045.4,438.2c2.1-3.5,13.9-19.8,7.6-21.6c-3.4-1-11,10-11.6,12.1c-0.7,2.6,1.5,9.2-0.2,12.9
	C2044.3,442.2,2044.3,440,2045.4,438.2L2045.4,438.2L2045.4,438.2z"/>
<path d="M2364.4,431.8c-5.6,12-10.2,27.7-14.6,40.3l4.1-1c2.2-14.5,14.1-27.2,13.9-42.1C2364.2,428.3,2365.4,429.7,2364.4,431.8
	L2364.4,431.8L2364.4,431.8z"/>
<path d="M320.9,362.4c2.4,3.2,10.8,22.1,12.6,22.2c5,0.2-2.6-13.5-3.2-14.8c-1.1-2.1-8.6-15.2-9.3-15.8c-1.7-1.5-3.5-1.9-5.6-1.4
	C309.3,354.1,320.4,361.7,320.9,362.4L320.9,362.4L320.9,362.4z"/>
<path d="M2388.7,427.7c-4.3-4-7.1,10-8.1,12.1c-5.2,10.8-13.7,21.6-14.1,33.8c5.5,0.4,2.9-4.2,3.9-6.5
	C2372.3,462.5,2390.4,429.2,2388.7,427.7L2388.7,427.7L2388.7,427.7z"/>
<path d="M198.5,387.5c1.7,1.2,2.9,1.6,4.9,1.3c0.8-5,0.1-4.9-2.1-7.6c-5-5.9-11.9-10.8-15.9-18.2l-4.2,1.5
	C180.9,365.9,197,386.5,198.5,387.5L198.5,387.5L198.5,387.5z"/>
<path d="M243.9,429.9c1.9-12.3,10.9-26,13.7-38.4c-2.9-3.1-7.5,10.9-8,12.2c-2,4.9-12.4,32.4-10.1,35.1c7.7-0.7,3.8-5.6,4.3-8.9
	L243.9,429.9L243.9,429.9z"/>
<path d="M225.7,387.4l-4.2,0.9l-13.9,49.1c6.6-0.2,3.8-6.4,4.8-9.7C216.2,414.1,221.5,400.8,225.7,387.4L225.7,387.4L225.7,387.4z"
	/>
<path d="M1982.8,438.8c-2.3-2.7-11.9,13.2-8.3,16.7l5.5-2.8l3.5,5.6l6.3-16.7l-9.7,8.3l2.8-11.1H1982.8L1982.8,438.8z"/>
<path d="M123.6,391.6c-4.2,11.2-7.7,22.7-12,33.9c-2.1,5.6,1.9,7.9,4.3,0c4.8-15.2,9.3-30.4,15.2-45.2
	C128.3,377.3,124,390.2,123.6,391.6L123.6,391.6L123.6,391.6z"/>
<path d="M217.9,429.1c2.9-11.4,11.1-26,13.1-37.1c0.5-2.8,0.8-4.1-1.8-5.9l-14,43l-0.6,8.4C220.4,437.7,217,432.9,217.9,429.1z"/>
<path d="M266.5,394c0.6-2.5,1.5-3.3-1.2-5.2c-6.3,15.9-14.2,31.7-17.4,48.6c3.1,0.5,3.3-1.3,4.1-3.5c2.2-6.5,3.4-13.7,6-20.5
	C260.2,407.5,265.2,399.6,266.5,394z"/>
<path d="M2430.4,436l1.4-8.3c-3.1-3.6-6.7,12-7.1,13c-4.4,9.8-12.4,18.4-13.7,28.7l12.5-18.1c0.3,6.2-6.2,11.9-6.9,17.4
	c-0.4,2.7,0.5,2.2,2.8,2l16.7-36.8l-0.7-2.1l-4.9,4.2L2430.4,436L2430.4,436z"/>
<path d="M2329.5,462.4c0.8-4,13.1-23.8,10.5-26.4l-4.3,0.8c-0.2,5.6-14,30.6-11,33.9C2333.7,469.9,2328.5,467,2329.5,462.4
	L2329.5,462.4L2329.5,462.4z"/>
<path d="M2349.8,433.2c-3.4-0.9-3.9,3.3-4.8,5.6c-1.7,4.4-2.5,9.3-4.3,13.8c-2.8,7.3-8.7,13.8-7.6,22.3l16-34.7l0.6-7L2349.8,433.2
	L2349.8,433.2z"/>
<path d="M2378.3,427.7c-2.7,0.2-7.6,16.5-9.2,20c-3.3,6.9-9.9,13.5-9.6,21.7c3.2,0.6,3.1-1.5,4.1-3.5c4.4-9.4,12.9-24.3,15.3-33.3
	C2379.5,430.2,2381.3,429.9,2378.3,427.7L2378.3,427.7L2378.3,427.7z"/>
<path d="M301.5,392.9c-3.7,7.7-9.9,27.6-12.2,36.4c-1.8,7,2.8,6,4.5,0.3c0.5-1.8,0-4.1,0.7-6.2c3.6-11.5,9.1-22.6,10.5-34.7
	C302.9,389.1,302.3,391.3,301.5,392.9L301.5,392.9L301.5,392.9z"/>
<path d="M135.1,385c-3.8,6.5-6.8,20.5-10.2,28.7c-2.2,5.3-6.5,9.6-6.2,15.3c3.3,0.6,3.1-1.6,4.1-3.6c6.8-13.2,11.2-29.8,16.8-43.7
	c-2.7-0.5-3.3,1.3-4.4,3.2L135.1,385L135.1,385z"/>
<path d="M143,383.2c-2.6,0.2-5.9,16.2-7,19.4c-2.3,6.3-8.7,18.7-9,24.4c0,2.8,0.3,2.2,2.8,2.1c3.6-13.9,10-27,14.2-40.7
	c0.8-2.6,2.1-2.9-1-5.1l0,0V383.2z"/>
<path d="M284.7,426.2c2.2-10.8,10.4-23.2,13.3-34c0.3-1.1,2.3-5.1-0.7-4.8c-2.5,0.2-17.2,41.3-16,47.2
	C287.8,434.6,284,429.4,284.7,426.2L284.7,426.2L284.7,426.2z"/>
<path d="M2063.4,416.6l-4.3,0.8c-2.2,10-12.5,20.1-15.5,28.7c-0.9,2.6-1.8,3.1,1,5.1l16.2-26.8l2.5-7.9h0.1V416.6z"/>
<path d="M2151,427.7c-0.3-0.3-3.2-0.5-4.3,0.9c-0.8,1-11.3,21.3-11.8,22.7c-0.5,1.9-0.9,3.6-0.7,5.6l4.9-1.4
	c-2.5-5.9,16-23.7,11.8-27.8L2151,427.7L2151,427.7z"/>
<path d="M69.9,192.7c-1.2-5.4,13-31.4,11.2-33.3l-4.7,2.9l-11.9,30.5L69.9,192.7L69.9,192.7L69.9,192.7z"/>
<path d="M196,423.8c2.9-11.1,9-21.6,13-32.3c-3.2,0-3-1-4.5,1.7c-3.1,5.8-11.6,28.5-12.6,34.7c-0.4,2.5-1.8,3.3,1.2,5.3
	C198.3,432.5,195,427.9,196,423.8L196,423.8L196,423.8z"/>
<path d="M409.8,431.8c1.1-4.7,14.5-33.3,13.3-34.7c-3.1-0.5-3.8,2-4.9,4.2c-3.2,6.4-9.3,24.4-11.4,31.7c-0.5,1.6-2.8,6.7,0.3,7.2
	C412.1,441,409.3,433.8,409.8,431.8L409.8,431.8L409.8,431.8z"/>
<path d="M198.6,391.6c-7.3,12.6-10.5,27.8-14.6,41.7h4.2c0-13,7.4-24.8,10.9-37.1C199.7,394.1,202,394,198.6,391.6L198.6,391.6
	L198.6,391.6z"/>
<path d="M375.8,412.4c-4.8-0.8-5.9,5.2-11,5.7c-1.5,3.3,4.1,5.8,4.1,6.2c0.1,3.4-4.3,9.9-2.8,14.5c4.2-2.8,4.2-9.6,5.9-14.3
	c1.2-3.4,6.1-5.8,3.9-12.1L375.8,412.4L375.8,412.4z"/>
<path d="M2155.9,438.8c0.8-2.2,6.4-11,4.8-12.5c-1.2-1.1-3.3-0.3-4.5,1.7c-2.5,4-9.4,16.7-11.1,20.9c-0.8,1.9-1.7,4.6,1,5.2
	c3.3,0.7,6.8-13.2,9.7-15.3L2155.9,438.8L2155.9,438.8z"/>
<path d="M218.7,383.2l-4.1,1l-12.5,40.7c4,0.8,2.2-1.1,3.1-3C207,418,220.3,384.6,218.7,383.2L218.7,383.2L218.7,383.2z"/>
<path d="M56.8,151l3.5-2.8c1.3,1.5-6.9,11.6-2.1,12.5c3.4,0.6,10-18.3,5.5-18c-1.6,0-1.1,4.4-3.5,4.1l1.4-6.9
	C55.7,138.7,52.1,147.4,56.8,151L56.8,151L56.8,151z"/>
<path d="M270.9,391.5c-5.5,11.8-9.1,26.8-14.6,38.9c3.6,0.9,3.7-3.2,4.8-5.6c5.3-11.4,10.2-23.9,13.3-36.1
	C270.8,388,272,389.4,270.9,391.5L270.9,391.5L270.9,391.5z"/>
<path d="M180.5,427.6c1.2-4.8,11.5-29.3,10.5-30.5c-2-2.6-3,1.9-3.5,2.7c-5.2,9.6-10.1,23.8-10.4,34.8
	C183,434.8,179.8,430.2,180.5,427.6z"/>
<path d="M2322,438.8l-4.3,0.8l-9.6,25.6c3.1,0.3,3.7,0.3,5.3-2.3c0.8-1.4,7.4-16.7,8-18.5C2321.8,443.1,2322.6,439.4,2322,438.8z"/>
<path d="M2319.4,463.6c-0.6-0.8,7.4-14.2,8.4-17c0.6-1.6,1.6-2.8-1-3.7c-3.7-1.3-2.7,0-3.6,2c-1.6,3.4-7.6,17.2-7.9,19.9
	c-0.3,2.4-0.3,2.9,1.8,4.5l4.9-3.5C2323,462.9,2319.8,464.1,2319.4,463.6L2319.4,463.6L2319.4,463.6z"/>
<path d="M104.8,423.5c5.4,0.2,4-6.7,5.5-10.5c3.4-9,9.4-17.8,11.2-27C112.6,395.1,107.9,411.3,104.8,423.5z"/>
<path d="M401.5,431.8c3.2-10,10.4-19,13.3-29.2c-3.1-0.8-4.7,3.9-5.8,6c-2.7,5-6.2,12.8-8.3,18.1c-0.7,1.8-5.4,11.4-1.8,12.1
	c4.6,0.9,2.2-5.4,2.7-7H401.5L401.5,431.8z"/>
<path d="M182.6,394.3c-2.8,0.8-3.2,4-4.2,6.2c-3.9,9.2-7.4,21.3-8.3,31.3c6.3,0,3.5-7.5,4.5-11.5
	C176.7,411.8,182.3,403.2,182.6,394.3z"/>
<path d="M2301.1,436c-3.5-0.5-4.6,3.5-5.8,6c-1.9,3.9-5.6,12.6-7,16.6c-0.9,2.6-1.9,3,1,5.1c2.1,0,13.4-25.9,11.8-27.8l0,0V436z"/>
<path d="M67.2,165c1.6,2.3-9.2,21-3.5,20.8l10.4-24.3l-5.6-0.7c-1.1-1.5,7.4-9.5-1.4-9.7l-8.4,25c3.3,3.6,5.6-10.9,8.3-11.1
	L67.2,165L67.2,165z"/>
<path d="M405,404.1l-4.2,3.4l-12.4,32.7c6.8,1.5,3.7-3.6,4.9-6.9C394.7,429.6,406.2,405.3,405,404.1L405,404.1L405,404.1z"/>
<path d="M2310.1,437.4c-2.5-1-2.5,2.3-3.1,3.8c-1.8,4.5-7.2,16.7-7.4,20.5c-0.1,2.8,0.3,2.2,2.8,2.1c2.4-7.2,6.4-14,8.7-21.3
	C2311.7,440.5,2313.1,438.6,2310.1,437.4z"/>
<path d="M391,413c0.2,4.6-12.5,28.6-11,30c0.5,0.4,4.3,0.2,4.9-1.4c1.1-11.3,7.4-21.1,10.4-32L391,413L391,413L391,413z"/>
<path d="M374,436.3c-0.7,2.6-3.2,9.2,1.8,8.1c0.2-13.5,8.7-25,12.5-37.5C381.7,412.6,376.2,427.7,374,436.3L374,436.3L374,436.3z"/>
<path d="M174.9,398.5c-2.7-0.9-2.4,2.4-3.2,3.7c-4.1,7-8.2,21-8.6,29c-0.1,2.8,0.3,2.2,2.8,2.1c-0.2-11.4,4.8-20.6,9.2-30.5
	C175.7,401.4,178.5,399.7,174.9,398.5L174.9,398.5L174.9,398.5z"/>
<path d="M2016.9,443c-1.1,0.3-11.6,17.1-5.6,19.4c2.6-2.3,2.1-5.8,3.7-8.8C2016.9,450,2024.2,444.6,2016.9,443z"/>
<path d="M356.4,415.2c-3.6-0.7-2.4,0.7-3.4,2.8c-1.3,2.8-6.4,17.7-4.9,19.5l5.5-3.5l-2.8-2.7l5.6-16l0,0L356.4,415.2z"/>
<path d="M2007.1,440.2c-1.5,0-5.1,9.9-7.6,12.5c0.7,2.2-0.6,6,4.2,5.6C2001.2,456.1,2013.8,439.9,2007.1,440.2L2007.1,440.2
	L2007.1,440.2z"/>
<path d="M1996.8,449.3c0-1.5,3.7-6.9-0.8-6.3l-6.3,11.8c2.9,4.4,7,0.7,9.7-2.1C1998.3,449.4,1996.8,449.6,1996.8,449.3L1996.8,449.3
	L1996.8,449.3z"/>
<path d="M634.2,404.9l-2.6,8.9l3.6-1.3l0.6,2.6h2C642.2,409,645.6,401.2,634.2,404.9z"/>
<path d="M363.3,418c-3.3-1-4.1,3.4-4.8,5.6c-0.7,1.9-4.1,14.7-3.5,15.3c8.2,0.6,3.9-4,4.5-7.3c0.8-4.4,4.1-8.7,3.9-13.5L363.3,418
	L363.3,418z"/>
<path d="M1886.9,402.7c1.9,4.9,0,6.2-0.8,9.7c-2.2,8.7,13,1.9,3.5-3.4c2.8-2.1,5.1-1.8,4.2-6.3L1886.9,402.7L1886.9,402.7
	L1886.9,402.7z"/>
<path d="M346,416.5c-0.7,2.1-5.6,17.5-4.9,18.1h4.2l4.2-20.8c-3.3-0.6-2.7,0.3-3.4,2.8L346,416.5L346,416.5z"/>
<path d="M2147.5,424.9c2.3,0.9,1.9-1.8,2.6-2.2c1.7-1,3.8-1,5-2.7C2152.3,410.1,2137.9,418,2147.5,424.9L2147.5,424.9L2147.5,424.9z
	"/>
<path d="M2025.3,443c-2.6,5.5-5.3,11.1-7.7,16.7c2.9,3,13.2-15.8,11.1-19.4C2025,439.6,2026.3,441.1,2025.3,443L2025.3,443
	L2025.3,443z"/>
<path d="M2076.3,330.7c5.6,2.7,6.4-0.7,8-5.9l-6.8,1.3C2074.4,316.9,2067.2,326.4,2076.3,330.7z"/>
<path d="M57.2,129.2c0.4-1.2,2.9-4-0.4-4.6c-4.9-0.8-7.7,11.6-4.8,15.3C54.7,138.1,56.3,132.2,57.2,129.2L57.2,129.2L57.2,129.2z"/>
<path d="M2126.7,413.8c-2,0.4-2.7,4.9-2,6.8C2137.5,426.4,2130.9,412.9,2126.7,413.8z"/>
<path d="M1948.6,302.6l3.6-8.3c-4.2,0.3-9.2,3.5-8.3,8.3H1948.6L1948.6,302.6L1948.6,302.6z"/>
<path d="M1842.4,401.3l1.3,6.3l7-0.8C1850.7,402.2,1846.3,400.7,1842.4,401.3z"/>
<path d="M1858.7,432.1c-1.2,0-6.6,1.9-6.6,3.2c3.2,5.2,7.8,2.2,11.1-1.4C1861.6,431.7,1861.1,431.9,1858.7,432.1L1858.7,432.1
	L1858.7,432.1z"/>
<path d="M2110.7,388.7c3.7,0.5,6.2-0.5,8.3-3.5l-6.2-3.5L2110.7,388.7L2110.7,388.7L2110.7,388.7z"/>
<path d="M1886.6,312c0.4-0.2,6.2-7.3,2.4-8C1881.5,304.9,1878.1,316.8,1886.6,312z"/>
<path d="M1948.4,328.6c1.8,1.8,5,2.5,6.6-0.3l-6.2-7.6C1945.8,322.3,1946.6,326.7,1948.4,328.6L1948.4,328.6L1948.4,328.6z"/>
<path d="M1557.4,427.7l-2.1-8.3C1547.7,422.8,1549,428.6,1557.4,427.7z"/>
<path d="M673.3,425.6l-7.4-1.9C659.6,430,670.6,430.3,673.3,425.6z"/>
<path d="M2246.9,183c0.2-5.5-5.9-4.2-9.7-4.1l3.7,5.4L2246.9,183z"/>
<polygon points="1269.7,419.3 1262.7,424.2 1271,426.3 1268.5,423.3 "/>
<path d="M429.3,360.9c3.5-1.6,2.5-11,0-11.1C425.8,351.4,426.8,360.8,429.3,360.9z"/>
<path d="M166.6,62.1c3,0.6,5.4-5.8,4.8-8.3C167.2,51.5,162.2,61.2,166.6,62.1z"/>
<path d="M2100.3,329c5.6,1.6,5-5.8,3.5-6.9C2099.9,319.4,2095.4,327.7,2100.3,329z"/>
<path d="M1019.5,390.8l5.5,4.9c-1.5-4.7,3.5-2.9,2.8-6.9L1019.5,390.8L1019.5,390.8L1019.5,390.8z"/>
<polygon points="879.8,415.2 884.6,413.1 877.7,408.2 "/>
<polygon points="824.8,387.4 824.8,395.7 830.4,394.2 828.9,387.5 "/>
<path d="M473.1,369.3c-3.2-0.9-8.7,6.6-6.9,8.3C469.2,380.5,474.2,371.7,473.1,369.3z"/>
<path d="M1227.2,437.4c0.9-0.8,2.8-4.8,2.1-5.5C1219.4,430.3,1220.5,443.3,1227.2,437.4z"/>
<path d="M1204.3,391.5v7h5.5C1210.3,394,1209.5,390.7,1204.3,391.5L1204.3,391.5L1204.3,391.5z"/>
<path d="M702.5,399.2l5.5,2.1C712,391.7,700.7,393,702.5,399.2z"/>
<polygon points="2305.3,67.6 2298.3,69 2300.4,74.6 "/>
<path d="M2190.6,190c3,0.6,5.4-5.8,4.8-8.3C2193.6,179.8,2184.8,188.8,2190.6,190z"/>
<path d="M1153.4,420.8c-9.9,3,0.7,9.2,3.7,5.4C1158.2,424.7,1155,421.5,1153.4,420.8z"/>
<path d="M439.8,366.5c1.9-1.7-6-8.5-8.3-3.4L439.8,366.5z"/>
<path d="M1997.4,287.3l2.1-2.1c0.7-2-1-5.4-3.4-4.8C1993.2,281.1,1991.1,289.1,1997.4,287.3L1997.4,287.3L1997.4,287.3z"/>
<path d="M399.5,302.6l3.4,8.3C407.9,308.6,401.2,300.7,399.5,302.6z"/>
<path d="M1838.2,322.7c-1.5,5.4,5.6,5.2,6.9,3.5C1846.8,324,1839.6,317.7,1838.2,322.7z"/>
<path d="M2112.1,330.4v5.5C2121.4,336.9,2121.3,329.4,2112.1,330.4z"/>
<path d="M1447.6,402.7l2.1,5.5c1.7,0.7,6.4-5.3,4.8-6.9L1447.6,402.7z"/>
<path d="M1097.5,408.7c2,6.4,7.9-2.2,5.4-4.7S1095.7,402.8,1097.5,408.7z"/>
<polygon points="1264.1,406.8 1261.3,407.6 1259.9,413.8 1266.9,413.8 "/>
<path d="M1737.5,413.8c-1.5,0.3-2.6,3.2-2.1,4.8C1744.1,425.9,1742.4,412.6,1737.5,413.8z"/>
<path d="M1812.5,426.3c-2.9,0.7-5,8.7,1.4,6.9l2.1-2.1C1816.7,429.1,1815,425.7,1812.5,426.3L1812.5,426.3L1812.5,426.3z"/>
<path d="M211.8,104.5c0.8-3.4-6-4.3-6.9-3.4C201.7,104.3,210.6,109.9,211.8,104.5z"/>
<path d="M612.9,376.3c-4,3.8-2.9,7.3,2,8.3C614.9,381.1,618.3,377,612.9,376.3z"/>
<path d="M2276.8,123.3c-3.1-0.6-6.1,5.8-4.8,6.9C2274.3,132.3,2281.5,126,2276.8,123.3z"/>
<path d="M571.8,420.7c4.4,1,6.8-3.1,6.9-6.9l-6.9,1.5V420.7L571.8,420.7L571.8,420.7z"/>
<path d="M2113.5,337.3l1.3,6.1l4.3,0.8c0.5-4.5-0.3-7.8-5.5-6.9H2113.5z"/>
<polygon points="2376.9,16.2 2375.4,20.4 2381.7,23.2 "/>
<path d="M638.6,396.4c-1.2-5.3-10.1,0.3-6.9,3.4C632.6,400.7,639.4,399.8,638.6,396.4z"/>
<path d="M1397.6,421.4l8.3,3.5C1407.7,423.2,1400.5,415.8,1397.6,421.4z"/>
<path d="M1883.4,423.5c-3.4-0.8-4.3,6-3.4,6.9C1883.2,433.6,1888.8,424.7,1883.4,423.5z"/>
<path d="M1736.7,439.5c1.2,5.3,10.1-0.3,6.9-3.4C1742.7,435.2,1735.9,436.1,1736.7,439.5z"/>
<path d="M785.2,429.1c3.4,0.8,4.3-6,3.4-6.9C785.4,419,779.8,427.9,785.2,429.1z"/>
<path d="M1054.2,436l-8.3,0.7C1048.5,440.6,1053.8,442.3,1054.2,436z"/>
<path d="M378.6,304.7c-0.8-3.9-9.6-1.1-6.9,3.4C372.8,309.9,379.4,308.4,378.6,304.7z"/>
<path d="M2032.8,330.4l-0.7-6.9C2025.9,326.1,2025.2,330.5,2032.8,330.4z"/>
<path d="M1905.6,420.7c3.4-0.8,2.4-7.8-1.3-6.9C1900.9,414.6,1901.9,421.6,1905.6,420.7z"/>
<path d="M492.6,391.5c0.9-0.9,0-7.7-3.4-6.9l-2.1,2.1l1.5,4.7c0.5,0.3,3.9,0.3,4,0l0,0V391.5z"/>
<path d="M912.4,408.9l5.6,0.7C917.8,403,907.2,401.3,912.4,408.9z"/>
<path d="M1316.9,433.2v5.5h6.9C1325,435.7,1317.7,432.2,1316.9,433.2z"/>
<path d="M1908.4,367.9l0.7-5.6c-2.5-0.3-4.3-0.2-5.5,2.2l1.3,4.7l3.5-1.4l0,0V367.9z"/>
<path d="M1474,425.6l5.6,0.7C1479.4,419.7,1468.8,418,1474,425.6z"/>
<path d="M839.5,426.3l4.8-6.9C838.9,418.4,834.4,421.7,839.5,426.3z"/>
<path d="M1807.8,400l1.9,5.4C1815.1,400.7,1816.6,394.4,1807.8,400z"/>
<path d="M194.5,45.4l0.7-5.6C188.6,40,186.9,50.6,194.5,45.4z"/>
<path d="M513.3,362.2l1.5-4.7l-3.4-2.1C508,358.6,507.7,364,513.3,362.2L513.3,362.2L513.3,362.2z"/>
<path d="M168.7,22.4l-3.5-4.8h-2.1v6.9c2.6,0.3,4.1,0,5.5-2.1H168.7z"/>
<path d="M2079.4,349.8c2.6-1.7,2.2-4,2.1-6.9h-5.5c-0.6,3.2,1.1,5,3.5,6.9H2079.4z"/>
<rect x="2088.4" y="333.2" width="5.5" height="5.5"/>
<path d="M1779.8,437.4c2.9,0.2,5.2,0.5,6.9-2.1C1783,430.2,1779.4,431,1779.8,437.4z"/>
<path d="M507.2,420.7c2.7,0.5,5.7-4.2,4.8-6.9C510.5,412.3,502.2,419.7,507.2,420.7L507.2,420.7L507.2,420.7z"/>
<path d="M2126,271.3l-2.1-4.8c-1.8,0.9-4.8,5.6-3.5,6.9s5-0.3,5.5-2.1H2126z"/>
<path d="M752.6,424.9c-1.3,5.2,2.9,5.3,6.9,5.5C759.7,426.6,756,424.3,752.6,424.9z"/>
<path d="M1968.9,330.4c-0.8-0.8-5,0.3-5.5,2.1l2.1,4.8C1967.3,336.4,1970.3,331.7,1968.9,330.4L1968.9,330.4L1968.9,330.4z"/>
<polygon points="1202.9,428.4 1203.1,432.4 1207.1,434.6 1205,426.3 "/>
<path d="M1339.9,416.6c-5.1,3.7-4.3,7.3,2.1,6.9C1342.2,420.6,1342.5,418.3,1339.9,416.6z"/>
<path d="M1778.4,416.5V411C1769.8,409,1771.1,417.2,1778.4,416.5z"/>
<path d="M1801.4,436c-1.6,0-5.5,6-1.4,6.9C1804.5,443.9,1805.4,436,1801.4,436z"/>
<path d="M1807.6,439.5l2.1,4.8c1.8-0.9,4.8-5.6,3.5-6.9S1808.2,437.7,1807.6,439.5L1807.6,439.5L1807.6,439.5z"/>
<polygon points="1898.7,438.8 1895.2,440.9 1897.5,444.2 1902.2,444.4 1902.1,442.3 "/>
<path d="M254.9,92.7v-5.5C247.5,86.6,247.6,93.4,254.9,92.7z"/>
<path d="M2045.3,283.1v5.5C2052.7,289.2,2052.6,282.4,2045.3,283.1z"/>
<path d="M553.1,397.1c-3.4,0.9-1.9,6.3,1.4,5.5C558.3,401.7,558.6,395.6,553.1,397.1z"/>
<path d="M1882.7,392.9v5.5C1890.1,399,1890,392.2,1882.7,392.9z"/>
<path d="M1788.2,423.5V418C1780.8,417.4,1780.9,424.2,1788.2,423.5z"/>
<path d="M1848.7,418c-3.9,1,0.3,6.1,2.7,5.5C1854.9,422.7,1853.6,416.7,1848.7,418z"/>
<path d="M1486.5,430.5V425C1479.1,424.4,1479.2,431.2,1486.5,430.5z"/>
<path d="M1087.6,435.3l-3.5-3.5C1078.6,436,1085.6,442.7,1087.6,435.3z"/>
<path d="M1658.9,431.9v5.5C1666.3,438,1666.2,431.2,1658.9,431.9z"/>
<path d="M192.5,89.7c5.3,1.2,4.1-0.8,4-5.4H191L192.5,89.7z"/>
<path d="M1702,415.2h5.5C1708.1,407.8,1701.3,407.9,1702,415.2z"/>
<path d="M1566.5,387.3c2.6-1.7,2.2-4,2.1-6.9C1562.9,379.2,1562,384.3,1566.5,387.3z"/>
<path d="M332.7,297c2.7,2.7,8.6-4.4,3.4-5.5C333.2,290.9,331.6,296,332.7,297z"/>
<path d="M439.8,327.6c-4.5-1-4,5.6-4.2,8.3C439.9,336.9,439.1,330,439.8,327.6z"/>
<path d="M228.5,60.7c3.2-7.1-6.2-8.8-4.1,0H228.5z"/>
<path d="M2082.2,317.9c2.9,0.6,4.5-4.5,3.4-5.5C2082.9,309.7,2077,316.8,2082.2,317.9z"/>
<path d="M1007.7,418c-5.1,1.1,0.8,8.2,3.4,5.5C1012.1,422.5,1010.6,417.3,1007.7,418z"/>
<polygon points="734.5,395.7 738,401.3 740,401.3 739.4,397.1 "/>
<path d="M1439.3,412.4c2.2,1.8,5.7-4,4.2-5.5C1441.1,404.5,1436.1,409.9,1439.3,412.4z"/>
<path d="M1412.9,427.7v2c3.2,4.3,6.2,1,5.5-3.4L1412.9,427.7z"/>
<path d="M614.3,401.3h2.1C616.7,387.9,608.4,399,614.3,401.3z"/>
<path d="M407.1,316.5h2.1V311H405C404.7,313.6,405,315.1,407.1,316.5z"/>
<path d="M1521.3,401.9c1.7,4.8,6-1.6,4.1-3.5S1519.8,397.8,1521.3,401.9z"/>
<path d="M482.9,331.8c-2.2-2.2-6.4,2-4.2,4.2S485.1,334,482.9,331.8z"/>
<path d="M234.3,199.5l8,2.9l8.4-20.1c-0.6-3.5-9.2-0.5-11.1,0.7c-0.4,3.7-3.2,8.3-5.6,11.1c0,1.4-0.4,4.7,0.2,5.4H234.3L234.3,199.5
	z"/>
<path d="M68.4,262.3c0,0.6,0,1.1,0.2,1.3c1.2,1.1,3.3,0.3,4.5-1.7c0-0.2,0.4-0.7,0.7-1.4h-0.3C71.8,261,70,261.6,68.4,262.3
	L68.4,262.3L68.4,262.3z"/>
<path d="M489,433.7h-0.2c-2.8-1.5-6.5-1.7-9.2-3.4c-3.4-2.2-5-7.6-7.8-8.8c-5.8-2.5-12.4,0.3-13.9-10.4c-8,0.9-11.9,12.3-22,8.1
	c-2.1-9.8,5.9-19.9,0.4-28.9c-7.1-11.7-24.7,5.4-33.9,6.8c-2.8-5.1,0.7-9,0.9-13.5c0.3-5.3-5.8-5.2-7.2-10.1l-7.6,6.9
	c9.3-23.7-8.2-22.6-26.4-22.2c-2.1-2.1,6.7-17.4-5-23.5c-8.3-4.3-17.3,0.5-24.1,5.4c0-3.8,0.5-8-2.1-11.1
	c-9.1-10.7-24.8-0.7-35.9,1.1c-5.7-1.1-7.9-29.2-24.2-22.5c-4,1.7-7.4,18.9-8.3,23.7c-0.8,4.1,0,8.1-0.5,12
	c-1.7,11.5-16.1,26.1-15.8,39.8c-1.6,3.1-5.8-2.7-6.2-4.9c-0.5-2.5-0.5-9.9,0-12.4c1.1-5.5,2.4-5.5,3.3-13.7
	c0.9-9,5.6-50.2,9.9-55.2c5.8-0.7,11.8-3.9,17.3-4.9c4.8-0.9,10.1,1.3,16.4-1.7c6.7-3.2,4.5-13.2,11.1-14c9.8-1.1,4.5,11.4,15.6,7.3
	c10.4-3.8,20.3-12.4,11.4-23.3l11.9-12.7l-3.2-4.6l-13-2.3c7.8-8.5,41.2,4.1,35.5-13.3c-3.2-10-15.8-8.3-23-13.1l8.3-3.5
	c3.4-4.9-12.2-10.3-15.5-11.4c-4.4-1.4-8.9-2.6-13.6-2.4c4.4-4.2,19.2-14.5,10.3-20.7c-7.3-5.1-33.7,5.9-45.1-0.8
	c-2.5-1.5-0.6-1.7,0-2.8c2.6-5.4,7.1-11.3,2.9-17.8c-1.7-2.7-7.2-1.7-9.8-3c-2.6-1.3-4.9-8.2-8.4-9.7c-6.4-2.7-13.3,0.5-19.4,2.1
	c-0.7-13.2-31.7-7.9-33.4,2.2c-0.9,5.7,4.3,14.3,6.9,19.4c-0.1,1.4-20.4,9.6-14.5,21.5c1.1,2.3,7,3.4,6.3,6.2
	c-7.9,5.9-14.5,13.3-22.3,19.4c-1.6,1.2-5.3,1.8-5.6,3c-1.2,5.1,5.6,8.7,9.8,10.3c0.8,1.1-9.2,7.2-6.3,12.5l13.3,5.6
	c-9.8,20,7.9,12.7,19.5,17.4c-7,5.4-12.9,12.9-14,22.1l2.9,1.6l-3.6,6.2c-4-7.9-3.4-15-13.2-6.9c-0.3-6.6-8.8-12.8-14.7-8.4
	c-3,2.2-3,8.2-6.1,9.8c1.5-8.1-1.5-39-8.4-16.7c-3.5-0.6-2.2-7.7-4.9-8.3c-4.2-1-3.7,6.2-6.2,6.9c0-3.9,0.6-12.1-3.7-13.7
	c-4.9-1.7-6.5,2.9-6-5c0.9-13.4,2.5-13.5,8.9-23.1c5.8-8.7,0.9-12.2,3.9-18.3c3.8-8,17-8.5,13.3-20.9c-1.4-4.6-7.4-3.6-6.7-7.9
	c9.8-5.6,36.1-14,33.1-28.2c-2.6-12.4-16.2,0-17.8-5.9c3.1-10.5,13.7-14.4,10.8-27.5c-1.7-7.6-8.1-7.2-12.1-10.1
	c-2.3-1.7-3-5.1-6.6-7.3c-5.6-3.4-12.3-3.2-18.6-3c5-8.2,16.8-11.6,19.1-21.3c-0.2-8.5-19.3-3.6-25.1-5.3
	c-6.2-1.9-15.8-21.4-28.8-16.4c5.6-18.5,2.4-36.8-20.8-34.8c-1.5-1.3,11.3-15.6,3.3-19.3C81.9-1.5,67,10.5,62.4,21.8
	c-1.5,3.7-2.6,12.4-4.4,14.8c-1.9,2.5-8,0.3-10.3,8.1c-1.2,4.1-3.6,22.7-3.5,27c0,1.4,0.6,3,1.6,4.3c-0.9,6.5-3.7,12.7-8.3,17.5
	c-6,6.6-14.7,11.3-18.1,20.2c-2.3,5.7-2.1,13.1,2.3,17.7c-0.6,1.5-1.7,3.1-2.9,4.6c-1.9,2.4-4.4,5.1-6.1,8.1
	c-2.2,4.1-2.4,9-0.4,13.3c1.3,3,4.9,5.6,8.5,5.2c0.4,0,0.8,0,1.4-0.2c-0.3,0.4-0.5,0.7-0.5,0.7c-5.8,8.3-14.4,18.2-18.7,27.6
	c-4.4,9.2-4.5,21.8,3.5,29.2c3.4,3.2,8.1,4.6,12.6,4.2l3.1,4.5c0,0-0.5,0-0.6-0.2c1.3,1.6,1,5.5,1,7.8c0,3.3-0.4,19.9-0.5,23.6v1.9
	c1.2,0.8,2.6,1.9,4.1,2c5,0.8,8.7-3.2,10.9-7c1-1.5,1.9-2.4,2.8-2.7c2.8-1.1,6.4,1.4,7.7,4.1c2.8,6,0.5,14,0,20.6l4.7-5.2
	c4.4-4.9,10-8.9,16.2-11.4c1.7-0.7,3.4-1.3,5.1-1.8h0.3c1.1-0.3,2.2-0.6,3.4-0.8c1.6-0.3,3.2-0.5,4.8-0.3v0.2c1,0,2,0.3,3,0.7
	c0.2,0,0.4,0.2,0.7,0.3c1.6,0.9,2.6,2.3,2.7,4.1c-0.3-1.5-1.3-2.7-2.6-3.4c-0.2,0-0.4-0.2-0.7-0.3l-1.1,2.6l-4.2,0.9
	c0.8-1.3,1.6-2.8,2.3-4.2c-1.6,0-3.2,0-4.8,0.3l-3.1,6.1c0,2.8,3.2,2.6,4.2,4.5c1.6,2.9,0.9,7.5,3.5,11.4s8,5,10.2,9.3l0.3,2.5
	c-5.1,1.9,0,16.4,0,22.3l-4.1,37.4l-8.4,5l6.9-13.2l-5.6,0.7l4.1-8.3c-4.6-4.6-19.4,23-19.5,27.1c0.5,2.6,5.8-0.6,4.2,2.8
	c-1.4,2.9-13,9.5-2.7,9.8c0.7,0.4,5.4-9.8,5.5-4.2l-8.3,13.9l3.4,2.1L84,359c4-1.2,3.2,3.4,2.4,5.9c-2.1,6.6-12.5,20.7-16.1,28.4
	c-0.9,2-2.1,3.5-1.6,6c3.2,0.4,3.6,0.3,5.3-2.4c3.1-5,8.2-19.5,11.3-23.1c3.2-3.7,9.4-3.9,9.8-4.3c1.3-0.9,3.2-7.2,4.2-9.2l2.8,22.2
	h-4.2c3.3-10.3-6.6-1.8-11.7,0c-4.4,6.8-8.3,14.3-12,21.4c-3.5,6.8,0.5,9.1,4,4c2-2.8,6.4-19.9,9.2-19.9l3.5,1.9l-8.4,19.3l7,6.4
	c2.6-7.7,5.8-17.6,11.1-23.6c-2.9,9.1-8.6,17.9-8.3,27.8h4.2c0.7-10.6,5.9-23.7,12.5-32l-12.3,35.8l3.2,4.5l15.9-46.3
	c5.6-3.2,16.2-13.1,5.7-16.3c-2.1,8.3-11.7,11.4-11.2,20.8c-1.5-0.4-4.2-8.5-4.1-9c0.4-1.5,3.8-1.5,4.2-3.1c0.9-3.7-0.7-10.1,0-14.3
	c2.7,0.3,1.2,7.8,5.6,4.9c1.2-0.8,6.1-11.4,8-14.3c3-4.4,7.4-7.6,9.9-12.4l-3.3-4.6L116,352.9c1.6-10.6,9-24.1,18.1-30.1
	c0.5-2.3-0.6-6.7-3.5-6.1l-11.8,16.7c1.9-8.2,3.7-18.4,9.7-24.4l-4.8-4.7l-11.8,36.1c0.4-5.6-0.7-11.8,0-17.2
	c0.8-5.4,7.3-10.9,1.8-14.5l-3.3,1.1c1.6-6.6-3.2-13.8-2.5-19.8c1.2-9.8,8.9-16.9,13.4-24.2c1.5-2.3,2.6-9.7,5.2-10.1l8.9,2
	c-6.7,3.5-8.7,12.2-16.4,12.1l-0.3,6.7c4.5,3,19.2-18.8,22.9-18.1c4.7,2.9-0.5,16.6,4.2,18.1c5.2,1.6,4.4-5.7,6.9-6.9l4.2,5.6
	c4.7,0.8,3-2.8,6.2-4.2c0.3,4.4-1.6,19.2,3.6,20.8c6.7,2,6.2-16,14.8-11c2.3,1.3,2.3,6.3,5.3,7.7c2.5,1.2,4.9-1.1,6.9-0.2
	c1.8,0.8,7.9,6,9.2,7.8c10-6.6,9.7,0.5,14.1,1.1c2.5,0.3,3.8,0,5.9-1.2c1.5,1.6-9.1,11.4-4.2,14.7c5,3.3,12-5,14.7-0.8
	c0.5,11,3.2,23.3,3.5,34.1c0,1.6-0.5,11.5-2.2,11.8c-4.8,0.3-8.2-10.7-9.8-11.1c-1.8,1.1-8.9,1.8-9.7,2.6c-3,2.7-0.6,6.5-3.4,7.1
	c-3.2-8.1,12.4-25.3,11-29.8l-4.1-1.6c-1.8,1.2-4.6,11.2-6.6,14.2c-0.9,1.3,0.2,2.5-3.1,1.8l-7.8-32.1h-6.1
	c-1.7,6.7,3.5,5.4,5.9,10.2c3,5.9,4.2,16.5,5.2,23.2l-7.6-22.3l-6.3-1.4c-0.7,5.7,4,8.6,6.2,13.9c3.4,8,4.6,16.9,7.7,25
	c-2.9,0.7-3.1-1.6-4.5-3.1c-2.6-3.1-7.5-11.1-8.8-14.9c-0.6-1.7,1.8-8.5-4.1-8c-7.2,0.6,0,7.8,1,9.8c1.2,2.3,10.1,18.3,9.4,19
	c-3.5-3.3-10.8-4.3-9.7-9.7c-2.9-0.4-5.1,2.3-5.6,4.9c0,4.8,12.4,6.4,14.7,11.8l2.1-4.2l3.7,2.7l4.6-2.6c0.3,3.8-1.4,8.4,2.1,11.1
	c3.8-1.3,3-10.6,6.9-9.7c1.4,0.3,16.8,17.6,17.7,19.8c5.8,14.2-14.2,48-11.5,51.1c7.1-0.2,4.2-5.8,5-8.5c2.6-8.6,8-17,9-26.3
	l4.1,0.7c-3.1,9.7-10.7,23.4-11.1,33.4c0,2.1-1,4,2.1,3.4l3.4-5l-2.7-2.6c5.4-7.6,6.1-20.7,10.8-28.2c1.7-2.8,4.6-3.3,5.6-5.5
	c2.4-5.6-0.4-11.7,0.6-17.4c1-5.7,6.7-14.4,9.4-19.8l-1.4,13.8l5.6,16.1c6.5,0.5,2.7-6.4,3-6.8c0.3-0.5,2.8-0.3,3.7-2.5
	c2.4-5.5,1.2-15.2,5.8-20.7c1.7-2.1,5.4-1.2,4.3-5.4l-4.9-3.5c-2.3,0-9.9,22.3-9,26.4c-2-0.4-2.8-7.7-2.8-9
	c0.2-8,8.4-25.9,12.8-33.1c1.8-3,5.2-10.5,8.8-9.3c4.7,22,27.7-1.5,40.2,8.5c6.8,5.5-4,15.1,1.6,16.5c4.4,1.1,15.8-15.8,27.1-10.4
	c10.5,5-2.8,20.5-1.4,26.3c1.3,5.1,6.9-0.2,9-0.5c4.2-0.6,19.9-1.6,22.9,0.6c5.2,5.5-4,14.9-2.7,19.3c5.6,7.1,8.8-4.8,15.1-0.4
	c1.3,1.7-4.7,17.5,0.8,20.7c9.4-2.6,24.2-15.5,34-11.8l-18.1,51.4c0.1,4.2,1.6,1.4,2.5-0.3c6.5-12.6,10.9-27,14.2-40.7
	c2.5-0.3,1.3,3.1,1.2,4.7c-1.5,17.1-9.1,29.7-15.1,45.3c3.1,0.6,3.1-1.5,4.2-3.4c3.8-6.8,6.5-15.7,9.7-23c2-0.4,2.5,3.5,2.4,4.6
	c-0.4,2.9-7.2,14.2-5.2,16.2h4.2c-1.3-8.9,6.6-15,5.6-23.6c2.4,0.2,4.4-1.4,4.2,2.1c-0.2,4.2-7,19.9-5.6,21.5
	c3.3-1.2,4.3-0.7,6.9,1.4c1.6-10.3,11.7-20,8.4-30.6c13.4,1.4,0.6,17.6-0.8,24.9c-0.5,2.7-1.3,3.7,1.5,5.6c1.2,0,5.7-20.3,7.7-22.2
	c0.7-0.7,2.9-1,2.5,1.8c-1.2,7.3-4.4,14.3-3.9,21.9c2.7,0.4,3.6-0.9,4-3.4c1.1-6.5,0.3-14.2,5-20.3l3.5,0.7
	c0.9,3.9-9.1,18.9-3.5,20.1c2.5,0.5,8-5.6,2.1-6.2l3.5-9.1c6.8,1.4,1.3,7.2,0.9,10.8c-1,8.4,8.3,2.2,10.9-1.7l-6.9,2.1l2.1-7
	c5.2,0,7.2,5,9.1,6.2c1.3,0.8,3.2-0.2,4.1,0.3c3.2,1.7,5.6,5.3,9.7,4.6v-6.9c-6.4,0.7-9.9-4.1-15-6.6L489,433.7z M89.5,402.6
	c-0.8-2.7,7-19.3,9.7-16.7L89.5,402.6z M153.4,198.3v-5.5h1.4l1.4,5.5H153.4L153.4,198.3z M160.1,187.4c1.1,1.6,0.5,7.6-2.5,8.1
	l1.4-5.6l-4.1-0.7l1.3-3.4C157.1,186.4,160,187.2,160.1,187.4L160.1,187.4z M69.9,258.6c-5.8,1.5-11.3,4.2-16.1,7.9
	c0.2-2,0.2-4.2-0.1-6.4c-0.7-7.3-8.3-14.1-15.8-11.6c-2.5,0.8-4.4,2.8-5.8,4.7c-1,1.3-1.8,2.7-3.1,3.5c0.3-6.2,0.8-17.6,0.9-20.2
	c0-0.9,0-2.6,0.2-3.6c0.2-3.2-0.8-7.3-3.1-9.8c1.1-1.8,1.5-2.4,2.5-4c1-1.2,1.8-2.5,2.3-3.9l-7-3.4l-1.3,2.2
	c-3.1,3.5-9.9,2.9-12.7-1c-7.7-10.6,0.6-23.1,7.3-32.3c0.6-0.8,10.3-14.9,10.5-15.1c0.4-0.6,0.8-1.2,1.3-1.8c1.1-1.5,1.5-4.2,0.5-6
	c-1.3-2.6-4.5-3-6.7-2.7c-1.2,0-2.1,0.3-3.1,0.5h-0.9c-2.3-0.8-2.6-4.9-2.1-7c0.2-0.7,0.4-1.4,0.8-2c2.8-5.1,7.8-9.2,9.1-15.5
	l0.4-1.8l-1.5-1c-4.2-2.8-4.2-8.7-2.8-13.1c2.7-8.2,10.7-13.2,15.8-20c4.2-5.3,6.7-12,7-18.7c0-1.1,0-2.3,0-3.4c0-0.9,0-1.9,0-2.8
	c0.4,2.2,0.5,4.5,0.4,6.8c0.8,0.6,1.7,1,2.8,0.8c-0.4-5.1,0.3-32.2,3-34.5c1.2-1,6.2,0.3,8.7-3.1c2.6-3.5,2.9-11.8,4.6-16.2
	C70,13.4,81.3,5.2,92.6,4.2c1.6,5.5-9.4,14.8-8.3,18.7c0.9,3.3,10.7,0.2,15.4,1.3c16.4,4,8.1,20.7,8.9,31.4c4.8,3.3,11,2.1,15.9,4.9
	c5.8,3.2,8.8,12.3,15.4,13.8c6.9,1.6,14.1-0.5,20.9,2.1c2.6,3.6-16.6,14.7-18.2,17.3c-8.2,13.4,14.1,7.4,20.6,10.1
	c2.8,1.2,3.6,6.7,6.7,8.7c4.3,2.7,9.3,0,10.2,7.9c1.4,11.9-14.1,18.1-10.9,27.4c3.5,8.3,19-2.7,17.9,7.1
	c-0.9,7.9-30.8,19.7-36.9,25.8c-3.8,1.3-0.4-5.8-4.1-4.1c-2.6,1.1-7.1,16.7-8.7,20.6c-0.8,2.1,0.8,3.8-3.1,3.1
	c0.1-7.2,8.3-17.3,9.1-23.6c0.3-2-2.1-3-2-3.5c0-0.9,8.5-5.3,9.6-14c0.5-4.3-2-13.1-7.6-11.7c-7,1.8,2.9,6.8,3.2,7.2
	c4,6.7-9.5,13.8-12.3,17.1c-1.4,1.6-7.8,13.7-8,15.6c-0.8,7.6,7.8,16.1,6.6,24l-5-4.1c-12.5,6.7-15.8,20.9-23.4,31.9
	c-1.7-2,0-11.9-4.2-11.2c-4.4,1.7-9.7,7-13.8,8.5c-4.9,1.8-9.9,0-13.3,3.4c-0.5,2.5,3.6,3.8,3.8,5.5c0.2,2.2-3.9,8.3-6.4,13.1
	C70.4,258.5,70.2,258.5,69.9,258.6L69.9,258.6z M118.7,235.8L118.7,235.8l-5.6-2.8c4.1-6.8,6.7-17,15.3-19.4
	C130.8,216.3,118.3,231.3,118.7,235.8L118.7,235.8z M101.2,301c0.5-0.7,1.6-5.2,3.6-2.6c1.8,2.3-1.2,3.8-1.6,4.3
	c-1.9,3-5.1,7.6-8.1,9.6C95.6,308.3,98.9,304.2,101.2,301z M97.8,297c0-3.8,2-9.1,5.5-11.1C104.1,291,102.4,294.8,97.8,297z
	 M105.5,306.7l0.7,4.2H102L105.5,306.7z M104.8,269.2c-2.6,0.3-1.1-2.8-0.8-4.2c1.8-7.6,7.2-18.8,11.9-25L104.8,269.2z M78.5,257.3
	c-0.9,0-1.8,0-2.7,0.2c3.2-6.9,8.5-18,11.2-15.5l-7.9,15.3H78.5z M85.7,258.7c-0.8-0.4-1.5-0.7-2.3-0.9c2.6-5.5,4.8-11.5,7.6-16.5
	c1.1-1.9,1.1-4.1,4.2-3.4l-9.2,21C85.9,258.9,85.8,258.8,85.7,258.7z M89.3,263.6c0.6,3-1,7.1-4.5,6.7c1.5,0,2.6-0.9,3.2-2.1
	C89,267,89.4,265.2,89.3,263.6z M83.7,275.5h0.2c-1.3-4.2,3,0.5,4.8-2.1l12.5-29.2c3.3,2.4,1.2,2.4,0.4,4.6
	c-1.4,3.9-13.4,27.7-12.3,28.8h4v5.6h4.2l1.5-7l4.1,2.1l-6.2,9C93.8,282.2,85.4,280.9,83.7,275.5z M92.2,366.4L92.2,366.4
	c-2.3,0.5-1.6-4.8-1.4-5.9c0.2-0.7,5.3-4,5.6-3.8L92.2,366.4L92.2,366.4z M97.8,354c-1.2-1.4,3.3-8,5.5-8.3
	C104.2,350.5,102.1,352.7,97.8,354z M98.6,342.9L98.6,342.9c-2.1,3.3-2.8,7.8-6.3,9.7c0-6.4,6.1-14.4,11.1-18.1
	C105.2,340.5,100.2,340.6,98.6,342.9z M99.2,330.3l5.5-6.9C105.4,325.8,101.2,332,99.2,330.3z M106.1,365.1h-1.4v-8.3h1.4V365.1z
	 M104.1,320.5L104.1,320.5l-2.1-2l1.4-3.5h2.8C106.2,315,104.1,320.5,104.1,320.5z M117.5,261.9L117.5,261.9
	c-0.5,1.7-9.4,16.4-11.5,14.3l13.9-30.6c1.1,3.8-2,6.6-2.5,9.4C116.9,257.4,118.2,259.3,117.5,261.9L117.5,261.9z M122.8,241.4
	c-2.6,0.3-1.2-2.8-0.7-4.2c2.2-6.6,6.4-16.5,11.8-20.8C133.9,216.4,122.8,241.4,122.8,241.4z M135.3,232.5h0.3
	c-1.7,6.1,1.2,14.4-3.8,20l-4.4-6.3c3.3-3.7,0.9-7.2,1.5-10.5c0.8-3.9,12.2-23,11.9-24.3c-0.3-1.1-7-2.7-4.2-9.1h6.2l8.3-18.1
	c2.4,3.7-3,9.2-3.3,12.1c-0.2,2.3,3.1,3.7,2.5,4.6c0,0-1.8-0.5-2.7,1.1c-4.3,7.6-0.9,12.5-2.5,18S136.2,229.3,135.3,232.5
	L135.3,232.5z M234.7,373.5L234.7,373.5c-6.6-4.6-10.1-14-17.4-16.7l2.8-6.9c5.6,3.1,8.2,10.6,15.1,11.3L234.7,373.5L234.7,373.5z
	 M246.4,303L246.4,303l-5.4,30.1c-1-15.1-0.8-30.4,5.6-44.5l5.5,1.4l-6.8,6.5L246.4,303L246.4,303z M254.7,283.5h-0.1
	c1.7-4,5.4-9.9,8.7-12.9l-8.3,18.1C252.1,288.9,254.2,284.7,254.7,283.5z M260.5,266.4c-0.2-2.5,1.6-5.9,4.1-6.9
	C264.8,262,263,265.4,260.5,266.4z M318.8,273.4c0.9-1.4,3.4-8.6,4.2-6.9C323.4,269.9,323,273.8,318.8,273.4z M327.9,247
	c5.5,1.7-4.4,7.4-4.8,6.9C322.6,253.4,325.5,246.2,327.9,247z M322.9,247h0.1c-5.8,7.2-9.2,16.3-14.5,23.8c-0.5,0.8-1.5,5-3.6,2.6
	c-0.9-1,11.1-19.9,12.7-22.7L322.9,247L322.9,247z M218.7,174.7c-2.6,0.4-4.8,0-5.6-2.8C215.7,171.5,217.9,171.9,218.7,174.7z
	 M206.2,178.9L206.2,178.9c2.6-0.5,0.7,2.7,1.6,3.9c3.6,4.6,12.3-0.6,12.3-6.7l2.7,2.1l-7.8,11.6C208.4,188.9,204.9,186,206.2,178.9
	L206.2,178.9z M191.8,238.6c-4.3,0-4.5-4.5-1.3-7c2.5-1.9,8.3-3,11.5-4.1c0.2-1.3-0.1-2.8,0-4.2c-6.7,2.1-11.7-0.3-16.6-4.9
	c8.5-4.9,18.5-19.8,26.8-23.3c3-1.3,5.2,2,8.5,1.8c6.9-0.3,12.1-14.8,13.3-20.8l-12.5,15.3l6.8-12.9c-6.5-9.5-13.2-19.2-15.2-30.8
	c0.6-6.9,18.5-7.3,23.8-5.7c4.3,5.8-2.2,11.3-1.5,17.5c7.2,1.2,5.3-6.9,9.7-10.4c15.2-12,18.5,7.5,31.4,10.4
	c0.8,6.6-4.9,10.8-7.5,16.1c0.6,7.8,31.9,6.6,38,6.2c4.8-0.3,8.2-3.9,13.2-1.4c-0.8,8.9-13.1,10.3-16.7,17.3
	c0.9,4.2,24.2,5.8,29.2,9.1c0,5.3-8.5,4.7-6.9,11.1c9.4,3.8,20.2,2.9,26.4,11.9l-2.1,3.5h-20.9c-2.6,0-14.2,3.7-15.6,5.9
	c-0.9,1.4-0.5,4.2-1.5,6.2c-4.4,8.5-8,15.2-14.2,22.7c-1.5,1.8-2.3,5.4-6.3,6.9l-0.7-3.2c-0.5-3.7-6.3,2.7-6.8,5.6
	c-0.5,3.2,1.3,5.6,1.1,8.6l-6.9,1.5c-2.2-2,13.4-28.7,13.9-34c0.2-1.6,0.4-4.8-2.1-3.5s-12.2,33.7-18.4,37.2c-0.9,0.5-6.9,2-7.3,1.7
	c5.2-8,9.3-17,14.7-24.9c2.9-4.3,9-6.1,7.5-12.6c-1.5,0-2.8,0-4.2,0.6c-6.4,3.7-17.4,32.3-25,38.3l16.7-32.7l-2.8-1.4l2.8-4.9
	l-9.5,0.2l-12.8,22.1c1.4-7.5,4.8-15.7,9.7-21.6l-2.7-0.7v-2.7c5.3-0.4,4.2-4.9,4.1-9.1c-4.9-2.9-6.9,3.7-7,7.7l-4.2-0.6l-13.8,21.5
	c0.4-6.9,0.9-13.2,6.9-17.4l-4.2-2.1l0.2-1.9c0.8-7,7.2-14.9,9-20.3c1.8-5.5-3.4-7.6-5.7-4.2l-11.8,43.1c-1.8-0.3-2.8-9.7-2.6-10.2
	c0.7-2.4,6-2.7,5.4-5.7c-1.6-3.5-5.3-0.5-5.5-0.7c-3.8-3.9,2.6-14.5,0-19.5l-6.3,4.2l-1.5-2.9c-1.5-0.3-6,1.3-7.4,2.3
	c-4,2.6-3.7,8.8-8.4,8.9c-2.4-5.9,12.2-16.2,9.7-19.5c-4.9,4.7-8.9,3.9-13.9,5.6c-0.2,1.3,0,2.7-1.4,3.6
	C195.6,231,189.2,232.7,191.8,238.6L191.8,238.6z M221.5,256.7c-0.2,0.2-0.9,0-1.4,0c-0.5-1.1,0.9-7.7,2.8-6.9
	C223.2,250.5,221.9,256.3,221.5,256.7L221.5,256.7z M215.9,256.6L215.9,256.6c-10.3-1.8-26.4-0.7-10.4-12.4c1.7,3.5-5.6,6.4,0,9.3
	l9.1-0.2l5.5-7.8L215.9,256.6L215.9,256.6z M213.9,269.3l2.1,4.7l-5.5,2.1L213.9,269.3L213.9,269.3z M210.5,287.2
	c6.7-7.7,12-16,15.2-26.3c1.9,0.5,2.7,9.1,2.5,10.1c-0.8,4.1-10.2,13-9.5,17c1.9,2.4,2.3,2.5,4.2,0c2.1-2.8,4.4-8.4,5.6-11.8
	c2.4-0.4,1.5,3.3,1.1,4.5c-1,3.3-4.2,5.6-2.6,9.2C218.9,294,217.7,286.8,210.5,287.2L210.5,287.2z M222.9,305.3
	c0.5-1.6,8.5-13.4,9.7-7.6C233.6,302.3,226.8,305.8,222.9,305.3z M234,276.1h-1.4v-8.3h1.4V276.1z M237.1,286.8L237.1,286.8
	c0,0.1,16.3-32.9,16.3-32.9c-0.3,4.8-2.5,10-4.6,14.2c-1.4,2.9-7.5,10.7-7.7,11.8c-0.7,2.6,1.2,5,0.9,7.7c-0.3,3.4-3.8,7.7-2.5,12.1
	C235.8,304.6,236.7,288.5,237.1,286.8L237.1,286.8z M267.5,345.7L267.5,345.7c-4.4-1.7-1.7-13-0.7-16.7c1.6-6.6,6.1-11.6,6.3-18
	c4.3-0.7,7.2,1.2,9.4,4.8L267.5,345.7L267.5,345.7z M442.5,444.3c-2.7,0.2-1.1-4.2-0.7-5.6c1.2-5.2,4.1-14.3,7.7-18
	C449.5,429.1,444.2,436.3,442.5,444.3z"/>
<path d="M2506.9,256.9c-2.1-4.4-6.5-7.7-10.2-10c-3.9-2.5-8.9-5.4-10.7-9.8c-0.8-2-1-3.8,0-5.7c1.5-3.1,5.5-5.8,8-8.7
	c3.8-3.8,4.2-10.1-0.3-13.5c-2.5-2-5.2-3-7.7-4.2c-3.5-1.7-7.2-3.5-7.3-7.6c0.1-3.9,2.9-7.7,2.7-11.8c-0.3-6.6-6-11.4-11.5-14.1
	c-6-2.9-13.4-3.6-19-7.2c4.4-4.7,8.7-9.4,12.9-14.2c2.1-2.2,0.3-6.2-2.8-5.9c-4.8,0.3-9.8,0.6-14.3-0.9c-4.4-1.4-6.8-4.7-8.1-9.3
	l-2.1-7.5c-1.9-6.6-3.8-13.1-5.9-19.6c3.4-1.8-3.5-15.6-6.1-17.4c-3.7-2.4-5.7,0-7.8-0.6c-5.3-1.9-5.3-7.9-18.7-9
	c-24.1-1.8-27.5,7.3-29.9,29.2l-5.5-2.8c-1.6,5.9-2.3,13.8-1.1,19.8c1.5,7.6,16.7,22.6,12,30c-0.9,1.4-8.7,1.5-11,2.2
	c-4.2,1.3-9.2,4.5-13.3,4.9c-7,0.6-31.2-7-34.3,0.4c-1.7,4-0.4,16.6,0.8,20.9c1.3,4.7,7.9,10,8.1,14.3c0.1,2.5-3.9,10.1-4.2,15.2
	c-0.2,4.2,0.6,13.3,1.4,17.3c-1.1-2.7-14.8,2.6-17.5,2.6c-3.7,5.2-6.4,18.6-13,20.4c-4.2,1.1-28.9-10.6-26.2,2.3
	c0.8,4,5.3,5.4,5.3,9.3c-9.7-2.2-9.1,3.7-13.9,7.6c-5.5,4.4-18.1,5.3-18,14.6c2.9,0.8,3.8-0.9,5.6-2c6.7-4.2,13.3-9.4,20-13.3
	c3.2-1.9,7-1.3,9.8-4.2c5.1-5.3-4.6-8.2-3.4-13.8c6.2,1.9,17.5,5.6,23.6,3.4c8.7-3.1,8.1-15.4,12.6-19.4c2.7-2.4,15.8-2.1,15.5-6.6
	c0.6,2.1,1.7,5.9,2.2,6.9c2.4,5.5,10,8.3,15.6,8.7c-5.8,6.8-5.1,23.3,0,29.9c7.3,9.6,27.1,5.7,30.7,8.2c6.1,4.3-10.8,27.4,11,16.1
	c1,1,5,22.6,5.4,25.9c2.2,18.8,1.5,38.2,1.5,56.8s-0.7,25.4,2.9,38.3c5.9,1.8,9-6.4,13.8-6.4c10-25.9,31.7-56.3,34.7-84.6
	c0.8-7.2-2.2-12.9,2.5-17.4c0.6,0.2,1.1,0.4,1.7,0.6c3,0.8,6.3-0.8,8.8-1.5c10.2-1.7,16.1,7.2,26.6,8.9c7.4,1.5,16.2-3.1,17-11.1
	c0.6-5.3-3.4-9.4-5.7-13.3c-2-3.4,0.6-7.2,3.3-9.9c4-3.8,9.4-6.8,12.8-11.8c4-5.8,4.4-13.7,1.2-20L2506.9,256.9L2506.9,256.9z
	 M2373.4,301.2c0.7-1.1,3.5-6.9,4.2-5.5C2378.1,298.9,2377,301.6,2373.4,301.2z M2374.8,290.1c-1.6-6.1-2.1-8.5,3.5-12.5
	C2382.7,277.6,2378.2,289.6,2374.8,290.1z M2384.5,297c-0.5-3.2,0.6-5.9,4.2-5.5C2388,292.6,2385.2,298.4,2384.5,297z M2391.5,411
	c-0.4-2.1-1.4-3.8-1.3-6.1c0.9-25.8,1.9-49.2-0.1-75.2c-0.8-10.7-7.8-14.3,7-20.2c-1.7,3.5-3.8,6.4-4.2,10.4
	c-1.8,17,1.6,37,1.5,54.3c0,9.6-1.1,21.8-1.4,31.9c0,1.7,1,5.2-1.4,4.8L2391.5,411L2391.5,411z M2395.6,299.8
	c-0.5,3.6-3.9,7.9-6.9,9.7C2388.7,305.5,2392.3,301.6,2395.6,299.8z M2390.1,298.4l3.5-8.3C2397.7,291.6,2391.6,297.9,2390.1,298.4z
	 M2397,395c-0.3-7.7,1.3-13.8,1.5-20.8c0.3-16.9-3.8-39.8-1.2-55.4c0.2-1.4,3.4-7.3,5.3-7.9c3.1,6.8,1,14,2.9,21.5
	c-6,21.9-4.9,44.9-7.1,67.4C2396,400.1,2397.1,396.7,2397,395L2397,395L2397,395z M2408.1,298.4c0,1.2-2.5,6.7-2.8,6.9
	c-0.2,0.2-0.9,0-1.4,0C2403.4,302.2,2405.1,299.5,2408.1,298.4L2408.1,298.4L2408.1,298.4z M2407,398.1c-1.2,1.8-1.6,3.8-4.4,3.2
	l5.6-59.8c6.4,6.6,0,19.8,0.5,28.3c0.2,3.3,2,5.3,5.1,3c4-2.8,10.2-38,12.8-45.6c4.2-11.9,6.2-6.5,6.5,2.4
	C2433.8,349,2418,381.7,2407,398.1L2407,398.1L2407,398.1z M2410.9,316.5c6.8,3.9,6.7-6.6,12.5-6.9c5.2,7.5-0.7,13.5-2.7,21.6
	c-1.5,6.5-1.9,12.9-3.3,19c-0.3,1.3-0.5,4.2-2.4,3.8C2415.4,341.3,2414.8,328.6,2410.9,316.5L2410.9,316.5L2410.9,316.5z
	 M2413.7,310.9c3.4-7.4,9.1-15.7,15.3-20.9C2426,297.8,2419.7,305.1,2413.7,310.9z M2409.6,306.7c-0.3-2.5,1.4-4.4,2.6-6.5
	c2.1-4,10.5-21.1,14.1-13C2417.9,289.7,2417.9,302.7,2409.6,306.7L2409.6,306.7L2409.6,306.7z M2486.9,282.6
	c-3.8,3.7-6.8,8.8-6.3,14.4c0.2,3.7,2.5,6.9,4.5,9.5c1.6,2.2,3.6,4.2,1.9,6.7c-6.1,7.2-15.5,0.2-22.6-2.1c-4.2-1.5-9.4-2.4-13.8-0.7
	c-2.6,1.2-4.6,2.4-6.8,2.5l-1.1-4.4l-3.8-0.2l11.1-17.4c-1.4-3.9-9.3,1.2-9.7,0.7l2.7-8.8c-9.9-10.1-5.8,3.3-7.5,3.3
	c-17.6-14.6-17.1-3.3-28.4,6l-3.3,0.7c-5.6-2-4.3-8.5-7.1-11.1l-9.1,1.6c-2-5.6-4-13.9-11-14l2.6-16.6c-1.3-1.4-16.1,7.9-18.1,9.7
	c-0.8-6.7,4.7-11.1,7.7-16.6c1.5-2.9,2.1-6.2,3.6-8.9c4.5-7.6,14.8-10.6,13.1-21.1c-1.2-7.4-15.6,1.3-19.9,1.9
	c-14.9,2.1-5.6-14.8-7.3-16.4c-10.3-3.6-8.2,17.2-3.7,20.4c7.8,5.6,15.6-2.6,23.2-1.7c-3.4,7.4-24.5,35.3-23.4,41.4
	c0.3,1.8,2.7,3.8,2.4,5.7l-6.7,8.5c4.8,5.3,6-8.6,12.5-6.2c0.8,0.6-12.5,14.7-3.6,10.9c3-1.3,8.4-11.1,10.8-14.2
	c1-1.3,2.8-4.4,2.5-0.2c-4.5,10.2-7.1,17.5-19.5,15.4c-16.3-2.8-18.9-23.4-7.5-32.7c4.9-4,11.9-3.8,10.4-11.1
	c-9.3,1.5-12.4,10.6-23.3,5.9c-7.1-3-9.2-19.2-8.7-26.1c0.4-6.3,5.6-14.1,5.3-17.8c-0.4-4-6.9-10.3-8.4-15c-1.1-3.3-3.7-16.7-1-18.6
	c9.6-3.1,22.2,2.7,31.3,2.1c5.4-0.3,18.4-8.2,25.9-7.7c6.8-17.6-15.8-26.7-11.3-45c3,1.1,1.8,5.6,6.9,4.2c0.3-7.2,0-17.1,1.7-24
	c3.6-15.4,41.3-15.8,40,3.2l9.7-4.1l3,12.2c1,0.5,1.8,0.9,2.5,1c0.5,4.2,1.1,8.4,1.8,12.6c0.8,5.3,1.6,10.3,2.6,15.6
	c0.6,2.7,1.4,5.7,3.4,8.3c3.7,5.2,10.1,7,16.3,7.5c-3.4,3.7-6.7,7.4-9.9,11.2c-1.3,1.4-1.2,3.5,0.2,4.8c4.6,4.2,11.1,5.6,16.9,6.5
	c5.1,0.8,10.5,2,14.4,5.5c3,2.4,4.5,6,3.5,9.7c-0.7,2.7-2,5.4-2,8.4c0,10.6,17.5,9.9,17.2,18.3c-0.3,2.9-2.9,4.5-5.5,6.6
	c-3.4,2.5-8.1,6.4-8.3,11.5c-0.5,6.9,4.4,12.7,9.6,16.4c4.7,3.5,10.8,6.8,11.7,12.9c1.7,9.8-8,13.5-14,19.3L2486.9,282.6
	L2486.9,282.6z"/>
</svg>
