<?xml version="1.0" encoding="UTF-8"?>
<svg id="design" xmlns="http://www.w3.org/2000/svg" version="1.1" viewBox="0 0 2500 1700">
  <!-- Generator: Adobe Illustrator 29.1.0, SVG Export Plug-In . SVG Version: 2.1.0 Build 142)  -->
  <path d="M1926.7,1649.7c2.3-1,4.6-3.1,4.1-5.6-2.3,1-4.6,3.1-4.1,5.6Z"/>
  <path d="M1963.7,1638.7c-2.8,4.7-6,9.5-6.4,15.2l16.7-26.4c-2.4-2.2-9.3,9.5-10.3,11.2h0Z"/>
  <polygon points="2126.9 1644.2 2125.5 1648.3 2129.6 1648.3 2129.6 1646.3 2126.9 1644.2"/>
  <path d="M305.9,1455.8l-4.2-.7,1.4-5.5c-3.7-3.1-7.5,7.3-7.7,9.6-.2,1.7,1.8,2.7,1.5,4.3-.5,2.7-4.5,5.9-3.5,9.7.8.8,5.2-2.2,5.6-2.8,1.9-3.4,2.6-10.7,7-14.6h0Z"/>
  <path d="M2226.9,1608l-4.2,2.1-11.1,23c-2.5-17.2-.3-34.2,0-51.4,6.2,2.5,20.1-3.2,24.2-2.5,4.9.9,3,11.8,8.5,9.4,2.5-1.1,3.8-20.7,6.1-24.5,1.2-6-2.2-11.5-5.4-16.2-.9-1.3-3.5-1.7-4-3.3-1.2-3.9,4.6-13.4,4-19.1-.6-6-5.8-6.1-6.7-8.7-1.9-5.4,1.3-12.8.9-17.5-.3-3-3.4-7.3-3.3-10.1.2-4.3,11.1-11.6,9.1-17.9-1.3-4-15.1-1.5-19.4-3.7l1.2-10.9c-13.7-1.3-10-14.9-22.8-15.6-12.9-.6-19.3,4.7-22.9,16.7-3.1,2.3-13.3-16.4-22.7.2-5.7,10.1-12.6,39.5-8.9,50.2,1.3,3.7,3.9,6.2,5.3,10,2.8,7.8,1.3,21.5,9.6,24.4v2c-14.8,9.3-7.5,15.9,6.9,16.1-1.2,8.4,6.3,7.5,12.6,8.3.9,3.7-8.4,10.6-4.2,13.2,5,3.2,11.7-2.7,12.6-7.7,5,1.8,1,6.6,1.3,10.4.8,11.2,4,22.8,4.2,34.1-6.1-3.3-8.4-13.7-11.5-17.7-.8-1-3.6-2.1-5.2-3.8-3.3-3.7-5.7-9.8-11.1-9.1-1.8,7.6,2.7,7,5.6,10.4,6.4,7.7,9.9,12.7,16.7,19.7,1.9,2,6.4,12.7,6.6,15.4.5,6.2-9.1,16.6-11.5,22.6-.9,2.2-.6,5.5,1.3,5.5,3.1,0,8.3-21.6,15.4-20.8l-.8-7c1.2,1,8.4-1,6.9,2.1l-15.3,23.6c.1,1.4,1.8.9,2.8,0,5-4.1,27.4-40,28.8-46.2.4-2,.4-3.9.3-5.9v.2ZM2224.2,1576.1c.5-3.9,3.7-8.8,6.9-11.1-.5,3.9-3.7,8.8-6.9,11.1ZM2225.6,1564.9l9.7-16.7c-.9,5.8-5.4,12.7-9.7,16.7ZM2237.9,1537.6c-5.1,10.3-15.4,21.6-20.4,32.5l2.6,5.9h-5.6l13.3-27.7,11.7-16.8c.4,2.4-.6,4-1.6,6h0ZM2239.5,1523.2l-2,5.6-13.2,18c2.9-9.5,7.6-17.5,15.3-23.6h-.1ZM2233.9,1519.1l-18,23.6c-.3-3.5,16.8-25,18-23.6ZM2226.9,1517.7c.5,2.5-1.9,4.6-4.1,5.6-.5-2.5,1.9-4.6,4.1-5.6ZM2228.3,1513.5l4.2-1.4v4.2h-4.1v-2.8h0ZM2232.2,1477c1.7-2.4-2.1-5,7.2-3.8-.7,10.6-14.6,12.6-5.6,25-12.4,3-15.5,18.2-25,25-.4-14.7,16.5-22.9,18.1-37.5-.6-.7-5.2,1.6-4.2-2.1,1.4-3.7,8.6-5.5,9.4-6.7h.1ZM2196.4,1545.5l-4.1-16.2c.6-4.6,2.1-16.8-3.8-18.3-8.1-2.1-2.4,6.7-2,9,1.4,7.1,1.9,14.6,3.3,21.7,1.8,9.2,5.9,18,5.1,27.5-7.8,1.4-6.6-8.5-16.7-5.6v-8.4h-16.7c1.6-4.8,10.7-6.3,9.8-11.7,0-.5-6.3-3.6-8.1-7.4-2-4.1-2-10-3.5-14.6-1.2-3.8-4.2-7.9-5.1-11.6-.9-3.9,3.5,1.3,4.1-4-5.8-18.2-4.6-35.5,7.6-50.7,2-.5,8.8,8.6,15,6.8,5.7-1.6,5.4-14.1,15.5-15.1,14-1.3,9.4,1.6,15.2,8.4,3,3.4,13.9,5.4,7.4,12.1-.9.9-11.9,4.5-6.6,8l13.9-1.4c-4.8,5.1-13,10.7-9.7,18.8l2.7.7-8.3,12.6c-2.1,1.9-1.5-1.5-1.4-2.8.4-2.9,2.3-6.5.7-9.1-1.4-2.4-5.4-1.7-6.2,1-.5,1.9,1.5,12.7,1.1,17.7-1.1,12.1-8.3,21.2-9.6,32.8l.4-.2ZM2203.3,1624.7c-.6-8.9-.7-18.2-1.4-27.1-.9-10-6.7-15.7,4.2-23,1.3,9.3-1.1,19.5-1.2,28.3,0,5.8,4.7,17.3-1.5,21.7h-.1ZM2201.9,1551h4.2l-4.2,9,1.4,3c1,1.5,11.6,1-2.7,4.7-.3-3.8-3.1-9.7-2.8-13.2.2-1.6,6.1-21,7-22.2,1.7-2.3,4.5-2,6.1-3.7,4.8-5,7.1-13,13.3-16.6.6.7-7.4,13.8-8.6,15.7-2,3.2-15.6,21.4-13.6,23.2h0ZM2210.3,1570.5c2-6.8,6.2-14.3,11.1-19.5-2.6,6.4-6.4,14.5-11.1,19.5Z"/>
  <path d="M2087.4,1608l-13.4-13.8c9.1-3.9,21.9-4.3,28.4-12.6,6.8-8.6.7-15,16.8-16.6,11-1.1,22.5,2.2,29.8-9.2-4.6-9.7-4.9-1-7.6,2.2-4.8,5.7-26.6,0-35.8,7-3.2,2.5-3.4,9.5-5.3,13.1-4.5,8-24.5,11.9-33.2,13.4-4.5,4.8,18.3,10.7,15.3,18-1.1,1.6-17.1,1.8-20.2,1.4-5.1-.6-9.3-3.4-14-4.1-15.4-2.1-31.6,1.9-46.4,5.5l4.2,13.9c-8-2.8-17-.8-25.5-1.6-7.5-.7-26.2-7.4-30.7-6.8-6.3.8-5.3,10-9.1,11.9-2.5,1.2-6.2.4-9.4,1.7-2.6,1-6.4,5.3-9.7,7-5.3,2.8-12.1,3.9-15.7,8.6,7.7-.3,15.2-5.3,22.2-8.3l-10.5,18,2.9,4.2,2.1-6.9,1.4,4.2c7.8,1,5.1-4.9,6.3-6.9,1.4-2.3,9.7-13.8,11.2-15.3s3.6-3.2,6.1-2.9c1.2,1-17.6,21.2-15.3,25.7,7.1,3.2,5.9-5.5,7.7-8.9,4.2-8.1,15-16.1,14.5-26.5l-6.2,5.6c-3.2-10.5,6.9-6,13.2-5.6,1.4,1.4-20.4,29.2-18.1,34.7,11.1-8.3,12.5-25.1,23.6-33.4-.4,6.9-18.6,28.3-18.1,32.6,0,.9,2.4,3,3.5.7l3.4-2.8c1.5,8.3,5.8,1.9,7.7,1.9s2.9,3,5.5,2.3c1-.3,8.4-16.6,9.1-19.5-2.3-2.5-11.7,14.8-12.5,16.7-2,.4-2.6-3.6-2.4-4.6.9-5.3,14.5-16.7,13.6-24.5,7,2.7,15.5-.3,21.2.2,3.5.3,6.9,4.1,11.3,1.2l-1.9-14c4.9-1.2,9.7-3.4,14.7-4.1,17-2.4,23.9,1.1,38.8,2.6,4.2.4,28.3,1.1,26.6-5.6v.2ZM1926.7,1649.7c-.5-2.5,1.9-4.6,4.1-5.6.5,2.5-1.9,4.6-4.1,5.6ZM1957.3,1653.9c.4-5.7,3.5-10.5,6.4-15.2,1-1.7,7.9-13.4,10.3-11.2l-16.7,26.4h0Z"/>
  <path d="M2322.9,1524.6c-6.7-13.6-10.8-31.3-17.4-44.5-1.1-2.2-2.2-4-4.2-5.5l-3.3,3.7,36.1,82.3,4,.2v-16.7c4.3-.8,1.5,4.2,7,2.8.4-.8-.1-2.7,1.3-4.9,2.8-4.4,11.9-6.7,9.1-11.8-6.3-1-9.1,6-14.6,7-.6-.6,2.1-13.8,2.8-16,1.6-4.9,9.6-10.1-1.4-13.2l-7.6,32c-6.8-10.7-8.6-25.3-10.4-37.5,1.7-.8,1.6,5.9,4.1,2.8,2.3-2.8-7.5-16-9.6-8.8-.9,3.2,4,19.3,4.8,24.1.3,1.4,1.8,4.6-.8,4.2v-.2Z"/>
  <path d="M2340.9,1554.5c5,7.3,15.1-10.1,12.5-13.2-4-.4-5.2,4.7-8.3,5.6-1,2-4.5,5.6-4.2,7.6Z"/>
  <path d="M2283.3,1594.1c5.4,1.2,13.3-20.4,2.1-13.9-.4,3.7-7.1,12.8-2.1,13.9Z"/>
  <path d="M2269.3,1499.6c-3-.5-4.3.5-4.8,3.5-2.6,14.7,2.7,52.1,6,67.7,1.1,5.4,2.2,12.3,5.9,16.4l2.1-6.9,4.8,2.8c1.2,0,.1-1.7,2.1-2.8,1.3-11.5.4-30.7,7.1-41,1.6-2.5,3.5-.8,3.8-1,3.2-2.8,1.3-15.5-4.6-9.4-4,10.2-6.3,20.7-9,31.3-.6,2.3,1.4,4.1-2.8,3.4v-22.9c0-2.2,3.7-16.4,5.1-18.5,1.8-2.6,3.7-1.1,4.7-2.5,2.8-3.6-3-10.7-6.3-6.1-.7.9-6.3,20.1-6.3,21.5v41l-3.8-12.2c-1.8-9.1-8-45.6-5.8-52.3.6-1.9,8.8-4.9,1.9-12h0Z"/>
  <path d="M164.8,1601.1c-5.4,6.3-5.2,18.7-11.8,23.6l9.5-26.8c-3.5-7.4-9-13.3-13-20.5-5.1-9.3-7.2-18.9-12.5-27.8-2.6,1.8-2.3,3.1-1.8,5.9,1.2,6.9,16.1,31.3,15.9,33.7-3,4.7-16.6,39.2-16.2,41.7.3,2.1,4.6,3.2,5.3,0,.2-1.1-1-3-.5-4.8,3.1-11.7,9.4-22.7,11.9-34.7,2.4,0,2.7,4.4,2.5,5.9-.7,5.1-15.2,30.2-12.2,33h4.2c-.6-11.1,6.6-21.5,11.1-31.3,2.7-1.9,1,2.5.8,3.5-2.7,9.8-8.3,19-9.1,29.1.9,1.1,9-7,9.6-7.8,3.8-5.5,4.8-16.4,9.9-22.1-1.6-1.6-1.5-2.8-3.4-.7l-.2.2Z"/>
  <path d="M2184.4,1642.8c.8-3.3,4.8-7.1,5-11.1l6.9,1.4c2-1.9-13.7-13.6-17.2-12.4-2.2.8-5.7,22-13.3,22.1,0-4.7,15.2-30.7,13.9-32-3.1-2.9-6.7,5.2-7.7,6.9-2.2,3.8-17.3,37.6-17.3,39.7s1.8,4.4,3.4,2c2.2-3.3,1.5-10.5,6.2-12.5-3.9,8-2.2,22.5,2.5,5.9l16.3-25.4c2.9,2.1,1.9,2.5,1,5.1-3,8.8-10.5,20.9-12.2,29.5-.5,2.7-1.3,3.7,1.5,5.6,2.1,0,4.3-12.2,6.2-14.4,1.2-1.4,3.4-.4,4.4-1.7,1.7-2.3-.2-6,.5-8.9v.2Z"/>
  <path d="M366.4,1576l-.7-6.1-2.8-.8-25,29.2c1.9-9,7.7-19.9,15-25.3l-1.1-8.1c-13.4,13.7-18.4,32.7-25,50-3.8-1.8,4.2-12.2-2.7-11.1,1.3,6-11,30-8.2,33.2.3.3,6.6,2.2,7.6.2,1.9-25.4,25.2-45.3,43.1-61.2h-.2Z"/>
  <path d="M2275.4,1629.4l1.6-6c-2-2.3-7.9,9-8.6,10.2-2,3.6-10,22.2-11.1,23-1.3.9-4.4,1.1-4-1.9.2-1.7,14.1-29.1,15.2-30.4,1.3-1.6,4.3-.3,6.4-2.2,1.6-1.4,8.4-15.9,11.8-20.2,4.9-6.2,13.5-14.5,20.6-17.6l.2-5.3-6.9.7-29.6,34.4-25.5,49.6c-2,8,7.5.6,7.8-4.1,3.5.3-1.2,7,0,8.3l8.3-6.3-2.8-2.7,16.5-29.5h.1Z"/>
  <path d="M2362.9,1584.2l.2-8.1c-2.3-.4-3.1,0-4.8,1.4-6,5.2-23.5,35.5-26.1,43.4-.9,2.7-1.5,5-1.1,8,8,1.1,4.9-6.6,13.8-2.8,1.8-7.5,8.3-13.8,13.9-18.8,4.1-3.6,9.8-2.8,8.4-11.7-3.8-3.9-22.2,21.6-26.4,23.6-.5-2.5.8-3.9,1.9-5.8,2.6-4.6,11.5-12.5,15.9-16.5,1.3-1.2,5.2-2.3,5.6-3,2.1-3.7,0-6.7-4.3-5.3-1,.3-8.6,11.9-12.1,12.5,2.5-6.5,7.1-17.2,15-16.9h.1Z"/>
  <path d="M92.5,1410.6c.6-6.1,5.2-5,6-5.8.5-.5,2.7-11.6,3.4-14,.9-3.1,3.5-5.9,3.8-8.8.9-8-3.1-7-6.9-2-.2,9.6-5,17-7.2,25.5-.7,2.5-2.1,2.9,1,5.1h-.1Z"/>
  <path d="M79.3,1409.2h3.5l.7-5.5c2.7-.7,0,5.9,3.4,4.2,3.4-1.8,8-22.9,11.8-27.8v-4.2c-2.6-1-6,1.2-7.7,1.2s-.6-1.6-1.8-2.5c-.8-.6-2.7,0-3,0-.9-.8,4.1-7.7-.7-6.9l-14,34.8c1.9,2.7,9.6.5,7.8,6.9h0ZM86.9,1396.7c.9-3.3,2.6-8.2,3.8-11.5.7-1.8,1.8-6.3,3.8-6.6l-7,22.2c-2.7.2-1.1-2.8-.7-4.2h0ZM84.8,1391.2l-2.8,11.1c-3.5-1,.4-10.3,2.8-11.1ZM82,1385.6c.3.7-1,6.5-1.4,6.9-.2.2-.9,0-1.4,0-.5-1.1.9-7.7,2.8-6.9Z"/>
  <path d="M285,1590c0-6.6-2.4-13.5-1.5-20.2.5-3.1,3.4-6.1,2.8-8.2-.7-2.7-6-3.1-6.8,0l1.2,30.3c-4.9,11.5-10.2,24.7-13.1,37-.8,3.5-3.8,8.5,0,11.1l13.2-41.7c2.5.6,2.7,2.2,2.5,4.5-.4,6.2-12,35.7-9.5,38.6,1.9.4,3.3-.5,3.9-2.3,1.4-4.6,1.9-12.9,3.4-18.8,2.6-9.9,5.7-20,9.3-29.6-1.7-2.7-3.1-1.2-5.6-.7h.2Z"/>
  <path d="M2114.3,1615c-1.1-1.1-3.3-.3-4.5,1.7-7.1,11.3-10.1,25.6-21.2,34.4-1,.2-.9-1.3-.7-2.1,1.5-4.8,19.4-34,18-35.5l-4.2-.8c-1.9,1.4-20.3,41-20.6,43.5-1.1,10,8.1-.2,10.2-3.8l1.4,6.9,6.2-4.9-2.8-2.7c2.1-5.1,20.5-34.4,18.1-36.9v.2Z"/>
  <path d="M371.1,1585.7v-8.3c-1.8-1.9-11.1,6.6-13,8.5-6.9,6.7-14.5,17-17.6,26.2h-4.8c-.5,9.6-6.3,17.5-8.8,26.1-.2.9-2.9,4.9.4,4.6,1.4,0,10.4-21.3,10.6-27.8l1.1,10.3c.7,2.6-8.3,15.2-1.2,12.6,4.9-11,4.5-23.4,10.8-33.6,4.1-6.6,13.9-19.2,22.5-18.5h0Z"/>
  <path d="M310,1630.3c3.6-9.2,5.1-23.5,13.2-29.2l.6-3.4c-11.4-10-19.7-24.7-27.8-37.6l-8.3-2.1c-.8,5.8,5.1,6.7,8.3,10.4,2.5,2.9,16.3,21.6,16.5,23.8l-15.1,40.8c8.3.8,5.1-5.9,6.1-9.7,2.8-9.8,8.1-19.2,9.2-29.2,2,.5,3.6,3.4,3.9,5.2,1.3,8.4-13.4,31.2-12.3,41.4l2.8.7c1-4.8,8-9.1,6.3-13.9l-3.5,2.8h0Z"/>
  <path d="M74.5,1528.9c2-2.2,1.6-1.1,3.4.7.2,1.4-12.1,19.8-13.3,24.2-.7,2.8-1.2,3.7,1.5,5.6l14.6-25,.7,2.8,4.8-2.1-9.9-19.9c-6.9-1.8-17.9,1.2-11.6,9.5l4.2-5.5c1.7-.4,5,2.9,4.7,4.7-.3,1.9-14,17.3-11,20.3,3.8,3.8,9.5-12.6,11.9-15.2h0Z"/>
  <path d="M2366.7,1612.1c3.4-2.1,8.8,1.2,7.6-8.2-3.4-3.3-21.5,13.9-23.4,17.5-1.3,2.5-1.9,4.6-1.6,7.5,7.5-3.6,4.9,3.5,10.1,2.6,4.5-.8,5.1-5.3,8-7.4,2.8-2.1,9.8-2.4,9.8-7,0-10.1-14.8,7.5-19.5,4.8,2.2-2.6,6.4-8.2,9-9.8h0Z"/>
  <path d="M2321.4,1608.7c3.6-3.1,8.5-1.6,7-9l-5.5.7c-2,5.5-20.5,19-19.5,23.6l5.5,2.2c-1.1,2.3-1.8,3.9.8,5.4,10.9.3,7.2-6.2,10.2-10.5,2.3-3.2,10.1-2.5,8.5-10.3-2.3-2.3-15,10-17.4,12.5-.6-4.3,6.6-11.4,10.4-14.7h0Z"/>
  <path d="M2249.9,1521.9l-3.2,4.6c3.5,9.7,8.2,19.1,11.5,28.8,3.5,10.3,7.2,29,12.2,37.8,3.2,5.7,7.6,4,6.4-.8-.9-3.6-7.9-14.8-10.1-20.5-4.2-10.9-9.7-26.3-12.6-37.5-.4-1.7.9-12.5-4.1-12.5h0Z"/>
  <path d="M2141.4,1628.9c-3.1-1.4-4.3,11.6-8.3,12.5-3.8-2.5.4-3.4.7-6.3.3-2.5-.2-3.4-2.1-4.8l-3.5,5.5-4.1-2.8c-.6,2.9-15.3,21.2-16.7,19.5l7-18.1c3.9,3.7,7.4,3.8,6.7-2.6l-3.9-2.3c4.6-2.6,1.2-6.9-2.1-3.4-2.4,2.6-15.3,30-13.3,31.9.5.5,6.6-1.4,7.7,4.1l16.7-26.4c2.1,7.7-17.5,22.4-6.3,25l3.5-8.3,4.2,6.9c4.2-3,4.3-7.2,6.2-10.5,2.1-3.6,13.6-17.4,7.7-20.1v.2ZM2125.5,1648.3l1.4-4.2,2.8,2.1v2.1h-4.2Z"/>
  <path d="M2292.3,1631.7c-10.8,5.3-10.6,22.8-22.2,27.8,3-9.5,9-18,12.1-27.5.8-2.6,2.8-3.8-.3-5.8-1.8,1.3-2.6,2.8-3.5,4.8-1.8,3.7-12.8,30.3-12.4,32,.5,2.5,2.1,1.6,3.7.9,1.8-.8,7.8-2.6,8.1-2.9,4.1-4.2,6-17.1,11.8-20.9,0,8.1-7.7,16.3-9.5,23.2-.8,3-.7,3.7,2.5,3.2l13.4-27.1-3.7-7.6h0Z"/>
  <path d="M148.1,1548.3c-5.9,1.3,2.7,10.9,3.7,13,3.3,6.9,13.8,32.9,20.1,35.5,6.1,2.5,3-7.9,0-10.5-1.1-.9-3-.5-4.9-2.7-4.8-5.4-13.6-36.5-18.9-35.3h0Z"/>
  <path d="M2240.2,1619.2c-8.1,15.5-21,30-24.4,47.2,4.9,0,4.3-6.2,6.2-9.8,9-17.3,23.3-33.3,28.6-52.7-4.9-3.8-9,12.7-10.4,15.3h0Z"/>
  <path d="M2267.3,1603.9c-2.8-.5-3.3,1.3-4.3,3.4-2.3,5.2-3.3,11.7-6.1,17.5-6.4,13.6-17.7,26.8-23.7,40.3-1.1,2.5-.4,2.6,1.4,4.2,4,1.6,5.6-10,5.9-10.7,3.9-7.8,31.8-48.6,26.7-54.6h.1Z"/>
  <path d="M2233.1,1653.9c3-12.5,18.4-31.3,23.3-43.5.9-2.2,1.4-4.1,1.1-6.6-3.5-.3-5.2,4.1-6.7,6.5-4.9,7.8-20.5,38.4-21.9,46.2-.4,2.4-.8,2.5,1.5,4.2,5.9-1.9,1.8-3.1,2.7-6.9h0Z"/>
  <path d="M2318.1,1588.6c2.3-3.7-1.2-8.2-6.1-3.3-3.8,3.8-26.1,28.2-27.2,31.1-.9,2.3-1,4.5-.7,6.9h4.1c1-6.2,5.4-10.7,9.1-15.3,3.1-3.8,9.8-11.4,13.2-14.6,2.1-2,6.9-3.4,7.8-4.7h-.2Z"/>
  <path d="M2411.8,1616.4c-6.9,5.4-8.6,16.6-12.3,24.6-4,8.6-11.7,20.5-14.4,28.7-.9,2.6-1.9,3,1,5.1,6.2-10.9,12.6-22.3,17.6-33.8,3.3-7.5,7.8-16.6,8.1-24.6h0Z"/>
  <path d="M2097,1615l-1.5-5.6c-3,6.4-27.5,46.7-24.3,50,3.8.6,6.4-2.1,8.1-5.1l.3-2.5-2.8-.8,20.2-36Z"/>
  <path d="M2329.1,1584.4c-2.4-.5-35.8,27.5-31.2,36.1,6.6,1.3,5.5-5.9,7.7-9.6,1.3-2.3,8-8.6,10.3-10.5,3.3-2.8,10.9-6.3,12.6-8.2,1.2-1.3,3.8-7.1.6-7.7h0Z"/>
  <path d="M168,1558.9c-1.2-1.3-3.7-3.9-5.4-2.3-2.2,2.2,20,33.3,23.6,36.9,7.1,2.7,3-10.5,1.2-11.8-.6-.4-2.5.9-3.2.7-5.2-1.6-11.9-19-16.2-23.5h0Z"/>
  <path d="M2419.5,1623.4c.7-2.8,1.2-3.7-1.5-5.6l-24.1,51-.3,3.2h4.2c1-10.9,9.1-20.2,13.7-30.1,2-4.3,6.9-14.6,7.9-18.5h.1Z"/>
  <path d="M2408.9,1665.7c4-14.8,19.3-31.7,21-48-3.4-.5-4.2,2.8-5.4,5-4.3,7.9-16,33.5-18.3,41.5-.9,3-1.8,5.9-1.3,9.1h4.2c-1.1-3.2-1-4.5-.1-7.6h0Z"/>
  <path d="M2236.7,1606.7c-3.7-.7-2.4.8-3.4,2.8-6.4,13.1-16.4,29.9-21.4,42.6-.8,2-2.1,3.6-1.6,6.1,2.9.6,3.2-1.4,4.4-3.2,4.7-7,13-22.7,16.7-30.6,2.5-5.4,5.7-11.7,5.3-17.6h0Z"/>
  <path d="M2402.1,1624.7c-.3-.3-4.6-.7-4.5,1.7l-21.9,46.9,5.4-.2c-.4-7,22.9-46.7,21-48.5h0Z"/>
  <path d="M2085.2,1615c-3.1-3-7.5,6.9-8.6,8.8-2.6,4.4-18.6,33.4-16.4,35.7,10.1-.3,6.6-6.3,7.6-11.1,1-5,19.7-31.1,17.4-33.3h0Z"/>
  <path d="M303.1,1560c-6.3,4.6,2.7,7.6,5.5,11.2,5.6,6.8,9.8,16,15,22.6,1.3,1.7,1.6,3.8,4.5,3.2,3.3-3.9-12.5-22-15.1-25.9-2.7-4.1-3.4-13.8-9.9-10.9v-.2Z"/>
  <path d="M354.5,1616.4l4.3-.8c2.2-9.4,10.3-18.5,20.1-18.5l.6-8.4c-2.8-2.9-30.1,19.2-25,27.8h0Z"/>
  <path d="M2074,1616.4c-1.1-1.1-3.3-.3-4.5,1.7-2.3,3.7-3.9,9.1-6.3,13.1-4,6.7-10.4,14.4-13.5,21.3-2.2,5,4.3,5.4,6.9,0,.8-1.6-.4-3.5.4-5,2.1-4.1,19.7-28.3,17-31h0Z"/>
  <path d="M2357.6,1634l-15.3,42.9,2.8.7,17.9-41.2c.6-2.7-4.1-4.8-5.4-2.3h0Z"/>
  <path d="M2046.3,1640.8c2.1-3.5,13.9-19.8,7.6-21.6-3.4-1-11,10-11.6,12.1-.7,2.6,1.5,9.2-.2,12.9,3.1.6,3.1-1.6,4.2-3.4h0Z"/>
  <path d="M2365.3,1634.4c-5.6,12-10.2,27.7-14.6,40.3l4.1-1c2.2-14.5,14.1-27.2,13.9-42.1-3.6-.7-2.4.7-3.4,2.8h0Z"/>
  <path d="M321.8,1565c2.4,3.2,10.8,22.1,12.6,22.2,5,.2-2.6-13.5-3.2-14.8-1.1-2.1-8.6-15.2-9.3-15.8-1.7-1.5-3.5-1.9-5.6-1.4-6.1,1.5,5,9.1,5.5,9.8h0Z"/>
  <path d="M2389.6,1630.3c-4.3-4-7.1,10-8.1,12.1-5.2,10.8-13.7,21.6-14.1,33.8,5.5.4,2.9-4.2,3.9-6.5,1.9-4.6,20-37.9,18.4-39.3h0Z"/>
  <path d="M199.4,1590.1c1.7,1.2,2.9,1.6,4.9,1.3.8-5,.1-4.9-2.1-7.6-5-5.9-11.9-10.8-15.9-18.2l-4.2,1.5c-.3,1.4,15.8,22,17.3,23h0Z"/>
  <path d="M244.8,1632.5c1.9-12.3,10.9-26,13.7-38.4-2.9-3.1-7.5,10.9-8,12.2-2,4.9-12.4,32.4-10.1,35.1,7.7-.7,3.8-5.6,4.3-8.9h.1Z"/>
  <path d="M226.6,1590l-4.2.9-13.9,49.1c6.6-.2,3.8-6.4,4.8-9.7,3.8-13.6,9.1-26.9,13.3-40.3h0Z"/>
  <path d="M1983.7,1641.4c-2.3-2.7-11.9,13.2-8.3,16.7l5.5-2.8,3.5,5.6,6.3-16.7-9.7,8.3,2.8-11.1h-.1Z"/>
  <path d="M124.5,1594.2c-4.2,11.2-7.7,22.7-12,33.9-2.1,5.6,1.9,7.9,4.3,0,4.8-15.2,9.3-30.4,15.2-45.2-2.8-3-7.1,9.9-7.6,11.2h0Z"/>
  <path d="M218.8,1631.7c2.9-11.4,11.1-26,13.1-37.1.5-2.8.8-4.1-1.8-5.9l-14,43-.6,8.4c5.8.2,2.4-4.6,3.3-8.4Z"/>
  <path d="M267.4,1596.6c.6-2.5,1.5-3.3-1.2-5.2-6.3,15.9-14.2,31.7-17.4,48.6,3.1.5,3.3-1.3,4.1-3.5,2.2-6.5,3.4-13.7,6-20.5,2.2-5.9,7.2-13.8,8.5-19.4Z"/>
  <path d="M2431.3,1638.6l1.4-8.3c-3.1-3.6-6.7,12-7.1,13-4.4,9.8-12.4,18.4-13.7,28.7l12.5-18.1c.3,6.2-6.2,11.9-6.9,17.4-.4,2.7.5,2.2,2.8,2l16.7-36.8-.7-2.1-4.9,4.2h-.1Z"/>
  <path d="M2330.4,1665c.8-4,13.1-23.8,10.5-26.4l-4.3.8c-.2,5.6-14,30.6-11,33.9,9-.8,3.8-3.7,4.8-8.4h0Z"/>
  <path d="M2350.7,1635.8c-3.4-.9-3.9,3.3-4.8,5.6-1.7,4.4-2.5,9.3-4.3,13.8-2.8,7.3-8.7,13.8-7.6,22.3l16-34.7.6-7h.1Z"/>
  <path d="M2379.2,1630.3c-2.7.2-7.6,16.5-9.2,20-3.3,6.9-9.9,13.5-9.6,21.7,3.2.6,3.1-1.5,4.1-3.5,4.4-9.4,12.9-24.3,15.3-33.3.6-2.4,2.4-2.7-.7-4.8h0Z"/>
  <path d="M302.4,1595.5c-3.7,7.7-9.9,27.6-12.2,36.4-1.8,7,2.8,6,4.5.3.5-1.8,0-4.1.7-6.2,3.6-11.5,9.1-22.6,10.5-34.7-2.1.4-2.7,2.6-3.5,4.2h0Z"/>
  <path d="M136,1587.6c-3.8,6.5-6.8,20.5-10.2,28.7-2.2,5.3-6.5,9.6-6.2,15.3,3.3.6,3.1-1.6,4.1-3.6,6.8-13.2,11.2-29.8,16.8-43.7-2.7-.5-3.3,1.3-4.4,3.2h-.1Z"/>
  <path d="M143.9,1585.8c-2.6.2-5.9,16.2-7,19.4-2.3,6.3-8.7,18.7-9,24.4,0,2.8.3,2.2,2.8,2.1,3.6-13.9,10-27,14.2-40.7.8-2.6,2.1-2.9-1-5.1h0Z"/>
  <path d="M285.6,1628.8c2.2-10.8,10.4-23.2,13.3-34,.3-1.1,2.3-5.1-.7-4.8-2.5.2-17.2,41.3-16,47.2,6.5,0,2.7-5.2,3.4-8.4h0Z"/>
  <path d="M2064.3,1619.2l-4.3.8c-2.2,10-12.5,20.1-15.5,28.7-.9,2.6-1.8,3.1,1,5.1l16.2-26.8,2.5-7.9h.1Z"/>
  <path d="M2151.9,1630.3c-.3-.3-3.2-.5-4.3.9-.8,1-11.3,21.3-11.8,22.7-.5,1.9-.9,3.6-.7,5.6l4.9-1.4c-2.5-5.9,16-23.7,11.8-27.8h.1Z"/>
  <path d="M70.8,1395.3c-1.2-5.4,13-31.4,11.2-33.3l-4.7,2.9-11.9,30.5h5.5,0Z"/>
  <path d="M196.9,1626.4c2.9-11.1,9-21.6,13-32.3-3.2,0-3-1-4.5,1.7-3.1,5.8-11.6,28.5-12.6,34.7-.4,2.5-1.8,3.3,1.2,5.3,5.2-.7,1.9-5.3,2.9-9.4h0Z"/>
  <path d="M410.7,1634.4c1.1-4.7,14.5-33.3,13.3-34.7-3.1-.5-3.8,2-4.9,4.2-3.2,6.4-9.3,24.4-11.4,31.7-.5,1.6-2.8,6.7.3,7.2,5,.8,2.2-6.4,2.7-8.4h0Z"/>
  <path d="M199.5,1594.2c-7.3,12.6-10.5,27.8-14.6,41.7h4.2c0-13,7.4-24.8,10.9-37.1.6-2.1,2.9-2.2-.4-4.6h0Z"/>
  <path d="M376.7,1615c-4.8-.8-5.9,5.2-11,5.7-1.5,3.3,4.1,5.8,4.1,6.2.1,3.4-4.3,9.9-2.8,14.5,4.2-2.8,4.2-9.6,5.9-14.3,1.2-3.4,6.1-5.8,3.9-12.1h-.1Z"/>
  <path d="M2156.8,1641.4c.8-2.2,6.4-11,4.8-12.5-1.2-1.1-3.3-.3-4.5,1.7-2.5,4-9.4,16.7-11.1,20.9-.8,1.9-1.7,4.6,1,5.2,3.3.7,6.8-13.2,9.7-15.3h.1Z"/>
  <path d="M219.6,1585.8l-4.1,1-12.5,40.7c4,.8,2.2-1.1,3.1-3,1.8-3.9,15.1-37.3,13.5-38.6h0Z"/>
  <path d="M57.7,1353.6l3.5-2.8c1.3,1.5-6.9,11.6-2.1,12.5,3.4.6,10-18.3,5.5-18-1.6,0-1.1,4.4-3.5,4.1l1.4-6.9c-5.9-1.2-9.5,7.5-4.9,11.1h0Z"/>
  <path d="M271.8,1594.1c-5.5,11.8-9.1,26.8-14.6,38.9,3.6.9,3.7-3.2,4.8-5.6,5.3-11.4,10.2-23.9,13.3-36.1-3.6-.7-2.4.7-3.4,2.8h0Z"/>
  <path d="M181.4,1630.2c1.2-4.8,11.5-29.3,10.5-30.5-2-2.6-3,1.9-3.5,2.7-5.2,9.6-10.1,23.8-10.4,34.8,5.9.2,2.7-4.4,3.4-7Z"/>
  <path d="M2322.9,1641.4l-4.3.8-9.6,25.6c3.1.3,3.7.3,5.3-2.3.8-1.4,7.4-16.7,8-18.5.4-1.3,1.2-5,.6-5.6Z"/>
  <path d="M2320.3,1666.2c-.6-.8,7.4-14.2,8.4-17,.6-1.6,1.6-2.8-1-3.7-3.7-1.3-2.7,0-3.6,2-1.6,3.4-7.6,17.2-7.9,19.9-.3,2.4-.3,2.9,1.8,4.5l4.9-3.5c1-2.9-2.2-1.7-2.6-2.3h0Z"/>
  <path d="M105.7,1626.1c5.4.2,4-6.7,5.5-10.5,3.4-9,9.4-17.8,11.2-27-8.9,9.1-13.6,25.3-16.7,37.5Z"/>
  <path d="M402.4,1634.4c3.2-10,10.4-19,13.3-29.2-3.1-.8-4.7,3.9-5.8,6-2.7,5-6.2,12.8-8.3,18.1-.7,1.8-5.4,11.4-1.8,12.1,4.6.9,2.2-5.4,2.7-7h-.1Z"/>
  <path d="M183.5,1596.9c-2.8.8-3.2,4-4.2,6.2-3.9,9.2-7.4,21.3-8.3,31.3,6.3,0,3.5-7.5,4.5-11.5,2.1-8.5,7.7-17.1,8-26Z"/>
  <path d="M2302,1638.6c-3.5-.5-4.6,3.5-5.8,6-1.9,3.9-5.6,12.6-7,16.6-.9,2.6-1.9,3,1,5.1,2.1,0,13.4-25.9,11.8-27.8h0Z"/>
  <path d="M68.1,1367.6c1.6,2.3-9.2,21-3.5,20.8l10.4-24.3-5.6-.7c-1.1-1.5,7.4-9.5-1.4-9.7l-8.4,25c3.3,3.6,5.6-10.9,8.3-11.1h.2Z"/>
  <path d="M405.9,1606.7l-4.2,3.4-12.4,32.7c6.8,1.5,3.7-3.6,4.9-6.9,1.4-3.7,12.9-28,11.8-29.2h0Z"/>
  <path d="M2311,1640c-2.5-1-2.5,2.3-3.1,3.8-1.8,4.5-7.2,16.7-7.4,20.5-.1,2.8.3,2.2,2.8,2.1,2.4-7.2,6.4-14,8.7-21.3.6-2,2-3.9-1-5.1Z"/>
  <path d="M391.9,1615.6c.2,4.6-12.5,28.6-11,30,.5.4,4.3.2,4.9-1.4,1.1-11.3,7.4-21.1,10.4-32l-4.2,3.4h0Z"/>
  <path d="M374.9,1638.9c-.7,2.6-3.2,9.2,1.8,8.1.2-13.5,8.7-25,12.5-37.5-6.6,5.7-12.1,20.8-14.3,29.5h0Z"/>
  <path d="M175.8,1601.1c-2.7-.9-2.4,2.4-3.2,3.7-4.1,7-8.2,21-8.6,29-.1,2.8.3,2.2,2.8,2.1-.2-11.4,4.8-20.6,9.2-30.5.6-1.4,3.4-3.1-.1-4.3h0Z"/>
  <path d="M2017.8,1645.6c-1.1.3-11.6,17.1-5.6,19.4,2.6-2.3,2.1-5.8,3.7-8.8,1.9-3.6,9.2-9,1.9-10.6Z"/>
  <path d="M357.3,1617.8c-3.6-.7-2.4.7-3.4,2.8-1.3,2.8-6.4,17.7-4.9,19.5l5.5-3.5-2.8-2.7,5.6-16h0Z"/>
  <path d="M2008,1642.8c-1.5,0-5.1,9.9-7.6,12.5.7,2.2-.6,6,4.2,5.6-2.5-2.2,10.1-18.4,3.5-18h0Z"/>
  <path d="M1997.7,1651.9c0-1.5,3.7-6.9-.8-6.3l-6.3,11.8c2.9,4.4,7,.7,9.7-2.1-1.1-3.3-2.6-3.1-2.6-3.4h0Z"/>
  <path d="M635.1,1607.5l-2.6,8.9,3.6-1.3.6,2.6h2c4.4-6.1,7.8-13.9-3.6-10.2Z"/>
  <path d="M364.2,1620.6c-3.3-1-4.1,3.4-4.8,5.6-.7,1.9-4.1,14.7-3.5,15.3,8.2.6,3.9-4,4.5-7.3.8-4.4,4.1-8.7,3.9-13.5h-.1Z"/>
  <path d="M1887.8,1605.3c1.9,4.9,0,6.2-.8,9.7-2.2,8.7,13,1.9,3.5-3.4,2.8-2.1,5.1-1.8,4.2-6.3h-6.9,0Z"/>
  <path d="M346.9,1619.1c-.7,2.1-5.6,17.5-4.9,18.1h4.2l4.2-20.8c-3.3-.6-2.7.3-3.4,2.8h-.1Z"/>
  <path d="M2148.4,1627.5c2.3.9,1.9-1.8,2.6-2.2,1.7-1,3.8-1,5-2.7-2.8-9.9-17.2-2-7.6,4.9h0Z"/>
  <path d="M2026.2,1645.6c-2.6,5.5-5.3,11.1-7.7,16.7,2.9,3,13.2-15.8,11.1-19.4-3.7-.7-2.4.8-3.4,2.8h0Z"/>
  <path d="M2077.2,1533.3c5.6,2.7,6.4-.7,8-5.9l-6.8,1.3c-3.1-9.2-10.3.3-1.2,4.6Z"/>
  <path d="M58.1,1331.8c.4-1.2,2.9-4-.4-4.6-4.9-.8-7.7,11.6-4.8,15.3,2.7-1.8,4.3-7.7,5.3-10.7h0Z"/>
  <path d="M2127.6,1616.4c-2,.4-2.7,4.9-2,6.8,12.8,5.8,6.2-7.7,2-6.8Z"/>
  <path d="M1949.5,1505.2l3.6-8.3c-4.2.3-9.2,3.5-8.3,8.3h4.8,0Z"/>
  <path d="M1843.3,1603.9l1.3,6.3,7-.8c0-4.6-4.4-6.1-8.3-5.5Z"/>
  <path d="M1859.6,1634.7c-1.2,0-6.6,1.9-6.6,3.2,3.2,5.2,7.8,2.2,11.1-1.4-1.6-2.2-2.1-2-4.5-1.8h0Z"/>
  <path d="M2111.6,1591.3c3.7.5,6.2-.5,8.3-3.5l-6.2-3.5-2.1,6.9h0Z"/>
  <path d="M1887.5,1514.6c.4-.2,6.2-7.3,2.4-8-7.5.9-10.9,12.8-2.4,8Z"/>
  <path d="M1949.3,1531.2c1.8,1.8,5,2.5,6.6-.3l-6.2-7.6c-3,1.6-2.2,6-.3,7.9h0Z"/>
  <path d="M1558.3,1630.3l-2.1-8.3c-7.6,3.4-6.3,9.2,2.1,8.3Z"/>
  <path d="M674.2,1628.2l-7.4-1.9c-6.3,6.3,4.7,6.6,7.4,1.9Z"/>
  <path d="M2247.8,1385.6c.2-5.5-5.9-4.2-9.7-4.1l3.7,5.4,6-1.3Z"/>
  <polygon points="1270.6 1621.9 1263.6 1626.8 1271.9 1628.9 1269.4 1625.9 1270.6 1621.9"/>
  <path d="M430.2,1563.5c3.5-1.6,2.5-11,0-11.1-3.5,1.6-2.5,11,0,11.1Z"/>
  <path d="M167.5,1264.7c3,.6,5.4-5.8,4.8-8.3-4.2-2.3-9.2,7.4-4.8,8.3Z"/>
  <path d="M2101.2,1531.6c5.6,1.6,5-5.8,3.5-6.9-3.9-2.7-8.4,5.6-3.5,6.9Z"/>
  <path d="M1020.4,1593.4l5.5,4.9c-1.5-4.7,3.5-2.9,2.8-6.9l-8.3,2h0Z"/>
  <polygon points="880.7 1617.8 885.5 1615.7 878.6 1610.8 880.7 1617.8"/>
  <polygon points="825.7 1590 825.7 1598.3 831.3 1596.8 829.8 1590.1 825.7 1590"/>
  <path d="M474,1571.9c-3.2-.9-8.7,6.6-6.9,8.3,3,2.9,8-5.9,6.9-8.3Z"/>
  <path d="M1228.1,1640c.9-.8,2.8-4.8,2.1-5.5-9.9-1.6-8.8,11.4-2.1,5.5Z"/>
  <path d="M1205.2,1594.1v7h5.5c.5-4.5-.3-7.8-5.5-6.9h0Z"/>
  <path d="M703.4,1601.8l5.5,2.1c4-9.6-7.3-8.3-5.5-2.1Z"/>
  <polygon points="2306.2 1270.2 2299.2 1271.6 2301.3 1277.2 2306.2 1270.2"/>
  <path d="M2191.5,1392.6c3,.6,5.4-5.8,4.8-8.3-1.8-1.9-10.6,7.1-4.8,8.3Z"/>
  <path d="M1154.3,1623.4c-9.9,3,.7,9.2,3.7,5.4,1.1-1.5-2.1-4.7-3.7-5.4Z"/>
  <path d="M440.7,1569.1c1.9-1.7-6-8.5-8.3-3.4l8.3,3.4Z"/>
  <path d="M1998.3,1489.9l2.1-2.1c.7-2-1-5.4-3.4-4.8-2.9.7-5,8.7,1.4,6.9h0Z"/>
  <path d="M400.4,1505.2l3.4,8.3c5-2.3-1.7-10.2-3.4-8.3Z"/>
  <path d="M1839.1,1525.3c-1.5,5.4,5.6,5.2,6.9,3.5,1.7-2.2-5.5-8.5-6.9-3.5Z"/>
  <path d="M2113,1533v5.5c9.3,1,9.2-6.5,0-5.5Z"/>
  <path d="M1448.5,1605.3l2.1,5.5c1.7.7,6.4-5.3,4.8-6.9l-6.9,1.4Z"/>
  <path d="M1098.4,1611.3c2,6.4,7.9-2.2,5.4-4.7s-7.2-1.2-5.4,4.7Z"/>
  <polygon points="1265 1609.4 1262.2 1610.2 1260.8 1616.4 1267.8 1616.4 1265 1609.4"/>
  <path d="M1738.4,1616.4c-1.5.3-2.6,3.2-2.1,4.8,8.7,7.3,7-6,2.1-4.8Z"/>
  <path d="M1813.4,1628.9c-2.9.7-5,8.7,1.4,6.9l2.1-2.1c.7-2-1-5.4-3.4-4.8h0Z"/>
  <path d="M212.7,1307.1c.8-3.4-6-4.3-6.9-3.4-3.2,3.2,5.7,8.8,6.9,3.4Z"/>
  <path d="M613.8,1578.9c-4,3.8-2.9,7.3,2,8.3,0-3.5,3.4-7.6-2-8.3Z"/>
  <path d="M2277.7,1325.9c-3.1-.6-6.1,5.8-4.8,6.9,2.3,2.1,9.5-4.2,4.8-6.9Z"/>
  <path d="M572.7,1623.3c4.4,1,6.8-3.1,6.9-6.9l-6.9,1.5v5.5h0Z"/>
  <path d="M2114.4,1539.9l1.3,6.1,4.3.8c.5-4.5-.3-7.8-5.5-6.9h-.1Z"/>
  <polygon points="2377.8 1218.8 2376.3 1223 2382.6 1225.8 2377.8 1218.8"/>
  <path d="M639.5,1599c-1.2-5.3-10.1.3-6.9,3.4.9.9,7.7,0,6.9-3.4Z"/>
  <path d="M1398.5,1624l8.3,3.5c1.8-1.7-5.4-9.1-8.3-3.5Z"/>
  <path d="M1884.3,1626.1c-3.4-.8-4.3,6-3.4,6.9,3.2,3.2,8.8-5.7,3.4-6.9Z"/>
  <path d="M1737.6,1642.1c1.2,5.3,10.1-.3,6.9-3.4-.9-.9-7.7,0-6.9,3.4Z"/>
  <path d="M786.1,1631.7c3.4.8,4.3-6,3.4-6.9-3.2-3.2-8.8,5.7-3.4,6.9Z"/>
  <path d="M1055.1,1638.6l-8.3.7c2.6,3.9,7.9,5.6,8.3-.7Z"/>
  <path d="M379.5,1507.3c-.8-3.9-9.6-1.1-6.9,3.4,1.1,1.8,7.7.3,6.9-3.4Z"/>
  <path d="M2033.7,1533l-.7-6.9c-6.2,2.6-6.9,7,.7,6.9Z"/>
  <path d="M1906.5,1623.3c3.4-.8,2.4-7.8-1.3-6.9-3.4.8-2.4,7.8,1.3,6.9Z"/>
  <path d="M493.5,1594.1c.9-.9,0-7.7-3.4-6.9l-2.1,2.1,1.5,4.7c.5.3,3.9.3,4,0h0Z"/>
  <path d="M913.3,1611.5l5.6.7c-.2-6.6-10.8-8.3-5.6-.7Z"/>
  <path d="M1317.8,1635.8v5.5h6.9c1.2-3-6.1-6.5-6.9-5.5Z"/>
  <path d="M1909.3,1570.5l.7-5.6c-2.5-.3-4.3-.2-5.5,2.2l1.3,4.7,3.5-1.4h0Z"/>
  <path d="M1474.9,1628.2l5.6.7c-.2-6.6-10.8-8.3-5.6-.7Z"/>
  <path d="M840.4,1628.9l4.8-6.9c-5.4-1-9.9,2.3-4.8,6.9Z"/>
  <path d="M1808.7,1602.6l1.9,5.4c5.4-4.7,6.9-11-1.9-5.4Z"/>
  <path d="M195.4,1248l.7-5.6c-6.6.2-8.3,10.8-.7,5.6Z"/>
  <path d="M514.2,1564.8l1.5-4.7-3.4-2.1c-3.4,3.2-3.7,8.6,1.9,6.8h0Z"/>
  <path d="M169.6,1225l-3.5-4.8h-2.1v6.9c2.6.3,4.1,0,5.5-2.1h.1Z"/>
  <path d="M2080.3,1552.4c2.6-1.7,2.2-4,2.1-6.9h-5.5c-.6,3.2,1.1,5,3.5,6.9h-.1Z"/>
  <rect x="2089.3" y="1535.8" width="5.5" height="5.5"/>
  <path d="M1780.7,1640c2.9.2,5.2.5,6.9-2.1-3.7-5.1-7.3-4.3-6.9,2.1Z"/>
  <path d="M508.1,1623.3c2.7.5,5.7-4.2,4.8-6.9-1.5-1.5-9.8,5.9-4.8,6.9h0Z"/>
  <path d="M2126.9,1473.9l-2.1-4.8c-1.8.9-4.8,5.6-3.5,6.9s5-.3,5.5-2.1h.1Z"/>
  <path d="M753.5,1627.5c-1.3,5.2,2.9,5.3,6.9,5.5.2-3.8-3.5-6.1-6.9-5.5Z"/>
  <path d="M1969.8,1533c-.8-.8-5,.3-5.5,2.1l2.1,4.8c1.8-.9,4.8-5.6,3.5-6.9h0Z"/>
  <polygon points="1203.8 1631 1204 1635 1208 1637.2 1205.9 1628.9 1203.8 1631"/>
  <path d="M1340.8,1619.2c-5.1,3.7-4.3,7.3,2.1,6.9.2-2.9.5-5.2-2.1-6.9Z"/>
  <path d="M1779.3,1619.1v-5.5c-8.6-2-7.3,6.2,0,5.5Z"/>
  <path d="M1802.3,1638.6c-1.6,0-5.5,6-1.4,6.9,4.5,1,5.4-6.9,1.4-6.9Z"/>
  <path d="M1808.5,1642.1l2.1,4.8c1.8-.9,4.8-5.6,3.5-6.9s-5,.3-5.5,2.1h0Z"/>
  <polygon points="1899.6 1641.4 1896.1 1643.5 1898.4 1646.8 1903.1 1647 1903 1644.9 1899.6 1641.4"/>
  <path d="M255.8,1295.3v-5.5c-7.4-.6-7.3,6.2,0,5.5Z"/>
  <path d="M2046.2,1485.7v5.5c7.4.6,7.3-6.2,0-5.5Z"/>
  <path d="M554,1599.7c-3.4.9-1.9,6.3,1.4,5.5,3.8-.9,4.1-7-1.4-5.5Z"/>
  <path d="M1883.6,1595.5v5.5c7.4.6,7.3-6.2,0-5.5Z"/>
  <path d="M1789.1,1626.1v-5.5c-7.4-.6-7.3,6.2,0,5.5Z"/>
  <path d="M1849.6,1620.6c-3.9,1,.3,6.1,2.7,5.5,3.5-.8,2.2-6.8-2.7-5.5Z"/>
  <path d="M1487.4,1633.1v-5.5c-7.4-.6-7.3,6.2,0,5.5Z"/>
  <path d="M1088.5,1637.9l-3.5-3.5c-5.5,4.2,1.5,10.9,3.5,3.5Z"/>
  <path d="M1659.8,1634.5v5.5c7.4.6,7.3-6.2,0-5.5Z"/>
  <path d="M193.4,1292.3c5.3,1.2,4.1-.8,4-5.4h-5.5l1.5,5.4Z"/>
  <path d="M1702.9,1617.8h5.5c.6-7.4-6.2-7.3-5.5,0Z"/>
  <path d="M1567.4,1589.9c2.6-1.7,2.2-4,2.1-6.9-5.7-1.2-6.6,3.9-2.1,6.9Z"/>
  <path d="M333.6,1499.6c2.7,2.7,8.6-4.4,3.4-5.5-2.9-.6-4.5,4.5-3.4,5.5Z"/>
  <path d="M440.7,1530.2c-4.5-1-4,5.6-4.2,8.3,4.3,1,3.5-5.9,4.2-8.3Z"/>
  <path d="M229.4,1263.3c3.2-7.1-6.2-8.8-4.1,0h4.1Z"/>
  <path d="M2083.1,1520.5c2.9.6,4.5-4.5,3.4-5.5-2.7-2.7-8.6,4.4-3.4,5.5Z"/>
  <path d="M1008.6,1620.6c-5.1,1.1.8,8.2,3.4,5.5,1-1-.5-6.2-3.4-5.5Z"/>
  <polygon points="735.4 1598.3 738.9 1603.9 740.9 1603.9 740.3 1599.7 735.4 1598.3"/>
  <path d="M1440.2,1615c2.2,1.8,5.7-4,4.2-5.5-2.4-2.4-7.4,3-4.2,5.5Z"/>
  <path d="M1413.8,1630.3v2c3.2,4.3,6.2,1,5.5-3.4l-5.5,1.4Z"/>
  <path d="M615.2,1603.9h2.1c.3-13.4-8-2.3-2.1,0Z"/>
  <path d="M408,1519.1h2.1v-5.5h-4.2c-.3,2.6,0,4.1,2.1,5.5Z"/>
  <path d="M1522.2,1604.5c1.7,4.8,6-1.6,4.1-3.5s-5.6-.6-4.1,3.5Z"/>
  <path d="M483.8,1534.4c-2.2-2.2-6.4,2-4.2,4.2s6.4-2,4.2-4.2Z"/>
  <path d="M235.2,1402.1l8,2.9,8.4-20.1c-.6-3.5-9.2-.5-11.1.7-.4,3.7-3.2,8.3-5.6,11.1,0,1.4-.4,4.7.2,5.4h.1Z"/>
  <path d="M69.3,1464.9c0,.6,0,1.1.2,1.3,1.2,1.1,3.3.3,4.5-1.7,0-.2.4-.7.7-1.4h-.3c-1.7.5-3.5,1.1-5.1,1.8h0Z"/>
  <path d="M489.9,1636.3h-.2c-2.8-1.5-6.5-1.7-9.2-3.4-3.4-2.2-5-7.6-7.8-8.8-5.8-2.5-12.4.3-13.9-10.4-8,.9-11.9,12.3-22,8.1-2.1-9.8,5.9-19.9.4-28.9-7.1-11.7-24.7,5.4-33.9,6.8-2.8-5.1.7-9,.9-13.5.3-5.3-5.8-5.2-7.2-10.1l-7.6,6.9c9.3-23.7-8.2-22.6-26.4-22.2-2.1-2.1,6.7-17.4-5-23.5-8.3-4.3-17.3.5-24.1,5.4,0-3.8.5-8-2.1-11.1-9.1-10.7-24.8-.7-35.9,1.1-5.7-1.1-7.9-29.2-24.2-22.5-4,1.7-7.4,18.9-8.3,23.7-.8,4.1,0,8.1-.5,12-1.7,11.5-16.1,26.1-15.8,39.8-1.6,3.1-5.8-2.7-6.2-4.9-.5-2.5-.5-9.9,0-12.4,1.1-5.5,2.4-5.5,3.3-13.7.9-9,5.6-50.2,9.9-55.2,5.8-.7,11.8-3.9,17.3-4.9,4.8-.9,10.1,1.3,16.4-1.7,6.7-3.2,4.5-13.2,11.1-14,9.8-1.1,4.5,11.4,15.6,7.3,10.4-3.8,20.3-12.4,11.4-23.3l11.9-12.7-3.2-4.6-13-2.3c7.8-8.5,41.2,4.1,35.5-13.3-3.2-10-15.8-8.3-23-13.1l8.3-3.5c3.4-4.9-12.2-10.3-15.5-11.4-4.4-1.4-8.9-2.6-13.6-2.4,4.4-4.2,19.2-14.5,10.3-20.7-7.3-5.1-33.7,5.9-45.1-.8-2.5-1.5-.6-1.7,0-2.8,2.6-5.4,7.1-11.3,2.9-17.8-1.7-2.7-7.2-1.7-9.8-3-2.6-1.3-4.9-8.2-8.4-9.7-6.4-2.7-13.3.5-19.4,2.1-.7-13.2-31.7-7.9-33.4,2.2-.9,5.7,4.3,14.3,6.9,19.4-.1,1.4-20.4,9.6-14.5,21.5,1.1,2.3,7,3.4,6.3,6.2-7.9,5.9-14.5,13.3-22.3,19.4-1.6,1.2-5.3,1.8-5.6,3-1.2,5.1,5.6,8.7,9.8,10.3.8,1.1-9.2,7.2-6.3,12.5l13.3,5.6c-9.8,20,7.9,12.7,19.5,17.4-7,5.4-12.9,12.9-14,22.1l2.9,1.6-3.6,6.2c-4-7.9-3.4-15-13.2-6.9-.3-6.6-8.8-12.8-14.7-8.4-3,2.2-3,8.2-6.1,9.8,1.5-8.1-1.5-39-8.4-16.7-3.5-.6-2.2-7.7-4.9-8.3-4.2-1-3.7,6.2-6.2,6.9,0-3.9.6-12.1-3.7-13.7-4.9-1.7-6.5,2.9-6-5,.9-13.4,2.5-13.5,8.9-23.1,5.8-8.7.9-12.2,3.9-18.3,3.8-8,17-8.5,13.3-20.9-1.4-4.6-7.4-3.6-6.7-7.9,9.8-5.6,36.1-14,33.1-28.2-2.6-12.4-16.2,0-17.8-5.9,3.1-10.5,13.7-14.4,10.8-27.5-1.7-7.6-8.1-7.2-12.1-10.1-2.3-1.7-3-5.1-6.6-7.3-5.6-3.4-12.3-3.2-18.6-3,5-8.2,16.8-11.6,19.1-21.3-.2-8.5-19.3-3.6-25.1-5.3-6.2-1.9-15.8-21.4-28.8-16.4,5.6-18.5,2.4-36.8-20.8-34.8-1.5-1.3,11.3-15.6,3.3-19.3-12.7-1.6-27.6,10.4-32.2,21.7-1.5,3.7-2.6,12.4-4.4,14.8-1.9,2.5-8,.3-10.3,8.1-1.2,4.1-3.6,22.7-3.5,27,0,1.4.6,3,1.6,4.3-.9,6.5-3.7,12.7-8.3,17.5-6,6.6-14.7,11.3-18.1,20.2-2.3,5.7-2.1,13.1,2.3,17.7-.6,1.5-1.7,3.1-2.9,4.6-1.9,2.4-4.4,5.1-6.1,8.1-2.2,4.1-2.4,9-.4,13.3,1.3,3,4.9,5.6,8.5,5.2.4,0,.8,0,1.4-.2-.3.4-.5.7-.5.7-5.8,8.3-14.4,18.2-18.7,27.6-4.4,9.2-4.5,21.8,3.5,29.2,3.4,3.2,8.1,4.6,12.6,4.2l3.1,4.5s-.5,0-.6-.2c1.3,1.6,1,5.5,1,7.8,0,3.3-.4,19.9-.5,23.6v1.9c1.2.8,2.6,1.9,4.1,2,5,.8,8.7-3.2,10.9-7,1-1.5,1.9-2.4,2.8-2.7,2.8-1.1,6.4,1.4,7.7,4.1,2.8,6,.5,14,0,20.6l4.7-5.2c4.4-4.9,10-8.9,16.2-11.4,1.7-.7,3.4-1.3,5.1-1.8h.3c1.1-.3,2.2-.6,3.4-.8,1.6-.3,3.2-.5,4.8-.3v.2c1,0,2,.3,3,.7.2,0,.4.2.7.3,1.6.9,2.6,2.3,2.7,4.1-.3-1.5-1.3-2.7-2.6-3.4-.2,0-.4-.2-.7-.3l-1.1,2.6-4.2.9c.8-1.3,1.6-2.8,2.3-4.2-1.6,0-3.2,0-4.8.3l-3.1,6.1c0,2.8,3.2,2.6,4.2,4.5,1.6,2.9.9,7.5,3.5,11.4,2.6,3.9,8,5,10.2,9.3l.3,2.5c-5.1,1.9,0,16.4,0,22.3l-4.1,37.4-8.4,5,6.9-13.2-5.6.7,4.1-8.3c-4.6-4.6-19.4,23-19.5,27.1.5,2.6,5.8-.6,4.2,2.8-1.4,2.9-13,9.5-2.7,9.8.7.4,5.4-9.8,5.5-4.2l-8.3,13.9,3.4,2.1,16-30.6c4-1.2,3.2,3.4,2.4,5.9-2.1,6.6-12.5,20.7-16.1,28.4-.9,2-2.1,3.5-1.6,6,3.2.4,3.6.3,5.3-2.4,3.1-5,8.2-19.5,11.3-23.1,3.2-3.7,9.4-3.9,9.8-4.3,1.3-.9,3.2-7.2,4.2-9.2l2.8,22.2h-4.2c3.3-10.3-6.6-1.8-11.7,0-4.4,6.8-8.3,14.3-12,21.4-3.5,6.8.5,9.1,4,4,2-2.8,6.4-19.9,9.2-19.9l3.5,1.9-8.4,19.3,7,6.4c2.6-7.7,5.8-17.6,11.1-23.6-2.9,9.1-8.6,17.9-8.3,27.8h4.2c.7-10.6,5.9-23.7,12.5-32l-12.3,35.8,3.2,4.5,15.9-46.3c5.6-3.2,16.2-13.1,5.7-16.3-2.1,8.3-11.7,11.4-11.2,20.8-1.5-.4-4.2-8.5-4.1-9,.4-1.5,3.8-1.5,4.2-3.1.9-3.7-.7-10.1,0-14.3,2.7.3,1.2,7.8,5.6,4.9,1.2-.8,6.1-11.4,8-14.3,3-4.4,7.4-7.6,9.9-12.4l-3.3-4.6-14.6,19.4c1.6-10.6,9-24.1,18.1-30.1.5-2.3-.6-6.7-3.5-6.1l-11.8,16.7c1.9-8.2,3.7-18.4,9.7-24.4l-4.8-4.7-11.8,36.1c.4-5.6-.7-11.8,0-17.2.8-5.4,7.3-10.9,1.8-14.5l-3.3,1.1c1.6-6.6-3.2-13.8-2.5-19.8,1.2-9.8,8.9-16.9,13.4-24.2,1.5-2.3,2.6-9.7,5.2-10.1l8.9,2c-6.7,3.5-8.7,12.2-16.4,12.1l-.3,6.7c4.5,3,19.2-18.8,22.9-18.1,4.7,2.9-.5,16.6,4.2,18.1,5.2,1.6,4.4-5.7,6.9-6.9l4.2,5.6c4.7.8,3-2.8,6.2-4.2.3,4.4-1.6,19.2,3.6,20.8,6.7,2,6.2-16,14.8-11,2.3,1.3,2.3,6.3,5.3,7.7,2.5,1.2,4.9-1.1,6.9-.2,1.8.8,7.9,6,9.2,7.8,10-6.6,9.7.5,14.1,1.1,2.5.3,3.8,0,5.9-1.2,1.5,1.6-9.1,11.4-4.2,14.7,5,3.3,12-5,14.7-.8.5,11,3.2,23.3,3.5,34.1,0,1.6-.5,11.5-2.2,11.8-4.8.3-8.2-10.7-9.8-11.1-1.8,1.1-8.9,1.8-9.7,2.6-3,2.7-.6,6.5-3.4,7.1-3.2-8.1,12.4-25.3,11-29.8l-4.1-1.6c-1.8,1.2-4.6,11.2-6.6,14.2-.9,1.3.2,2.5-3.1,1.8l-7.8-32.1h-6.1c-1.7,6.7,3.5,5.4,5.9,10.2,3,5.9,4.2,16.5,5.2,23.2l-7.6-22.3-6.3-1.4c-.7,5.7,4,8.6,6.2,13.9,3.4,8,4.6,16.9,7.7,25-2.9.7-3.1-1.6-4.5-3.1-2.6-3.1-7.5-11.1-8.8-14.9-.6-1.7,1.8-8.5-4.1-8-7.2.6,0,7.8,1,9.8,1.2,2.3,10.1,18.3,9.4,19-3.5-3.3-10.8-4.3-9.7-9.7-2.9-.4-5.1,2.3-5.6,4.9,0,4.8,12.4,6.4,14.7,11.8l2.1-4.2,3.7,2.7,4.6-2.6c.3,3.8-1.4,8.4,2.1,11.1,3.8-1.3,3-10.6,6.9-9.7,1.4.3,16.8,17.6,17.7,19.8,5.8,14.2-14.2,48-11.5,51.1,7.1-.2,4.2-5.8,5-8.5,2.6-8.6,8-17,9-26.3l4.1.7c-3.1,9.7-10.7,23.4-11.1,33.4,0,2.1-1,4,2.1,3.4l3.4-5-2.7-2.6c5.4-7.6,6.1-20.7,10.8-28.2,1.7-2.8,4.6-3.3,5.6-5.5,2.4-5.6-.4-11.7.6-17.4,1-5.7,6.7-14.4,9.4-19.8l-1.4,13.8,5.6,16.1c6.5.5,2.7-6.4,3-6.8.3-.5,2.8-.3,3.7-2.5,2.4-5.5,1.2-15.2,5.8-20.7,1.7-2.1,5.4-1.2,4.3-5.4l-4.9-3.5c-2.3,0-9.9,22.3-9,26.4-2-.4-2.8-7.7-2.8-9,.2-8,8.4-25.9,12.8-33.1,1.8-3,5.2-10.5,8.8-9.3,4.7,22,27.7-1.5,40.2,8.5,6.8,5.5-4,15.1,1.6,16.5,4.4,1.1,15.8-15.8,27.1-10.4,10.5,5-2.8,20.5-1.4,26.3,1.3,5.1,6.9-.2,9-.5,4.2-.6,19.9-1.6,22.9.6,5.2,5.5-4,14.9-2.7,19.3,5.6,7.1,8.8-4.8,15.1-.4,1.3,1.7-4.7,17.5.8,20.7,9.4-2.6,24.2-15.5,34-11.8l-18.1,51.4c.1,4.2,1.6,1.4,2.5-.3,6.5-12.6,10.9-27,14.2-40.7,2.5-.3,1.3,3.1,1.2,4.7-1.5,17.1-9.1,29.7-15.1,45.3,3.1.6,3.1-1.5,4.2-3.4,3.8-6.8,6.5-15.7,9.7-23,2-.4,2.5,3.5,2.4,4.6-.4,2.9-7.2,14.2-5.2,16.2h4.2c-1.3-8.9,6.6-15,5.6-23.6,2.4.2,4.4-1.4,4.2,2.1-.2,4.2-7,19.9-5.6,21.5,3.3-1.2,4.3-.7,6.9,1.4,1.6-10.3,11.7-20,8.4-30.6,13.4,1.4.6,17.6-.8,24.9-.5,2.7-1.3,3.7,1.5,5.6,1.2,0,5.7-20.3,7.7-22.2.7-.7,2.9-1,2.5,1.8-1.2,7.3-4.4,14.3-3.9,21.9,2.7.4,3.6-.9,4-3.4,1.1-6.5.3-14.2,5-20.3l3.5.7c.9,3.9-9.1,18.9-3.5,20.1,2.5.5,8-5.6,2.1-6.2l3.5-9.1c6.8,1.4,1.3,7.2.9,10.8-1,8.4,8.3,2.2,10.9-1.7l-6.9,2.1,2.1-7c5.2,0,7.2,5,9.1,6.2,1.3.8,3.2-.2,4.1.3,3.2,1.7,5.6,5.3,9.7,4.6v-6.9c-6.4.7-9.9-4.1-15-6.6ZM90.4,1605.2c-.8-2.7,7-19.3,9.7-16.7l-9.7,16.7ZM154.3,1400.9v-5.5h1.4l1.4,5.5h-2.8ZM161,1390c1.1,1.6.5,7.6-2.5,8.1l1.4-5.6-4.1-.7,1.3-3.4c.9.6,3.8,1.4,3.9,1.6ZM70.8,1461.2c-5.8,1.5-11.3,4.2-16.1,7.9.2-2,.2-4.2-.1-6.4-.7-7.3-8.3-14.1-15.8-11.6-2.5.8-4.4,2.8-5.8,4.7-1,1.3-1.8,2.7-3.1,3.5.3-6.2.8-17.6.9-20.2,0-.9,0-2.6.2-3.6.2-3.2-.8-7.3-3.1-9.8,1.1-1.8,1.5-2.4,2.5-4,1-1.2,1.8-2.5,2.3-3.9l-7-3.4-1.3,2.2c-3.1,3.5-9.9,2.9-12.7-1-7.7-10.6.6-23.1,7.3-32.3.6-.8,10.3-14.9,10.5-15.1.4-.6.8-1.2,1.3-1.8,1.1-1.5,1.5-4.2.5-6-1.3-2.6-4.5-3-6.7-2.7-1.2,0-2.1.3-3.1.5h-.9c-2.3-.8-2.6-4.9-2.1-7,.2-.7.4-1.4.8-2,2.8-5.1,7.8-9.2,9.1-15.5l.4-1.8-1.5-1c-4.2-2.8-4.2-8.7-2.8-13.1,2.7-8.2,10.7-13.2,15.8-20,4.2-5.3,6.7-12,7-18.7,0-1.1,0-2.3,0-3.4,0-.9,0-1.9,0-2.8.4,2.2.5,4.5.4,6.8.8.6,1.7,1,2.8.8-.4-5.1.3-32.2,3-34.5,1.2-1,6.2.3,8.7-3.1,2.6-3.5,2.9-11.8,4.6-16.2,4.1-10.7,15.4-18.9,26.7-19.9,1.6,5.5-9.4,14.8-8.3,18.7.9,3.3,10.7.2,15.4,1.3,16.4,4,8.1,20.7,8.9,31.4,4.8,3.3,11,2.1,15.9,4.9,5.8,3.2,8.8,12.3,15.4,13.8,6.9,1.6,14.1-.5,20.9,2.1,2.6,3.6-16.6,14.7-18.2,17.3-8.2,13.4,14.1,7.4,20.6,10.1,2.8,1.2,3.6,6.7,6.7,8.7,4.3,2.7,9.3,0,10.2,7.9,1.4,11.9-14.1,18.1-10.9,27.4,3.5,8.3,19-2.7,17.9,7.1-.9,7.9-30.8,19.7-36.9,25.8-3.8,1.3-.4-5.8-4.1-4.1-2.6,1.1-7.1,16.7-8.7,20.6-.8,2.1.8,3.8-3.1,3.1.1-7.2,8.3-17.3,9.1-23.6.3-2-2.1-3-2-3.5,0-.9,8.5-5.3,9.6-14,.5-4.3-2-13.1-7.6-11.7-7,1.8,2.9,6.8,3.2,7.2,4,6.7-9.5,13.8-12.3,17.1-1.4,1.6-7.8,13.7-8,15.6-.8,7.6,7.8,16.1,6.6,24l-5-4.1c-12.5,6.7-15.8,20.9-23.4,31.9-1.7-2,0-11.9-4.2-11.2-4.4,1.7-9.7,7-13.8,8.5-4.9,1.8-9.9,0-13.3,3.4-.5,2.5,3.6,3.8,3.8,5.5.2,2.2-3.9,8.3-6.4,13.1-.2,0-.4,0-.6.1ZM119.6,1438.4h-.1s-5.5-2.8-5.5-2.8c4.1-6.8,6.7-17,15.3-19.4,2.4,2.7-10.1,17.7-9.7,22.2ZM102.1,1503.6c.5-.7,1.6-5.2,3.6-2.6,1.8,2.3-1.2,3.8-1.6,4.3-1.9,3-5.1,7.6-8.1,9.6.5-4,3.8-8.1,6.1-11.3ZM98.7,1499.6c0-3.8,2-9.1,5.5-11.1.8,5.1-.9,8.9-5.5,11.1ZM106.4,1509.3l.7,4.2h-4.2l3.5-4.2ZM105.7,1471.8c-2.6.3-1.1-2.8-.8-4.2,1.8-7.6,7.2-18.8,11.9-25l-11.1,29.2ZM79.4,1459.9c-.9,0-1.8,0-2.7.2,3.2-6.9,8.5-18,11.2-15.5l-7.9,15.3h-.6ZM86.6,1461.3c-.8-.4-1.5-.7-2.3-.9,2.6-5.5,4.8-11.5,7.6-16.5,1.1-1.9,1.1-4.1,4.2-3.4l-9.2,21c-.1,0-.2-.1-.3-.2ZM90.2,1466.2c.6,3-1,7.1-4.5,6.7,1.5,0,2.6-.9,3.2-2.1,1-1.2,1.4-3,1.3-4.6ZM84.6,1478.1h.2c-1.3-4.2,3,.5,4.8-2.1l12.5-29.2c3.3,2.4,1.2,2.4.4,4.6-1.4,3.9-13.4,27.7-12.3,28.8h4v5.6h4.2l1.5-7,4.1,2.1-6.2,9c-3.1-5.1-11.5-6.4-13.2-11.8ZM93.1,1569h0c-2.3.5-1.6-4.8-1.4-5.9.2-.7,5.3-4,5.6-3.8l-4.2,9.7ZM98.7,1556.6c-1.2-1.4,3.3-8,5.5-8.3.9,4.8-1.2,7-5.5,8.3ZM99.5,1545.5h0c-2.1,3.3-2.8,7.8-6.3,9.7,0-6.4,6.1-14.4,11.1-18.1,1.8,6-3.2,6.1-4.8,8.4ZM100.1,1532.9l5.5-6.9c.7,2.4-3.5,8.6-5.5,6.9ZM107,1567.7h-1.4v-8.3h1.4v8.3ZM105,1523.1h0c0,0-2.1-2-2.1-2l1.4-3.5h2.8l-2.1,5.5ZM118.4,1464.5h0c-.5,1.7-9.4,16.4-11.5,14.3l13.9-30.6c1.1,3.8-2,6.6-2.5,9.4-.5,2.4.8,4.3,0,6.9ZM123.7,1444c-2.6.3-1.2-2.8-.7-4.2,2.2-6.6,6.4-16.5,11.8-20.8l-11.1,25ZM136.2,1435.1h.3c-1.7,6.1,1.2,14.4-3.8,20l-4.4-6.3c3.3-3.7.9-7.2,1.5-10.5.8-3.9,12.2-23,11.9-24.3-.3-1.1-7-2.7-4.2-9.1h6.2l8.3-18.1c2.4,3.7-3,9.2-3.3,12.1-.2,2.3,3.1,3.7,2.5,4.6,0,0-1.8-.5-2.7,1.1-4.3,7.6-.9,12.5-2.5,18-1.6,5.5-8.9,9.3-9.8,12.5ZM235.6,1576.1h0c-6.6-4.6-10.1-14-17.4-16.7l2.8-6.9c5.6,3.1,8.2,10.6,15.1,11.3l-.5,12.3ZM247.3,1505.6h0c0,0-5.4,30.1-5.4,30.1-1-15.1-.8-30.4,5.6-44.5l5.5,1.4-6.8,6.5,1.1,6.5ZM255.6,1486.1h-.1c1.7-4,5.4-9.9,8.7-12.9l-8.3,18.1c-2.9.2-.8-4-.3-5.2ZM261.4,1469c-.2-2.5,1.6-5.9,4.1-6.9.2,2.5-1.6,5.9-4.1,6.9ZM319.7,1476c.9-1.4,3.4-8.6,4.2-6.9.4,3.4,0,7.3-4.2,6.9ZM328.8,1449.6c5.5,1.7-4.4,7.4-4.8,6.9-.5-.5,2.4-7.7,4.8-6.9ZM323.8,1449.6h.1c-5.8,7.2-9.2,16.3-14.5,23.8-.5.8-1.5,5-3.6,2.6-.9-1,11.1-19.9,12.7-22.7l5.3-3.7ZM219.6,1377.3c-2.6.4-4.8,0-5.6-2.8,2.6-.4,4.8,0,5.6,2.8ZM207.1,1381.5h0c2.6-.5.7,2.7,1.6,3.9,3.6,4.6,12.3-.6,12.3-6.7l2.7,2.1-7.8,11.6c-6.6-.9-10.1-3.8-8.9-10.9ZM192.7,1441.2c-4.3,0-4.5-4.5-1.3-7,2.5-1.9,8.3-3,11.5-4.1.2-1.3-.1-2.8,0-4.2-6.7,2.1-11.7-.3-16.6-4.9,8.5-4.9,18.5-19.8,26.8-23.3,3-1.3,5.2,2,8.5,1.8,6.9-.3,12.1-14.8,13.3-20.8l-12.5,15.3,6.8-12.9c-6.5-9.5-13.2-19.2-15.2-30.8.6-6.9,18.5-7.3,23.8-5.7,4.3,5.8-2.2,11.3-1.5,17.5,7.2,1.2,5.3-6.9,9.7-10.4,15.2-12,18.5,7.5,31.4,10.4.8,6.6-4.9,10.8-7.5,16.1.6,7.8,31.9,6.6,38,6.2,4.8-.3,8.2-3.9,13.2-1.4-.8,8.9-13.1,10.3-16.7,17.3.9,4.2,24.2,5.8,29.2,9.1,0,5.3-8.5,4.7-6.9,11.1,9.4,3.8,20.2,2.9,26.4,11.9l-2.1,3.5h-20.9c-2.6,0-14.2,3.7-15.6,5.9-.9,1.4-.5,4.2-1.5,6.2-4.4,8.5-8,15.2-14.2,22.7-1.5,1.8-2.3,5.4-6.3,6.9l-.7-3.2c-.5-3.7-6.3,2.7-6.8,5.6-.5,3.2,1.3,5.6,1.1,8.6l-6.9,1.5c-2.2-2,13.4-28.7,13.9-34,.2-1.6.4-4.8-2.1-3.5s-12.2,33.7-18.4,37.2c-.9.5-6.9,2-7.3,1.7,5.2-8,9.3-17,14.7-24.9,2.9-4.3,9-6.1,7.5-12.6-1.5,0-2.8,0-4.2.6-6.4,3.7-17.4,32.3-25,38.3l16.7-32.7-2.8-1.4,2.8-4.9-9.5.2-12.8,22.1c1.4-7.5,4.8-15.7,9.7-21.6l-2.7-.7v-2.7c5.3-.4,4.2-4.9,4.1-9.1-4.9-2.9-6.9,3.7-7,7.7l-4.2-.6-13.8,21.5c.4-6.9.9-13.2,6.9-17.4l-4.2-2.1.2-1.9c.8-7,7.2-14.9,9-20.3,1.8-5.5-3.4-7.6-5.7-4.2l-11.8,43.1c-1.8-.3-2.8-9.7-2.6-10.2.7-2.4,6-2.7,5.4-5.7-1.6-3.5-5.3-.5-5.5-.7-3.8-3.9,2.6-14.5,0-19.5l-6.3,4.2-1.5-2.9c-1.5-.3-6,1.3-7.4,2.3-4,2.6-3.7,8.8-8.4,8.9-2.4-5.9,12.2-16.2,9.7-19.5-4.9,4.7-8.9,3.9-13.9,5.6-.2,1.3,0,2.7-1.4,3.6-4.8-.4-11.2,1.3-8.6,7.2ZM222.4,1459.3c-.2.2-.9,0-1.4,0-.5-1.1.9-7.7,2.8-6.9.3.7-1,6.5-1.4,6.9ZM216.8,1459.2h0c-10.3-1.8-26.4-.7-10.4-12.4,1.7,3.5-5.6,6.4,0,9.3l9.1-.2,5.5-7.8-4.2,11.1ZM214.8,1471.9l2.1,4.7-5.5,2.1,3.4-6.8ZM211.4,1489.8c6.7-7.7,12-16,15.2-26.3,1.9.5,2.7,9.1,2.5,10.1-.8,4.1-10.2,13-9.5,17,1.9,2.4,2.3,2.5,4.2,0,2.1-2.8,4.4-8.4,5.6-11.8,2.4-.4,1.5,3.3,1.1,4.5-1,3.3-4.2,5.6-2.6,9.2-8.1,4.1-9.3-3.1-16.5-2.7ZM223.8,1507.9c.5-1.6,8.5-13.4,9.7-7.6,1,4.6-5.8,8.1-9.7,7.6ZM234.9,1478.7h-1.4v-8.3h1.4v8.3ZM238,1489.4h0c0,.1,16.3-32.9,16.3-32.9-.3,4.8-2.5,10-4.6,14.2-1.4,2.9-7.5,10.7-7.7,11.8-.7,2.6,1.2,5,.9,7.7-.3,3.4-3.8,7.7-2.5,12.1-3.7,4.9-2.8-11.2-2.4-12.9ZM268.4,1548.3h0c-4.4-1.7-1.7-13-.7-16.7,1.6-6.6,6.1-11.6,6.3-18,4.3-.7,7.2,1.2,9.4,4.8l-14.9,29.9ZM443.4,1646.9c-2.7.2-1.1-4.2-.7-5.6,1.2-5.2,4.1-14.3,7.7-18,0,8.4-5.3,15.6-7,23.6Z"/>
  <path d="M2507.8,1459.5c-2.1-4.4-6.5-7.7-10.2-10-3.9-2.5-8.9-5.4-10.7-9.8-.8-2-1-3.8,0-5.7,1.5-3.1,5.5-5.8,8-8.7,3.8-3.8,4.2-10.1-.3-13.5-2.5-2-5.2-3-7.7-4.2-3.5-1.7-7.2-3.5-7.3-7.6.1-3.9,2.9-7.7,2.7-11.8-.3-6.6-6-11.4-11.5-14.1-6-2.9-13.4-3.6-19-7.2,4.4-4.7,8.7-9.4,12.9-14.2,2.1-2.2.3-6.2-2.8-5.9-4.8.3-9.8.6-14.3-.9-4.4-1.4-6.8-4.7-8.1-9.3l-2.1-7.5c-1.9-6.6-3.8-13.1-5.9-19.6,3.4-1.8-3.5-15.6-6.1-17.4-3.7-2.4-5.7,0-7.8-.6-5.3-1.9-5.3-7.9-18.7-9-24.1-1.8-27.5,7.3-29.9,29.2l-5.5-2.8c-1.6,5.9-2.3,13.8-1.1,19.8,1.5,7.6,16.7,22.6,12,30-.9,1.4-8.7,1.5-11,2.2-4.2,1.3-9.2,4.5-13.3,4.9-7,.6-31.2-7-34.3.4-1.7,4-.4,16.6.8,20.9,1.3,4.7,7.9,10,8.1,14.3.1,2.5-3.9,10.1-4.2,15.2-.2,4.2.6,13.3,1.4,17.3-1.1-2.7-14.8,2.6-17.5,2.6-3.7,5.2-6.4,18.6-13,20.4-4.2,1.1-28.9-10.6-26.2,2.3.8,4,5.3,5.4,5.3,9.3-9.7-2.2-9.1,3.7-13.9,7.6-5.5,4.4-18.1,5.3-18,14.6,2.9.8,3.8-.9,5.6-2,6.7-4.2,13.3-9.4,20-13.3,3.2-1.9,7-1.3,9.8-4.2,5.1-5.3-4.6-8.2-3.4-13.8,6.2,1.9,17.5,5.6,23.6,3.4,8.7-3.1,8.1-15.4,12.6-19.4,2.7-2.4,15.8-2.1,15.5-6.6.6,2.1,1.7,5.9,2.2,6.9,2.4,5.5,10,8.3,15.6,8.7-5.8,6.8-5.1,23.3,0,29.9,7.3,9.6,27.1,5.7,30.7,8.2,6.1,4.3-10.8,27.4,11,16.1,1,1,5,22.6,5.4,25.9,2.2,18.8,1.5,38.2,1.5,56.8s-.7,25.4,2.9,38.3c5.9,1.8,9-6.4,13.8-6.4,10-25.9,31.7-56.3,34.7-84.6.8-7.2-2.2-12.9,2.5-17.4.6.2,1.1.4,1.7.6,3,.8,6.3-.8,8.8-1.5,10.2-1.7,16.1,7.2,26.6,8.9,7.4,1.5,16.2-3.1,17-11.1.6-5.3-3.4-9.4-5.7-13.3-2-3.4.6-7.2,3.3-9.9,4-3.8,9.4-6.8,12.8-11.8,4-5.8,4.4-13.7,1.2-20l-.5.4ZM2374.3,1503.8c.7-1.1,3.5-6.9,4.2-5.5.5,3.2-.6,5.9-4.2,5.5ZM2375.7,1492.7c-1.6-6.1-2.1-8.5,3.5-12.5,4.4,0-.1,12-3.5,12.5ZM2385.4,1499.6c-.5-3.2.6-5.9,4.2-5.5-.7,1.1-3.5,6.9-4.2,5.5ZM2392.4,1613.6c-.4-2.1-1.4-3.8-1.3-6.1.9-25.8,1.9-49.2-.1-75.2-.8-10.7-7.8-14.3,7-20.2-1.7,3.5-3.8,6.4-4.2,10.4-1.8,17,1.6,37,1.5,54.3,0,9.6-1.1,21.8-1.4,31.9,0,1.7,1,5.2-1.4,4.8h-.1ZM2396.5,1502.4c-.5,3.6-3.9,7.9-6.9,9.7,0-4,3.6-7.9,6.9-9.7ZM2391,1501l3.5-8.3c4.1,1.5-2,7.8-3.5,8.3ZM2397.9,1597.6c-.3-7.7,1.3-13.8,1.5-20.8.3-16.9-3.8-39.8-1.2-55.4.2-1.4,3.4-7.3,5.3-7.9,3.1,6.8,1,14,2.9,21.5-6,21.9-4.9,44.9-7.1,67.4-2.4.3-1.3-3.1-1.4-4.8h0ZM2409,1501c0,1.2-2.5,6.7-2.8,6.9-.2.2-.9,0-1.4,0-.5-3.1,1.2-5.8,4.1-6.9h0ZM2407.9,1600.7c-1.2,1.8-1.6,3.8-4.4,3.2l5.6-59.8c6.4,6.6,0,19.8.5,28.3.2,3.3,2,5.3,5.1,3,4-2.8,10.2-38,12.8-45.6,4.2-11.9,6.2-6.5,6.5,2.4.7,19.4-15.1,52.1-26.1,68.4h0ZM2411.8,1519.1c6.8,3.9,6.7-6.6,12.5-6.9,5.2,7.5-.7,13.5-2.7,21.6-1.5,6.5-1.9,12.9-3.3,19-.3,1.3-.5,4.2-2.4,3.8.4-12.7-.2-25.4-4.2-37.5h0ZM2414.6,1513.5c3.4-7.4,9.1-15.7,15.3-20.9-3,7.8-9.3,15.1-15.3,20.9ZM2410.5,1509.3c-.3-2.5,1.4-4.4,2.6-6.5,2.1-4,10.5-21.1,14.1-13-8.4,2.5-8.4,15.5-16.7,19.5h0ZM2487.8,1485.2c-3.8,3.7-6.8,8.8-6.3,14.4.2,3.7,2.5,6.9,4.5,9.5,1.6,2.2,3.6,4.2,1.9,6.7-6.1,7.2-15.5.2-22.6-2.1-4.2-1.5-9.4-2.4-13.8-.7-2.6,1.2-4.6,2.4-6.8,2.5l-1.1-4.4-3.8-.2,11.1-17.4c-1.4-3.9-9.3,1.2-9.7.7l2.7-8.8c-9.9-10.1-5.8,3.3-7.5,3.3-17.6-14.6-17.1-3.3-28.4,6l-3.3.7c-5.6-2-4.3-8.5-7.1-11.1l-9.1,1.6c-2-5.6-4-13.9-11-14l2.6-16.6c-1.3-1.4-16.1,7.9-18.1,9.7-.8-6.7,4.7-11.1,7.7-16.6,1.5-2.9,2.1-6.2,3.6-8.9,4.5-7.6,14.8-10.6,13.1-21.1-1.2-7.4-15.6,1.3-19.9,1.9-14.9,2.1-5.6-14.8-7.3-16.4-10.3-3.6-8.2,17.2-3.7,20.4,7.8,5.6,15.6-2.6,23.2-1.7-3.4,7.4-24.5,35.3-23.4,41.4.3,1.8,2.7,3.8,2.4,5.7l-6.7,8.5c4.8,5.3,6-8.6,12.5-6.2.8.6-12.5,14.7-3.6,10.9,3-1.3,8.4-11.1,10.8-14.2,1-1.3,2.8-4.4,2.5-.2-4.5,10.2-7.1,17.5-19.5,15.4-16.3-2.8-18.9-23.4-7.5-32.7,4.9-4,11.9-3.8,10.4-11.1-9.3,1.5-12.4,10.6-23.3,5.9-7.1-3-9.2-19.2-8.7-26.1.4-6.3,5.6-14.1,5.3-17.8-.4-4-6.9-10.3-8.4-15-1.1-3.3-3.7-16.7-1-18.6,9.6-3.1,22.2,2.7,31.3,2.1,5.4-.3,18.4-8.2,25.9-7.7,6.8-17.6-15.8-26.7-11.3-45,3,1.1,1.8,5.6,6.9,4.2.3-7.2,0-17.1,1.7-24,3.6-15.4,41.3-15.8,40,3.2l9.7-4.1,3,12.2c1,.5,1.8.9,2.5,1,.5,4.2,1.1,8.4,1.8,12.6.8,5.3,1.6,10.3,2.6,15.6.6,2.7,1.4,5.7,3.4,8.3,3.7,5.2,10.1,7,16.3,7.5-3.4,3.7-6.7,7.4-9.9,11.2-1.3,1.4-1.2,3.5.2,4.8,4.6,4.2,11.1,5.6,16.9,6.5,5.1.8,10.5,2,14.4,5.5,3,2.4,4.5,6,3.5,9.7-.7,2.7-2,5.4-2,8.4,0,10.6,17.5,9.9,17.2,18.3-.3,2.9-2.9,4.5-5.5,6.6-3.4,2.5-8.1,6.4-8.3,11.5-.5,6.9,4.4,12.7,9.6,16.4,4.7,3.5,10.8,6.8,11.7,12.9,1.7,9.8-8,13.5-14,19.3l-.3-.3Z"/>
</svg>