<?xml version="1.0" encoding="UTF-8"?>
<svg id="Layer_1" xmlns="http://www.w3.org/2000/svg" version="1.1" viewBox="0 0 2500 1700">
  <!-- Generator: Adobe Illustrator 29.1.0, SVG Export Plug-In . SVG Version: 2.1.0 Build 142)  -->
  <defs>
    <style>
      .st0, .st1 {
        isolation: isolate;
      }

      .st0, .st2 {
        display: none;
      }

      .st1 {
        fill: red;
        font-family: K2D-Bold, K2D;
        font-size: 50px;
        font-weight: 700;
      }
    </style>
  </defs>
  <g>
    <path d="M1503.9,1315.2l.3.3c-.6-3,1.8-7.4,1.8-10.6s-2.5-8.2-2.2-12.2c.4-4.2,6.5-15,6.4-16.8-.3-5.8-9-7.2-10.2-9.2-1-1.6,6.4-14.4-2.4-21.9-10.1-8.5-21.2,20.1-6.6,20.4-1.5-5.5-3.9-14.3,4.2-15.3,4.5,7-2.1,15.3-.8,20.9,1.1,4.7,6.4,2.7,9.1,6.2-8,9.9-4.1,17.8-4,27.8,0,10.6-5.4,14.8,6.5,23.6l-4.5,9c-7.9-3.5-6.1-17.2-8.3-20.9-.6-1.1-4.4-3.5-5.6-1.4-1.9,3.3,1.8,15.3,2.2,20.1.2,2.2,1,9.5-1.4,10.5-6.6-20.3-3.6-41.9-7-62.5l5.4-1.6c0-2.7,2-17.6-3.3-16.5-4.5,2.9-2.8,5.3-2.1,9.7-6.4,2.6-9.3-1.7-15.3-2.8,2.7-9.8,1.8-15.2-5.6-22.2,4.2-.7,12.8-6.5,9.1-11.3-1.1-1.4-4.5-1.1-6.2-2.1-3.3-1.9-11.8-10.9-14.7-10.3-10.2,2,10.5,13,9,15.3l-28.5,16.7c-4.1.3-1.2-1.6.2-2.6,6-3.9,7.9-3.5,5.4-12.8-3.3-5-8.8,5.1-13.2,4.2-5.1-12.5,23.3-21.7,24.8-27.4,1.6-6-3.5-5.1-4-6.9-.4-1.4-1.3-14-1.4-16.4,0-4.7,3.8-12.1,0-16.8l-3.7-2c-4.7-.4-22.1,15.1-27.1,18.8-5.1,3.8-17.9,9.6-21.8,15.1-.8,1.1,0,3.4-.4,3.7,0,.2-2.3-1.3-4.1-.8-4,1.1-8.8,5.6-13.2,6.4-4.6.8.9-4.9-1.3-8.4-5.4-3.1-21.3-6.8-15.8-16.4,2-3.5,31.6-12.3,36.5-17,4.1.8,1.1,17.2,2.3,21.3.9,3,4.1,3.2,5.1,0,.5-1.4-.7-22.4-1.2-24.8-1.6-8.6-12.3,2.2-16.7,4.2-9.5,4.3-20.7,7.5-30.6,11.1-3.7,2.7.6,11.4,0,11.8-5.7.6-11.4-2.5-16.5-5-4.1-2.1-11.8-9.6-15.6-6.9-2.2,1.6,0,18.2.2,22.3,0,6-3,17.1,1.7,19.2,12.5,5.6,25.5,1.6,21.9,21.9l-9-4.2c-2.2,1.7-2.8,3-1.4,5.6,2.5,4.8,24,10.4,28.6,15.9,4.1,2.4,6.1-1.9,6.9-5.5-10.8-4-15.6-9.5-13.9-21.6,4.4,0,11.6,11,14.6,9.7,7.7-3.3-6.8-30.9,9-27.8l1.3,13c-5,1.7-11.5,9-3.7,10.2,9.5,1.5,9.5-2.5,13.5-10.1l-5.4-4.3-.3-12.2,8.4-6.5c2.2,7.8,1.1,35.9,6.9,39.7,2.1,1.4,2.1.3,3.5-.7,1.8-1.2,16-14.1,17.3-12.5,5.6,12-22.8,15.2-14.7,26.5,1.7,2.4,6.4-.2,6.3,2.7l-24.6,15-11.6-3.2-61.2-27.1c1.6-8.5,17.3-6.6,15.3-16.6-3.9.7-24.2,11.3-24.8,13.5-1,3.5,2.2,5.8,2.7,9.4,1.3,9.4-2.5,42.2,1.2,47.4.5.7,1.6,1.3,2.2,2,1.3-1,1.8-1.8,2.1-3.4,1.9-11.1-2.6-24.5-1.5-34.8.2-2.1,0-3.5,2.1-4.8,21.8,12.4,47.2,15.9,67.5,31.1,3.4,4.8,1.5,28.1,2.7,34.9.9,5.3,6.9,3.4,7.1,0,.3-5.5-2.6-16.1-2.9-22.3,0-2.2-.5-10.9.2-11.6,4.9-1,7.9-5.8,12.4-9.1,8.6-6.2,18.7-11.1,27.6-16.9,9-5.9,17.2-13.1,26.5-18.7-3.4,6.5.8,11.1,1.2,14.8.2,1.8-2.3,3.4-2.6,5.4-.6,3.9,4.1,9.9-1.4,12.4-4.2,2-12.5-1.3-13.9,7-2.3,13.4,16.5,14.9,19.8,23.2,3.6,11.6,1.5,26.2,4.1,37.6.4,1.7,9.4,14.5,10.3,14.8,8.2,2.6,4.7-11.4,4.7-14.4-.2-11-1.8-26.4-1.4-36.2,0-2.2,1.8-8.2,4.3-9l11.2,57c11.3-.2,3-20.4,6.9-29.2,2.9,0,2.2,6.4,2.8,6.9,6.9,5.7,12.8-18.1,15.2-21.5,0-3.4-8-5.3-9-10.2ZM1386.8,1293c1.4-2.9,5-5.6,8.3-5.5-1.5,2.5-5.3,5.4-8.3,5.5ZM1399.3,1284.7c6-6.6,15.3-12,23.6-15.3-7.5,5.4-14.8,12.1-23.6,15.3ZM1417.3,1265.2c1.5-2.5,5.3-5.4,8.3-5.5-1.4,2.9-5,5.6-8.3,5.5ZM1431.2,1263.8c1-2.3,3.1-4.6,5.6-4.1-1,2.3-3.1,4.6-5.6,4.1ZM1461.8,1259.7l-2.1,11.1c-4.4-3.5-5-12.5,2.1-11.1ZM1470.1,1362.5c-3.2-1.9-.5-9.3-1.4-12.5,3.2,1.8.6,9.3,1.4,12.5ZM1472.6,1306h0c-.8,3.9-4.8,7.9-5.2,12.9-.5,5.1,2.4,10.4,1.3,15.8h-5.5c-.5-4.6.7-10.2,0-14.7-1-7.4-16.7-14.6-22.3-19.4-1.2-4.9,10.7-2.1,14-6.8,2.6-3.7,3.7-15.9,1.3-20.2,3.4-.9,3.2,2.7,4.6,3.7,1.9,1.3,8.3,3.9,9,5,1.4,2.4,3.5,20.4,2.8,23.7ZM1475.7,1281.9c3.4,2.1,2.6,9.1,2.8,12.5-3.4-2.1-2.6-9.1-2.8-12.5Z"/>
    <path d="M1297.6,1285.6s0,0,0,0h0c0,0,0,0,0,0Z"/>
    <path d="M1284,1271.3c12.7-19.7-12.9-32.5-14-7.5l-11-4.2c-.4-7.3,2.5-19.8-7.5-20.7-7.9,5.2-5.1,20.8-9.1,25.7-2.1,2.6-10.8,3.6-11.3,5.7-3.4,13.8,12,16,12.6,22,.2,2.2-1.3,4.6-1.4,6.9-.3,13.2,0,33.8,2,46.6.7,4.6,2,11.6,7.1,6.9,1.4-3.8.3-7.8.8-11.7.2-1.7.6-7.6,2.6-7.8l2.7,24.2,4.2.8c4.1-13.8,5.1-26.7,5.6-41,0-1.7-1-5.2,1.4-4.8,1.9,6.4,3.3,26.8,11.1,25,1.3,5.7-2.7,28.3,1.3,31.4l4.2.6c.2-5.8,4.7-12.4,5.5-17.5,1.5-9.7,3.6-27.5,4.3-37.4.5-6.3-1.8-18-1.2-22,.4-2.6,3.8-4.6,3.7-6.9-.4-4.5-10.3-11.2-13.6-14.3ZM1276.8,1257.7l4.2-.8c2.6,1.7,0,13.4-5.5,12.5l1.3-11.7ZM1251.9,1247.2h1.4v9.7h-1.4v-9.7ZM1249.1,1322.2c-3.2-1.9-.5-9.3-1.4-12.5,3.2,1.8.6,9.3,1.4,12.5ZM1264.4,1293.7h0c-2.1,15.7.2,32.1-2.8,48-2.8-.5-2.3-2.9-2.8-4.9-1.7-6.9-2-24.5-4.4-28.9-1.7-3.2-5.2-1.6-5.4-3.1l2.8-17.7-13.8-11.4c-1.3-3,6.4-2.3,9-4.9,2.2-2.1,2.6-7.6,5.6-9.7,1.9,5.4,6.9,4.2,11.1,6.9,9.3,6.1,1.9,16.7.7,25.7ZM1289.6,1316.2v-.2c-.1,0-5.7,27.1-5.7,27.1v-25c-3.6-1.2-4.1-.9-6.9,1.4l-2.6-13.1-5.7-.8c-1-10,2.2-19.4,5.5-28.6,5.3-.6,13.9,4.9,15.1,10.2,1.1,4.9-3.9,2.7-4,6.6,4.9,7.4,4.7,13.7,4.3,22.4Z"/>
    <path d="M1425.5,1317.3h0c-2.6-3.4,4.6-11.8-5.5-15.2-11.2-3.8-9.6,8.6-11.6,14.6-1.2,3.5-5.9,6.5-7.1,11-2.2,8.3,4,11.8,10.6,14.8,2.3,16.7-9.6,33.7-.8,49.2,3.8.8,6.5-8.3,6.3-11.1,3.7,1.8,1.7,9.8,3.4,12.5,2.4,3.1,5,0,5.9-2.5,7-18.8,1.4-34.8,4.6-51,.7-3.8,4.4-4.6,5.2-7.3.5-1.6.8-7.7,0-8.6-.4-.5-8.8-3.5-11-6.4ZM1429.8,1329.8c-8.3,6.8-2.6,19.9-2.6,29.3s-1.8,8.7-1.5,13.2l-4.8-5.3-6.3,3.9,4.2-34c0-5.3-10.5-4.2-11.2-7,1.9-4.4,5.5-5.9,7.1-11.1,1.6-5.3-2.7-11.2,5.4-10.4l-1.8,10.7,11.5,8.8v1.9Z"/>
  </g>
  <g id="text" class="st2">
    <g class="st0">
      <text class="st1" transform="translate(2042.3 1122.7)"><tspan x="0" y="0">DOHLÁŠKY</tspan></text>
    </g>
    <g class="st0">
      <text class="st1" transform="translate(1487.4 1092.7)"><tspan x="0" y="0">PŘIHLÁŠKY</tspan></text>
    </g>
    <g class="st0">
      <text class="st1" transform="translate(1305.2 583.2)"><tspan x="0" y="0">KORIDOR III.</tspan></text>
    </g>
    <g class="st0">
      <text class="st1" transform="translate(1609.3 342.9)"><tspan x="0" y="0">START</tspan></text>
    </g>
    <g class="st0">
      <text class="st1" transform="translate(1389.7 638.1)"><tspan x="0" y="0">KORIDOR II.</tspan></text>
    </g>
    <g class="st0">
      <text class="st1" transform="translate(1466.8 699.3)"><tspan x="0" y="0">KORIDOR I.</tspan></text>
    </g>
    <g class="st0">
      <text class="st1" transform="translate(87.1 718.2)"><tspan x="0" y="0">SBĚRKA</tspan></text>
    </g>
    <g class="st0">
      <text class="st1" transform="translate(407.4 981.4)"><tspan x="0" y="0">CÍL</tspan></text>
    </g>
    <g class="st0">
      <text class="st1" transform="translate(498.6 175.3)"><tspan x="0" y="0">RADIO 2</tspan></text>
    </g>
    <g class="st0">
      <text class="st1" transform="translate(932.2 399.7)"><tspan x="0" y="0">RADIO 1</tspan></text>
    </g>
    <g class="st0">
      <text class="st1" transform="translate(669.9 1410.9)"><tspan x="0" y="0">VYČÍTÁNÍ ČIPŮ</tspan></text>
    </g>
    <g class="st0">
      <text class="st1" transform="translate(829.9 1079.4)"><tspan x="0" y="0">CENTRUM IT</tspan></text>
    </g>
    <g class="st0">
      <text class="st1" transform="translate(1128.8 1578.9)"><tspan x="0" y="0">VÝSLEDKY</tspan></text>
      <text class="st1" transform="translate(1012.7 1638.9)"><tspan x="0" y="0">MY RESULTS BOARD</tspan></text>
    </g>
  </g>
</svg>