<?xml version="1.0" encoding="UTF-8"?>
<svg id="Layer_1" xmlns="http://www.w3.org/2000/svg" version="1.1" viewBox="0 0 2500 1700">
  <!-- Generator: Adobe Illustrator 29.1.0, SVG Export Plug-In . SVG Version: 2.1.0 Build 142)  -->
  <defs>
    <style>
      .st0, .st1 {
        isolation: isolate;
      }

      .st0, .st2 {
        display: none;
      }

      .st1 {
        fill: red;
        font-family: K2D-Bold, K2D;
        font-size: 50px;
        font-weight: 700;
      }
    </style>
  </defs>
  <g id="design">
    <rect x="1886.8" y="1238.6" width="51.4" height="1.4" transform="translate(623.5 3118.7) rotate(-88.5)"/>
    <path d="M1830,1343.3c-.2-3.6,2-23.5,2.7-27.6.7-3.9,5.4-5.3,5.6-11.2.4-10-15.1-17.5-20.8-6.7-3.7,7.1.8,7,1.1,10.9.2,2.4-2.1,6.1-1.3,9.1-4.4.9-2.2-4.9-4.1-9.2-5.3-11.7-19.4-3.7-15.8,4.6,1.1,2.4,4.7,4.6,5.2,7.1.9,4-1.2,27.5-2.4,32.5-3,13.1-16.7,28.4-3.9,40.7l4.3-1.4,6.9-27.2v27.1c0,3.9,5.3,8.3,9.7,6.2,1.7-4.2.4-32,3.5-32,4.8,5.1,10.9,33.8,19.3,31.9,1.8-.4,3.5-4.4,3.6-6.2,0-2-4.9-22.3-5.9-25.9-2-7.1-7.4-16.4-7.9-22.9l.2.2ZM1797.9,1384.5l-1.3-7.5,4-10.5-2.8,18.1h.1ZM1824.5,1357.3l-5.4-.3-4.4,10.8-4.2-13.9-6.9,4.2c2.9-10.6,6.8-23,5.6-34.2-.7-7.1-5.7-7.7-5.6-14.5,2.3-.4,3.7,1.1,4.8,2.9.4.7,4.4,13.9,4.5,14.7.4,2.6-1.3,8.1-1,12.3.4,6.3,2.2,21.5,9.5,12.5-2.9-6.5-5-12.1-3.8-19.4.5-3,4.9-12,6.4-17.2,1.1-3.9,5-5.5,1.9-10.4-1.2-1.8-5.1-1.6-4.2-5.1l11.1,3.5c-7.5,8.4-4.5,14.3-5.6,23.6-.7,5.6-3.1,12.6-2.8,18,.3,5.9,7,17.1,9.1,24.4,1.7,5.9,2.5,12,3.5,18.1l-12.4-30h0Z"/>
    <path d="M1735.1,1347.9c-1.7,1.9-.3,5.1-2.7,4.9-1-8.3,8.5-25.6-5.2-27.6-12.7-1.9-12.4,16.6-11.5,24.8-2.5,0,0-4.3-4.7-2.6-3.9,1.5-5.2,11.7-4.8,15.4.5,4.5,5,8.7,5.3,11.5,0,1.5-1.7,11.4-2.4,12.9-3.1,6.7-22.5,5.2-23.9,10.9-1.2,5.2,4.7,4.3,6.7,5.4,3.1,1.7,2.2,6.6,7.6,6.3,1.6,0,18.8-8.3,19.6-9.8,1.4-2.6-.9-6.6,3.5-5.5,3.4,6.8-2.5,29.1,7.7,29.3,3.4,0,3.4-5.3,3.5-7.7.5-9.3-.6-20.3-.3-30.6,0-4.1-2.4-8.6-.8-13.6,1.4-4.6,15.1-8.3,15.1-21.2s-9.7-5.9-12.6-2.8h0ZM1725.6,1369l2.6,21.3c-4.9-.9-.6-13.7-6.2-12.5-3.5.7-6.3,15.7-9.8,19.4-2.1,2.2-15.7,9-14.5,1.5,13.1,2.2,21.9-15,20.8-25.7-.3-3.6-7.4-10.4-5.5-16l6.9,2.8c3.9-7.4.9-13.3,1.3-20.2.4-6.7,4.1-10.7,8.3-3.9-7.8,11-2.9,38.4,11.2,17.2,2,7.1-14.4,13.8-15.1,16.2h0Z"/>
    <path d="M2150.5,1203.8c7.7-7.7,3.8-24.9-8.5-21-11,3.5-5.2,19.7-6.9,28.6h-7c.6-5.9-.2-11.3-4.1-16l-10.8,1.1c-1,1.2-2.8,15.2-2.7,17.3.2,2.9,2.4,4.6,2.3,7.9-.1,4.3-4.8,11.1-5.1,15.6-.4,5.4,2.4,15.9,9.3,8.9-1.1,12.9-5,26.8-5.5,39.6-.3,7.9-.7,13.5,7.6,7.6,8.4-6,8.9-16.8,9.1-26.4l3,5.4,5.4.2c-.3,6.4-1.1,11.4,4.9,15.3l3.8-4.5c1.1-13.7,3-27.3,4.7-40.9.6-5.2-1.2-11.3,3.7-16.7,1.6-1.8,5.6-2.4,7.1-4.7,7.1-10.6-10.1-15.6-10.2-17.3h-.1ZM2143.5,1238.5c-.2,2.1,1.4,4.4,1.3,6.8-.3,5-2.3,10.6-1.3,16.1l-3-12.3h-5.2l-1.5,8.2c-15-4.8-7.2,22.6-16.7,29.2,0-8.8,2.2-17.5,4.1-26.1s2-9,2.7-13.6,1.4-8.9-.7-13.1c-.8.6-1.7,1.1-2.7,1.4s-2.1,0-2.8-.7c-.7-.8-.8-2-.4-3.1s1-1.9,1.5-2.9c2-4,1-7.7-.9-11.4s-1.1-4.9-1.2-7.3c0-3.4.5-11.5,5.8-7.9-.6,7.2.9,12.6,3,19.2l6.9-1.3c-3.5,7-9,21.5,2.9,21.6,1.6-.9,3.6-8.1,3.8-10.2.5-4.3-1-6.7-.9-9.4.1-2.6,4-7.5,4.1-12.5,0-4.8-.8-5.8-.5-11.2.3-5.5-3.5-8.9,6-10.2,3.9,8-2.2,12.9-4.1,20,4.4,3.6,10.7,4.1,12.5,10.5-8.9,3-11.8,11.5-12.5,20.2h-.2Z"/>
    <path d="M2098.9,1259.5c-.1-4.2-3.5-8.8-3.7-11.5-.2-2.2,2.1-4.3,2.5-6.8,1-7.2-5.2-16.4-11.8-10.3-5.4,4.9-.6,12.9-3.5,19.4-7.2.8-11.2-6.7-19.2-3.9l-1.3,3.5c.2,6.3,15.5,11.8,16.2,13.8-.1,9.8-7.1,49.3,9.9,29.7l1.4,5.5,5.4-2.2c-3-11.6,4.5-26.2,4.1-37.2h0ZM2090,1235.1c3.1,0,1.7,7.7.7,9.7-2.3-.3-3.4-9.6-.7-9.7ZM2082.3,1292c-2.7-.4-1.4-7-1.2-8.8.3-3.3.8-10.5,4-12l-2.8,20.8ZM2092,1279.5c-3.2-1.9-.4-8.5-1.5-11.7-1-2.9-6.7,0-6.4-8.8.1-3.8,4.2-6.1,3.8-10.1,2.7,1.4,5.2,7.8,5.5,10.6.6,5.8-2.8,13.5-1.4,20h0Z"/>
    <path d="M2023.5,1100.2c-.8-.8,6.3-20-9.4-13.4-9.8,4.1-4.8,24-9.2,32.4h5.5c-1.1-4.8,4.5-10.9,4.6-14.3,0-4-6.6-11.4,4.6-11.7-6.6,8.6-1.3,12.9,8,14.1,4.3-7.5-3.6-6.7-4-7.1h0Z"/>
    <path d="M2057.2,1112.3c-3.4-7.8-9.2,4.5-11.9,2.4l-1-16.7c-5-.8-7,4-10.8,6.4-2.1,1.3-4.9,2-6.1,2.8-1.9,1.2-7.9,4.9-8.2,6.2,3.9,6.5-5.1,18.7,3.3,20.1,1.7-6.4,9.8-8.2,13.6-13.5,1.9,1.2-.7,4.3-1.7,5.4-4.5,4.8-15.6,13.3-21.2,17.6-13.1,10-28.2,17.5-39.7,29.6l-2-57.8c1-6.3,16.4-16.7,22.2-20.9,18.5-13.6,38.3-25.3,57.2-38.2,5.1-3.5,52.7-39.5,55.3-36.6l-2.6,99.4-2.2,2.9h-15.4c-3.3,8.6,7.7,4.3,12.4,4.5,4.8.3,14.3,6.5,16.1-1.6,3.2-14.5-1.1-37.4,1.5-52.9-2.5-20.8,1.4-42.8,1.5-63.7,0-11.2-17-19.7-24.2-27.2-4.7-4.8-9.4-12.9-14.1-17.8-9.1-9.4-21.5-16.8-29.8-27.3l-6.7-1.3c-13,8.6-27,15.4-40.4,23.1-3.6,2.1-10.3,8.3-12.9,9.2-2.9,1.1-5.9,0-8.3,1.2-1.9.9-3,4.6-5,6.1-31.9,25.3-67.4,46.5-99.5,71.1-48.8,2-96.8-.5-145.7-1.2-9.1,0-18.6-.9-27.8-.8-3.2,0-6,.4-9,1.3-.8,1,1.1,4.5,1,6.3-.2,2.9-25.4,44.4-29.2,50.3-7.6,11.8-16.6,22.7-24.4,34.4-.6,2.8,3.8,2.8,4.2,4.5,1.9,8.7-2.3,26.2-1,35.9l3.9,89.7,2.6,2.3,7.9-1.4c3.5-4.4-.7-45,1.4-55.4,1.4-7.1,12.3-15.6,16.9-22.1,8.5-11.8,13.3-26,15.2-40.4l168.8,3.1c4.6.7,9.3,14.4,12.8,19.1,1.7,2.3,16.9,16.9,16.2,17.8l-32.1,3.3c3-9.1.7-18.9-10.7-17-1.4-1.4,6-11.3-4.1-15.7-16.6-7.3-9.5,17.7-11.4,19.4-9.8-.7-12.1,5.2-8.6,13.7-7.9-2.3-24.9,3-31-.7-6.8-4.2-.8-17.6-3.3-19.6l-9.7,1.1c-.7-.7,8.4-14-3.4-16.6-12.5-2.7-14.1,16.3-7,14.9,3.1-.6.4-9.7,4.4-9.6,5.1.2.9,8.7,1.7,11-8.1,2.4-15.5.9-23.5-.5l-.6,21.5c0,4.1,10.6.4,11.1,1l1.1,9.8-37.5.4-.5-9.7,11.9-4.7-.9-20.5-2-2.1-10.2-.5c2.8-16.6-19.2-18.1-18.1-.5,3.9.9,4.7-4,6.4-5.4,5.4-4.3,7.9.3,7.5,5.7-5.4.4-10.8,1.7-16.2,2.2-2,.2-4.4-1.8-6.1-.8-5.8,3.2,2.3,20.6-2.1,27.2l-12.5-.9-16.5,15.4c1.6,15.2-1.2,31.6,1,46.7.8,5.7,6.8,5.4,7.1-2.6.5-9.6-6.7-24.5,0-34.1l27.1.7c0,1.9-.9,3.8-.8,5.7.4,4.3,8.2,20.9,12.6,18.2l1.8-13.8c.8,2.3,4.7,16.4,8,14.1,3.6-8.2-.8-16.5.7-25l30.6-.6c1,1-8.8,24.9,1.4,25.1,6,0,6-17.9,13.1-20.6,2.6-1,2,1.6,2.4,3.1,1,3.8.9,13.6,7,9.7l2.5-18,32.4,1.1c2.9,3.9,14.9,21.6,19,21.2,5-5.6.2-11.5-1.4-17.3,18.1-13.5.4,17.7,14,14.8,7.7-1.6,7.4-16,11.3-21.7l29.6-2c3.1.8,3.2,7.6,3.3,10.2.2,4.6-2.1,19.4-1.7,20.7,1.1,3.8,8.4,3.2,8.1-.7,0-1.3-1.9-2.8-2-4.6-.5-6.5,1.4-13.5,1.5-19.2,0-4.1-3.4-11.9-3.2-13.5.4-3.1,4.5-5.8,3.8-9.5-4.7-1.6-6.5,2.5-9.4,3.6-9.2,3.5-24.1.4-34.5.8-24.8,1-49.5,4.7-74.4,2.1v-10.4c1.2-.7,2.4-.5,3.6-.6,9.7-1.1,6.1,1.1,8.3,4.4,2.1,3.1,15.2-.6,19.5-.8,23.8-1,42.6-.2,66.8-2.4,5.5-.5,15.2,3.2,16.1-3.8h2.7l14.6,27.7-4.1,53.8c.8,3.1,9.1,1.6,11.4.8,4.1-1.4,35.4-32.5,42.4-38.2,3.9-3.2,13.1-6.2,13.8-10.9.3-2.1-.9-5.3-.8-8.1.4-9.5,0-19.1,1.6-28.5,2.8-3,5.6-6.7,8.5-9.5,6.2-6,19.4-17.3,26.3-22.3,2.1-1.5,4.2-3.6,7.1-3.3l-.6,24.3c0,1-3.2,6.4,1.9,7.7,5.8,1.4,2.5-9.8,2.7-11.7.5-8.8,1.9-18.1,2.6-27l24.1-18.8c2.9-.3,1.8.2,2,2.1,1,8.7-3,18.2-3.4,26.9,15.4,4.9,10.5-1.5,11.2-10,.6-7.8,4.4-27.7,1.7-34l-.2.3ZM1821.4,1220.7l4.2-2,2.5,11.2-6.7-9.2ZM1844.8,1231.7c0-3.5.7-7.1,1.6-10.5.6-2.3-1.3-4.1,2.9-3.3,0,4.1-.8,11.1-4.5,13.8ZM1783.4,1210.6c8.9-.9,20,1.1,29.3.8,22.9-.6,45.8-4,68.8-2.4l-19.2,3.3c-9.7-2.1-20.5.6-30.3.9-16.9.5-33.9-1-50.7,0-2.2-1.8,0-2.5,2.1-2.7h0ZM1730.7,1174.6l-.3,12.2c-3.2,1.2-11.1-.6-12.3,3.5-.6,1.8,1.3,7.6,1.7,10.2.2,1.5,1.7,4.6-.9,4.2.6-2.9-3.4-3.3-3.9-5.2-2.1-7.2,9.6-13.5-12.4-10.6l-1-11.7c8.3-5.5,19.5-5.2,29-2.7h.1ZM1694.1,1202c4.5-.8,7-10.6,15.3-7.2l-.3,11.1-29.3,2c1.9-8.7,10.2-5.2,14.2-5.9h.1ZM1711.2,1235.1h-2.8c-1.8-6.1-2.6-9.4.6-15.1l9.4.2,1.3,8.2c-8-8.6-12.2-2.9-8.5,6.7h0ZM1758.7,1226.7l1.6-7.4,4.2-.8-5.8,8.2h0ZM1778.6,1210.5c-5.3,5.2-17,1.7-24.4,2.1-7,.3-15.3,2-22.3,2.2-15,.4-30.2-1.2-45.2.2.6-2.7,2.9-2.4,4.9-2.6,28.4-3.8,58.3-1,87-1.8h0ZM1767.9,1194.9h2.8l-.2,8.4h-1.4l-1.2-8.4h0ZM1783.2,1188.2l-25,.3-1-7.7,26.4-2.1-.4,9.6h0ZM1836.8,1191.5c-5.7-.4-8.7,4.7-8.9-6,15-1.2,7.9-12,10.3-22,11.5,2.4-.7,10.6,3.6,16.2l11,2.4c3.5,15.4-6.9,10-16.1,9.4h0ZM1995.3,1086.6l-58.7-63.2,26.2-18.9c2.1,0,17.5,15.7,20.5,18.7,14.2,13.8,27.3,28.8,41.1,43l-29,20.4h0ZM2029.3,1063.9l-54.9-53.2-6.6-10.6c7.8-.5,20.8-15.5,27.5-14.6,3.1.4,25.8,23.7,30,27.8,10.4,10.3,20.2,22.5,31.7,30.9l-27.7,19.8h0ZM2060.5,1042.7l-61.6-60.7,23.2-16.7,60.4,62.7-21.9,14.7h-.1ZM2111.5,1033.7c.3,21.7-1.9,43.7-1.8,65.4,0,3.6,1.1,7.1,1.2,11,0,1.5.8,6.6-1.6,6.3,1.6-3.3-1.2-8.6-1.1-10.5l2.1-77.1c2.5-.2,1.2,3.2,1.3,4.9h0ZM2065.5,958.1c3.2,2.9,8.2,7.4,11.1,10.5,3.1,3.3,6.1,9.1,9.2,12.3,6.2,6.5,14.1,11.8,19.7,17.9,1.4,1.5,3.2,2.5,2.6,5l-21.8-17.9-31-34.9c1.1-.9,8.8,6,10.2,7.2h0ZM2047.2,942.3c.5-.5,7.3,6.7,6.7,7.1-1.6,1.3-7.7-4.6-6.7-7.1ZM2041.4,946.9l2-.5c14.5,11.1,25.2,26.5,37.9,39.4,3.6,3.7,25.2,20.8,25.1,24.1-1.3,3.7-5.4,2.1-7.2,3.2-1.8,1.1-10.3,10.7-11.7,10.7l-58.2-57c-6.7-9.1,9.2-11.8,12.2-19.9h-.1ZM1949.5,1000.1c16.2-13.1,33.2-25.6,50.7-36.5,3.8-2.4,35.5-21.8,37.1-20.1.5,2.7-1.5,3.2-3,4.6-31.7,29.4-75,53.8-111.4,78.3-5,3.4-17,8.2-20.8,12.1-1.7,1.7-.9,3.6-1,5.7l-15.3-.4,63.6-43.6h.1ZM1902.3,1050.3c3.7-3.6,22.1-.3,27.9,0l-25.7,80.7c-2.3,3.5-5.3.6-7.7.7-10.9.6-21.8.6-32.7,1.6,12.4-27.8,22.1-57.3,38.3-83.2h-.1ZM1855.1,1050.6l41.7-1-38.5,83.7-45.8-1.8c-2.1-1.7-.7-1.6,0-3,4.3-11,11.5-22,16.7-32.5,7.8-15.9,12.8-33.2,26-45.4h0ZM1816.1,1050.8c9.1,0,18.2-1,27.2-1.3,4-.2,1.7,4.4.8,6.6-6.4,16.5-25,54.7-34.8,69-1.7,2.5-3.2,4.9-5.8,6.8l-34-.9c6.3-12.2,12.1-24.6,18.8-36.6,7-12.4,15.8-27.4,24.9-38,1.4-1.6,1.4-4,2.9-5.6ZM1810.6,1050.1l-45.6,80.5-37.2.7,30.5-57.1,14-22.4c3.3-3.3,31.8-.4,38.3-1.7h0ZM1733.1,1060.4c2.5-3.5,2.5-8,5.9-10.9l28.5.8-47.3,82.3c-7,.5-14.4-1.2-21.1-1.5-1.9,0-14.7,2.7-12.9-1.5,1.3-3.1,7.7-9.1,9.8-12.5,9.7-15.7,18.2-35.6,29.3-50.1,1.6-2.1,5.5-3.2,7.8-6.4v-.2ZM1696.4,1059.5c-.5,3.3-2.7,8-5.8,9.6.5-3.3,2.7-8,5.8-9.6ZM1681.8,1085.5c-.5,3.3-2.7,8-5.8,9.6.5-3.3,2.7-8,5.8-9.6ZM1681.2,1095.7c6.2-9.9,20.3-40,27.3-45.6,3.6-2.8,17.4,1.9,22.9-.8l-38.1,64.8c-8.8,12-17.9,24.2-33.4,13.8,5.1-12.2,14.6-21.5,21.3-32.2h0ZM1665.3,1181.1c-.4-10.3,2.3-20.3,3.6-30.5h4.2c.8,1-3.2,20.8-4.1,23.7-.7,2.4-.8,6.1-3.7,6.8ZM1667.8,1190.9c5.8-13,8.3-26.5,10.8-40.5l7.6-2.1,1.9,3.1c-3.2,14.4-9,29.5-20.2,39.4h-.1ZM1872.1,1153.6l2.6-1.8,2.5,11.2-5.1-9.4h0ZM1880.2,1152c17.3-6.6,9.1,14.9,13.2,25.4-4.6-1.7-15.5-23-13.2-25.4ZM1902.2,1184.7c-.4-.9-2.5-1.3-3.2-2.6-1.6-3.2-3.2-29.9-2-31l9.5.5,3,49.9c-4.9-3.6-5.2-11.5-7.3-16.8ZM1909.4,1144.2c-8.2,0-17.5,2.4-25.5,2.4-53.4.2-108.4-4.6-162.5-4.5-6.7,0-20.8,1.6-25.2,1-2.9-.4-5.1-3-6.6-2.8-5,.7-13.1,2.8-18.5,3.3-3.7.4-8.6-1-11.8.5-6,2.7-2.1,21.2-2.2,26.5,0,2.8-1.4,5.3-1.5,8.1-.6,19.9-1.4,40-1.5,59.8,0,3,1.2,6.1,1.2,9.7s.8,9.5-1.7,10.4l-3.4-84.2,2.5-39.6c8.3,4.3,16.2.6,24.3.7,70.7,0,143-1.3,214,1.5,4.1.2,9.5,2.6,13.8,3,6.8-1.4,20.6-62.4,24.3-71.4,2.3,0-1.1,13.8-1.5,15.6-1.8,7.3-15.4,58.6-18.1,60.2v-.2ZM1913.4,1265.5h-1.4l1.4-51.5h1.4l-1.4,51.5ZM1912.8,1183.5c2.2-9.1-1.9-21.7-.6-29.9.3-1.9,1.1-4.3,2.8-2-.4,7.3-.5,14.4.9,21.6l-3.2,10.3h0ZM1913.8,1144.6l24.4-86.4,2.9-1.8c3.8,11.6,25.1,45.9,22.2,56.6,0,.4-5.8,5.4-6.7,6.2-7.6,6.2-26.3,18-35.2,22.9-2.3,1.3-4.9,2.8-7.7,2.6h0ZM1966,1222.9l-47,41.4c1.2-27.5-.9-55.2.2-82.7.5-12.1-1.7-31.8,8.7-38.6l38-23.4c2.3,34.4,1.2,68.8,0,103.3h.1ZM1967.7,1105.7l-24.9-61.7-35.3.3-.6-2.8c6.3-1.9,20.9-16.3,26.7-13.9l58.2,63.4-24,14.7h0ZM1972.7,1180.9c-.7-3.7.4-3,1.8-4.5,2.6-2.6,8-7.3,11-9.7,4.4-3.5,10.3-7.9,15.6-10-8.2,9.3-18.5,16.8-28.4,24.3h0ZM2024.2,1123.9c-1.7-10.4,7.9-12.2,14.3-17.7,1.5,9.3-8.5,13-14.3,17.7Z"/>
    <path d="M2066.1,1142.7c7.1-1.4,1.7-9.4,10.7-8.3,2.7-1.7,2.8-22,3.5-26.4,1.3-8.5,6.2-21.7,6.1-29.1,0-4.3-4.4-7.5-4.9-10.1-.5-2.8,7.3-15.5-3.2-15.8-10.6-.3-8.4,10.8-12,17.4-4.8,8.7-19.8,16.9-12.3,30.1,3.6,2.8,8.2-2.5,8.5-2l-1,38.2c0,.7,3.5,5.8,4.7,6h-.1ZM2065.4,1089.7c-1.4.5-8.5,4.2-7.9.6s5.2-4.9,7.5-6.4c.6-.4,1.2-.8,1.7-1.4.7-.9.5-2,1.2-2.9s1.4-1.3,2.2-1.9,1.7-1,2.4-1.7.9-1.8,1.5-2.4h-.1c.6-1.9-2.2-14.8,3.1-15.2,4.2-.3-2.8,9-2.2,11.4.6,2.5,4.9,4.5,5.9,6.7,2.2,5.2-.4,11.8-1.9,16.8s-.9,3.1-1.4,4.7c-1,3.8-1.8,7.4-1.5,11.4.2,2.1.5,4.3.5,6.4s-.4,4.4-1.6,6.1c-1.6-2.8-3.2-5.7-4.7-8.5-.7,1.2-1.1,2.5-1.3,3.9,0-.4-1.3-2.1-1.5-2.5-.5-1-.8-2.1-1.1-3.2-.4-2.3-.4-4.7-.2-7.1.2-2.4.5-4.9,1.1-7.3s0-4.6-.4-7c0-.2,0-.5-.2-.6-.2-.2-.6-.1-.9,0Z"/>
    <path d="M1977.1,1122.2l-.6,27.3,3.2,2.5,6.3-2.7-.2,6.9,4.3-.5,1.7-13.2c2.7,0,.6,6.4,4.7,5.7,2.7-.5,1.8-6,2.7-7.9.2-.4,1.9-.6,2.4-1.3,4.1-7.5.6-7.4.4-14.9-.2-7.1,1.3-13.3,2-20.2-2.7-2.9-22.4,16.9-26.8,18.3h0ZM1995.4,1134.2l-13.5,10.8c-4.2-15.1,4.6-23.7,16.1-31.6l-2.7,20.8h0Z"/>
  </g>
  <g id="text" class="st2">
    <g class="st0">
      <text class="st1" transform="translate(2042.3 1122.7)"><tspan x="0" y="0">DOHLÁŠKY</tspan></text>
    </g>
    <g class="st0">
      <text class="st1" transform="translate(1487.4 1092.7)"><tspan x="0" y="0">PŘIHLÁŠKY</tspan></text>
    </g>
    <g class="st0">
      <text class="st1" transform="translate(1305.2 583.2)"><tspan x="0" y="0">KORIDOR III.</tspan></text>
    </g>
    <g class="st0">
      <text class="st1" transform="translate(1609.3 342.9)"><tspan x="0" y="0">START</tspan></text>
    </g>
    <g class="st0">
      <text class="st1" transform="translate(1389.7 638.1)"><tspan x="0" y="0">KORIDOR II.</tspan></text>
    </g>
    <g class="st0">
      <text class="st1" transform="translate(1466.8 699.3)"><tspan x="0" y="0">KORIDOR I.</tspan></text>
    </g>
    <g class="st0">
      <text class="st1" transform="translate(87.1 718.2)"><tspan x="0" y="0">SBĚRKA</tspan></text>
    </g>
    <g class="st0">
      <text class="st1" transform="translate(407.4 981.4)"><tspan x="0" y="0">CÍL</tspan></text>
    </g>
    <g class="st0">
      <text class="st1" transform="translate(498.6 175.3)"><tspan x="0" y="0">RADIO 2</tspan></text>
    </g>
    <g class="st0">
      <text class="st1" transform="translate(932.2 399.7)"><tspan x="0" y="0">RADIO 1</tspan></text>
    </g>
    <g class="st0">
      <text class="st1" transform="translate(669.9 1410.9)"><tspan x="0" y="0">VYČÍTÁNÍ ČIPŮ</tspan></text>
    </g>
    <g class="st0">
      <text class="st1" transform="translate(829.9 1079.4)"><tspan x="0" y="0">CENTRUM IT</tspan></text>
    </g>
    <g class="st0">
      <text class="st1" transform="translate(1128.8 1578.9)"><tspan x="0" y="0">VÝSLEDKY</tspan></text>
      <text class="st1" transform="translate(1012.7 1638.9)"><tspan x="0" y="0">MY RESULTS BOARD</tspan></text>
    </g>
  </g>
</svg>