<?xml version="1.0" encoding="utf-8"?>
<!-- Generator: Adobe Illustrator 23.0.1, SVG Export Plug-In . SVG Version: 6.00 Build 0)  -->
<svg version="1.1" id="Layer_1" xmlns="http://www.w3.org/2000/svg" xmlns:xlink="http://www.w3.org/1999/xlink" x="0px" y="0px"
	 viewBox="0 0 351.3 406.9" style="enable-background:new 0 0 351.3 406.9;" xml:space="preserve">
<style type="text/css">
	.st0{display:none;}
	.st1{display:inline;fill:#FF0000;}
	.st2{font-family:'Arial-BoldMT';}
	.st3{font-size:50px;}
</style>
<g id="design">
	<path d="M151.3,317.4c-1.6-1.6-4.8-1.2-5.5-2c-3-3.4,1.2-18.8-13.9-14.1c-11.6,3.6-4.4,18.3-6.9,21c-1,1.1-6.1-0.8-6.6,4.4
		c-0.6,6.8,7.3,14.6,8.4,22.1c0.8,5.3,0.4,12.8,0,18.4c-0.2,5.1-6.3,30,3.3,30.5c8.1-5.2,5.6,2.3,10.3,6.6c4.8,4.3,7.7,3.2,8.4-3.2
		c1.6-14-1-31.1,0-45.6c0.6-8.2,7.5-33.2,2.5-38l0,0V317.4z M142,360.4c-0.2,8.3,5,17.6-0.7,24.5c-1.7-5.2,0-11-2.3-16.2
		c-1.5-3.4-4.9-3.8-5.3-5.2c-0.9-3.7,0.5-9.9-0.2-14.6c-0.6-4-5-16.1-4.8-17c0.5-1.9,4.7-1.9,5.1-3.8c1.2-5.1-7.1-24,5-19.1
		l-0.9,10.1l8.9,5.8C146.8,336.3,142.3,349.7,142,360.4L142,360.4L142,360.4z"/>
	<path d="M101.7,351.4c-2.8-5.3,0.3-13.8-6.1-16.9c-8-3.8-12.5,4.4-10.5,11.8c0.6,2.1,3.2,3.7,3.5,6c0.6,4.9-2.2,15.3-2.4,20.7
		c-0.2,4.7-1.3,25.5,3.6,27c4.4,0.5,6.2-3.1,6.2-6.9l3.4,11.2c2.5,2.8,4.9,0,6.2-2.3c4.6-8.3-1.5-21,0-30.2l6.7-2.6
		c2.3-8,0.6-20.5-10.6-17.9l0,0L101.7,351.4z M105,361.3h-5.6L98.9,373l-5,2.1l-1.3,8.5c-3.8-15,5.6-28.7-0.7-43.1
		c4.2-0.7,2.2,1,2.8,3.4c1.1,4.4,1.2,8.9,2,13.4l9.1,1.3L105,361.3L105,361.3L105,361.3z"/>
	<path d="M212.6,355.7c0.6,4.6,3.4,3.4,4.8,6.3c3.2,6.6-6,32.3,0.4,34.2l4.7-1.2c1.1-1.8-1.5-7.8,2.4-8.7c0.3,0.3-1.2,5.1,2.8,3.3
		c3.4-1.5,2.9-8.5,2.8-11.6c0-3.5-2.5-12.8-2-15.5c0.6-3.1,6.6-2.8,3.3-11.5c-4.3-11.3-21.3-10.8-19.2,4.8l0,0V355.7z M222.7,362.8
		c3.2,2.8,1.5,9.4,3.3,13.4C221.3,373.6,222.9,367.3,222.7,362.8z M217.3,356c-1.7-2.7,0-9.1,3.7-9.8c1.2,3.3,6,2.8,7,6.4
		C229.9,359.5,218.9,358.7,217.3,356L217.3,356L217.3,356z"/>
	<path d="M264.8,213.6c0.5-6.6,3-13.1,1.8-19.9c-2.9-4.8-29.2,2.7-35.4,3.2c-6.9,0.5-14.5-0.7-21.5-0.5c4.6-6.8-8.4-19.2-8.7-21.7
		c-0.4-3.1,2-6.7,0.5-12c-3.4-12.2-19.6-2.5-17.1,8.2c0.9,3.7,5.6,1.2,2.8,11.2c-4.1,14.6-24-0.3-28.2,7.6c-1.3,2.4,2.2,6.6,3,9.4
		c1.1,3.4-1.6,8.4,4.3,8.8c-2.8,4.3-10.3,2-14.6,2.4c-10.1,1.1-19.7,2.5-29.9,2.1l0.2-8.4c4.4,0.2,8.8,0,13.1,0.4
		c2,0.2,3.7,2,5.5,2.2c5.4,0.6,12.9-3.2,18.9-1.7v-5.5l-17.8,0.8l-1.6-22.2c-2.4-3.6-13.5,0-17.5-0.3c7.6-6.9,8-15.8-1.9-20.5
		c-8-1.7-8.3,16.6-2.3,20.4l-21.6,0.8l-0.6,25.2l-18.7,0.8c-0.3-0.3,1.2-2.1,1.2-3.4c0-5,0-15.3-0.7-19.5c-0.3-2.3-1.9-3.1-2.6-4.9
		c12.7-2.4,11.4-18.9-1.6-19.6c-9.9,3.7-10.2,13.4-4,20.8c-1.9-0.6-3.8,1.2-4.9,1.3c-7.1,0.8-17.4-0.4-25-0.6
		c-3.7,0-0.8,10.4-0.9,13.2c-0.3,10.2-5.8,20.4,11.4,13.5l2,7.6l-17.5,1.7c-1.9,2.4,3.3,10,3.2,13.3l-0.5,24.3
		c11.3,1,4.8-5.3,4.4-11.7c-0.3-6.6,0.6-13.5,0.5-20.1l13.9-1.1l-5.7,11.5c0.8,2.8,6.7,2.4,8.8,5.3c1.6,2.2,5.7,16.7,8,16.8
		c5-3.2,3.5-8.6,3.8-13.8c2.4,0.5,1.8,5,2.9,7.4c3,6.1,7.4,3.4,7.6-0.9c0-2.3-7.9-14.8-4.6-20.3c7.1,3.3,15.2,1.1,22.3-0.9L99,247.2
		c0,1.6,6.9,7,8.3,0.2c0.4-1.9-0.7-5.1,0.9-6.2c5.3,0-2.1,8.5,2.6,9.8c2.1,0.6,5.9-1.6,6.2-3.5c0.2-1.5-2.2-3.4-2.5-5.5
		c-1.1-7.7-1.1-16.5-0.9-24.3c4-4.5,7.4,17.5,7.9,19c0.6,1.9,5.7,15.8,9.5,12l-0.7-22.1c0.7-0.8,18.4-2.2,21.5-2.4
		c6.4-0.4,20.1,3.3,21.7-4.4c0.9-4.4-7.4,0.5-10.5,0.5s-5.9-1.7-8.3-1.7c-6.6,0-18,4.3-22.8-1.8c12.5,1.5,27.8-3.1,39.8-2
		c1.7,0,5.7,2.4,6,4c0.8,5,0.7,15,0.6,20.5c0,5.6-4.4,16.8,7,9.8l-0.9-13.1l6.6,13.4l13.8,0.9c4-5.4-4.3-23-2.3-25.5
		c7.4-2.5,27.8-6.8,31.9,0.7c3.6,6.4-0.6,7.3-1.1,11.1c-0.4,3.3,1.7,7.9-0.6,12.2l5.4,2.4c2.5-9,3.2-16.3,2-25.6l5.8-10.3l-0.5,21.5
		c0,2.4,3.9,10.7,3.1,14.7c11.4,4.3,3.3-9.7,2.6-16.1c-0.6-6.7,0.6-13.8,0.2-20.5l8.5-4.2l-4.1-4.2l5.6-3.3c2.3,2.8-6,26.5,1.5,25
		c5.4-1,2-10.6,2.3-14.6L264.8,213.6L264.8,213.6z M120,165.2h2.8c0,2.7,0.2,6.2-2.9,6.9v-6.9H120L120,165.2z M72.8,164.1
		c5.2-3.3,7.6,7.1,0.5,6.9C70.5,171,72.1,164.5,72.8,164.1z M53.2,198.4c-2.2-0.2-5,1.6-6.7,1.1c-3.7-1.1-1.7-10.6-1.9-13.8
		l26.5-0.2l1,14.7c-4-1.3-9.9,1.1-13.1,0.7C57.2,200.7,55.5,198.6,53.2,198.4L53.2,198.4L53.2,198.4z M65.6,234.8l-8.2-7.2
		c5.3-6.4,7.2-11.6,16.9-9.3C70.2,223.3,64.4,227.4,65.6,234.8z M86.1,221.5c-2.6,0-8.8-0.6-7.5-4.5l20.8,0.5
		C97.3,221.1,89.8,221.6,86.1,221.5z M104.6,231.6l3-9.7C109.1,225.7,108.8,229.7,104.6,231.6z M64.7,212.6l0.2-7l6.9,0.3l0.8,4.1
		c7.5-1.2,17.9,0,24.9-1c2.4-0.4,16.1-6.7,17.6-5.1l1.2,8.4l-51.5,0.3L64.7,212.6L64.7,212.6z M102.6,199.4l0.5-15l31.8-2.3
		l-1.7,16.1L102.6,199.4L102.6,199.4L102.6,199.4z M196.5,164.1l-0.2,6.9l-5.4-5.7L196.5,164.1L196.5,164.1L196.5,164.1z M176,209.5
		l-8.3-0.2v-1.4l8.4,0.2v1.4H176L176,209.5z M166.6,194l18.7-0.7l3.4,8.1C180.8,203.4,163.7,206.8,166.6,194L166.6,194L166.6,194z
		 M195.1,226.1c-0.5,4.2,3.1,7.9,3.8,12.6c0.2,1.4,1,5.1-1.4,4.7c-1.3-3.1-2.4-9.4-4-11.8c-2.6-3.8-8.4-1.1-6.6-9.9
		c1.2-5.7,10.1-9.6,15.5-8.7C201.7,218,195.8,221.1,195.1,226.1L195.1,226.1L195.1,226.1z M206.5,217.1c7.5-8.4,21.8-0.7,32.1-3.4
		C231.2,222.1,216.7,213.7,206.5,217.1z M243.1,208c-12.5,1.6-30-0.8-42.7-0.4c-6,0.2-12.8,1.5-18.8,2.1c3.5-4.6,11.7-1.7,16.7-5.3
		c1.5-4.9-5.1-7-5.9-11c-0.6-3.4,2.1-11.2,1-15.5c2.9,3.7,11.7,11.2,10.5,15.9c-0.6,2.5-5.7,6-0.7,9c17.9-1.6,36.2-0.9,53.7-5.4
		C255.9,203,248.1,207.3,243.1,208L243.1,208L243.1,208z"/>
	<path d="M346.8,118.3c0.2-3.1,2.6-9.1,2.2-11.2c-0.3-1.9-7.1-5.9-9.2-8.7c-2.7-3.6-3.6-8.7-6.1-11.9c-1.5-1.9-4.5-2.9-6.1-5
		c-8.8-11.4-14.1-23.1-21.4-35.4l-174.6,4.1l-2.2,6.6l16.7,1.1l-29.8,61.3l-42.5,1.7c-1.5-1.6,11.4-22.8,14.3-25.6L85,90.6
		l-18.1,29.5l-32,1.4C33,120.1,60,86.8,58.1,81c-0.8-8.5-10.6,12.8-11.2,13.9c-6.4,10.4-13.7,22.6-24.5,28.4
		c-2,7.4,16.6,2.7,20.1,2.5c43.7-2,88.7-0.8,130.8-4c13.7-1,28.2,0.4,41.7-1.9l0.6,5.6c5.2,1.5,4.1-3.8,7.7-4.1
		c15.9-1.6,34.4,3.6,50.8,1.3c-3.1,5.3-1.1,10.9,4,6l27.4-73.4c8,19.8,24.1,32.1,32.9,50.8l-59.6,31l0.4,64.4l-4.1,60.4
		c-2.3-1.3-2.5-8-2.6-10.4c-1.1-26.9,2-56.2,2-83.5s-3.8-20.4,2-30.4c-0.8-3.3-18.9-2.7-22.9-2.7c-74.1-0.4-149.5-2.2-223.6-2
		c-4.5,0-18.3,1.8-18.6,7.2c0.2,35.3,4.4,71.4-3.5,106.1l-1.7-18.7l2.4-100c6.8-11.8,14.2-23.2,20.9-35c8-14.2,11.6-37.5,32-34.1
		v-5.5l-18.1,1.6c-12.8,24.9-25.2,50.2-41.9,72.9c3,43.6,1.6,87.7-1.5,131.2c5,1.4,7.5,3.9,12.8,1.4c1.4-0.7,17.3-13,18.8-14.5
		c1.7-1.7,7-7.6,1.6-8.3L12.7,252c-0.7-11,4.5-23.5,4.9-34c0.7-18.5-0.6-38.2,0-57.1c0-4.9-2.2-16.9,2.7-19.8h247.2
		c3.6,1.9,0.4,6,0.5,10.2c0.2,12.5,1.4,25.1,1.3,37.6c-0.3,27.4-3.7,55.5-1.1,82.7c4.8-1.4,7.2-2.1,11.1,1.6
		c1.8-8.3,13.1-14.9,20-19.6c16.6-11.3,35.4-19.6,52-31c-0.8-2.6-2.4-3.8-2.7-6.8c-3.1-28.2-3.1-69-1.4-97.2L346.8,118.3
		L346.8,118.3z M122.4,119.3c7.5-14.5,13.1-31.6,20.7-45.9c2.7-5.1,9.7-17.3,15.1-18.3c4.5-0.9,36.6-2.1,38-0.8
		c-7.7,22.2-17.1,43.8-29.2,64L122.4,119.3L122.4,119.3L122.4,119.3z M218.5,116.6l-45.9,2.4l29.8-63.4c14.4-3.8,29.3-1.6,44-1.7
		L218.5,116.6L218.5,116.6L218.5,116.6z M276.9,116.6c-4,2.3-10.9-0.7-14.7-0.4c-3.7,0.3-9.5,3.1-14.1,3.1c-7.1,0-16.4-3-24.1-1.8
		l29.2-64.1c2.2-1.5,23.8,0,28.6,0s13.7-3.9,18.6,1l-23.6,62.1l0,0L276.9,116.6z M338.2,222l-10.6,8.8l-47,28.4l2.9-117.2
		c1.9-5.8,43.8-24.4,51.8-27.6c-2.7,4.5,0.8,7,1.1,10.5c1.2,17.1,0.2,34.7,0.6,51.4c0.4,15.1,3.7,30.4,1.3,45.7L338.2,222L338.2,222
		z M342.9,147.2c0,3-0.2,6-0.2,9c-2.4,0.3-1.2-3.2-1.3-4.9c0-3,0.2-6,0.2-9C344,142,342.8,145.5,342.9,147.2z M343.3,120.6
		l-2.8,10.5c-0.8-4.6,1.1-9,1.4-13.2c0.2-2.7-3.6-8.7,1.8-7.6L343.3,120.6L343.3,120.6L343.3,120.6z"/>
	<path d="M72.4,56.3c0,3.5,20.5,1.5,23.6,1.2c1.3,4.9-6.9,5.9-5.8,10.3c1.2,4.7,9.7,0,12.5,1.7c0,7.9-14.6,10.6-8.1,17.2
		c2.3,0.2,13.9-14.1,13.6-17.7c5.5,0,6.1,5.3,11.1,0.3c0,3.4,9.3,18.3,12.9,12.8c2.9-4.7-3.3-5.6-5.4-8.5
		c-2.7-3.8-1.6-10.3-7.3-11.4l8.7-17.1c0.3-7.2-23.3-3.1-27.9-3.5l-3,13.2c-2.4,0.6-0.5-2.7-2.1-2.9c-1.7-0.3-4.6,1.3-6.9,1.4
		c-5.4,0-14.2-2.7-16,3.1L72.4,56.3L72.4,56.3z M104.8,46.8l16.5,0.2l-6.2,14.8l-15,2.8L104.8,46.8L104.8,46.8L104.8,46.8z"/>
	<path d="M64.1,41.2c2.1,12.2,0.6,24.4-0.5,36.5h5.5c2.2-1.9-2.1-35.7,1-41.9c1.2-2.4,18.9-8.9,14.3-15.2C81,16,74.1,30.9,68.9,30.6
		c-1-12,0-17.2,11.4-22.2l-1.1-6.7c-4.2-1.1-5.5,6-7.9,6.6C65.6,9.6,62.4,0.4,60.4,0c-11.7,4.2,3,9.8,4.4,14.9
		c1.2,4.4-1.6,8.6-1.4,12.9c-5.3-2.3-2.5-9.2-5.9-12.7h-2.8l-2,2.3c-0.2,0.7,3.8,11.9,4.5,13c2.5,4.1,5.5,2.2,7,10.9l0,0L64.1,41.2z
		"/>
</g>
<g id="text" class="st0">
	<g>
		<text transform="matrix(1 0 0 1 1282.2998 42.7)" class="st1 st2 st3">DOHLÁŠKY</text>
	</g>
	<g>
		<text transform="matrix(1 0 0 1 727.3997 12.7)" class="st1 st2 st3">PŘIHLÁŠKY</text>
	</g>
	<g>
		<text transform="matrix(1 0 0 1 545.1996 -496.8)" class="st1 st2 st3">KORIDOR III.</text>
	</g>
	<g>
		<text transform="matrix(1 0 0 1 849.2997 -737.1)" class="st1 st2 st3">START</text>
	</g>
	<g>
		<text transform="matrix(1 0 0 1 629.6996 -441.9)" class="st1 st2 st3">KORIDOR II.</text>
	</g>
	<g>
		<text transform="matrix(1 0 0 1 706.7997 -380.7)" class="st1 st2 st3">KORIDOR I.</text>
	</g>
	<g>
		<text transform="matrix(1 0 0 1 -672.9003 -361.8)" class="st1 st2 st3">SBĚRKA</text>
	</g>
	<g>
		<text transform="matrix(1 0 0 1 -352.6003 -98.6)" class="st1 st2 st3">CÍL</text>
	</g>
	<g>
		<text transform="matrix(1 0 0 1 -261.4003 -904.7)" class="st1 st2 st3">RADIO 2</text>
	</g>
	<g>
		<text transform="matrix(1 0 0 1 172.1997 -680.3)" class="st1 st2 st3">RADIO 1</text>
	</g>
	<g>
		<text transform="matrix(1 0 0 1 -90.1003 330.9)" class="st1 st2 st3">VYČÍTÁNÍ ČIPŮ</text>
	</g>
	<g>
		<text transform="matrix(1 0 0 1 69.8997 -0.6)" class="st1 st2 st3">CENTRUM IT</text>
	</g>
	<g>
		<text transform="matrix(1 0 0 1 368.7997 498.9)" class="st1 st2 st3">VÝSLEDKY</text>
		<text transform="matrix(1 0 0 1 252.6997 558.9)" class="st1 st2 st3">MY RESULTS BOARD</text>
	</g>
</g>
</svg>
