<?xml version="1.0" encoding="utf-8"?>
<!-- Generator: Adobe Illustrator 23.0.1, SVG Export Plug-In . SVG Version: 6.00 Build 0)  -->
<svg version="1.1" id="Layer_1" xmlns="http://www.w3.org/2000/svg" xmlns:xlink="http://www.w3.org/1999/xlink" x="0px" y="0px"
	 viewBox="0 0 661 829.7" style="enable-background:new 0 0 661 829.7;" xml:space="preserve">
<style type="text/css">
	.st0{display:none;}
	.st1{display:inline;fill:#FF0000;}
	.st2{font-family:'Arial-BoldMT';}
	.st3{font-size:50px;}
</style>
<g id="design">
	<path d="M318.1,379.3c2-8-6.6-7.1-12.1-9.5c-8.8-3.8-16.1-10-25.3-13l1.2-15.1h-5.5v12.5c-11.3-4.3-19.5-6.5-16.7-20.8
		c-4.4-0.6-5.1,3.7-9.3,1.8c-6.2-2.8-10-12.4-16.5-15.6c-3.5-3.7-1.6-9.3-2-14L227,307v5.6c-4.6-5.1-13.2-9.5-15.3-16.6
		c-1.6-5.5,0.9-35.4,2.2-42.4c1.3-7.2,5-8.9,11-11.9c1.4,2-3.1,14.4,4.2,13.9l0.7-22.2l23.6-27.8l-0.7,19.4c10.8,0,3-19.4,6.3-27.7
		c1.1-2.7,15-19,18-22.3c4-4.4,8.6-8.8,13.2-12.5v25.7l5.4-0.2c-0.8-9.9-3.1-20.3,1-29.8l31.1-15.2c2,2.7-5.4,25.2,2.1,23.6
		c2.2-0.5,1.6-3,1.7-4.4c0.4-5.5-0.4-17.6,2.5-21.9c4-5.9,32.1-13.7,37.5-22.3c3.3,3.3-4.8,28,2.8,26.4c3.3-0.7,1.5-22.6,2.4-26.8
		c2-9,24.4-12.6,32.6-16c9-3.8,22.6-13.2,30.4-15.5c4.8-1.4,0.4,11.5,0.6,13.2c0.4,4.7,5,5.1,5.7-1.3c0.7-6.4-2.9-12.3,4-15.5
		l-1.2-4.6l42.3-36.3c1,5.8-3.6,13.3,1.4,18.1l3.5-2.1V36.7l12.5-11.8l-1.4,13.9h5.5L514.1,8l-5.3,1.6c0.4,7.7-3.8,13.5-10,18.1
		c-4.8-15.2-5.2,4.4-7.8,8.2c-1.1,1.7-8.2,8.6-10.3,10.6c-9.7,9.5-22.4,18-32.7,27.1v-7l-4.9-1.4c-0.5,4-0.5,10.8-1.7,14.3
		c-1.1,3.1-21.9,13.2-26.6,15.2c-11,4.7-22.7,7.6-33.8,12.1c-3.9,1,0-9.3-5.4-8.2c-3.6,0.8-1.3,10-2.3,11c-0.4,0.4-2.8-0.3-3.6,0.4
		c-0.8,0.7-0.6,3.4-1.7,4.6c-9.2,10-21.4,13.3-32.7,20.2l-0.7-8.3h-5.5c0.1,4.7,3.2,7.1-0.6,11.2c-1.1,1.2-26.6,14.6-28.2,15
		c-5.1,1.3-2.9-5.4-8-3.9c-3.7,1,0.1,6.1-1.3,8.3s-15.1,7.6-15.8,8.6c-0.8,1.2-0.4,4.6-1.9,7.2c-3.6,6.1-10.3,11.6-14.4,17.6
		l0.7-4.8c-7.6-6.6-4.9,7.1-5.6,11c-1.2,6.9-20.6,23.5-24.3,31.3v-7l-4.9-1.4c2.9,14-5.6,19.7-15.3,27.4l-2.8,40.7l-4.1-1.4
		c-3.2,5.7,1.4,6,2.5,9.4c0.9,2.6-0.4,5.3,1.6,8.2c1.4,2,4.1,0.4,6.3,1.8c3.7,2.3,10.8,11.2,14.6,14.7v27.8l2.8,1.4
		c4.8-2.1-0.4-20.3,1.4-25.7c5.2,3,7.9,8.4,11.7,12.6c1.8,1.9,5.3,3.2,6.5,4.7c1.2,1.6-0.4,3.7,0.5,4.9c0.9,1.3,3.5,1.2,3.5,1.4v25
		h5.6l-1.4-22.2l17.8,8.6c2.3,5.6-2.8,30.3,0.2,32.5l4.2,0.6v-30.6c5.3,2.2,34.7,21,37.5,18.1L318.1,379.3L318.1,379.3z"/>
	<path d="M518.8,518.4c1.9,1.5,2.3,2.3,4.2,0c2.6-3.9-7.3-18-9.3-22.7c-20.4-48.1-19.7-82.9-17.9-133.7c0.2-4.8,2.4-9.5,1.4-14.5
		c-4.4-1-7.2,2.6-11,3.6c-18,4.4-36.8,4.8-54.8,7.7c-31.3,5.2-63.5,14.4-94.7,17.9c-4.2,0.5-11.5-2-14.5,0.7
		c-1.7,1.5-0.8,5.5-4.2,4.9c0.4,2.5,2.4,2.3,4.1,1.4c-0.2,33.6-3.9,67.3-8.5,100.6c-6.2,44.4-14.7,78.9-29,121.2
		c-0.9,2.7-3.1,5.6-3.6,7.6c-1.2,4.8,4.2,6,6.1,1.9c19.3-51.5,30.1-105.4,35-160.3c2.4-0.3,1.3,3.2,1.4,4.8
		c0.6,13.4,0.3,28.3,0,41.8c-0.5,24.9-2.2,50.1-2.8,75.1c-0.1,5-4.7,11.8,2.3,13l3-2.1l4.6-146.2l156.9-30.8l-7.6,122.5l2.7,4
		c1.9-1.9,4.3-3.3,4.8-6.3c1.6-8.4-0.6-22.6,0-32c0.4-7,2.3-15.2,2.8-22.2c0.7-11-0.2-21.9,1.4-32.6l8.7,32.3
		c2.1,7,14.2,39.5,18.3,42.8L518.8,518.4L518.8,518.4z M487.6,404.4l-157.1,29.2c0.2-16.5-3.4-33.6-1.1-49.8l161-26.7L487.6,404.4z"
		/>
	<path d="M462.2,654.3c-0.5-1.7-1.7-4.9-2.9-6.1c-11.2-12.2-26.9,6.9-12.1,16.9c-4,4.1-18.7,10.4-18.1,16.6
		c1.1,12.1,17.4-2.8,19.5-0.6l-1.4,13.9c-3.5-2-13.3-8.9-16.8-6.4c-2.3,1.7-2.1,14,0.7,16.2c1.8,1.4,5.2,0.2,5,2.6l-7.6,1.4
		c-2.7-5.8-1.8-11.2-0.8-17.2l-4.1-2.3c5.4-5.1,0.9-6.1,0.4-9.2c-0.6-3.4,4.1-7.5-3.3-9.4c-6.9-1.8-6.9,4.9-6.9,10.4
		c-9.3,1.6-7.3-1.1-12-6.8l-6.6,1.1l-1.5,14c-5.9-4.3-12.9-11-9.4-19.1c1.9-4.3,8.3-5.3,4.6-10.9c-7.4-11.2-30.9-8.5-27.6,5.3
		c0.7,3,6.4,8.2,6.5,11.4c0.2,3.8-2.4,11-2.6,15.4c-0.7,11.3,3.8,18.2,4,27.9c0.2,9.1-2.8,21.2-2.7,30.5c0,2.7,1.4,15.5,3.6,16
		l5.5-4.1c2.1,0,1.7,12.7,9.2,7.5L386,702l9.4,5.3l4.5-0.4c6.7-7.2-1.2-8.4-2.8-14.6c2.5-0.8,3.3,2.1,5.2,2.5
		c1.7,0.4,3.8-1.2,4.3-0.9c0.4,0.2,3.1,5.6,5.7,6l-5.5,4.1c0.7,3.2,6.7,3.2,7,3.5c0.2,0.2-2.9,4.8,0,6.3l6.9,2.2l1.8,34.4
		c3.5,0.3,9,1.5,10.7-2.1c2.7-8.2-4.5-31.9,1.9-35.7c1.3-0.8,12.9-4,13.6-3.7c0.4,5.3-4.2,30.4,0.7,31.9l4.6-2.3l1.7-10.2
		c4.8-1.1,2.2,7,6.4,8.2c11.7,3.4,2.9-28.2,4.7-30.5l5.6,0.8c6.5-8.9-0.2-13.8-2.5-21.4c-3.1-10.4-4.9-21.2-7.7-31.3L462.2,654.3
		L462.2,654.3z M381.9,692.2l-1.4,51.4h-6.3l-2,9.7c-0.5-6.7-0.4-13.4,0-20.1c0.4-6.4,2.8-16.2,2.6-22.3c0-3.2-3-5.6-3.7-8.6
		c-2.8-13,11.1-27.3-4.5-40c4.8-6.6,11.1-4.8,16.6,0c-8,4.6-6.2,16.1-2,22.8c2.8,4.4,9.9,5.5,10.3,11.2c-3.3-2.3-5-5.2-9.7-4.2
		L381.9,692.2L381.9,692.2z M413.9,703.3l2.8-9.7l1.4,9.7H413.9L413.9,703.3L413.9,703.3z M416.7,689.4v-5.6h2.1l2.1,2.1
		L416.7,689.4L416.7,689.4L416.7,689.4z M427.8,745l-2.8-11.9l1.5-14.5l2.2,16.2L427.8,745L427.8,745L427.8,745z M447.3,704.7
		l-8.3,1.4l-1.4-9.7C440.8,694.6,448.9,703.3,447.3,704.7L447.3,704.7L447.3,704.7z M460.5,711.6l-3.5-0.7l-4.1,6.3
		c-0.4-4.5,5.4-12.5,2.9-15.7l-7-2.3c-0.4-2.5,2.5-0.8,3.8-1.6c2.1-1.4,2-19-0.4-22c-3.9-4.9-12.6,5.8-17.4,5.5
		c3.9-6.1,20.4-9.2,17.9-18.5c-0.5-1.7-10.5-9.6-3.1-12c10.9-3.6,5.5,13.4,6.2,15.6s4.5,2.3,5.2,4.6c0.2,0.7,2.3,11.7,2.4,12.9
		c0,1.5-1,8.1-0.8,13.3c0.5,10.9,0.5,21.8,1.4,32.6l-3.4-18.1L460.5,711.6L460.5,711.6z"/>
	<path d="M560,620.4c-2.4,1.1-5.1,7.8-7.6,4.8c-7.1-8.4,0.3-19.3-5.3-24.6c-2.4-2.3-8.7-2.7-10.9,0.2c-1.7,3.6-1.4,7.6-2.4,11.5
		c-0.6,2.4,1,3.9-3,3.2c1.4-6.3,2-14.2-3.1-19.1c-2.7-2.6-9.7-2.4-12.2,0.6c-5.2,6.3,0,13.6,1.5,20.4c-12.2,6-8.3,11-9.8,21
		c-1.5,10.4-7.9,21.5,3.9,27.9c-1.5,11.4,0.3,22.7-0.9,34.4c6,3.2,5.5,12.6,13.4,10.4c0.5-1.3,1.9-2.8,2.2-4
		c3.5-11.8-1.1-31.9,2.3-45l6.9-13.3l2,5.7l8.2,1.1c3.4,7.7,0.6,19.2,0.9,28.7c0.2,7.1,1.1,21.3,3.2,27.3c0.4,1.3,2.1,5.3,3.8,5.3
		c1.5-9.9,6-19.1,8-28.8c1.1-5.3-1.4-13.6,4-16.9c2.4-1.5,6-1,7.2-1.8c5.1-3.5-2.6-26.8-3.8-32.5c-1-5,1.4-21.2-8.4-16.6H560
		L560,620.4z M521.8,600.2l4.5,7.6l-2.4,7.7l-3.9-9.4L521.8,600.2L521.8,600.2L521.8,600.2z M555.5,689.6l-3.8,9.4
		c0-9.5,0-19,0-28.5c0-3,1.5-5.6,1.4-8.3c0-13.8-13-11.7-15.2-25.1c-8.1-1.4-7.6,7.9-10,12.4c-1,2-3.6,3.2-4.6,5.1
		c-3.9,7.5-2.1,21.2-1.3,29.5l-2.2,16.2c-0.3-2.7,0.7-6.3-0.2-8.9c-0.7-1.9-3.6-1.8-4-3.2c-2.1-8,4-21.8-0.8-28.1
		c-1.4-1.9-4.2-1.6-4.8-5c-0.7-4.1,2-9.8,2.7-14c0.8-5-1.4-11.2,3-15.1c2.7-2.4,7.8-1.8,6.9-7.7c2.3-2.5,5,7.8,9.7,4.9
		c0.4-0.2,5.7-6.2,5.9-6.6c1.7-3.9-0.8-10.9,5.2-10.8c-0.9,9-3,18.3,4.9,25c6.1,5.2,13.1-4.4,14.6-2.8c-1,12.2,5.3,23.1,5.7,35.3
		c-12.6,4.1-13.2,14.5-13,26.2L555.5,689.6L555.5,689.6z"/>
	<path d="M565.6,750.4c-2-8.1,10.4-20.9,0.4-26.1c-13.5-7.1-17.6,8.3-24.7,16.4c-2.4,2.7-13.1,10.6-13.3,13.2
		c-1,9.9,16.8,4.9,22.3,4.8c-0.5,11.8,0.6,23.7,0,35.5c-0.4,7.5-7.3,31.5,2,35.4c3.3,1.3,3.9-9.3,4.9-11.1l2.8,6.9h4
		c7.5-22.7,5.8-46.9,9.7-70.2C573.5,751,568.9,750.1,565.6,750.4L565.6,750.4L565.6,750.4z M537.8,753.1l7.7-8.3l3.5,6.9l-11.1,1.4
		H537.8L537.8,753.1z M562.1,814.3c-3.2-4.9,1.3-31.9-0.7-33.4l-5.5,1.4l1.2-29.8c-9.5-4,4.8-8.3-5.4-12.6l5.5-9.9l7,0.8
		c0.6,3.2-3.1,4-3.9,6.5c-1.9,6.4-1.7,18.5,6.8,19.3c0.2,19.3-0.5,38.8-5,57.5L562.1,814.3L562.1,814.3z"/>
	<path d="M503,177.1c0.3-6.6-3.6-11.3-10.4-8.8c-2.4,0.9-1.3,4.2-3.6,4l-2-5.7c-4.9-5-11.7,4.8-11.8,9.2c-0.2,5.3,4.6,3.5,4,7.6
		c-7.4,0.2-13.5,4.2-19.6,7.8c-1.1,14,17.3,3,20.3,7.4c2,2.9-0.7,19.6,3.1,27.5c5.9,12.2,9.6-4.2,8.6-10.7l4.9,4.2
		c1.5,0.3,2.8-0.9,3.2-2.3c2.1-6.8-2.5-20.3-1.2-29c0.6-4.6,4.1-6.4,4.3-11.1h0.2V177.1z M484.8,172.3l2.8,9.7l-6.9-5.6L484.8,172.3
		L484.8,172.3L484.8,172.3z M487.9,199.6c-0.9,4.3-0.2,9.2-0.3,13.7c0,1.7,1,5.2-1.4,4.8c-1.7-8.1,3.5-26.7-9-26.4
		c-4.1,0-6.9,3.2-10.4,2.1c3.8-6.9,9.2-3.6,14.3-5.1c1.9-0.6,3.3-3.5,4.4-3.6c0.7,0,4.9,3.7,7.6,2.5
		C495.5,194.8,488.9,194.8,487.9,199.6L487.9,199.6L487.9,199.6z M493.2,182c0.2-2.7-0.4-9.3,4.1-8.3
		C497.6,178.6,498.4,180.7,493.2,182z"/>
	<path d="M20.7,208.6c-0.6-3.6,7.3-15.6-0.3-22.4c-6-2.9-12.7,0.6-13.4,7.4c-0.2,2.2,1.3,4.1,0.4,7.3c-1,3.8-5.6,7.8-6.8,12.8
		c-2.5,10.9,3.6,18.9,4.3,30.2c0.3,6-2.6,23,0,26.9c4.8,7.6,6.7-15.2,6.3-18.1l4.8,16.7c1.5,2.3,5.6,1.5,6.3-0.7
		c1.1-3.7,0-18.3,0-23.6c0-7.7-3.4-8.7,0.8-20.1c1.7-4.7,7.8-6,2.6-12.6c-1.4-1.8-4.8-2.7-5-3.7l0,0L20.7,208.6z M16,231.7
		c-7.2-0.2-10.5-4.6-10.5-11.9s7.3-14.3,8.1-18.4c0.8-3.9-4.9-10.8,4.4-10.1c2.6,5.1-3.7,14.3-3.5,16.8c0.5,5.5,6.4,5.7,6.4,8.9
		S14.9,227.3,16,231.7z"/>
	<path d="M46.6,204.7c-6.4,3-3.3,11.5-6.1,16.9c-11.2-2.6-12.9,10-10.6,17.9l6.7,2.6c1.6,9.3-4.5,21.9,0,30.2
		c1.3,2.3,3.7,5.2,6.2,2.3l3.4-11.2c0,3.8,1.8,7.4,6.2,6.9c4.8-1.5,3.8-22.4,3.6-27c-0.2-5.4-3-15.9-2.4-20.7c0.3-2.3,2.9-3.9,3.5-6
		c2.1-7.5-2.5-15.6-10.5-11.8l0,0V204.7z M49.8,253.7l-1.3-8.5l-5-2.1L43,231.4h-5.6l-0.7-2.7l9.1-1.3c0.8-4.5,0.9-9,2-13.4
		c0.6-2.3-1.4-4.1,2.8-3.4c-6.2,14.4,3.1,28.1-0.7,43.1L49.8,253.7L49.8,253.7z"/>
	<path d="M612.3,149.5l3.4,1.1l2.8-4.4c-1.3,4.2,3.1,25.4,7.9,15.1c2.1-4.6-0.3-11.3,0-16.8c0.2-6.5,1.4-21.5,2.3-27.7
		c0.9-6.1,8.8-10.7,2.7-16.2c-11.1-10.3-21.4,5.3-11.7,15.1c-11.7,6.8-8.8,22.6-7.2,34v-0.2L612.3,149.5z M622.9,153.9h-1.1v-6.7
		h1.1V153.9z M628.4,102.7c2.7,2.1-3.4,7.3-3.9,10c-3.5-1.6-4.9-4.4-5-8.2c0.4-1.5,8.5-2.1,8.8-1.8H628.4L628.4,102.7z M624,117.2
		l-1.1,20L619,135l-3.9,6.7C614.5,131.4,614.2,123,624,117.2z"/>
	<path d="M512.5,97.9c0.6,7.8,4.9,5.4,5.7,9.7c1.1,5.8-0.4,31,1.2,33.3c5.4,3.9,6.2-2.4,7.3-3.2l5.9,1.2l2-2.2
		c-0.5-9.2,1.5-18.4,1.6-27.5c0-6.8,1.1-20.7,0-26.5c-0.6-3.2-3.9-4.2-4.1-6.9c-0.2-4.2,3.7-6.7-0.7-12c-5.9-7.2-16.3,5-16.2,11.9
		c0,2.5,1.5,5.1,1.4,7C516.4,86.3,511.9,90.1,512.5,97.9L512.5,97.9L512.5,97.9z M523.8,83.9c0.2-3.2-6.6-11.3,0.8-14.3
		c7.8-3.1-1,8.7-0.7,10.1c2.2,4.4,8.3,2.2,8,8.5c0,1.3-1.2,2.4-1.2,2.8v29.9l-6.9-1.5c-0.8-0.8,0.6-12.3-0.4-15.6
		c-0.8-2.8-5-3.8-5.2-7.2C517.9,92,523.5,86.8,523.8,83.9L523.8,83.9L523.8,83.9z"/>
	<path d="M463.9,129.9c0.3,9.8,2.9,19.9,2.9,29.8c5.2,1.6,4.8-3.6,5.6-4.2c0.5-0.4,4.5,4.4,6.8,2.7c7.6-13,1.7-23,0.2-35.5
		c-0.5-3.9-1.4-13-1.3-16.5c0-4.9,4.1-10.1,3.9-13.8c0-1.2-5.2-12.2-5.9-13c-4.4-4.4-11.5,2.6-12.1,7.4c-0.7,6.6,2.6,9.2,2.6,12.4
		s-2.3,4.4-2.6,7c-0.6,4.8-0.3,18.3,0,23.6l0,0L463.9,129.9z M471.6,84.7c0.9,0,4.5,8,4.6,9.3c0.2,2.3-2.2,4.3-2.4,6.8
		c-0.8,11.5,0,22.8,2.7,34h-6.9c4.1-8.2-0.7-17.7,0-25.7c0.3-3.9,3-7.7,2.8-11.1C472.1,94.1,466.3,88.9,471.6,84.7L471.6,84.7
		L471.6,84.7z"/>
	<path d="M433.4,505.8v-9.6c-3.1-1.3-4.4-1.7-6.3,1.3l0.7,8.3c-3.7,0-7.6-0.6-11.2,0.6c-7,2.3-2.9,6.5-2.7,11.2
		c0.2,6.2-0.1,12.5,0,18.8l12.5-1.4c-0.7,4.5,1.3,8.8,1.5,13.2c0,2.8-3.3,9.2,0.6,10.4c9.6,2.9,2.3-22.5,3.5-23.6
		c16.2,1.5,8.8-7.4,9.7-17.4C442.5,509.2,450.2,501,433.4,505.8z M419.5,525.3c-1.6-9-1.8-15.8,9.7-13.9L419.5,525.3z"/>
	<path d="M465.1,249.2c0.6-1.8,1.7-11.4,1.8-13.6c0-7.4-2.7-9.3-9.8-9c2.7-4,6.3-13.3,1-16.3c-3.6-2.1-12.1-2.4-14.2,2.5
		c-2.7,6.4,1.1,9,1.4,13.1c0.3,4.4-2.9,9.6-2.1,15.2c0.5,3.5,3.5,5.5,3.8,7.3c0.4,2.3-1.7,5-1.7,7.2c0,8,2.3,18.8,4.1,26.7
		c0.5,2.2,2.9,6.9,5.6,6.6c2-0.8,3.1-2.5,3.4-4.6c1.5-8.3-0.2-23.6,1.4-30.3c0.4-1.7,4.3-1.5,5.3-4.7l0,0V249.2z M448.6,215.4h7
		c0.5,0.5-1.7,10.9-4.1,11.1c-1.4-3.7-3.7-6.8-2.8-11.1H448.6L448.6,215.4z M454.2,279.3h-1.4v-20.9h1.4V279.3z M454.2,255.7
		c-5.6-2.4-0.9-8.2-1.9-12.6c-0.7-2.8-3.7-2.1-3.8-4.7c0-3.9,2-5.8,3-9c2.3-0.6,0.9,2,1.6,2.4c1.9,1.2,5.7,0,8.1,0.3
		c0.5,0.5-1,13-1.4,14.3c-0.4,1.5-7.2,4.2-5.6,9.4l0,0L454.2,255.7z"/>
	<path d="M356.8,743.1c-6.7-4.7-13.6-7.7-21.5-9.1l2.2-28.4c-0.7-2.7-6-0.6-6.7-1.1c-1.4-1-0.9-5.4-5.9-3.9l-1.2,60.2l5.3,2.3
		c-1-6.1-2.2-12.6-1.4-18.8c0.2-1.9,0.7-3.9,2.8-2.1c-1,3.6,4,5.8,4.2,6.5c0.8,3.4-2.5,22.9,5.4,18.3c0.2,0,2.4-4.3,2.4-4.7
		c0.3-2.9-3.4-3.4-3.6-4.4c-0.7-3.4,0.4-7.9,0-11.5c5-1.6,1.9,10.3,6.2,8.3c3.3-1.5,0-8.8,2.8-11.1c4.5,3.1,3.6,23.7,4.9,25h5.5
		c-1.2-9-4.8-16.2-1.5-25.5L356.8,743.1L356.8,743.1z M330.5,713.7v22.9h-1.4v-29.2l2.6,2.4C332.2,711.9,330.4,713.2,330.5,713.7
		L330.5,713.7L330.5,713.7z"/>
	<path d="M437.6,201c-0.2-0.2-4.3-3.2-4.6-3.3c-12.3-5-4.9,15.4-5.3,16.7c-0.9,2.9-21.9,17.3-4.1,20.4c-2.5,11.1-1.3,22.3,0,33.3
		c6.3,0.6,7.6-4.4,7-9.7l1.5,4c5.9,1.8,6.6-2.3,6.9-7.6c0.5-12.3-1.4-25.4,0-38.8C439.6,209.8,444.6,208.9,437.6,201L437.6,201
		L437.6,201z M427.8,239v-10.2c-9.6-2.5-1.2-4.2,0.9-6.9c1.9-2.4,1.8-6.9,4.6-7.9C429.8,222.4,437.9,236.3,427.8,239L427.8,239
		L427.8,239z M434.7,211.2h-2.8l-1.4-6.9C434.7,203.9,435,207.8,434.7,211.2z"/>
	<path d="M273.7,72.3c0.6,0.9,0,18.9,0,22.3l1.9,1.7l5.3-1.1v21.7c9,0.8,3-14.1,5-19.7c1-2.7,3.8-1.3,5.5-2.3
		c6.2-3.6,1.8-18.1,5.1-24.5l-1.9-2.7l-8.9-0.7l-1.1-8.5c-7.9-3-3.2,7.4-3.6,7.8c-3.2-0.7-11.1,0-10.8,4.2c0,1.3,3.5,1.6,3.6,1.8
		H273.7z M278.7,72.5h8.3c0.9,0.6-5.6,9.5-6.5,10.8c-1,1.4,0,3-3.1,2.3L278.7,72.5L278.7,72.5L278.7,72.5z"/>
	<path d="M641.6,109.7c-3.3,8.7,2.7,8.4,3.3,11.5c0.5,2.7-1.8,12-2,15.5c0,3.1-0.6,10.1,2.8,11.6c3.9,1.8,2.5-3,2.8-3.3
		c3.9,1,1.3,6.9,2.4,8.7l4.7,1.2c6.4-1.9-2.8-27.6,0.4-34.2c1.4-2.9,4.2-1.7,4.8-6.3C662.9,98.8,645.9,98.4,641.6,109.7L641.6,109.7
		L641.6,109.7z M647.4,135c1.8-4,0-10.6,3.3-13.4C650.5,126.1,652.1,132.3,647.4,135z M656.1,114.8c-1.6,2.6-12.7,3.4-10.8-3.5
		c1-3.6,5.8-3.1,7-6.4c3.8,0.8,5.4,7.2,3.7,9.8l0,0L656.1,114.8z"/>
	<path d="M445.8,157.7c0.6,5.7-0.4,11.5,0.2,17.1c8.8,4.2,6.6-10.5,6.8-16.5l6.9,1.4c0-10,5.6-29.8,1.7-38.6
		c-0.9-2.1-4.1-4.1-4.4-5.4c-0.3-1.9,6.9-7.3,1.9-14.4c-2.3-3.4-13.7,0.7-14.6,6.4c-0.8,5.1,2.8,7.6,2.5,9.4
		c-0.2,1.1-2.2,3.4-2.8,5.6c-3,12.2,3.6,10.1,4.3,12.8c0.6,2.5-5.6,12.1-5.3,16.6c0,2.1,2.4,3.5,2.6,5.6L445.8,157.7L445.8,157.7z
		 M450.1,106.9c3.6-3.6,7.5,5.5,2.1,5.5S449.3,107.7,450.1,106.9z M453.5,119.5c4.8,2.2,4,16.3,2.8,20.9l-4.9,1.3
		c7.9-8.1-2.4-13.7-2.5-14.5C448.9,126.8,451.2,118.4,453.5,119.5L453.5,119.5L453.5,119.5z"/>
	<path d="M404.8,212.6l4.2,1.3l5-16.5l6.6-0.3c4-2.4-1.3-20.9-1.1-25.4c0.3-7.5,7.8-9.9,1.3-19.6c-2.7-4-5.8-6.6-9.8-2.8
		c-4.5,4.4-0.2,10.5-1.3,16c-3.1-0.5,0-5-4.9-5.6c-3.6-0.5-7,1.1-7.6,4.9C407.6,179.1,402.5,196,404.8,212.6L404.8,212.6
		L404.8,212.6z M418.1,158.4l-1.4,6.9h-1.4l-1.4-6.9H418.1L418.1,158.4L418.1,158.4z M407,170.9l2.2,2.9l4.7-1.5l2.6,13.1l-8.2,10.5
		c-0.3-6.7,0.4-13.5,0-20.2c0-0.9-2.1-3-1.4-4.9l0,0L407,170.9z"/>
	<path d="M597.4,508.7c-3.8,1.3-7.2,1.2-10.5-1.4c4.9-10.4-3-11.3-5.5-1.4c-7.2-4.2-16.8-6.9-24-10.7c-1.5-0.8-1.7-2.3-2.2-2.7
		c-3.9-2.3-9.7-1-6.9-8.2l-1.7-2c-9.4,4.7-24.1-14.6-30.7-15.2c-2.3-0.2-3.7,1.9-3.3,4l30.3,18.4c1.1,1.8,1.1,26.3,1.6,31.1
		c0.2,2.1,0.2,3.5,2.2,4.8c5.8,1.2,0.9-13,0.7-16c-0.4-5.3,0.2-10.7,0-16c9.4,9,23.2,10.9,34.5,16.9c1.4,4.9-2.5,33,3.7,33.1
		c4.3-3.4,0.8-8.6,0.6-13.1c-0.2-5.8,0.3-11.6,0-17.4l11.1,1.4v-5.5h0.1L597.4,508.7z"/>
	<path d="M480.6,265.4l6.2,4.2c1.6-1.3,2.8-3.2,3.2-5.2c0.7-3.2-1.9-22.8-2.6-27.4c-0.9-5.6-6.2-8.7-11.7-7.8
		c-8.7,1.4-0.3,16.5-0.9,18.5c-0.4,1.5-4.8,5.5-6.1,9.3c-6.9,19.4,4,31.2,11.8,8.3l0,0L480.6,265.4z M480.7,235.5l1.4,4.9l-4.2-0.7
		l-1.4-4.9L480.7,235.5z M473.2,260.1c0.6-2.2,5.7-11.9,8.1-11.4l3.5,4.9c-9.2,3.3-8.7,9.1-11.1,17.4
		C470.7,270,472.6,262.3,473.2,260.1L473.2,260.1L473.2,260.1z"/>
	<path d="M452.8,442c-11.1-3.2-26-1.9-30.5-14.7l-9-0.6c-3.2,4.5,4.2,5.1,4.8,9.1c1.1,6.2-0.8,15,0,21.5h4.2v-19.5
		c0.8-0.8,11.6,5.7,13.9,6.3c4.6,1.2,18-0.5,18,8.3v24.3c3.6,0.4,4.8,0.5,4.8-3.4c0-8.1-0.9-17.7-2-25.7c3.8-0.7,2.9,2.7,5.6,4.8
		c2.4,1.9,9.5,5.5,11.9,2.2l0.6-4.2c-8.4,2.6-9.5-8.4-16.7-4.2C462.4,436.2,452.5,430,452.8,442L452.8,442L452.8,442z"/>
	<path d="M514.7,234.8l4.9-11.1c2.1,0,2.2,3.4,3,3.9c1.9,1.1,5.9,0.4,6.6-2c0.7-2.4-2.7-8.8-2.7-12.4c0-7.8,4.1-13.1-6.2-18.8
		c-4.2,2-10.3,4.6-8.8,10.1c0.4,1.4,2.5,2.6,2.3,4.3c-0.2,1.4-3.1,3.5-3.7,6.1c-1.4,6-0.6,15.8,4.6,19.8l0,0L514.7,234.8z
		 M518.2,201.5l5.5,1.4l-3.5,2.8C518.7,204.4,517.6,203.6,518.2,201.5L518.2,201.5L518.2,201.5z M519.5,211.2l-2.8,9.7
		C512.9,219.1,516.2,211.8,519.5,211.2z"/>
	<path d="M626.5,520.6c-2.8-1.9,2.9-13.2-3.4-11.9c-4,0.8,0.4,8.6-0.7,9.7c-4.6,3.1-17.5-6.1-19.5-4.2c-4.5,4.4,14.8,10.4,18,8.4
		c2.7,9.6,0.9,19.2,0.4,28.8c0,1.6-0.7,5.9,1.7,5.8c7-0.2-0.3-26.9,2.7-32c4-2.9,20.1,5.1,17.4-3.4
		C639.2,516.3,630.6,523.2,626.5,520.6L626.5,520.6L626.5,520.6z"/>
	<path d="M365.4,536.7c2.8-1.7,2.5-3.8,2.8-6.5c1.8-12.8,3.1-26.1,6-38.6c1.6-6.7,8.7-10.5,2.2-18c-1.4-1.6-4.5-2.3-5.4-3.9
		c-2.6-4.4,0.6-15.3-7.8-18.4c-17.8,1-9.9,19-19.3,28.7c-1,8.4,8.1,6.4,10.8,8.7c1,0.8,5.8,21.6,6,24.7
		C361.3,519.6,355.1,539.8,365.4,536.7L365.4,536.7L365.4,536.7z M353.3,480.9c-2-5.1,5-3.8,5.6-6.6c0.2-0.9-8-15.1,0.9-15.7
		c4.2-0.3,0.2,9.5,1.8,12.9c1.7,3.7,9.6,6.1,10.2,8.6l-5.5,23.1l-3.8-19.4L353.3,480.9z"/>
	<path d="M384.6,409.4l4.2,0.6l0.7-13.9l11.1,15.3c4.8-1-1.7-22.8,2.1-27.8l-5.3,2.3l-0.9,13c-2.3-5.4-8.2-8.9-7.7-15.2h-5.5l0.2,24
		L384.6,409.4L384.6,409.4L384.6,409.4z"/>
	<path d="M441,401.6c4.6,0,0.7-8.5,2.3-10.9l6-3l0.8,11c9.4,3.9,3.8-7.3,3.9-11.7c0-5.1,2.6-10.5,1.5-16l-4.9,1.3
		c-1.4,5.6,1.2,10.2-5.6,12.5c-4.1,1.1-1.2-11-2.1-12.5c-4.2-4.8-5.1,15.4-5,17.1c0,3.4,0.4,9.5,3,12L441,401.6L441,401.6z"/>
	<path d="M353.3,412.8c-0.2,6.3,5.7,4.6,6,2.1c-3.6-8.6,1.4-13.7,10.1-13.3l-2.1-5.6l-9,4.2c-1.3-7.7,2.8-10.1,9.7-11.1l-2.1-5.5
		l-14.6,6.2c4.7,7.3,2.2,15.1,2,22.9l0,0V412.8z"/>
	<path d="M431.4,403.2c6.1-5,1.2-16.5-3.6-21h5.6c0.8-8-9.4-10.1-10.9-1.8c-1.4,8.2,9.4,8.9,6.7,18.4c-3.7,2.4-6.8-7.3-9.7-4.2
		C416.1,398.2,426.5,407.1,431.4,403.2L431.4,403.2L431.4,403.2z"/>
	<path d="M415.3,410v-30.6c-9.3-0.5-3.9,6.5-4.1,11.8C411,397.1,406,408,415.3,410z"/>
	<polygon points="380.2,385.6 375,383.6 372.3,409.1 377.8,411.4 	"/>
	<path d="M276.3,483c0.2-2,2.7-3.7,2.5-5.3c-0.5-2.9-4.7-8.1-2.5-13.5c-1.8,0-3.8-0.5-4.9,1.4c-1.4,2.2,3,6.6-1.3,5.6
		c-3.6-0.8-22.8-12.6-26.2-15.5c-5.5-4.7-8.3-11-12.7-16.5l-2.7,2.8l-36.2-29.2l-0.7-11.1l-5.4,0.2l-2.2,4c-3.4-3.9-7.9-7.2-11.2-11
		c-1.5-1.7-1.5-4-2.5-5.2c-1.2-1.5-4.9-2.4-5.8-4.6c-0.7-1.8,1.6-4.6,0-7.1c-0.9-1.5-3.7,0-6.3-1.8c-2.5-1.7-16.3-19.1-17.3-21.7
		c-1.5-3.6-0.6-7.4-0.8-11.1l-6.9,4.2c-7.5-13.9-27.2-23.2-30.2-39.8c-1.5-8.5-3.5-16.5-5.4-25.5c-3.8-18.1-5-21,2.3-38.1
		c4.5-10.5,11-21.9,17.2-31.5c3.3,8.3,0.1,23.9,2,31c0.3,1.2,3.5,2.8,4.9,0.9c4.5-6-4.7-31.5-1.5-41.8l30.7-40.2
		c-0.5,10.4-0.6,20.8-0.6,31.3s-4,13.7,4.8,10.4l0.7-43.8c1-5.2,16.2-20.2,20.8-23.7c1.4-1.1,1.8-2.7,4.2-2.1
		c-0.2,7.6,0.3,15.3,0,23c-0.1,4.5-2.7,10.6-1.5,15c0.3,1.1,3.9,2.9,5,1l2.3-49.1l22-21.8v28.5c0,0.2-2.4,2.8,0.7,3.5
		c7.2,1.6,3.5-6.2,3.5-9c0.1-7.6,0.1-28.3,2.5-33.6c2.6-5.8,9.1-11.4,10-18.5c2.5-0.3,1.3,3.1,1.2,4.7c-0.3,4.5-3.5,9.5,4.3,10.6
		l1.2-42.2c-1.3-4.4-6.6,0-8.1-1c-1.5-6-5.8-10.9-7.5-16.9c-0.8-2.7-0.9-5.4-1.1-8c-1.5-1.3-3.8-3.1-5.5-4.3
		c-1.8,1-13.4-7.8-14.5-9.8c-0.2-0.4-0.5-2.4-0.9-5.3l-3-1.5c-13.2,0.8-2.5,5.5-1.7,12.4c1.1,10.1-2.1,19.7,0.8,29.2
		c3.5,0.7,4.8,0,5-3.6c0.3-7.1-2.7-16.6-0.2-24.1l14.6,10.7l-0.8,31c7.3,4.6,4.7-11.3,4.9-16.1c0-1.6-0.9-3.8,1.4-3.4
		c1.7,8.5,12.2,17.3,10.2,26.1c-0.7,3.1-9.5,22.2-11.5,23.3c-1.2,0.6-3.3-0.9-4.7-0.5l-1.6,1.2c2.9,10.9-10.9,23.7-19.4,29.2
		c-2.2,1.5-5.7,1.1-7,2.7c-1.5,2-3,10.6-5.6,13.9c-4,5.2-15.3,11.7-19.4,18.1l-0.7-4.2c-8.5-0.7-3.3,4.7-4.8,8.3l-30.6,40.4
		c0.2-2.4-2.7-9.9-6.2-6.9c-1.3,1.1,0.2,9.5,0,11.6c-2.3,15.8-20.3,34.4-23.6,50.9l-3.5-4.2l-4.6,2.4l2.8,44
		c10.2,7.7,4.6-7.1,4.1-12.5c-0.1-1.6-1.3-5,1.2-4.7c0.4,10.1,5.8,21.2,4.1,31.2c-0.9,5.3-4.8,3.6,1.4,11.2L99,353
		c9.8,8.2,5-6.5,4.9-11.7c-0.2-6.1-0.3-12.8,0.7-18.8l29.6,31.6l2.3,46.3c2.2,3.4,6-0.8,6.3-3.5l-4.2-34c1.6-1.3,5.1,3,6.3,4.1
		c2.1,2.2,14.6,17.3,14.6,18.8v38.9c0,1.9,5.9,3.6,6.8-0.2c0.6-2.2-2.4-15.5-2.7-19.3c-0.2-3.9,0-7.9,0-11.8
		c6.7,7.6,23.6,16.3,23.6,27.1v38.2h5.6l-0.7-40.3l36.6,31.6c3.5,15.5,0.3,32,4.5,47.7h4.1l-2.8-41.7l36.2,21.8l1.9,38
		c-1.5,5.1,5.9,6.1,6.4,0.7c-1-10.4-3.9-23.1-2.8-33.3V483L276.3,483z"/>
	<path d="M324.2,63.6c-0.1,6.6-7.6,9.2-7.7,14.6c0,3.1,5,23.1,6.5,26c1.6,3.1,3.1,3.8,6.1,1.6c-0.2-4.5-0.1-9.9-0.7-14.6
		c-0.7-5.9-4.8-7.5,2.9-12.4c0.8,0,11.8,8.7,13.4,10.2c2.7,2.4,7.7,11,11.8,9.9c9.9-2.5-6.7-14.7-9.1-18c-3.3-4.5-6-11.8-9.3-16.6
		c2.3-1.4,4.6-3,6.3-5.1c1-1.2,1.7-2.5,2.1-4c0.2-0.6,0.5-1.6,0.3-2.3s-0.8-1.6-1.3-2.1c-0.6-0.5-1.2-0.9-1.9-1.2
		c-1.2-0.6-2.4-1.1-3.6-1.6c-0.8-0.4-1.9-0.8-2.4-1.6c-0.8-1.3-1-9.5-0.3-10.6l0,0c-0.7-0.8-1.8-1.9-2.5-2.8
		c-1.4-0.3-2.6-1.8-4.8-1.8c-6.3,0-10.2,13-6,16.9l-4.3,1.6c1.1-3.6-1.6-13.2-6-8.7c-3.1,3.2,0.1,8.7,0.4,12.6
		c0.7,9.7-2.5,22.8,9.9,10.1h0.2V63.6z M328,51.7c1.2-2.5-0.6-9.5,0-13c0.4-2.6,1-2.4,3.7-2.1c2.3,3.9-1.3,8.2,0.6,11.9
		c1.2,2.3,7.9,2.8,8.2,7c0,3.1-8.6,4.5-7.7,10.7c0.5,3.2,10.3,10.5,9.8,15.7c-7.8-6.3-10.5-11.3-18.9-2.2l-1.6,9.7l-0.9-11.1
		c0.5-3,4.4-4.2,5.9-8.1c1.1-2.7,3.4-16.4-1.3-15.3l-7,6.5v-4.7L328,51.7L328,51.7L328,51.7z"/>
</g>
<g id="text" class="st0">
	<g>
		<text transform="matrix(1 0 0 1 1948.7982 491.7997)" class="st1 st2 st3">DOHLÁŠKY</text>
	</g>
	<g>
		<text transform="matrix(1 0 0 1 1393.8982 461.7997)" class="st1 st2 st3">PŘIHLÁŠKY</text>
	</g>
	<g>
		<text transform="matrix(1 0 0 1 1211.6981 -47.7003)" class="st1 st2 st3">KORIDOR III.</text>
	</g>
	<g>
		<text transform="matrix(1 0 0 1 1515.7982 -288.0002)" class="st1 st2 st3">START</text>
	</g>
	<g>
		<text transform="matrix(1 0 0 1 1296.1981 7.1997)" class="st1 st2 st3">KORIDOR II.</text>
	</g>
	<g>
		<text transform="matrix(1 0 0 1 1373.2982 68.3997)" class="st1 st2 st3">KORIDOR I.</text>
	</g>
	<g>
		<text transform="matrix(1 0 0 1 -6.4018 87.2997)" class="st1 st2 st3">SBĚRKA</text>
	</g>
	<g>
		<text transform="matrix(1 0 0 1 313.8982 350.4998)" class="st1 st2 st3">CÍL</text>
	</g>
	<g>
		<text transform="matrix(1 0 0 1 405.0982 -455.6002)" class="st1 st2 st3">RADIO 2</text>
	</g>
	<g>
		<text transform="matrix(1 0 0 1 838.6982 -231.2003)" class="st1 st2 st3">RADIO 1</text>
	</g>
	<g>
		<text transform="matrix(1 0 0 1 576.3983 779.9998)" class="st1 st2 st3">VYČÍTÁNÍ ČIPŮ</text>
	</g>
	<g>
		<text transform="matrix(1 0 0 1 736.3983 448.4998)" class="st1 st2 st3">CENTRUM IT</text>
	</g>
	<g>
		<text transform="matrix(1 0 0 1 1035.2982 947.9998)" class="st1 st2 st3">VÝSLEDKY</text>
		<text transform="matrix(1 0 0 1 919.1982 1007.9998)" class="st1 st2 st3">MY RESULTS BOARD</text>
	</g>
</g>
</svg>
