<?xml version="1.0" encoding="UTF-8"?>
<svg id="Layer_1" xmlns="http://www.w3.org/2000/svg" version="1.1" viewBox="0 0 2500 1700">
  <!-- Generator: Adobe Illustrator 29.1.0, SVG Export Plug-In . SVG Version: 2.1.0 Build 142)  -->
  <defs>
    <style>
      .st0, .st1 {
        isolation: isolate;
      }

      .st0, .st2 {
        display: none;
      }

      .st1 {
        fill: red;
        font-family: K2D-Bold, K2D;
        font-size: 50px;
        font-weight: 700;
      }
    </style>
  </defs>
  <g id="design">
    <g>
      <path d="M1043.7,845.4c-1.7,1.1-3-1.2-2.1,4.1l6.9-6.9c-3.1-.5-2.2,1.2-4.8,2.8h0Z"/>
      <path d="M1013.1,842.5c1.4,0,2.9-4.6,2.1-5.5-2.5-2.6-6.2,5.6-2.1,5.5Z"/>
      <path d="M912.2,904c-.4-2.8,5.7-12.2-.2-17.6-4.7-2.3-10,.5-10.5,5.8-.2,1.7,1,3.2.3,5.7-.8,3-4.4,6.1-5.3,10-2,8.6,2.8,14.8,3.4,23.7.3,4.7-2,18.1,0,21.1,3.8,6,5.2-12,5-14.2l3.8,13.1c1.2,1.8,4.4,1.2,4.9-.6.8-2.9,0-14.4,0-18.5,0-6.1-2.7-6.8.6-15.7,1.4-3.7,6.1-4.7,2.1-9.9-1.1-1.4-3.8-2.1-3.9-2.9h-.2ZM908.5,922.1c-5.7,0-8.2-3.6-8.2-9.3s5.8-11.2,6.4-14.4c.6-3.1-3.8-8.4,3.5-7.9,2.1,4-2.9,11.2-2.8,13.2.4,4.3,5,4.5,5,7s-4.7,8-3.9,11.5h0Z"/>
      <path d="M976.3,937c-5,2.4-2.6,9-4.8,13.2-8.8-2-10.2,7.8-8.3,14.1l5.3,2c1.3,7.3-3.5,17.2,0,23.7,1,1.8,2.9,4.1,4.8,1.8l2.6-8.8c0,3,1.4,5.8,4.8,5.4,3.8-1.2,2.9-17.6,2.8-21.2-.2-4.2-2.3-12.4-1.9-16.2.2-1.8,2.3-3.1,2.7-4.7,1.6-5.8-1.9-12.3-8.2-9.3h.2ZM978.7,975.4l-1-6.6-4-1.7-.4-9.2h-4.4l-.5-2.1,7.2-1c.6-3.5.7-7,1.5-10.5.5-1.8-1.1-3.2,2.2-2.6-4.9,11.3,2.5,22-.5,33.8h0Z"/>
      <path d="M996.2,895.7c-2.7-8.6-14.4-7.2-17.6,0-2.7,6.2,2.4,7.1,5.9,10.7,7.3.5,14.3-2.3,11.6-10.9h0v.2ZM983.2,895.4c4.5-3.7,10.5,2.7,6.9,5.5-1.8,1.4-7.8-2.1-6.9-5.5Z"/>
      <path d="M984.6,906.5c-4.3-.3-12.2-3-11.1-8.3-6.8-1.6-3.5,6.2-7.7,11.1-1.2,1.4-1.7,2-2.8,0-1.9-3.5-.6-35.5-.6-42.5s-1.9-14.9-1.4-20.6c.8-8.3,10.1-28.6,12.8-38.7,4.1-14.9,5.2-19.9,5.2-35.2,0-23.1.4-73.7-36.1-52.7.9,3.2,3.5,4.6,4.1,8.3,4.1,26.2,3.7,56.7,5.6,83.3,1.4,19.4,5,38.8,5.6,58.3.5,14.4.5,30.3-1.3,44.4l2,2.2c7.6-2.6,3.3-.6,5.5,4.1,3.8,8,24.7,3.7,25.7-3.5.8-5.7-2.3-7-5.6-10.4v.2h0ZM959.6,832.8l-8.4-107.7.6-2.2c1.7-2.4,12.1-1.7,14.3.5,1.7,1.6,5.2,14.1,5.8,17.2,5.9,32.3,2,50.7-7.5,81.2-1,3.2-2.1,9.2-4.8,11.1h0ZM983.8,916.3c-5.9,1.4-17.4,6.4-13.9-4.3,3-9.2,9.5,0,14.7,1.5l-.8,2.8Z"/>
      <path d="M1112.3,799c-4.7-9-9.7-10.9-19.9-9.2-15.2,2.5-16.2,24.6-14.6,36.6,2.9,21.8,20.3,43.3,24,60.9,4.2,19.9-1.2,49.7,3.8,68.4,1,3.7,3.7,8.8,8.2,7.8,3.3-6.4.2-13,.3-18.8.5-30.6,1.3-61.5,1.1-91.7,0-13.5,2.6-43.5-2.9-54ZM1111.2,925.3c0,2,0,7.3-2.8,7.6-.5-10.4.6-20.9,0-31.3-1.4-22-8-28.2-15.3-47.2-5.1-13.4-20.2-56.9,2.8-59.9,16.1-2.1,15.2,22.2,15.4,32.1.6,31.7,2.1,66.7,0,98.7h0Z"/>
      <path d="M1514,817.2c5.1-11.3,17-25.9,16.8-38.5-.3-14.4-20.3-48.9-30.4-59.9-1-1.1-9.7-9.1-10.4-9.1-6.9,0,.3,13.7.7,18.8,2.4,27.9-.9,60.5,0,89.1.8,30.9,4.7,62.2,4.3,93.1,0,5-4.2,10.6,4.1,11.8,1.5-17.7-2.7-35.6-1.4-53.6,1.2-17.4,9.3-35.8,16.5-51.6h-.2ZM1494.7,817.4l.7-95.2c5.6,7.9,11.9,15.2,16.5,23.8,3.2,6.2,13.1,28.2,13.3,34,.2,8.4-11.1,22.9-14.8,30.8-4.9,10.5-8.9,21.5-12.9,32.3l-2.8-25.8h0Z"/>
      <path d="M1257.2,928.8c-1.4-2.4.9-8.3-.9-10.9-6.7-4.3-15.5-2.7-14.8,6.4.2,3.3,3.1,5.1,3,8.2-.2,3.6-4.9,8.8-4.2,13.4l-4.2-1.4c2.1-5.7,1.6-10.6-2.4-15.3-11-3.3-10.9,7.8-10,16-12.3,3.1-.6,11.1,1,17.2,1.4,5.1,2.5,33.5,4.8,34.9,4.6,2.4,5.8-2.6,6.2-2.7,1.9,0,5,3,6.9,0l.6-19.5,6.3,19.5c1.2,1.7,5.2,2.3,6.4.5,4.4-6.2-7.1-42.8,1-53.8,1.6-2.2,5.3-2.1,5.7-6,.5-5.4-4.6-5.2-5.4-6.4h0ZM1237.7,976.4c-3.6,0-5.2-.9-6.2,2.8-2.1-6.3.4-13.6-1.1-19.9-.7-2.8-4-5.1-3.9-7.2,0-1.9,2.5-3.4,2.6-5.5.3-3.7-4.1-8.7-1.3-13.3,8.6,0,.8,12.6,3,15.1.4.4,3.3.3,4.8,1.4,3.9,3,.4,6,.7,9.1.4,5.6,2.5,11.3,1.5,17.4h0ZM1243.2,973.6c-3.2-1.9-.6-9.3-1.4-12.5,3.2,1.8.6,9.3,1.4,12.5ZM1250.2,942.2c-.2,3.8,0,11.1,0,15.3,0,8.8,2.5,17.2.9,25.8-3,0-5.5-35.2-4.9-39.5,1.3-9.1,7.8-12.1-.2-22.4l5.6-.7c-2.5,5.1,2.8,12.4,2.9,14.6,0,2.8-4,3.8-4.1,6.8h-.2Z"/>
      <path d="M1373.8,893.4c.3-1.4,8.3-2.8,1.4-8.6-8.1-6.8-21.1,0-22.2-.8,2.3-7,1.5-15.5,1.5-23s-1.6-7.5-1.5-11c0-5,4.6-10.3,4.3-13.9-.2-1.8-2-3.1-2.4-4.7-1.3-5,.5-8.1-5.5-11.2-11.3-5.9-10.9,10.4-10.2,17.9-2.5-1.7-9.5-5.1-11-.5-1.7,5.2,4.6,7.5,6.7,11.1,6.4,11.5,3.9,25.9,4.3,38.5l2.8,1.6-11.9,3.4c-1,4.5-2.4,18.3,4.3,18.2.8,0,.5-2.5,1.6-2.8,9.2-2.3,18.1,2.5,31.4-3.2,8.7-3.7,5.3-5.3,6.6-11.2l-.2.2h0ZM1338.9,844.5c0-.9,2.9-1,4-3.1,2-4.1,2.9-11.3,1.7-15.7h4.2c-2.7,5.2,1.1,8.4,1.4,11.9.4,5.7-3,16-1.4,22.9-2.1,2.9-9.8-14.3-9.8-15.9h0ZM1347.8,883.8c.5.8,3.8-.4,1.7,1.7l-6.3,2.8,2.8-9.7c2.7-.2.5,3.2,1.8,5.3h0ZM1367.3,899.5c-6.6,4.7-19.5,4.5-26.8,1.3,5.1-3.4,17.7-13.1,23.2-13.5,1.6,0,3,.9,4.6,1-2.6,3.9,4,7.7-.9,11.2h0Z"/>
      <path d="M1565.3,817.8c-1.8-8.8-13.5-16.5-22.3-16-14.2.8-22.3,15.4-27,27,5.9,38.8,4.9,77.7,6.6,116.5,0,2.6-1.9,25.9,2,25.7l3.5-4.9c-3.4-28.9,2.6-58.1,14.1-84.6,8.3-19.1,27.7-41.6,23.1-63.8h0ZM1526.7,914c-2.6.3-1.1-2.9-1-4.5.6-6.5,1.2-11.7,1-18.5-.8-20.7-11.2-58.2,1.4-75.1,8.8-11.8,28.7-10.1,31.7,3.1,5.7,25.1-33,67.4-33.1,94.9h0Z"/>
      <path d="M994.4,811.4c2-16.9-4.2-38-2.5-55.3,4.6-8.6,10.1-16.5,16.4-23.9,3.1-3.7,8.3-6.8,10.6-9.6,1.2-1.4,2.2-3,2.9-4.7l-2.7-55c-.6-2.1-19.9-16.6-23.4-19.7-3-2.7-4.8-10.5-9.5-4l2.6,177c4.5.5,5.2-.7,5.6-4.8h0ZM1014.5,666c1.5,8.5.3,17.2.7,25.7.3,6.6,3.5,19.5.7,25.7-.4.8-11,10.7-13.2,13.3-3.6,4.2-7.9,9.3-9.8,14.6l-1.4-98.7,22.9,19.4h0Z"/>
      <path d="M1394.1,834c-4,.4-5.4,4-9.1,4.2,0-2.8.3-5.7-.6-8.4-1.1-3.4-4.2-3.6-4.7-4.4-1.8-3.2,3.3-8.8-2.3-15.1-8.7-9.7-14.1,8-9.1,15.4-3,0-5.2.2-5.7,3.5-.4,3.3,4.1,15.2,4.3,20.9.2,7.7-4.3,17.4,3.7,22.6l9.7-3.9c0-7.4-1-15.5-.8-22.9,0-2.8-.9-4.1,2.8-3.5-3,6.3,1.9,9.8,1.4,17.3-.6,9.5-9.9,26.3,2.1,31.4,5-.9,5.3-5.5,4.9-9.8,2.4.5,4.7,8.9,7.7,4.2s-1.6-14-.8-18.8c.6-3.3,3.3-2.9,4.3-4.4,4.4-6.8-2.3-8.3-2.9-12.3-.7-5.2,6.5-17.1-4.7-15.9h-.2ZM1379.1,836.5c-.4.7-3.6,1-4.7,4.4-1.9,5.8,5.3,15.2-3.3,19.5v-20.2c0-7,1.2-9.8,1.5-15.2.2-4.1-1.8-7.8-1.5-11.8,8.4.6,1.7,10.7,2.9,14.4.8,2.3,8.2,3.7,5.1,9h0ZM1386.3,884.1c-2.5.3-1.3-3.1-1.2-4.7,0-1.5.7-7.7,2.6-7.8l-1.4,12.5ZM1387.7,864.6c0-7.9,3-12.6-1.5-20l7.8-6.4c.5,7.8-2.7,13.4,2.1,20.8l-8.3,5.6h0Z"/>
      <path d="M1276.5,679.3l-.2-36c-3.6-2-27.2-16-29.1-15.6-.7.2-6.9,4-6.9,4.4,1.2,4.7,3.7,7.2,4.3,12.4,3.8,34.8.9,83.1-1.4,118.1-.8,11.7,1.6,23.6.2,34.7l5.4,2.2c.4-9.8-1.7-18.7-1.4-28.6.2-6.8,2.4-15.3,2.8-22.2.6-9.4-.4-19,0-28.5,9.5,3.4,18.5,9.6,29.1,11.1,3.1-7.3-2.8-13.8-2.8-21.5s2.4-20.6,0-30.5h0ZM1250.2,714.6l-2.9-80.5,24.9,13.4,1.5,76.9c-9.2-1.1-14.8-9.1-23.5-9.8h0Z"/>
      <path d="M1307,843.7c2.7.4,3.7-1.1,4.2-3.5,1.8-9.8-.3-27.8,0-39,.6-16.9,6.6-32.3,14.9-47.5,7.4-13.5,21.4-26.4,22.5-42.8,1.8-25.9-25-41.8-38.7-16.4-12.4,22.9-4.1,82.5-2.9,109.5.6,13.2-.6,26.5,0,39.7ZM1313.9,698.3c8.3-19,27.2-10.8,29,6,2.5,23.8-27.5,47.6-31.7,71.2-3.2-.7-1.9-2.5-2.1-4.2-1.8-18.4-2.4-56.4,4.8-73.1h0Z"/>
      <path d="M1426.7,802c2.8-19.4-12-21.6-11.8-1.3l-1.4,1.3c-3.5-4.7-8.1-.8-7.1,4.3.6,2.7,3.3,5.1,3.3,7.3,0,5.3-6.7,10.1-6.7,15.5s4.1,9.7,9.8,6.3c-.8,6.9-3.7,32.4.6,36.2,2.7,2.4,5.1.3,6.1-2.5.7-2.1-.9-6.1,1.7-6,.3,6.7-2.8,24.5,8.1,15.8l8.6-70.7c-.4-4.7-7.1-6.6-11.1-6.3h0ZM1422.4,792.3l-2.1,8.3c-3.3-1.8-2.3-9.2,2.1-8.3ZM1426.6,866.7c-.4,2.3.9,2.4-2.7,2.1v-20.2l-6-3.8,1.7-21-5.4-4.5c2.4-4.3,4.3-6.9,1.4-11.8,6.4-3.1,10.5-.9,16.8,2.3-2.3,18.8-2.2,38.1-5.7,56.8h-.1Z"/>
      <path d="M1360.9,962.9c4.4-3-4.8-15.3-5.2-19.6-.3-3.5,2.8-8.8-.8-12.7-3.8-4-11-4.1-14.7.6-7.1,9,.8,11,.9,14.8,0,1.6-2.2,15.1-2.7,16.7-1.1,3-4.9,4.3-5,8.6,0,1.5,3.7,18.7,4.4,20.6,1.5,4.2,7.9,5.6,9.2,1.5l.2-14.4,11.8,13.9,3.4-2.3-5.7-24.9c-.6-3.1,2.7-1.7,4.2-2.8h0ZM1349.9,966.4l-5.4.2-4.3,13.7c-1.7-8,3.3-13.4,4.8-20.8,1.6-7.5,2.4-16.1-.9-23l6.9-2.1c.3,2.8-2.3,5.3-2.4,7.9,0,3.1,3.4,5.9,3.3,8.1,0,1.4-3,4.4-3.3,7.3-.3,2.9,1.6,5.7,1.2,8.7h.1Z"/>
      <path d="M1040.8,775.8c8-13.2-7.5-20.9-14.3-8.8-1.6,2.9-1.5,6.3-3.2,9.3-4.5,8.1-14.2,16.6-12.9,26l-7.7,1.3c1.5,13.7-5.6,28,15.1,20.7,2.7-4.3-7.6-13.9.2-17.9l5.5,20.2c14.8,1.8,7.5-15.3,7-23.7-.4-5.8-.9-16.3,2.7-20.9,1.8-2.3,5.5-3,7.6-6.3h0ZM1008.3,820.3c-.4-4.5-4.4-12.1,2.7-12.5l1.4,12.5h-4.1ZM1022.1,807.8c.4-6.1.3-10.4-5.5-13.2l6.9-7.7,2.8,17.4-4.2,3.5h0ZM1032.6,774.4c-3.9-1.1-1.4-7.7,1.4-8.3,4.7-1.1,5.1,10.2-1.4,8.3Z"/>
      <path d="M1205.7,924c-.7-4.4-4.5-3.9-5.3-5.2-1.4-2.2.3-8.1-3.1-11.5-6.6-6.6-25.3,8.1-13.9,13.9l-5.7,5.6c-.6,4.1,3.2,7.4,4,11.4,1.4,7.7.3,21.4,3.3,28.6,1.2,2.8,4.1,1.6,5,2.6,1.3,1.4.6,11.1,3.8,12.2l4.2-1.3.7-7,5.5,1.4c2.4-1.7.3-26.5-.2-31.1-.3-3.2-2.8-10.7-2.6-12.6,0-1.3,5.2-.6,4.2-7h0ZM1199.7,950.6c0,2.9-4.4,6.2-4.1,10.3l-1.1-5.7-5.5,1.4-4.2-28.4c0-1.2,5.9-.6,6.8-4.5,1.6-6.2-14-6.3.8-12.9,1.9,0,3,9.9,3.1,12.1,0,2.4-2.1,3.9-1.7,6.1,1,5.6,6.3,14.1,6,21.8v-.2h-.1Z"/>
      <path d="M1155.7,783.7c-.3,13-4.8,29,14.5,20.6l2.5.7c3.1,2.2,1.9,15.4,10,9.9l1.8-36.5c-.4-5.1-7.3-7-11-4.6-3.9,2.6,3.3,9.9-2.7,11.9-1.7-5.4,1.8-14.4,1.3-18.7-.2-1.8-2-3.1-2.2-4.5-.5-3.4.7-14.6-6.5-12.8-8.3,2.1-4.3,14.6-5.3,18.3-.8,3.2-10.5,5.7-8.1,12.6l5.6,3.1h0ZM1162.6,763.3c2.1,0,2.4,4.9,2.6,6.4.8,6.4.2,13.6,2.2,20,2.8,4.4,9.9-3.2,10.5-2.8l1.4,13.9-6.3-5.6-5.5,4.1-2.1-5.5-5.5,1.4c-2.1-4.3,3-13.5,2.5-15.8-.6-3.1-5.1-2.4-5.3-5,7.5.5,5.5-5.6,5.6-11.1h0Z"/>
      <path d="M1062.6,790.6c-3.9,1.4-8.4-1.7-11.2-4.3,5.1-1.7,5.8-2.7,7.7-7.7,1.8,1.9,8,2.5,8.7,3.1,1,.9.7,8.2,5.2,3.9,2.3-5.6-.4-9.9-6.3-9.8-.8-.9,3.6-9.4-.4-13.5-2.3-2.4-6.6-1.4-8.6,1.1-4.1,4.9.2,12.8-6.4,17.3-1.9,1.3-5.1,1.2-6.5,2.5-6.5,5.7,15.6,10.6,1.7,13.5l-.7,2.2c4.8,5.3,5.8,21.7,14,19.5v-13.2c4.4,2.4,4.8,13.1,11.1,6.1l-5.6-16.4,5.6-5.7c-3.1-4.5-5,.2-8.3,1.4h0ZM1063.8,766.1c0,2.8-1.4,8.5-4.1,9.7l4.1-9.7ZM1054.8,806.4c-2.3-1.7-2.3-4.3-2.1-6.9h2.8l-.7,6.9h0Z"/>
      <path d="M1194.1,901.4c4.9-4.4,17.9-21.3,5.3-22.7-9.2,2.7-24.5-2.5-32.4,1.1-6.9,3.2-9,17.5-5.9,24,10.4-4,22-1.5,33-2.4h0ZM1166.7,887.8c.9-.7,3-3.5,3.5-3.5h28.5c-.3,2.1-6.2,5.6-7.6,5.6h-24.3v-2.1h0ZM1169.5,896.8v-1.4h22.2v1.4h-22.2Z"/>
      <path d="M1200.2,780.7c0,4.3-3,9.9.6,13.2,1.5,1.4,4.5.9,4.9,2.2,1.6,5.7-1.7,18.2,2.8,25.4h5.3c3.6-3.2-2.8-27.7,6.8-26.4,3.2-7.3-4.5-15.4-5.1-20.3-.4-3.4,3.7-18.8-7.6-15.5-.7.2-8.6,10.2-8.8,10.9-.9,2.9,1,7,1,10.5h0ZM1204.2,771.3l7-6.5c1,3-2.7,5.3-2.5,7.4.3,4.2,11.8,17.4,3.2,20.4-1.7-3.9-3.2-4.7-7.6-4.2-.5-3,2.9-4.8,2.7-7.6,0-2.5-4-5-2.8-9.5h0Z"/>
      <path d="M1389.5,937.6c-2-3.3.4-11.4-5.9-13.7-13.3.8-7.4,14.2-14.4,21.4-.7,6.3,6.1,4.8,8.1,6.5.7.6,4.3,16.1,4.5,18.4.4,4.6-4.2,19.8,3.5,17.4,2.1-1.2,1.8-2.8,2.1-4.8,1.4-9.5,2.3-19.5,4.5-28.9,1.2-5,6.5-7.8,1.6-13.5-1-1.2-3.4-1.7-4.1-2.9h.1ZM1386,962.6l-2.9-14.5-6.9-2.2c-1.5-3.8,3.7-2.9,4.2-4.9,0-.7-5.9-11.3.7-11.7,3.1-.2.2,7.1,1.3,9.7,1.3,2.8,7.2,4.6,7.6,6.4l-4.1,17.2h.1Z"/>
      <path d="M1151.3,908.5c-3.2,4.4,0,7.5-.2,11.2-.7,13.2-5.9,26.7-1.1,39.6,7.6,1.5,7-9.7,9.6-13,1.2-1.6,4.7-.6,5.5-3.1-1.2-6.2,0-33.8-3-36.3-2.7-2.3-8.7-1.3-10.9,1.6h0ZM1154.2,931.5l1.4-9.7,4.2,8.3-5.6,1.4Z"/>
      <path d="M1105.5,733.5c-.3,2.5,1.3,5,1.2,6.9-1.1,10.5-4.9,18.8.3,29.9l5.5-1.4c1.9,4.2.5,15.8,6.3,16.7l2.8-2.8-1.9-38.7c16.9-9.8-12.7-22.6-14.1-10.6h-.1ZM1115.3,760.6h-5.5c.5-5.9-2.1-12.8,3.5-16.7,3.3,4.9,1.8,11.2,2.1,16.7h0ZM1109.7,734.8c-.3-3.6,12.4.2,9.7,3.5-2.4,2.9-9.5-1-9.7-3.5Z"/>
      <path d="M1139.5,832.9l22.1,2.6,9.1-9c-2.4-5,2.5-13.9-4.9-15.7-2.9-.7-10.2,2.8-14.2,1v-4c-1.6,0-2.9-.3-4.3.6-.7.5-9,13.8-9.2,14.6-.6,2.4,3,6,1.5,9.8h0ZM1147.6,817.2c4.8-2.1,11.2-.7,16.3-1-3.1,6.8-11.9,3.4-18.1,4.1-.4-2.8-.3-2.3,1.7-3.1h0ZM1157,824.5v4.2c-5,.6-8.9,1.5-13.9,0,1.4-6.9,8.7-4.3,13.9-4.1h0Z"/>
      <path d="M1016.3,913.4c-1.3-.5-1.1-2.1-1.5-2.3-2-.9-14.7-.9-16.3.2-3.1,2.1-6.8,17.1-4.9,20.2,1.3,1.9,2.2.8,3.5.8,2.7,0,14.1-.7,15.3-1.5.5-.3,8.2-9.1,8.4-9.7,1.9-9.8-1-6.4-4.5-7.7ZM999.9,927.4c-1.3-4.3,8.4-7.2,8.3-3.5,0,1.9-6,4.4-8.3,3.5ZM1008.2,917.6h-5.6c.7-2.8,3-3.1,5.6-2.8v2.8Z"/>
      <path d="M1090.7,950.6c-1.3-.9-1.2-4-4.1-4.9-17.7-5.6-17.1,20.3-5.2,22,5.5.8,10.4-3.5,16.5,1.4,1.9-.4,3.9-10.8,3.3-12.9-1.2-4.6-8-3.7-10.5-5.6h0ZM1082.7,962.2c-7.1-.8-7-13.7,1.2-11,1.6.4,1.9,3,2.7,3.5,3.3,2.1,9.4,2.8,9.3,7.4-4.6-2.2-9.4.5-13.1,0h0Z"/>
      <path d="M1253.2,800.6c4.1,2.2,8.4,3.1,11.4-1.1,5.8-8.2,5.7-14.2,5.8-23.5l-1.6-2.9c-13.7,3.8-22.7,13.3-15.6,27.5h0ZM1259.8,796.7c-2.1,2.3-5.6-4.3-4.1-6.9,2.4.3,5.5,5.5,4.1,6.9ZM1262.6,789.8c0-2.6-.4-6.1,2.8-7,0,2.6.4,6.1-2.8,7Z"/>
      <path d="M1152.2,893.3c-.5-6.3-7.5-5.2-12.2-4.5-12.3,1.9-24.8,9.8-12.1,21.3,5.3,2.4,12.9-5.7,16.7-8.3,3.2-2.2,8.3.2,7.6-8.5ZM1140.3,896.1c-1.8,1.1-2.3,5-6,6.7-1.7.7-5.9.4-6.5-.4-2.7-3.6,14.7-11.4,18.1-9.7,1,4.5-3,1.9-5.5,3.5h0Z"/>
      <path d="M1005.5,860.6l4.9-1.3c1.9-2.9-1.4-9.5,3.4-11.2l-1.4,18.1h7c1.3-5.8-1.3-12.1-1.4-17.4,0-4.7,3.5-10.4-.2-15.8-13.8-.7-9.4,3.6-10.1,11.4-.4,5.4-1.5,10.9-2.3,16.2h0ZM1015.2,837c.9.9-.6,5.5-2.1,5.5-4.1,0-.4-8.2,2.1-5.5Z"/>
      <path d="M1218,900.3c.4-4.5,1.2-6.8,1.5-12.5.2-2.5,2.5-8.8,1.3-10.3-.4-.5-4.9-2.2-5.3.8v13.6c-.5,1.3-4.2.7-6.4,3.7-1.6,2.3-7.5,14.8-4.9,16.6,8,1.4,4.9-9.3,9.7-12.5l1.3,14.5,4.3.8c1-4.9-2-10-1.5-14.6h0Z"/>
      <path d="M1314.7,986.5c-9.1,2.7-3.6,18.3,7.4,13,7.4-3.6,2.2-15.9-7.4-13Z"/>
      <path d="M1037.7,841.5c-2.7,4.8.2,18.5,8.7,10.8,15.6-13.9-4.9-17.6-8.7-10.8ZM1043.7,845.4c2.6-1.7,1.7-3.3,4.8-2.8l-6.9,6.9h0"/>
      <path d="M1327.9,859.7l-6-1.9c-6.2,3.1-6.7,9.5-3.1,15.1,6.1,6.2,14.3-7.5,9.1-13.3h0ZM1321,868.8v-2.1l4.1-3.5c.5,3.3-.6,5.9-4.1,5.6Z"/>
      <path d="M1307.1,898.7c1-8.9,6.5-20.6,1.4-27.8-2.3-3.2-5-4.8-7.8-4.8,2.5-4.6,1.5-13.1-4.9-12.3-5.9,2.4-6.6,12.8-1.5,14.9-.3.3-.7.6-1,.9-7.7,7.2,1.1,11.4,1.4,16.6.3,4.2-2.5,8.2-2.9,12.5-.4,3.4-1,20.1,3.5,20.1l6.2-8.3,2.1,6.9c5.5,1.1,3-14.9,3.5-18.7h0ZM1303,899.9c-.4,1.5-3.2.7-4.3,1.5-2.2,1.7-.2,5.1-2.8,4.9-.6-7,5.9-16.2,5.2-22.8-.5-3.9-5.3-5.3-5.2-9.2h8.3l-1.3,25.6h.1Z"/>
      <path d="M1196,731.5c-1.5,4.1-3,9.1.4,12.5,7.4,6.2,16.3-14.7-.4-12.5Z"/>
      <path d="M1233.3,910.1c7,1.4,10.2-11.6,2.5-11.6s-8.9,10.3-2.5,11.6Z"/>
    </g>
  </g>
  <g id="text" class="st2">
    <g class="st0">
      <g class="st0">
        <text class="st1" transform="translate(2042.3 1122.7)"><tspan x="0" y="0">DOHLÁŠKY</tspan></text>
      </g>
    </g>
    <g class="st0">
      <g class="st0">
        <text class="st1" transform="translate(1487.4 1092.7)"><tspan x="0" y="0">PŘIHLÁŠKY</tspan></text>
      </g>
    </g>
    <g class="st0">
      <g class="st0">
        <text class="st1" transform="translate(1305.2 583.2)"><tspan x="0" y="0">KORIDOR III.</tspan></text>
      </g>
    </g>
    <g class="st0">
      <g class="st0">
        <text class="st1" transform="translate(1609.3 342.9)"><tspan x="0" y="0">START</tspan></text>
      </g>
    </g>
    <g class="st0">
      <g class="st0">
        <text class="st1" transform="translate(1389.7 638.1)"><tspan x="0" y="0">KORIDOR II.</tspan></text>
      </g>
    </g>
    <g class="st0">
      <g class="st0">
        <text class="st1" transform="translate(1466.8 699.3)"><tspan x="0" y="0">KORIDOR I.</tspan></text>
      </g>
    </g>
    <g class="st0">
      <g class="st0">
        <text class="st1" transform="translate(87.1 718.2)"><tspan x="0" y="0">SBĚRKA</tspan></text>
      </g>
    </g>
    <g class="st0">
      <g class="st0">
        <text class="st1" transform="translate(407.4 981.4)"><tspan x="0" y="0">CÍL</tspan></text>
      </g>
    </g>
    <g class="st0">
      <g class="st0">
        <text class="st1" transform="translate(498.6 175.3)"><tspan x="0" y="0">RADIO 2</tspan></text>
      </g>
    </g>
    <g class="st0">
      <g class="st0">
        <text class="st1" transform="translate(932.2 399.7)"><tspan x="0" y="0">RADIO 1</tspan></text>
      </g>
    </g>
    <g class="st0">
      <g class="st0">
        <text class="st1" transform="translate(669.9 1410.9)"><tspan x="0" y="0">VYČÍTÁNÍ ČIPŮ</tspan></text>
      </g>
    </g>
    <g class="st0">
      <g class="st0">
        <text class="st1" transform="translate(829.9 1079.4)"><tspan x="0" y="0">CENTRUM IT</tspan></text>
      </g>
    </g>
    <g class="st0">
      <g class="st0">
        <text class="st1" transform="translate(1128.8 1578.9)"><tspan x="0" y="0">VÝSLEDKY</tspan></text>
      </g>
      <g class="st0">
        <text class="st1" transform="translate(1012.7 1638.9)"><tspan x="0" y="0">MY RESULTS BOARD</tspan></text>
      </g>
    </g>
  </g>
</svg>