<?xml version="1.0" encoding="UTF-8"?>
<svg id="Layer_1" xmlns="http://www.w3.org/2000/svg" version="1.1" viewBox="0 0 2500 1700">
  <!-- Generator: Adobe Illustrator 29.1.0, SVG Export Plug-In . SVG Version: 2.1.0 Build 142)  -->
  <defs>
    <style>
      .st0, .st1 {
        isolation: isolate;
      }

      .st0, .st2 {
        display: none;
      }

      .st1 {
        fill: red;
        font-family: K2D-Bold, K2D;
        font-size: 50px;
        font-weight: 700;
      }
    </style>
  </defs>
  <g id="design">
    <g>
      <path d="M778.5,643.3l4.1-6.4c.4-1.6-1.3-3-2.7-3.4-2.9,3.8-5.4,5.3-8.2,8.2h0c.3,6.6,3.7,3.7,6.9,1.5h0Z"/>
      <path d="M754.8,602.3c0-.9-2.9-2.7-4.1-2.1-5.2,10.3-14.4,17.5-22.2,25.7l5.5,2.1c-.5-6.3,21.1-22.5,20.8-25.7Z"/>
      <path d="M906.2,376.7c-2.8,1.3-19.3,9.7-19.9,10.7-4.9,7.9,12,4.2,11.8,7.7-2.3,3.4-12.2,9.7-11,13.7.8,2.6,5.2,2.5,6.5,4,1.7,2,1.2,7.2,6.7,8l10.3-7.7c-3.6-4.8-8.7.8-12.5,2.1-2.7-3.3,16.8-13.5,20.3-13.9,14.9-1.8,23.4,15.5,38.1,13.9-2,4.4-13.7,7.2-13.4,11.8.6,8.1,17.7,4.6,20,12.8.3.9.3,13.7,0,14.7-.9,3.2-6.8,5.3-6.8,8.7,14.1,14.8,3.5,18.4-5.6,30.7,2.5,7.5,7.6,12.5,7.9,21,.2,4.9-3.1,21.3-7.1,24.3-2.7,2-8.7-1.9-14.6,2-3,2-7.3,8.8-2.9,11-2.2,3.5-3.8,1.1-6.9.7,0-4.4,12.5-19,12.5-20.1s-1.7-2.3-3.5-.7c-4.3,3.9-6.7,11.3-10,15-1.2,1.4-3.1,3.2-4.6,1.7-3.3-3.2,12.2-18.5,13.4-21.8,1.1-2.9-1.6-13.7-6.5-11.6l4.2-5.5c-4-3.1-16.6,12.1-19.4,14.6l6.2,6.2,9.8-9.7c1.5,4-7,8.2-8.4,12.5-.5,1.6,2,2.8,1.9,4.6-.4,6.6-12.4,13.1,3,21.1-3.2,5.6-6.3,11.3-9.7,16.7-1.6,2.6-9.2,11.7-9.3,12.4-.3,1.4,1.1,5,3.8,2.8,7.5-6.1,12-27.4,22.2-32.7-2.2,5.7-5.9,11.3-9.1,16.6-1,1.6-13.5,16.9-6.8,16.8l28.5-48.6,6.9,2.1c-4.6,3.9-30.4,41.3-27.8,43.8l4-.2c4.6-12.7,11.9-23.1,19.7-33.8,1.5-2,8.3-8.5,9.5-10.2-5.5,8.6-17.6,25.7-21,33.5-2.6,6.1-.3,6,5.8,6.5,5.9-10,12.5-24.2,22.2-30.7l.2-3.3-4.1-2.8c3.1-2.8,4.7-6.2,4.2-10.4-3.3-.2-5.4,4.5-6.9,6.9.3-.7,3.9-13.5,4-14.7,1.7-12.3.2-25.4-6.3-36,0-3.5,7.1-8,9-11.3,7.5-12.6-3-17-2.4-20.5.3-1.8,4.4-3.5,5.1-6,.8-2.7.6-10.5.3-13.6-1.5-12.6-7.4-10.5-16.7-14-1.2-.4-3.9-.4-2.8-2.7,1.2-2.4,26.4-12.8,10.5-14.7-15-1.8-14.4-6.2-26.7-10.9-6.4-2.4-9.9-4.2-17.2-2.3-1.8.5-23.7,15-23.6,9.7l12.5-15.2-12.5-4.9c10-6.6,44.8-15.2,49-25.4,5.1-12.5-7.6-16.1-12.9-23.9-1-1.4-1-2.6-.4-3.7h-5.4c-.6,1-.8,2-.5,3,4.5,7.3,20.1,13.2,15.4,23.6-2.8,6.1-23.2,12.4-30.1,15.7h-.1Z"/>
      <path d="M323.9,635c-1.5,1.4-4.9,1-5.5,1.4-1.2.7-3.8,6-2.8,6.9,4.8.5,8.8-3.8,8.3-8.3h0Z"/>
      <path d="M487.7,353.7c-1.9-6.1-19.9-7.2-25.5-9.2-9.2-3.3-16.6-11.2-28.4-8.4,3.9-4.6,7.5-10,6.8-16.5-12.6-2.1-26.2-9.3-38.8-5.7-3.8-16.6-21.6-4.5-22.3,7,5-.6,9-12,14.4-10.9,7.9,1.7-3.8,9.8,1.6,10.9,3.9.3,6.6-3.1,10-3.9,10.6-2.3,20.3,4.9,31,5.3,1.4,5.1-12.5,15.4-9.7,18,7,.4,14.9-1,21.5,1.4,4,1.5,5.6,4.8,10.1,6.6,5.3,2.1,21.1,3.5,24.1,6.5,6.6,6.5-7.1,19.6-7,25.1,0,3.3,6.3,5.7,5.3,10.7-.4,2.1-8.2,11.1-10.2,12.3-2.2,1.4-4.2-.2-5.5,1.2-2.6,2.6-7,12.8-9.8,16.7-1.1,1.4-8.8,11-10.3,9.8,1.2-11.3,13.3-19.5,19.5-28.5.8-1.2,1.9-1.4,1.4-3.5-4.2,1.2-8.9.7-9.8-4.1h-2c-7.2,8.4-12.8,17.9-21.6,24.9-.4-4.1-3.4-7.6-1.3-11.6.9-1.7,10.5-13.7,12.4-12-1.3,5.3-17.8,15.6-7,18.1l15.3-23.6c-12.6-2.2-14,8.5-23.6,12.5l15.3-16c.6-3.4-2.5-2.3-4.2-1.4-4.3,2.5-8.8,10.7-13.9,13.2,1.9-7.4,9.1-12,13.9-17.4,1.2-2.5-5.2-3.4-6.4-3.4-2.4,0-10.9,12.5-14.5,14.6l4.2,4.8c-4.1.4-7.2-1.9-9.7-4.9l16.3-16.6c-2-1.2-1.7-7.4-4.5-6.3-2.3.9-10.9,13.2-13.2,11.1l-1.4-6.9c3.3,4.3,12.3-8.4,12.6-10.5.4-2.5-4.3-4-6.1-4.7l-6.4,5.4,6.9-12.5c-3.3-3.2-11.4,9.5-11.1,12.5-7.1-5.1-12.3-5.9-19.9-1.2-11.8,7.3-7.3,19.7-10.8,30.9-2.3,3.7-7,1-10.4,3.5-3.4,2.4-7.3,15.6-9.6,18.2-2.3,2.7-7.5-.7-9.8,9.6-3.1,13.6,4.2,23.5,8.2,35.1,1.3,3.9-.2,9.4,3.7,10.9,3-12.5-6.3-20.7-8-33-.6-4.5-1.5-13.4,2.5-16.3,1.9-1.3,5.3-1.2,6.6-2.5,1.5-1.5,5.8-16.5,7.5-17.5,2.9-1.8,7.2,1.5,12-5.3,6.4-9.2-1.6-25,13.1-31.4,17.3-7.5,15.6,24.8,19.3,31.5,3.2,5.7,9.8,3.7,13.2,7.7,3.1,3.6,2,13.5,6.9,19.5,3.1,3.8,9.3,3.9,10.2,6.5,3.4,9.7-14.7,32.9-13.6,37.2,1.3,5.3,11.1-.2,14.5-.6,4.7-.6,9.2.1,13.7,1.7,4.7,1.7,26.2,19.3,25.8,22.4-.2,1.6-2.4,3.4-2.6,5.9s1.6,4.8,1.1,7.9c-1.2,8.1-17.5,15.3,1.6,20.5l-2.8-8.9c5.8-9.6,5.7-19.1,6.3-30-5.3-1.5-7.6-9.1-9.5-10.7-6.6-5.7-16.9-10.3-25.4-12.9-2-.6-2.5.8-2-2.8,7,3.5,5.3-6.1,11.1-8.3.8,3-2.9,5.1-3.5,7-.6,1.8,1.2,3.1,2.8,2.7,1.5-.4,5.9-13,8-14.9,2-1.9,7.4-1.5,9.9-3,1.5-.9,5.2-18.7,5-21.5-.6-8.7-8.9-9-8.4-14s14.3-11.2,12.4-20.6c-.6-3-4.2-4.7-4-8.5.4-6.7,10-14.1,6.7-24.9h-.2ZM458.7,401.4c.5,2.8-10.3,14.7-11.1,13.9-1.2-1.3,10.4-14.7,11.1-13.9ZM447.6,434.8c-.9,1.4-3.4,8.6-4.2,6.9-.4-3.4,0-7.3,4.2-6.9ZM476.8,427.8c-5,1.4-2.2-5.3-4-6.3-2.1-1.1-5.1-1.2-7.1,0-7.1,12.4-18.7,23.2-26.5,34.7-2.2,3.3-.5,9-6.9,7.7,3.4-3.5,5.9-12.9,8.2-15.7,1.2-1.4,3.5-1,4.9-2.3,3.7-3.6,9.7-16.7,14.1-22.1,1.3-1.6,7.7-8.7,8.9-9.2,4.2-1.9,10.4,9,8.4,13.3h0Z"/>
      <path d="M2396.5,449.3c-3.9,2.8-8.6,13.7-11.6,13.2-3.8-2-4.2-7.2-7-9.7-4.2-3.7-13-2.7-9.9-12.6l5-1.3c-.7-8-4.3-6.7-9-1.6l-10.4-5.4c6-5.8.4-15.2,1.6-19.8.9-3.5,6.8-4.8,8.5-8.3,2.4-4.9.8-10.4,1.9-14.6,1.6-6.1,7.1-13.7,7.9-20.8,6.8-5.3,13-6.7,21.6-6.1,3.8-10.1,1-24.5,15.2-26,3.1-.3,6.1,1.5,7.9,1.1,2.4-.5,3.2-4.4-.1-5.4-4.5-1.3-16.2,3-19.3,6.7-4.3,5.1-3.6,14.7-7.5,20.3-7,1-17.2,2.7-23.6,5.6-2.6,1.2-25.9,19.2-26.5,20.8-1,2.5,1.6,2.5,3.3,1.9,3.6-1.5,6.2-8.9,10.6-7.4-5.5,5.1-10.4,11-16,16s-9.9,3.1-7,8.3c9.4-5.8,16.8-15.5,25-22.2,1.6-1.3,4.8-1.5,5.7-2.7,1.1-1.6-1.7-7.5,4.1-9.7,3.3-.7,2.2,2.7,1.7,4.5-.6,2.3-3.8,10.1-5.2,11.5-1.8,1.8-4.7,1.9-6.3,3.4-3.2,2.8-22.3,18.8-22.9,20.2-.7,1.6.4,2.8,2.1,2.1,3.7-1.6,10.3-10.3,14.7-13.1,1.4-.9,7.7-4.4,9-4.9,5.1-2,.4,14.1-3.5,11.1l-.7-5.5-22.5,19.8-1.8,6.5,4.2-.7-6.9,7.6c6.4,1.2,17.3-16.9,21.5-16.6l3.3,9.5c-9.4,5.1-14,15.1-23.4,20.4-.1,1.7,2.3,2.4,4.9.7,1.8-1.2,13.7-14.7,14.6-13.9,6.5,8.5-17.7,20.1-18.1,21.6l2.1,3.4,4.9-2.8,2.1,4.2c4.7-4.1,8.6-9.2,13.1-13.3,2.8-2.5,6.9-.7,5.6-6.2l4.1,3.6c.6,2.4-26.3,23.1-26.3,24.9s2.9,3.3,4.2,1.4l17.4-17.4c1.8-.1,1.7,1.6.7,3.4-2.5,4.2-17.1,16.5-13.9,20.2,3.1.7,3.1-1.8,4.4-3.2,2.9-3,14.1-20.5,17.8-17.6-6.7,8.9-12.9,19.2-21.5,26.4-1.8,1.5-4.9,1.7-6.4,3.4-1.7,2,.2,4.3-.4,6.4-.6,2.1-3.6,4-3.6,6.3,0,5.4,15.1,7.6,19.5,4.8,2,3.5-2.6,10.8-2.5,11.8.2,2.1,4.4,2.8,4.9,3.8,1.2,2-.2,6.6,2.1,9.1,5.5,5.8,19.7-10.2,21.9-8l-5.5,9c2.9,4.1,4,.9,6.9-.7-.5,3.1-1.9,5.2.4,7.9,8.4,9.7,27.8,6.2,31.6-6.5,2.3-.2.7,5.4,4.2,2.1,3.9-3.7,8-17.5,15.3-20.9l-2.1-3.4-3.3.2c-2.7,3.1-11,21.4-14.7,20.6-2.5-.5-1.5-2.1-1-3.7.8-2.4,9.7-17.4,11.3-19,2.1-2.2,5.5,1.1,4.3-5.1-8.1.6-14.5,4.5-22.2,4.8-2.5,3.5-19.4,24.5-16.7,27.2,4.1,4.1,8-9.3,9.1-11,2.8-4.4,6.2-8.6,9.7-12.6,2,5.2-13.8,18.3-10.4,22.2,2.5.5,3.5-1.2,4.7-2.9,4.5-6.2,7.4-15.6,14.1-20.7,1.3,5.7-7.2,12.8-8.5,18.1-1.1,4.6,3,7.5-4.4,10.7-13.9,6.1-24.3-5.8-15.6-18.4,1.8-2.7,13.8-10.5,11.1-13.2-4.3-4.3-12.3,15.1-18.1,12.5l12.5-18.1c-3.5-1.6-6.5,3.9-7.6,3.9s-2.2-2.7-5.3-2.3c-3.3.4-13.3,11.9-15.7,15.1-3.8,5.2-1.7,8.3,2.6,3.9,4.3-4.4,8.3-15.1,16.3-14.3-5.8,7.5-11.8,18.6-22.2,18.8,2.1-4.5-2.8-9.7-2.8-11.9-.1-3.6,3.2-2.7,4.2-3.4,0-1.1.3-3.6-.2-4.1l-3.9-.2v-5.5c-.1,0-7.1.7-7.1.7l22.9-29.9c2.2,1.2-.5,3.1-1.2,4.3-4.1,6.3-10.6,12.8-14.1,19.3-1.1,2.1-1,3.7,1.4,2.8,2.1-.9,12.1-17.6,15.3-20.9,5.5-5.7,11-8.9,17.5-15.9,12.2-13.1,10-5.7,21-.2,11.8,6,12.5-3.1,10.3-3.3-14.4,4.1-14.8-14.9-28.5-4.9l-.9-.2ZM2339.6,419.5c1-4.4,6.8-10.2,11.1-11.1l-11.1,11.1ZM2352.1,490.4c3-7.9,10.7-14.9,16.7-20.9-2.5,8.4-10.1,15.5-16.7,20.9ZM2377.1,464c-4.5.9-1.6-5.3-7-2.1l-22.2,25.4-1.4,4.5h4.2l-1.4,8.4-9.7-2.8c3.1-4,4.8-7.2,4.2-12.5,1.6-.2,3.8.5,5.2-.3,1.1-.6,11.3-16.6,14.2-19.8,2.6-2.9,5.6-5.5,8.3-8.4,3.9-2.1,5.9,4.9,5.6,7.7h0Z"/>
      <path d="M2363.9,512.6c.8,0,9.8-11.8,9-12.5-5.6-1-6.4,4.4-9.7,6.9,0,.8-2.3,5.9.7,5.5h0Z"/>
      <path d="M247.3,79.1c-2.8-.9-5.2,0-7.8.9-10.8,3.5-28.8,23.9-37.4,32.8-2.1,2.2-8.2,11.2-9.7,11.9-4.2,1.8-4-4.5-7.5-6.1-7.9-3.6-22.6,3.5-29.1,8.4-5.7,4.4-24.6,24.4-9.9,25.6-2.7-6,.5-9.9,4.2-14.6,7.4-9.2,19.4-15.3,31.2-16.2,4,.4,3.5,9,9.5,8.2,18.7-13.5,30.6-37.5,52.3-46.9,2.2,3-5.8,19.8-8.1,23.2-2.2,3.3-9.9,8.8-10,9.5-.7,3.4,4,4.1,6.9,2.7,6.4-2.9,12.8-9.4,20.9-12.5,6.7-2.6,30.3-8.7,36.5-7.4,9.9,2.1,4.2,21.2,22.4,19.1,4-.5,16.5-5.9,19.7-1.4,3.6,5.2-4,22.2-3.5,28.5.3,3.6,4.5,8.2,2.7,13.3,8.6,2.5,9.4-14,17.3-14s8.6,6.8,12.7,9.7c9.5,6.6,21.3-1.8,30.7-3.7,27.7-5.5,60.1,4.3,86.6,12.2.7,1-3.9,10.6-4.1,13.4-.3,4.3,1.9,8.5,1.4,13.8-.5,4.7-5.4,11-4.1,15,2.2,7,12.4-1.5,17.9,1.6,3,1.7-6.8,7.9-.7,9,2.2.4,5.4-6.1,10.4-2.8-3.4-7.2,1.8-9.2,6.3-13.9l9.1,7.7c12.7-4.3,12.6-19.5,28.1-18.5,7.7.5,12.3,6.6,17.3,7.7,4.2.9,8.9-1,12.3,1.6,2.7,3.8-6.3,17.7-1.4,26.4,6.5,11.6,15.6-2.8,22.2-4,7.9-1.5,19.8.7,28.4-1.4,2,1.9-8.7,15.3-.8,15.2,4.6,0,3.1-3.6,7.8,2.8l4.2-16.7c-5.3-1.5-4.3,4.1-8.3,5.6,9.4-18.5-12.1-10.8-23-9.7-2.7.3-5.6-1.1-7.7-.7-5.7,1.1-19.9,18.4-20.6,1.3-.2-5.6,6.4-16.6,2.8-20.9-3.7-2.8-8.5-1.8-13.4-3.3-10.3-3-18.4-13.7-31.7-6.8-5.2,2.7-10.5,20.9-17.6,15.9-2.9-2-1-9.8-4.8-9.2-4.4.7-11.5,12-13.9,12.2-.8,0-4.2-2.2-7-2.5-4.3-.4-7.7,1.2-11.8,1.5.6-5.1,3.9-9.5,4.2-14.6.3-4.9-1.8-8.9-1.2-13.5.7-4.9,9.3-15.2,1.5-17.5-2.4-.7-5.3,0-7.7-.6-19.2-5.6-48.5-13.8-68.3-12-10.1.9-28.4,8.9-36.2,8.2-9-.8-10.6-18.5-25-10.9-4.1,2.2-4.5,7.8-9.2,8.2-5.4-9.4,8.5-31.2-.6-37.6-7.1-5-19.1,3.4-27.3.9-8.8-2.7-3.4-18.4-18.8-18.9-6.2-.2-27.3,5.5-34,7.7-5.3,1.8-8.9,4.3-13.9,6.3-1.5-1.5,14.2-23.5,8.2-29l.4-.2Z"/>
      <path d="M511.6,276.3l11.1-10.5c2.8-4.6,7.7-7.8,7-13.9-4.6-3.2-5.3,4.1-9,6.2-2.8,0-.3-13.6-8.5-17.9-5.3-2.8-17.8.5-22.7,3.3-2.5,1.5-4.7,6.9-8.5,9.6-12.5,8.7-20.2,4.3-22.3-10.1-6.5-1.9-10.7,2.8-16.5,4l1.3-6.4-2.2-3.2c-21.6,1.6-32.4,12.5-47.1,26.3-2,1.9-7.7,2.1,0,5.5l17.4-16.7-6.8,12.1,4,3.2c.6-8.9,7-12,12.1-17.1s.2-6.6,6-5.1c.9.7-13.2,14.8-13.9,18.7-.4,2.1,0,2.4,2.1,2.1l14.6-16.7c2.4,2.6-18.2,18.1-7.1,19.4l-2.6,3.5c3,9.3,9.5-5.7,12-8.9,3-3.8,6.3-8.5,10.3-11.2l-15.4,23,4.9,6.2,9-9.7-5.5,10.4,4.1,2.1-2.8,8.3,4.2-.9c3-9.9,11.3-18.4,17.4-26.9,0,5.7-5.2,10.2-6.2,16.1-.5,2.8-1.1,5.6,2.7,4.8l11.2-25,2.7.7c-2,5.3-9,12.9-9.7,18.1-.5,3.6,2.5,1.8,4.2,2.1,0-5,7.6-18.6,11.1-21.6,1-.8,2.4-1.4,2.8,0l-6.9,14.6h4.1c0-5.5,3.9-9.4,6.4-13.9,1.4-2.7-.8-6,4.8-6.9l.7,5.5c3.2-7.3,15.2-20.6,23.7-16.8,9.2,4,.2,17.4,10.4,19.6,1,1.3-10.1,10.3-8.3,13.9h-.3ZM422.8,268.9c2.7-7.9,9.1-14.9,15.1-20.4l-15.1,20.4ZM432.4,247.1l-1.4-4.1,8.3-1.4-6.9,5.5ZM449,252.7l-8.3,11.1c-.7-2.6,7.6-11.9,8.3-11.1h0ZM442,283.3c-2.9.2-.9-3.9-.3-5.2,2.6-5.3,8.4-13,12.8-17.1l-12.5,22.2h0ZM450.4,251.3v-4.2l3.5-1.4,2.1,2.7-5.5,2.8h-.1ZM461.5,262.4c-.6,1.3-3.5-4.4-4.2-5.5,3.6-.4,4.6,2.4,4.2,5.5Z"/>
      <path d="M646.2,236.9l-1.1-1.7c-17.9.6-29.6,16.6-41.1,28.6-2.4-3.2-1.6-11-6.9-11.1-3.3-.4-12.9,8.4-10.5,11.1l10.4-5.6c3.6,1-.4,12,8.1,9.5,5.9-1.7,23.5-27.5,35.1-27.6,7.2,0-1.1,18,9.6,18.2,17.4.3,8.8-47.4,32.7-41.8,2.8,2.8-10.3,29.5,15.8,15.5,14.1,8.8,6.1,24.1,2.2,36.6.8,5.8,7.2,3.9,10.6,7.6,7.9,8.6-12.2,10.7-13.2,14.9,3.1,10.9,13.5,12.1,9,25.7-1,3-11.8,8.5,0,11,7.2-13.1,7.1-25.2-3.5-36.1,16.8-3.4,19.3-20.4,1.4-23.7,5.1-15.6,11.2-30.2-5.2-41.5l-12.9,5.4-.6-18.2c-26.4-9.3-23.8,25.1-32.9,40.2-9,.9-6.3-10.8-7-17h.1Z"/>
      <path d="M2365,255.7c10.4,6.7,23.6,5.2,28.7,18.6l7-.8c1.6-1.9-5.5-9.3-7-10.3-5.5-3.8-20.7-7.6-23.2-9.5-.7-.6-.9-2.3-1.7-3.1l-20.1,7.8c-5.6-11-13.8,1.8-20.4,6.1-7.5,4.9-16.7,8-22.8,14.7l-2.9-4.1c-9.2-1.7-7,5.3-9.2,7.9-1.2,1.4-8,2.4-10.7,3.9-7.4,4.3-7.1,17.6-8.4,25.6,7.7-1.6,4.5-17.6,9.8-21.5,4.6-3.4,17.3-2.7,15.3-11.9l4.8,9.7c5.2-2.4,5.1-7.2,9.7-11.1,7.7-6.4,19.6-11.2,27-18.9,8.6,8,14.9-1.3,24.2-3h-.1Z"/>
      <path d="M813.2,152.6c4.9-.4,4.8-5.2,10.4-5.7,6-.5,16.4,2.7,22.9,2.9,1.4,1.5-7.9,9.6-2,11.1,2.7.7,10.1-4.5,14.2-5.2,16.5-2.9,10.7,4.2,18.1,10.8,3.8,3.4,9.3,3.3,11.4,4.9,2.9,2.1,3.7,11.9,13.9,9v12.5l-5.5-1.4-1.1,4.7c10.5,12.6,16.7-15.5,9.4-19.2-2.6-1.3-6.8-.7-9.5-2.3l-.3-6.6c-4.6-1.8-10-1.4-14.2-4.6-4.5-3.3-4.3-10.1-9.2-11.7-7-2.4-14.3.3-20.9,2.2-.5-.5,1.3-3.3,1.1-4.7-1-5.9-42.4-13.4-38.6,3.3h-.1Z"/>
      <path d="M909.7,276.5c-12.4-12.8-31.2-9.2-46.9-5.9-5.3-1.5-4.2-22.9-25-9.3-4.8,3.1-15.4,16.3-4.4,13.7.8-.2,3.8-10.5,11.4-12.2,12.3-2.8,8.7,10,15.3,12,18.7-2.1,42.5-8.5,51.8,13.4.2,6.9-13.3,11.4-12.4,15.3l8.3,4.2-2.8,8.3c1.2,2.4,4,1.9,5.3.4,3.8-4.4,2.9-12.6-2.4-15.7,10-8.3,11.2-14.6,1.9-24.2h0Z"/>
      <path d="M2154.6,292.3c5.8-3.4,4.3,6.6,11.2,4.9-.1-8.1-7.5-13-14.5-8.2-6.8,4.6-.1,30.8-19.7,33.2-5.6.7-6.6-2.4-9.7-2.8-6.5-.7-21.1,14.6-20.1,22.2-8.3-7.9-13.6,3.5-15.3,11.1,4.3.4,5.3-7.4,9.2-8.1,2.2-.4,4.2,2.8,6.1,2,3.1-1.4,5.1-11.1,7.7-14.6,1.1-1.5,7.6-7.2,9-7.8,3.8-1.7,5.2,2.4,10.2,2.1,4-.3,13.5-4.6,16.2-7.6,6.5-6.9,4.1-23.2,9.6-26.5h.1Z"/>
      <path d="M252.4,409.7c4.1,4.6,16.4,3.7,22.2,5.6l11.8-1.4c-6.5-1.2-26.8-1.2-30.7-6.1-5.3-6.7,13-21.5,5.5-34.7-4.8-8.4-17.8-5-22.9-9.1-3-2.4-2.8-8.8-4.5-12.2-2.7-5.6-12.2-10.3-18.4-10.1,0,6.3,6.3,4.7,9.7,6.3,8,3.8,5.5,13.7,9.9,17.9,8.5,8.1,27.9-1.6,23.2,20.6-1.5,7-12.2,16.1-5.9,23.2h0Z"/>
      <path d="M2384.7,320.8l18.8-31.9c2.6-.3,1.2,2.9.7,4.2-2.2,6.1-9,13.8-10.4,18.8-1,3.4,3.5,1.9,5.4,2-1.2-8.4,10.7-19.1,11-25.9.1-2.9-2.9-2.4-4.1-4.1-1.1-1.7-1.1-5.8-1.3-6s-3.1-.2-3.9.3c-1.3.8-16.6,24.1-16.8,25.6s1.2,3.8,2.7,2.7c3.2-5.2,5.8-10.8,9.2-15.9,1.2-1.8,3.9-6.4,6.1-6.4-4.2,11.2-13.2,21.5-17.9,32.2-1.1,2.4-2.5,2.4.5,4.6v-.2Z"/>
      <path d="M827.8,632.2l1.4,5.5,55.6-76.4c-.2-10.7-9.8,3.7-11.8,6.9-.5.8-.5,3-1.6,4.6-13.4,20.7-27,41-43.6,59.4h0Z"/>
      <path d="M869,562.9l-44.7,61,5.3-.2c10.7-18,24.7-36.8,38.6-52.5,1.4-1.6,4.6-2.6,4.7-2.9,1.4-3,0-7.5-4-5.4h.1Z"/>
      <path d="M2428.5,597.4c-2.9-.6-3.2,1.5-4.5,3.2-6.8,8.6-12.5,18-19.9,26.1l.8,9.7c9.6,1.1,4.3-3.7,7.1-8.8,2.1-3.9,15.9-15.9,16.5-18.3.9-3.4-3.6-3.2-5.6-2.1,1.6-3.5,6.6-5,5.5-9.7h0Z"/>
      <path d="M1245.5,455.6c-1.3-1.4-4,2-4.9,2.8-7,5.8-13.2,14.1-20.1,20.2-.6,3.4,2.6,2.3,4.2,1.4,1-.6,11.4-13,12.5-11.8,0,4.4-15,18.3-12.5,20.8l4-1.1,2.3,2.5,4.9-4.2c-2,3.2,0,7.9,3.4,4.1,1.9-2.1,9-14,7-16.6-4.5-3.6-9.1,6.4-12.6,8.3-.4-4.4,6.1-10.8,10.5-13.2,1.8-5.8-5.7-1.7-4.2-5.5.7-1.9,8.4-4.4,5.5-7.7h0Z"/>
      <path d="M597.1,322.2c1.4-2.1,5.7-6.9,7.6-9.1,1.5-1.7,4.9-2.8,5.5-4.2,1.5-3-4.6-1.2-4.5-4.4-.8-.8-1.9-.7-3-.5-1.2.2-15.2,12.1-16.8,13.9-1.7,1.9-2.6,2.7-2.1,5.6,3,3,12.3-10.3,15.3-11.1l-9.6,13.4c5.3,8.9,5.2,0,7.6-3.6h0Z"/>
      <path d="M2103.9,390.3c2.9-.7,1.2-2.5.9-3.7-.4-1.9-4.7-13.9-8.6-10.2,2.4,3.8,1.6,15.3,7.6,13.9h.1Z"/>
      <path d="M2091.7,379c1.1.2,4.5-2.3,4.6-2.6.4-.8-.3-3,0-4.2.7-.8,7.4,6.7,8.3,2.1.4-2.1-5.3-7.3-7.6-7.7-3.3-1.1-2.8,5.1-3.5,5.6-16.5-4.2-27.5,12.3-25.8,27.8l3.5,1.4c-2.5-12.6,7-32.4,20.4-22.4h.1Z"/>
      <path d="M296.8,504.3c4.2.6,4.5-6.3,5-6.7,1.2-1,5.3.6,6.6-.4.3-.3,1.6-5,3.2-7.2,2.7-3.7,6.4-6.6,9.5-10l-2.8-6.2h-4.1c-5.6,8.9-11.6,17.6-17.4,26.4-.8,1.3-3.6,3.6,0,4.2h0Z"/>
      <path d="M316.2,466.8c-2.5-.5-24.1,24.8-21.5,27.8,3,.6,3.2-1.5,4.4-3.2,5.5-7.5,8.8-11.1,15.1-17.6.8-.9,6.9-6,2.1-6.9h-.1Z"/>
      <path d="M576.4,315.5c-1.2,1.2-4,3.6-2.3,5.3,3.2,3.2,20.5-17.8,25-18.1l-.9-2.7c-3.5,1.7-7.7-4.2-8.1-4.2-1.1,0-4.5,6.6-7.6,5.5l6.9-7.6c-.2-1.4-2.6-.2-3.8-1-1.9-1.4-3.8-7.6-8.8-1.4-3,3.7-2.1,9.7,1.4,7.3.3-.2,1.5-6.8,5.6-5.5-1.6,3.2-9.1,8.8-9.5,12,0,1,2.6,5.8,3.3,6.1,4.2,1.3,7-9.6,13.1-8.4-3.4,5.3-10.1,8.4-14.4,12.7h0Z"/>
      <path d="M604.8,330.4l2.7-.5,12.5-18.8c-10.3-4.4-18.9,9.3-20.8,18.1l4.8-1.5.9,2.7h-.1Z"/>
      <path d="M615.8,330.5c0-4.3,7.4-11.1,9.7-14.6,1.2-1.8,1.5-3-.7-3.5-1.6-.3-14,14.9-14.4,16.2-1.7,6.1,2.6,3.7,5.4,1.9Z"/>
      <path d="M623.5,329.2l.7,4.2h4c0-.1,11.2-22.2,11.2-22.2-11.1,2.3-14.8,13.6-23.6,19.5,0,7.3,5.7,3.1,7.7-1.4h0Z"/>
      <path d="M581,618.9c6.3-10.5,15.9-20,21.7-29.8.7-1.2,3.4-4.2,2-5.6-1.7-1.7-3.2,0-4.3,2-6.8,11.7-22,26.4-26.5,37.4-.7,1.7-1.4,3.1,1,3.7,5.3,1.3,4.4-4.8,6.2-7.7h-.1Z"/>
      <path d="M922.4,444.5c-.7.2-10.2,8.4-10.6,9-1.7,2.6.5,4.7-.4,6.3-1.3,2.1-8.9,3-2.9,8.3l15.4-12.4-2.2-5.6c5.8,0,4.5-6.4.7-5.6h0Z"/>
      <path d="M1226.4,406.8l-3.1-8.2c-2.6-2.2-17.3,12-16.7,15.8,0,.4,4.4,1.7,2.8,5l13.2-9.7c1.8,1-10.5,10-4.2,9.7,1.7,0,20.9-16.6,7.9-12.6h0ZM1212.2,412.5c2.3-3,5.6-8,9.7-8.3-2.3,3-5.6,8-9.7,8.3Z"/>
      <path d="M923,484.8c.9-1.3-.9-3.3-2.1-4.1l-14.4,10-.2,10.8c4.9.6,7-4.1,10.6-6.7,3-2.2,7.3-1.7,7.4-5.1.3-6.8-10.2,3.9-12.5,3.5.2-3.9,10.7-7.8,11.1-8.4h.1Z"/>
      <path d="M649.2,324.3l-8.8-4.8c-5.9,5.8-10.9,12.7-5.8,20.7l14.6-16h0Z"/>
      <path d="M916.1,518.9l12.5-13.2c-7.5-.6-10.2,7.6-16.7,9.7v4.2l4.2-.7Z"/>
      <path d="M911.9,515.4c.3-7,11.8-6.2,6.9-13.9h4c0-.1.2-5.6.2-5.6-2.1-2.2-15.3,9-17.5,11.1,2.3,4.4-.2,9.1,6.3,8.3h0Z"/>
      <path d="M2345.1,370.2c-1.2,1.9-1.2,3.4.7,3.4s10.4-9.2,13.3-10.4c2.3-.9,4.7,1.7,7-1.3l1.3-11.9c-9.9-1.1-4.9,3.8-6.2,6.9-1.4,3.3-12.7,8.2-16,13.2h-.1Z"/>
      <path d="M2432.7,565.5c-3-.6-3.2,1.5-4.4,3.2-6.7,9.3-17,24.6-22.6,34.4-1,1.8-2.7,3.1-2.2,5.4,2.9.6,3.2-1.5,4.4-3.2,4-5.5,8.2-11.5,12-17.2,2-3,14.3-21,12.7-22.7h.1Z"/>
      <path d="M2404.9,623.8c3.7-15.2,19.5-26.8,23.6-41.7l-27.7,38.4,4,3.3h0Z"/>
      <path d="M2406.5,597c5.4-8,9.6-19.2,15.8-27.3,3.1-4,7.7-6.8,10.3-11.2-2.9-.2-4.9.5-7,2.4-3.7,3.4-11.9,17.1-14.9,22.2-1.4,2.3-9.8,15.9-8.6,17.1,2.9.6,3.2-1.4,4.4-3.2Z"/>
      <path d="M925.8,436.9c-1-5.5-9,4.6-11.1,3.4l6.3-5.5-1.4-2.8c-6.2-1.3-15.2,13.7-6.9,16.7,1.3-3.5,13.8-8.7,13.2-11.8h0Z"/>
      <path d="M899.4,429.2c2.3-.3,6.2.8,8.1-.3.8-.5,6.2-9.5,10-10.1l-2-3.3c-5-.7-19.9,9.7-16,13.7h0Z"/>
      <path d="M904.3,489l22.9-18.8c-1.4-1.8-2.1-2.5-4.6-1.9-1.2.3-19,15.4-19.7,16.4-1.5,2.3,0,2.9,1.4,4.2h0Z"/>
      <path d="M1230.3,443.9c-1.4,1.4-14.8,9.8-9.8,12.5,2.3,1.2,17.9-18.3,21.9-19.8l1.7-4.6c-6.9-.3-9.8,7.9-13.8,11.9h0Z"/>
      <path d="M648.5,330.6c-4,4.6-14.9,10.8-7.7,17.4,2.7,2.4,2.3,0,3.2-1.1,2.4-3,3.3-7.4,7.8-8.2l-3.3-8.1h0Z"/>
      <path d="M1346.3,445.9c-5.8,8.6-15.4,16.3-20.9,25-1.2,1.8-2.8,2.6-2,5.6,2.4.5,3.4-1.3,4.9-2.8,4.8-5,8.9-13.7,13.8-19.5,1.9-2.3,4.6-3.1,5.9-4.5,2.6-2.9,1.2-6.4-1.7-3.8h0Z"/>
      <path d="M1238.6,449.4c1.3-1.6,3.4-2.2,2.8-4.9-6.2-.3-8.1,6.2-11.1,9-2.2,2-13.7,10.8-13.9,12.5-.2,2.6,4.3,1.1,5.5.7,2.4-5.4,12.1-11.8,16.7-17.4h0Z"/>
      <path d="M1221.9,466.8c-.4.8-2.1,3.5-1.4,4.2,3.9,3.3,6.4-3.2,7.5-4.2,1.8-1.5,18.5-14.4,16.1-16.6-9.4,1.3-13.3,13.5-22.2,16.7h0Z"/>
      <path d="M2269.8,427.5c.3-.2,2.5-4.4,4.4-6,5.3-4.3,11-7.4,16.7-11.1-2.1-2.9-2.5-1.9-5.1-1-7.5,2.6-14.4,12.2-21.2,16.3-1.4,2.8,3.8,2.6,5.3,1.8h0Z"/>
      <path d="M652,372.9l-4.2-1.4-13.9,18.8c5.5.5,7-4.9,11.1-8.3,2-3.4,3.1-6.4,6.9-9.1h.1Z"/>
      <path d="M644,402.4c2.7-4.4,11.1-12.3,10.8-15.6-5.5-3-7.2,7.3-12.5,9,.4-5.8,9.4-12,11.1-16,2.3-5.6-7.2,1.2-8.3,2.1-3,5-4.9,10.7-9.7,14.6l5.5,2.1c-5,4.1.2,8.4,3.1,3.8h0Z"/>
      <path d="M2332.6,305.5l1.4,4.2c2,2.2,9-9.5,8.3-12.5l-5.6,5.5-1.4-2.8c-2.9-2.3-9.5,9.5-8.3,12.5l5.6-6.9h0Z"/>
      <path d="M2397.9,277.7c-1.6-1.6-6.5,4.5-7.5,5.7-5.2,6.3-11.5,16.1-14.7,23.5l6.1-5.7,16.1-23.5h0Z"/>
      <path d="M637.4,380.6l13.2-14.6-2.1-3.4c-1.5,1.1-3.1,2.1-4.9,2.7-.3.5-.4,2.1-1.3,3.5-2.3,3.5-10.9,6.9-4.9,11.8Z"/>
      <path d="M649.9,356.9c3.8-7.9-5-8.2-8.3-1.3-1.3,2.7-1.6,7.8-3.5,11.1,2.3.6,3.7-.7,5.6-1.4.3-.4.5-2.1,1.3-3.5,1-1.7,4-3,4.9-4.9h0Z"/>
      <path d="M2267.7,449.7c5.6-5.2,8.2-7.4,14.4-11.9,1.7-1.3,3.9-1.4,3.2-4.4-2.9-2.5-17.4,10.1-19.9,12.7-4.3,4.4-2.3,7.9,2.3,3.6h0Z"/>
      <path d="M1239.3,425.1c-1,0-13.2,12.2-15.1,14.1-1.2,1.2-4,3.6-2.3,5.3,2.4,2.4,11.2-8.8,13-10.6,1.6-1.5,4.8-2.8,5.8-4.7,1.1-2.2-.5-4.2-1.4-4.2h0Z"/>
      <path d="M1237.9,420.9c1.2-2.4.3-2.6-1.4-4.2-1,0-13.5,12.9-14.6,14.6-1.2,1.8-1.5,3,.7,3.5,1.4.3,14.4-12.2,15.3-13.9Z"/>
      <path d="M1204.5,405.6c-3.1,2.8-7.6,1.4-6.3,6.9,2.3,2.3,19.2-13.5,20.8-16.7-6.7-1-10.1,5.7-14.6,9.7h0Z"/>
      <path d="M911.8,468.8c-1.4,1.1-3.5,1.3-4.5,2-3.4,2.6-2,7,1.8,5,2.8-1.4,9.4-7.4,13.5-10.1,2-1.3,3-3.3,1.8-4.5-2.7-2.7-10.6,6-12.6,7.6Z"/>
      <path d="M2217.5,426.3c-.4-.8,2.5-3.7-.9-5.3-4.6-.3-10.9,15.6-4,12.7,1.5-.6,6.4-3,7.5-3.7,3.4-2.3-2.2-2.9-2.5-3.7h-.1Z"/>
      <path d="M2373.6,299.9l16-25c-2.7-2.7-15.7,17.8-16.8,20.1-1.2,2.6-2.2,2.6.8,4.9Z"/>
      <path d="M644.3,412.5l16-23.6c-2.4-2.5-8.7,10.4-9.7,11.8-2.3,3.1-11.5,7.9-6.3,11.8h0Z"/>
      <path d="M916,424.3c-1.5,1.1-11.2,10.3-11.1,11.2.6,3.7,4.9.3,6.2-.7,1.9-1.4,12.6-10.3,10.4-12.5-1.3-1.3-4.3,1.1-5.6,2h0Z"/>
      <path d="M317.9,501.3l1.8-.4,5.5-11.9-6.9,3.5,5.5-9.1c-2.7-.4-3.8.2-5.6,2-1.2,1.1-9.1,15.1-8.3,16,4.1-.3,4.1-4.3,7.9-.2h.1Z"/>
      <path d="M2408.4,308.3c3.3.2,2.9-2.8,3.6-4.7.9-2.1,6.4-13.8,5.4-14.8l-4.2.9c1.8,3.7-10.7,17.4-4.8,18.5h0Z"/>
      <path d="M2365.3,301.3l14.6-20.8c-3.8-3-13.6,13.5-15,16.3-1.2,2.4-2.6,2.3.4,4.5Z"/>
      <path d="M1221.9,423.7c6.8-.4,11.3-8.7,16.7-12.5-4.6-4-18.3,11-16.7,12.5Z"/>
      <path d="M2358.3,302.7c1.1-.1,10.7-16.6,11.8-19.4-2.1-2.1-11.3,12.7-12.5,14.6-1.6,2.5-1.1,5,.7,4.8Z"/>
      <path d="M1032.9,493.2v30.6l2.8-21.5c-.8-2.9,2.2-10.2-2.8-9.1h0Z"/>
      <path d="M1195.5,404.2l4.6-1.7,9.3-10.8c-7.8-1.2-10.7,7.1-13.9,12.5Z"/>
      <path d="M1031.5,539c2.7,2.5,15.4-11,13.9-12.5s-10,6.5-11.1,7.6c-1.5,1.4-3.2,2.4-2.8,4.9Z"/>
      <path d="M2136.6,388.2c3,4.2,6-4.1,11-2.2v-5.5c-3.4-1.9-11.6,4.8-11,7.6h0Z"/>
      <path d="M2214.4,469.5c.6-.9,4.5-5.5.7-5.5s-13.8,9.1-11.8,11.1h4.2c-.4-4,3.8-4.7,7-5.6h0Z"/>
      <path d="M2209.6,479.3l10.4-7.7c3-4.7-3.1-2.7-5.5-2.1-1.7,2.5-3.8,5.9-7,5.6-1.3,2.1-.9,4.2,2.1,4.2Z"/>
      <path d="M579.7,569.6c-2.1-2.5-11.5,14-6.2,13.9,2.1,0,7.6-10.9,6.2-13.9Z"/>
      <path d="M2204.7,451.5c6.6.8,8.7-6.9,15.3-5.6-.4-6.5-5.2-3.3-8.7-1.3l-6.6,6.9Z"/>
      <path d="M2204.7,466.8l15.3-8.4c-3.6-7-6.5,1.1-11.1,1.4l9.7-7.6c-3.5-4.1-9.9,3.6-13.3,4.8-1.9,1.8,1.7,3.6,1.7,4.9s-3.2,2.4-2.3,4.8h0Z"/>
      <path d="M2349.3,300c0-.9,3.1-7.5-.7-5.5-.7.4-8.3,11.9-7.7,12.5,6.2,1.4,4.9-4.7,8.3-6.9h0Z"/>
      <path d="M2353.4,304.1l7-15.3-11.1,11.1c0,2.6,1.2,4.6,4.2,4.2h0Z"/>
      <path d="M2283.2,373.6l7.6-2.8v-4.1h-6.9c1-2.9,4-4.3,7-4.2l-2.2-4.1-7.5,2.8c-1.2,2.5,2.3,5,2.3,6.2s-4.7,3.5-.2,6.2h-.1Z"/>
      <polygon points="660.3 397.3 652.2 406.6 652.7 411.1 660.3 397.3"/>
      <path d="M643.6,623.9c-1.7-1.6-12.6,5.4-9.7,8.3s11.5-6.7,9.7-8.3Z"/>
      <path d="M2418.8,299.9c4,.4,9.2-9.4,4.8-11.1-2.6-1-2.8,3.8-3.2,5.1-.7,2-2.2,3.6-1.6,6Z"/>
      <path d="M2204.7,442.4c.5,2.7,2.7,2,4.8.7,2.4-1.5,6.9-2.6,6.3-5.5-2.3-.4-11.8,1-11.1,4.8Z"/>
      <path d="M2317.3,313.8c3.8,3.6,7.2-8.4,8.3-9.7-3.5-2.7-9.8,8.3-8.3,9.7Z"/>
      <path d="M2357.6,350l9.7-6.9c-5.3-.7-10.3.6-9.7,6.9Z"/>
      <path d="M2313.9,312.5l.7-5.6c-6.6.2-8.3,10.8-.7,5.6Z"/>
      <path d="M2290.2,340.3l-2.1,5.5,6.9-1.4c.5-3-2-4.7-4.8-4.1h0Z"/>
      <path d="M659.6,412.5l4.9-9.7c-3.4-1.3-9.4,10.1-4.9,9.7Z"/>
      <polygon points="2220.7 408.4 2217.4 409.9 2217.2 415.3 2222.8 413.9 2220.7 408.4"/>
      <path d="M506,548.8c-3.1-2.9-8.1,4.9-3.4,6.9,2.9,1.3,3.9-6.5,3.4-6.9Z"/>
      <path d="M2218.6,402.8l9.7-1.4c-2.2-5-8.1-2.9-9.7,1.4Z"/>
      <polygon points="2150.5 370.1 2146.3 369.5 2147.7 374.4 2151.9 375 2150.5 370.1"/>
      <path d="M665.9,409.8c4.5,1.2,5-2.6,7-5.5-4.4-.9-5.6,2.2-7,5.5Z"/>
      <path d="M1143.4,523.3c-1.1,0-2.4-2.6-4.2-2.4-1.4,5.4-3.8,1.3-6.8,1.7-.9,0-5.5,4.5-5.8,5.3-.5,1.1,3.3,4.3-.6,7.6,1.2,6.6,7.8-5.1,9.7-7,1.3-1.3,5-4.2,7-4.1-2.4,6.8-14.7,13.4-17.4,18.7-1.1,2.2.5,4.2,1.4,4.2,2.3,0,14-16.1,16.5-18.9,1.1-1.2,4.7-2.5,5.1-4,1.2-5.5-4.5-1.1-4.8-1.1h0Z"/>
      <path d="M2322.9,522.4l-5.5,2.8c.3-2.2-.7-4.2-.7-6.3s3.9-6.1-1.4-4.8c-1.9.5-22.2,27.9-21.7,31.2l2.9,1.6-1.5,4.8h3.9c-.4.7-.8,1.4-1.2,2.1-1.2,2.2-1.9,3.6-1.3,6.3,3.8.8,2.4-1.1,3.4-2.8,5.5-8.4,11-16.8,16.8-24.9,2.4-3.4,7-5.1,6.1-9.8l.2-.2ZM2297.9,543.2c-.2-2.5,1.6-5.9,4.1-6.9.2,2.5-1.6,5.9-4.1,6.9ZM2299.2,551.1c.8-5.9,5-12.1,8.6-16.7,1.9-2.4,4.9-6.7,8.1-7.2-3.8,8.2-11.9,16.2-16.7,23.9h0Z"/>
      <path d="M2324.8,529.2c-3.4,4.7-27.4,32.7-24.2,36.3,4.8.2,4.6-6.2,6.7-9.3,1.8-2.7,3.9-5.4,5.9-8,2.8-3.6,18.3-17.7,15.2-21.6-3.6-.8-2.4,1.1-3.6,2.6h0Z"/>
      <path d="M2133.6,527c-1.9,2.6-13.7,20.4-12.3,21.8,7,1.2,4.6-4.7,6.3-8.2,1.2-2.5,11.6-15.5,10.3-16.8-2.9-.6-3.2,1.5-4.4,3.2h0Z"/>
      <path d="M324.6,628c-4.6,1.5-12.2,8.6-18.4,11.5l3,2.2c1.4-2.5,7.6-4.3,9.1-5.4,2.6-1.9,5.7-5.4,8.3-7.7.2-1-1.3-.9-2.1-.7h.1Z"/>
      <path d="M586.7,596.8c2.3-3.3,17.2-17,13.9-20.2-6.6,1.4-6.7-3.8-10.4-7-8.1-7.1-15.2-13.2-25.1-5.5-1.5,1.2-2.1,4-3.5,4.9-1.2.8-3.5-.5-4.2,0-3.1,2.3.4,11.8-2.6,16.8-3.1,5.2-16,9.5-21.7,6.2-5.1-2.9-13.9-21.5-7.6-26.5l-4.2,3.5v9c-5.5-2.5-4.9-12-11.1-11.1v-1.4c6.6-.8.8-5.7,2.8-9.7l16.7,5.6v-8.3c6.1,3.5,16.7-2,18.8-8.3,1.3-3.9,4.2-17.9,4.3-21.8,0-5.5-2.2-11.6-2.2-17.1,1.5-1.7,7.1,7.4,9.7,1.7,1-2.3,2.5-15.5,2.8-19.2.3-2.7-1.5-5.3-1.2-8,.4-2.9,4.2-6.9,5-10.3,1.5-7,0-14.5.3-20.5.2-3.5,3.9-6.6,4.2-11.2.8-11.9-5.7-25.1-12.3-34.5,1.7-4.4,6.1-11.4,6.5-15.9.3-3.2-2.3-4.3-2.6-6.7-1-8.7,27.3-26.6,10.1-35-5.8-2.9-8.2.4-11.9-.5-2.9-.7-7.6-9.3-13.5-8.2,12.6-22.8-5.1-25.2-23.6-22.2,1.8-21.1-3.8-24.4-20.9-13.2-1.3.8-4.7.4-2.1,3.4,2.4,2.8,3,.6,5-.5,4.4-2.5,7.6-6.5,13.6-4.9,3.4,4.6-1.8,16.3,1.5,18.7,6.4.1,23.8-3.8,27.2,3.4,2.4,4.9-7.3,13.7-6.3,19.4,8.1-3.2,11,7.7,14.3,8.8,3.9,1.4,18.5-4.1,17.8,4.3-.9,10.7-16.4,17.8-16.8,26.6-.2,3.3,3.2,4.9,2.8,9.4-.4,5-6.5,9.3-5.4,15.1.7,3.9,5.9,7,7.8,11.7,1.2,3,4.4,16.4,4.3,19.2,0,4.4-5.1,7.9-5.2,11-.3,6.4,4,10.2.9,20.6-1.3,4.3-5.9,8.9-6.3,11.8-.5,3.2,2.9,20.9,1.1,22.6-6,.8-7.1-3.4-10.4-6.9l-3.5,2.1c5.8,15.2,4.7,31.4,0,46.9l-9,5.2-2.3-3.9h-3.7l-5.1,10.8c-7.4-2.5-10.6-4.5-12.6-12.3-1.3-4.9-.2-22.4-6.6-20.7-4.5,3.4-9.1,9.3-9.3,15.1l9.7-9.7c1.2,14.1,12,25.8-4.1,34.7,1.5-13.6-13-21.7-11.8-34.8-6.8-3.9-13.1-3.2-10.5,5.6l6.9-1.4c-.1,9.9,9,15.6,11.9,25,3.8,12.3,2.7,26.1-11.9,29.2-1.4-1.4,7.8-10.6-2.8-9.7l-1.4,11.1c-12.3-4.7-30.4,15.2-39.5,1.3-6.3-9.7-3.5-25.6-20.7-22.2l-13.4,20.9c8-25.4-6.7-34-18.3-7.9-7.3,16.5-9.2,37.2-17.8,53.8-14.2,1.6-16.1-35.6-18.8-36.1-4-.8-3.8,8.8-4.8,11.9-.5,1.6-3.7,8.9-4.9,8.9-6.7-4.1-5.8-10.1-7.7-15.6-.4-1.2-2.3-.9-2.6-2-1.4-4.5-.6-12.3-2.1-17.1-2.6-4.2-7.7,5.3-12.7,5.6-12.6.7-.5-21.1-.5-28.5,0-12-10.1-9.9-2.4-23.1,2.9-5,16.4-16,7.2-19.3-3.3,7-21.7,26.7-29.6,19.1-.8-.8-11-17.7-11.2-18.7-.6-2.7,2.9-9.3,2.5-14.9-.5-9.5-11.1-20.8-4.2-27.2l.7,7h4.9l.2,3.9,3.7.4c-.6,2.2-.7,4.1,2.3,4,4.1-5.6,7.5-11.9,11.9-17.3,2.7-3.4,16.5-13.5,6.9-12.6l-18,21.6,16.7-25c-4-.3-5.4,4.5-8.3,6.1-.9.5-8,1.5-9.7,2.3l.2-17.2c4.7-4.9,23.3-12.5,23.3-19.7s-11.4-15-18.7-16c-1.4-.2-7.7-1.1-7.6,1.4,6.6-1.6,23.2,6.7,21.6,14-1.1,5-17.6,13.5-22.3,16.5l-1.4,20.9c-2.7,4-11.6,4.8-12.9,9.3-2.5,8.3,13.6,31.6,4.9,39-.8.7-3.1.3-4.4,1.8-.9,1.1-.8,3.4-2.2,4.8-2,2-7.6,3-9.8,6.9-6.9,12.2,10.8,24.9,7.8,28.6l-14.7,2.7,1.4-10.3-3.5-.8-2.1,11.1c-3.7.4-8.4-4.1-11.6-3.8-3.4.3-6.7,4.1-12.6,3.8-7.9-.5-6.6-12.1-11.2-11.1-2.9,6.7-4.8,10.6-11.8,13.9v-8.3h-4.2v7c-3.5,1-3.2-3.2-4.5-3.9-1.6-.9-4.9,0-5.3-.3-1.8-1.6,4.1-16.1,0-18.9-8-5.6-31.3,17.2-40.5,5.7-2.8-3.5-1.7-10.4-8.3-9.1l2.8,9.7c-2.8.4-16.5,2.4-16.7,4.9-.2,5,9.7-1.2,11-1.5,6.9-1.6,9.2.5,15.4,2.2.1,4.4-30.2,21.8-26.4,25,10.2,1.6,17.2-10,25.1-15.9,3.9-2.9,9-6.7,13.8-7.7l-40.4,34c-3.8,2,1.6,8.4,3.5,7.7,17.6-18,42.4-30.3,56.4-51.4,3.9.9,2,5.1-.1,7.6-11.5,13.2-35.1,27.5-48.6,40.3-2.3,2.2-9.9,10.5-10.8,12.9-.7,2-1,3.7,1.8,3.2,11.6-17.3,29.1-29,45.2-41.7,1.5,1.5-6.2,8.5-7.6,9.8-13.1,12.4-27.1,24-40.4,36.1l-.6,8.3,10.2-3c10.5-8.9,19.9-19.2,30.1-28.3,3.3-3,8.4-7.4,12.5-9-12.3,14.5-32.6,25.1-37.7,44.3l-23.5-1.2c.3,7,6.2,2.7,10.1,3.1,22.4,2,46.5,1.2,68.6,1.2s45.3,1.4,63.6,4.2c7.9,1.2,7.9,3,15.5,1.9,1.4-.2,3.4,1.2,4.6.6.8-.5,3.7-8.1,8.6-6.8l.4,1.1,3-.6c-.9-8.1-1.9-18.3-2.1-20.6-1.1-20.5,0-42.9,1.4-63.3-5.7-2.6-3.8.9-6,2.3-2.8,1.9-9.4,3.7-12.7,6.1-3.2-5.6-9.3-11.5-6.1-18.5,3.8-8,10.1-1.8,14.3-9.4l3.5,6.9c-3.2-1.2-20.2,7.6-16.7,11.1,6.6.9,15.5-14.4,20.8-7-2.2,0-4.2.6-6.1,1.5-1.5.7-17,8.6-9.9,11l16.7-11.1c4.4,13,15,8.6,22.9,1.4,1.6,6.7-7.8,5.2-8.3,7.7-.7,3.4,6.6,2.8,6.9,6.9-.1,1.8-15.3,6.2-11.1,10.4,2.1,2.1,12.4-6.4,15.3-6.9l1.5,10.3-9.8,3.6,7-5c-.3-2,1.1-5.6-2.1-4.7-3.3.9-14,7.4-11.9,11.6l2.8,1.7-1.4,4.8c5.2,1,7.3-2.3,10.4-5.5,2.5-1.1,2.6,2.2,2.1,3.5-.4,1.1-3.3.8-4.9,2-1.6,1.3-10.3,8.3-10.4,9.1l2.1,3.4,9.7-8.3c2.5,6.8-9.5,8.8-13.2,13.9v-32.7c0-1.7,2.4-7.3,2.6-9.8l-3.2-2-2.1,2.1v70.9c0,.4,5.6,5.1,6.2,4.8l32-25c1.8,1,.4,3.7-.6,4.9-4,4.9-17.5,12.8-23,17.3-2.3,1.8-4.1,4.3-6.2,6.3,9.5,10,19.9-8.1,29.2-11.8v20.2c0,.5-2.4,10.1-2.8,10.4-.3.2-6.6-2.8-5.5,2.1.6,2.5,18.3,4.7,21.5,4.9,2.3,0,4.7-1.4,7-1.5,3.6,0,6.9,2.4,10.3.8,2.6-1.2,4.6-6.3,6.9-8.5,1.8-1.7,4.5-1.8,6.3-3.5,4.3-3.9,10.2-15,15.4-19.4,1.9,6.9-10,10.4-9,18.1,2.8,3.2,11-18.4,15.3-14.6-1.5,3.2-9.9,8.3-4.9,11.8l43.8-61.1c.7,4.5-1.7,7.4-3.6,11-4.2,7.8-34.5,45.1-33.9,48,.4,2.2,1.7,1.9,3.5.7,4.5-2.9,6.6-8.5,9.7-12.5l1.4,2.8,27.8-37.5c1.6.9.6,4.1,0,5.5-3.5,7.5-17.4,20-22.6,28.8-1.6,2.7-3.4,5.4-3,8.8,3.6.7,3,0,4.6-1.7,3.6-3.6,5.2-10.3,8.7-14.9,2.6-3.3,6.3-4.5,8.2-8.4l.7,3.2c2.9,3.9,4.4-4.4,6.9-6.7,1.9-1.8,4.3-1.7,5.5-2.8,2.2-1.8,1.3-6.8,5.6-6.2-4,7.9-2.1,10.2,5.6,13.2-1.1,1.5-2,2.6-2.7,3.3l2.2,3.6c1-.5,2.1-1,2.7-1.8,4.5-5.8,7.3-15.4,14.5-19.6-1.2,12-12.2,17.9-18.1,27.1l4.1,2.3-1.3,5.4c3.8,3.4,11.4-14.3,16.7-15.3l-12.5,19.5c4.4,4,12-16.2,16.7-16.7,4.2,6.4-1,18.2,0,22.9.5,2.2,3,2.4,4.2,0v-50.7h4.2c-.2,7.6.3,15.3,0,23-.2,8.4-4.5,16.2,3,22.6,5.2,2,4.6-3.3,6.7-5.9,4.2-5.1,8.6-10.5,13.9-14.6-4,8.7-13.6,20.5-21,26.9-2.3,2-8.5,1.6-4,7.2l76.5-2.1c-3.2-15.9-2.6-30.6-2.7-46.6,0-4-1.6-7.9-1.6-12.5,0-6.7,2.1-13.9,4.3-20.1h2c2,.2-.7,1.8-.7,2.1v20.9c0,1.7-4.8,11.4,1.4,10.4,0-5.2,2.4-38.3,5-39,5.7-.6,10.4,2.9,14.4,6.5l-13.7,19.5,4,4-8.3,13.2c3.4.6,3.5-.3,5.4-2.3,4.9-5,10.8-18.6,16.1-22.8,1.3-1,3.9-2.5,5-.6-4.3,8.6-19.8,20.4-22.9,28.5-1.1,2.8-1.1,3.6,1.4,5.5l13.2-18.7v-.6ZM296.1,470.9c1.2,1.4-8.9,13.4-9.7,12.5-1.1-1.2,7.4-11.9,9.7-12.5ZM158.5,566.2l-23.7,17.3c8.3-9.8,19.1-17.3,29.2-25l-5.5,7.7ZM166.8,551.5l13.9-6.9c-4,5.7-6.6,9.2-13.9,6.9ZM184.9,571c.9,2.5-5.4,8.3-6.9,6.9-.6-.5,6.5-7.5,6.9-6.9ZM148,596c-6.2,5.9-11.1,13.3-18.7,18.1l2.8-4.9c15.5-14.1,30.7-31.8,46.6-45.2,1.6-1.3,2.3-3.4,4.9-2.8,1.9,1.6-32.7,32.1-35.5,34.7h-.1ZM161.9,596c7.6-7.2,16.7-13.6,24.3-20.8.5,2.6-1.8,4-3.4,5.6-8.6,8.6-19.6,16.6-28.5,25-1.5-1.6,6.2-8.5,7.6-9.8h0ZM141.8,623.2l32-29.9c.6,2.7-1.4,3.3-2.9,4.7-6.8,6.6-14.5,12.3-20.7,19.6l5.6,3.5c-2.1,3.8-10.2,3-13.9,2.1h-.1ZM157.1,619.7c8.8-9.6,19-20.4,29.3-28.3,1.9-1.5,4.3-3.7,6.8-3.6-9.5,10.4-20.5,20-31.3,29.2-1.6,1.3-2.3,3.4-4.9,2.8h0ZM176.5,622.4h-13.9l15.3-11.1-6.9,7.6,5.5,3.5h0ZM196.7,594.7l.6,4c-6.2.2-9.3,7.3-15.2,8.5l14.6-12.5h0ZM190.5,623.8l6.3-6.9.5,5.3-6.7,1.6h-.1ZM190.5,618.3c-2.7-5,2.7-7.3,6.9-8.3,1.6,1.6-6.5,8.8-6.9,8.3ZM198.1,571c-1.7-1.8-4-2.9-3.5-5.6l4,1.5-.5,4h0ZM205.7,622.5h-4.2c1.7-18.4-3.7-37.4,1.4-54.9,6.3.5,13.5-13.5,15.3-3.5l-6.9,4.9,7.3,4.7c9.3-6.8,19.8-14.8,31.4-8l.2,6.8-5-4.2-4.5,1.3-3.5-3.9c-3.6,3.6-29.9,16.1-25.9,22.1.3.5,3.4-4.1,3,2.6l4,.9-8.3,6.3-1.4-27.8h-4.2l1.4,52.8h-.1ZM236.3,576.6c-1.5,2.5-5.3,5.4-8.3,5.5,1.4-2.9,5-5.6,8.3-5.5ZM226.6,583.5c-1.5,2.5-4,5.9-6.9,5.5,1.5-2.5,4-5.9,6.9-5.5ZM214.1,622.4h-5.6c.7-2.8,3-3.1,5.6-2.8v2.8ZM208.5,616.9l1.4-16.7,1.7,5.3,2.5,1-2.8,4.9,4.2.7-6.9,4.9h0ZM250.2,576.6v11.1c-6.6-3.8-10.9,5.9-18.1,5.5l15.3-9.7-2.1-4.1-28.5,19.4c1.9-5.2,30.4-25.6,33.4-22.2h0ZM237.7,596.1l-12.5,8.3c2.5-3.8,7.9-7.5,12.5-8.3ZM244.7,626.6v-2.1l4.1-3.5c.5,3.3-.6,5.9-4.1,5.6ZM245.7,608.9c-6,5.4-13.8,9-19,15.6l-8.4-.6,3.5-4.2,1.4,2.8,25.7-18.1c.7,3-1.6,3.1-3.2,4.5ZM223.8,611.3c6.4-4.3,16-14.3,22.7-16.9,2.4-.9,2.7-1.2,3.7,1.6l-26.4,15.3h0ZM255.7,578.6c-1.1,15.5,2.2,30.8,0,45.9-.4,2.4.7,2.3-2.7,2.1,1.1-16.3-1.5-34.6,0-50.7.2-2.4,2.7-6.1,1.4-9.6l4.2-.8c-1.5,4.2-2.5,8.7-2.8,13.1h-.1ZM260,564.1h6.9c-.9,5.1-8.5.7-6.9,0ZM272.5,623.8l12.5-9.7c3.2,4.1-9.7,9.6-12.5,9.7ZM269.7,619.7c3.6-4.5,10-8.7,15.3-11.1l-9.8,8.9-5.4,2.2h-.1ZM283.2,590.8c-4.6,3-10.7,6.9-16.3,6.6,1.4-3.2,16.2-13,18.1-11.1,1.2,1.2.2,3.2-1.8,4.5h0ZM279.4,572.4c1-2.3,3.1-4.6,5.6-4.1-1,2.3-3.1,4.6-5.6,4.1ZM274.1,554.5l9.5-4.4,1.4,12.5h-4.2l1.4-4.2-8.3,1.4.2-5.4h0ZM278,569.6c-1,3.5-16.4,13.5-16.7,14.6-.2.7-.4,3.5.7,3.5l18.8-9.7c-2.3,2.3-4.9,7.1-7,8.9-4.5,3.8-14.6,4.2-12.3,11.8l4.1.8c-2.4,2.2-4.8,4-4.2,7.6,1.8,1.8,16.5-10.3,20.2-11.1,2.8,2.2,0,2.3-1.1,3.2-4.7,3.6-10.9,5.8-15.9,9-3.8,2.4-1.8,6.4,1.9,4.8,4.5-2,11.8-9.5,16.5-11.4,2.4-1,2.4,1.3,2.1,2.7-7.6,3-14.6,7.5-20.3,13-3.2,2.3,3.8,10.8-3.3,10.6l-1.3-50c7.3.8,10.8-7.7,18-8.4h-.2ZM308.6,591.9c-1,2.3-3.1,4.6-5.6,4.1,1-2.3,3.1-4.6,5.6-4.1ZM294.7,619.7v-20.8l2.7.7-1.4,4.9h4.2c.4.3-3.9,6.4.7,5.6,4.1-.8,12.6-12.3,18.7-12.5l-25,22.2h0ZM326,602.9c-2.9,1.6-24.3,19.5-25.7,18.2l11.8-12.5,15.9-9.8c.6-6.5-6.5-2.3-6.9-2.8-.4-3.9,3.9-4.9,6.3-6.9l2.1,13.9c0,.2-1.6-1.2-3.5,0h0ZM325.3,617.6l4.1-3.5v4.2l-4.1-.7ZM333.6,627.3v25.7h-2.8c-.7-.6,1.4-1.8,1.4-2.1,0-10.3-1.3-25.2,0-34.8,0-.6,1.4-4,2.8-3.5l2.8,6.3c-2.6,0-4.2,6.4-4.2,8.3h0ZM337.8,653v-32l7,4.2-2.8,4.8,2.8,2.8c-3.3,2.8-7,6.7-1.4,8.3l-2.7,5.5,8.3,3.6c-1.7,4.3-7.4,2.5-11.1,2.8h0ZM352.3,621.1c-4.9-1.5-3.6,1-6.2,2.7-.2-5.2,1.6-8,7-7.8l2.7,10.5c-5.6,1.2.5-4.2-3.5-5.5h0ZM355.9,643.3c-.4-.3,4.9-7.7,6.9-7.7l5.6,2.2-12.5,5.5ZM402.5,569.9c4.6.3,3.7,10.4,2.1,13.6-3.5,0-.3-8.1-4.8-6.9-1.2.3-8.6,16.6-11.8,18.1-.3-5.6,8.9-25.2,14.6-24.7h-.1ZM387.8,596.1c.8,3.8,1.7,7.9-2.8,9.7l2.8-9.7ZM378.1,628c5.3-14.7,15.8-27.7,25-40.3,2.1,9.2-3.7,11.2-7.5,16.8-5.5,8-9.8,17.5-17.5,23.5ZM401.8,616.9c1.5-4.7,5.2-9.4,8-13.5,3.6-5.2,9.5-14,13.6-18.3,1.4-1.5,2-3.5,4.7-2.9-7.6,12.4-16.8,23.9-26.4,34.7h0ZM429.5,578l-3.5-2.7-31.3,44.4,1.1-5.3-2.5-.9c3.9-7.8,12-13.2,16.7-19.5,3-4.1,10.9-23.2,17.3-21.5,2,.5,2.5,3.7,2.1,5.6h0ZM421.2,611.3c-.5-2.5,1.9-4.6,4.1-5.6.5,2.5-1.9,4.6-4.1,5.6ZM458.8,601.6c-.5-2.5,1.9-4.6,4.1-5.6.5,2.5-1.9,4.6-4.1,5.6ZM462.9,604.4c.3-4.1,5.3-7.4,8.3-9.7-.3,4.1-5.3,7.4-8.3,9.7ZM477.2,607.5c-1.1.9-4.1,10.1-8.7,10.8l11.8-16.7.4,5.4c-.4.4-2.7-.2-3.5.5h0ZM476.8,596c.7-2.8,3-3.1,5.6-2.8-.7,2.8-3,3.1-5.6,2.8ZM508.8,578c.5,2.5-1.9,4.6-4.1,5.6-.5-2.5,1.9-4.6,4.1-5.6ZM502.5,565.5l2.1,3.4-2.8,2.1.7-5.6h0ZM504.6,576.6l-4.2,4.2v-4.2h4.2ZM510.2,583.5c.4,2.5-9,13.3-9.7,12.5-1.3-1.5,7.2-11.9,9.7-12.5ZM498.4,590.5c-.8,2.1-4.7,4.6-3.5,8.4h4.2l-5.6,6.9c-1.5-5.6,3.4-12.4-1.4-16,1.6-3.3,7.4-2.4,6.2.7h0ZM492.8,608.5l1.4-1.3,3.5,1.4-5.5,5.5.6-5.6h0ZM492.1,633.6l.7-5.6,2.1,3.4-2.8,2.1h0ZM500.5,622.4l11.1-13.9c1.1,3.1-8.7,16.1-11.1,13.9ZM493.5,626.6c-2.4.4-1.5-3.4-1.1-4.6,2.3-7.2,15-18.8,20.6-24.6-2.5,11.6-15.6,18.4-19.5,29.2h0ZM500.5,604.4l12.5-16.7c-.7,6.6-7.4,12.8-12.5,16.7ZM529.6,609.9c.3-.2,2.8.6,3.8-.3.4-.3,3.2-7.3,4.5-8.7-3.6-4.9-5.1.7-8.3,2.1v-8.3c8.6,7,19.7,0,27.1-5.6l.7,17.4-2.8.7c3.5-6.9-1.4-5.8-1.4-11.1-6.2-1.1-6.4,4.9-9.1,8.3-2.5,3.1-12.5,12.5-11.7,16,.3,1.7,1.8,2.3,3.5.7,4.7-4.2,8.1-14,13.9-18.1,1.7.5.4,2.9,0,4.1-3.1,6.7-14.9,17.7-20.1,23.7v-20.9h-.1ZM514.4,614.1l2.8-4.8-4.2-2.1,4.9-6.9.7,13.9h-4.2ZM518.5,628c-2.3.4-1-2-1.9-3.7-.6-1.1-4.6,0,1.2-6l.7,9.7ZM515.8,582.1h2.8v5.6l-4.2-1.4,1.4-4.2h0ZM517.8,590.5l.7,6.9-5.5-1.4,4.9-5.5h-.1ZM513,644.7l3.5-5.5,2.1,5.5c.5.4.9.7,1.2.8l-6.8-.8ZM526.9,624.5c0,6.3-2.9,14.5-1.4,21.6l-5.6-.6c3.2.5,1.4-14.2,1.4-15.4.3-15.5,1.7-31,1.5-46.5l5.3,9.2c-5.2,9.2-1,22.1-1.1,31.7h-.1ZM529.6,646.1c.4-2.6-.9-7.5.3-9.5.4-.7,3-1,3.9-2.3,4.8-6.6,10-16.1,15.9-21.7,1.9-1.8,3.4-.2,3.5.7,0,4.8-18,22.2-22.2,26.4l3.4,3.4,14.6-16.7c-2,5.5-7.3,10.2-10.9,14.8-2.7,3.4,0,6-8.5,4.6v.3ZM544.9,646.1l12.5-15.3c.7,3.3-10.1,17.5-12.5,15.3ZM553.3,646.1l4.9-8.3.5,6.7-5.3,1.6h-.1ZM550.5,632.2c-.4-2.5,6.3-11.5,8.3-9.7l-8.3,9.7ZM579.7,589.1c1.4-5.1,6-10.3,9.7-13.9-.9,5.1-5.7,10.7-9.7,13.9Z"/>
      <path d="M2423.2,652.3c0-1.4,8.5-6.6,6-10.4-.8-1.2-3.1-2.6-3.5-.5l-6.3,8.8c-3.7-2.1-1.3-6.9-6.3-7,.9-3.5,14.9-17.1,12.5-19.4-3.4-.5-2.9-.2-4.6,1.7-4.2,4.7-7.7,12.6-11.5,17.8-14.7-4.8-13.7-9-13.2-23.1.7-18.9,6-36.1,8.6-54.7,4.7,2.7,11.7-19.1,15.1-15.5l-12.6,21.5,2.9,1.4c0,.8-9.4,14.7-3.5,11.8,1.8-5.2,22.2-29.4,20.2-32l-4.2,1.4,1.4-4.2,9,1.4c3-5.1-3.9-6.7-7.9-6.6-14.5.3-24.9,11.6-39.2,9.3-10.9-1.8-11.8-17.8-18.8-20.1-9.5-3.2-20.5,6.7-23.8,4.4-.7-.5-5.3-11.4-7.7-14.6-6.6-8.8-18.9-19.8-29.7-22.5-1.9-2.7,3.6-12.1,3.5-14.5,0-5.2-6.7-4.4.5-13.9,4.4-5.8,12.1-7.1,5.6-15.3-3.6-4.5-7.2-5.6-12.5-3.4-4.1-7.4,6.5-12.3-3.2-17-5.3-2.6-10.4-.5-12-8.8l8.9-7.5c-1.7-4.3,1.7-6.4,2.1-9.3.9-5.4-8.1-10.5-8.3-19.5,0-1,2.7-10.9,3-11.3,1.5-2.2,9-.9,10.9-2.3,2.1-1.4-.5-9.1,9.6-7.8,1-5.8-4.1-6-8.3-7.6l-1.4-2.7c4.5-13.2,14.9-21.9,27.8-26.5,14.4-5.1,7.2,1.7,15.2,4.2,7.8,2.5,26-3,25.1,10.4h11.1l-1.3-4.9c-7,.3-9.7-5.7-16.3-7.3-8.7-2.1-17.9,1.1-23.5-8.4l-24.3,5.9c-1.9,1.2.5,3.7,0,4.6-.3.5-7.3,5.3-9.5,8-3,3.5-10.5,12.8-7.7,17.4l6.3,3.4c-4.5,2.9-10.7,9.9-16,10.4-.6,0-.5-2.6-1.5-2.8-5.4-1.2-17.6,9.1-21.4,13.3,1.4,6.6,6.1-2,7.8-3.3,3.6-2.7,7.7-4.9,11.6-7.2l1.4,8.3c-6.9-3.3-14.8,7-20.8,10.4-.1,1.6,2.3,2.5,4.8.7,1.4-.9,13.8-10.8,14.6-9.7l1.4,15.3h-4.2l1.4-4.2c-2.5-2.1-17.3,6.8-19.4,9.1-2.9,3.2-1.6,6.4,2,4.8,1.7-.7,6.5-10.2,11.8-7.6-3.5,3.4-7.4,6.6-11.2,9.7-2,1.7-9.7,3-4.8,7.7l24.3-17.5c2.2-.3,5.7,3.7,5.7,5.7s-6.5,10.8-7,11.2c-.9.7-3.5-.4-6,.8-2.1,1-17.1,13.2-17.6,14.5,1.3,6.6,5.8-1.7,7.1-2.7,3.4-2.6,7.5-4.3,10.3-7.8l7.6,10.4-9.7,6.9-11.1,11.8c8.3-1.3,13.3-12.1,22.2-13.9-1,4.6-21.7,17.3-18.1,20.8,3.3,3.2,5.2-4.3,7-6.1,5.2-5.3,13.8-11.8,20.7-14.7l-23.6,24.3,3.5,2.1,17.4-17.4c4.1,4.3-1.7,3.2-4.3,5.5-1.9,1.7-10.6,12.3-11,14-.4,1.9-.7,4.1,2,3.4,1-3,15.2-18.5,17.4-16.7l-12.4,14.6-8.4,6.9c3.2,4.4,7.3-5,11.1-4.9l-6.3,8.3c2,4.4,2.9,4.2-.6,8.3,2.9,2.6,16.6-18.6,20.8-19.4.5,3.3-3.5,4.7-3.8,7.8-.2,2,1.4,4.1.8,6.5-.6,2.4-5,4.4-6.4,7.6-2.3,5.2-1.4,11.7-4.3,17.9-1.9,4.2-5.8,7.1-7.4,11.5l-6.7-.7-2.8,6.4c-7.9-2.8-22.2-10-26.5-17.3-1.3-2.2-1.1-5.8-1.5-6.2-.4-.4-3.9-.2-6.2-1.5-3.6-2.1-7.4-9.5-12.5-11.2l-.6-2,6.9-9.1c-4.8-.4-7.4,4.9-10.4,7-2.6,1.8-5,.7-4.9-.7.1-1.3,18.2-9.9,12.5-14.6-1.9-1.5-9.1,5.3-10.4,6.9l-1.4-4.2-13.2,9.1c-3,6.3,4.4,1.2,4.9,1.2,1.5,0,2.4,3.7,6.2-.5l1.4,3.5c-14.3,5.8-23.7,10.1-36.8-.7-3.7-3.1-5.5-7.1-8.4-9.7-2.6-2.4-10.9-5.8-11.6-7.9-1.2-5.1,2.7-10.4,2.7-15.2s-3.2-1.2-3-3.9c.4-3.7,4.6-6.9,4-10.9-.7-4.7-7.1-7.5-8.8-10.8-1-2,.5-5.7-1-7.9l-8-.3,8.4-17.3c-.5-5.4-8.3-3.6-11.2-7,3.1-3.3,7.9-3.8,11.2-6.9,2.5-2.4,4.1-7.6,5.5-8.5,2.9-1.9,8.1,3.2,11.9-.6,4.2-4.2,0-10.1,1.3-15.3,2.1-9.4,9.8-5.9,11.3-8.2,1.1-1.7.2-5.2.9-7.4,1.7-5.6,11.3-6.7,16.4-6.6-3.7,14.6,4.9,6.6,11.8,6.9,4.6.2,8.8,3.2,9.9,7.7l-5,11c4.3,2.6,6.3,10.2,11.1,4.3l-4-8.1c5.1-3.5,3.7-9,1-13.8-4-6.9-15.2-5.7-21.9-3.8-.9-.9,7.4-10.9-10.1-8-8.6,1.4-13.8,5.7-13.6,14.9-13.1-1.2-12.6,14.2-11,23.7l-11.6-1.3c-2.5.8-3,8.1-7.1,11.1-4.9,3.5-23.5,8.7-24.4,9.7-.8.9.5,5.2,2.1,5.6,2.6.5,8.8-8.6,14.6-2.8l-13.6,8.6-3,12.3c4.9,1.2,5-3.3,7.8-5.4,2.9-2.1,6.3-2.7,8.8-5.1l-4.1-3.5,9-4.2c1.9,3.2-4.4,10.2-6.9,12.6-4.2,4-16.6,8.8-16.1,14.5,4.2,2.7,5.2-3.1,9.3-6,1.2-.9,9.3-5.4,7.4-1-1.9,4.5-18.4,14.8-18.1,16.7.5,2.4,2.7,2.2,4.9.7,1.3-.9,13.6-13.5,14.6-12.5l-12.5,16,4.2.7v4.2l4.3-.8c2.2,8.4,7.7-3.1,11.7-6.2,2.3-1.8,5-2.9,7.6-4.2.8,3.7-.3,3-1.7,4.6-3.5,3.7-14,10.3-13.6,15.6,5.5,3,7.2-7.3,12.5-9,.2,6-5.4,16-4.2,21.3.3,1.4,3.6-.1,2.6,4.1-1.7,7-9.7,7.4-15.7,6.5-9-1.5-6.6-11.1-13.2-13.2-4.7-1.5-8.1,1.1-12.6.8-1.2-5.3,6.2-8.8,6.9-9.8.8-1.2-1.3-4.1-2-4.1-1.6,0-9.7,13.1-11,15.4-1.1,2-1.4,9.7-4.3,8.2-1.6-.8-13-17.9-16.4-20.4-12.8-2-15.8-13.3-2.4-17.1-1.8,10.7,4.9,14.6,13.9,17.4,6.5-2.9,5.2-14.4,7.2-17.1.7-.9,4-1.1,5.9-3.1,1.6-1.7,7.6-12.9,2.8-13.8-5.2-1-.7,8.1-4.8,10.5l-6.3.5c-2.6,5.9-.6,13.6-5.6,18.1-1.3-3.2-7.4-4.1-8.4-5.5-1.6-2.4,0-7.3-.9-10.3-1.6-5.3-9,2.4-13.7-.9l2.6-20.7-8.2-.2v-10.2c-1.3-1.8-6.8-.5-5.6-6.5l-4.1,1.4c1.3,8.8,9.6,9.2,6.9,19.4h7l-1.3,21.3c-9.4,7-5.6-5-8.3-9.3-1.3-2-5-1.7-5.5-2.5-1.3-2.1,1.7-11.2-2.4-12.2-6.2-1.5-16.9,17.6-27.8,5.6-1.2-1.3-4.3-7.9-4.5-9.5-1-6.6,1.7-10.9-2.7-19.4-2-3.9-12-11.5-10-14.3,21.8,8.4,11.4-28,25-34.1,2-.9,4.8,3.7,9.7,1.5,8.1-3.7,5-17.2,18.4-20.6,12.1-3.1,16.6,6.5,21,5.8,4.6-1.5,10.7-7.7,14.8-8.9,3.3-1,6.6,0,9.8-1.4,2.2-.9,6.1-5.9,8.5-6.8,3.2-1.3,7.4-.3,10.3-2.2,4.2-2.9,1.3-24.8,9.8-28.8,17.8,13.1,19.8-11.4,26.6-15.5,16.9-10.1,15.8,11.5,25.2,13.5,12.1,2.6,15.2-18,22.7-22.6,8.8-5.3,17.3,1.4,26.4-1.4,3.7-1.2,10.9-9.9,16.2-13s13.6-4.8,17.8-8.6c1.2-1.1,13.9-17.6,14.4-18.9,3.3-8-.7-19.2,11.6-17,6.3,1.1,13.6,16.2,24.7,10.3,1.9-8.4,1.5-15.5,5.8-23.4,1-1.9,12.6-16.6,13.6-17.1,6.4-3.2,11.2,5,15.9,5.1,5,0,11.5-5.9,16.4-5.4,4.3.4,4.4,5.3,8.3,7,15,6.6,19.4-16.2,28.2-15.1,2.2.3,6.4,5.8,6.1-3.2-13.3-10.8-18.2,13.9-27,15.2-8.9,1.3-8-7.4-13.9-8.4-6.5-1.1-12.9,5.2-18,5-4.6-.2-9.8-7.6-17.8-4.8-3,1-11.6,17.3-16.6,19.6l-6,23.2c-9-.9-14.3-12.7-23.4-12.3-13.2.5-7.7,13.3-12.1,21.3-8.3,15-23,18.3-34.5,26.7-3.1,2.2-7.4,8.5-9.9,9.6-6,2.8-11.1-2.3-17.2-2-2.9.2-13.1,3.7-15.2,5.4-3.1,2.5-8.6,27.8-17.7,18.9-3.2-3.2-7.7-18.9-14.2-17.2-1,.3-12.6,6.4-13.6,7.4-4.6,4.2-7.4,19.2-15.3,16.9-4.3-1.3-4.7-6.5-11.2-1.6-9.1,6.9-7.4,26.5-9.6,28-8.6-1.2-10.6,4.2-15.5,6.8-3.9,2.1-10.4,2.3-14.8,4.7-3.1,1.7-6.7,6.8-9.7,7-2.6.2-5.6-5.9-11-6.7-14.1-2.1-25.1,7-27.2,20.6l-12.4-2c-2.4,4.4-8,8.2-9.8,12.5-3.6,8.5-.5,34.4-14.5,20.3-3.7,2.3-6.6,12.2-4.3,15.4,1.3,1.7,4.5.5,6.5,2.2,1.6,1.4,8,13.2,8.2,15.1.7,6.8-6.7,15.2-6.9,22.2.2,2.5,8.7-1,9.7-2.1.8,6.6,1.7,33.3-2.7,36.7-10.2.1-21.3,1.9-31.3,2.3-29.8,1.1-59.5-2.7-89.1-1.5-21.9.9-43.9,1-65.8.7-21.9-.2-43.8-.8-65.7-1.3-21.8-.5-43.7-.9-65.5-.9s-21.8.2-32.7.5c-5.5.2-10.9.4-16.4.6-5.1.2-10.3.1-15.4.3-4.7.2-9.4.6-14.1,1.2-5.9.8-11.7,1.9-17.7,2.3-3.4.2-6.8.1-10.1-.4-3-.5-5.6-1.9-8.6-1.4-7.4,1.3-15,1.8-22.4,2.6-2.2.2-4.3.5-6.5.3-2.1-.2-4.1-.7-6.1-.8-2.3-.1-4.6.4-6.8.9-1.9.4-3.9.4-5.8.7-13.5,1.7-27,4.9-40.6,5.2-10.2.2-20.4-2.1-30.6-2-7,0-30.2,5.6-41.3,7.6-1.5.3-8,.8-9,.9-6.4.5-13.1,2.2-19.3,4.5-.4,3.1-1.6,5-4.5,4.1-.9-.3-1.4-.9-1.6-1.7-1.1.5-2.1.9-3.1,1.4-11.6,5.5-16.9,13.7-27.3,20.7-2.9-21.2,6.4-42.7.3-63.3,15.9-7.6,4-11.4-7.2-9.7,2.6-2.5,8.2-5.3,9.9-8.3,2.5-4.3-1.5-6.1,6.8-12.6,7.2-5.7,20.1-6.1,19.5-17.4v-2.8c-1.2-8.6-9.6-12.7-2.2-20.9,5-5.5,12-9.5,13.2-18.8,1.2-9-2.9-10.3-6.1-16-1.4-2.5-2.4-7.7-4-9.3-1.7-1.7-5.9-.3-7.6-2-5.5-5.5-4.3-26-18-27.3-6.7-.6-18,30.2-20.6,35.9-11.4-7.3-8.7-35.3-15.3-43-5.5-6.4-19.5,2.2-27.4-10.2-2.9-4.5-4.1-14-10.4-16-2-.6-15.6-3-17.8-3.1-18.6-.8-21.6,27.2-33.4,27.9-6.8.4-10.9-10.5-11.5-16.2-1.3-12.1,7-28.7-5.3-36.4-10.8-1.8-21.9-3-32.7-4.8-4.1-.7-10.6-4-13.9-3.6-1.6.2-11.3,5.4-12.8,6.7-4.6,4.1-8.2,12.5-11.5,17.7-3.3,5.1-4.6,3.2-7.8-1.1-3.9-5.3-13.4-35.8-13.4-42.3s3.6-13.2,1.5-14.6c-3.8-2.5-7.8,7.5-11.2,10.3-15.7,12.9-45.1,10.9-62.9,3.3-10.5-4.5-16.3-16.6-18.7-27.1-2.5-10.9,1.7-20.2-15-22.5-3.9-.5-22.9-1.9-26.2-1.5-8.8,1-13,9.7-17.5,11.8-14.4,6.7-19.7-28.5-25.6-32.8-5.9-4.3-12.8,3.8-17.5.9-3.7-2.3-4.2-15.3-10.7-17.1-8.4-2.4-21.3-1.3-29.9,0-12.7,2.1-36.7,13.8-46.2,13.4-11.1-.5-10.4-12.5-16.8-13.8-6.5-1.3-16.1,2.2-22.1,1.2-4.3-.7-7.6-4.1-12.5-4-4.2,0-12.2,4.6-15.1,3.9-6-2.2-7.9-12.2-11.7-15.1-2.9-2.2-23.1-8-27.4-8.4-18.4-1.7-40.3.3-45.9,20.9-12.5-9.3-16-24.7-25.2-36.1-9.1,6-15,15.8-25.6,20.1-7.1,2.9-14.5,2.7-21.6,4.8-18,5.4-28.4,18.1-49.6,15-10.1-1.5-17.7-5.7-24.7-12.9-8.5-8.8-17.3-19.1-21.9-30.9-3.2-8.3-7.1-32.9-13.5-36.6-8.3-4.7-17.1,1.1-23.8,1.4-3.5.2-6.4-2.2-9.7-2.6-11.7-1.4-30.5,9.3-43.4,9.2l-49.6,31c-.8-5.9-5-6.3-8.4-9.7-8.6-8.9-12.7-18.1-26.6-19.4-15.4-1.4-13.4,9.3-18.3,19-.5,1-.1,2.7-2.4,1.7-1.2-.5-10.5-10.3-11.6-12-4.6-7.3-3.5-17.3-10.9-22.5l-40.1,12.2c-5.1,0-12.5-11.2-20.7-10.9-3.2,0-17.8,6.1-21.3,8-9.8,5.5-16.5,17-25.5,21.7-6.5,3.4-11.7,2.5-17.6,4.6-8.1,2.9-5.7,9.6-17.5,9.5-10.3,0-16.9-7.9-21-7.9s-10.1,3.2-12.4,4.5c-9.4,5.1-11.8,13-16.2,22.1-2.7,1.9-9.6-11.8-13.8-13.3-5.4-1.9-21.2-3-26.6-1.4-3,.9-17.9,12.7-15.2,16.1l4.2.8c6.5-15.9,21.1-11.5,35.4-11.9,9.6,4.4,10.1,24.3,20.2,9.1,6.7-10.1,6-15.9,19.8-20.5,7.8-2.6,6.2,1.1,11.1,3.4,6.3,2.9,15,5.6,21.8,3.2,6-2.1,5.6-8,13.5-10.1,6.9-1.8,8.7-.5,16.1-4.8,16.1-9.3,20.4-22.9,43-28,10-2.3,14.5,10.2,22.6,10.3,4.6,0,10-3.7,14.5-5,2.7-.8,5.6-.5,8.4-1.3,3.2-1,13.9-6.6,15.9-6.1,6.3,13.2,9.6,32.5,27.2,35.4,5.5-7.2,3.6-23,15.8-21.7,13.3,1.4,21.1,14.1,29.2,23.7,2.4,2.8,1.6,7.2,6.9,6.9,4.2-.2,14.3-10.2,19-13.1,7.6-4.8,15.5-9.9,23-14.5,4.8-2.9,42-13.9,47.2-14,4.1,0,7.6,2.7,12.3,2.8,6.8,0,17.5-6.1,23.7-1.6,3.9,2.8,8.9,28.6,11.7,35.6,5.5,13.9,22.3,36.1,36.5,41.4,29.8,11.1,39.8-4.2,65.3-12,7.1-2.2,15.4-2,22.5-5.3,5.3-2.5,19.7-17.9,22.4-17.9.6,6.1,19.2,35.1,22.6,36.2,1.1.3,4.9.3,5.8-.2,2.9-8.5,4.9-16.8,14.5-19.6,12.1-3.5,40.5-1.9,51.5,4.8,3.9,2.4,5.1,8.4,7.9,11.6,8.6,9.8,14.4,1.1,24.3,2,5.2.5,8,4.3,13.9,4.4,5.5,0,11.3-3.7,16.6-2.9,6,.9,5.7,12.3,15.4,13.8,11.8,1.9,27.8-7.7,39.2-10.6,7.4-1.9,37-6.1,41.7-1.5,2.8,2.8,2.5,13.5,9,16.8,5.6,2.7,12.6-5,17-.4,4.1,4.2,6.4,20.7,13.8,27.9,14.4,14.1,19.3-5.3,29.3-6.9,5.6-.9,9.3,1.2,13.8,1.3,3.5,0,6.5-1.9,11-1.3,14.9,2,11.6,11.8,14.2,22,4.1,16.1,11.8,25.9,28,30.4,21.6,6,45.7,7.1,62.8-9.3,0,12.5,5.2,28.9,10.1,40.7,13.2,31.6,18.2,2.5,27.5-6.6,2.9-2.8,7.2-4.2,10.8-6,8,2.6,45.6,5.4,49.1,10.1,5.7,7.5-6.7,33.6,7.5,46.7,15.1,14.1,23.9-17.5,34-23.1,7.2-3.9,7.7-.5,13.6.5,3.4.6,6.9-.1,10.2.9,5.6,1.8,5.3,8.7,7.7,13.2,8.7,16.3,24.5,6.3,29,12.7,2.5,3.5,5.2,23.9,7.4,30.1,1.7,4.7,7.8,18.7,14,10.7,4.3-5.5,9-30.5,16.1-31.2,11.9,1.3,11.9,18.9,16,27.8l8.2-1.3c1,8.6,9.1,13.1,7.8,22.3-1.7,12-14.9,14.8-16.9,22.1-2,7.1,12.7,18.4,2.6,26.5-4,3.1-11.4,3.4-14.7,5.4-.5.3-8.3,7.9-8.6,8.4-1.7,2.8.3,7-1.4,9.8-1.1,1.9-17.5,7.3-10.5,11.8,3.2,2,9.2-2.4,7.9,8.1,0,.3-2.2,4.9-2.4,5.1-1.4,1.4-2.2-5.7-5.5-4.2-4,8.7-26,28-26.5,36.8-.2,2.8.4,2.3,2.8,2.1,2.3-6.3,7.7-13.9,11.9-19.4,3.7-4.8,8.7-12.2,14.5-14,1.6,1.4-23.7,27-25,34.1-.4,2-.8,4,2,3.4l22.9-32.3,9.7-8c-1.2,7,3.8,16.7-4.8,18.1l-27.2,33.3,16.1-24.9c2.8-4.6,13.6-10.8,13.1-16.1h-2.8l-33.1,40.5-.2,3.3h4.2l-4.1,6.3,3.4,2.1c2.9-2.4,31.5-43.8,34.1-40.3v9.7l-5.6-.8-31.9,40.5c1.2,5.2,2.9,2.8,5.6,0,10.4-10.9,17.2-28,30.5-36.9l-4.2,9-33.3,39c1.3,4.9,2.2,3.3,4.9.7,2.4-2.3,29.7-41.2,32.6-37.6,1.4,5.9-2.8,3.1-5.4,6.4-7.8,9.9-14.7,21.3-23,31.2-2.3,2.8-6.5,1.9-5,7.4.4,1.6,3.4,0,2.8,2.2l-23.6,5.6,4.2-7.6-4.2-2.8,8.3-2.1c1.6-14.9-.9-68.4,8.8-77.4,3.1-2.9,19.3-7.9,14.3-14.4l-7.7-3.4c6.8-12.8,42.5-51.4,11.1-53.5l1.4,4.8,6.4,2c5.1,9.2-28.4,47.8-24.5,51.5,3,0,7.2-.8,8.3,2.8l-11.8,7c-4.3.9.7-4.3-.7-5.5-2.1-1.9-5.7,1-5.6,4.8,0,2.3,1.6,4.8,1.5,7.1,0,4.4-2.2,8.6-1.5,13.1l-5.5-4.2c-5.8,10.2-14.9,18.8-23.6,26.4-.6-5.6,17-18.2,16.7-20.1-2.5-3.1-2-1.8-4.2,0-5.7,4.5-11.4,11.7-16,17.4-4.6-5.6,4.3-8,7.7-11.7,9.2-9.8,13.7-27.4-4.2-28.6,3.2-8.1,13.4-14.4,0-18.8l11.1-13.9c-2.3-8.6-5.7-10.5-12.5-15.3,8.9-6.5,5.4-7.6,5.7-15.1,0-3.9,4.4-10.7-2.2-12-5.9-1.1-13.8,1.1-20.2-1.4,1.6-8.6,12.3-12,9.5-23.4-12-5.7-22.4-13.9-35.3-18.2-10,7-16.5,10.9-4.8,20.8-14.7-3.3-29.8,5.8-44.7,8.8-7.6,1.5-12.7,1.5-20,2.3-12.1,1.3,2.3,7.7,4.9,10.5,4,4.1,8.1,10.5,12.7,15.1,1.8,1.8,2.1,2.9,5.4,2.3-3.2-9.4-12.9-15.1-18.1-23.6,4.1-1.5,8.4-1.1,12.6-2,10.4-2.3,28.2-9.6,36.9-10.4,5.9-.6,8.2,2.9,13.5,2.6l3.5-5.9-8.1-8.5c5.6-9.6,14.1-4.1,22.1.2,2.9,1.6,13.8,8.7,14.1,11,1.9,7.4-10.7,12.1-7.8,18.7,2.8,6.3,17.2,5.8,23,5.6-1.5,4.3-.6,10.5-1.7,14.3-.9,3-5.8,4.8-5.3,10s7.9,5.5,9.1,7.6c.6,1.1-.8,3.3-.7,5,0,1.8,1.2,3.5,1.2,4.2,0,2.4-21.8,14.1-2.6,16.6.7,5.3-6.3,9.4-8.3,13.9,2.8,3.8,7.8,1.6,11,4.1,6.7,5.2,4,11.8-.2,17.9-2.9,4.2-17.3,15.3-22.1,18.2-4.8,2.9-9.5-.4-9.6,9.2-8.7-3.4-15.3,11.4-22.2,16l2.8,4.1-6.9,8.3,5.5-.7c.5.7-3.1,6.1,2.8,5.6,3.4-9,12.1-17.3,19.5-23.6-.4,3.2-3.6,6.5-5.6,9-3.1,4-16.8,18.3-17.8,21.2s3,10.2,6.7,8.7c-.9,3.5-6.8,6.5-2.1,9.7,9.4-11.6,16.7-25.2,28.5-34.7l-1.6,17.8c-6.9,1.7-14.1,9.8-15.1,16.9-3.1.4-3.4,0-2.2-2.9,2.4-5.8,18-20.7,17.5-22.8-1.7-7.5-7.1,4-7.7,4.8-5.7,7-14.5,14.1-15.8,23l-14,3.5c2.6-7.7-.8-14.1-.9-21.3,0-8.2,1-18.7,1.8-27,.2-2,1.9-5-1.7-4.4-4.9,7.7-3.2,17.8-3.5,26.4-1.3-.4-2.8-1.6-4.1-.8-5.2,3.1-14.2,24.6-20.9,29.3,1.1,6.3,5.1-1,6.9-2.1,2.2,8.1,3.3,1.2,7-1.4v5.4c-5.3.6-10.8,2.9-16,3-2.2,0-2.4.3-2.1-2.1,7.7-10.2,13.9-22.5,21.6-32.6,1.6-2.1,4.7-3,5.5-4.2,1-1.6,1.8-6.8-1.4-5.5l-30.2,45.6-12.3,1.6c-2.2-2,18-29.5,21.5-32,2.1,1.3-.7,4.1-1.5,5.4-2.7,4.6-13.3,16-13.9,18.1-1.7,6.2,2.8,3.7,5.6,0,8.5-11.3,16.7-32.5,24.4-40.8,1-1,2.4.2,3.5-.7,4.9-4.2,2-8.7,2.8-9.9,1.1-1.9,9-3.1,2-8.9-2.1-1.8-6.6-1.9-7.7-3.5-1.4-2.1-.3-7.1-.9-10.2-1.3-6-9.4-8.5-15-7.9-.4-8.3,9.2-12.7,9.8-21.6.6-9.1-6.7-12.7-7-18.1-.3-5.5,4.5-14,2.2-21.5-1-3.1-4.5-5.1-6.1-7.8-1.3-2-1.4-4.6-3-6.8-.7-.9-10.5-10.7-11.2-11.1-2.1-1.3-4.7-.7-6.9-.7-3.4,3.3,11.8,10.2,13.9,13.2,1.5,2.1,1.7,4.8,2.9,6.8,1.8,2.8,6,5.4,6.5,8.8.8,5.2-3.4,14.2-2.5,20.5.8,5.7,7.3,9.2,7,16.8-.5,11.5-25.4,21.1,3.7,27.5l2.4,15,9,4.8c-7.9,8.1-19.4,13.7-30.9,11.5-2.9-.6-7-3.8-8.4-3.6-1.5.2-14.3,9.3-16.7,11.1-3.1,2.3-3.1,6.7-9.2,5.4l-4.2,43-5.6-2.2,9.8-92.4c5.8-.9,20.6-2.7,23.7-7.6,5-7.7-3.3-9.4-4.1-12.9-.8-3.1,5-6.3,1.9-12.9-.3-.6-8-9.4-9.1-10.4-3.2-2.9-7-5.3-10.8-7.4-1.9-1-4.1-1.6-5.9-2.7-1.4-.8-2.5-2.8-4.5-2-6.5,2.6,7.8,7.9,9.1,8.8,10.5,7.1,23.1,14.6,13.7,28l6.7,8.5c-.6,2.7-23.6,10.9-27.1,4.9-5.5,3.7.6,7.7.7,10.5,0,4.4-13.8,4-18.8,7.6-9,6.4-5.9,25.1-23.6,12.5-3.5,2.3,0,4.7-2,7.7-4.8,7.4-17.6,14-23.1,21.5-2.3-1.4.5-3.1,1.4-4.2,2.6-3.1,6.7-6.9,9.7-9.7,4.4-4.1,10.7-4.5,9.1-11.1-4.2.7-4.9,4.6-7.5,7-4.2,3.8-19.1,15.4-21,19.5-.9,2,.3,3.6,0,4.8-.4,1.9-2.7,2.5-2.1,4.9h4.2l-2.9,6.3,2.8,1.4-6.9,6.3c0-4,0-25.7,1.6-27.6.4-.5,3.3-.3,4.7-1.5,6.4-5.5,11.5-18,21.6-18.9l-2.1-4.8c-7.6,7.5-18.2,13.9-23,23.6l-1.4-8.3c3.5,4.4,15.2-9.9,13.9-11.1-5.8.4-9.2,6.2-13.2,9.7,0-1.5-.3-3-.4-4.5,0-.6,0-1.7-.2-2.3-.6-1.4-2.5-2.2-2.9-3.7-.5-1.5.2-3.8.6-5.2.9-3.3,2.4-6.5,2.4-10s-1.2-2.9-3.5-2.1c-2.4.9,0,14.9-2.8,18-1.2,2-6,2.5-7.8,4.8-1.7,2.1,1,4.6-1.9,6.3l-4.9-2.1c-2.8,7.4-18.3,16.7-20.6,22.5-1,2.6-.4,3.9,2.6,3.3,0-4.1,20.7-25.3,22.3-23.6.6,2.6-1.4,3.3-2.8,4.9-5.6,6.7-18,17.6-21.6,24.3-1.1,2.1-1,3.8,1.4,2.8,2.2-.9,17.5-21.4,20.8-25.1,1.8-2.1,5.1-3.1,6.5-4.8,1.7-2.1-.9-8.1,5.4-7.7l-6.2,46c-6.1.3-6.8,9.3-11.9,7.6l9.7-11.8-12.5,8.3c-.9-.9,5.8-9.2,6.9-10.4,1.8-2,13.8-8.7,2.8-9l6.9-9.1-4.2-2.1,4.1-6.3c-4.2-5.9-8,5.7-11.1,9.7-3.4,4.3-18.2,18.4-19.2,21.1-1,2.6-.4,3.9,2.6,3.3l22.3-26.4c-3.9,9.9-13,18.5-20.1,26.5-2.2,2.5-7.2,2.6-4.2,6.9l4.8.6-16.7,3.5,12.2-90-3.2-3.1c-3.4.7-1.8,11.5-2.1,14.6-1,9.8-3,19.5-4.1,29.2-.4,3.2-.8,23.3-1.6,24.2-.4.4-2.6-.4-4.1,1-1.1,1-2.4,4.8-4.1,6.7-2.4,2.8-12.4,12.6-13.2,14.7-.7,1.5.3,2.8.8,4.1h-7c4.5-8.3,24.6-25,26.4-32.7.4-2,.8-4-2-3.4-6.2,9.9-14.1,20.7-22.2,29.2-3.2,3.3-6.9,8.7-11.8,8.3l34.8-42.6v-3.8l-2.8-1.6c6.5-4.5,2.5-5.8,1.3-11.7-5.4-1.4-3.6,1.8-5.6,4.5-9.4,12.7-20.3,24.2-31.8,35l1,3.5,3.1.7-5.5,5.6,2.1,3.4,30.6-34.7.7,2.1-35.5,41c-3,.6-2.1-1.4-2.1-3.5,0-7.9,3.2-17.5,2.8-25.7l4.1.8c8.4-12.6,18.9-23.9,30.5-33.6-1.3-1.8-2-4.5-2.7-7l-3.9-1c.4,5.8-7.9,4-13.3,6.2-3.5,1.4-5.9,4.2-8.5,6.8l-.7-4.1h-5.5c0,0,1.4-5.6,1.4-5.6l-3.5,1.4-11.8,65.3h-5.6c1.4-1.5,1.4-5.6-.7-5.5-1.4,0-1.6,10.9-6.2,6.9-1.2-1.1,11.6-17.5,13.9-18.8l-3.4-2.1c-2.5,4.6-12.3,13-14,16.7-.7,1.5.3,2.8.8,4.1-9.2,1-19.1,2.2-28.1,4.6-8.2,2.2-14.5,5.7-21.9,9.3l24.9-42.5-4-3.3c-5,16-15.8,29.2-24.3,43.2-1.1,1.7-.5,4.7-1.5,6.8-.8,1.6-12.3,13.6-13.1,12.6,4-11.8,12-21.8,18.3-32.4,5.2-8.9,7.5-18.8,16.4-25.3l-3.5-3.5-34.8,57.1,2.2,5.5-13.9,5.6,39.7-63.9-1.5-4.2-4.2,5.5c-.6-10.4-9.6,1.9-11.6,5.1-13.9,21.9-24.6,43.1-42.6,63-7.5,8.3-11.8,14.2-24.3,13.9.6-4,2.4-7.7,2.8-11.8.7-7.4-.2-31.7,2.1-36.8.4-.8,10.5-13.3,11.2-13.9,1.7-1.5,4.2-1.9,6.2-2.8l-11.8,13.9,1.4,5.5,18.8-20.8-22.2,29.9,4.2,1.4c7.2-11.4,15.1-23,23.6-33.4,3.9-4.8,10.4-6.3,9.7-13.2l-5.6,2.1c4.1-13.7,21.3-8.1,27.5-21.2,3-6.3,1.4-20.1-3.9-24.7-7.7-6.5-42.3-8.6-44.3-15.6-2.2-7.6,23-26,26.6-36.9,1.9-5.7.4-10.1,1.2-15.5.7-4.7,3.8-8.9,3.9-13.7-1.5-6.1-14.5-3.1-19.3-3.8,4.2-6.9,14.4-10.9,14-20.1-.5-12.2-20.7-14-22.2-19.8,2-8.6,6.9-12.1,5.3-21.9-1.6-10-24.6-19.9-33.7-17.2-7.9,2.4-4.2,20.2-12,22.8-6.3,1.3-37.3-4.9-40.4-3-1.8,1.2-1.4,3.1-1.4,4.9l6.1.2h3.8c9-3.3,37.8,7.6,41.3-4,1.2-3.8.4-16.6,5.4-18.3,5.2-1.7,22.1,6.7,25.5,11.6,6.8,10-6.1,17.4-4,24.7,2.7,9.2,30.8,11.3,20,26.1-4.4,6.1-14.4,8.2-13.3,16.6.6.6,14.4-.5,17.4,0,7.2,1.3.4,9.1-.4,13.5-2.3,13.7,2.4,14.1-8,26.8-4.8,5.9-28.8,23.7-17,30.9,16.8,10.1,52.5,3.3,46.8,32.3-2.2,11.1-18.6,9.8-23.6,14-2.5,2.1-4.1,8.5-6.4,11.7-6.2,8.7-14.3,13.9-23.5,5.7-4.4,3-.2,4.3.4,6.6,1.3,4.8-2.8,8.5-6,11.4-2-2.8,3.1-7.6-1.4-9.7-5.2-2.5-3,5-3.5,5.5l-17.9-.2-4.6-14.9-5.4-.2c.3,5.5,4.2,7,4.3,13.2,0,2.9-1.5,16.4-3.6,17.4-2.2,1-3.3-6.3-5.8-6.9l-8.7,4.2c.7-4.7,4.3-13.8-2.1-15.3-1.5-.3-3.3,0-4.9,0v4.2h4.2c0,9.6-10.6,8.4-16.7,11.9l-15.6-31c-14.9-7.5-15.8,15.9-21.5,25.7-1.2,2-3,2.4-4.4,4.1-3.8,4.4-3.9,9-13.2,7.5-4.3-4.8-1.6-11.3-.9-16.7-2.3-2.2-12.5,8.6-16,9.7-4.1,1.3-1.1-7-2.1-8.3l-4.1,2.8c-.5-4.8-.4-28.8-6.3-29.2-4.7,3.3,1.9,6.9.7,11-8.2,1.2-13,9.5-19.4,14-2.4-2.5,14.3-15.1,16.7-16l-4.2-4.2,4.2-4.9c-6.3-1.7-7.3,4.9-12.5,5.5-.9-4.4-4.1-16.7-10.2-15.1-4.3,1.1-10,13.5-13.1,15.2-2.7,1.6-8.1.7-9.6,2.6-.9,1.2,1.1,5,.2,8.4-.9,3.5-4.4,7.3-7.1,9.7l-3.5-4.2-1.4,4.2c-2.7-5.9-4.1-16.9-12.5-16.7-2.3,2.3,7.9,11,7.1,15.8-.2,1.2-2.8,1.2-3.5,2.3-1.1,1.9-.9,4.4-2.1,6.3-7.8,12.7-19.9,24.4-29.3,36.1-1.3,2.2,7.2,4.4,7.6,4.4,2.1-.2,23.4-30.2,25.1-34.1.4-1,.8-1.7.6-2.9l-2.8-.7,5.5-6.3v20.9l-2.8-.7-.7-3.5c-4.1,6-9.3,11.2-13.8,16.8-5.1,6.3-5.5,14.2-16.1,12.4v4.2l23.6-5.6,5.8-1.2c2.5,0,6.8-2,8.7-1.5,2.4.7,1.1,5.5,5,4.1v-4c3.5-1.6,12.1,3.4,13.9-.8l-5.5-5.4,12.4-12.7-2.1-3.4-7,6.9c-2.7-3.8,14.2-13.2,10.4-16.7h-4.2l4.2-8.3c-5.5-1.3-4.2,3.2-6.9,6.3-2.8,3.2-6.2,5.9-9.1,9-1,.2-.9-1.5-.7-2.1.4-.8,10.1-11.4,11.8-13.2s6-3.2,7-5.6c1-2.4-.7-4.3-.3-6,1.2-6,6.5-9.6-4.6-12.7l7.6-9-2.1,68.1c1.7,2.3,2.5,0,2.8-2.1.9-7.3-.7-16.1,0-23.6l4.1-42.4-1.4,76.4-9.7-2.8v4c7.3,1.7,47.7,16.4,51.4,12.6l4.3-11,3.5,5.5c3.2-2.4,4.9-6.2,7.6-9.1.7-.7,11.5-8.2,6.3-9-6.9-1-4.9,4.5-10.4,7l11.1-18.8-3.5-.7c-6,10.9-13.2,22.1-23.6,29.2l-.7-2.1,24.3-28.6,4.9-9.7v38.2c0,.8-2.9,2.7-4.2,2.1l1.4-5.5c-4-2.1-12.7,9.3-11.1,11.1,3.7,0,8,2.4,11.6,1.4,1.1-.3.9-2.8,1.7-2.8,4.2-.2,14.5,2.5,19.5,2.7,39.9,1.2,79.5,5.8,115.8-14.6,7.9-4.4,28.4-14.3,33.9-18.9,3.9-3.2,5.9-7.6,9.9-10.9,19.9-16.3,60.1-15.8,84.9-18.1,23.4-2.2,49.3-3.9,73.5-7,3.4-.4,6.6-1.8,9.8-2.7l2.8,2.9c10.2-7.5,32.9-9.4,44.5-4.1l2.7-2.9c4.6,1.5,9.8,4.1,14.4,5.2,7.8,1.9,20.3,1.3,24.7,8.8h2.7c2.4-6.5,7.2-3.6,12.5-4.2,39.5-5,69.9-14.7,107.7-24.4,28.9-7.4,57-5.8,77.9-30.6,12-14.2,18.6-21.8,32.7-34.1,8-7,25.1-10.9,36.4-11.1,0,0,0-.1,0-.2,2.5-.2,6.3-.5,6.8-.7,9.5-2.6,35.4-8.8,42.7-8.9,9.5-.1,19.7,2.5,29,2.3,9.1-.2,19.1-3,28.1-3.6,3.4-.2,6.8,0,10.1-.5,3.5-.5,7-.9,10.5-1.4,3-.4,6.1-.8,9.1-1.1,1.3-.1,2.7-.3,4-.1,1.2.1,2.4-.1,3.6,0,1,0,2,.3,3,.3,6.6-.2,13.2-.9,19.6-1.2,6-.2,12.3.2,18.4-.4,4.2-.4,23.8-1.9,27.9-2,2,0,3.8-.2,5.4-.3,16.7.7,35.3-3.2,52.4-3,71.6.8,143.7,9.4,215.4,2.8l62.6,2.6,53.9-2.2,24,13.7c1.7,13.7,0,34.1,11.7,43.8,4.7,3.9,15.7,6.2,21.9,10.1,9.3,5.8,14.8,12.4,26.3,16.8,12.9,4.9,17.8,2.1,30.2,2,4.7,0,3.1.3,8.6-.4,7.6-.9,28.6,11.3,39.5,13.3,4.6.8,9.2,0,13.1.8,7.1,1.4,33,6.1,37.4,8.4,2.9,1.5,2.1,4.9,4.4,6.7l5.3-4c6.8,3.3,13.2,7.3,19.9,10.8,7.5,3.8,12.7,1.9,13,12.7l2.8-5.6c20.8,4.4,39.6,6.4,58.8,16.6,5.2,2.8,4.1,1.8,8.9,3.8,12.8,5.4,30.5,17.4,43.5,24.8,6.5,3.7,14.1,5.5,20.2,10.4,4.6,3.7,15.4,21,18.8,9.7-5.7-.4-8-4.9-10.9-9.1l1.4-.9ZM2309,465.4l-1.4-8.3c5.1,0,8.2,8.4,1.4,8.3ZM2147.7,434.8c-.7-3.4,2.9-3.7,4.9-5.6l.7,2.7-5.5,2.8h0ZM2149.1,426.4v-1.4l3.5-1.4c3.8,3.2.5,4.6-3.5,2.7h0ZM1255.4,508.4c-1,2.3-3.1,4.6-5.6,4.1,1-2.3,3.1-4.6,5.6-4.1ZM1241.5,527.8c-.6-2.6,1.4-3.3,2.8-4.9,3.7-4.4,10-11.1,15.3-13.2l-18.1,18.1h0ZM1255.4,538.9c-.5-2.5,1.9-4.6,4.1-5.6.5,2.5-1.9,4.6-4.1,5.6ZM1241.5,547.3l16.7-24.3,5.5-4.9c-3.7,11.5-13,21.6-22.2,29.2ZM984.3,566.8c-1.4-1.6,5.2-7.7,6.9-8.3,1.6,1.8-6.5,8.8-6.9,8.3ZM992.7,557c.9-3.5,4.6-7.5,7-10.4,3.7-4.6,8-9.3,12.5-13.2-3.2,9.2-12.1,17.3-19.4,23.6h0ZM656.9,573.7l3.5,3.5-4.1,3.5.7-6.9h-.1ZM586.8,626.5c-.5-2.5,1.9-4.6,4.1-5.6.5,2.5-1.9,4.6-4.1,5.6ZM593.7,634.9l2.8-5.5h1.4l1.4,3.5c-1.5,2.2-3,2.4-5.5,2.1h-.1ZM610.4,632.1l-8.3-.7,9.7-11.8-1.4,12.5ZM617.3,630.7h-4.2l1.4-37.5c.9,0,2.8,1.8,2.8,2.1v22.2c0,1.9.7,12.5,0,13.2ZM632.6,573.7l5.5,1.4c1.4,1.9-6.3,8.7-8.3,9.7l2.8-11.1h0ZM620.1,609.9c2-.5,1,1.1,1.9,2.2.8.9,2.6.2,2.2,1.3l-4.2,3.5v-6.9h0ZM638.2,604.3c-1.4,5.3-7.8,12.6-11.8,16.7-1,1.1-5,5.6-6.3,4.1-1.7-1.9.7-3.4,1.7-4.6,5.1-5.5,10.8-11.1,16.3-16.3h0ZM629.8,600.1c.7-4.6,6.3-8.3,9.7-11.1-.7,4.6-6.3,8.3-9.7,11.1ZM622.9,600.1c1.6-4,6.1-9.4,9-12.5,2.7-2.9,5.7-6,9-8.3-2.2,8.6-11.8,14.8-18,20.9h0ZM689.6,601.5l-4.2,4.2v-4.2h4.2ZM686.4,609.7c.8-1,10.7-8.9,11.6-8.2l1.3,4-13.8,9.9c0-2.2-.7-3.7.9-5.7ZM691,623.7c-.4-2.9,3-5.5,5.5-6.9.4,2.9-3,5.5-5.5,6.9ZM677.1,576.5c-.5,2.9,1.9,8-2.8,6.9,2.6-4.3-2.2-2.7-2.8-5.5l5.5-1.4h0ZM660.5,604.7c4.2-4.3,8.1-10.5,13.2-14.3l.7,7c-5.2-5-16.3,15.4-19.5,12.5.4-4.4,4.1-3.6,5.6-5.1h0ZM668.8,604.3l4.9-4.1.7,9.7c-3.5-1.9,1.6-7.1-5.5-5.6h-.1ZM656.9,612.6v13.8c0,0-2.1,4.2-2.1,4.2,0-4.4-.2-8.8,0-13.2,0-1.8-1.1-5.9,2.1-4.8ZM686.8,647.4l-19.4-4.2c-.9-3.9,6.7-5.1,2.1-8.3l-8.3,5.5-6.3-4.8,6.1,2c3.2-3.7,15.8-11.6,7.8-14.5l4.1-4.2-4.1-3.5,5.5-2.8c.2,8.1.6,16.3.2,24.5-.2,2.8-.2,2,2.6,2v-44.5c1.8.2,3.8,4.9,4.2,6.2,2.4,8,1.6,20.6,1.4,29.3,0,4.6-3.3,9.9-.2,14,1.2,1.6,4.5,1.1,4.3,3.3h0ZM693.1,632.1c-1.2,1.3-7.5,8.4-9.1,6.9,3.7-5.5,8.2-10.8,12.6-15.9,1.9-2.2,3.8-6.7,6.9-6.3-1.8,5.1-6.7,11.4-10.4,15.3ZM699.4,614c-.5-2.5,1.9-4.6,4.1-5.6.5,2.5-1.9,4.6-4.1,5.6ZM809.2,589c-.5,1.7-7,8.5-8.3,6.9v-7h8.3ZM800.3,613c3-3.8,8.7-10.7,12-13.9,1.8-1.7,5.7-.9,6.5-5.3-1.5-1.7-1.7-2.7-4.2-1.4-3.9,2-10.2,11.7-14.6,14.6-4.1-8.6,16.2-9.9,11.8-19.4l5.3.2c1.5,3.6,4.7,8.6,2.4,12.4-.8,1.3-3.4-.2-5.6,1.1-5.8,3.6-9.7,13.3-16,16.8-1-3.7,1.1-3.6,2.3-5.2h0ZM817.5,602.9l1,6.6-23.3,22.6c2.4-12.7,15.6-19.4,22.2-29.2h0ZM786.9,597.3l-5.5,5.5c-.3-3,2.8-5.9,5.5-5.5ZM789.7,601.5c-2,6.1-9.2,11-13.9,15.3,2-6.1,9.2-11,13.9-15.3ZM780.6,619.5c1.2-1.1,10.1-14.5,11.9-12.4l-1.3,7.4-16.7,14.9c-1.8-8.7,2.9-6.7,6.2-9.8h-.1ZM768.8,600.8c.3-1,4.6-4.6,5.6-3.5v4.9l-5.6,32.6c1.6-8.9-2.2-26.3,0-34.1h0ZM750.8,594.5l-1.4-2.8c-6.8-2.8-15.4,13.9-22.2,15.3v-5.6c1.3.4,2.8,1.6,4.1.8,2.2-1.3,11.4-15.3,14.7-16,3-.7,5.3,5.8,4.8,8.3h0ZM745.2,597.3l-12.5,12.5c1.4-4.7,7.6-11.1,12.5-12.5ZM731.3,611.2l-4.2,4.2v-5.6l4.2,1.4h0ZM736.9,570.9c.5,2.5-1.9,4.6-4.1,5.6-.5-2.5,1.9-4.6,4.1-5.6ZM731.4,591.1c4.4-5.2,22.5-18.2,4.1-10.5-.4-.3,4.4-8.7,6.9-6.9-.2,2.1,2.3,3.8,2.6,5.2,1,4.9-14.9,15.4-17.1,21.2-3.7-1.7,2.1-7.3,3.5-9ZM727.2,616.8l5.3,1.2c4-6.7,10.1-16.7,18.3-17.9v-2.6c0,0,2.1-.2,2.1-.2,1.7,2.1,5.7,3.7,3.9,6.5-7.5,7.9-14.6,16.7-22.6,24.1-2.2,2.1-4,6-8.3,5.6l1.4-16.7h-.1ZM720.2,643.9c2-11.6-2.6-32.8,0-43.1,0-.5,1.9-2.1,2.8-2.1l1.4,44.5c2.9.3.6-4.6,1.4-5.6,0-.2,2.4,1.9,4.9.2,2.9-2,10.5-13.3,13.8-16.9l16-14.6c-8.2,14.8-21,26.7-32.3,39.3l-8-1.7h0ZM734.1,646l31.3-37.5.5,8.2c-.3.4-2.5-.3-4,1.1-7.2,6.5-13.4,19.9-22.1,26.2-1.9,1.4-2.9,2.6-5.6,2h-.1ZM764.7,643.2c-.6.5-3.5-1.5-4.7-1.2-2.3.5-2.8,7.2-7.8,5.4,1.1-5.9,10-7.2,11.1-11.8.5-2.1,0-2.4-2.1-2.1-6.9,1.2-11.1,15.7-18.7,13.9l17.3-20.9,5.6-4.1c1.6,2.8.5,19.8-.7,20.9h0ZM811.2,643.2c-2.1-.9,3.1-7-1.4-5.5-5.4,1.7-9.1,10.1-11.4,10.9-7.3,2.5-22.9-1.4-31.1-1.2.9-2,2.5-3.9,4.1-5.4h0c0-1.6,1.6-6.9,2.8-7.8,1.6-.8,3.9-1,5.6-.6,2.1-2.7,2.7-7.8,6.9-10.5,2.1-1.3,3.1-1.3,2.8,1.4-.7,6.1-6,15.3-11.1,18.8l2.1,2.8,2.8-1.3,9-15.4-4.1,15.3,6.9-4.2c-1.3,1.5-1.4,5.7.7,5.5,1.4,0,8.2-11.3,10.4-13.2,3.3-2.9,10.8-3.8,7.7-9l-6.9,4.2c-2.9-2.4,11.1-11.9,11.8-11.1-2.7,9.2,1.7,20.2-7.6,26.4h0ZM858.5,626.6c-.5.9-14.8,12.1-16,11l35.1-47.6c7.4-7.7,7-20.7,17.8-24.6,2.8,3.6-13.2,21.6-15.6,25.4-4.6,7-8.3,14.8-13,21.7-2.2,3.2-7.5,7.2-8.3,8.5-1.2,2,.7,4.4,0,5.6h0ZM985.7,544.5c2-5,6.9-12.6,12.5-13.9l-12.5,13.9ZM994,524.3c2.4-.6,6.6,1.3,9.8-.6l-3.5,5.6-1.4-2.8h-2.8c-1.3,2.7-19.2,16.8-16,19.5l4.2.7-6.9,7.7c-2.4-8.2,9.1-28,16.6-30h0ZM965.2,580.3c.7-7.2,4.7-18,6.2-25.8,1.4-7,1.5-15.1,3.2-21.8.5-1.9,0-4.3,2.8-4.9,2.5,6.7-1.3,11.7-2.4,17.8-2.4,13.5-3.8,27.3-7.4,40.6-2.4,0-2.6-4.3-2.5-5.9h.1ZM1014.9,579.3c-2.9.5.3-5.6-3.4-4.1-3.4,1.3-3.2,11.1-10.4,7.6l18.1-20.2-4.2,16.7h0ZM1037.1,575.1c2.9-7.4,9-14.7,15.3-19.5-.4,3.2-3.6,6.4-5.6,9-2.7,3.6-6,8-9.7,10.5h0ZM1067.7,552.1c0,1.8-.2,30.5-5.5,24.4,1.2-15.8,2.5-32,4.3-47.8.2-1.5.5-6.5,2.6-6.4-.3,8.5.5,17.2,0,25.7,0,.6-1.3,2.3-1.4,4.1ZM1069.1,575.1v-5.6l4,1.6.2,4h-4.2ZM1106.6,523.7c.3,3-2.8,5.9-5.5,5.5l5.5-5.5ZM1100.4,534.8c1.6-1.3,2.3-3.4,4.9-2.8.6.6-9.9,12-11.1,13.2-3,3.1-6.8,8.1-11.2,9-1.1-1.1,15.4-17.8,17.4-19.5h0ZM1077.5,573l29.2-28.5c.6,2.6-1.4,3.3-2.8,4.9-6,7.1-14.1,12.9-20.4,19.2-1.4,1.4-.8,7.6-6,4.4h0ZM1087.2,572.3l3.5-4.1.7,4.2h-4.2ZM1110.1,569.6l-4.9,1.3c7.2-10.1-2.8-10.3-4.4-.2l-5.3-.5c4.1-2.9,7-8.2,10.1-11.4,2.2-2.3,6.6,0,5.2-6-4-3.8-12.5,10.7-16,12.5-1,.2-.9-1.5-.7-2.1,2.1-4.7,15.7-13,17.4-16,2.6-4.6-2.1-4.2-2-4.8l1.3-5c-3-3-10.5,9.6-12.6,11.7-1.6,1.6-17.1,15.6-17.9,14.7-.6-2.6,1.5-3.3,2.8-4.9,7.4-8.8,17.7-17.5,26.5-24.9,4-5.8-1.8-4.8-1.5-5.6,5.4-2.1,1.2-9.1,6.9-9,2,17.5-3.5,32.9-4.8,50.1h0ZM1131.6,576.5h-2.8v-2.1l4.1-3.5-1.4,5.6h.1ZM1144.2,576.5l-3.5-2.6-6.3,4c2.1-3.7,4.8-8.4,9.7-8.3v6.9h.1ZM1144.2,566.8c-3.8-2.6-4.7,1.3-8.3,1.4,1.5-4.4,3.4-6.4,8.3-5.5v4.2h0ZM1140.9,557.1l-6.5,4.8c1.1-6.5,16.7-7.7,7-13.9,2.4-2.2,4.8-3.9,4.2-7.6-2.6-2.9-11.8,15.9-16.7,13.2,5.2-5.4,10.7-10.7,15.8-16.2,1.6-1.8,3.1-1.7,2.3-5.3-2.5-.5-3.4,1.3-4.9,2.7-5.7,5.2-11.9,14.1-18,19.5-1.4-2.4-.6-6.2-.7-9,0-2.1,1.3-5.5-2.1-4.8-4.3,3.2-.4,7.7-.6,11.8-.3,6-2.7,12.3-1.5,18.8h-4.2c-1.8-12.6,2.4-23.6,4-35.6.6-4.2-.7-10.2.4-13.5.6-1.7,6.1-4.6,8.1-7.2,2.8-3.5,3.3-8,7-11.1,4.7-3.8,11.1-3.4,16.6-4.9l-5.6,61.2-4.7-2.7v-.2ZM1216.5,525.1c-.5,1.5-6.8,7.5-8.3,3.5l8.3-3.5ZM1201.2,541.7c-.5-2.5,1.9-4.6,4.1-5.6.5,2.5-1.9,4.6-4.1,5.6ZM1169.2,539.6c4.1-4.8,10.1-11.3,16.7-11.8l-19.4,16.7c-.6-2.6,1.4-3.3,2.8-4.9h0ZM1166.4,550.8c3.2-3.8,9.4-10,13.2-13.2,1.6-1.3,2.2-3.4,4.9-2.8.5,2.4-1.3,3.4-2.8,4.9-5.5,5.3-12.6,10.4-18.1,16-.6-2.6,1.4-3.3,2.8-4.9ZM1157.4,582c-2.1,0-1.5-3-1.4-4.1.2-6.5,2.9-12.9,2.1-19.5l2.7.7c-1.9,1.4-.9,4.8.7,4.8,3.1,0,8.2-10.4,11.1-12.5l24.4-22.2c-1.1,8.6-39.7,40-38.9,43.8.2,1,2.9,3.2,4.2,1.4,4.3-4.3,7.5-9.7,11.6-14.1,5.5-5.9,21.5-19.6,24.6-24.8,1.2-2.1,1.6-3.9,1.3-6.3l4.2.7c-2.2,3.4-3.9,7.1-6.4,10.3-3.7,4.9-37.3,41.7-40.2,41.8h0ZM1166.4,580.6l2.1-4.2,31.3-33.4-22,30.1c-1.9,7.3-3.6,8.3-11.3,7.4h0ZM1213.7,562.6c-.7-3.3,10.1-17.5,12.5-15.3l-12.5,15.3ZM1217.8,572.3c2.1-3.4,6.2-2.3,7.7-6.9l2.1,5.5-9.7,1.4h0ZM1217.9,565.4l7.6-9.7,2.1,5.5-9.7,4.2ZM1256.8,561.2l3.5-4.1.7,4.2h-4.2ZM1265.1,559.8c0-3.1-.8-7.3,2.8-8.3,0,3.1.8,7.3-2.8,8.3ZM1312.4,518.1c-5.9-3.4-8.8,6.2-13.9,8.3-.5-3.1,12.6-15.4,13.9-13.9v5.6h0ZM1313.8,484.7v6.9l-5.4-1.3c-2.8,6.7-8.2,11.3-14.1,15.2-1.7-1.8,13-17.1,15.3-18.8,1.4-1.1,1.8-2.7,4.2-2.1h0ZM1292.9,496.5c4.9-5.8,11.1-10.9,16.7-16,.6,2.6-1.4,3.3-2.8,4.9-4.9,5.8-11.1,10.9-16.7,16-.6-2.6,1.4-3.3,2.8-4.9ZM1290.1,516c5.7-6.8,13-12.7,19.5-18.8.6,2.6-1.4,3.3-2.8,4.9-5.7,6.8-13,12.7-19.5,18.8-.6-2.6,1.4-3.3,2.8-4.9ZM1270.7,525l-4.1-2.1,2.8-4.1-4.2-2.1,2.8-6.2-2.9-1.4,5.6-7.6v23.6h0ZM1294.3,552.8l-20.8,4.2c-3.8-2.7,2.5-49.5,1.3-57.4l6.7-2c4,4.6,4.5,9.3,6.9,14.3l-6.6,8.3,6.3,6.3c2.6.7,21.6-25.2,24.3-22.2l-2,4.3-25.8,25.6,4.2,4.1-4.9,6.3,6.9,4.1c3.5-4,14-20.1,18.2-20.8,2.1-.3,2.5,0,2.1,2.1-.9,5.3-15.4,14.2-17.5,18.8-.6,1.4,0,2.8.8,4.1h0ZM1297.1,552.8c-.4-2.9,3-5.5,5.5-6.9.4,2.9-3,5.5-5.5,6.9ZM1349.9,528.6l-4.2-1.5c-4.1,2.2-.7,5.8-2.6,8.5-.7.9-9.5,6.6-9.9,6.2-1.3-1.4,10.8-16.6,12.5-18.7,4.4-5.4,9.8-11.6,15.2-16,2.7,8.3-8,14-11.1,21.6h0ZM2083.1,469.6c6,2.1-5.1,9.3-6.2,11.1-.4-1.9,5.6-11.3,6.2-11.1ZM2083.1,494.6c-.6-1.3-8.6,12.4-7.6,6.3.9-5.4,6.4-8.5,6.9-13.3l-4.9,4.2c-.6-4,3.6-11.5,7.6-13.9-1.5,6.4,1.2,13.9,0,20.2-.6,3.3-3,2.8-3.7,3.9-2.3,3.5-3.6,7.4-6.7,10.7-1.7,1.8-2.4,2.3-2.1-.7,2-4.6,9.6-11.6,11.1-15.3.3-.6.4-2.3-.7-2.1h0ZM2039.3,441.7c-.5-2.5,1.9-4.6,4.1-5.6.5,2.5-1.9,4.6-4.1,5.6ZM2036.7,432.2l4-1.5c1.1,1.5-2.3,5.1-4.1,5.6l.2-4h0ZM2030.3,464c-3.2-.5.6-10.9-.8-13.3l1.5-20.1,2.8,28.6c.4,2.1-1,5.2-3.5,4.8ZM2049,434.8c-2.2,6.9-7.5,14.2-12.5,19.5,2.3-7.1,7.2-14.4,12.5-19.5ZM2056,432c-2.2,6.9-6.6,15.3-12.5,19.5,3.1-6.6,7.3-14.3,12.5-19.5ZM2038.6,469.5l-2.1-2.1,1.4-3.5h2.8l-2.1,5.5h0ZM2054.6,473l-8.3.7c-2.4-2.6,15.3-24.1,15.3-27.1s-1.6-2.8-3.4-.7c-4.2,5-7.8,14.3-12.1,19.9-1,1.3-2.8,4.4-2.6.2,5.2-8,9.8-18.8,15.5-26.2,1.2-1.6,1.4-2.9,3.9-2.3-2.6,4.2.9,8.4,0,12.9-.2,1-2.4,1.3-3.2,2.7-1.7,2.9-9.1,15.1-9.3,17-.5,4,4.8,1.1,4.2,2.8h0ZM2061.1,465c-.4.5-4.9,3.4-5.1,3.2l4.2-11.1c3.3.8,2.7,5.9.9,7.9h0ZM2057.6,508.1c.3-1.7,4-6.4,2.5-8-2.9-3.3-2.4,4.7-4.2,2.1l5.6-11.1-4.1-.7c-.8-2.5,2.1-3.3,2.5-5.2.7-2.8-3.4-7.2,1.6-8.7l.7,9.8,4.8-1c-.8-10.2-1.6-24.4.2-34.5.4-2.4,1.5-3.9,4.2-3.5-2.8,11.7-1,24.7-1.3,36.9-.1,4.7-3.8,17.7,0,20.9,10.2-2.1-1.5,5-1.4,9.6l5,5,4.8-2.1c-3.7,17.7-21.8-2.3-20.6-9.4h-.3ZM2084.5,504.3c1.5.3.8,2.7.2,3.8-.1.3-3.6,1.1-2.3,4.5l-2.8-2.1,4.9-6.2h0ZM2099.1,540.4l-18.1-11.8c-2.9-3-.5-8,1.3-11.2l7,.8-1.4-52.1,2.8-.7c0,3.7,8,9.3,7.9,11.8,0,.9-2.3,2.6-2.4,5.5-.3,8.3,4,25.9,4.3,36.2.2,7.2.5,14.7-1.5,21.6h0ZM2106,541.2c-.3,2-1.1,4.3-2.8,2.1l-1.4-61.2,4.2,1.4c-3.5,6.3-.2,9.2,0,15.9.3,11.8,1.4,30.7,0,41.8h0ZM2111.2,482.4c1.2-2.2,3.5-4.8,5.9-5.9l-5.6,11.1c-2.8.2-.9-4.1-.3-5.2h0ZM2115.7,486.2l-4.2,9.7c-3.9-1.4,2.2-8.9,4.2-9.7ZM2140.9,534.1c-6.1.8-3.5,3-5.3,5.9-1.3,2.1-8.1,8.5-2.4,8.7l7.7-9.7v8.9c-9.4,3.6-32,5.7-30.6-8.9l2.8,4.2,3.5-1.3.7,2.6h2.7l17.9-28.6-4-3.9c4.8-3,2.6-6.6,3.3-9.5.4-1.8,3.5-6.7,2.3-7.9-4.1-4.1-6.5,7.7-7.2,8.8-6.4,11.1-16.7,20.6-20.7,32.9l-2.8-12.5,4.1,1.4c4.4-14.9,19-26,23.7-40.3l-6.7-1.3c-3.7,9.1-16.1,20.7-18.7,29.5-1.1,3.9,2.1,7.8-2.4,9.3-5.4-7.4,16.1-35.5,22.2-41l-2.1-3.4-10.4,12.5c-.6-4.4,10.8-12.1,8.3-15.3l-4.2,1.4,1.5-4c1.2-.2,2.8-.5,3.8.2,1,.6,3.4,7.5,4.8,9,4.3,4.5,7.9-.2,9.1,9.6,1.7,13.5-3.2,28.9-1.1,42.9l.2-.2ZM2117.1,540.4l6.4-12.4,8.9-12.6c-1.8,9-9.5,17.9-15.3,25h0ZM2204.5,503.4c2.9-4.2.1-7.8,9.9-7.5v15.3c-1.1-.6-2.3-.9-3.5-.1-3.7,2.5-19,24.6-16,27.9,4.5,0,4.9-6.4,7.2-10.2,3.4-5.7,7.6-11,11.6-16.2,1,12.5-12.1,20.2-16.4,31.1-1.2,3.1,4.2,5.1-2.4,7.9l-2.9-21.5c.4-1.5,3,0,4.4-1.6,1.7-1.9,13.1-19.6,14.7-22.6,1-1.9,2.5-3.1,1.9-5.7-2.9-.6-3.2,1.5-4.5,3.2-3.8,4.8-10,18.4-13.6,21.2-2.6,2-3.7,0-2.8-2.8.2-.7,2.9-1.1,3.4-2.1,3.8-7.4,3.7-8.7,9-16.1v-.2ZM2196.4,498.8l-2.8,6.9c-2.6-1.1-3.7-4.8-6.9-2.8v-6.9l9.7,2.8ZM2183.8,493.2c-.3,2.3-3.2,1.3-5.6,3.4-3.4,3-5.9,10.3-9.7,13.3-.4-2.4.6-4,1.6-6,2.4-4.8,10.9-10,6-13.4l-9,11.1,5.5-12.5-4.9,4.2c-2-2.6,3.8-6,4.9-9.1l11.1,9.1h0ZM2177.6,516.7c-3.7,2.8-5,7.6-9,9.8,1.7-6.1,7.2-11.5,10.4-16.7,1.3-2,1.3-3.3-1.4-2.8l-14.6,20.8c2.3-11.3,11.8-19.3,16.7-29.2,3.1-2.1,3.7,15.2,2.5,16.5-.4.4-3.2.4-4.7,1.5h.1ZM2182.2,522.2l-8.1,4.4c-1.2-1.3,5.5-9.3,7.6-9.7l.5,5.3ZM2171.3,480.7c-.6,3.4-12.3,12.6-9.7,15.3h4.2l-2.9,7.6,2.8,1.3-1.4,5.5,2.9,1.5-4.2,6.2c2.4-6.8-4-21.7-2.6-26.8.3-1.1,9.2-12.3,10.9-10.7h0ZM2165.8,476.5c1,.9-3.8,8-5.5,8.3-1.1-2.3,1.7-11.7,5.5-8.3ZM2145.5,547.5l-.7-60.4c10.9-5.3,11-1.3,12.4,8.4,1.8,11.8.5,23.4,1.5,34.6.3,3.1,2.4,4.4,2.6,5.8.3,1.9-6,8.1-3.9,10.1,1.1,1.1,3.3.3,4.5-1.7,2.7-4.3,4.2-10.9,9.3-13.5.1,4.2-9,14-9.4,16.2-.2,1.2.9,5.9,3.2,4.6,2.3-1.2,10.5-24.8,17.4-26.4,1.7,2-17.3,23.5-13.9,29.2l-23-6.8h0ZM2240.8,572.4l-5.5-1.4c-1.4-1.4,7.5-8.7,2.1-8.3-1.5,0-5.9,8.7-9,6.2l13.9-18.8-1.4,22.2h-.1ZM2236.7,539.8l4.9-4.9.5,13.7-8.1,3,6.9-9-4.1-2.8h0ZM2241.5,529.3c-2.1,5.2-14.3,15.1-16.7,20.9-.6,1.5,1.6,2.4,1.6,3.4s-3.3,3.7-2.2,6.3l8.3-6.2-7.2,14.4-15.1-2.6,1.4-5.5c-3.6-.6-4.1,3.9-7.5,4.1-2.1,0-10.8-1.2-13.6-1.7-2.2-.3-14.5-3.2-15-3.8-.1-.2,1.5-2.6,1.2-4.5-.4-2.3-2.8-3.7-2.3-7,.5-3.5,4.9-7,5.4-10.8l2.8.7v9h4.2c-1-13.3-2.2-25.6,0-38.9,2.2.1,2.7,6.2,2.8,7.7.2,7.1-1.7,13.4-1.4,20.9,0,2.1,1.8,16.6,2.2,17.4,2.3,4.2,10.5,2.3,12.6,8.2l7.5-3.4-2.8-4.1,5.5-7c-3.9-4.9-7.3,6-10.4,7.6-1.2-7.7,6.2-19.3,14.5-18.2,1.2-12.3-1.7-28.9,1.7-40.7,1.2-4.2,7.5-.8,8,1.3.8,3.5-6.4,7.9-6.7,9.8,0,.4,2.7,6.9,3,7.2.9.7,2.6.2,3.8.3-1.5,2.8-4.8,3.9-.7,6.9l9-11.8c0-6.1-6.2,2.9-6.9,2.1l5.5-7.7,7,4.2c-3.8,3.5-13.8,13.4-15.7,17.8-.2.4-2,8.4-2,8.9-.1,1.7,3.2,6.4,1,10.2,2,2.3,8.1-9.5,9.1-11,2.4-3.5,10.5-8,3.4-10.5l5.5-4.9c-.1,3.7.7,7.5-.7,11.1h-.1ZM2261.7,532.8c3.5-8.9,9-2.6,0,2.1,0-.7-.2-1.5,0-2.1ZM2268.9,530.8c.7-.5,7,2.7,9.5,0,.8,5.2-5.9,2-9,4.1-3.6,2.4-5,7.9-9,9.8.7-2.1,7.9-13.3,8.5-13.8ZM2249,563.2l-2.6,10.6c-3.4-6.6,0-12.6,0-18.7s-1.6-12.8-1.6-18.1,2.8-14.3,1.5-21.5l13.2,9.7c.8,1.4-1.9,10.8-4.9,11.2l-.7-9.8c-9.5-3.9-4.2,3-3.8,6.6,1.1,10.2-1.7,19.8-1.2,30.1h.1ZM2256.1,564.1l-4.2,5.5v-5.6h4.2ZM2253.4,547.4c3.9,1.3,2.2,3.9,1.4,6.9h-1.4v-6.9ZM2254.7,546c-4.3-1.6,2-7.7,4.2-8.3l-4.2,8.3ZM2252,576.6l24.3-32,.7-4.1-4.2.7,5.5-4.9.7,8.3-19.5,32.1h-7.6.1ZM2270.1,566.9l8.3-13.9c1.4,6.7-3.4,10.4-8.3,13.9ZM2261.9,581.9l-.2-5.3,3.4,4.2,13.2-15.3c.4,7.3-7.2,12.1-9.7,18.9l-6.7-2.4h0ZM2274.2,587l4.2-2.8-4.2-2.8,4.9-7.6.7,15.3-5.5-2.1h0ZM2414.6,551.6l-6.9,8.3c1.1-4.3-1.6-3.2-2.8-5.5l9.7-2.8ZM2370.1,543.2c-.2,2.4,2.7,4.7,2.1,7-1.5,5.1-16.7,18.7-20,26-2,4.5-.3,10.8-7.1,14.3,1.3-3.5.6-14.4,1.7-16.4.3-.5,2.6-1.1,3.6-2.5,6.6-9.4,11.9-19.8,19.7-28.3h0ZM2346.5,571c-2-7.7,1.5-7.1,3.3-9.8,4.3-6.4,8.3-13.5,14.7-18l-18,27.8ZM2363.2,537.7l-16.7,20.8c1.4-7.3,8.5-20.1,16.7-20.8ZM2302,494.6c-.1,5.2,1.7,11.5-4.1,13.9l4.1-13.9ZM2333.8,600.7c-1.2,4-5.3.7-8.1.9l4.2-8.3-6.3,2.8c-1.8.5-2.7-.3-2-2,.6-1.6,12.3-16.4,13.9-14.6l-1.6,21.3h0ZM2347.8,609.9c-15.5-.2-8.4-17.7-8.2-27,.2-7.7,1.3-37.8-2.2-42.4-1.4-1.9-3.9-2.6-6.2-2.9l2.8-6.9c-2.7-.6-3.3,1.4-4.7,2.9-11.1,11.2-19.3,27.7-30,39.5l4.1,2.7-5.6,11.1c5.9,2.7,7.7-8.1,10.8-12.8,7.4-11.3,16-22,24.6-32.3l2.1,19.9c-3.4,3.4-25.1,30.2-25,32.3,0,.8,2.9,3.2,4.2,1.4,4.3-10.5,12.3-19.1,20.1-27.1,2,6.5-7.7,13.6-11.8,18.8-2.8,3.5-5.3,7-6.9,11.2l-11.1-2.9,27.7-39-3.5-2.1-28.5,41.1c-3.4.2-10.1-.5-11.8-3.6-2.2-4-5.9-33.5-6.3-39.6-.4-7.3,0-14.7.3-22,1.1-3.8,4.1-2.2,5.9-3.8,2.8-2.4,14.1-23.2,18.9-19.4,1,.8-14.6,18.6-15.7,21.3-1,2.5.3,4.3,0,5.6-.6,2.4-5,3.8-3.8,7.8,2.4,2.6,6.9-8.4,7.8-9.6,3.4-4.8,13.4-14.8,15.1-18.2.9-1.7.7-3.7.7-5.5.9-1.3,19.4,16.8,20.8,18.8,5.5,7.5,5.7,21.9,18.1,14.6-.4,9.3-5.8,3.8-9.6,7.7,3,16.8.8,34.4-1.3,51.2.4,1.7,7.5,4.9,9.5,3.6l-1.4,5.5h0ZM2324.8,547.3c-6.5,8.9-13.5,17.7-20,26.6-.7-2.8.9-3.8,2-5.6,5.7-9.5,13.9-19.7,21.6-27.7.2,2.6-2.1,4.8-3.6,6.8h0ZM2350.7,603c-.4-2.5.2-4.2,1.3-6.4,4.7-9.9,18.7-22.3,24.9-32.1l.3-4.6-29.9,38.9c-3.4-1.7,1.1-6.6,2.3-8.8,4.4-7.5,11.8-17.7,17.3-24.4,3.1-3.8,7.8-6.5,8.9-11.3l8.3,4.2-33.3,44.5h-.1ZM2357.6,616.2l11.9-21.5c3.6-6.5,16.6-18.4,19.3-23.7.8-1.6.9-3.1.7-4.8l-2.8-.7-34.8,48.6c-.2-2.9-.2-5.4.7-8.3,1.9-5.5,20.8-29.7,25.7-35.5,3.8-4.5,10.7-5.6,6.9-11.8h7c-1.3,4.6-.5,11.7-1.7,15.7-.8,2.7-25.4,36-29.1,40.4-1,1.2-2.3,4-3.9,1.6h.1ZM2391,633.6c-.9,1-10.2-5-9.8-7.6l8.4-17.4c-3.9-4.1-7.4,18-16.7,16.1-8.1-1.7,3.2-5.6,4.2-8.4l-2.8-1.4,16.7-20.2v38.9h0ZM2392.2,591.7c-.2.3-3.7.6-6.2,2.9-3,2.8-14.5,17.5-17.4,21.6-1,1.5-1.4,3.1-1.3,4.9l-4.2-1.4,26.4-39.6c1.8-2,2.3,5.4,2.4,6,.2,1.5,1.1,4.7.2,5.7h.1ZM2393.8,607.2c-1-5.9,1.4-11.5,1.4-17.3s-1.6-11.3-1.3-16.5c.2-3.3,4.6-21.3,9.6-17.6l-9.7,51.4h0Z"/>
    </g>
  </g>
  <g id="text" class="st2">
    <g class="st0">
      <text class="st1" transform="translate(2042.3 1122.7)"><tspan x="0" y="0">DOHLKY</tspan></text>
    </g>
    <g class="st0">
      <text class="st1" transform="translate(1487.4 1092.7)"><tspan x="0" y="0">PIHLKY</tspan></text>
    </g>
    <g class="st0">
      <text class="st1" transform="translate(1305.2 583.2)"><tspan x="0" y="0">KORIDOR III.</tspan></text>
    </g>
    <g class="st0">
      <text class="st1" transform="translate(1609.3 342.9)"><tspan x="0" y="0">START</tspan></text>
    </g>
    <g class="st0">
      <text class="st1" transform="translate(1389.7 638.1)"><tspan x="0" y="0">KORIDOR II.</tspan></text>
    </g>
    <g class="st0">
      <text class="st1" transform="translate(1466.8 699.3)"><tspan x="0" y="0">KORIDOR I.</tspan></text>
    </g>
    <g class="st0">
      <text class="st1" transform="translate(87.1 718.2)"><tspan x="0" y="0">SBRKA</tspan></text>
    </g>
    <g class="st0">
      <text class="st1" transform="translate(407.4 981.4)"><tspan x="0" y="0">CL</tspan></text>
    </g>
    <g class="st0">
      <text class="st1" transform="translate(498.6 175.3)"><tspan x="0" y="0">RADIO 2</tspan></text>
    </g>
    <g class="st0">
      <text class="st1" transform="translate(932.2 399.7)"><tspan x="0" y="0">RADIO 1</tspan></text>
    </g>
    <g class="st0">
      <text class="st1" transform="translate(669.9 1410.9)"><tspan x="0" y="0">VYTN IP</tspan></text>
    </g>
    <g class="st0">
      <text class="st1" transform="translate(829.9 1079.4)"><tspan x="0" y="0">CENTRUM IT</tspan></text>
    </g>
    <g class="st0">
      <text class="st1" transform="translate(1128.8 1578.9)"><tspan x="0" y="0">VSLEDKY</tspan></text>
      <text class="st1" transform="translate(1012.7 1638.9)"><tspan x="0" y="0">MY RESULTS BOARD</tspan></text>
    </g>
  </g>
</svg>