<?xml version="1.0" encoding="UTF-8"?>
<svg id="Layer_1" xmlns="http://www.w3.org/2000/svg" version="1.1" viewBox="0 0 2500 1700">
  <!-- Generator: Adobe Illustrator 29.1.0, SVG Export Plug-In . SVG Version: 2.1.0 Build 142)  -->
  <defs>
    <style>
      .st0, .st1 {
        isolation: isolate;
      }

      .st0, .st2 {
        display: none;
      }

      .st1 {
        fill: red;
        font-family: K2D-Bold, K2D;
        font-size: 50px;
        font-weight: 700;
      }
    </style>
  </defs>
  <g id="design">
    <path d="M1968.9,875.8c.5-2.5,0-7.4.8-8.8,1.7-3.4,6.1-4.4,9-6.4,1.7-1.2.5-4.6,4.2-3.4,1.1,7.9,3,21.2,10.4,25,7.8-1.8-1.6-35.7-2.1-42.3-.3-4.3-.5-12.6,0-16.6.6-3.6,3.8-6.5,3.7-9.6-.2-8.5-7-12.7-15-10-7.7,2.5-1.3,10-1.4,16.5-.2,6.4-2.7,17.4-6.8,22.5-2.2,2.1-1.5-3.3-1.5-4.2.6-7.2.7-12.5,1.3-19.5,1.7-17.8-13.5-14.1-13.9-5.4,0,2.3,1.4,4.9,1.1,6.8-.6,4-7.4,9.7-2.4,17.6-3.7,0-6.1-.6-7,3.5-1.2,6.1,7.5,47.7,11.9,49.2,8.2,2.9,4.5-5,4.8-7.5.2-2.4,2.2-4.6,2.7-7.2v-.2ZM1962.2,815l4-2.3v8.3l-4-2.3v-3.8h0ZM1960.7,878l-2.8-9.7,5.3,1.6c0,2.8,2.1,9.3-2.6,8.2h0ZM1957.9,862.7l-2.9-17.2,6.4-3.7,2.1-13.9,2.1,22.4-7.6,12.3h0ZM1964.9,859.9c1.2-1.2,4-6.3,4.5-6.6,1.4-.8,4,.2,5-.5.6-.4,4.9-11.5,5.5-13.3.9-2.8,5.8-20.6,5.8-22,0-2.5-3-4.2-3.6-6.1-1.3-4.3,3.3-6.4,6.1-1.9,3.6,5.7-1.6,8.6-2.4,13.7-2.4,14.9,5,31.5,5.5,46.5l-7.7-20.8c-2.6-.6-13.7,12.6-18.7,11.1h0Z"/>
    <path d="M1841.5,771.3c-1.5-1.9-6.3-1.9-6.9-4.1,2-6.6,3.7-10.8-.4-17.1-12.8-1.4-18.7,10.5-10.9,20.6-4.4-1.8-7.3,3.5-9.2,3.8-2.1.4-3.5-2-6.8.2-5.3,3.4-3.2,7.9-4.2,9.9-1.6,3.1-8.1,3.3-7.6,9,.4,4.9,5.8,2.4,7.2,4.3,1.8,2.4,0,24,9.6,11,1.6-2.1,2.2-6.8,3-7.4,1.2-.9,5.3-.2,8.1-2.3,3.1-2.4,1.5-5.5,4.1-6.3,2.9,6.7-.8,40,11.8,27.1-.4-8.2,5.8-44.3,2.2-48.8h0ZM1810.7,799.9l-5.5-9c.3-5.1,5.9-4.5,4.1-10.5,3.6.7,1.2,6.4,2.8,8.8,1.4,2,3.9,2.6,5.5,4.4-2.4,2.6-6.9,1.7-6.9,6.2h0ZM1820.5,786c-4.3.4-4.5-3.5-4.1-6.9.7-1,5.3,5.7,4.1,6.9ZM1826,760.3c.2-2.1,2.1-4.2,4.2-4.9l-1.4,12.5c-2.1,0-2.9-6.5-2.8-7.6h0ZM1835.3,807l-2.9-16.9c-1.4-4.3-8.1-7.8-9.1-10.4-.8-2.1,7.5-4.7,9-6.3,8.6,0,2.5,23.9,3,33.5h0Z"/>
    <path d="M2063.1,752.3c-1.4-1.3-4-1-4.5-1.7-2.5-2.8,1-15.5-11.5-11.6-9.6,3-3.7,15.1-5.7,17.3-.9.9-5-.6-5.4,3.6-.5,5.6,6,12.1,6.9,18.2.6,4.4.3,10.6,0,15.2-.2,4.2-5.2,24.8,2.7,25.1,6.7-4.3,4.6,1.9,8.5,5.4,4,3.6,6.3,2.7,6.9-2.6,1.3-11.5-.9-25.6,0-37.6.5-6.8,6.2-27.4,2-31.3h0ZM2055.4,787.8c-.2,6.8,4.1,14.5-.6,20.2-1.4-4.3,0-9.1-1.9-13.4-1.2-2.8-4.1-3.1-4.3-4.3-.8-3,.4-8.2-.2-12-.5-3.3-4.1-13.3-4-14,.4-1.5,3.9-1.6,4.2-3.1.9-4.2-5.8-19.8,4.1-15.7l-.8,8.3,7.4,4.8c0,9.4-3.7,20.5-3.9,29.3h0Z"/>
    <path d="M1900.5,777.7c-2.5,10.9,3.6,18.9,4.3,30.2.4,6-2.6,23,0,26.9,4.8,7.6,6.7-15.2,6.3-18.1l4.8,16.7c1.5,2.3,5.6,1.5,6.3-.7,1.1-3.7,0-18.3,0-23.6,0-7.7-3.4-8.7.8-20.1,1.7-4.7,7.8-6,2.6-12.6-1.4-1.8-4.8-2.7-5-3.7-.6-3.6,7.3-15.6-.3-22.4-6-2.9-12.7.6-13.4,7.4-.2,2.2,1.3,4.1.4,7.3-1,3.8-5.6,7.8-6.8,12.8h0ZM1913.5,765.5c.8-3.9-4.9-10.8,4.4-10.1,2.6,5.1-3.7,14.3-3.5,16.8.5,5.5,6.4,5.7,6.4,8.9s-6,10.3-4.9,14.7c-7.2-.2-10.5-4.6-10.5-11.9s7.3-14.3,8.1-18.4Z"/>
    <path d="M2085.3,812c-11.2-2.6-12.9,10-10.6,17.9l6.7,2.6c1.6,9.3-4.5,21.9,0,30.2,1.3,2.3,3.7,5.2,6.2,2.3l3.4-11.2c0,3.8,1.8,7.4,6.2,6.9,4.8-1.5,3.8-22.4,3.6-27-.2-5.4-3-15.9-2.4-20.7.3-2.3,2.9-3.9,3.5-6,2.1-7.5-2.5-15.6-10.5-11.8-6.4,3-3.3,11.5-6.1,16.9h0ZM2095.2,801c-6.2,14.4,3.1,28.1-.7,43.1l-1.3-8.5-5-2.1-.5-11.7h-5.6l-.7-2.7,9.1-1.3c.8-4.5.9-9,2-13.4.6-2.3-1.4-4.1,2.8-3.4h-.1Z"/>
    <path d="M1383.7,467.3l11.6-1.3c-.7,4.2,1.2,8.2,1.4,12.3,0,1.9-1.6,5.7-1.1,8,.2.8.7,1.4,1.6,1.7,2.9.9,4.2-1.1,4.5-4.1.8-6.2-2-17.1-1.3-17.8,15.1,1.4,8.2-6.9,9-16.2.8-7.8,7.9-15.4-7.7-11v-8.9c-2.9-1.2-4.1-1.6-5.9,1.2l.7,7.7c-3.4.1-7-.5-10.4.6-6.5,2.1-2.7,6-2.5,10.4.2,5.8,0,11.6,0,17.4h.1ZM1397.9,444.1l-9,12.9c-1.5-8.4-1.7-14.7,9-12.9Z"/>
    <path d="M1895.9,922.3l3.6.7,13.2-17.5c5.7,0,5.7,18.2,16,13.9-1.9-7.7-3.1-15.6-5.2-23.3-.9-3.4-3.9-7.1-4.3-9.7-.9-5.6,6.4-22.6-8.6-17.8-12.7,4.1-2.6,14.3-4.1,22.3-1.4,7.6-20.7,18.7-10.5,31.4h0ZM1914.7,873.6c.3,1.3-.2,11.3-3.4,9.7-4.3-2.1-2.8-11,3.4-9.7ZM1913.4,887.5l5.1,9.4,1.8,8.6c-3-1.8-3.6-6.9-8.4-6.3l-12.4,14.7c-.9-12.3,14.5-13.5,13.9-26.4Z"/>
    <path d="M1946.9,834.5c1.3-12.5.2-24.3,7.1-35.3l-7-2.1c6.4-16.1-14.2-17.5-16.4-1.7-1.3,9.7-1.4,20.1-3.2,30.2-.5,2.8-4.4,4.7-1.4,7.1l5.4.5,7.1-12.3c-.3,5.7.7,17.7,8.2,13.7h.2ZM1936,811c4.5-7.6-6.3-19.3,6.9-20.8-.4,5.7-4.3,10.6,2.8,13.2l-2.9,7.5h-6.8Z"/>
    <path d="M1642.2,553.1c3.5.7,7.5,1.3,11.6,2.1,3.3.8,6.4,1.4,9.2,1.9,2,.5,4,1,5.7,1.6,15.3,5,28.8,12.6,43.6,17.6,19.7,6.7,54.9,19.7,78.7,31.1,4.6,3.6,10.5,6.8,13.4,9.9,1.5,1.6,4,4.7,5.9,5.4,7.3,2.6,25.1,14.3,32.5,19,11.6,7.4,22.9,16.2,34,24.5h0l59.6,48.7c27.4-6.8,56.7-3.1,84.5-9.5l65.1-4.4c3.5-1.1.7-11.3.8-15.8.2-5.7.7-14.5,5.6-18,.7-2.8-3.7-2.6-4.2-4.4-.6-2.3.7-10.9,0-11.5h-4.2l-2.1,6.9c-3.4-6.7-10.4-5.2-17-9.4-7.5-4.7-9.1-12-14.3-16.3-7.5-6.1-21.6-11.3-29.9-17.4-2.5-3.6,3.4-9.5-2.7-12.5l-2.8,9.7c-9.4-9.7-21.9-14.4-33.2-21.1-2.3-1.3-3.7-3.8-5.9-5.2-5.2-3.2-9.3.3-10.8-8.8-.5-2.9,1.3-7.5-.8-8.8l-5.6-.6c-.8.7,4.1,13.1-.7,11.1-5.8-8.2-17.3-9.6-24.8-14.1-3.1-1.8-5-5.4-7.9-7.4-12.8-8.6-29.6-12-43-19.5l-3.5-10.5c-3,4.6-9.3-2.2-10.4,2.1-1.2,4.8,6.2,5.7,6.9,8.3,1.3,4.8-1,14.7,0,20.2-4.1.3-2.3-4.6-8.3-2.8l2.8,6.9c-11-.6-21.8.8-32.7,1.4-3.8.2-7.1-3-8.3,2.8-.4,1.8.4,1.8,1.5,2.8l46.5-4.2.8,4.1c2.2-.9,3.4-.9,5.7-.3,3.1.9,17.8,9.9,21.2,12.3,6.5,4.5,10.6,13.6,20.9,11.7,2.4-2-9.6-8.1-11-9.2-1.7-1.3-2.4-4-4.3-5.4-5.1-3.6-29.1-14.5-30.3-18.4l-.3-17.1,34.4,13.6c10.2,10.1,23.7,14.2,35.6,21.4,3.2,1.9,5.5,5.7,10,6.7v27.9c10.7,5.8,21.7,10.6,28.4,21.6l20.9,15.9-129.6,11.4-60.8-40.6,82-5.6-1.4-4.9c-11.2-2.9-21.6,2.8-32.6,3.6-18.5,1.4-38.3-.2-57,1.3l-18.4-13.5-64.3-24c-.6-1.4,3.2-2.8,3.5-2.8h22.2c.9,0,11.9.9,11.1-2.7-.5-2.3-21.2-1.6-24.9-1.4-31.3,2.1-40.6-6.5-68.1-15.4-3.7-1.2-23.8-7.1-28.9-7.1-11.7-3.2-25.1-7.4-38.2-11.5-19.3-6-39.3-12.2-54.3-15.6-10.1-2.3-20.5-3.4-30.5-4.5-13.1-1.4-26.6-2.8-39.3-6.9-2.2-.7-4.4-1.5-6.5-2.2-7.3-2.6-15-6.8-22.8-6.9v1.3l-4.7,1.3c.2,1,1.2,1.7,2.2,1.6,8-1,16.3,3.8,24,6.6,2.2.8,4.4,1.6,6.6,2.3,13,4.2,26.8,5.6,40.1,7.1,9.9,1.1,20.2,2.2,30.1,4.4,14.8,3.4,34.7,9.6,54,15.5,14.1,4.4,27.7,8.6,39.5,11.8l.3.9h-.2ZM2021.7,621.8l26.3,13.3c6.5,15,19.6,17,29.9,25.6,1.6,1.4,4.1,1.2,5.7,2.7l-1.4,27.9c-6.7-8-15.4-13.2-23.6-19.5-3-2.3-5.4-6.2-8.4-8.3-8.3-6-20.5-8.7-28.5-14.6v-27.1h0ZM1967.4,610l-1.2-21.6,6.9.8,43.3,29.1c1,9.7,2,18.8-.2,28.5-20.2-7.3-29.9-27.8-48.8-36.8h0ZM2018.1,652.8c8.7,8.1,19.1,8,28.6,14.3,5.9,3.9,20.1,15.7,25,20.9,1,1.1,6.8,7.9,5.7,8.9-17.7,1.5-35.8,1.2-53.5,2.8-8.6.8-17.7,3.5-26.4,4.1-20,1.5-40.1.5-59.8,3.5l-2.5-.9c-10.1-10.3-31.2-23.5-41.8-33.3-2.6-2.5-6.6-4.7-10.6-7.5,45-3.5,90.7-5.9,135.5-12.8h-.2Z"/>
    <path d="M1911.8,615.6c0,3.2,3.3,6.4,4,10.1.8,4.1-1.1,20.1,6.4,18.3,4.3-1,4.6-16.4,5.2-20.5l8.8-3c1.4,6.5-10.4,22.1,0,23.7,1.8.3,14.8-.6,15.3-1.3,2.9-12.2,2.4-24.5,3.5-36.8.4-4.2,5-8.7.7-12-1.5-1.2-4.6-1.1-4.9-1.4-.6-.7,3.1-15.8-8.8-12.2-6,1.8-4.1,10-5.4,12-.9,1.4-10.1,1.6-6,8.7l3.5,2-6.3,9c-1.6-2.7,1.7-6,1.5-9.1-.5-6.7-10.8-7.9-14.6-1.2-2,3.6,0,4.9-.4,7.8-.3,1.6-2.6,3-2.6,5.9h.1ZM1938.3,598.2c0-.2,2.3.5,3.2-1.7,1.5-3.6-.5-9.1,3.7-10.8.5,2.8-1.5,5.8-.8,8.4.9,3.3,4.2,3.6,4.7,4.4,2.5,4.6.5,27.4-1.7,33.1l-7.7-2.8c-.8-.7,4.5-15.9,4.3-18.8-.3-3.4-3.6-2.9-4-3.6-.3-.4,1.4-2.7,1-4.4-.4-1.5-3-3-2.6-3.8h0ZM1938.4,633h1.4v5.5h-2.8l1.4-5.5ZM1923,602.4l-1.4,5.5h-2.8c-.5-3.3.7-5.9,4.2-5.5h0ZM1920.3,609.3c5.9,3.4,1.1,11.5,1.4,16.7l-3.9-9.3,2.5-7.4Z"/>
    <path d="M2117.9,741.9c.6-6.2-2.3-16.7,3.6-20.7,1.8-1.2,4.5-1.4,6.8-2.9,8-5.4,3.3-8,2.2-14.7-.5-3,.5-6.5-.4-9.4-.6-2-3.7-3.6-3.7-4.4s4.8-3.9,3.7-9.4c-1.3-7-11.4-8.8-15.2-3.2-1.8,2.6-.7,5.7-2,7.7-.9,1.4-3.9,1.6-4.7,3.7-1.5,4.2,2.2,6.9,2.7,10.8,1.7,13.3-10.5,8.9-11.2,15.3l6.3,25.8,11.9,1.4h0ZM2120.6,686.3l-1.4-6.9c6.8-.5,7.2,4.2,1.4,6.9ZM2116.6,711.8c3.8-5-6.8-22.8,2.6-24.1-1.8,5.6,4.2,7.5,5.3,10.7,1,3.1.4,8.4,1.5,12-.7,2.5-6.7,3.8-9.1,5.6-3,2.4-5.1,9.3-10.3,5.6v-5.2l9.9-4.6h.1Z"/>
    <path d="M2149.8,747.5c2.4-21.1,2.3-43.2,9.7-63.2-5.3-7-1.5-22.4-13.1-21.6-5,.3-10.4,6.6-8.9,11.5.7,2.4,5.3,4,4,7.9l-5.5-.8-2.8,4.2,9.6,61,7,.9h0ZM2148.2,686.7c.9-3.8-10.2-17-1.9-17.1,5.2,0,1.4,5.5,2.3,8.7.7,2.7,5.3,4,5.3,7.2s-3.5,11.5-4,15.5c-1.2,9.2-.9,19.1-3,28.3l-6.5-35.5,7.7-7.2h0Z"/>
    <path d="M1804.8,580.6l4.8,2.2,2.4-3.9c11.8,4.6,9.9-21.4,11.1-29.8.5-3.2,3.7-11.6,3.5-12.8-.3-2.3-5-3.3-5.9-4.8-1-1.7,4.2-13-4.2-14-8.9-.8-8.3,12.9-9.2,13.8-.4.5-2.7-.2-3.5.4-4.2,2.9,1.9,17.9,2.4,22.6.9,8.9-1.6,17.4-1.5,26.2h0ZM1815.3,536c7.6,5.1.6,15.6,2.1,23.3h-5.5c3-9.7-9.8-20.4,3.5-23.3h0Z"/>
    <path d="M1767.5,562.6c.7,8.4,2.5,18.8,10.3,23.1l3.3-2.4c2-11.2.9-25,3-35.9.9-4.5,6.9-5.2,3.1-12.9-1.1-2.3-3.8-2.7-4.2-3.4-2-3.4,2.9-13.9-5.3-15-7.3-1-8.5,7.8-8.5,13.5s2.2,5.9,2.1,6.7c0,1.2-3.1,1.6-4,3-4.8,7.4.6,9.6,1.2,15.4.4,3.1-1.2,5.4-1,7.8h0ZM1775.7,521.7l1.4,8.3c-5.6,1-.9-5.5-1.4-8.3ZM1771.6,544.1c.3-.4,3.1-.7,4.2-2.1,1.7-2.3.2-7.7,3.3-6.4l3.5,3.5c-7.8,5.5-3.7,12.6-4.1,20.9-.2,4.8-2.3,9.5-1.4,14.5-4.2.7-2.2-1-2.8-3.4-1.9-7.6-1.3-14.6-1.3-22.4s-1.4-4.5-1.3-4.7h0Z"/>
    <path d="M1836.9,601.8c4.4,0,26.6,1,27.7-.9,2.4-3.8-3.3-4.5-3.9-6.3-.6-1.7-.6-11.6,0-12.8.8-1.3,7-2,5.3-7.2-5.3-1.3-11.3,1.4-16,1.4s-21.8-4.3-16.7,2.8c7.4,2.6,4.5,9.4,5,15.7-5.7,1.6-9.3,7.3-1.4,7.3ZM1854.9,580.1c-.4,4.7.6,10.1,0,14.6-.2,1.9-1.1,4.4-2.8,2.1,1-5.2-5.5-15.7,2.8-16.7h0ZM1844.5,580.2c2.6,0,4,15.4-.7,16.6-1.2-5-3.5-12.4.7-16.6Z"/>
    <path d="M1879.9,651.8l19.3.5c4-6.4-1.2-5.4-2.2-7-.7-1.1-.6-9.6-.4-11.6.4-3.1,3.5-5.6,2.3-7.6-3.4-5.4-8-.7-10.1-.4-3.5.5-9.6-3.6-13,1.1,6.9,3.6,6.5,9.1,5.5,16.6-.4,2.6-5,6-1.4,8.4h0ZM1886.9,631.6h4.2v13.9h-4.2v-13.9Z"/>
    <path d="M1938.1,672.1c1.4,1.1,2.3,14.5,1.7,16.9-.4,1.8-5.6,1.7-4.2,5.8,1,3,9.8,2.5,12.6,1.5l1.3-6.3h-5.6c.4-5.1-.6-10.9,0-15.9.3-2.1,2.8-3.9,2.6-5.4-.8-4.9-10.4-2.1-13.8-1.6l-.7,3.5c1.3,1.9,5,.8,6,1.6h0Z"/>
    <path d="M1907.7,645.5c-1.2-1.6-6.9-1.4-5.5,3.5,1.3,4.9,7.9-.2,5.5-3.5Z"/>
    <path d="M1873,596.8c-.6-.6-7.3-1.3-5.5,3.5,2,5.4,7.8-1.2,5.5-3.5Z"/>
    <path d="M1959.2,693.4v-2.1c-13.4-.3-2.3,8,0,2.1Z"/>
    <path d="M1591.1,490.8v-.6c-.4,1,.2,2.2,1.2,2.5,14.8,5.2,24.5,6.4,40.2,7.1,1.7,0,3.4.1,5.1.2,4.6.1,9.3.3,13.8,1,6.3,1,12.5,3.1,18.5,5.1,1.2.4,2.5.8,3.7,1.2,27.2,9.1,55.8,14,83.5,18.7h.3c1,0,1.8-.7,2-1.7.2-1.1-.5-2.1-1.6-2.3-27.5-4.7-56-9.6-82.9-18.6-1.2-.4-2.4-.8-3.7-1.2-6.2-2.1-12.5-4.3-19.2-5.3-4.8-.7-9.6-.9-14.3-1-1.7,0-3.3-.1-5-.2-14.6-.7-23.9-1.7-37.3-6.3v1.6c-.8.1-4-.2-4.3-.3h0Z"/>
    <path d="M1524.5,396c4.2,1.1,4.6,11.8,7.6,12.5,8.6,2-1.8-12.6-1.9-13.4,0-1.7,2.1-3.4,2.5-5.4,1.8-10.1-4.7-12.3-12.5-7.6v25l4.3-.9v-10.3h0Z"/>
    <path d="M1483.2,409.6c10.9-7.5-4.1-13.9-4.6-22l4.9,4.1c9.2-7.6-8.6-15.1-10.2-4.5-1.1,7.3,7.3,10.9,9.5,17.1l-9-1.4c-3.2,5.6,5.1,6.4,9.4,6.7h0Z"/>
    <path d="M1503.2,401.8c-.5,2.5-2,3.1,1.1,5.2l6.9-8.3.7,9.7,5.4-2.2c-2.6-5.2.7-21.2-4.3-23.9-1.5-.8-3.6-.2-5.2-.3.9,7-3.3,13.5-4.6,19.8h0Z"/>
    <path d="M1546.7,383.5v20.2c0,.2-2.4,2.8.7,3.5,2.2.5,3.7-.2,4.7-2.2l-1.3-20.6c.5-1.7,7.3-.5,5.7-5.7-.3-2.1-21.4.2-18.1,4.8h8.3Z"/>
    <path d="M1495.4,388.4l-1.5,21.4h5.5c-2.6-8.1-.4-14.8,0-22.8l4.3-.8-2-5.2-11.9,1.1c-2,5.9,5.2,4.8,5.7,6.4h0Z"/>
    <path d="M1450.3,500.3v-14.9c0,0,.2-5.4.2-5.4l.5-56.3,136.8-7.1c2.5,1.8,5.3,53.4,3.5,73.6v.6c.3,0,3.5.4,4.3.3v-124.4l-150.1,6.2v129.9h.2l4.7-1.3v-1.3h0ZM1450.9,379.9l2.4-3.2,136.7-4.4v35.4c-15.2,6.5-33.1,5.1-49.3,6.3-8.4.6-18,2.4-26.4,2.8-20.8,1-42.1-2.4-62.6,2.8-4.5-13,0-26.3-.8-39.7h0Z"/>
  </g>
  <g id="text" class="st2">
    <g class="st0">
      <text class="st1" transform="translate(2042.3 1122.7)"><tspan x="0" y="0">DOHLÁŠKY</tspan></text>
    </g>
    <g class="st0">
      <text class="st1" transform="translate(1487.4 1092.7)"><tspan x="0" y="0">PŘIHLÁŠKY</tspan></text>
    </g>
    <g class="st0">
      <text class="st1" transform="translate(1305.2 583.2)"><tspan x="0" y="0">KORIDOR III.</tspan></text>
    </g>
    <g class="st0">
      <text class="st1" transform="translate(1609.3 342.9)"><tspan x="0" y="0">START</tspan></text>
    </g>
    <g class="st0">
      <text class="st1" transform="translate(1389.7 638.1)"><tspan x="0" y="0">KORIDOR II.</tspan></text>
    </g>
    <g class="st0">
      <text class="st1" transform="translate(1466.8 699.3)"><tspan x="0" y="0">KORIDOR I.</tspan></text>
    </g>
    <g class="st0">
      <text class="st1" transform="translate(87.1 718.2)"><tspan x="0" y="0">SBĚRKA</tspan></text>
    </g>
    <g class="st0">
      <text class="st1" transform="translate(407.4 981.4)"><tspan x="0" y="0">CÍL</tspan></text>
    </g>
    <g class="st0">
      <text class="st1" transform="translate(498.6 175.3)"><tspan x="0" y="0">RADIO 2</tspan></text>
    </g>
    <g class="st0">
      <text class="st1" transform="translate(932.2 399.7)"><tspan x="0" y="0">RADIO 1</tspan></text>
    </g>
    <g class="st0">
      <text class="st1" transform="translate(669.9 1410.9)"><tspan x="0" y="0">VYČÍTÁNÍ ČIPŮ</tspan></text>
    </g>
    <g class="st0">
      <text class="st1" transform="translate(829.9 1079.4)"><tspan x="0" y="0">CENTRUM IT</tspan></text>
    </g>
    <g class="st0">
      <text class="st1" transform="translate(1128.8 1578.9)"><tspan x="0" y="0">VÝSLEDKY</tspan></text>
      <text class="st1" transform="translate(1012.7 1638.9)"><tspan x="0" y="0">MY RESULTS BOARD</tspan></text>
    </g>
  </g>
</svg>