<?xml version="1.0" encoding="utf-8"?>
<!-- Generator: Adobe Illustrator 23.0.1, SVG Export Plug-In . SVG Version: 6.00 Build 0)  -->
<svg version="1.1" id="Layer_1" xmlns="http://www.w3.org/2000/svg" xmlns:xlink="http://www.w3.org/1999/xlink" x="0px" y="0px"
	 viewBox="0 0 670 372.9" style="enable-background:new 0 0 670 372.9;" xml:space="preserve">
<style type="text/css">
	.st0{display:none;}
	.st1{display:inline;fill:#FF0000;}
	.st2{font-family:'Arial-BoldMT';}
	.st3{font-size:50px;}
</style>
<g id="design">
	<g>
		<path d="M147.7,217.7c-1.7,1.1-3-1.2-2.1,4.1l6.9-6.9C149.4,214.4,150.3,216.1,147.7,217.7L147.7,217.7L147.7,217.7z"/>
		<path d="M117.1,214.8c1.4,0,2.9-4.6,2.1-5.5C116.7,206.7,113,214.9,117.1,214.8z"/>
		<path d="M16.2,276.3c-0.4-2.8,5.7-12.2-0.2-17.6c-4.7-2.3-10,0.5-10.5,5.8c-0.2,1.7,1,3.2,0.3,5.7c-0.8,3-4.4,6.1-5.3,10
			c-2,8.6,2.8,14.8,3.4,23.7c0.3,4.7-2,18.1,0,21.1c3.8,6,5.2-12,5-14.2l3.8,13.1c1.2,1.8,4.4,1.2,4.9-0.6c0.8-2.9,0-14.4,0-18.5
			c0-6.1-2.7-6.8,0.6-15.7c1.4-3.7,6.1-4.7,2.1-9.9c-1.1-1.4-3.8-2.1-3.9-2.9L16.2,276.3L16.2,276.3z M12.5,294.4
			c-5.7,0-8.2-3.6-8.2-9.3s5.8-11.2,6.4-14.4c0.6-3.1-3.8-8.4,3.5-7.9c2.1,4-2.9,11.2-2.8,13.2c0.4,4.3,5,4.5,5,7
			S11.7,291,12.5,294.4L12.5,294.4L12.5,294.4z"/>
		<path d="M80.3,309.3c-5,2.4-2.6,9-4.8,13.2c-8.8-2-10.2,7.8-8.3,14.1l5.3,2c1.3,7.3-3.5,17.2,0,23.7c1,1.8,2.9,4.1,4.8,1.8
			l2.6-8.8c0,3,1.4,5.8,4.8,5.4c3.8-1.2,2.9-17.6,2.8-21.2c-0.2-4.2-2.3-12.4-1.9-16.2c0.2-1.8,2.3-3.1,2.7-4.7
			c1.6-5.8-1.9-12.3-8.2-9.3H80.3L80.3,309.3z M82.7,347.7l-1-6.6l-4-1.7l-0.4-9.2h-4.4l-0.5-2.1l7.2-1c0.6-3.5,0.7-7,1.5-10.5
			c0.5-1.8-1.1-3.2,2.2-2.6c-4.9,11.3,2.5,22-0.5,33.8l0,0L82.7,347.7z"/>
		<path d="M100.2,268c-2.7-8.6-14.4-7.2-17.6,0c-2.7,6.2,2.4,7.1,5.9,10.7c7.3,0.5,14.3-2.3,11.6-10.9l0,0L100.2,268L100.2,268z
			 M87.2,267.7c4.5-3.7,10.5,2.7,6.9,5.5C92.3,274.6,86.3,271.1,87.2,267.7z"/>
		<path d="M88.6,278.8c-4.3-0.3-12.2-3-11.1-8.3c-6.8-1.6-3.5,6.2-7.7,11.1c-1.2,1.4-1.7,2-2.8,0c-1.9-3.5-0.6-35.5-0.6-42.5
			s-1.9-14.9-1.4-20.6c0.8-8.3,10.1-28.6,12.8-38.7c4.1-14.9,5.2-19.9,5.2-35.2c0-23.1,0.4-73.7-36.1-52.7c0.9,3.2,3.5,4.6,4.1,8.3
			c4.1,26.2,3.7,56.7,5.6,83.3c1.4,19.4,5,38.8,5.6,58.3c0.5,14.4,0.5,30.3-1.3,44.4l2,2.2c7.6-2.6,3.3-0.6,5.5,4.1
			c3.8,8,24.7,3.7,25.7-3.5c0.8-5.7-2.3-7-5.6-10.4L88.6,278.8L88.6,278.8L88.6,278.8z M63.6,205.1L55.2,97.4l0.6-2.2
			c1.7-2.4,12.1-1.7,14.3,0.5c1.7,1.6,5.2,14.1,5.8,17.2c5.9,32.3,2,50.7-7.5,81.2C67.4,197.3,66.3,203.3,63.6,205.1L63.6,205.1
			L63.6,205.1z M87.8,288.6c-5.9,1.4-17.4,6.4-13.9-4.3c3-9.2,9.5,0,14.7,1.5L87.8,288.6z"/>
		<path d="M216.3,171.3c-4.7-9-9.7-10.9-19.9-9.2c-15.2,2.5-16.2,24.6-14.6,36.6c2.9,21.8,20.3,43.3,24,60.9
			c4.2,19.9-1.2,49.7,3.8,68.4c1,3.7,3.7,8.8,8.2,7.8c3.3-6.4,0.2-13,0.3-18.8c0.5-30.6,1.3-61.5,1.1-91.7
			C219.2,211.8,221.8,181.8,216.3,171.3z M215.2,297.6c0,2,0,7.3-2.8,7.6c-0.5-10.4,0.6-20.9,0-31.3c-1.4-22-8-28.2-15.3-47.2
			c-5.1-13.4-20.2-56.9,2.8-59.9c16.1-2.1,15.2,22.2,15.4,32.1C215.9,230.6,217.4,265.6,215.2,297.6L215.2,297.6L215.2,297.6z"/>
		<path d="M618,189.5c5.1-11.3,17-25.9,16.8-38.5c-0.3-14.4-20.3-48.9-30.4-59.9c-1-1.1-9.7-9.1-10.4-9.1c-6.9,0,0.3,13.7,0.7,18.8
			c2.4,27.9-0.9,60.5,0,89.1c0.8,30.9,4.7,62.2,4.3,93.1c0,5-4.2,10.6,4.1,11.8c1.5-17.7-2.7-35.6-1.4-53.6
			c1.2-17.4,9.3-35.8,16.5-51.6L618,189.5L618,189.5z M598.7,189.7l0.7-95.2c5.6,7.9,11.9,15.2,16.5,23.8c3.2,6.2,13.1,28.2,13.3,34
			c0.2,8.4-11.1,22.9-14.8,30.8c-4.9,10.5-8.9,21.5-12.9,32.3l-2.8-25.8l0,0L598.7,189.7z"/>
		<path d="M361.2,301.1c-1.4-2.4,0.9-8.3-0.9-10.9c-6.7-4.3-15.5-2.7-14.8,6.4c0.2,3.3,3.1,5.1,3,8.2c-0.2,3.6-4.9,8.8-4.2,13.4
			l-4.2-1.4c2.1-5.7,1.6-10.6-2.4-15.3c-11-3.3-10.9,7.8-10,16c-12.3,3.1-0.6,11.1,1,17.2c1.4,5.1,2.5,33.5,4.8,34.9
			c4.6,2.4,5.8-2.6,6.2-2.7c1.9,0,5,3,6.9,0l0.6-19.5l6.3,19.5c1.2,1.7,5.2,2.3,6.4,0.5c4.4-6.2-7.1-42.8,1-53.8
			c1.6-2.2,5.3-2.1,5.7-6c0.5-5.4-4.6-5.2-5.4-6.4l0,0V301.1z M341.7,348.7c-3.6,0-5.2-0.9-6.2,2.8c-2.1-6.3,0.4-13.6-1.1-19.9
			c-0.7-2.8-4-5.1-3.9-7.2c0-1.9,2.5-3.4,2.6-5.5c0.3-3.7-4.1-8.7-1.3-13.3c8.6,0,0.8,12.6,3,15.1c0.4,0.4,3.3,0.3,4.8,1.4
			c3.9,3,0.4,6,0.7,9.1c0.4,5.6,2.5,11.3,1.5,17.4l0,0L341.7,348.7z M347.2,345.9c-3.2-1.9-0.6-9.3-1.4-12.5
			C349,335.2,346.4,342.7,347.2,345.9z M354.2,314.5c-0.2,3.8,0,11.1,0,15.3c0,8.8,2.5,17.2,0.9,25.8c-3,0-5.5-35.2-4.9-39.5
			c1.3-9.1,7.8-12.1-0.2-22.4l5.6-0.7c-2.5,5.1,2.8,12.4,2.9,14.6c0,2.8-4,3.8-4.1,6.8h-0.2L354.2,314.5z"/>
		<path d="M477.8,265.7c0.3-1.4,8.3-2.8,1.4-8.6c-8.1-6.8-21.1,0-22.2-0.8c2.3-7,1.5-15.5,1.5-23s-1.6-7.5-1.5-11
			c0-5,4.6-10.3,4.3-13.9c-0.2-1.8-2-3.1-2.4-4.7c-1.3-5,0.5-8.1-5.5-11.2c-11.3-5.9-10.9,10.4-10.2,17.9c-2.5-1.7-9.5-5.1-11-0.5
			c-1.7,5.2,4.6,7.5,6.7,11.1c6.4,11.5,3.9,25.9,4.3,38.5l2.8,1.6l-11.9,3.4c-1,4.5-2.4,18.3,4.3,18.2c0.8,0,0.5-2.5,1.6-2.8
			c9.2-2.3,18.1,2.5,31.4-3.2c8.7-3.7,5.3-5.3,6.6-11.2L477.8,265.7L477.8,265.7L477.8,265.7z M442.9,216.8c0-0.9,2.9-1,4-3.1
			c2-4.1,2.9-11.3,1.7-15.7h4.2c-2.7,5.2,1.1,8.4,1.4,11.9c0.4,5.7-3,16-1.4,22.9c-2.1,2.9-9.8-14.3-9.8-15.9l0,0L442.9,216.8z
			 M451.8,256.1c0.5,0.8,3.8-0.4,1.7,1.7l-6.3,2.8l2.8-9.7C452.7,250.7,450.5,254.1,451.8,256.1L451.8,256.1L451.8,256.1z
			 M471.3,271.8c-6.6,4.7-19.5,4.5-26.8,1.3c5.1-3.4,17.7-13.1,23.2-13.5c1.6,0,3,0.9,4.6,1C469.7,264.5,476.3,268.3,471.3,271.8
			L471.3,271.8L471.3,271.8z"/>
		<path d="M669.3,190.1c-1.8-8.8-13.5-16.5-22.3-16c-14.2,0.8-22.3,15.4-27,27c5.9,38.8,4.9,77.7,6.6,116.5c0,2.6-1.9,25.9,2,25.7
			l3.5-4.9c-3.4-28.9,2.6-58.1,14.1-84.6C654.5,234.7,673.9,212.2,669.3,190.1L669.3,190.1L669.3,190.1z M630.7,286.3
			c-2.6,0.3-1.1-2.9-1-4.5c0.6-6.5,1.2-11.7,1-18.5c-0.8-20.7-11.2-58.2,1.4-75.1c8.8-11.8,28.7-10.1,31.7,3.1
			C669.5,216.4,630.8,258.7,630.7,286.3L630.7,286.3L630.7,286.3z"/>
		<path d="M98.4,183.7c2-16.9-4.2-38-2.5-55.3c4.6-8.6,10.1-16.5,16.4-23.9c3.1-3.7,8.3-6.8,10.6-9.6c1.2-1.4,2.2-3,2.9-4.7l-2.7-55
			c-0.6-2.1-19.9-16.6-23.4-19.7c-3-2.7-4.8-10.5-9.5-4l2.6,177C97.3,189,98,187.8,98.4,183.7L98.4,183.7L98.4,183.7z M118.5,38.3
			c1.5,8.5,0.3,17.2,0.7,25.7c0.3,6.6,3.5,19.5,0.7,25.7c-0.4,0.8-11,10.7-13.2,13.3c-3.6,4.2-7.9,9.3-9.8,14.6l-1.4-98.7
			L118.5,38.3L118.5,38.3L118.5,38.3z"/>
		<path d="M498.1,206.3c-4,0.4-5.4,4-9.1,4.2c0-2.8,0.3-5.7-0.6-8.4c-1.1-3.4-4.2-3.6-4.7-4.4c-1.8-3.2,3.3-8.8-2.3-15.1
			c-8.7-9.7-14.1,8-9.1,15.4c-3,0-5.2,0.2-5.7,3.5c-0.4,3.3,4.1,15.2,4.3,20.9c0.2,7.7-4.3,17.4,3.7,22.6l9.7-3.9
			c0-7.4-1-15.5-0.8-22.9c0-2.8-0.9-4.1,2.8-3.5c-3,6.3,1.9,9.8,1.4,17.3c-0.6,9.5-9.9,26.3,2.1,31.4c5-0.9,5.3-5.5,4.9-9.8
			c2.4,0.5,4.7,8.9,7.7,4.2c3-4.7-1.6-14-0.8-18.8c0.6-3.3,3.3-2.9,4.3-4.4c4.4-6.8-2.3-8.3-2.9-12.3c-0.7-5.2,6.5-17.1-4.7-15.9
			L498.1,206.3L498.1,206.3z M483.1,208.8c-0.4,0.7-3.6,1-4.7,4.4c-1.9,5.8,5.3,15.2-3.3,19.5v-20.2c0-7,1.2-9.8,1.5-15.2
			c0.2-4.1-1.8-7.8-1.5-11.8c8.4,0.6,1.7,10.7,2.9,14.4c0.8,2.3,8.2,3.7,5.1,9l0,0V208.8z M490.3,256.4c-2.5,0.3-1.3-3.1-1.2-4.7
			c0-1.5,0.7-7.7,2.6-7.8L490.3,256.4z M491.7,236.9c0-7.9,3-12.6-1.5-20l7.8-6.4c0.5,7.8-2.7,13.4,2.1,20.8L491.7,236.9
			L491.7,236.9L491.7,236.9z"/>
		<path d="M380.5,51.6l-0.2-36c-3.6-2-27.2-16-29.1-15.6c-0.7,0.2-6.9,4-6.9,4.4c1.2,4.7,3.7,7.2,4.3,12.4
			c3.8,34.8,0.9,83.1-1.4,118.1c-0.8,11.7,1.6,23.6,0.2,34.7l5.4,2.2c0.4-9.8-1.7-18.7-1.4-28.6c0.2-6.8,2.4-15.3,2.8-22.2
			c0.6-9.4-0.4-19,0-28.5c9.5,3.4,18.5,9.6,29.1,11.1c3.1-7.3-2.8-13.8-2.8-21.5S382.9,61.5,380.5,51.6L380.5,51.6L380.5,51.6z
			 M354.2,86.9l-2.9-80.5l24.9,13.4l1.5,76.9C368.5,95.6,362.9,87.6,354.2,86.9L354.2,86.9L354.2,86.9z"/>
		<path d="M411,216c2.7,0.4,3.7-1.1,4.2-3.5c1.8-9.8-0.3-27.8,0-39c0.6-16.9,6.6-32.3,14.9-47.5c7.4-13.5,21.4-26.4,22.5-42.8
			c1.8-25.9-25-41.8-38.7-16.4c-12.4,22.9-4.1,82.5-2.9,109.5C411.6,189.5,410.4,202.8,411,216z M417.9,70.6c8.3-19,27.2-10.8,29,6
			c2.5,23.8-27.5,47.6-31.7,71.2c-3.2-0.7-1.9-2.5-2.1-4.2C411.3,125.2,410.7,87.2,417.9,70.6L417.9,70.6L417.9,70.6z"/>
		<path d="M530.7,174.3c2.8-19.4-12-21.6-11.8-1.3l-1.4,1.3c-3.5-4.7-8.1-0.8-7.1,4.3c0.6,2.7,3.3,5.1,3.3,7.3
			c0,5.3-6.7,10.1-6.7,15.5s4.1,9.7,9.8,6.3c-0.8,6.9-3.7,32.4,0.6,36.2c2.7,2.4,5.1,0.3,6.1-2.5c0.7-2.1-0.9-6.1,1.7-6
			c0.3,6.7-2.8,24.5,8.1,15.8l8.6-70.7c-0.4-4.7-7.1-6.6-11.1-6.3l0,0L530.7,174.3z M526.4,164.6l-2.1,8.3
			C521,171.1,522,163.7,526.4,164.6z M530.6,239c-0.4,2.3,0.9,2.4-2.7,2.1v-20.2l-6-3.8l1.7-21l-5.4-4.5c2.4-4.3,4.3-6.9,1.4-11.8
			c6.4-3.1,10.5-0.9,16.8,2.3c-2.3,18.8-2.2,38.1-5.7,56.8h-0.1L530.6,239z"/>
		<path d="M464.9,335.2c4.4-3-4.8-15.3-5.2-19.6c-0.3-3.5,2.8-8.8-0.8-12.7c-3.8-4-11-4.1-14.7,0.6c-7.1,9,0.8,11,0.9,14.8
			c0,1.6-2.2,15.1-2.7,16.7c-1.1,3-4.9,4.3-5,8.6c0,1.5,3.7,18.7,4.4,20.6c1.5,4.2,7.9,5.6,9.2,1.5l0.2-14.4l11.8,13.9l3.4-2.3
			l-5.7-24.9C460.1,334.9,463.4,336.3,464.9,335.2L464.9,335.2L464.9,335.2z M453.9,338.7l-5.4,0.2l-4.3,13.7
			c-1.7-8,3.3-13.4,4.8-20.8c1.6-7.5,2.4-16.1-0.9-23l6.9-2.1c0.3,2.8-2.3,5.3-2.4,7.9c0,3.1,3.4,5.9,3.3,8.1c0,1.4-3,4.4-3.3,7.3
			c-0.3,2.9,1.6,5.7,1.2,8.7L453.9,338.7L453.9,338.7z"/>
		<path d="M144.8,148.1c8-13.2-7.5-20.9-14.3-8.8c-1.6,2.9-1.5,6.3-3.2,9.3c-4.5,8.1-14.2,16.6-12.9,26l-7.7,1.3
			c1.5,13.7-5.6,28,15.1,20.7c2.7-4.3-7.6-13.9,0.2-17.9l5.5,20.2c14.8,1.8,7.5-15.3,7-23.7c-0.4-5.8-0.9-16.3,2.7-20.9
			c1.8-2.3,5.5-3,7.6-6.3l0,0L144.8,148.1z M112.3,192.6c-0.4-4.5-4.4-12.1,2.7-12.5l1.4,12.5H112.3L112.3,192.6z M126.1,180.1
			c0.4-6.1,0.3-10.4-5.5-13.2l6.9-7.7l2.8,17.4L126.1,180.1L126.1,180.1L126.1,180.1z M136.6,146.7c-3.9-1.1-1.4-7.7,1.4-8.3
			C142.7,137.3,143.1,148.6,136.6,146.7z"/>
		<path d="M309.7,296.3c-0.7-4.4-4.5-3.9-5.3-5.2c-1.4-2.2,0.3-8.1-3.1-11.5c-6.6-6.6-25.3,8.1-13.9,13.9l-5.7,5.6
			c-0.6,4.1,3.2,7.4,4,11.4c1.4,7.7,0.3,21.4,3.3,28.6c1.2,2.8,4.1,1.6,5,2.6c1.3,1.4,0.6,11.1,3.8,12.2l4.2-1.3l0.7-7l5.5,1.4
			c2.4-1.7,0.3-26.5-0.2-31.1c-0.3-3.2-2.8-10.7-2.6-12.6C305.4,302,310.6,302.7,309.7,296.3L309.7,296.3L309.7,296.3z M303.7,322.9
			c0,2.9-4.4,6.2-4.1,10.3l-1.1-5.7l-5.5,1.4l-4.2-28.4c0-1.2,5.9-0.6,6.8-4.5c1.6-6.2-14-6.3,0.8-12.9c1.9,0,3,9.9,3.1,12.1
			c0,2.4-2.1,3.9-1.7,6.1c1,5.6,6.3,14.1,6,21.8v-0.2L303.7,322.9L303.7,322.9z"/>
		<path d="M259.7,156c-0.3,13-4.8,29,14.5,20.6l2.5,0.7c3.1,2.2,1.9,15.4,10,9.9l1.8-36.5c-0.4-5.1-7.3-7-11-4.6
			c-3.9,2.6,3.3,9.9-2.7,11.9c-1.7-5.4,1.8-14.4,1.3-18.7c-0.2-1.8-2-3.1-2.2-4.5c-0.5-3.4,0.7-14.6-6.5-12.8
			c-8.3,2.1-4.3,14.6-5.3,18.3c-0.8,3.2-10.5,5.7-8.1,12.6L259.7,156L259.7,156L259.7,156z M266.6,135.6c2.1,0,2.4,4.9,2.6,6.4
			c0.8,6.4,0.2,13.6,2.2,20c2.8,4.4,9.9-3.2,10.5-2.8l1.4,13.9l-6.3-5.6l-5.5,4.1l-2.1-5.5l-5.5,1.4c-2.1-4.3,3-13.5,2.5-15.8
			c-0.6-3.1-5.1-2.4-5.3-5C268.6,147.2,266.6,141.1,266.6,135.6L266.6,135.6L266.6,135.6z"/>
		<path d="M166.6,162.9c-3.9,1.4-8.4-1.7-11.2-4.3c5.1-1.7,5.8-2.7,7.7-7.7c1.8,1.9,8,2.5,8.7,3.1c1,0.9,0.7,8.2,5.2,3.9
			c2.3-5.6-0.4-9.9-6.3-9.8c-0.8-0.9,3.6-9.4-0.4-13.5c-2.3-2.4-6.6-1.4-8.6,1.1c-4.1,4.9,0.2,12.8-6.4,17.3
			c-1.9,1.3-5.1,1.2-6.5,2.5c-6.5,5.7,15.6,10.6,1.7,13.5l-0.7,2.2c4.8,5.3,5.8,21.7,14,19.5v-13.2c4.4,2.4,4.8,13.1,11.1,6.1
			l-5.6-16.4l5.6-5.7C171.8,157,169.9,161.7,166.6,162.9L166.6,162.9L166.6,162.9z M167.8,138.4c0,2.8-1.4,8.5-4.1,9.7L167.8,138.4z
			 M158.8,178.7c-2.3-1.7-2.3-4.3-2.1-6.9h2.8L158.8,178.7L158.8,178.7L158.8,178.7z"/>
		<path d="M298.1,273.7c4.9-4.4,17.9-21.3,5.3-22.7c-9.2,2.7-24.5-2.5-32.4,1.1c-6.9,3.2-9,17.5-5.9,24
			C275.5,272.1,287.1,274.6,298.1,273.7L298.1,273.7L298.1,273.7z M270.7,260.1c0.9-0.7,3-3.5,3.5-3.5h28.5
			c-0.3,2.1-6.2,5.6-7.6,5.6h-24.3L270.7,260.1L270.7,260.1L270.7,260.1z M273.5,269.1v-1.4h22.2v1.4H273.5z"/>
		<path d="M304.2,153c0,4.3-3,9.9,0.6,13.2c1.5,1.4,4.5,0.9,4.9,2.2c1.6,5.7-1.7,18.2,2.8,25.4h5.3c3.6-3.2-2.8-27.7,6.8-26.4
			c3.2-7.3-4.5-15.4-5.1-20.3c-0.4-3.4,3.7-18.8-7.6-15.5c-0.7,0.2-8.6,10.2-8.8,10.9C302.2,145.4,304.1,149.5,304.2,153L304.2,153
			L304.2,153z M308.2,143.6l7-6.5c1,3-2.7,5.3-2.5,7.4c0.3,4.2,11.8,17.4,3.2,20.4c-1.7-3.9-3.2-4.7-7.6-4.2c-0.5-3,2.9-4.8,2.7-7.6
			C311,150.6,307,148.1,308.2,143.6L308.2,143.6L308.2,143.6z"/>
		<path d="M493.5,309.9c-2-3.3,0.4-11.4-5.9-13.7c-13.3,0.8-7.4,14.2-14.4,21.4c-0.7,6.3,6.1,4.8,8.1,6.5c0.7,0.6,4.3,16.1,4.5,18.4
			c0.4,4.6-4.2,19.8,3.5,17.4c2.1-1.2,1.8-2.8,2.1-4.8c1.4-9.5,2.3-19.5,4.5-28.9c1.2-5,6.5-7.8,1.6-13.5c-1-1.2-3.4-1.7-4.1-2.9
			L493.5,309.9L493.5,309.9z M490,334.9l-2.9-14.5l-6.9-2.2c-1.5-3.8,3.7-2.9,4.2-4.9c0-0.7-5.9-11.3,0.7-11.7
			c3.1-0.2,0.2,7.1,1.3,9.7c1.3,2.8,7.2,4.6,7.6,6.4l-4.1,17.2H490L490,334.9z"/>
		<path d="M255.3,280.8c-3.2,4.4,0,7.5-0.2,11.2c-0.7,13.2-5.9,26.7-1.1,39.6c7.6,1.5,7-9.7,9.6-13c1.2-1.6,4.7-0.6,5.5-3.1
			c-1.2-6.2,0-33.8-3-36.3C263.4,276.9,257.4,277.9,255.3,280.8L255.3,280.8L255.3,280.8z M258.2,303.8l1.4-9.7l4.2,8.3L258.2,303.8
			z"/>
		<path d="M209.5,105.8c-0.3,2.5,1.3,5,1.2,6.9c-1.1,10.5-4.9,18.8,0.3,29.9l5.5-1.4c1.9,4.2,0.5,15.8,6.3,16.7l2.8-2.8l-1.9-38.7
			c16.9-9.8-12.7-22.6-14.1-10.6L209.5,105.8L209.5,105.8z M219.3,132.9h-5.5c0.5-5.9-2.1-12.8,3.5-16.7
			C220.6,121.1,219.1,127.4,219.3,132.9L219.3,132.9L219.3,132.9z M213.7,107.1c-0.3-3.6,12.4,0.2,9.7,3.5
			C221,113.5,213.9,109.6,213.7,107.1z"/>
		<path d="M243.5,205.2l22.1,2.6l9.1-9c-2.4-5,2.5-13.9-4.9-15.7c-2.9-0.7-10.2,2.8-14.2,1v-4c-1.6,0-2.9-0.3-4.3,0.6
			c-0.7,0.5-9,13.8-9.2,14.6c-0.6,2.4,3,6,1.5,9.8l0,0L243.5,205.2z M251.6,189.5c4.8-2.1,11.2-0.7,16.3-1
			c-3.1,6.8-11.9,3.4-18.1,4.1C249.4,189.8,249.5,190.3,251.6,189.5L251.6,189.5L251.6,189.5z M261,196.8v4.2c-5,0.6-8.9,1.5-13.9,0
			c1.4-6.9,8.7-4.3,13.9-4.1l0,0V196.8z"/>
		<path d="M120.3,285.7c-1.3-0.5-1.1-2.1-1.5-2.3c-2-0.9-14.7-0.9-16.3,0.2c-3.1,2.1-6.8,17.1-4.9,20.2c1.3,1.9,2.2,0.8,3.5,0.8
			c2.7,0,14.1-0.7,15.3-1.5c0.5-0.3,8.2-9.1,8.4-9.7C126.7,283.6,123.8,287,120.3,285.7z M103.9,299.7c-1.3-4.3,8.4-7.2,8.3-3.5
			C112.2,298.1,106.2,300.6,103.9,299.7z M112.2,289.9h-5.6c0.7-2.8,3-3.1,5.6-2.8V289.9z"/>
		<path d="M194.7,322.9c-1.3-0.9-1.2-4-4.1-4.9c-17.7-5.6-17.1,20.3-5.2,22c5.5,0.8,10.4-3.5,16.5,1.4c1.9-0.4,3.9-10.8,3.3-12.9
			C204,323.9,197.2,324.8,194.7,322.9L194.7,322.9L194.7,322.9z M186.7,334.5c-7.1-0.8-7-13.7,1.2-11c1.6,0.4,1.9,3,2.7,3.5
			c3.3,2.1,9.4,2.8,9.3,7.4C195.3,332.2,190.5,334.9,186.7,334.5L186.7,334.5L186.7,334.5z"/>
		<path d="M357.2,172.9c4.1,2.2,8.4,3.1,11.4-1.1c5.8-8.2,5.7-14.2,5.8-23.5l-1.6-2.9C359.1,149.2,350.1,158.7,357.2,172.9
			L357.2,172.9L357.2,172.9z M363.8,169c-2.1,2.3-5.6-4.3-4.1-6.9C362.1,162.4,365.2,167.6,363.8,169z M366.6,162.1
			c0-2.6-0.4-6.1,2.8-7C369.4,157.7,369.8,161.2,366.6,162.1z"/>
		<path d="M256.2,265.6c-0.5-6.3-7.5-5.2-12.2-4.5c-12.3,1.9-24.8,9.8-12.1,21.3c5.3,2.4,12.9-5.7,16.7-8.3
			C251.8,271.9,256.9,274.3,256.2,265.6z M244.3,268.4c-1.8,1.1-2.3,5-6,6.7c-1.7,0.7-5.9,0.4-6.5-0.4c-2.7-3.6,14.7-11.4,18.1-9.7
			C250.9,269.5,246.9,266.9,244.3,268.4L244.3,268.4L244.3,268.4z"/>
		<path d="M109.5,232.9l4.9-1.3c1.9-2.9-1.4-9.5,3.4-11.2l-1.4,18.1h7c1.3-5.8-1.3-12.1-1.4-17.4c0-4.7,3.5-10.4-0.2-15.8
			c-13.8-0.7-9.4,3.6-10.1,11.4C111.3,222.1,110.2,227.6,109.5,232.9L109.5,232.9L109.5,232.9z M119.2,209.3
			c0.9,0.9-0.6,5.5-2.1,5.5C113,214.8,116.7,206.6,119.2,209.3z"/>
		<path d="M322,272.6c0.4-4.5,1.2-6.8,1.5-12.5c0.2-2.5,2.5-8.8,1.3-10.3c-0.4-0.5-4.9-2.2-5.3,0.8v13.6c-0.5,1.3-4.2,0.7-6.4,3.7
			c-1.6,2.3-7.5,14.8-4.9,16.6c8,1.4,4.9-9.3,9.7-12.5l1.3,14.5l4.3,0.8C324.5,282.4,321.5,277.3,322,272.6L322,272.6L322,272.6z"/>
		<path d="M418.7,358.8c-9.1,2.7-3.6,18.3,7.4,13C433.5,368.2,428.3,355.9,418.7,358.8z"/>
		<path d="M141.7,213.8c-2.7,4.8,0.2,18.5,8.7,10.8C166,210.7,145.5,207,141.7,213.8z M147.7,217.7c2.6-1.7,1.7-3.3,4.8-2.8
			l-6.9,6.9l0,0"/>
		<path d="M431.9,232l-6-1.9c-6.2,3.1-6.7,9.5-3.1,15.1c6.1,6.2,14.3-7.5,9.1-13.3l0,0V232z M425,241.1V239l4.1-3.5
			C429.6,238.8,428.5,241.4,425,241.1z"/>
		<path d="M411.1,271c1-8.9,6.5-20.6,1.4-27.8c-2.3-3.2-5-4.8-7.8-4.8c2.5-4.6,1.5-13.1-4.9-12.3c-5.9,2.4-6.6,12.8-1.5,14.9
			c-0.3,0.3-0.7,0.6-1,0.9c-7.7,7.2,1.1,11.4,1.4,16.6c0.3,4.2-2.5,8.2-2.9,12.5c-0.4,3.4-1,20.1,3.5,20.1l6.2-8.3l2.1,6.9
			C413.1,290.8,410.6,274.8,411.1,271L411.1,271L411.1,271z M407,272.2c-0.4,1.5-3.2,0.7-4.3,1.5c-2.2,1.7-0.2,5.1-2.8,4.9
			c-0.6-7,5.9-16.2,5.2-22.8c-0.5-3.9-5.3-5.3-5.2-9.2h8.3l-1.3,25.6H407L407,272.2z"/>
		<path d="M300,103.8c-1.5,4.1-3,9.1,0.4,12.5C307.8,122.5,316.7,101.6,300,103.8z"/>
		<path d="M337.3,282.4c7,1.4,10.2-11.6,2.5-11.6S330.9,281.1,337.3,282.4z"/>
	</g>
</g>
<g id="text" class="st0">
	<g>
		<g>
			<text transform="matrix(1 0 0 1 1146.2845 495.0083)" class="st1 st2 st3">DOHLÁŠKY</text>
		</g>
	</g>
	<g>
		<g>
			<text transform="matrix(1 0 0 1 591.3845 465.0083)" class="st1 st2 st3">PŘIHLÁŠKY</text>
		</g>
	</g>
	<g>
		<g>
			<text transform="matrix(1 0 0 1 409.1844 -44.4917)" class="st1 st2 st3">KORIDOR III.</text>
		</g>
	</g>
	<g>
		<g>
			<text transform="matrix(1 0 0 1 713.2845 -284.7917)" class="st1 st2 st3">START</text>
		</g>
	</g>
	<g>
		<g>
			<text transform="matrix(1 0 0 1 493.6844 10.4084)" class="st1 st2 st3">KORIDOR II.</text>
		</g>
	</g>
	<g>
		<g>
			<text transform="matrix(1 0 0 1 570.7845 71.6084)" class="st1 st2 st3">KORIDOR I.</text>
		</g>
	</g>
	<g>
		<g>
			<text transform="matrix(1 0 0 1 -808.9155 90.5083)" class="st1 st2 st3">SBĚRKA</text>
		</g>
	</g>
	<g>
		<g>
			<text transform="matrix(1 0 0 1 -488.6155 353.7084)" class="st1 st2 st3">CÍL</text>
		</g>
	</g>
	<g>
		<g>
			<text transform="matrix(1 0 0 1 -397.4155 -452.3916)" class="st1 st2 st3">RADIO 2</text>
		</g>
	</g>
	<g>
		<g>
			<text transform="matrix(1 0 0 1 36.1844 -227.9917)" class="st1 st2 st3">RADIO 1</text>
		</g>
	</g>
	<g>
		<g>
			<text transform="matrix(1 0 0 1 -226.1155 783.2084)" class="st1 st2 st3">VYČÍTÁNÍ ČIPŮ</text>
		</g>
	</g>
	<g>
		<g>
			<text transform="matrix(1 0 0 1 -66.1155 451.7084)" class="st1 st2 st3">CENTRUM IT</text>
		</g>
	</g>
	<g>
		<g>
			<text transform="matrix(1 0 0 1 232.7845 951.2084)" class="st1 st2 st3">VÝSLEDKY</text>
		</g>
		<g>
			<text transform="matrix(1 0 0 1 116.6844 1011.2084)" class="st1 st2 st3">MY RESULTS BOARD</text>
		</g>
	</g>
</g>
</svg>
