<?xml version="1.0" encoding="utf-8"?>
<!-- Generator: Adobe Illustrator 23.0.1, SVG Export Plug-In . SVG Version: 6.00 Build 0)  -->
<svg version="1.1" id="Layer_1" xmlns="http://www.w3.org/2000/svg" xmlns:xlink="http://www.w3.org/1999/xlink" x="0px" y="0px"
	 viewBox="0 0 2365.4 626.2" style="enable-background:new 0 0 2365.4 626.2;" xml:space="preserve">
<style type="text/css">
	.st0{display:none;}
	.st1{display:inline;fill:#FF0000;}
	.st2{font-family:'Arial-BoldMT';}
	.st3{font-size:50px;}
</style>
<g id="design">
	<g>
		<path d="M709.2,603.5l4.1-6.4c0.4-1.6-1.3-3-2.7-3.4c-2.9,3.8-5.4,5.3-8.2,8.2l0,0c0.3,6.6,3.7,3.7,6.9,1.5l0,0L709.2,603.5z"/>
		<path d="M685.5,562.5c0-0.9-2.9-2.7-4.1-2.1c-5.2,10.3-14.4,17.5-22.2,25.7l5.5,2.1C664.2,581.9,685.8,565.7,685.5,562.5z"/>
		<path d="M836.9,336.9c-2.8,1.3-19.3,9.7-19.9,10.7c-4.9,7.9,12,4.2,11.8,7.7c-2.3,3.4-12.2,9.7-11,13.7c0.8,2.6,5.2,2.5,6.5,4
			c1.7,2,1.2,7.2,6.7,8l10.3-7.7c-3.6-4.8-8.7,0.8-12.5,2.1c-2.7-3.3,16.8-13.5,20.3-13.9c14.9-1.8,23.4,15.5,38.1,13.9
			c-2,4.4-13.7,7.2-13.4,11.8c0.6,8.1,17.7,4.6,20,12.8c0.3,0.9,0.3,13.7,0,14.7c-0.9,3.2-6.8,5.3-6.8,8.7
			c14.1,14.8,3.5,18.4-5.6,30.7c2.5,7.5,7.6,12.5,7.9,21c0.2,4.9-3.1,21.3-7.1,24.3c-2.7,2-8.7-1.9-14.6,2c-3,2-7.3,8.8-2.9,11
			c-2.2,3.5-3.8,1.1-6.9,0.7c0-4.4,12.5-19,12.5-20.1s-1.7-2.3-3.5-0.7c-4.3,3.9-6.7,11.3-10,15c-1.2,1.4-3.1,3.2-4.6,1.7
			c-3.3-3.2,12.2-18.5,13.4-21.8c1.1-2.9-1.6-13.7-6.5-11.6l4.2-5.5c-4-3.1-16.6,12.1-19.4,14.6l6.2,6.2l9.8-9.7
			c1.5,4-7,8.2-8.4,12.5c-0.5,1.6,2,2.8,1.9,4.6c-0.4,6.6-12.4,13.1,3,21.1c-3.2,5.6-6.3,11.3-9.7,16.7c-1.6,2.6-9.2,11.7-9.3,12.4
			c-0.3,1.4,1.1,5,3.8,2.8c7.5-6.1,12-27.4,22.2-32.7c-2.2,5.7-5.9,11.3-9.1,16.6c-1,1.6-13.5,16.9-6.8,16.8l28.5-48.6l6.9,2.1
			c-4.6,3.9-30.4,41.3-27.8,43.8l4-0.2c4.6-12.7,11.9-23.1,19.7-33.8c1.5-2,8.3-8.5,9.5-10.2c-5.5,8.6-17.6,25.7-21,33.5
			c-2.6,6.1-0.3,6,5.8,6.5c5.9-10,12.5-24.2,22.2-30.7l0.2-3.3l-4.1-2.8c3.1-2.8,4.7-6.2,4.2-10.4c-3.3-0.2-5.4,4.5-6.9,6.9
			c0.3-0.7,3.9-13.5,4-14.7c1.7-12.3,0.2-25.4-6.3-36c0-3.5,7.1-8,9-11.3c7.5-12.6-3-17-2.4-20.5c0.3-1.8,4.4-3.5,5.1-6
			c0.8-2.7,0.6-10.5,0.3-13.6c-1.5-12.6-7.4-10.5-16.7-14c-1.2-0.4-3.9-0.4-2.8-2.7c1.2-2.4,26.4-12.8,10.5-14.7
			c-15-1.8-14.4-6.2-26.7-10.9c-6.4-2.4-9.9-4.2-17.2-2.3c-1.8,0.5-23.7,15-23.6,9.7l12.5-15.2l-12.5-4.9c10-6.6,44.8-15.2,49-25.4
			c5.1-12.5-7.6-16.1-12.9-23.9c-1-1.4-1-2.6-0.4-3.7h-5.4c-0.6,1-0.8,2-0.5,3c4.5,7.3,20.1,13.2,15.4,23.6
			c-2.8,6.1-23.2,12.4-30.1,15.7L836.9,336.9L836.9,336.9z"/>
		<path d="M254.6,595.2c-1.5,1.4-4.9,1-5.5,1.4c-1.2,0.7-3.8,6-2.8,6.9C251.1,604,255.1,599.7,254.6,595.2L254.6,595.2L254.6,595.2z
			"/>
		<path d="M418.4,313.9c-1.9-6.1-19.9-7.2-25.5-9.2c-9.2-3.3-16.6-11.2-28.4-8.4c3.9-4.6,7.5-10,6.8-16.5
			c-12.6-2.1-26.2-9.3-38.8-5.7c-3.8-16.6-21.6-4.5-22.3,7c5-0.6,9-12,14.4-10.9c7.9,1.7-3.8,9.8,1.6,10.9c3.9,0.3,6.6-3.1,10-3.9
			c10.6-2.3,20.3,4.9,31,5.3c1.4,5.1-12.5,15.4-9.7,18c7,0.4,14.9-1,21.5,1.4c4,1.5,5.6,4.8,10.1,6.6c5.3,2.1,21.1,3.5,24.1,6.5
			c6.6,6.5-7.1,19.6-7,25.1c0,3.3,6.3,5.7,5.3,10.7c-0.4,2.1-8.2,11.1-10.2,12.3c-2.2,1.4-4.2-0.2-5.5,1.2c-2.6,2.6-7,12.8-9.8,16.7
			c-1.1,1.4-8.8,11-10.3,9.8c1.2-11.3,13.3-19.5,19.5-28.5c0.8-1.2,1.9-1.4,1.4-3.5c-4.2,1.2-8.9,0.7-9.8-4.1h-2
			c-7.2,8.4-12.8,17.9-21.6,24.9c-0.4-4.1-3.4-7.6-1.3-11.6c0.9-1.7,10.5-13.7,12.4-12c-1.3,5.3-17.8,15.6-7,18.1l15.3-23.6
			c-12.6-2.2-14,8.5-23.6,12.5l15.3-16c0.6-3.4-2.5-2.3-4.2-1.4c-4.3,2.5-8.8,10.7-13.9,13.2c1.9-7.4,9.1-12,13.9-17.4
			c1.2-2.5-5.2-3.4-6.4-3.4c-2.4,0-10.9,12.5-14.5,14.6l4.2,4.8c-4.1,0.4-7.2-1.9-9.7-4.9l16.3-16.6c-2-1.2-1.7-7.4-4.5-6.3
			c-2.3,0.9-10.9,13.2-13.2,11.1l-1.4-6.9c3.3,4.3,12.3-8.4,12.6-10.5c0.4-2.5-4.3-4-6.1-4.7L341,324l6.9-12.5
			c-3.3-3.2-11.4,9.5-11.1,12.5c-7.1-5.1-12.3-5.9-19.9-1.2c-11.8,7.3-7.3,19.7-10.8,30.9c-2.3,3.7-7,1-10.4,3.5
			c-3.4,2.4-7.3,15.6-9.6,18.2c-2.3,2.7-7.5-0.7-9.8,9.6c-3.1,13.6,4.2,23.5,8.2,35.1c1.3,3.9-0.2,9.4,3.7,10.9
			c3-12.5-6.3-20.7-8-33c-0.6-4.5-1.5-13.4,2.5-16.3c1.9-1.3,5.3-1.2,6.6-2.5c1.5-1.5,5.8-16.5,7.5-17.5c2.9-1.8,7.2,1.5,12-5.3
			c6.4-9.2-1.6-25,13.1-31.4c17.3-7.5,15.6,24.8,19.3,31.5c3.2,5.7,9.8,3.7,13.2,7.7c3.1,3.6,2,13.5,6.9,19.5
			c3.1,3.8,9.3,3.9,10.2,6.5c3.4,9.7-14.7,32.9-13.6,37.2c1.3,5.3,11.1-0.2,14.5-0.6c4.7-0.6,9.2,0.1,13.7,1.7
			c4.7,1.7,26.2,19.3,25.8,22.4c-0.2,1.6-2.4,3.4-2.6,5.9s1.6,4.8,1.1,7.9c-1.2,8.1-17.5,15.3,1.6,20.5l-2.8-8.9
			c5.8-9.6,5.7-19.1,6.3-30c-5.3-1.5-7.6-9.1-9.5-10.7c-6.6-5.7-16.9-10.3-25.4-12.9c-2-0.6-2.5,0.8-2-2.8c7,3.5,5.3-6.1,11.1-8.3
			c0.8,3-2.9,5.1-3.5,7c-0.6,1.8,1.2,3.1,2.8,2.7c1.5-0.4,5.9-13,8-14.9c2-1.9,7.4-1.5,9.9-3c1.5-0.9,5.2-18.7,5-21.5
			c-0.6-8.7-8.9-9-8.4-14s14.3-11.2,12.4-20.6c-0.6-3-4.2-4.7-4-8.5c0.4-6.7,10-14.1,6.7-24.9L418.4,313.9L418.4,313.9z
			 M389.4,361.6c0.5,2.8-10.3,14.7-11.1,13.9C377.1,374.2,388.7,360.8,389.4,361.6z M378.3,395c-0.9,1.4-3.4,8.6-4.2,6.9
			C373.7,398.5,374.1,394.6,378.3,395z M407.5,388c-5,1.4-2.2-5.3-4-6.3c-2.1-1.1-5.1-1.2-7.1,0c-7.1,12.4-18.7,23.2-26.5,34.7
			c-2.2,3.3-0.5,9-6.9,7.7c3.4-3.5,5.9-12.9,8.2-15.7c1.2-1.4,3.5-1,4.9-2.3c3.7-3.6,9.7-16.7,14.1-22.1c1.3-1.6,7.7-8.7,8.9-9.2
			c4.2-1.9,10.4,9,8.4,13.3l0,0V388z"/>
		<path d="M2327.2,409.5c-3.9,2.8-8.6,13.7-11.6,13.2c-3.8-2-4.2-7.2-7-9.7c-4.2-3.7-13-2.7-9.9-12.6l5-1.3c-0.7-8-4.3-6.7-9-1.6
			l-10.4-5.4c6-5.8,0.4-15.2,1.6-19.8c0.9-3.5,6.8-4.8,8.5-8.3c2.4-4.9,0.8-10.4,1.9-14.6c1.6-6.1,7.1-13.7,7.9-20.8
			c6.8-5.3,13-6.7,21.6-6.1c3.8-10.1,1-24.5,15.2-26c3.1-0.3,6.1,1.5,7.9,1.1c2.4-0.5,3.2-4.4-0.1-5.4c-4.5-1.3-16.2,3-19.3,6.7
			c-4.3,5.1-3.6,14.7-7.5,20.3c-7,1-17.2,2.7-23.6,5.6c-2.6,1.2-25.9,19.2-26.5,20.8c-1,2.5,1.6,2.5,3.3,1.9
			c3.6-1.5,6.2-8.9,10.6-7.4c-5.5,5.1-10.4,11-16,16s-9.9,3.1-7,8.3c9.4-5.8,16.8-15.5,25-22.2c1.6-1.3,4.8-1.5,5.7-2.7
			c1.1-1.6-1.7-7.5,4.1-9.7c3.3-0.7,2.2,2.7,1.7,4.5c-0.6,2.3-3.8,10.1-5.2,11.5c-1.8,1.8-4.7,1.9-6.3,3.4
			c-3.2,2.8-22.3,18.8-22.9,20.2c-0.7,1.6,0.4,2.8,2.1,2.1c3.7-1.6,10.3-10.3,14.7-13.1c1.4-0.9,7.7-4.4,9-4.9
			c5.1-2,0.4,14.1-3.5,11.1l-0.7-5.5l-22.5,19.8l-1.8,6.5l4.2-0.7l-6.9,7.6c6.4,1.2,17.3-16.9,21.5-16.6l3.3,9.5
			c-9.4,5.1-14,15.1-23.4,20.4c-0.1,1.7,2.3,2.4,4.9,0.7c1.8-1.2,13.7-14.7,14.6-13.9c6.5,8.5-17.7,20.1-18.1,21.6l2.1,3.4l4.9-2.8
			l2.1,4.2c4.7-4.1,8.6-9.2,13.1-13.3c2.8-2.5,6.9-0.7,5.6-6.2l4.1,3.6c0.6,2.4-26.3,23.1-26.3,24.9s2.9,3.3,4.2,1.4l17.4-17.4
			c1.8-0.1,1.7,1.6,0.7,3.4c-2.5,4.2-17.1,16.5-13.9,20.2c3.1,0.7,3.1-1.8,4.4-3.2c2.9-3,14.1-20.5,17.8-17.6
			c-6.7,8.9-12.9,19.2-21.5,26.4c-1.8,1.5-4.9,1.7-6.4,3.4c-1.7,2,0.2,4.3-0.4,6.4c-0.6,2.1-3.6,4-3.6,6.3c0,5.4,15.1,7.6,19.5,4.8
			c2,3.5-2.6,10.8-2.5,11.8c0.2,2.1,4.4,2.8,4.9,3.8c1.2,2-0.2,6.6,2.1,9.1c5.5,5.8,19.7-10.2,21.9-8l-5.5,9c2.9,4.1,4,0.9,6.9-0.7
			c-0.5,3.1-1.9,5.2,0.4,7.9c8.4,9.7,27.8,6.2,31.6-6.5c2.3-0.2,0.7,5.4,4.2,2.1c3.9-3.7,8-17.5,15.3-20.9l-2.1-3.4l-3.3,0.2
			c-2.7,3.1-11,21.4-14.7,20.6c-2.5-0.5-1.5-2.1-1-3.7c0.8-2.4,9.7-17.4,11.3-19c2.1-2.2,5.5,1.1,4.3-5.1
			c-8.1,0.6-14.5,4.5-22.2,4.8c-2.5,3.5-19.4,24.5-16.7,27.2c4.1,4.1,8-9.3,9.1-11c2.8-4.4,6.2-8.6,9.7-12.6
			c2,5.2-13.8,18.3-10.4,22.2c2.5,0.5,3.5-1.2,4.7-2.9c4.5-6.2,7.4-15.6,14.1-20.7c1.3,5.7-7.2,12.8-8.5,18.1
			c-1.1,4.6,3,7.5-4.4,10.7c-13.9,6.1-24.3-5.8-15.6-18.4c1.8-2.7,13.8-10.5,11.1-13.2c-4.3-4.3-12.3,15.1-18.1,12.5l12.5-18.1
			c-3.5-1.6-6.5,3.9-7.6,3.9s-2.2-2.7-5.3-2.3c-3.3,0.4-13.3,11.9-15.7,15.1c-3.8,5.2-1.7,8.3,2.6,3.9c4.3-4.4,8.3-15.1,16.3-14.3
			c-5.8,7.5-11.8,18.6-22.2,18.8c2.1-4.5-2.8-9.7-2.8-11.9c-0.1-3.6,3.2-2.7,4.2-3.4c0-1.1,0.3-3.6-0.2-4.1l-3.9-0.2v-5.5
			c-0.1,0-7.1,0.7-7.1,0.7l22.9-29.9c2.2,1.2-0.5,3.1-1.2,4.3c-4.1,6.3-10.6,12.8-14.1,19.3c-1.1,2.1-1,3.7,1.4,2.8
			c2.1-0.9,12.1-17.6,15.3-20.9c5.5-5.7,11-8.9,17.5-15.9c12.2-13.1,10-5.7,21-0.2c11.8,6,12.5-3.1,10.3-3.3
			c-14.4,4.1-14.8-14.9-28.5-4.9L2327.2,409.5L2327.2,409.5z M2270.3,379.7c1-4.4,6.8-10.2,11.1-11.1L2270.3,379.7z M2282.8,450.6
			c3-7.9,10.7-14.9,16.7-20.9C2297,438.1,2289.4,445.2,2282.8,450.6z M2307.8,424.2c-4.5,0.9-1.6-5.3-7-2.1l-22.2,25.4l-1.4,4.5h4.2
			l-1.4,8.4l-9.7-2.8c3.1-4,4.8-7.2,4.2-12.5c1.6-0.2,3.8,0.5,5.2-0.3c1.1-0.6,11.3-16.6,14.2-19.8c2.6-2.9,5.6-5.5,8.3-8.4
			c3.9-2.1,5.9,4.9,5.6,7.7l0,0L2307.8,424.2z"/>
		<path d="M2294.6,472.8c0.8,0,9.8-11.8,9-12.5c-5.6-1-6.4,4.4-9.7,6.9C2293.9,468,2291.6,473.1,2294.6,472.8L2294.6,472.8
			L2294.6,472.8z"/>
		<path d="M178,39.3c-2.8-0.9-5.2,0-7.8,0.9c-10.8,3.5-28.8,23.9-37.4,32.8c-2.1,2.2-8.2,11.2-9.7,11.9c-4.2,1.8-4-4.5-7.5-6.1
			c-7.9-3.6-22.6,3.5-29.1,8.4c-5.7,4.4-24.6,24.4-9.9,25.6c-2.7-6,0.5-9.9,4.2-14.6C88.2,89,100.2,82.9,112,82c4,0.4,3.5,9,9.5,8.2
			c18.7-13.5,30.6-37.5,52.3-46.9c2.2,3-5.8,19.8-8.1,23.2c-2.2,3.3-9.9,8.8-10,9.5c-0.7,3.4,4,4.1,6.9,2.7
			c6.4-2.9,12.8-9.4,20.9-12.5c6.7-2.6,30.3-8.7,36.5-7.4c9.9,2.1,4.2,21.2,22.4,19.1c4-0.5,16.5-5.9,19.7-1.4
			c3.6,5.2-4,22.2-3.5,28.5c0.3,3.6,4.5,8.2,2.7,13.3c8.6,2.5,9.4-14,17.3-14s8.6,6.8,12.7,9.7c9.5,6.6,21.3-1.8,30.7-3.7
			c27.7-5.5,60.1,4.3,86.6,12.2c0.7,1-3.9,10.6-4.1,13.4c-0.3,4.3,1.9,8.5,1.4,13.8c-0.5,4.7-5.4,11-4.1,15c2.2,7,12.4-1.5,17.9,1.6
			c3,1.7-6.8,7.9-0.7,9c2.2,0.4,5.4-6.1,10.4-2.8c-3.4-7.2,1.8-9.2,6.3-13.9l9.1,7.7c12.7-4.3,12.6-19.5,28.1-18.5
			c7.7,0.5,12.3,6.6,17.3,7.7c4.2,0.9,8.9-1,12.3,1.6c2.7,3.8-6.3,17.7-1.4,26.4c6.5,11.6,15.6-2.8,22.2-4
			c7.9-1.5,19.8,0.7,28.4-1.4c2,1.9-8.7,15.3-0.8,15.2c4.6,0,3.1-3.6,7.8,2.8l4.2-16.7c-5.3-1.5-4.3,4.1-8.3,5.6
			c9.4-18.5-12.1-10.8-23-9.7c-2.7,0.3-5.6-1.1-7.7-0.7c-5.7,1.1-19.9,18.4-20.6,1.3c-0.2-5.6,6.4-16.6,2.8-20.9
			c-3.7-2.8-8.5-1.8-13.4-3.3c-10.3-3-18.4-13.7-31.7-6.8c-5.2,2.7-10.5,20.9-17.6,15.9c-2.9-2-1-9.8-4.8-9.2
			c-4.4,0.7-11.5,12-13.9,12.2c-0.8,0-4.2-2.2-7-2.5c-4.3-0.4-7.7,1.2-11.8,1.5c0.6-5.1,3.9-9.5,4.2-14.6c0.3-4.9-1.8-8.9-1.2-13.5
			c0.7-4.9,9.3-15.2,1.5-17.5c-2.4-0.7-5.3,0-7.7-0.6c-19.2-5.6-48.5-13.8-68.3-12c-10.1,0.9-28.4,8.9-36.2,8.2
			c-9-0.8-10.6-18.5-25-10.9c-4.1,2.2-4.5,7.8-9.2,8.2c-5.4-9.4,8.5-31.2-0.6-37.6c-7.1-5-19.1,3.4-27.3,0.9
			c-8.8-2.7-3.4-18.4-18.8-18.9c-6.2-0.2-27.3,5.5-34,7.7c-5.3,1.8-8.9,4.3-13.9,6.3c-1.5-1.5,14.2-23.5,8.2-29L178,39.3L178,39.3z"
			/>
		<path d="M442.3,236.5l11.1-10.5c2.8-4.6,7.7-7.8,7-13.9c-4.6-3.2-5.3,4.1-9,6.2c-2.8,0-0.3-13.6-8.5-17.9
			c-5.3-2.8-17.8,0.5-22.7,3.3c-2.5,1.5-4.7,6.9-8.5,9.6c-12.5,8.7-20.2,4.3-22.3-10.1c-6.5-1.9-10.7,2.8-16.5,4l1.3-6.4l-2.2-3.2
			c-21.6,1.6-32.4,12.5-47.1,26.3c-2,1.9-7.7,2.1,0,5.5l17.4-16.7l-6.8,12.1l4,3.2c0.6-8.9,7-12,12.1-17.1s0.2-6.6,6-5.1
			c0.9,0.7-13.2,14.8-13.9,18.7c-0.4,2.1,0,2.4,2.1,2.1l14.6-16.7c2.4,2.6-18.2,18.1-7.1,19.4l-2.6,3.5c3,9.3,9.5-5.7,12-8.9
			c3-3.8,6.3-8.5,10.3-11.2l-15.4,23l4.9,6.2l9-9.7l-5.5,10.4l4.1,2.1l-2.8,8.3l4.2-0.9c3-9.9,11.3-18.4,17.4-26.9
			c0,5.7-5.2,10.2-6.2,16.1c-0.5,2.8-1.1,5.6,2.7,4.8l11.2-25l2.7,0.7c-2,5.3-9,12.9-9.7,18.1c-0.5,3.6,2.5,1.8,4.2,2.1
			c0-5,7.6-18.6,11.1-21.6c1-0.8,2.4-1.4,2.8,0l-6.9,14.6h4.1c0-5.5,3.9-9.4,6.4-13.9c1.4-2.7-0.8-6,4.8-6.9l0.7,5.5
			c3.2-7.3,15.2-20.6,23.7-16.8c9.2,4,0.2,17.4,10.4,19.6c1,1.3-10.1,10.3-8.3,13.9L442.3,236.5L442.3,236.5z M353.5,229.1
			c2.7-7.9,9.1-14.9,15.1-20.4L353.5,229.1z M363.1,207.3l-1.4-4.1l8.3-1.4L363.1,207.3z M379.7,212.9l-8.3,11.1
			C370.7,221.4,379,212.1,379.7,212.9L379.7,212.9L379.7,212.9z M372.7,243.5c-2.9,0.2-0.9-3.9-0.3-5.2c2.6-5.3,8.4-13,12.8-17.1
			l-12.5,22.2l0,0V243.5z M381.1,211.5v-4.2l3.5-1.4l2.1,2.7l-5.5,2.8L381.1,211.5L381.1,211.5z M392.2,222.6
			c-0.6,1.3-3.5-4.4-4.2-5.5C391.6,216.7,392.6,219.5,392.2,222.6z"/>
		<path d="M576.9,197.1l-1.1-1.7c-17.9,0.6-29.6,16.6-41.1,28.6c-2.4-3.2-1.6-11-6.9-11.1c-3.3-0.4-12.9,8.4-10.5,11.1l10.4-5.6
			c3.6,1-0.4,12,8.1,9.5c5.9-1.7,23.5-27.5,35.1-27.6c7.2,0-1.1,18,9.6,18.2c17.4,0.3,8.8-47.4,32.7-41.8
			c2.8,2.8-10.3,29.5,15.8,15.5c14.1,8.8,6.1,24.1,2.2,36.6c0.8,5.8,7.2,3.9,10.6,7.6c7.9,8.6-12.2,10.7-13.2,14.9
			c3.1,10.9,13.5,12.1,9,25.7c-1,3-11.8,8.5,0,11c7.2-13.1,7.1-25.2-3.5-36.1c16.8-3.4,19.3-20.4,1.4-23.7
			c5.1-15.6,11.2-30.2-5.2-41.5l-12.9,5.4l-0.6-18.2c-26.4-9.3-23.8,25.1-32.9,40.2C574.9,215,577.6,203.3,576.9,197.1L576.9,197.1
			L576.9,197.1z"/>
		<path d="M2295.7,215.9c10.4,6.7,23.6,5.2,28.7,18.6l7-0.8c1.6-1.9-5.5-9.3-7-10.3c-5.5-3.8-20.7-7.6-23.2-9.5
			c-0.7-0.6-0.9-2.3-1.7-3.1l-20.1,7.8c-5.6-11-13.8,1.8-20.4,6.1c-7.5,4.9-16.7,8-22.8,14.7l-2.9-4.1c-9.2-1.7-7,5.3-9.2,7.9
			c-1.2,1.4-8,2.4-10.7,3.9c-7.4,4.3-7.1,17.6-8.4,25.6c7.7-1.6,4.5-17.6,9.8-21.5c4.6-3.4,17.3-2.7,15.3-11.9l4.8,9.7
			c5.2-2.4,5.1-7.2,9.7-11.1c7.7-6.4,19.6-11.2,27-18.9c8.6,8,14.9-1.3,24.2-3h-0.1L2295.7,215.9z"/>
		<path d="M743.9,112.8c4.9-0.4,4.8-5.2,10.4-5.7c6-0.5,16.4,2.7,22.9,2.9c1.4,1.5-7.9,9.6-2,11.1c2.7,0.7,10.1-4.5,14.2-5.2
			c16.5-2.9,10.7,4.2,18.1,10.8c3.8,3.4,9.3,3.3,11.4,4.9c2.9,2.1,3.7,11.9,13.9,9v12.5l-5.5-1.4l-1.1,4.7
			c10.5,12.6,16.7-15.5,9.4-19.2c-2.6-1.3-6.8-0.7-9.5-2.3l-0.3-6.6c-4.6-1.8-10-1.4-14.2-4.6c-4.5-3.3-4.3-10.1-9.2-11.7
			c-7-2.4-14.3,0.3-20.9,2.2c-0.5-0.5,1.3-3.3,1.1-4.7c-1-5.9-42.4-13.4-38.6,3.3H743.9L743.9,112.8z"/>
		<path d="M840.4,236.7c-12.4-12.8-31.2-9.2-46.9-5.9c-5.3-1.5-4.2-22.9-25-9.3c-4.8,3.1-15.4,16.3-4.4,13.7
			c0.8-0.2,3.8-10.5,11.4-12.2c12.3-2.8,8.7,10,15.3,12c18.7-2.1,42.5-8.5,51.8,13.4c0.2,6.9-13.3,11.4-12.4,15.3l8.3,4.2l-2.8,8.3
			c1.2,2.4,4,1.9,5.3,0.4c3.8-4.4,2.9-12.6-2.4-15.7C848.6,252.6,849.8,246.3,840.4,236.7L840.4,236.7L840.4,236.7z"/>
		<path d="M2085.3,252.5c5.8-3.4,4.3,6.6,11.2,4.9c-0.1-8.1-7.5-13-14.5-8.2c-6.8,4.6-0.1,30.8-19.7,33.2c-5.6,0.7-6.6-2.4-9.7-2.8
			c-6.5-0.7-21.1,14.6-20.1,22.2c-8.3-7.9-13.6,3.5-15.3,11.1c4.3,0.4,5.3-7.4,9.2-8.1c2.2-0.4,4.2,2.8,6.1,2
			c3.1-1.4,5.1-11.1,7.7-14.6c1.1-1.5,7.6-7.2,9-7.8c3.8-1.7,5.2,2.4,10.2,2.1c4-0.3,13.5-4.6,16.2-7.6c6.5-6.9,4.1-23.2,9.6-26.5
			L2085.3,252.5L2085.3,252.5z"/>
		<path d="M183.1,369.9c4.1,4.6,16.4,3.7,22.2,5.6l11.8-1.4c-6.5-1.2-26.8-1.2-30.7-6.1c-5.3-6.7,13-21.5,5.5-34.7
			c-4.8-8.4-17.8-5-22.9-9.1c-3-2.4-2.8-8.8-4.5-12.2c-2.7-5.6-12.2-10.3-18.4-10.1c0,6.3,6.3,4.7,9.7,6.3c8,3.8,5.5,13.7,9.9,17.9
			c8.5,8.1,27.9-1.6,23.2,20.6C187.4,353.7,176.7,362.8,183.1,369.9L183.1,369.9L183.1,369.9z"/>
		<path d="M2315.4,281l18.8-31.9c2.6-0.3,1.2,2.9,0.7,4.2c-2.2,6.1-9,13.8-10.4,18.8c-1,3.4,3.5,1.9,5.4,2
			c-1.2-8.4,10.7-19.1,11-25.9c0.1-2.9-2.9-2.4-4.1-4.1c-1.1-1.7-1.1-5.8-1.3-6s-3.1-0.2-3.9,0.3c-1.3,0.8-16.6,24.1-16.8,25.6
			s1.2,3.8,2.7,2.7c3.2-5.2,5.8-10.8,9.2-15.9c1.2-1.8,3.9-6.4,6.1-6.4c-4.2,11.2-13.2,21.5-17.9,32.2c-1.1,2.4-2.5,2.4,0.5,4.6V281
			L2315.4,281z"/>
		<path d="M758.5,592.4l1.4,5.5l55.6-76.4c-0.2-10.7-9.8,3.7-11.8,6.9c-0.5,0.8-0.5,3-1.6,4.6C788.7,553.7,775.1,574,758.5,592.4
			L758.5,592.4L758.5,592.4z"/>
		<path d="M799.7,523.1l-44.7,61l5.3-0.2c10.7-18,24.7-36.8,38.6-52.5c1.4-1.6,4.6-2.6,4.7-2.9c1.4-3,0-7.5-4-5.4L799.7,523.1
			L799.7,523.1z"/>
		<path d="M2359.2,557.6c-2.9-0.6-3.2,1.5-4.5,3.2c-6.8,8.6-12.5,18-19.9,26.1l0.8,9.7c9.6,1.1,4.3-3.7,7.1-8.8
			c2.1-3.9,15.9-15.9,16.5-18.3c0.9-3.4-3.6-3.2-5.6-2.1c1.6-3.5,6.6-5,5.5-9.7l0,0L2359.2,557.6z"/>
		<path d="M1176.2,415.8c-1.3-1.4-4,2-4.9,2.8c-7,5.8-13.2,14.1-20.1,20.2c-0.6,3.4,2.6,2.3,4.2,1.4c1-0.6,11.4-13,12.5-11.8
			c0,4.4-15,18.3-12.5,20.8l4-1.1l2.3,2.5l4.9-4.2c-2,3.2,0,7.9,3.4,4.1c1.9-2.1,9-14,7-16.6c-4.5-3.6-9.1,6.4-12.6,8.3
			c-0.4-4.4,6.1-10.8,10.5-13.2c1.8-5.8-5.7-1.7-4.2-5.5C1171.4,421.6,1179.1,419.1,1176.2,415.8L1176.2,415.8L1176.2,415.8z"/>
		<path d="M527.8,282.4c1.4-2.1,5.7-6.9,7.6-9.1c1.5-1.7,4.9-2.8,5.5-4.2c1.5-3-4.6-1.2-4.5-4.4c-0.8-0.8-1.9-0.7-3-0.5
			c-1.2,0.2-15.2,12.1-16.8,13.9c-1.7,1.9-2.6,2.7-2.1,5.6c3,3,12.3-10.3,15.3-11.1l-9.6,13.4C525.5,294.9,525.4,286,527.8,282.4
			L527.8,282.4L527.8,282.4z"/>
		<path d="M2034.6,350.5c2.9-0.7,1.2-2.5,0.9-3.7c-0.4-1.9-4.7-13.9-8.6-10.2c2.4,3.8,1.6,15.3,7.6,13.9L2034.6,350.5L2034.6,350.5z
			"/>
		<path d="M2022.4,339.2c1.1,0.2,4.5-2.3,4.6-2.6c0.4-0.8-0.3-3,0-4.2c0.7-0.8,7.4,6.7,8.3,2.1c0.4-2.1-5.3-7.3-7.6-7.7
			c-3.3-1.1-2.8,5.1-3.5,5.6c-16.5-4.2-27.5,12.3-25.8,27.8l3.5,1.4c-2.5-12.6,7-32.4,20.4-22.4L2022.4,339.2L2022.4,339.2z"/>
		<path d="M227.5,464.5c4.2,0.6,4.5-6.3,5-6.7c1.2-1,5.3,0.6,6.6-0.4c0.3-0.3,1.6-5,3.2-7.2c2.7-3.7,6.4-6.6,9.5-10L249,434h-4.1
			c-5.6,8.9-11.6,17.6-17.4,26.4C226.7,461.7,223.9,464,227.5,464.5L227.5,464.5L227.5,464.5z"/>
		<path d="M246.9,427c-2.5-0.5-24.1,24.8-21.5,27.8c3,0.6,3.2-1.5,4.4-3.2c5.5-7.5,8.8-11.1,15.1-17.6c0.8-0.9,6.9-6,2.1-6.9
			L246.9,427L246.9,427z"/>
		<path d="M507.1,275.7c-1.2,1.2-4,3.6-2.3,5.3c3.2,3.2,20.5-17.8,25-18.1l-0.9-2.7c-3.5,1.7-7.7-4.2-8.1-4.2
			c-1.1,0-4.5,6.6-7.6,5.5l6.9-7.6c-0.2-1.4-2.6-0.2-3.8-1c-1.9-1.4-3.8-7.6-8.8-1.4c-3,3.7-2.1,9.7,1.4,7.3
			c0.3-0.2,1.5-6.8,5.6-5.5c-1.6,3.2-9.1,8.8-9.5,12c0,1,2.6,5.8,3.3,6.1c4.2,1.3,7-9.6,13.1-8.4C518,268.3,511.3,271.4,507.1,275.7
			L507.1,275.7L507.1,275.7z"/>
		<path d="M535.5,290.6l2.7-0.5l12.5-18.8c-10.3-4.4-18.9,9.3-20.8,18.1l4.8-1.5l0.9,2.7L535.5,290.6L535.5,290.6z"/>
		<path d="M546.5,290.7c0-4.3,7.4-11.1,9.7-14.6c1.2-1.8,1.5-3-0.7-3.5c-1.6-0.3-14,14.9-14.4,16.2
			C539.4,294.9,543.7,292.5,546.5,290.7z"/>
		<path d="M554.2,289.4l0.7,4.2h4c0-0.1,11.2-22.2,11.2-22.2c-11.1,2.3-14.8,13.6-23.6,19.5c0,7.3,5.7,3.1,7.7-1.4l0,0L554.2,289.4z
			"/>
		<path d="M511.7,579.1c6.3-10.5,15.9-20,21.7-29.8c0.7-1.2,3.4-4.2,2-5.6c-1.7-1.7-3.2,0-4.3,2c-6.8,11.7-22,26.4-26.5,37.4
			c-0.7,1.7-1.4,3.1,1,3.7c5.3,1.3,4.4-4.8,6.2-7.7L511.7,579.1L511.7,579.1z"/>
		<path d="M853.1,404.7c-0.7,0.2-10.2,8.4-10.6,9c-1.7,2.6,0.5,4.7-0.4,6.3c-1.3,2.1-8.9,3-2.9,8.3l15.4-12.4l-2.2-5.6
			C858.2,410.3,856.9,403.9,853.1,404.7L853.1,404.7L853.1,404.7z"/>
		<path d="M1157.1,367l-3.1-8.2c-2.6-2.2-17.3,12-16.7,15.8c0,0.4,4.4,1.7,2.8,5l13.2-9.7c1.8,1-10.5,10-4.2,9.7
			C1150.8,379.6,1170,363,1157.1,367L1157.1,367L1157.1,367z M1142.9,372.7c2.3-3,5.6-8,9.7-8.3
			C1150.3,367.4,1147,372.4,1142.9,372.7z"/>
		<path d="M853.7,445c0.9-1.3-0.9-3.3-2.1-4.1l-14.4,10l-0.2,10.8c4.9,0.6,7-4.1,10.6-6.7c3-2.2,7.3-1.7,7.4-5.1
			c0.3-6.8-10.2,3.9-12.5,3.5c0.2-3.9,10.7-7.8,11.1-8.4L853.7,445L853.7,445z"/>
		<path d="M579.9,284.5l-8.8-4.8c-5.9,5.8-10.9,12.7-5.8,20.7L579.9,284.5L579.9,284.5L579.9,284.5z"/>
		<path d="M846.8,479.1l12.5-13.2c-7.5-0.6-10.2,7.6-16.7,9.7v4.2L846.8,479.1z"/>
		<path d="M842.6,475.6c0.3-7,11.8-6.2,6.9-13.9h4c0-0.1,0.2-5.6,0.2-5.6c-2.1-2.2-15.3,9-17.5,11.1
			C838.5,471.6,836,476.3,842.6,475.6L842.6,475.6L842.6,475.6z"/>
		<path d="M2275.8,330.4c-1.2,1.9-1.2,3.4,0.7,3.4s10.4-9.2,13.3-10.4c2.3-0.9,4.7,1.7,7-1.3l1.3-11.9c-9.9-1.1-4.9,3.8-6.2,6.9
			c-1.4,3.3-12.7,8.2-16,13.2L2275.8,330.4L2275.8,330.4z"/>
		<path d="M2363.4,525.7c-3-0.6-3.2,1.5-4.4,3.2c-6.7,9.3-17,24.6-22.6,34.4c-1,1.8-2.7,3.1-2.2,5.4c2.9,0.6,3.2-1.5,4.4-3.2
			c4-5.5,8.2-11.5,12-17.2c2-3,14.3-21,12.7-22.7L2363.4,525.7L2363.4,525.7z"/>
		<path d="M2335.6,584c3.7-15.2,19.5-26.8,23.6-41.7l-27.7,38.4L2335.6,584L2335.6,584L2335.6,584z"/>
		<path d="M2337.2,557.2c5.4-8,9.6-19.2,15.8-27.3c3.1-4,7.7-6.8,10.3-11.2c-2.9-0.2-4.9,0.5-7,2.4c-3.7,3.4-11.9,17.1-14.9,22.2
			c-1.4,2.3-9.8,15.9-8.6,17.1C2335.7,561,2336,559,2337.2,557.2z"/>
		<path d="M856.5,397.1c-1-5.5-9,4.6-11.1,3.4l6.3-5.5l-1.4-2.8c-6.2-1.3-15.2,13.7-6.9,16.7C844.7,405.4,857.2,400.2,856.5,397.1
			L856.5,397.1L856.5,397.1z"/>
		<path d="M830.1,389.4c2.3-0.3,6.2,0.8,8.1-0.3c0.8-0.5,6.2-9.5,10-10.1l-2-3.3C841.2,375,826.3,385.4,830.1,389.4L830.1,389.4
			L830.1,389.4z"/>
		<path d="M835,449.2l22.9-18.8c-1.4-1.8-2.1-2.5-4.6-1.9c-1.2,0.3-19,15.4-19.7,16.4C832.1,447.2,833.6,447.8,835,449.2L835,449.2
			L835,449.2z"/>
		<path d="M1161,404.1c-1.4,1.4-14.8,9.8-9.8,12.5c2.3,1.2,17.9-18.3,21.9-19.8l1.7-4.6C1167.9,391.9,1165,400.1,1161,404.1
			L1161,404.1L1161,404.1z"/>
		<path d="M579.2,290.8c-4,4.6-14.9,10.8-7.7,17.4c2.7,2.4,2.3,0,3.2-1.1c2.4-3,3.3-7.4,7.8-8.2L579.2,290.8L579.2,290.8
			L579.2,290.8z"/>
		<path d="M1277,406.1c-5.8,8.6-15.4,16.3-20.9,25c-1.2,1.8-2.8,2.6-2,5.6c2.4,0.5,3.4-1.3,4.9-2.8c4.8-5,8.9-13.7,13.8-19.5
			c1.9-2.3,4.6-3.1,5.9-4.5C1281.3,407,1279.9,403.5,1277,406.1L1277,406.1L1277,406.1z"/>
		<path d="M1169.3,409.6c1.3-1.6,3.4-2.2,2.8-4.9c-6.2-0.3-8.1,6.2-11.1,9c-2.2,2-13.7,10.8-13.9,12.5c-0.2,2.6,4.3,1.1,5.5,0.7
			C1155,421.5,1164.7,415.1,1169.3,409.6L1169.3,409.6L1169.3,409.6z"/>
		<path d="M1152.6,427c-0.4,0.8-2.1,3.5-1.4,4.2c3.9,3.3,6.4-3.2,7.5-4.2c1.8-1.5,18.5-14.4,16.1-16.6c-9.4,1.3-13.3,13.5-22.2,16.7
			l0,0V427z"/>
		<path d="M2200.5,387.7c0.3-0.2,2.5-4.4,4.4-6c5.3-4.3,11-7.4,16.7-11.1c-2.1-2.9-2.5-1.9-5.1-1c-7.5,2.6-14.4,12.2-21.2,16.3
			C2193.9,388.7,2199.1,388.5,2200.5,387.7L2200.5,387.7L2200.5,387.7z"/>
		<path d="M582.7,333.1l-4.2-1.4l-13.9,18.8c5.5,0.5,7-4.9,11.1-8.3c2-3.4,3.1-6.4,6.9-9.1H582.7L582.7,333.1z"/>
		<path d="M574.7,362.6c2.7-4.4,11.1-12.3,10.8-15.6c-5.5-3-7.2,7.3-12.5,9c0.4-5.8,9.4-12,11.1-16c2.3-5.6-7.2,1.2-8.3,2.1
			c-3,5-4.9,10.7-9.7,14.6l5.5,2.1C566.6,362.9,571.8,367.2,574.7,362.6L574.7,362.6L574.7,362.6z"/>
		<path d="M2263.3,265.7l1.4,4.2c2,2.2,9-9.5,8.3-12.5l-5.6,5.5l-1.4-2.8c-2.9-2.3-9.5,9.5-8.3,12.5L2263.3,265.7L2263.3,265.7
			L2263.3,265.7z"/>
		<path d="M2328.6,237.9c-1.6-1.6-6.5,4.5-7.5,5.7c-5.2,6.3-11.5,16.1-14.7,23.5l6.1-5.7L2328.6,237.9L2328.6,237.9L2328.6,237.9z"
			/>
		<path d="M568.1,340.8l13.2-14.6l-2.1-3.4c-1.5,1.1-3.1,2.1-4.9,2.7c-0.3,0.5-0.4,2.1-1.3,3.5C570.7,332.5,562.1,335.9,568.1,340.8
			z"/>
		<path d="M580.6,317.1c3.8-7.9-5-8.2-8.3-1.3c-1.3,2.7-1.6,7.8-3.5,11.1c2.3,0.6,3.7-0.7,5.6-1.4c0.3-0.4,0.5-2.1,1.3-3.5
			C576.7,320.3,579.7,319,580.6,317.1L580.6,317.1L580.6,317.1z"/>
		<path d="M2198.4,409.9c5.6-5.2,8.2-7.4,14.4-11.9c1.7-1.3,3.9-1.4,3.2-4.4c-2.9-2.5-17.4,10.1-19.9,12.7
			C2191.8,410.7,2193.8,414.2,2198.4,409.9L2198.4,409.9L2198.4,409.9z"/>
		<path d="M1170,385.3c-1,0-13.2,12.2-15.1,14.1c-1.2,1.2-4,3.6-2.3,5.3c2.4,2.4,11.2-8.8,13-10.6c1.6-1.5,4.8-2.8,5.8-4.7
			c1.1-2.2-0.5-4.2-1.4-4.2l0,0V385.3z"/>
		<path d="M1168.6,381.1c1.2-2.4,0.3-2.6-1.4-4.2c-1,0-13.5,12.9-14.6,14.6c-1.2,1.8-1.5,3,0.7,3.5
			C1154.7,395.3,1167.7,382.8,1168.6,381.1z"/>
		<path d="M1135.2,365.8c-3.1,2.8-7.6,1.4-6.3,6.9c2.3,2.3,19.2-13.5,20.8-16.7c-6.7-1-10.1,5.7-14.6,9.7l0,0L1135.2,365.8z"/>
		<path d="M842.5,429c-1.4,1.1-3.5,1.3-4.5,2c-3.4,2.6-2,7,1.8,5c2.8-1.4,9.4-7.4,13.5-10.1c2-1.3,3-3.3,1.8-4.5
			C852.4,418.7,844.5,427.4,842.5,429z"/>
		<path d="M2148.2,386.5c-0.4-0.8,2.5-3.7-0.9-5.3c-4.6-0.3-10.9,15.6-4,12.7c1.5-0.6,6.4-3,7.5-3.7c3.4-2.3-2.2-2.9-2.5-3.7H2148.2
			z"/>
		<path d="M2304.3,260.1l16-25c-2.7-2.7-15.7,17.8-16.8,20.1C2302.3,257.8,2301.3,257.8,2304.3,260.1z"/>
		<path d="M575,372.7l16-23.6c-2.4-2.5-8.7,10.4-9.7,11.8C579,364,569.8,368.8,575,372.7L575,372.7L575,372.7z"/>
		<path d="M846.7,384.5c-1.5,1.1-11.2,10.3-11.1,11.2c0.6,3.7,4.9,0.3,6.2-0.7c1.9-1.4,12.6-10.3,10.4-12.5
			C850.9,381.2,847.9,383.6,846.7,384.5L846.7,384.5L846.7,384.5z"/>
		<path d="M248.6,461.5l1.8-0.4l5.5-11.9l-6.9,3.5l5.5-9.1c-2.7-0.4-3.8,0.2-5.6,2c-1.2,1.1-9.1,15.1-8.3,16
			c4.1-0.3,4.1-4.3,7.9-0.2h0.1V461.5z"/>
		<path d="M2339.1,268.5c3.3,0.2,2.9-2.8,3.6-4.7c0.9-2.1,6.4-13.8,5.4-14.8l-4.2,0.9c1.8,3.7-10.7,17.4-4.8,18.5l0,0V268.5z"/>
		<path d="M2296,261.5l14.6-20.8c-3.8-3-13.6,13.5-15,16.3C2294.4,259.4,2293,259.3,2296,261.5z"/>
		<path d="M1152.6,383.9c6.8-0.4,11.3-8.7,16.7-12.5C1164.7,367.4,1151,382.4,1152.6,383.9z"/>
		<path d="M2289,262.9c1.1-0.1,10.7-16.6,11.8-19.4c-2.1-2.1-11.3,12.7-12.5,14.6C2286.7,260.6,2287.2,263.1,2289,262.9z"/>
		<path d="M963.6,453.4V484l2.8-21.5C965.6,459.6,968.6,452.3,963.6,453.4L963.6,453.4L963.6,453.4z"/>
		<path d="M1126.2,364.4l4.6-1.7l9.3-10.8C1132.3,350.7,1129.4,359,1126.2,364.4z"/>
		<path d="M962.2,499.2c2.7,2.5,15.4-11,13.9-12.5s-10,6.5-11.1,7.6C963.5,495.7,961.8,496.7,962.2,499.2z"/>
		<path d="M2067.3,348.4c3,4.2,6-4.1,11-2.2v-5.5c-3.4-1.9-11.6,4.8-11,7.6l0,0V348.4z"/>
		<path d="M2145.1,429.7c0.6-0.9,4.5-5.5,0.7-5.5s-13.8,9.1-11.8,11.1h4.2C2137.8,431.3,2142,430.6,2145.1,429.7L2145.1,429.7
			L2145.1,429.7z"/>
		<path d="M2140.3,439.5l10.4-7.7c3-4.7-3.1-2.7-5.5-2.1c-1.7,2.5-3.8,5.9-7,5.6C2136.9,437.4,2137.3,439.5,2140.3,439.5z"/>
		<path d="M510.4,529.8c-2.1-2.5-11.5,14-6.2,13.9C506.3,543.7,511.8,532.8,510.4,529.8z"/>
		<path d="M2135.4,411.7c6.6,0.8,8.7-6.9,15.3-5.6c-0.4-6.5-5.2-3.3-8.7-1.3L2135.4,411.7z"/>
		<path d="M2135.4,427l15.3-8.4c-3.6-7-6.5,1.1-11.1,1.4l9.7-7.6c-3.5-4.1-9.9,3.6-13.3,4.8c-1.9,1.8,1.7,3.6,1.7,4.9
			s-3.2,2.4-2.3,4.8l0,0L2135.4,427z"/>
		<path d="M2280,260.2c0-0.9,3.1-7.5-0.7-5.5c-0.7,0.4-8.3,11.9-7.7,12.5c6.2,1.4,4.9-4.7,8.3-6.9l0,0L2280,260.2z"/>
		<path d="M2284.1,264.3l7-15.3l-11.1,11.1C2280,262.7,2281.2,264.7,2284.1,264.3L2284.1,264.3L2284.1,264.3z"/>
		<path d="M2213.9,333.8l7.6-2.8v-4.1h-6.9c1-2.9,4-4.3,7-4.2l-2.2-4.1l-7.5,2.8c-1.2,2.5,2.3,5,2.3,6.2s-4.7,3.5-0.2,6.2H2213.9
			L2213.9,333.8z"/>
		<polygon points="591,357.5 582.9,366.8 583.4,371.3 		"/>
		<path d="M574.3,584.1c-1.7-1.6-12.6,5.4-9.7,8.3S576.1,585.7,574.3,584.1z"/>
		<path d="M2349.5,260.1c4,0.4,9.2-9.4,4.8-11.1c-2.6-1-2.8,3.8-3.2,5.1C2350.4,256.1,2348.9,257.7,2349.5,260.1z"/>
		<path d="M2135.4,402.6c0.5,2.7,2.7,2,4.8,0.7c2.4-1.5,6.9-2.6,6.3-5.5C2144.2,397.4,2134.7,398.8,2135.4,402.6z"/>
		<path d="M2248,274c3.8,3.6,7.2-8.4,8.3-9.7C2252.8,261.6,2246.5,272.6,2248,274z"/>
		<path d="M2288.3,310.2l9.7-6.9C2292.7,302.6,2287.7,303.9,2288.3,310.2z"/>
		<path d="M2244.6,272.7l0.7-5.6C2238.7,267.3,2237,277.9,2244.6,272.7z"/>
		<path d="M2220.9,300.5l-2.1,5.5l6.9-1.4C2226.2,301.6,2223.7,299.9,2220.9,300.5L2220.9,300.5L2220.9,300.5z"/>
		<path d="M590.3,372.7l4.9-9.7C591.8,361.7,585.8,373.1,590.3,372.7z"/>
		<polygon points="2151.4,368.6 2148.1,370.1 2147.9,375.5 2153.5,374.1 		"/>
		<path d="M436.7,509c-3.1-2.9-8.1,4.9-3.4,6.9C436.2,517.2,437.2,509.4,436.7,509z"/>
		<path d="M2149.3,363l9.7-1.4C2156.8,356.6,2150.9,358.7,2149.3,363z"/>
		<polygon points="2081.2,330.3 2077,329.7 2078.4,334.6 2082.6,335.2 		"/>
		<path d="M596.6,370c4.5,1.2,5-2.6,7-5.5C599.2,363.6,598,366.7,596.6,370z"/>
		<path d="M1074.1,483.5c-1.1,0-2.4-2.6-4.2-2.4c-1.4,5.4-3.8,1.3-6.8,1.7c-0.9,0-5.5,4.5-5.8,5.3c-0.5,1.1,3.3,4.3-0.6,7.6
			c1.2,6.6,7.8-5.1,9.7-7c1.3-1.3,5-4.2,7-4.1c-2.4,6.8-14.7,13.4-17.4,18.7c-1.1,2.2,0.5,4.2,1.4,4.2c2.3,0,14-16.1,16.5-18.9
			c1.1-1.2,4.7-2.5,5.1-4C1080.2,479.1,1074.5,483.5,1074.1,483.5L1074.1,483.5L1074.1,483.5z"/>
		<path d="M2253.6,482.6l-5.5,2.8c0.3-2.2-0.7-4.2-0.7-6.3s3.9-6.1-1.4-4.8c-1.9,0.5-22.2,27.9-21.7,31.2l2.9,1.6l-1.5,4.8h3.9
			c-0.4,0.7-0.8,1.4-1.2,2.1c-1.2,2.2-1.9,3.6-1.3,6.3c3.8,0.8,2.4-1.1,3.4-2.8c5.5-8.4,11-16.8,16.8-24.9c2.4-3.4,7-5.1,6.1-9.8
			L2253.6,482.6L2253.6,482.6z M2228.6,503.4c-0.2-2.5,1.6-5.9,4.1-6.9C2232.9,499,2231.1,502.4,2228.6,503.4z M2229.9,511.3
			c0.8-5.9,5-12.1,8.6-16.7c1.9-2.4,4.9-6.7,8.1-7.2C2242.8,495.6,2234.7,503.6,2229.9,511.3L2229.9,511.3L2229.9,511.3z"/>
		<path d="M2255.5,489.4c-3.4,4.7-27.4,32.7-24.2,36.3c4.8,0.2,4.6-6.2,6.7-9.3c1.8-2.7,3.9-5.4,5.9-8c2.8-3.6,18.3-17.7,15.2-21.6
			C2255.5,486,2256.7,487.9,2255.5,489.4L2255.5,489.4L2255.5,489.4z"/>
		<path d="M2064.3,487.2c-1.9,2.6-13.7,20.4-12.3,21.8c7,1.2,4.6-4.7,6.3-8.2c1.2-2.5,11.6-15.5,10.3-16.8
			C2065.7,483.4,2065.4,485.5,2064.3,487.2L2064.3,487.2L2064.3,487.2z"/>
		<path d="M255.3,588.2c-4.6,1.5-12.2,8.6-18.4,11.5l3,2.2c1.4-2.5,7.6-4.3,9.1-5.4c2.6-1.9,5.7-5.4,8.3-7.7c0.2-1-1.3-0.9-2.1-0.7
			h0.1V588.2z"/>
		<path d="M517.4,557c2.3-3.3,17.2-17,13.9-20.2c-6.6,1.4-6.7-3.8-10.4-7c-8.1-7.1-15.2-13.2-25.1-5.5c-1.5,1.2-2.1,4-3.5,4.9
			c-1.2,0.8-3.5-0.5-4.2,0c-3.1,2.3,0.4,11.8-2.6,16.8c-3.1,5.2-16,9.5-21.7,6.2c-5.1-2.9-13.9-21.5-7.6-26.5l-4.2,3.5v9
			c-5.5-2.5-4.9-12-11.1-11.1v-1.4c6.6-0.8,0.8-5.7,2.8-9.7l16.7,5.6v-8.3c6.1,3.5,16.7-2,18.8-8.3c1.3-3.9,4.2-17.9,4.3-21.8
			c0-5.5-2.2-11.6-2.2-17.1c1.5-1.7,7.1,7.4,9.7,1.7c1-2.3,2.5-15.5,2.8-19.2c0.3-2.7-1.5-5.3-1.2-8c0.4-2.9,4.2-6.9,5-10.3
			c1.5-7,0-14.5,0.3-20.5c0.2-3.5,3.9-6.6,4.2-11.2c0.8-11.9-5.7-25.1-12.3-34.5c1.7-4.4,6.1-11.4,6.5-15.9c0.3-3.2-2.3-4.3-2.6-6.7
			c-1-8.7,27.3-26.6,10.1-35c-5.8-2.9-8.2,0.4-11.9-0.5c-2.9-0.7-7.6-9.3-13.5-8.2c12.6-22.8-5.1-25.2-23.6-22.2
			c1.8-21.1-3.8-24.4-20.9-13.2c-1.3,0.8-4.7,0.4-2.1,3.4c2.4,2.8,3,0.6,5-0.5c4.4-2.5,7.6-6.5,13.6-4.9c3.4,4.6-1.8,16.3,1.5,18.7
			c6.4,0.1,23.8-3.8,27.2,3.4c2.4,4.9-7.3,13.7-6.3,19.4c8.1-3.2,11,7.7,14.3,8.8c3.9,1.4,18.5-4.1,17.8,4.3
			c-0.9,10.7-16.4,17.8-16.8,26.6c-0.2,3.3,3.2,4.9,2.8,9.4c-0.4,5-6.5,9.3-5.4,15.1c0.7,3.9,5.9,7,7.8,11.7
			c1.2,3,4.4,16.4,4.3,19.2c0,4.4-5.1,7.9-5.2,11c-0.3,6.4,4,10.2,0.9,20.6c-1.3,4.3-5.9,8.9-6.3,11.8c-0.5,3.2,2.9,20.9,1.1,22.6
			c-6,0.8-7.1-3.4-10.4-6.9l-3.5,2.1c5.8,15.2,4.7,31.4,0,46.9l-9,5.2l-2.3-3.9h-3.7l-5.1,10.8c-7.4-2.5-10.6-4.5-12.6-12.3
			c-1.3-4.9-0.2-22.4-6.6-20.7c-4.5,3.4-9.1,9.3-9.3,15.1l9.7-9.7c1.2,14.1,12,25.8-4.1,34.7c1.5-13.6-13-21.7-11.8-34.8
			c-6.8-3.9-13.1-3.2-10.5,5.6l6.9-1.4c-0.1,9.9,9,15.6,11.9,25c3.8,12.3,2.7,26.1-11.9,29.2c-1.4-1.4,7.8-10.6-2.8-9.7l-1.4,11.1
			c-12.3-4.7-30.4,15.2-39.5,1.3c-6.3-9.7-3.5-25.6-20.7-22.2L338,549.3c8-25.4-6.7-34-18.3-7.9c-7.3,16.5-9.2,37.2-17.8,53.8
			c-14.2,1.6-16.1-35.6-18.8-36.1c-4-0.8-3.8,8.8-4.8,11.9c-0.5,1.6-3.7,8.9-4.9,8.9c-6.7-4.1-5.8-10.1-7.7-15.6
			c-0.4-1.2-2.3-0.9-2.6-2c-1.4-4.5-0.6-12.3-2.1-17.1c-2.6-4.2-7.7,5.3-12.7,5.6c-12.6,0.7-0.5-21.1-0.5-28.5
			c0-12-10.1-9.9-2.4-23.1c2.9-5,16.4-16,7.2-19.3c-3.3,7-21.7,26.7-29.6,19.1c-0.8-0.8-11-17.7-11.2-18.7
			c-0.6-2.7,2.9-9.3,2.5-14.9c-0.5-9.5-11.1-20.8-4.2-27.2l0.7,7h4.9l0.2,3.9l3.7,0.4c-0.6,2.2-0.7,4.1,2.3,4
			c4.1-5.6,7.5-11.9,11.9-17.3c2.7-3.4,16.5-13.5,6.9-12.6l-18,21.6l16.7-25c-4-0.3-5.4,4.5-8.3,6.1c-0.9,0.5-8,1.5-9.7,2.3
			l0.2-17.2c4.7-4.9,23.3-12.5,23.3-19.7s-11.4-15-18.7-16c-1.4-0.2-7.7-1.1-7.6,1.4c6.6-1.6,23.2,6.7,21.6,14
			c-1.1,5-17.6,13.5-22.3,16.5l-1.4,20.9c-2.7,4-11.6,4.8-12.9,9.3c-2.5,8.3,13.6,31.6,4.9,39c-0.8,0.7-3.1,0.3-4.4,1.8
			c-0.9,1.1-0.8,3.4-2.2,4.8c-2,2-7.6,3-9.8,6.9c-6.9,12.2,10.8,24.9,7.8,28.6l-14.7,2.7l1.4-10.3l-3.5-0.8l-2.1,11.1
			c-3.7,0.4-8.4-4.1-11.6-3.8c-3.4,0.3-6.7,4.1-12.6,3.8c-7.9-0.5-6.6-12.1-11.2-11.1c-2.9,6.7-4.8,10.6-11.8,13.9v-8.3h-4.2v7
			c-3.5,1-3.2-3.2-4.5-3.9c-1.6-0.9-4.9,0-5.3-0.3c-1.8-1.6,4.1-16.1,0-18.9c-8-5.6-31.3,17.2-40.5,5.7c-2.8-3.5-1.7-10.4-8.3-9.1
			l2.8,9.7c-2.8,0.4-16.5,2.4-16.7,4.9c-0.2,5,9.7-1.2,11-1.5c6.9-1.6,9.2,0.5,15.4,2.2c0.1,4.4-30.2,21.8-26.4,25
			c10.2,1.6,17.2-10,25.1-15.9c3.9-2.9,9-6.7,13.8-7.7l-40.4,34c-3.8,2,1.6,8.4,3.5,7.7c17.6-18,42.4-30.3,56.4-51.4
			c3.9,0.9,2,5.1-0.1,7.6c-11.5,13.2-35.1,27.5-48.6,40.3c-2.3,2.2-9.9,10.5-10.8,12.9c-0.7,2-1,3.7,1.8,3.2
			c11.6-17.3,29.1-29,45.2-41.7c1.5,1.5-6.2,8.5-7.6,9.8c-13.1,12.4-27.1,24-40.4,36.1l-0.6,8.3l10.2-3
			c10.5-8.9,19.9-19.2,30.1-28.3c3.3-3,8.4-7.4,12.5-9c-12.3,14.5-32.6,25.1-37.7,44.3L46,582.9c0.3,7,6.2,2.7,10.1,3.1
			c22.4,2,46.5,1.2,68.6,1.2s45.3,1.4,63.6,4.2c7.9,1.2,7.9,3,15.5,1.9c1.4-0.2,3.4,1.2,4.6,0.6c0.8-0.5,3.7-8.1,8.6-6.8l0.4,1.1
			l3-0.6c-0.9-8.1-1.9-18.3-2.1-20.6c-1.1-20.5,0-42.9,1.4-63.3c-5.7-2.6-3.8,0.9-6,2.3c-2.8,1.9-9.4,3.7-12.7,6.1
			c-3.2-5.6-9.3-11.5-6.1-18.5c3.8-8,10.1-1.8,14.3-9.4l3.5,6.9c-3.2-1.2-20.2,7.6-16.7,11.1c6.6,0.9,15.5-14.4,20.8-7
			c-2.2,0-4.2,0.6-6.1,1.5c-1.5,0.7-17,8.6-9.9,11l16.7-11.1c4.4,13,15,8.6,22.9,1.4c1.6,6.7-7.8,5.2-8.3,7.7
			c-0.7,3.4,6.6,2.8,6.9,6.9c-0.1,1.8-15.3,6.2-11.1,10.4c2.1,2.1,12.4-6.4,15.3-6.9l1.5,10.3l-9.8,3.6l7-5c-0.3-2,1.1-5.6-2.1-4.7
			c-3.3,0.9-14,7.4-11.9,11.6l2.8,1.7l-1.4,4.8c5.2,1,7.3-2.3,10.4-5.5c2.5-1.1,2.6,2.2,2.1,3.5c-0.4,1.1-3.3,0.8-4.9,2
			c-1.6,1.3-10.3,8.3-10.4,9.1l2.1,3.4l9.7-8.3c2.5,6.8-9.5,8.8-13.2,13.9v-32.7c0-1.7,2.4-7.3,2.6-9.8l-3.2-2l-2.1,2.1V585
			c0,0.4,5.6,5.1,6.2,4.8l32-25c1.8,1,0.4,3.7-0.6,4.9c-4,4.9-17.5,12.8-23,17.3c-2.3,1.8-4.1,4.3-6.2,6.3
			c9.5,10,19.9-8.1,29.2-11.8v20.2c0,0.5-2.4,10.1-2.8,10.4c-0.3,0.2-6.6-2.8-5.5,2.1c0.6,2.5,18.3,4.7,21.5,4.9
			c2.3,0,4.7-1.4,7-1.5c3.6,0,6.9,2.4,10.3,0.8c2.6-1.2,4.6-6.3,6.9-8.5c1.8-1.7,4.5-1.8,6.3-3.5c4.3-3.9,10.2-15,15.4-19.4
			c1.9,6.9-10,10.4-9,18.1c2.8,3.2,11-18.4,15.3-14.6c-1.5,3.2-9.9,8.3-4.9,11.8l43.8-61.1c0.7,4.5-1.7,7.4-3.6,11
			c-4.2,7.8-34.5,45.1-33.9,48c0.4,2.2,1.7,1.9,3.5,0.7c4.5-2.9,6.6-8.5,9.7-12.5l1.4,2.8l27.8-37.5c1.6,0.9,0.6,4.1,0,5.5
			c-3.5,7.5-17.4,20-22.6,28.8c-1.6,2.7-3.4,5.4-3,8.8c3.6,0.7,3,0,4.6-1.7c3.6-3.6,5.2-10.3,8.7-14.9c2.6-3.3,6.3-4.5,8.2-8.4
			l0.7,3.2c2.9,3.9,4.4-4.4,6.9-6.7c1.9-1.8,4.3-1.7,5.5-2.8c2.2-1.8,1.3-6.8,5.6-6.2c-4,7.9-2.1,10.2,5.6,13.2
			c-1.1,1.5-2,2.6-2.7,3.3l2.2,3.6c1-0.5,2.1-1,2.7-1.8c4.5-5.8,7.3-15.4,14.5-19.6c-1.2,12-12.2,17.9-18.1,27.1l4.1,2.3l-1.3,5.4
			c3.8,3.4,11.4-14.3,16.7-15.3L395,597c4.4,4,12-16.2,16.7-16.7c4.2,6.4-1,18.2,0,22.9c0.5,2.2,3,2.4,4.2,0v-50.7h4.2
			c-0.2,7.6,0.3,15.3,0,23c-0.2,8.4-4.5,16.2,3,22.6c5.2,2,4.6-3.3,6.7-5.9c4.2-5.1,8.6-10.5,13.9-14.6c-4,8.7-13.6,20.5-21,26.9
			c-2.3,2-8.5,1.6-4,7.2l76.5-2.1c-3.2-15.9-2.6-30.6-2.7-46.6c0-4-1.6-7.9-1.6-12.5c0-6.7,2.1-13.9,4.3-20.1h2
			c2,0.2-0.7,1.8-0.7,2.1v20.9c0,1.7-4.8,11.4,1.4,10.4c0-5.2,2.4-38.3,5-39c5.7-0.6,10.4,2.9,14.4,6.5l-13.7,19.5l4,4l-8.3,13.2
			c3.4,0.6,3.5-0.3,5.4-2.3c4.9-5,10.8-18.6,16.1-22.8c1.3-1,3.9-2.5,5-0.6c-4.3,8.6-19.8,20.4-22.9,28.5c-1.1,2.8-1.1,3.6,1.4,5.5
			l13.2-18.7V557H517.4z M226.8,431.1c1.2,1.4-8.9,13.4-9.7,12.5C216,442.4,224.5,431.7,226.8,431.1z M89.2,526.4l-23.7,17.3
			c8.3-9.8,19.1-17.3,29.2-25L89.2,526.4z M97.5,511.7l13.9-6.9C107.4,510.5,104.8,514,97.5,511.7z M115.6,531.2
			c0.9,2.5-5.4,8.3-6.9,6.9C108.1,537.6,115.2,530.6,115.6,531.2z M78.7,556.2c-6.2,5.9-11.1,13.3-18.7,18.1l2.8-4.9
			c15.5-14.1,30.7-31.8,46.6-45.2c1.6-1.3,2.3-3.4,4.9-2.8c1.9,1.6-32.7,32.1-35.5,34.7h-0.1V556.2z M92.6,556.2
			c7.6-7.2,16.7-13.6,24.3-20.8c0.5,2.6-1.8,4-3.4,5.6c-8.6,8.6-19.6,16.6-28.5,25C83.5,564.4,91.2,557.5,92.6,556.2L92.6,556.2
			L92.6,556.2z M72.5,583.4l32-29.9c0.6,2.7-1.4,3.3-2.9,4.7c-6.8,6.6-14.5,12.3-20.7,19.6l5.6,3.5c-2.1,3.8-10.2,3-13.9,2.1
			L72.5,583.4L72.5,583.4z M87.8,579.9c8.8-9.6,19-20.4,29.3-28.3c1.9-1.5,4.3-3.7,6.8-3.6c-9.5,10.4-20.5,20-31.3,29.2
			c-1.6,1.3-2.3,3.4-4.9,2.8l0,0L87.8,579.9z M107.2,582.6H93.3l15.3-11.1l-6.9,7.6L107.2,582.6L107.2,582.6L107.2,582.6z
			 M127.4,554.9l0.6,4c-6.2,0.2-9.3,7.3-15.2,8.5L127.4,554.9L127.4,554.9L127.4,554.9z M121.2,584l6.3-6.9l0.5,5.3l-6.7,1.6
			L121.2,584L121.2,584z M121.2,578.5c-2.7-5,2.7-7.3,6.9-8.3C129.7,571.8,121.6,579,121.2,578.5z M128.8,531.2
			c-1.7-1.8-4-2.9-3.5-5.6l4,1.5L128.8,531.2L128.8,531.2L128.8,531.2z M136.4,582.7h-4.2c1.7-18.4-3.7-37.4,1.4-54.9
			c6.3,0.5,13.5-13.5,15.3-3.5l-6.9,4.9l7.3,4.7c9.3-6.8,19.8-14.8,31.4-8l0.2,6.8l-5-4.2l-4.5,1.3l-3.5-3.9
			C164.3,529.5,138,542,142,548c0.3,0.5,3.4-4.1,3,2.6l4,0.9l-8.3,6.3l-1.4-27.8h-4.2l1.4,52.8L136.4,582.7L136.4,582.7z M167,536.8
			c-1.5,2.5-5.3,5.4-8.3,5.5C160.1,539.4,163.7,536.7,167,536.8z M157.3,543.7c-1.5,2.5-4,5.9-6.9,5.5
			C151.9,546.7,154.4,543.3,157.3,543.7z M144.8,582.6h-5.6c0.7-2.8,3-3.1,5.6-2.8V582.6z M139.2,577.1l1.4-16.7l1.7,5.3l2.5,1
			l-2.8,4.9l4.2,0.7l-6.9,4.9l0,0L139.2,577.1z M180.9,536.8v11.1c-6.6-3.8-10.9,5.9-18.1,5.5l15.3-9.7l-2.1-4.1L147.5,559
			C149.4,553.8,177.9,533.4,180.9,536.8L180.9,536.8L180.9,536.8z M168.4,556.3l-12.5,8.3C158.4,560.8,163.8,557.1,168.4,556.3z
			 M175.4,586.8v-2.1l4.1-3.5C180,584.5,178.9,587.1,175.4,586.8z M176.4,569.1c-6,5.4-13.8,9-19,15.6l-8.4-0.6l3.5-4.2l1.4,2.8
			l25.7-18.1C180.3,567.6,178,567.7,176.4,569.1z M154.5,571.5c6.4-4.3,16-14.3,22.7-16.9c2.4-0.9,2.7-1.2,3.7,1.6L154.5,571.5
			L154.5,571.5L154.5,571.5z M186.4,538.8c-1.1,15.5,2.2,30.8,0,45.9c-0.4,2.4,0.7,2.3-2.7,2.1c1.1-16.3-1.5-34.6,0-50.7
			c0.2-2.4,2.7-6.1,1.4-9.6l4.2-0.8c-1.5,4.2-2.5,8.7-2.8,13.1H186.4z M190.7,524.3h6.9C196.7,529.4,189.1,525,190.7,524.3z
			 M203.2,584l12.5-9.7C218.9,578.4,206,583.9,203.2,584z M200.4,579.9c3.6-4.5,10-8.7,15.3-11.1l-9.8,8.9l-5.4,2.2L200.4,579.9
			L200.4,579.9z M213.9,551c-4.6,3-10.7,6.9-16.3,6.6c1.4-3.2,16.2-13,18.1-11.1C216.9,547.7,215.9,549.7,213.9,551L213.9,551
			L213.9,551z M210.1,532.6c1-2.3,3.1-4.6,5.6-4.1C214.7,530.8,212.6,533.1,210.1,532.6z M204.8,514.7l9.5-4.4l1.4,12.5h-4.2
			l1.4-4.2l-8.3,1.4l0.2-5.4l0,0V514.7z M208.7,529.8c-1,3.5-16.4,13.5-16.7,14.6c-0.2,0.7-0.4,3.5,0.7,3.5l18.8-9.7
			c-2.3,2.3-4.9,7.1-7,8.9c-4.5,3.8-14.6,4.2-12.3,11.8l4.1,0.8c-2.4,2.2-4.8,4-4.2,7.6c1.8,1.8,16.5-10.3,20.2-11.1
			c2.8,2.2,0,2.3-1.1,3.2c-4.7,3.6-10.9,5.8-15.9,9c-3.8,2.4-1.8,6.4,1.9,4.8c4.5-2,11.8-9.5,16.5-11.4c2.4-1,2.4,1.3,2.1,2.7
			c-7.6,3-14.6,7.5-20.3,13c-3.2,2.3,3.8,10.8-3.3,10.6l-1.3-50c7.3,0.8,10.8-7.7,18-8.4h-0.2L208.7,529.8z M239.3,552.1
			c-1,2.3-3.1,4.6-5.6,4.1C234.7,553.9,236.8,551.6,239.3,552.1z M225.4,579.9v-20.8l2.7,0.7l-1.4,4.9h4.2c0.4,0.3-3.9,6.4,0.7,5.6
			c4.1-0.8,12.6-12.3,18.7-12.5l-25,22.2l0,0L225.4,579.9z M256.7,563.1c-2.9,1.6-24.3,19.5-25.7,18.2l11.8-12.5l15.9-9.8
			c0.6-6.5-6.5-2.3-6.9-2.8c-0.4-3.9,3.9-4.9,6.3-6.9l2.1,13.9c0,0.2-1.6-1.2-3.5,0l0,0L256.7,563.1z M256,577.8l4.1-3.5v4.2
			L256,577.8z M264.3,587.5v25.7h-2.8c-0.7-0.6,1.4-1.8,1.4-2.1c0-10.3-1.3-25.2,0-34.8c0-0.6,1.4-4,2.8-3.5l2.8,6.3
			C265.9,579.1,264.3,585.5,264.3,587.5L264.3,587.5L264.3,587.5z M268.5,613.2v-32l7,4.2l-2.8,4.8l2.8,2.8c-3.3,2.8-7,6.7-1.4,8.3
			l-2.7,5.5l8.3,3.6C278,614.7,272.3,612.9,268.5,613.2L268.5,613.2L268.5,613.2z M283,581.3c-4.9-1.5-3.6,1-6.2,2.7
			c-0.2-5.2,1.6-8,7-7.8l2.7,10.5C280.9,587.9,287,582.5,283,581.3L283,581.3L283,581.3z M286.6,603.5c-0.4-0.3,4.9-7.7,6.9-7.7
			l5.6,2.2L286.6,603.5z M333.2,530.1c4.6,0.3,3.7,10.4,2.1,13.6c-3.5,0-0.3-8.1-4.8-6.9c-1.2,0.3-8.6,16.6-11.8,18.1
			c-0.3-5.6,8.9-25.2,14.6-24.7L333.2,530.1L333.2,530.1z M318.5,556.3c0.8,3.8,1.7,7.9-2.8,9.7L318.5,556.3z M308.8,588.2
			c5.3-14.7,15.8-27.7,25-40.3c2.1,9.2-3.7,11.2-7.5,16.8C320.8,572.7,316.5,582.2,308.8,588.2z M332.5,577.1
			c1.5-4.7,5.2-9.4,8-13.5c3.6-5.2,9.5-14,13.6-18.3c1.4-1.5,2-3.5,4.7-2.9C351.2,554.8,342,566.3,332.5,577.1L332.5,577.1
			L332.5,577.1z M360.2,538.2l-3.5-2.7l-31.3,44.4l1.1-5.3l-2.5-0.9c3.9-7.8,12-13.2,16.7-19.5c3-4.1,10.9-23.2,17.3-21.5
			C360,533.2,360.5,536.4,360.2,538.2L360.2,538.2L360.2,538.2z M351.9,571.5c-0.5-2.5,1.9-4.6,4.1-5.6
			C356.5,568.4,354.1,570.5,351.9,571.5z M389.5,561.8c-0.5-2.5,1.9-4.6,4.1-5.6C394.1,558.7,391.7,560.8,389.5,561.8z M393.6,564.6
			c0.3-4.1,5.3-7.4,8.3-9.7C401.6,559,396.6,562.3,393.6,564.6z M407.9,567.7c-1.1,0.9-4.1,10.1-8.7,10.8l11.8-16.7l0.4,5.4
			C411,567.6,408.7,567,407.9,567.7L407.9,567.7L407.9,567.7z M407.5,556.2c0.7-2.8,3-3.1,5.6-2.8
			C412.4,556.2,410.1,556.5,407.5,556.2z M439.5,538.2c0.5,2.5-1.9,4.6-4.1,5.6C434.9,541.3,437.3,539.2,439.5,538.2z M433.2,525.7
			l2.1,3.4l-2.8,2.1L433.2,525.7L433.2,525.7L433.2,525.7z M435.3,536.8l-4.2,4.2v-4.2H435.3z M440.9,543.7c0.4,2.5-9,13.3-9.7,12.5
			C429.9,554.7,438.4,544.3,440.9,543.7z M429.1,550.7c-0.8,2.1-4.7,4.6-3.5,8.4h4.2l-5.6,6.9c-1.5-5.6,3.4-12.4-1.4-16
			C424.4,546.7,430.2,547.6,429.1,550.7L429.1,550.7L429.1,550.7z M423.5,568.7l1.4-1.3l3.5,1.4l-5.5,5.5L423.5,568.7L423.5,568.7
			L423.5,568.7z M422.8,593.8l0.7-5.6l2.1,3.4L422.8,593.8L422.8,593.8L422.8,593.8z M431.2,582.6l11.1-13.9
			C443.4,571.8,433.6,584.8,431.2,582.6z M424.2,586.8c-2.4,0.4-1.5-3.4-1.1-4.6c2.3-7.2,15-18.8,20.6-24.6
			C441.2,569.2,428.1,576,424.2,586.8L424.2,586.8L424.2,586.8z M431.2,564.6l12.5-16.7C443,554.5,436.3,560.7,431.2,564.6z
			 M460.3,570.1c0.3-0.2,2.8,0.6,3.8-0.3c0.4-0.3,3.2-7.3,4.5-8.7c-3.6-4.9-5.1,0.7-8.3,2.1v-8.3c8.6,7,19.7,0,27.1-5.6l0.7,17.4
			l-2.8,0.7c3.5-6.9-1.4-5.8-1.4-11.1c-6.2-1.1-6.4,4.9-9.1,8.3c-2.5,3.1-12.5,12.5-11.7,16c0.3,1.7,1.8,2.3,3.5,0.7
			c4.7-4.2,8.1-14,13.9-18.1c1.7,0.5,0.4,2.9,0,4.1c-3.1,6.7-14.9,17.7-20.1,23.7v-20.9L460.3,570.1L460.3,570.1z M445.1,574.3
			l2.8-4.8l-4.2-2.1l4.9-6.9l0.7,13.9h-4.2V574.3z M449.2,588.2c-2.3,0.4-1-2-1.9-3.7c-0.6-1.1-4.6,0,1.2-6L449.2,588.2z
			 M446.5,542.3h2.8v5.6l-4.2-1.4L446.5,542.3L446.5,542.3L446.5,542.3z M448.5,550.7l0.7,6.9l-5.5-1.4l4.9-5.5H448.5L448.5,550.7z
			 M443.7,604.9l3.5-5.5l2.1,5.5c0.5,0.4,0.9,0.7,1.2,0.8L443.7,604.9z M457.6,584.7c0,6.3-2.9,14.5-1.4,21.6l-5.6-0.6
			c3.2,0.5,1.4-14.2,1.4-15.4c0.3-15.5,1.7-31,1.5-46.5l5.3,9.2c-5.2,9.2-1,22.1-1.1,31.7H457.6L457.6,584.7z M460.3,606.3
			c0.4-2.6-0.9-7.5,0.3-9.5c0.4-0.7,3-1,3.9-2.3c4.8-6.6,10-16.1,15.9-21.7c1.9-1.8,3.4-0.2,3.5,0.7c0,4.8-18,22.2-22.2,26.4
			l3.4,3.4l14.6-16.7c-2,5.5-7.3,10.2-10.9,14.8c-2.7,3.4,0,6-8.5,4.6V606.3z M475.6,606.3l12.5-15.3
			C488.8,594.3,478,608.5,475.6,606.3z M484,606.3l4.9-8.3l0.5,6.7l-5.3,1.6H484L484,606.3z M481.2,592.4c-0.4-2.5,6.3-11.5,8.3-9.7
			L481.2,592.4z M510.4,549.3c1.4-5.1,6-10.3,9.7-13.9C519.2,540.5,514.4,546.1,510.4,549.3z"/>
		<path d="M2353.9,612.5c0-1.4,8.5-6.6,6-10.4c-0.8-1.2-3.1-2.6-3.5-0.5l-6.3,8.8c-3.7-2.1-1.3-6.9-6.3-7
			c0.9-3.5,14.9-17.1,12.5-19.4c-3.4-0.5-2.9-0.2-4.6,1.7c-4.2,4.7-7.7,12.6-11.5,17.8c-14.7-4.8-13.7-9-13.2-23.1
			c0.7-18.9,6-36.1,8.6-54.7c4.7,2.7,11.7-19.1,15.1-15.5l-12.6,21.5l2.9,1.4c0,0.8-9.4,14.7-3.5,11.8c1.8-5.2,22.2-29.4,20.2-32
			l-4.2,1.4l1.4-4.2l9,1.4c3-5.1-3.9-6.7-7.9-6.6c-14.5,0.3-24.9,11.6-39.2,9.3c-10.9-1.8-11.8-17.8-18.8-20.1
			c-9.5-3.2-20.5,6.7-23.8,4.4c-0.7-0.5-5.3-11.4-7.7-14.6c-6.6-8.8-18.9-19.8-29.7-22.5c-1.9-2.7,3.6-12.1,3.5-14.5
			c0-5.2-6.7-4.4,0.5-13.9c4.4-5.8,12.1-7.1,5.6-15.3c-3.6-4.5-7.2-5.6-12.5-3.4c-4.1-7.4,6.5-12.3-3.2-17c-5.3-2.6-10.4-0.5-12-8.8
			l8.9-7.5c-1.7-4.3,1.7-6.4,2.1-9.3c0.9-5.4-8.1-10.5-8.3-19.5c0-1,2.7-10.9,3-11.3c1.5-2.2,9-0.9,10.9-2.3
			c2.1-1.4-0.5-9.1,9.6-7.8c1-5.8-4.1-6-8.3-7.6l-1.4-2.7c4.5-13.2,14.9-21.9,27.8-26.5c14.4-5.1,7.2,1.7,15.2,4.2
			c7.8,2.5,26-3,25.1,10.4h11.1l-1.3-4.9c-7,0.3-9.7-5.7-16.3-7.3c-8.7-2.1-17.9,1.1-23.5-8.4l-24.3,5.9c-1.9,1.2,0.5,3.7,0,4.6
			c-0.3,0.5-7.3,5.3-9.5,8c-3,3.5-10.5,12.8-7.7,17.4l6.3,3.4c-4.5,2.9-10.7,9.9-16,10.4c-0.6,0-0.5-2.6-1.5-2.8
			c-5.4-1.2-17.6,9.1-21.4,13.3c1.4,6.6,6.1-2,7.8-3.3c3.6-2.7,7.7-4.9,11.6-7.2l1.4,8.3c-6.9-3.3-14.8,7-20.8,10.4
			c-0.1,1.6,2.3,2.5,4.8,0.7c1.4-0.9,13.8-10.8,14.6-9.7l1.4,15.3h-4.2l1.4-4.2c-2.5-2.1-17.3,6.8-19.4,9.1c-2.9,3.2-1.6,6.4,2,4.8
			c1.7-0.7,6.5-10.2,11.8-7.6c-3.5,3.4-7.4,6.6-11.2,9.7c-2,1.7-9.7,3-4.8,7.7l24.3-17.5c2.2-0.3,5.7,3.7,5.7,5.7s-6.5,10.8-7,11.2
			c-0.9,0.7-3.5-0.4-6,0.8c-2.1,1-17.1,13.2-17.6,14.5c1.3,6.6,5.8-1.7,7.1-2.7c3.4-2.6,7.5-4.3,10.3-7.8l7.6,10.4l-9.7,6.9
			l-11.1,11.8c8.3-1.3,13.3-12.1,22.2-13.9c-1,4.6-21.7,17.3-18.1,20.8c3.3,3.2,5.2-4.3,7-6.1c5.2-5.3,13.8-11.8,20.7-14.7
			l-23.6,24.3l3.5,2.1l17.4-17.4c4.1,4.3-1.7,3.2-4.3,5.5c-1.9,1.7-10.6,12.3-11,14c-0.4,1.9-0.7,4.1,2,3.4c1-3,15.2-18.5,17.4-16.7
			l-12.4,14.6l-8.4,6.9c3.2,4.4,7.3-5,11.1-4.9l-6.3,8.3c2,4.4,2.9,4.2-0.6,8.3c2.9,2.6,16.6-18.6,20.8-19.4
			c0.5,3.3-3.5,4.7-3.8,7.8c-0.2,2,1.4,4.1,0.8,6.5c-0.6,2.4-5,4.4-6.4,7.6c-2.3,5.2-1.4,11.7-4.3,17.9c-1.9,4.2-5.8,7.1-7.4,11.5
			l-6.7-0.7l-2.8,6.4c-7.9-2.8-22.2-10-26.5-17.3c-1.3-2.2-1.1-5.8-1.5-6.2c-0.4-0.4-3.9-0.2-6.2-1.5c-3.6-2.1-7.4-9.5-12.5-11.2
			l-0.6-2l6.9-9.1c-4.8-0.4-7.4,4.9-10.4,7c-2.6,1.8-5,0.7-4.9-0.7c0.1-1.3,18.2-9.9,12.5-14.6c-1.9-1.5-9.1,5.3-10.4,6.9l-1.4-4.2
			l-13.2,9.1c-3,6.3,4.4,1.2,4.9,1.2c1.5,0,2.4,3.7,6.2-0.5l1.4,3.5c-14.3,5.8-23.7,10.1-36.8-0.7c-3.7-3.1-5.5-7.1-8.4-9.7
			c-2.6-2.4-10.9-5.8-11.6-7.9c-1.2-5.1,2.7-10.4,2.7-15.2s-3.2-1.2-3-3.9c0.4-3.7,4.6-6.9,4-10.9c-0.7-4.7-7.1-7.5-8.8-10.8
			c-1-2,0.5-5.7-1-7.9l-8-0.3l8.4-17.3c-0.5-5.4-8.3-3.6-11.2-7c3.1-3.3,7.9-3.8,11.2-6.9c2.5-2.4,4.1-7.6,5.5-8.5
			c2.9-1.9,8.1,3.2,11.9-0.6c4.2-4.2,0-10.1,1.3-15.3c2.1-9.4,9.8-5.9,11.3-8.2c1.1-1.7,0.2-5.2,0.9-7.4c1.7-5.6,11.3-6.7,16.4-6.6
			c-3.7,14.6,4.9,6.6,11.8,6.9c4.6,0.2,8.8,3.2,9.9,7.7l-5,11c4.3,2.6,6.3,10.2,11.1,4.3l-4-8.1c5.1-3.5,3.7-9,1-13.8
			c-4-6.9-15.2-5.7-21.9-3.8c-0.9-0.9,7.4-10.9-10.1-8c-8.6,1.4-13.8,5.7-13.6,14.9c-13.1-1.2-12.6,14.2-11,23.7l-11.6-1.3
			c-2.5,0.8-3,8.1-7.1,11.1c-4.9,3.5-23.5,8.7-24.4,9.7c-0.8,0.9,0.5,5.2,2.1,5.6c2.6,0.5,8.8-8.6,14.6-2.8l-13.6,8.6l-3,12.3
			c4.9,1.2,5-3.3,7.8-5.4c2.9-2.1,6.3-2.7,8.8-5.1l-4.1-3.5l9-4.2c1.9,3.2-4.4,10.2-6.9,12.6c-4.2,4-16.6,8.8-16.1,14.5
			c4.2,2.7,5.2-3.1,9.3-6c1.2-0.9,9.3-5.4,7.4-1c-1.9,4.5-18.4,14.8-18.1,16.7c0.5,2.4,2.7,2.2,4.9,0.7c1.3-0.9,13.6-13.5,14.6-12.5
			l-12.5,16l4.2,0.7v4.2l4.3-0.8c2.2,8.4,7.7-3.1,11.7-6.2c2.3-1.8,5-2.9,7.6-4.2c0.8,3.7-0.3,3-1.7,4.6c-3.5,3.7-14,10.3-13.6,15.6
			c5.5,3,7.2-7.3,12.5-9c0.2,6-5.4,16-4.2,21.3c0.3,1.4,3.6-0.1,2.6,4.1c-1.7,7-9.7,7.4-15.7,6.5c-9-1.5-6.6-11.1-13.2-13.2
			c-4.7-1.5-8.1,1.1-12.6,0.8c-1.2-5.3,6.2-8.8,6.9-9.8c0.8-1.2-1.3-4.1-2-4.1c-1.6,0-9.7,13.1-11,15.4c-1.1,2-1.4,9.7-4.3,8.2
			c-1.6-0.8-13-17.9-16.4-20.4c-12.8-2-15.8-13.3-2.4-17.1c-1.8,10.7,4.9,14.6,13.9,17.4c6.5-2.9,5.2-14.4,7.2-17.1
			c0.7-0.9,4-1.1,5.9-3.1c1.6-1.7,7.6-12.9,2.8-13.8c-5.2-1-0.7,8.1-4.8,10.5l-6.3,0.5c-2.6,5.9-0.6,13.6-5.6,18.1
			c-1.3-3.2-7.4-4.1-8.4-5.5c-1.6-2.4,0-7.3-0.9-10.3c-1.6-5.3-9,2.4-13.7-0.9l2.6-20.7l-8.2-0.2V365c-1.3-1.8-6.8-0.5-5.6-6.5
			l-4.1,1.4c1.3,8.8,9.6,9.2,6.9,19.4h7l-1.3,21.3c-9.4,7-5.6-5-8.3-9.3c-1.3-2-5-1.7-5.5-2.5c-1.3-2.1,1.7-11.2-2.4-12.2
			c-6.2-1.5-16.9,17.6-27.8,5.6c-1.2-1.3-4.3-7.9-4.5-9.5c-1-6.6,1.7-10.9-2.7-19.4c-2-3.9-12-11.5-10-14.3
			c21.8,8.4,11.4-28,25-34.1c2-0.9,4.8,3.7,9.7,1.5c8.1-3.7,5-17.2,18.4-20.6c12.1-3.1,16.6,6.5,21,5.8c4.6-1.5,10.7-7.7,14.8-8.9
			c3.3-1,6.6,0,9.8-1.4c2.2-0.9,6.1-5.9,8.5-6.8c3.2-1.3,7.4-0.3,10.3-2.2c4.2-2.9,1.3-24.8,9.8-28.8c17.8,13.1,19.8-11.4,26.6-15.5
			c16.9-10.1,15.8,11.5,25.2,13.5c12.1,2.6,15.2-18,22.7-22.6c8.8-5.3,17.3,1.4,26.4-1.4c3.7-1.2,10.9-9.9,16.2-13
			s13.6-4.8,17.8-8.6c1.2-1.1,13.9-17.6,14.4-18.9c3.3-8-0.7-19.2,11.6-17c6.3,1.1,13.6,16.2,24.7,10.3c1.9-8.4,1.5-15.5,5.8-23.4
			c1-1.9,12.6-16.6,13.6-17.1c6.4-3.2,11.2,5,15.9,5.1c5,0,11.5-5.9,16.4-5.4c4.3,0.4,4.4,5.3,8.3,7c15,6.6,19.4-16.2,28.2-15.1
			c2.2,0.3,6.4,5.8,6.1-3.2c-13.3-10.8-18.2,13.9-27,15.2c-8.9,1.3-8-7.4-13.9-8.4c-6.5-1.1-12.9,5.2-18,5
			c-4.6-0.2-9.8-7.6-17.8-4.8c-3,1-11.6,17.3-16.6,19.6l-6,23.2c-9-0.9-14.3-12.7-23.4-12.3c-13.2,0.5-7.7,13.3-12.1,21.3
			c-8.3,15-23,18.3-34.5,26.7c-3.1,2.2-7.4,8.5-9.9,9.6c-6,2.8-11.1-2.3-17.2-2c-2.9,0.2-13.1,3.7-15.2,5.4
			c-3.1,2.5-8.6,27.8-17.7,18.9c-3.2-3.2-7.7-18.9-14.2-17.2c-1,0.3-12.6,6.4-13.6,7.4c-4.6,4.2-7.4,19.2-15.3,16.9
			c-4.3-1.3-4.7-6.5-11.2-1.6c-9.1,6.9-7.4,26.5-9.6,28c-8.6-1.2-10.6,4.2-15.5,6.8c-3.9,2.1-10.4,2.3-14.8,4.7
			c-3.1,1.7-6.7,6.8-9.7,7c-2.6,0.2-5.6-5.9-11-6.7c-14.1-2.1-25.1,7-27.2,20.6l-12.4-2c-2.4,4.4-8,8.2-9.8,12.5
			c-3.6,8.5-0.5,34.4-14.5,20.3c-3.7,2.3-6.6,12.2-4.3,15.4c1.3,1.7,4.5,0.5,6.5,2.2c1.6,1.4,8,13.2,8.2,15.1
			c0.7,6.8-6.7,15.2-6.9,22.2c0.2,2.5,8.7-1,9.7-2.1c0.8,6.6,1.7,33.3-2.7,36.7c-10.2,0.1-21.3,1.9-31.3,2.3
			c-29.8,1.1-59.5-2.7-89.1-1.5c-21.9,0.9-43.9,1-65.8,0.7c-21.9-0.2-43.8-0.8-65.7-1.3c-21.8-0.5-43.7-0.9-65.5-0.9
			s-21.8,0.2-32.7,0.5c-5.5,0.2-10.9,0.4-16.4,0.6c-5.1,0.2-10.3,0.1-15.4,0.3c-4.7,0.2-9.4,0.6-14.1,1.2
			c-5.9,0.8-11.7,1.9-17.7,2.3c-3.4,0.2-6.8,0.1-10.1-0.4c-3-0.5-5.6-1.9-8.6-1.4c-7.4,1.3-15,1.8-22.4,2.6
			c-2.2,0.2-4.3,0.5-6.5,0.3c-2.1-0.2-4.1-0.7-6.1-0.8c-2.3-0.1-4.6,0.4-6.8,0.9c-1.9,0.4-3.9,0.4-5.8,0.7
			c-13.5,1.7-27,4.9-40.6,5.2c-10.2,0.2-20.4-2.1-30.6-2c-7,0-30.2,5.6-41.3,7.6c-1.5,0.3-8,0.8-9,0.9c-6.4,0.5-13.1,2.2-19.3,4.5
			c-0.4,3.1-1.6,5-4.5,4.1c-0.9-0.3-1.4-0.9-1.6-1.7c-1.1,0.5-2.1,0.9-3.1,1.4c-11.6,5.5-16.9,13.7-27.3,20.7
			c-2.9-21.2,6.4-42.7,0.3-63.3c15.9-7.6,4-11.4-7.2-9.7c2.6-2.5,8.2-5.3,9.9-8.3c2.5-4.3-1.5-6.1,6.8-12.6
			c7.2-5.7,20.1-6.1,19.5-17.4v-2.8c-1.2-8.6-9.6-12.7-2.2-20.9c5-5.5,12-9.5,13.2-18.8c1.2-9-2.9-10.3-6.1-16
			c-1.4-2.5-2.4-7.7-4-9.3c-1.7-1.7-5.9-0.3-7.6-2c-5.5-5.5-4.3-26-18-27.3c-6.7-0.6-18,30.2-20.6,35.9c-11.4-7.3-8.7-35.3-15.3-43
			c-5.5-6.4-19.5,2.2-27.4-10.2c-2.9-4.5-4.1-14-10.4-16c-2-0.6-15.6-3-17.8-3.1c-18.6-0.8-21.6,27.2-33.4,27.9
			c-6.8,0.4-10.9-10.5-11.5-16.2c-1.3-12.1,7-28.7-5.3-36.4c-10.8-1.8-21.9-3-32.7-4.8c-4.1-0.7-10.6-4-13.9-3.6
			c-1.6,0.2-11.3,5.4-12.8,6.7c-4.6,4.1-8.2,12.5-11.5,17.7c-3.3,5.1-4.6,3.2-7.8-1.1c-3.9-5.3-13.4-35.8-13.4-42.3
			s3.6-13.2,1.5-14.6c-3.8-2.5-7.8,7.5-11.2,10.3c-15.7,12.9-45.1,10.9-62.9,3.3c-10.5-4.5-16.3-16.6-18.7-27.1
			c-2.5-10.9,1.7-20.2-15-22.5c-3.9-0.5-22.9-1.9-26.2-1.5c-8.8,1-13,9.7-17.5,11.8c-14.4,6.7-19.7-28.5-25.6-32.8
			c-5.9-4.3-12.8,3.8-17.5,0.9c-3.7-2.3-4.2-15.3-10.7-17.1c-8.4-2.4-21.3-1.3-29.9,0C820,84.5,796,96.2,786.5,95.8
			c-11.1-0.5-10.4-12.5-16.8-13.8c-6.5-1.3-16.1,2.2-22.1,1.2c-4.3-0.7-7.6-4.1-12.5-4c-4.2,0-12.2,4.6-15.1,3.9
			c-6-2.2-7.9-12.2-11.7-15.1c-2.9-2.2-23.1-8-27.4-8.4c-18.4-1.7-40.3,0.3-45.9,20.9c-12.5-9.3-16-24.7-25.2-36.1
			c-9.1,6-15,15.8-25.6,20.1c-7.1,2.9-14.5,2.7-21.6,4.8c-18,5.4-28.4,18.1-49.6,15c-10.1-1.5-17.7-5.7-24.7-12.9
			c-8.5-8.8-17.3-19.1-21.9-30.9c-3.2-8.3-7.1-32.9-13.5-36.6c-8.3-4.7-17.1,1.1-23.8,1.4c-3.5,0.2-6.4-2.2-9.7-2.6
			c-11.7-1.4-30.5,9.3-43.4,9.2l-49.6,31c-0.8-5.9-5-6.3-8.4-9.7c-8.6-8.9-12.7-18.1-26.6-19.4c-15.4-1.4-13.4,9.3-18.3,19
			c-0.5,1-0.1,2.7-2.4,1.7c-1.2-0.5-10.5-10.3-11.6-12c-4.6-7.3-3.5-17.3-10.9-22.5l-40.1,12.2c-5.1,0-12.5-11.2-20.7-10.9
			c-3.2,0-17.8,6.1-21.3,8c-9.8,5.5-16.5,17-25.5,21.7c-6.5,3.4-11.7,2.5-17.6,4.6c-8.1,2.9-5.7,9.6-17.5,9.5
			c-10.3,0-16.9-7.9-21-7.9s-10.1,3.2-12.4,4.5c-9.4,5.1-11.8,13-16.2,22.1c-2.7,1.9-9.6-11.8-13.8-13.3c-5.4-1.9-21.2-3-26.6-1.4
			C12.5,50-2.4,61.8,0.3,65.2L4.5,66C11,50.1,25.6,54.5,39.9,54.1c9.6,4.4,10.1,24.3,20.2,9.1c6.7-10.1,6-15.9,19.8-20.5
			c7.8-2.6,6.2,1.1,11.1,3.4c6.3,2.9,15,5.6,21.8,3.2c6-2.1,5.6-8,13.5-10.1c6.9-1.8,8.7-0.5,16.1-4.8c16.1-9.3,20.4-22.9,43-28
			c10-2.3,14.5,10.2,22.6,10.3c4.6,0,10-3.7,14.5-5c2.7-0.8,5.6-0.5,8.4-1.3c3.2-1,13.9-6.6,15.9-6.1c6.3,13.2,9.6,32.5,27.2,35.4
			c5.5-7.2,3.6-23,15.8-21.7c13.3,1.4,21.1,14.1,29.2,23.7c2.4,2.8,1.6,7.2,6.9,6.9c4.2-0.2,14.3-10.2,19-13.1
			c7.6-4.8,15.5-9.9,23-14.5c4.8-2.9,42-13.9,47.2-14c4.1,0,7.6,2.7,12.3,2.8c6.8,0,17.5-6.1,23.7-1.6c3.9,2.8,8.9,28.6,11.7,35.6
			c5.5,13.9,22.3,36.1,36.5,41.4c29.8,11.1,39.8-4.2,65.3-12c7.1-2.2,15.4-2,22.5-5.3c5.3-2.5,19.7-17.9,22.4-17.9
			c0.6,6.1,19.2,35.1,22.6,36.2c1.1,0.3,4.9,0.3,5.8-0.2c2.9-8.5,4.9-16.8,14.5-19.6c12.1-3.5,40.5-1.9,51.5,4.8
			c3.9,2.4,5.1,8.4,7.9,11.6c8.6,9.8,14.4,1.1,24.3,2c5.2,0.5,8,4.3,13.9,4.4c5.5,0,11.3-3.7,16.6-2.9c6,0.9,5.7,12.3,15.4,13.8
			c11.8,1.9,27.8-7.7,39.2-10.6c7.4-1.9,37-6.1,41.7-1.5c2.8,2.8,2.5,13.5,9,16.8c5.6,2.7,12.6-5,17-0.4c4.1,4.2,6.4,20.7,13.8,27.9
			c14.4,14.1,19.3-5.3,29.3-6.9c5.6-0.9,9.3,1.2,13.8,1.3c3.5,0,6.5-1.9,11-1.3c14.9,2,11.6,11.8,14.2,22
			c4.1,16.1,11.8,25.9,28,30.4c21.6,6,45.7,7.1,62.8-9.3c0,12.5,5.2,28.9,10.1,40.7c13.2,31.6,18.2,2.5,27.5-6.6
			c2.9-2.8,7.2-4.2,10.8-6c8,2.6,45.6,5.4,49.1,10.1c5.7,7.5-6.7,33.6,7.5,46.7c15.1,14.1,23.9-17.5,34-23.1
			c7.2-3.9,7.7-0.5,13.6,0.5c3.4,0.6,6.9-0.1,10.2,0.9c5.6,1.8,5.3,8.7,7.7,13.2c8.7,16.3,24.5,6.3,29,12.7
			c2.5,3.5,5.2,23.9,7.4,30.1c1.7,4.7,7.8,18.7,14,10.7c4.3-5.5,9-30.5,16.1-31.2c11.9,1.3,11.9,18.9,16,27.8l8.2-1.3
			c1,8.6,9.1,13.1,7.8,22.3c-1.7,12-14.9,14.8-16.9,22.1c-2,7.1,12.7,18.4,2.6,26.5c-4,3.1-11.4,3.4-14.7,5.4
			c-0.5,0.3-8.3,7.9-8.6,8.4c-1.7,2.8,0.3,7-1.4,9.8c-1.1,1.9-17.5,7.3-10.5,11.8c3.2,2,9.2-2.4,7.9,8.1c0,0.3-2.2,4.9-2.4,5.1
			c-1.4,1.4-2.2-5.7-5.5-4.2c-4,8.7-26,28-26.5,36.8c-0.2,2.8,0.4,2.3,2.8,2.1c2.3-6.3,7.7-13.9,11.9-19.4c3.7-4.8,8.7-12.2,14.5-14
			c1.6,1.4-23.7,27-25,34.1c-0.4,2-0.8,4,2,3.4l22.9-32.3l9.7-8c-1.2,7,3.8,16.7-4.8,18.1l-27.2,33.3l16.1-24.9
			c2.8-4.6,13.6-10.8,13.1-16.1h-2.8l-33.1,40.5l-0.2,3.3h4.2l-4.1,6.3l3.4,2.1c2.9-2.4,31.5-43.8,34.1-40.3v9.7l-5.6-0.8
			l-31.9,40.5c1.2,5.2,2.9,2.8,5.6,0c10.4-10.9,17.2-28,30.5-36.9l-4.2,9l-33.3,39c1.3,4.9,2.2,3.3,4.9,0.7
			c2.4-2.3,29.7-41.2,32.6-37.6c1.4,5.9-2.8,3.1-5.4,6.4c-7.8,9.9-14.7,21.3-23,31.2c-2.3,2.8-6.5,1.9-5,7.4c0.4,1.6,3.4,0,2.8,2.2
			l-23.6,5.6l4.2-7.6l-4.2-2.8l8.3-2.1c1.6-14.9-0.9-68.4,8.8-77.4c3.1-2.9,19.3-7.9,14.3-14.4l-7.7-3.4
			c6.8-12.8,42.5-51.4,11.1-53.5l1.4,4.8l6.4,2c5.1,9.2-28.4,47.8-24.5,51.5c3,0,7.2-0.8,8.3,2.8l-11.8,7c-4.3,0.9,0.7-4.3-0.7-5.5
			c-2.1-1.9-5.7,1-5.6,4.8c0,2.3,1.6,4.8,1.5,7.1c0,4.4-2.2,8.6-1.5,13.1l-5.5-4.2c-5.8,10.2-14.9,18.8-23.6,26.4
			c-0.6-5.6,17-18.2,16.7-20.1c-2.5-3.1-2-1.8-4.2,0c-5.7,4.5-11.4,11.7-16,17.4c-4.6-5.6,4.3-8,7.7-11.7
			c9.2-9.8,13.7-27.4-4.2-28.6c3.2-8.1,13.4-14.4,0-18.8l11.1-13.9c-2.3-8.6-5.7-10.5-12.5-15.3c8.9-6.5,5.4-7.6,5.7-15.1
			c0-3.9,4.4-10.7-2.2-12c-5.9-1.1-13.8,1.1-20.2-1.4c1.6-8.6,12.3-12,9.5-23.4c-12-5.7-22.4-13.9-35.3-18.2
			c-10,7-16.5,10.9-4.8,20.8c-14.7-3.3-29.8,5.8-44.7,8.8c-7.6,1.5-12.7,1.5-20,2.3c-12.1,1.3,2.3,7.7,4.9,10.5
			c4,4.1,8.1,10.5,12.7,15.1c1.8,1.8,2.1,2.9,5.4,2.3c-3.2-9.4-12.9-15.1-18.1-23.6c4.1-1.5,8.4-1.1,12.6-2
			c10.4-2.3,28.2-9.6,36.9-10.4c5.9-0.6,8.2,2.9,13.5,2.6l3.5-5.9l-8.1-8.5c5.6-9.6,14.1-4.1,22.1,0.2c2.9,1.6,13.8,8.7,14.1,11
			c1.9,7.4-10.7,12.1-7.8,18.7c2.8,6.3,17.2,5.8,23,5.6c-1.5,4.3-0.6,10.5-1.7,14.3c-0.9,3-5.8,4.8-5.3,10s7.9,5.5,9.1,7.6
			c0.6,1.1-0.8,3.3-0.7,5c0,1.8,1.2,3.5,1.2,4.2c0,2.4-21.8,14.1-2.6,16.6c0.7,5.3-6.3,9.4-8.3,13.9c2.8,3.8,7.8,1.6,11,4.1
			c6.7,5.2,4,11.8-0.2,17.9c-2.9,4.2-17.3,15.3-22.1,18.2c-4.8,2.9-9.5-0.4-9.6,9.2c-8.7-3.4-15.3,11.4-22.2,16l2.8,4.1l-6.9,8.3
			l5.5-0.7c0.5,0.7-3.1,6.1,2.8,5.6c3.4-9,12.1-17.3,19.5-23.6c-0.4,3.2-3.6,6.5-5.6,9c-3.1,4-16.8,18.3-17.8,21.2s3,10.2,6.7,8.7
			c-0.9,3.5-6.8,6.5-2.1,9.7c9.4-11.6,16.7-25.2,28.5-34.7l-1.6,17.8c-6.9,1.7-14.1,9.8-15.1,16.9c-3.1,0.4-3.4,0-2.2-2.9
			c2.4-5.8,18-20.7,17.5-22.8c-1.7-7.5-7.1,4-7.7,4.8c-5.7,7-14.5,14.1-15.8,23l-14,3.5c2.6-7.7-0.8-14.1-0.9-21.3
			c0-8.2,1-18.7,1.8-27c0.2-2,1.9-5-1.7-4.4c-4.9,7.7-3.2,17.8-3.5,26.4c-1.3-0.4-2.8-1.6-4.1-0.8c-5.2,3.1-14.2,24.6-20.9,29.3
			c1.1,6.3,5.1-1,6.9-2.1c2.2,8.1,3.3,1.2,7-1.4v5.4c-5.3,0.6-10.8,2.9-16,3c-2.2,0-2.4,0.3-2.1-2.1c7.7-10.2,13.9-22.5,21.6-32.6
			c1.6-2.1,4.7-3,5.5-4.2c1-1.6,1.8-6.8-1.4-5.5l-30.2,45.6l-12.3,1.6c-2.2-2,18-29.5,21.5-32c2.1,1.3-0.7,4.1-1.5,5.4
			c-2.7,4.6-13.3,16-13.9,18.1c-1.7,6.2,2.8,3.7,5.6,0c8.5-11.3,16.7-32.5,24.4-40.8c1-1,2.4,0.2,3.5-0.7c4.9-4.2,2-8.7,2.8-9.9
			c1.1-1.9,9-3.1,2-8.9c-2.1-1.8-6.6-1.9-7.7-3.5c-1.4-2.1-0.3-7.1-0.9-10.2c-1.3-6-9.4-8.5-15-7.9c-0.4-8.3,9.2-12.7,9.8-21.6
			c0.6-9.1-6.7-12.7-7-18.1c-0.3-5.5,4.5-14,2.2-21.5c-1-3.1-4.5-5.1-6.1-7.8c-1.3-2-1.4-4.6-3-6.8c-0.7-0.9-10.5-10.7-11.2-11.1
			c-2.1-1.3-4.7-0.7-6.9-0.7c-3.4,3.3,11.8,10.2,13.9,13.2c1.5,2.1,1.7,4.8,2.9,6.8c1.8,2.8,6,5.4,6.5,8.8
			c0.8,5.2-3.4,14.2-2.5,20.5c0.8,5.7,7.3,9.2,7,16.8c-0.5,11.5-25.4,21.1,3.7,27.5l2.4,15l9,4.8c-7.9,8.1-19.4,13.7-30.9,11.5
			c-2.9-0.6-7-3.8-8.4-3.6c-1.5,0.2-14.3,9.3-16.7,11.1c-3.1,2.3-3.1,6.7-9.2,5.4l-4.2,43l-5.6-2.2l9.8-92.4
			c5.8-0.9,20.6-2.7,23.7-7.6c5-7.7-3.3-9.4-4.1-12.9c-0.8-3.1,5-6.3,1.9-12.9c-0.3-0.6-8-9.4-9.1-10.4c-3.2-2.9-7-5.3-10.8-7.4
			c-1.9-1-4.1-1.6-5.9-2.7c-1.4-0.8-2.5-2.8-4.5-2c-6.5,2.6,7.8,7.9,9.1,8.8c10.5,7.1,23.1,14.6,13.7,28l6.7,8.5
			c-0.6,2.7-23.6,10.9-27.1,4.9c-5.5,3.7,0.6,7.7,0.7,10.5c0,4.4-13.8,4-18.8,7.6c-9,6.4-5.9,25.1-23.6,12.5c-3.5,2.3,0,4.7-2,7.7
			c-4.8,7.4-17.6,14-23.1,21.5c-2.3-1.4,0.5-3.1,1.4-4.2c2.6-3.1,6.7-6.9,9.7-9.7c4.4-4.1,10.7-4.5,9.1-11.1c-4.2,0.7-4.9,4.6-7.5,7
			c-4.2,3.8-19.1,15.4-21,19.5c-0.9,2,0.3,3.6,0,4.8c-0.4,1.9-2.7,2.5-2.1,4.9h4.2l-2.9,6.3l2.8,1.4l-6.9,6.3c0-4,0-25.7,1.6-27.6
			c0.4-0.5,3.3-0.3,4.7-1.5c6.4-5.5,11.5-18,21.6-18.9l-2.1-4.8c-7.6,7.5-18.2,13.9-23,23.6l-1.4-8.3c3.5,4.4,15.2-9.9,13.9-11.1
			c-5.8,0.4-9.2,6.2-13.2,9.7c0-1.5-0.3-3-0.4-4.5c0-0.6,0-1.7-0.2-2.3c-0.6-1.4-2.5-2.2-2.9-3.7c-0.5-1.5,0.2-3.8,0.6-5.2
			c0.9-3.3,2.4-6.5,2.4-10s-1.2-2.9-3.5-2.1c-2.4,0.9,0,14.9-2.8,18c-1.2,2-6,2.5-7.8,4.8c-1.7,2.1,1,4.6-1.9,6.3l-4.9-2.1
			c-2.8,7.4-18.3,16.7-20.6,22.5c-1,2.6-0.4,3.9,2.6,3.3c0-4.1,20.7-25.3,22.3-23.6c0.6,2.6-1.4,3.3-2.8,4.9
			c-5.6,6.7-18,17.6-21.6,24.3c-1.1,2.1-1,3.8,1.4,2.8c2.2-0.9,17.5-21.4,20.8-25.1c1.8-2.1,5.1-3.1,6.5-4.8
			c1.7-2.1-0.9-8.1,5.4-7.7l-6.2,46c-6.1,0.3-6.8,9.3-11.9,7.6l9.7-11.8l-12.5,8.3c-0.9-0.9,5.8-9.2,6.9-10.4c1.8-2,13.8-8.7,2.8-9
			l6.9-9.1l-4.2-2.1l4.1-6.3c-4.2-5.9-8,5.7-11.1,9.7c-3.4,4.3-18.2,18.4-19.2,21.1c-1,2.6-0.4,3.9,2.6,3.3l22.3-26.4
			c-3.9,9.9-13,18.5-20.1,26.5c-2.2,2.5-7.2,2.6-4.2,6.9l4.8,0.6l-16.7,3.5l12.2-90l-3.2-3.1c-3.4,0.7-1.8,11.5-2.1,14.6
			c-1,9.8-3,19.5-4.1,29.2c-0.4,3.2-0.8,23.3-1.6,24.2c-0.4,0.4-2.6-0.4-4.1,1c-1.1,1-2.4,4.8-4.1,6.7c-2.4,2.8-12.4,12.6-13.2,14.7
			c-0.7,1.5,0.3,2.8,0.8,4.1h-7c4.5-8.3,24.6-25,26.4-32.7c0.4-2,0.8-4-2-3.4c-6.2,9.9-14.1,20.7-22.2,29.2
			c-3.2,3.3-6.9,8.7-11.8,8.3l34.8-42.6v-3.8l-2.8-1.6c6.5-4.5,2.5-5.8,1.3-11.7c-5.4-1.4-3.6,1.8-5.6,4.5
			c-9.4,12.7-20.3,24.2-31.8,35l1,3.5l3.1,0.7l-5.5,5.6l2.1,3.4l30.6-34.7l0.7,2.1l-35.5,41c-3,0.6-2.1-1.4-2.1-3.5
			c0-7.9,3.2-17.5,2.8-25.7l4.1,0.8c8.4-12.6,18.9-23.9,30.5-33.6c-1.3-1.8-2-4.5-2.7-7l-3.9-1c0.4,5.8-7.9,4-13.3,6.2
			c-3.5,1.4-5.9,4.2-8.5,6.8l-0.7-4.1h-5.5l1.4-5.6l-3.5,1.4l-11.8,65.3h-5.6c1.4-1.5,1.4-5.6-0.7-5.5c-1.4,0-1.6,10.9-6.2,6.9
			c-1.2-1.1,11.6-17.5,13.9-18.8l-3.4-2.1c-2.5,4.6-12.3,13-14,16.7c-0.7,1.5,0.3,2.8,0.8,4.1c-9.2,1-19.1,2.2-28.1,4.6
			c-8.2,2.2-14.5,5.7-21.9,9.3l24.9-42.5l-4-3.3c-5,16-15.8,29.2-24.3,43.2c-1.1,1.7-0.5,4.7-1.5,6.8c-0.8,1.6-12.3,13.6-13.1,12.6
			c4-11.8,12-21.8,18.3-32.4c5.2-8.9,7.5-18.8,16.4-25.3l-3.5-3.5L805,575.1l2.2,5.5l-13.9,5.6l39.7-63.9l-1.5-4.2l-4.2,5.5
			c-0.6-10.4-9.6,1.9-11.6,5.1c-13.9,21.9-24.6,43.1-42.6,63c-7.5,8.3-11.8,14.2-24.3,13.9c0.6-4,2.4-7.7,2.8-11.8
			c0.7-7.4-0.2-31.7,2.1-36.8c0.4-0.8,10.5-13.3,11.2-13.9c1.7-1.5,4.2-1.9,6.2-2.8l-11.8,13.9l1.4,5.5l18.8-20.8l-22.2,29.9
			l4.2,1.4c7.2-11.4,15.1-23,23.6-33.4c3.9-4.8,10.4-6.3,9.7-13.2l-5.6,2.1c4.1-13.7,21.3-8.1,27.5-21.2c3-6.3,1.4-20.1-3.9-24.7
			c-7.7-6.5-42.3-8.6-44.3-15.6c-2.2-7.6,23-26,26.6-36.9c1.9-5.7,0.4-10.1,1.2-15.5c0.7-4.7,3.8-8.9,3.9-13.7
			c-1.5-6.1-14.5-3.1-19.3-3.8c4.2-6.9,14.4-10.9,14-20.1c-0.5-12.2-20.7-14-22.2-19.8c2-8.6,6.9-12.1,5.3-21.9
			c-1.6-10-24.6-19.9-33.7-17.2c-7.9,2.4-4.2,20.2-12,22.8c-6.3,1.3-37.3-4.9-40.4-3c-1.8,1.2-1.4,3.1-1.4,4.9l6.1,0.2h3.8
			c9-3.3,37.8,7.6,41.3-4c1.2-3.8,0.4-16.6,5.4-18.3c5.2-1.7,22.1,6.7,25.5,11.6c6.8,10-6.1,17.4-4,24.7c2.7,9.2,30.8,11.3,20,26.1
			c-4.4,6.1-14.4,8.2-13.3,16.6c0.6,0.6,14.4-0.5,17.4,0c7.2,1.3,0.4,9.1-0.4,13.5c-2.3,13.7,2.4,14.1-8,26.8
			c-4.8,5.9-28.8,23.7-17,30.9c16.8,10.1,52.5,3.3,46.8,32.3c-2.2,11.1-18.6,9.8-23.6,14c-2.5,2.1-4.1,8.5-6.4,11.7
			c-6.2,8.7-14.3,13.9-23.5,5.7c-4.4,3-0.2,4.3,0.4,6.6c1.3,4.8-2.8,8.5-6,11.4c-2-2.8,3.1-7.6-1.4-9.7c-5.2-2.5-3,5-3.5,5.5
			l-17.9-0.2l-4.6-14.9l-5.4-0.2c0.3,5.5,4.2,7,4.3,13.2c0,2.9-1.5,16.4-3.6,17.4c-2.2,1-3.3-6.3-5.8-6.9l-8.7,4.2
			c0.7-4.7,4.3-13.8-2.1-15.3c-1.5-0.3-3.3,0-4.9,0v4.2h4.2c0,9.6-10.6,8.4-16.7,11.9l-15.6-31c-14.9-7.5-15.8,15.9-21.5,25.7
			c-1.2,2-3,2.4-4.4,4.1c-3.8,4.4-3.9,9-13.2,7.5c-4.3-4.8-1.6-11.3-0.9-16.7c-2.3-2.2-12.5,8.6-16,9.7c-4.1,1.3-1.1-7-2.1-8.3
			l-4.1,2.8c-0.5-4.8-0.4-28.8-6.3-29.2c-4.7,3.3,1.9,6.9,0.7,11c-8.2,1.2-13,9.5-19.4,14c-2.4-2.5,14.3-15.1,16.7-16l-4.2-4.2
			l4.2-4.9c-6.3-1.7-7.3,4.9-12.5,5.5c-0.9-4.4-4.1-16.7-10.2-15.1c-4.3,1.1-10,13.5-13.1,15.2c-2.7,1.6-8.1,0.7-9.6,2.6
			c-0.9,1.2,1.1,5,0.2,8.4c-0.9,3.5-4.4,7.3-7.1,9.7l-3.5-4.2l-1.4,4.2c-2.7-5.9-4.1-16.9-12.5-16.7c-2.3,2.3,7.9,11,7.1,15.8
			c-0.2,1.2-2.8,1.2-3.5,2.3c-1.1,1.9-0.9,4.4-2.1,6.3c-7.8,12.7-19.9,24.4-29.3,36.1c-1.3,2.2,7.2,4.4,7.6,4.4
			c2.1-0.2,23.4-30.2,25.1-34.1c0.4-1,0.8-1.7,0.6-2.9l-2.8-0.7l5.5-6.3v20.9l-2.8-0.7l-0.7-3.5c-4.1,6-9.3,11.2-13.8,16.8
			c-5.1,6.3-5.5,14.2-16.1,12.4v4.2l23.6-5.6l5.8-1.2c2.5,0,6.8-2,8.7-1.5c2.4,0.7,1.1,5.5,5,4.1v-4c3.5-1.6,12.1,3.4,13.9-0.8
			l-5.5-5.4l12.4-12.7l-2.1-3.4l-7,6.9c-2.7-3.8,14.2-13.2,10.4-16.7h-4.2l4.2-8.3c-5.5-1.3-4.2,3.2-6.9,6.3c-2.8,3.2-6.2,5.9-9.1,9
			c-1,0.2-0.9-1.5-0.7-2.1c0.4-0.8,10.1-11.4,11.8-13.2s6-3.2,7-5.6c1-2.4-0.7-4.3-0.3-6c1.2-6,6.5-9.6-4.6-12.7l7.6-9l-2.1,68.1
			c1.7,2.3,2.5,0,2.8-2.1c0.9-7.3-0.7-16.1,0-23.6l4.1-42.4l-1.4,76.4l-9.7-2.8v4c7.3,1.7,47.7,16.4,51.4,12.6l4.3-11l3.5,5.5
			c3.2-2.4,4.9-6.2,7.6-9.1c0.7-0.7,11.5-8.2,6.3-9c-6.9-1-4.9,4.5-10.4,7l11.1-18.8l-3.5-0.7c-6,10.9-13.2,22.1-23.6,29.2l-0.7-2.1
			l24.3-28.6l4.9-9.7v38.2c0,0.8-2.9,2.7-4.2,2.1l1.4-5.5c-4-2.1-12.7,9.3-11.1,11.1c3.7,0,8,2.4,11.6,1.4c1.1-0.3,0.9-2.8,1.7-2.8
			c4.2-0.2,14.5,2.5,19.5,2.7c39.9,1.2,79.5,5.8,115.8-14.6c7.9-4.4,28.4-14.3,33.9-18.9c3.9-3.2,5.9-7.6,9.9-10.9
			c19.9-16.3,60.1-15.8,84.9-18.1c23.4-2.2,49.3-3.9,73.5-7c3.4-0.4,6.6-1.8,9.8-2.7l2.8,2.9c10.2-7.5,32.9-9.4,44.5-4.1l2.7-2.9
			c4.6,1.5,9.8,4.1,14.4,5.2c7.8,1.9,20.3,1.3,24.7,8.8h2.7c2.4-6.5,7.2-3.6,12.5-4.2c39.5-5,69.9-14.7,107.7-24.4
			c28.9-7.4,57-5.8,77.9-30.6c12-14.2,18.6-21.8,32.7-34.1c8-7,25.1-10.9,36.4-11.1c0,0,0-0.1,0-0.2c2.5-0.2,6.3-0.5,6.8-0.7
			c9.5-2.6,35.4-8.8,42.7-8.9c9.5-0.1,19.7,2.5,29,2.3c9.1-0.2,19.1-3,28.1-3.6c3.4-0.2,6.8,0,10.1-0.5c3.5-0.5,7-0.9,10.5-1.4
			c3-0.4,6.1-0.8,9.1-1.1c1.3-0.1,2.7-0.3,4-0.1c1.2,0.1,2.4-0.1,3.6,0c1,0,2,0.3,3,0.3c6.6-0.2,13.2-0.9,19.6-1.2
			c6-0.2,12.3,0.2,18.4-0.4c4.2-0.4,23.8-1.9,27.9-2c2,0,3.8-0.2,5.4-0.3c16.7,0.7,35.3-3.2,52.4-3c71.6,0.8,143.7,9.4,215.4,2.8
			l62.6,2.6l53.9-2.2l24,13.7c1.7,13.7,0,34.1,11.7,43.8c4.7,3.9,15.7,6.2,21.9,10.1c9.3,5.8,14.8,12.4,26.3,16.8
			c12.9,4.9,17.8,2.1,30.2,2c4.7,0,3.1,0.3,8.6-0.4c7.6-0.9,28.6,11.3,39.5,13.3c4.6,0.8,9.2,0,13.1,0.8c7.1,1.4,33,6.1,37.4,8.4
			c2.9,1.5,2.1,4.9,4.4,6.7l5.3-4c6.8,3.3,13.2,7.3,19.9,10.8c7.5,3.8,12.7,1.9,13,12.7l2.8-5.6c20.8,4.4,39.6,6.4,58.8,16.6
			c5.2,2.8,4.1,1.8,8.9,3.8c12.8,5.4,30.5,17.4,43.5,24.8c6.5,3.7,14.1,5.5,20.2,10.4c4.6,3.7,15.4,21,18.8,9.7
			c-5.7-0.4-8-4.9-10.9-9.1L2353.9,612.5L2353.9,612.5z M2239.7,425.6l-1.4-8.3C2243.4,417.3,2246.5,425.7,2239.7,425.6z
			 M2078.4,395c-0.7-3.4,2.9-3.7,4.9-5.6l0.7,2.7l-5.5,2.8l0,0L2078.4,395z M2079.8,386.6v-1.4l3.5-1.4
			C2087.1,387,2083.8,388.4,2079.8,386.6L2079.8,386.6L2079.8,386.6z M1186.1,468.6c-1,2.3-3.1,4.6-5.6,4.1
			C1181.5,470.4,1183.6,468.1,1186.1,468.6z M1172.2,488c-0.6-2.6,1.4-3.3,2.8-4.9c3.7-4.4,10-11.1,15.3-13.2L1172.2,488L1172.2,488
			L1172.2,488z M1186.1,499.1c-0.5-2.5,1.9-4.6,4.1-5.6C1190.7,496,1188.3,498.1,1186.1,499.1z M1172.2,507.5l16.7-24.3l5.5-4.9
			C1190.7,489.8,1181.4,499.9,1172.2,507.5z M915,527c-1.4-1.6,5.2-7.7,6.9-8.3C923.5,520.5,915.4,527.5,915,527z M923.4,517.2
			c0.9-3.5,4.6-7.5,7-10.4c3.7-4.6,8-9.3,12.5-13.2C939.7,502.8,930.8,510.9,923.4,517.2L923.4,517.2L923.4,517.2z M587.6,533.9
			l3.5,3.5l-4.1,3.5l0.7-6.9L587.6,533.9L587.6,533.9z M517.5,586.7c-0.5-2.5,1.9-4.6,4.1-5.6C522.1,583.6,519.7,585.7,517.5,586.7z
			 M524.4,595.1l2.8-5.5h1.4l1.4,3.5c-1.5,2.2-3,2.4-5.5,2.1L524.4,595.1L524.4,595.1z M541.1,592.3l-8.3-0.7l9.7-11.8L541.1,592.3z
			 M548,590.9h-4.2l1.4-37.5c0.9,0,2.8,1.8,2.8,2.1v22.2C548,579.6,548.7,590.2,548,590.9z M563.3,533.9l5.5,1.4
			c1.4,1.9-6.3,8.7-8.3,9.7L563.3,533.9L563.3,533.9L563.3,533.9z M550.8,570.1c2-0.5,1,1.1,1.9,2.2c0.8,0.9,2.6,0.2,2.2,1.3
			l-4.2,3.5L550.8,570.1L550.8,570.1L550.8,570.1z M568.9,564.5c-1.4,5.3-7.8,12.6-11.8,16.7c-1,1.1-5,5.6-6.3,4.1
			c-1.7-1.9,0.7-3.4,1.7-4.6C557.6,575.2,563.3,569.6,568.9,564.5L568.9,564.5L568.9,564.5z M560.5,560.3c0.7-4.6,6.3-8.3,9.7-11.1
			C569.5,553.8,563.9,557.5,560.5,560.3z M553.6,560.3c1.6-4,6.1-9.4,9-12.5c2.7-2.9,5.7-6,9-8.3c-2.2,8.6-11.8,14.8-18,20.9l0,0
			V560.3z M620.3,561.7l-4.2,4.2v-4.2H620.3z M617.1,569.9c0.8-1,10.7-8.9,11.6-8.2l1.3,4l-13.8,9.9
			C616.2,573.4,615.5,571.9,617.1,569.9z M621.7,583.9c-0.4-2.9,3-5.5,5.5-6.9C627.6,579.9,624.2,582.5,621.7,583.9z M607.8,536.7
			c-0.5,2.9,1.9,8-2.8,6.9c2.6-4.3-2.2-2.7-2.8-5.5L607.8,536.7L607.8,536.7L607.8,536.7z M591.2,564.9c4.2-4.3,8.1-10.5,13.2-14.3
			l0.7,7c-5.2-5-16.3,15.4-19.5,12.5c0.4-4.4,4.1-3.6,5.6-5.1l0,0V564.9z M599.5,564.5l4.9-4.1l0.7,9.7c-3.5-1.9,1.6-7.1-5.5-5.6
			L599.5,564.5L599.5,564.5z M587.6,572.8v13.8l-2.1,4.2c0-4.4-0.2-8.8,0-13.2C585.5,575.8,584.4,571.7,587.6,572.8z M617.5,607.6
			l-19.4-4.2c-0.9-3.9,6.7-5.1,2.1-8.3l-8.3,5.5l-6.3-4.8l6.1,2c3.2-3.7,15.8-11.6,7.8-14.5l4.1-4.2l-4.1-3.5l5.5-2.8
			c0.2,8.1,0.6,16.3,0.2,24.5c-0.2,2.8-0.2,2,2.6,2v-44.5c1.8,0.2,3.8,4.9,4.2,6.2c2.4,8,1.6,20.6,1.4,29.3c0,4.6-3.3,9.9-0.2,14
			C614.4,605.9,617.7,605.4,617.5,607.6L617.5,607.6L617.5,607.6z M623.8,592.3c-1.2,1.3-7.5,8.4-9.1,6.9
			c3.7-5.5,8.2-10.8,12.6-15.9c1.9-2.2,3.8-6.7,6.9-6.3C632.4,582.1,627.5,588.4,623.8,592.3z M630.1,574.2
			c-0.5-2.5,1.9-4.6,4.1-5.6C634.7,571.1,632.3,573.2,630.1,574.2z M739.9,549.2c-0.5,1.7-7,8.5-8.3,6.9v-7L739.9,549.2L739.9,549.2
			z M731,573.2c3-3.8,8.7-10.7,12-13.9c1.8-1.7,5.7-0.9,6.5-5.3c-1.5-1.7-1.7-2.7-4.2-1.4c-3.9,2-10.2,11.7-14.6,14.6
			c-4.1-8.6,16.2-9.9,11.8-19.4l5.3,0.2c1.5,3.6,4.7,8.6,2.4,12.4c-0.8,1.3-3.4-0.2-5.6,1.1c-5.8,3.6-9.7,13.3-16,16.8
			c-1-3.7,1.1-3.6,2.3-5.2l0,0L731,573.2z M748.2,563.1l1,6.6l-23.3,22.6C728.3,579.6,741.5,572.9,748.2,563.1L748.2,563.1
			L748.2,563.1z M717.6,557.5l-5.5,5.5C711.8,560,714.9,557.1,717.6,557.5z M720.4,561.7c-2,6.1-9.2,11-13.9,15.3
			C708.5,570.9,715.7,566,720.4,561.7z M711.3,579.7c1.2-1.1,10.1-14.5,11.9-12.4l-1.3,7.4l-16.7,14.9c-1.8-8.7,2.9-6.7,6.2-9.8
			h-0.1L711.3,579.7z M699.5,561c0.3-1,4.6-4.6,5.6-3.5v4.9l-5.6,32.6C701.1,586.1,697.3,568.7,699.5,561L699.5,561L699.5,561z
			 M681.5,554.7l-1.4-2.8c-6.8-2.8-15.4,13.9-22.2,15.3v-5.6c1.3,0.4,2.8,1.6,4.1,0.8c2.2-1.3,11.4-15.3,14.7-16
			C679.7,545.7,682,552.2,681.5,554.7L681.5,554.7L681.5,554.7z M675.9,557.5L663.4,570C664.8,565.3,671,558.9,675.9,557.5z
			 M662,571.4l-4.2,4.2V570L662,571.4L662,571.4L662,571.4z M667.6,531.1c0.5,2.5-1.9,4.6-4.1,5.6
			C663,534.2,665.4,532.1,667.6,531.1z M662.1,551.3c4.4-5.2,22.5-18.2,4.1-10.5c-0.4-0.3,4.4-8.7,6.9-6.9c-0.2,2.1,2.3,3.8,2.6,5.2
			c1,4.9-14.9,15.4-17.1,21.2C654.9,558.6,660.7,553,662.1,551.3z M657.9,577l5.3,1.2c4-6.7,10.1-16.7,18.3-17.9v-2.6l2.1-0.2
			c1.7,2.1,5.7,3.7,3.9,6.5c-7.5,7.9-14.6,16.7-22.6,24.1c-2.2,2.1-4,6-8.3,5.6L658,577L657.9,577L657.9,577z M650.9,604.1
			c2-11.6-2.6-32.8,0-43.1c0-0.5,1.9-2.1,2.8-2.1l1.4,44.5c2.9,0.3,0.6-4.6,1.4-5.6c0-0.2,2.4,1.9,4.9,0.2
			c2.9-2,10.5-13.3,13.8-16.9l16-14.6c-8.2,14.8-21,26.7-32.3,39.3L650.9,604.1L650.9,604.1L650.9,604.1z M664.8,606.2l31.3-37.5
			l0.5,8.2c-0.3,0.4-2.5-0.3-4,1.1c-7.2,6.5-13.4,19.9-22.1,26.2c-1.9,1.4-2.9,2.6-5.6,2H664.8L664.8,606.2z M695.4,603.4
			c-0.6,0.5-3.5-1.5-4.7-1.2c-2.3,0.5-2.8,7.2-7.8,5.4c1.1-5.9,10-7.2,11.1-11.8c0.5-2.1,0-2.4-2.1-2.1
			c-6.9,1.2-11.1,15.7-18.7,13.9l17.3-20.9l5.6-4.1c1.6,2.8,0.5,19.8-0.7,20.9l0,0L695.4,603.4z M741.9,603.4
			c-2.1-0.9,3.1-7-1.4-5.5c-5.4,1.7-9.1,10.1-11.4,10.9c-7.3,2.5-22.9-1.4-31.1-1.2c0.9-2,2.5-3.9,4.1-5.4l0,0
			c0-1.6,1.6-6.9,2.8-7.8c1.6-0.8,3.9-1,5.6-0.6c2.1-2.7,2.7-7.8,6.9-10.5c2.1-1.3,3.1-1.3,2.8,1.4c-0.7,6.1-6,15.3-11.1,18.8
			l2.1,2.8l2.8-1.3l9-15.4l-4.1,15.3l6.9-4.2c-1.3,1.5-1.4,5.7,0.7,5.5c1.4,0,8.2-11.3,10.4-13.2c3.3-2.9,10.8-3.8,7.7-9l-6.9,4.2
			c-2.9-2.4,11.1-11.9,11.8-11.1c-2.7,9.2,1.7,20.2-7.6,26.4l0,0V603.4z M789.2,586.8c-0.5,0.9-14.8,12.1-16,11l35.1-47.6
			c7.4-7.7,7-20.7,17.8-24.6c2.8,3.6-13.2,21.6-15.6,25.4c-4.6,7-8.3,14.8-13,21.7c-2.2,3.2-7.5,7.2-8.3,8.5
			C788,583.2,789.9,585.6,789.2,586.8L789.2,586.8L789.2,586.8z M916.4,504.7c2-5,6.9-12.6,12.5-13.9L916.4,504.7z M924.7,484.5
			c2.4-0.6,6.6,1.3,9.8-0.6l-3.5,5.6l-1.4-2.8h-2.8c-1.3,2.7-19.2,16.8-16,19.5l4.2,0.7l-6.9,7.7c-2.4-8.2,9.1-28,16.6-30l0,0
			L924.7,484.5z M895.9,540.5c0.7-7.2,4.7-18,6.2-25.8c1.4-7,1.5-15.1,3.2-21.8c0.5-1.9,0-4.3,2.8-4.9c2.5,6.7-1.3,11.7-2.4,17.8
			c-2.4,13.5-3.8,27.3-7.4,40.6c-2.4,0-2.6-4.3-2.5-5.9L895.9,540.5L895.9,540.5z M945.6,539.5c-2.9,0.5,0.3-5.6-3.4-4.1
			c-3.4,1.3-3.2,11.1-10.4,7.6l18.1-20.2L945.6,539.5L945.6,539.5L945.6,539.5z M967.8,535.3c2.9-7.4,9-14.7,15.3-19.5
			c-0.4,3.2-3.6,6.4-5.6,9C974.8,528.4,971.5,532.8,967.8,535.3L967.8,535.3L967.8,535.3z M998.4,512.3c0,1.8-0.2,30.5-5.5,24.4
			c1.2-15.8,2.5-32,4.3-47.8c0.2-1.5,0.5-6.5,2.6-6.4c-0.3,8.5,0.5,17.2,0,25.7C999.8,508.8,998.5,510.5,998.4,512.3z M999.8,535.3
			v-5.6l4,1.6l0.2,4H999.8z M1037.3,483.9c0.3,3-2.8,5.9-5.5,5.5L1037.3,483.9z M1031.1,495c1.6-1.3,2.3-3.4,4.9-2.8
			c0.6,0.6-9.9,12-11.1,13.2c-3,3.1-6.8,8.1-11.2,9C1012.6,513.3,1029.1,496.6,1031.1,495L1031.1,495L1031.1,495z M1008.2,533.2
			l29.2-28.5c0.6,2.6-1.4,3.3-2.8,4.9c-6,7.1-14.1,12.9-20.4,19.2C1012.8,530.2,1013.4,536.4,1008.2,533.2L1008.2,533.2
			L1008.2,533.2z M1017.9,532.5l3.5-4.1l0.7,4.2h-4.2V532.5z M1040.8,529.8l-4.9,1.3c7.2-10.1-2.8-10.3-4.4-0.2l-5.3-0.5
			c4.1-2.9,7-8.2,10.1-11.4c2.2-2.3,6.6,0,5.2-6c-4-3.8-12.5,10.7-16,12.5c-1,0.2-0.9-1.5-0.7-2.1c2.1-4.7,15.7-13,17.4-16
			c2.6-4.6-2.1-4.2-2-4.8l1.3-5c-3-3-10.5,9.6-12.6,11.7c-1.6,1.6-17.1,15.6-17.9,14.7c-0.6-2.6,1.5-3.3,2.8-4.9
			c7.4-8.8,17.7-17.5,26.5-24.9c4-5.8-1.8-4.8-1.5-5.6c5.4-2.1,1.2-9.1,6.9-9c2,17.5-3.5,32.9-4.8,50.1l0,0L1040.8,529.8z
			 M1062.3,536.7h-2.8v-2.1l4.1-3.5l-1.4,5.6H1062.3L1062.3,536.7z M1074.9,536.7l-3.5-2.6l-6.3,4c2.1-3.7,4.8-8.4,9.7-8.3v6.9
			L1074.9,536.7L1074.9,536.7z M1074.9,527c-3.8-2.6-4.7,1.3-8.3,1.4c1.5-4.4,3.4-6.4,8.3-5.5v4.2l0,0V527z M1071.6,517.3l-6.5,4.8
			c1.1-6.5,16.7-7.7,7-13.9c2.4-2.2,4.8-3.9,4.2-7.6c-2.6-2.9-11.8,15.9-16.7,13.2c5.2-5.4,10.7-10.7,15.8-16.2
			c1.6-1.8,3.1-1.7,2.3-5.3c-2.5-0.5-3.4,1.3-4.9,2.7c-5.7,5.2-11.9,14.1-18,19.5c-1.4-2.4-0.6-6.2-0.7-9c0-2.1,1.3-5.5-2.1-4.8
			c-4.3,3.2-0.4,7.7-0.6,11.8c-0.3,6-2.7,12.3-1.5,18.8h-4.2c-1.8-12.6,2.4-23.6,4-35.6c0.6-4.2-0.7-10.2,0.4-13.5
			c0.6-1.7,6.1-4.6,8.1-7.2c2.8-3.5,3.3-8,7-11.1c4.7-3.8,11.1-3.4,16.6-4.9l-5.6,61.2l-4.7-2.7L1071.6,517.3L1071.6,517.3z
			 M1147.2,485.3c-0.5,1.5-6.8,7.5-8.3,3.5L1147.2,485.3z M1131.9,501.9c-0.5-2.5,1.9-4.6,4.1-5.6
			C1136.5,498.8,1134.1,500.9,1131.9,501.9z M1099.9,499.8c4.1-4.8,10.1-11.3,16.7-11.8l-19.4,16.7
			C1096.6,502.1,1098.6,501.4,1099.9,499.8L1099.9,499.8L1099.9,499.8z M1097.1,511c3.2-3.8,9.4-10,13.2-13.2
			c1.6-1.3,2.2-3.4,4.9-2.8c0.5,2.4-1.3,3.4-2.8,4.9c-5.5,5.3-12.6,10.4-18.1,16C1093.7,513.3,1095.7,512.6,1097.1,511z
			 M1088.1,542.2c-2.1,0-1.5-3-1.4-4.1c0.2-6.5,2.9-12.9,2.1-19.5l2.7,0.7c-1.9,1.4-0.9,4.8,0.7,4.8c3.1,0,8.2-10.4,11.1-12.5
			l24.4-22.2c-1.1,8.6-39.7,40-38.9,43.8c0.2,1,2.9,3.2,4.2,1.4c4.3-4.3,7.5-9.7,11.6-14.1c5.5-5.9,21.5-19.6,24.6-24.8
			c1.2-2.1,1.6-3.9,1.3-6.3l4.2,0.7c-2.2,3.4-3.9,7.1-6.4,10.3C1124.6,505.3,1091,542.1,1088.1,542.2L1088.1,542.2L1088.1,542.2z
			 M1097.1,540.8l2.1-4.2l31.3-33.4l-22,30.1c-1.9,7.3-3.6,8.3-11.3,7.4l0,0L1097.1,540.8z M1144.4,522.8
			c-0.7-3.3,10.1-17.5,12.5-15.3L1144.4,522.8z M1148.5,532.5c2.1-3.4,6.2-2.3,7.7-6.9l2.1,5.5L1148.5,532.5L1148.5,532.5
			L1148.5,532.5z M1148.6,525.6l7.6-9.7l2.1,5.5L1148.6,525.6z M1187.5,521.4l3.5-4.1l0.7,4.2h-4.2V521.4z M1195.8,520
			c0-3.1-0.8-7.3,2.8-8.3C1198.6,514.8,1199.4,519,1195.8,520z M1243.1,478.3c-5.9-3.4-8.8,6.2-13.9,8.3
			c-0.5-3.1,12.6-15.4,13.9-13.9V478.3L1243.1,478.3L1243.1,478.3z M1244.5,444.9v6.9l-5.4-1.3c-2.8,6.7-8.2,11.3-14.1,15.2
			c-1.7-1.8,13-17.1,15.3-18.8C1241.7,445.8,1242.1,444.2,1244.5,444.9L1244.5,444.9L1244.5,444.9z M1223.6,456.7
			c4.9-5.8,11.1-10.9,16.7-16c0.6,2.6-1.4,3.3-2.8,4.9c-4.9,5.8-11.1,10.9-16.7,16C1220.2,459,1222.2,458.3,1223.6,456.7z
			 M1220.8,476.2c5.7-6.8,13-12.7,19.5-18.8c0.6,2.6-1.4,3.3-2.8,4.9c-5.7,6.8-13,12.7-19.5,18.8
			C1217.4,478.5,1219.4,477.8,1220.8,476.2z M1201.4,485.2l-4.1-2.1l2.8-4.1l-4.2-2.1l2.8-6.2l-2.9-1.4l5.6-7.6v23.6l0,0
			L1201.4,485.2z M1225,513l-20.8,4.2c-3.8-2.7,2.5-49.5,1.3-57.4l6.7-2c4,4.6,4.5,9.3,6.9,14.3l-6.6,8.3l6.3,6.3
			c2.6,0.7,21.6-25.2,24.3-22.2l-2,4.3l-25.8,25.6l4.2,4.1l-4.9,6.3l6.9,4.1c3.5-4,14-20.1,18.2-20.8c2.1-0.3,2.5,0,2.1,2.1
			c-0.9,5.3-15.4,14.2-17.5,18.8C1223.7,510.4,1224.3,511.8,1225,513L1225,513L1225,513z M1227.8,513c-0.4-2.9,3-5.5,5.5-6.9
			C1233.7,509,1230.3,511.6,1227.8,513z M1280.6,488.8l-4.2-1.5c-4.1,2.2-0.7,5.8-2.6,8.5c-0.7,0.9-9.5,6.6-9.9,6.2
			c-1.3-1.4,10.8-16.6,12.5-18.7c4.4-5.4,9.8-11.6,15.2-16C1294.3,475.6,1283.6,481.3,1280.6,488.8L1280.6,488.8L1280.6,488.8z
			 M2013.8,429.8c6,2.1-5.1,9.3-6.2,11.1C2007.2,439,2013.2,429.6,2013.8,429.8z M2013.8,454.8c-0.6-1.3-8.6,12.4-7.6,6.3
			c0.9-5.4,6.4-8.5,6.9-13.3l-4.9,4.2c-0.6-4,3.6-11.5,7.6-13.9c-1.5,6.4,1.2,13.9,0,20.2c-0.6,3.3-3,2.8-3.7,3.9
			c-2.3,3.5-3.6,7.4-6.7,10.7c-1.7,1.8-2.4,2.3-2.1-0.7c2-4.6,9.6-11.6,11.1-15.3C2014.7,456.3,2014.8,454.6,2013.8,454.8
			L2013.8,454.8L2013.8,454.8z M1970,401.9c-0.5-2.5,1.9-4.6,4.1-5.6C1974.6,398.8,1972.2,400.9,1970,401.9z M1967.4,392.4l4-1.5
			c1.1,1.5-2.3,5.1-4.1,5.6l0.2-4l0,0L1967.4,392.4z M1961,424.2c-3.2-0.5,0.6-10.9-0.8-13.3l1.5-20.1l2.8,28.6
			C1964.9,421.5,1963.5,424.6,1961,424.2z M1979.7,395c-2.2,6.9-7.5,14.2-12.5,19.5C1969.5,407.4,1974.4,400.1,1979.7,395z
			 M1986.7,392.2c-2.2,6.9-6.6,15.3-12.5,19.5C1977.3,405.1,1981.5,397.4,1986.7,392.2z M1969.3,429.7l-2.1-2.1l1.4-3.5h2.8
			l-2.1,5.5l0,0L1969.3,429.7z M1985.3,433.2l-8.3,0.7c-2.4-2.6,15.3-24.1,15.3-27.1s-1.6-2.8-3.4-0.7c-4.2,5-7.8,14.3-12.1,19.9
			c-1,1.3-2.8,4.4-2.6,0.2c5.2-8,9.8-18.8,15.5-26.2c1.2-1.6,1.4-2.9,3.9-2.3c-2.6,4.2,0.9,8.4,0,12.9c-0.2,1-2.4,1.3-3.2,2.7
			c-1.7,2.9-9.1,15.1-9.3,17c-0.5,4,4.8,1.1,4.2,2.8l0,0V433.2z M1991.8,425.2c-0.4,0.5-4.9,3.4-5.1,3.2l4.2-11.1
			C1994.2,418.1,1993.6,423.2,1991.8,425.2L1991.8,425.2L1991.8,425.2z M1988.3,468.3c0.3-1.7,4-6.4,2.5-8c-2.9-3.3-2.4,4.7-4.2,2.1
			l5.6-11.1l-4.1-0.7c-0.8-2.5,2.1-3.3,2.5-5.2c0.7-2.8-3.4-7.2,1.6-8.7l0.7,9.8l4.8-1c-0.8-10.2-1.6-24.4,0.2-34.5
			c0.4-2.4,1.5-3.9,4.2-3.5c-2.8,11.7-1,24.7-1.3,36.9c-0.1,4.7-3.8,17.7,0,20.9c10.2-2.1-1.5,5-1.4,9.6l5,5l4.8-2.1
			c-3.7,17.7-21.8-2.3-20.6-9.4L1988.3,468.3L1988.3,468.3z M2015.2,464.5c1.5,0.3,0.8,2.7,0.2,3.8c-0.1,0.3-3.6,1.1-2.3,4.5
			l-2.8-2.1L2015.2,464.5L2015.2,464.5L2015.2,464.5z M2029.8,500.6l-18.1-11.8c-2.9-3-0.5-8,1.3-11.2l7,0.8l-1.4-52.1l2.8-0.7
			c0,3.7,8,9.3,7.9,11.8c0,0.9-2.3,2.6-2.4,5.5c-0.3,8.3,4,25.9,4.3,36.2C2031.4,486.3,2031.7,493.8,2029.8,500.6L2029.8,500.6
			L2029.8,500.6z M2036.7,501.4c-0.3,2-1.1,4.3-2.8,2.1l-1.4-61.2l4.2,1.4c-3.5,6.3-0.2,9.2,0,15.9
			C2037,471.4,2038.1,490.3,2036.7,501.4L2036.7,501.4L2036.7,501.4z M2041.9,442.6c1.2-2.2,3.5-4.8,5.9-5.9l-5.6,11.1
			C2039.4,448,2041.3,443.7,2041.9,442.6L2041.9,442.6L2041.9,442.6z M2046.4,446.4l-4.2,9.7
			C2038.3,454.7,2044.4,447.2,2046.4,446.4z M2071.6,494.3c-6.1,0.8-3.5,3-5.3,5.9c-1.3,2.1-8.1,8.5-2.4,8.7l7.7-9.7v8.9
			c-9.4,3.6-32,5.7-30.6-8.9l2.8,4.2l3.5-1.3l0.7,2.6h2.7l17.9-28.6l-4-3.9c4.8-3,2.6-6.6,3.3-9.5c0.4-1.8,3.5-6.7,2.3-7.9
			c-4.1-4.1-6.5,7.7-7.2,8.8c-6.4,11.1-16.7,20.6-20.7,32.9l-2.8-12.5l4.1,1.4c4.4-14.9,19-26,23.7-40.3l-6.7-1.3
			c-3.7,9.1-16.1,20.7-18.7,29.5c-1.1,3.9,2.1,7.8-2.4,9.3c-5.4-7.4,16.1-35.5,22.2-41l-2.1-3.4l-10.4,12.5
			c-0.6-4.4,10.8-12.1,8.3-15.3l-4.2,1.4l1.5-4c1.2-0.2,2.8-0.5,3.8,0.2c1,0.6,3.4,7.5,4.8,9c4.3,4.5,7.9-0.2,9.1,9.6
			c1.7,13.5-3.2,28.9-1.1,42.9L2071.6,494.3L2071.6,494.3z M2047.8,500.6l6.4-12.4l8.9-12.6C2061.3,484.6,2053.6,493.5,2047.8,500.6
			L2047.8,500.6L2047.8,500.6z M2135.2,463.6c2.9-4.2,0.1-7.8,9.9-7.5v15.3c-1.1-0.6-2.3-0.9-3.5-0.1c-3.7,2.5-19,24.6-16,27.9
			c4.5,0,4.9-6.4,7.2-10.2c3.4-5.7,7.6-11,11.6-16.2c1,12.5-12.1,20.2-16.4,31.1c-1.2,3.1,4.2,5.1-2.4,7.9l-2.9-21.5
			c0.4-1.5,3,0,4.4-1.6c1.7-1.9,13.1-19.6,14.7-22.6c1-1.9,2.5-3.1,1.9-5.7c-2.9-0.6-3.2,1.5-4.5,3.2c-3.8,4.8-10,18.4-13.6,21.2
			c-2.6,2-3.7,0-2.8-2.8c0.2-0.7,2.9-1.1,3.4-2.1c3.8-7.4,3.7-8.7,9-16.1L2135.2,463.6L2135.2,463.6z M2127.1,459l-2.8,6.9
			c-2.6-1.1-3.7-4.8-6.9-2.8v-6.9L2127.1,459z M2114.5,453.4c-0.3,2.3-3.2,1.3-5.6,3.4c-3.4,3-5.9,10.3-9.7,13.3
			c-0.4-2.4,0.6-4,1.6-6c2.4-4.8,10.9-10,6-13.4l-9,11.1l5.5-12.5l-4.9,4.2c-2-2.6,3.8-6,4.9-9.1l11.1,9.1l0,0L2114.5,453.4z
			 M2108.3,476.9c-3.7,2.8-5,7.6-9,9.8c1.7-6.1,7.2-11.5,10.4-16.7c1.3-2,1.3-3.3-1.4-2.8l-14.6,20.8c2.3-11.3,11.8-19.3,16.7-29.2
			c3.1-2.1,3.7,15.2,2.5,16.5c-0.4,0.4-3.2,0.4-4.7,1.5h0.1V476.9z M2112.9,482.4l-8.1,4.4c-1.2-1.3,5.5-9.3,7.6-9.7L2112.9,482.4z
			 M2102,440.9c-0.6,3.4-12.3,12.6-9.7,15.3h4.2l-2.9,7.6l2.8,1.3l-1.4,5.5l2.9,1.5l-4.2,6.2c2.4-6.8-4-21.7-2.6-26.8
			c0.3-1.1,9.2-12.3,10.9-10.7l0,0V440.9z M2096.5,436.7c1,0.9-3.8,8-5.5,8.3C2089.9,442.7,2092.7,433.3,2096.5,436.7z
			 M2076.2,507.7l-0.7-60.4c10.9-5.3,11-1.3,12.4,8.4c1.8,11.8,0.5,23.4,1.5,34.6c0.3,3.1,2.4,4.4,2.6,5.8c0.3,1.9-6,8.1-3.9,10.1
			c1.1,1.1,3.3,0.3,4.5-1.7c2.7-4.3,4.2-10.9,9.3-13.5c0.1,4.2-9,14-9.4,16.2c-0.2,1.2,0.9,5.9,3.2,4.6c2.3-1.2,10.5-24.8,17.4-26.4
			c1.7,2-17.3,23.5-13.9,29.2L2076.2,507.7L2076.2,507.7L2076.2,507.7z M2171.5,532.6l-5.5-1.4c-1.4-1.4,7.5-8.7,2.1-8.3
			c-1.5,0-5.9,8.7-9,6.2l13.9-18.8l-1.4,22.2L2171.5,532.6L2171.5,532.6z M2167.4,500l4.9-4.9l0.5,13.7l-8.1,3l6.9-9L2167.4,500
			L2167.4,500L2167.4,500z M2172.2,489.5c-2.1,5.2-14.3,15.1-16.7,20.9c-0.6,1.5,1.6,2.4,1.6,3.4s-3.3,3.7-2.2,6.3l8.3-6.2
			l-7.2,14.4l-15.1-2.6l1.4-5.5c-3.6-0.6-4.1,3.9-7.5,4.1c-2.1,0-10.8-1.2-13.6-1.7c-2.2-0.3-14.5-3.2-15-3.8
			c-0.1-0.2,1.5-2.6,1.2-4.5c-0.4-2.3-2.8-3.7-2.3-7c0.5-3.5,4.9-7,5.4-10.8l2.8,0.7v9h4.2c-1-13.3-2.2-25.6,0-38.9
			c2.2,0.1,2.7,6.2,2.8,7.7c0.2,7.1-1.7,13.4-1.4,20.9c0,2.1,1.8,16.6,2.2,17.4c2.3,4.2,10.5,2.3,12.6,8.2l7.5-3.4l-2.8-4.1l5.5-7
			c-3.9-4.9-7.3,6-10.4,7.6c-1.2-7.7,6.2-19.3,14.5-18.2c1.2-12.3-1.7-28.9,1.7-40.7c1.2-4.2,7.5-0.8,8,1.3c0.8,3.5-6.4,7.9-6.7,9.8
			c0,0.4,2.7,6.9,3,7.2c0.9,0.7,2.6,0.2,3.8,0.3c-1.5,2.8-4.8,3.9-0.7,6.9l9-11.8c0-6.1-6.2,2.9-6.9,2.1l5.5-7.7l7,4.2
			c-3.8,3.5-13.8,13.4-15.7,17.8c-0.2,0.4-2,8.4-2,8.9c-0.1,1.7,3.2,6.4,1,10.2c2,2.3,8.1-9.5,9.1-11c2.4-3.5,10.5-8,3.4-10.5
			l5.5-4.9c-0.1,3.7,0.7,7.5-0.7,11.1h-0.1L2172.2,489.5z M2192.4,493c3.5-8.9,9-2.6,0,2.1C2192.4,494.4,2192.2,493.6,2192.4,493z
			 M2199.6,491c0.7-0.5,7,2.7,9.5,0c0.8,5.2-5.9,2-9,4.1c-3.6,2.4-5,7.9-9,9.8C2191.8,502.8,2199,491.6,2199.6,491L2199.6,491z
			 M2179.7,523.4l-2.6,10.6c-3.4-6.6,0-12.6,0-18.7s-1.6-12.8-1.6-18.1s2.8-14.3,1.5-21.5l13.2,9.7c0.8,1.4-1.9,10.8-4.9,11.2
			l-0.7-9.8c-9.5-3.9-4.2,3-3.8,6.6c1.1,10.2-1.7,19.8-1.2,30.1L2179.7,523.4L2179.7,523.4z M2186.8,524.3l-4.2,5.5v-5.6
			L2186.8,524.3L2186.8,524.3z M2184.1,507.6c3.9,1.3,2.2,3.9,1.4,6.9h-1.4V507.6z M2185.4,506.2c-4.3-1.6,2-7.7,4.2-8.3
			L2185.4,506.2z M2182.7,536.8l24.3-32l0.7-4.1l-4.2,0.7l5.5-4.9l0.7,8.3l-19.5,32.1h-7.6L2182.7,536.8L2182.7,536.8z
			 M2200.8,527.1l8.3-13.9C2210.5,519.9,2205.7,523.6,2200.8,527.1z M2192.6,542.1l-0.2-5.3l3.4,4.2l13.2-15.3
			c0.4,7.3-7.2,12.1-9.7,18.9l-6.7-2.4l0,0V542.1z M2204.9,547.2l4.2-2.8l-4.2-2.8l4.9-7.6l0.7,15.3L2204.9,547.2L2204.9,547.2
			L2204.9,547.2z M2345.3,511.8l-6.9,8.3c1.1-4.3-1.6-3.2-2.8-5.5L2345.3,511.8z M2300.8,503.4c-0.2,2.4,2.7,4.7,2.1,7
			c-1.5,5.1-16.7,18.7-20,26c-2,4.5-0.3,10.8-7.1,14.3c1.3-3.5,0.6-14.4,1.7-16.4c0.3-0.5,2.6-1.1,3.6-2.5
			C2287.7,522.4,2293,512,2300.8,503.4L2300.8,503.4L2300.8,503.4z M2277.2,531.2c-2-7.7,1.5-7.1,3.3-9.8c4.3-6.4,8.3-13.5,14.7-18
			L2277.2,531.2z M2293.9,497.9l-16.7,20.8C2278.6,511.4,2285.7,498.6,2293.9,497.9z M2232.7,454.8c-0.1,5.2,1.7,11.5-4.1,13.9
			L2232.7,454.8z M2264.5,560.9c-1.2,4-5.3,0.7-8.1,0.9l4.2-8.3l-6.3,2.8c-1.8,0.5-2.7-0.3-2-2c0.6-1.6,12.3-16.4,13.9-14.6
			l-1.6,21.3l0,0L2264.5,560.9z M2278.5,570.1c-15.5-0.2-8.4-17.7-8.2-27c0.2-7.7,1.3-37.8-2.2-42.4c-1.4-1.9-3.9-2.6-6.2-2.9
			l2.8-6.9c-2.7-0.6-3.3,1.4-4.7,2.9c-11.1,11.2-19.3,27.7-30,39.5l4.1,2.7l-5.6,11.1c5.9,2.7,7.7-8.1,10.8-12.8
			c7.4-11.3,16-22,24.6-32.3l2.1,19.9c-3.4,3.4-25.1,30.2-25,32.3c0,0.8,2.9,3.2,4.2,1.4c4.3-10.5,12.3-19.1,20.1-27.1
			c2,6.5-7.7,13.6-11.8,18.8c-2.8,3.5-5.3,7-6.9,11.2l-11.1-2.9l27.7-39l-3.5-2.1l-28.5,41.1c-3.4,0.2-10.1-0.5-11.8-3.6
			c-2.2-4-5.9-33.5-6.3-39.6c-0.4-7.3,0-14.7,0.3-22c1.1-3.8,4.1-2.2,5.9-3.8c2.8-2.4,14.1-23.2,18.9-19.4
			c1,0.8-14.6,18.6-15.7,21.3c-1,2.5,0.3,4.3,0,5.6c-0.6,2.4-5,3.8-3.8,7.8c2.4,2.6,6.9-8.4,7.8-9.6c3.4-4.8,13.4-14.8,15.1-18.2
			c0.9-1.7,0.7-3.7,0.7-5.5c0.9-1.3,19.4,16.8,20.8,18.8c5.5,7.5,5.7,21.9,18.1,14.6c-0.4,9.3-5.8,3.8-9.6,7.7
			c3,16.8,0.8,34.4-1.3,51.2c0.4,1.7,7.5,4.9,9.5,3.6L2278.5,570.1L2278.5,570.1L2278.5,570.1z M2255.5,507.5
			c-6.5,8.9-13.5,17.7-20,26.6c-0.7-2.8,0.9-3.8,2-5.6c5.7-9.5,13.9-19.7,21.6-27.7C2259.3,503.4,2257,505.6,2255.5,507.5
			L2255.5,507.5L2255.5,507.5z M2281.4,563.2c-0.4-2.5,0.2-4.2,1.3-6.4c4.7-9.9,18.7-22.3,24.9-32.1l0.3-4.6L2278,559
			c-3.4-1.7,1.1-6.6,2.3-8.8c4.4-7.5,11.8-17.7,17.3-24.4c3.1-3.8,7.8-6.5,8.9-11.3l8.3,4.2l-33.3,44.5L2281.4,563.2L2281.4,563.2z
			 M2288.3,576.4l11.9-21.5c3.6-6.5,16.6-18.4,19.3-23.7c0.8-1.6,0.9-3.1,0.7-4.8l-2.8-0.7l-34.8,48.6c-0.2-2.9-0.2-5.4,0.7-8.3
			c1.9-5.5,20.8-29.7,25.7-35.5c3.8-4.5,10.7-5.6,6.9-11.8h7c-1.3,4.6-0.5,11.7-1.7,15.7c-0.8,2.7-25.4,36-29.1,40.4
			c-1,1.2-2.3,4-3.9,1.6H2288.3L2288.3,576.4z M2321.7,593.8c-0.9,1-10.2-5-9.8-7.6l8.4-17.4c-3.9-4.1-7.4,18-16.7,16.1
			c-8.1-1.7,3.2-5.6,4.2-8.4l-2.8-1.4l16.7-20.2L2321.7,593.8L2321.7,593.8L2321.7,593.8z M2322.9,551.9c-0.2,0.3-3.7,0.6-6.2,2.9
			c-3,2.8-14.5,17.5-17.4,21.6c-1,1.5-1.4,3.1-1.3,4.9l-4.2-1.4l26.4-39.6c1.8-2,2.3,5.4,2.4,6c0.2,1.5,1.1,4.7,0.2,5.7h0.1V551.9z
			 M2324.5,567.4c-1-5.9,1.4-11.5,1.4-17.3s-1.6-11.3-1.3-16.5c0.2-3.3,4.6-21.3,9.6-17.6L2324.5,567.4L2324.5,567.4L2324.5,567.4z"
			/>
	</g>
</g>
<g id="text" class="st0">
	<g>
		<text transform="matrix(1 0 0 1 1973.0261 1082.8998)" class="st1 st2 st3">DOHLKY</text>
	</g>
	<g>
		<text transform="matrix(1 0 0 1 1418.1261 1052.8998)" class="st1 st2 st3">PIHLKY</text>
	</g>
	<g>
		<text transform="matrix(1 0 0 1 1235.926 543.3998)" class="st1 st2 st3">KORIDOR III.</text>
	</g>
	<g>
		<text transform="matrix(1 0 0 1 1540.0261 303.0999)" class="st1 st2 st3">START</text>
	</g>
	<g>
		<text transform="matrix(1 0 0 1 1320.426 598.2998)" class="st1 st2 st3">KORIDOR II.</text>
	</g>
	<g>
		<text transform="matrix(1 0 0 1 1397.5261 659.4998)" class="st1 st2 st3">KORIDOR I.</text>
	</g>
	<g>
		<text transform="matrix(1 0 0 1 17.826 678.3998)" class="st1 st2 st3">SBRKA</text>
	</g>
	<g>
		<text transform="matrix(1 0 0 1 338.126 941.5999)" class="st1 st2 st3">CL</text>
	</g>
	<g>
		<text transform="matrix(1 0 0 1 429.326 135.4999)" class="st1 st2 st3">RADIO 2</text>
	</g>
	<g>
		<text transform="matrix(1 0 0 1 862.926 359.8998)" class="st1 st2 st3">RADIO 1</text>
	</g>
	<g>
		<text transform="matrix(1 0 0 1 600.626 1371.0999)" class="st1 st2 st3">VYTN IP</text>
	</g>
	<g>
		<text transform="matrix(1 0 0 1 760.626 1039.5999)" class="st1 st2 st3">CENTRUM IT</text>
	</g>
	<g>
		<text transform="matrix(1 0 0 1 1059.5261 1539.0999)" class="st1 st2 st3">VSLEDKY</text>
		<text transform="matrix(1 0 0 1 943.426 1599.0999)" class="st1 st2 st3">MY RESULTS BOARD</text>
	</g>
</g>
</svg>
