<?xml version="1.0" encoding="utf-8"?>
<!-- Generator: Adobe Illustrator 23.0.1, SVG Export Plug-In . SVG Version: 6.00 Build 0)  -->
<svg version="1.1" id="Layer_1" xmlns="http://www.w3.org/2000/svg" xmlns:xlink="http://www.w3.org/1999/xlink" x="0px" y="0px"
	 viewBox="0 0 113.6 101" style="enable-background:new 0 0 113.6 101;" xml:space="preserve">
<style type="text/css">
	.st0{display:none;}
</style>
<g id="design">
	<path d="M113.6,56.8C113.6,25.5,88.1,0,56.8,0S0,25.5,0,56.8s3.1,21.6,9.1,30.8l0.8-0.5C4,78.1,1,67.6,1,56.8C1,26,26.1,1,56.8,1
		s55.8,25.1,55.8,55.8s-3.2,21.7-9.3,30.9l0.8,0.6c6.2-9.3,9.5-20.2,9.5-31.4l0,0L113.6,56.8z"/>
	<path d="M95.9,82.9c5.2-7.7,7.9-16.7,7.9-26.1c0-25.9-21.1-47-47-47s-47,21.1-47,47s2.6,17.9,7.5,25.5l0.8-0.5
		c-4.8-7.4-7.4-16.1-7.4-25c0-25.4,20.6-46,46-46s46,20.6,46,46c0,25.4-2.7,17.9-7.7,25.5l0.8,0.6H95.9L95.9,82.9z"/>
	<path d="M87.7,77.6c4.1-6.1,6.3-13.3,6.3-20.7c0-20.5-16.7-37.2-37.2-37.2S19.6,36.4,19.6,56.9s2.1,14.1,6,20.2l0.8-0.5
		C22.6,70.7,20.6,64,20.6,57c0-19.9,16.2-36.2,36.2-36.2S93,37,93,57c0,20-2.1,14.2-6.1,20.2l0.8,0.6V77.6L87.7,77.6z"/>
	<path d="M73.3,78.9l-1.4-30.6H58c-0.8-0.8,2.1-10.7-4.2-9.7v9.6l-12.5,1.5c0.2,6.7,2.3,13.4,1.5,20.2c-0.4,2.8-2.9,5.6-2.7,6.7
		c0.9,5.4,7.4,1.9,10.2,2.2c7.9,0.9,4.2,14.4,4.9,19.9l5.6,2.3C62.4,87.3,51.1,72.9,73.3,78.9L73.3,78.9L73.3,78.9z M48.3,69.2
		l-1.2-13.7c5.2-2.4,11-1.5,16.5-1.6L48.3,69.2L48.3,69.2L48.3,69.2z"/>
</g>
<g id="text" class="st0">
	<g>
		
			<text transform="matrix(1 0 0 1 1374.8 681.4999)" style="display:inline;fill:#FF0000; font-family:'Arial-BoldMT'; font-size:50px;">DOHLÁŠKY</text>
	</g>
	<g>
		
			<text transform="matrix(1 0 0 1 819.9 651.4999)" style="display:inline;fill:#FF0000; font-family:'Arial-BoldMT'; font-size:50px;">PŘIHLÁŠKY</text>
	</g>
	<g>
		<text transform="matrix(1 0 0 1 637.7 142)" style="display:inline;fill:#FF0000; font-family:'Arial-BoldMT'; font-size:50px;">KORIDOR III.</text>
	</g>
	<g>
		
			<text transform="matrix(1 0 0 1 941.8 -98.3)" style="display:inline;fill:#FF0000; font-family:'Arial-BoldMT'; font-size:50px;">START</text>
	</g>
	<g>
		
			<text transform="matrix(1 0 0 1 722.2 196.9)" style="display:inline;fill:#FF0000; font-family:'Arial-BoldMT'; font-size:50px;">KORIDOR II.</text>
	</g>
	<g>
		
			<text transform="matrix(1 0 0 1 799.3 258.1)" style="display:inline;fill:#FF0000; font-family:'Arial-BoldMT'; font-size:50px;">KORIDOR I.</text>
	</g>
	<g>
		<text transform="matrix(1 0 0 1 -580.4 277)" style="display:inline;fill:#FF0000; font-family:'Arial-BoldMT'; font-size:50px;">SBĚRKA</text>
	</g>
	<g>
		
			<text transform="matrix(1 0 0 1 -260.1 540.2)" style="display:inline;fill:#FF0000; font-family:'Arial-BoldMT'; font-size:50px;">CÍL</text>
	</g>
	<g>
		
			<text transform="matrix(1 0 0 1 -168.9 -265.9)" style="display:inline;fill:#FF0000; font-family:'Arial-BoldMT'; font-size:50px;">RADIO 2</text>
	</g>
	<g>
		
			<text transform="matrix(1 0 0 1 264.7 -41.5)" style="display:inline;fill:#FF0000; font-family:'Arial-BoldMT'; font-size:50px;">RADIO 1</text>
	</g>
	<g>
		<text transform="matrix(1 0 0 1 2.4 969.7)" style="display:inline;fill:#FF0000; font-family:'Arial-BoldMT'; font-size:50px;">VYČÍTÁNÍ ČIPŮ</text>
	</g>
	<g>
		
			<text transform="matrix(1 0 0 1 162.4 638.2)" style="display:inline;fill:#FF0000; font-family:'Arial-BoldMT'; font-size:50px;">CENTRUM IT</text>
	</g>
	<g>
		
			<text transform="matrix(1 0 0 1 461.3 1137.7)" style="display:inline;fill:#FF0000; font-family:'Arial-BoldMT'; font-size:50px;">VÝSLEDKY</text>
		
			<text transform="matrix(1 0 0 1 345.2 1197.7)" style="display:inline;fill:#FF0000; font-family:'Arial-BoldMT'; font-size:50px;">MY RESULTS BOARD</text>
	</g>
</g>
</svg>
