<?xml version="1.0" encoding="utf-8"?>
<!-- Generator: Adobe Illustrator 23.0.1, SVG Export Plug-In . SVG Version: 6.00 Build 0)  -->
<svg version="1.1" id="Layer_1" xmlns="http://www.w3.org/2000/svg" xmlns:xlink="http://www.w3.org/1999/xlink" x="0px" y="0px"
	 viewBox="0 0 777.2 556.3" style="enable-background:new 0 0 777.2 556.3;" xml:space="preserve">
<style type="text/css">
	.st0{display:none;}
	.st1{display:inline;fill:#FF0000;}
	.st2{font-family:'Arial-BoldMT';}
	.st3{font-size:50px;}
</style>
<g id="design">
	<path d="M586.6,509.1c0.5-2.5,0-7.4,0.8-8.8c1.7-3.4,6.1-4.4,9-6.4c1.7-1.2,0.5-4.6,4.2-3.4c1.1,7.9,3,21.2,10.4,25
		c7.8-1.8-1.6-35.7-2.1-42.3c-0.3-4.3-0.5-12.6,0-16.6c0.6-3.6,3.8-6.5,3.7-9.6c-0.2-8.5-7-12.7-15-10c-7.7,2.5-1.3,10-1.4,16.5
		c-0.2,6.4-2.7,17.4-6.8,22.5c-2.2,2.1-1.5-3.3-1.5-4.2c0.6-7.2,0.7-12.5,1.3-19.5c1.7-17.8-13.5-14.1-13.9-5.4
		c0,2.3,1.4,4.9,1.1,6.8c-0.6,4-7.4,9.7-2.4,17.6c-3.7,0-6.1-0.6-7,3.5c-1.2,6.1,7.5,47.7,11.9,49.2c8.2,2.9,4.5-5,4.8-7.5
		c0.2-2.4,2.2-4.6,2.7-7.2v-0.2L586.6,509.1z M579.9,448.3l4-2.3v8.3l-4-2.3V448.3L579.9,448.3L579.9,448.3z M578.4,511.3l-2.8-9.7
		l5.3,1.6C580.9,506,583,512.5,578.4,511.3L578.4,511.3L578.4,511.3z M575.6,496l-2.9-17.2l6.4-3.7l2.1-13.9l2.1,22.4l-7.6,12.3l0,0
		L575.6,496z M582.6,493.2c1.2-1.2,4-6.3,4.5-6.6c1.4-0.8,4,0.2,5-0.5c0.6-0.4,4.9-11.5,5.5-13.3c0.9-2.8,5.8-20.6,5.8-22
		c0-2.5-3-4.2-3.6-6.1c-1.3-4.3,3.3-6.4,6.1-1.9c3.6,5.7-1.6,8.6-2.4,13.7c-2.4,14.9,5,31.5,5.5,46.5l-7.7-20.8
		c-2.6-0.6-13.7,12.6-18.7,11.1l0,0L582.6,493.2z"/>
	<path d="M459.2,404.6c-1.5-1.9-6.3-1.9-6.9-4.1c2-6.6,3.7-10.8-0.4-17.1c-12.8-1.4-18.7,10.5-10.9,20.6c-4.4-1.8-7.3,3.5-9.2,3.8
		c-2.1,0.4-3.5-2-6.8,0.2c-5.3,3.4-3.2,7.9-4.2,9.9c-1.6,3.1-8.1,3.3-7.6,9c0.4,4.9,5.8,2.4,7.2,4.3c1.8,2.4,0,24,9.6,11
		c1.6-2.1,2.2-6.8,3-7.4c1.2-0.9,5.3-0.2,8.1-2.3c3.1-2.4,1.5-5.5,4.1-6.3c2.9,6.7-0.8,40,11.8,27.1
		C456.6,445.1,462.8,409,459.2,404.6L459.2,404.6L459.2,404.6z M428.4,433.2l-5.5-9c0.3-5.1,5.9-4.5,4.1-10.5
		c3.6,0.7,1.2,6.4,2.8,8.8c1.4,2,3.9,2.6,5.5,4.4C432.9,429.5,428.4,428.6,428.4,433.2L428.4,433.2L428.4,433.2z M438.2,419.3
		c-4.3,0.4-4.5-3.5-4.1-6.9C434.8,411.4,439.4,418.1,438.2,419.3z M443.7,393.6c0.2-2.1,2.1-4.2,4.2-4.9l-1.4,12.5
		C444.4,401.2,443.6,394.7,443.7,393.6L443.7,393.6L443.7,393.6z M453,440.3l-2.9-16.9c-1.4-4.3-8.1-7.8-9.1-10.4
		c-0.8-2.1,7.5-4.7,9-6.3c8.6,0,2.5,23.9,3,33.5l0,0V440.3z"/>
	<path d="M680.8,385.6c-1.4-1.3-4-1-4.5-1.7c-2.5-2.8,1-15.5-11.5-11.6c-9.6,3-3.7,15.1-5.7,17.3c-0.9,0.9-5-0.6-5.4,3.6
		c-0.5,5.6,6,12.1,6.9,18.2c0.6,4.4,0.3,10.6,0,15.2c-0.2,4.2-5.2,24.8,2.7,25.1c6.7-4.3,4.6,1.9,8.5,5.4c4,3.6,6.3,2.7,6.9-2.6
		c1.3-11.5-0.9-25.6,0-37.6c0.5-6.8,6.2-27.4,2-31.3l0,0L680.8,385.6z M673.1,421.1c-0.2,6.8,4.1,14.5-0.6,20.2
		c-1.4-4.3,0-9.1-1.9-13.4c-1.2-2.8-4.1-3.1-4.3-4.3c-0.8-3,0.4-8.2-0.2-12c-0.5-3.3-4.1-13.3-4-14c0.4-1.5,3.9-1.6,4.2-3.1
		c0.9-4.2-5.8-19.8,4.1-15.7l-0.8,8.3l7.4,4.8C677,401.3,673.3,412.4,673.1,421.1L673.1,421.1L673.1,421.1z"/>
	<path d="M518.2,411c-2.5,10.9,3.6,18.9,4.3,30.2c0.4,6-2.6,23,0,26.9c4.8,7.6,6.7-15.2,6.3-18.1l4.8,16.7c1.5,2.3,5.6,1.5,6.3-0.7
		c1.1-3.7,0-18.3,0-23.6c0-7.7-3.4-8.7,0.8-20.1c1.7-4.7,7.8-6,2.6-12.6c-1.4-1.8-4.8-2.7-5-3.7c-0.6-3.6,7.3-15.6-0.3-22.4
		c-6-2.9-12.7,0.6-13.4,7.4c-0.2,2.2,1.3,4.1,0.4,7.3c-1,3.8-5.6,7.8-6.8,12.8l0,0L518.2,411z M531.2,398.8
		c0.8-3.9-4.9-10.8,4.4-10.1c2.6,5.1-3.7,14.3-3.5,16.8c0.5,5.5,6.4,5.7,6.4,8.9s-6,10.3-4.9,14.7c-7.2-0.2-10.5-4.6-10.5-11.9
		S530.4,402.9,531.2,398.8z"/>
	<path d="M703,445.3c-11.2-2.6-12.9,10-10.6,17.9l6.7,2.6c1.6,9.3-4.5,21.9,0,30.2c1.3,2.3,3.7,5.2,6.2,2.3l3.4-11.2
		c0,3.8,1.8,7.4,6.2,6.9c4.8-1.5,3.8-22.4,3.6-27c-0.2-5.4-3-15.9-2.4-20.7c0.3-2.3,2.9-3.9,3.5-6c2.1-7.5-2.5-15.6-10.5-11.8
		c-6.4,3-3.3,11.5-6.1,16.9l0,0L703,445.3z M712.9,434.3c-6.2,14.4,3.1,28.1-0.7,43.1l-1.3-8.5l-5-2.1l-0.5-11.7h-5.6l-0.7-2.7
		l9.1-1.3c0.8-4.5,0.9-9,2-13.4c0.6-2.3-1.4-4.1,2.8-3.4L712.9,434.3L712.9,434.3z"/>
	<path d="M1.4,100.6L13,99.3c-0.7,4.2,1.2,8.2,1.4,12.3c0,1.9-1.6,5.7-1.1,8c0.2,0.8,0.7,1.4,1.6,1.7c2.9,0.9,4.2-1.1,4.5-4.1
		c0.8-6.2-2-17.1-1.3-17.8c15.1,1.4,8.2-6.9,9-16.2c0.8-7.8,7.9-15.4-7.7-11v-8.9c-2.9-1.2-4.1-1.6-5.9,1.2l0.7,7.7
		c-3.4,0.1-7-0.5-10.4,0.6c-6.5,2.1-2.7,6-2.5,10.4c0.2,5.8,0,11.6,0,17.4L1.4,100.6L1.4,100.6z M15.6,77.4l-9,12.9
		C5.1,81.9,4.9,75.6,15.6,77.4z"/>
	<path d="M513.6,555.6l3.6,0.7l13.2-17.5c5.7,0,5.7,18.2,16,13.9c-1.9-7.7-3.1-15.6-5.2-23.3c-0.9-3.4-3.9-7.1-4.3-9.7
		c-0.9-5.6,6.4-22.6-8.6-17.8c-12.7,4.1-2.6,14.3-4.1,22.3C522.8,531.8,503.5,542.9,513.6,555.6L513.6,555.6L513.6,555.6z
		 M532.4,506.9c0.3,1.3-0.2,11.3-3.4,9.7C524.7,514.5,526.2,505.6,532.4,506.9z M531.1,520.8l5.1,9.4l1.8,8.6
		c-3-1.8-3.6-6.9-8.4-6.3l-12.4,14.7C516.3,534.9,531.7,533.7,531.1,520.8z"/>
	<path d="M564.6,467.8c1.3-12.5,0.2-24.3,7.1-35.3l-7-2.1c6.4-16.1-14.2-17.5-16.4-1.7c-1.3,9.7-1.4,20.1-3.2,30.2
		c-0.5,2.8-4.4,4.7-1.4,7.1l5.4,0.5l7.1-12.3c-0.3,5.7,0.7,17.7,8.2,13.7h0.2L564.6,467.8z M553.7,444.3c4.5-7.6-6.3-19.3,6.9-20.8
		c-0.4,5.7-4.3,10.6,2.8,13.2l-2.9,7.5L553.7,444.3L553.7,444.3z"/>
	<path d="M259.9,186.4c3.5,0.7,7.5,1.3,11.6,2.1c3.3,0.8,6.4,1.4,9.2,1.9c2,0.5,4,1,5.7,1.6c15.3,5,28.8,12.6,43.6,17.6
		c19.7,6.7,54.9,19.7,78.7,31.1c4.6,3.6,10.5,6.8,13.4,9.9c1.5,1.6,4,4.7,5.9,5.4c7.3,2.6,25.1,14.3,32.5,19
		c11.6,7.4,22.9,16.2,34,24.5l0,0l59.6,48.7c27.4-6.8,56.7-3.1,84.5-9.5l65.1-4.4c3.5-1.1,0.7-11.3,0.8-15.8
		c0.2-5.7,0.7-14.5,5.6-18c0.7-2.8-3.7-2.6-4.2-4.4c-0.6-2.3,0.7-10.9,0-11.5h-4.2l-2.1,6.9c-3.4-6.7-10.4-5.2-17-9.4
		c-7.5-4.7-9.1-12-14.3-16.3c-7.5-6.1-21.6-11.3-29.9-17.4c-2.5-3.6,3.4-9.5-2.7-12.5l-2.8,9.7c-9.4-9.7-21.9-14.4-33.2-21.1
		c-2.3-1.3-3.7-3.8-5.9-5.2c-5.2-3.2-9.3,0.3-10.8-8.8c-0.5-2.9,1.3-7.5-0.8-8.8l-5.6-0.6c-0.8,0.7,4.1,13.1-0.7,11.1
		c-5.8-8.2-17.3-9.6-24.8-14.1c-3.1-1.8-5-5.4-7.9-7.4c-12.8-8.6-29.6-12-43-19.5l-3.5-10.5c-3,4.6-9.3-2.2-10.4,2.1
		c-1.2,4.8,6.2,5.7,6.9,8.3c1.3,4.8-1,14.7,0,20.2c-4.1,0.3-2.3-4.6-8.3-2.8l2.8,6.9c-11-0.6-21.8,0.8-32.7,1.4
		c-3.8,0.2-7.1-3-8.3,2.8c-0.4,1.8,0.4,1.8,1.5,2.8l46.5-4.2l0.8,4.1c2.2-0.9,3.4-0.9,5.7-0.3c3.1,0.9,17.8,9.9,21.2,12.3
		c6.5,4.5,10.6,13.6,20.9,11.7c2.4-2-9.6-8.1-11-9.2c-1.7-1.3-2.4-4-4.3-5.4c-5.1-3.6-29.1-14.5-30.3-18.4l-0.3-17.1l34.4,13.6
		c10.2,10.1,23.7,14.2,35.6,21.4c3.2,1.9,5.5,5.7,10,6.7v27.9c10.7,5.8,21.7,10.6,28.4,21.6l20.9,15.9l-129.6,11.4l-60.8-40.6
		l82-5.6l-1.4-4.9c-11.2-2.9-21.6,2.8-32.6,3.6c-18.5,1.4-38.3-0.2-57,1.3l-18.4-13.5l-64.3-24c-0.6-1.4,3.2-2.8,3.5-2.8h22.2
		c0.9,0,11.9,0.9,11.1-2.7c-0.5-2.3-21.2-1.6-24.9-1.4c-31.3,2.1-40.6-6.5-68.1-15.4c-3.7-1.2-23.8-7.1-28.9-7.1
		c-11.7-3.2-25.1-7.4-38.2-11.5c-19.3-6-39.3-12.2-54.3-15.6c-10.1-2.3-20.5-3.4-30.5-4.5c-13.1-1.4-26.6-2.8-39.3-6.9
		c-2.2-0.7-4.4-1.5-6.5-2.2c-7.3-2.6-15-6.8-22.8-6.9v1.3l-4.7,1.3c0.2,1,1.2,1.7,2.2,1.6c8-1,16.3,3.8,24,6.6
		c2.2,0.8,4.4,1.6,6.6,2.3c13,4.2,26.8,5.6,40.1,7.1c9.9,1.1,20.2,2.2,30.1,4.4c14.8,3.4,34.7,9.6,54,15.5
		c14.1,4.4,27.7,8.6,39.5,11.8L259.9,186.4l-0.1,0.1L259.9,186.4z M639.4,255.1l26.3,13.3c6.5,15,19.6,17,29.9,25.6
		c1.6,1.4,4.1,1.2,5.7,2.7l-1.4,27.9c-6.7-8-15.4-13.2-23.6-19.5c-3-2.3-5.4-6.2-8.4-8.3c-8.3-6-20.5-8.7-28.5-14.6V255.1
		L639.4,255.1L639.4,255.1z M585.1,243.3l-1.2-21.6l6.9,0.8l43.3,29.1c1,9.7,2,18.8-0.2,28.5C613.7,272.8,604,252.3,585.1,243.3
		L585.1,243.3L585.1,243.3z M635.8,286.1c8.7,8.1,19.1,8,28.6,14.3c5.9,3.9,20.1,15.7,25,20.9c1,1.1,6.8,7.9,5.7,8.9
		c-17.7,1.5-35.8,1.2-53.5,2.8c-8.6,0.8-17.7,3.5-26.4,4.1c-20,1.5-40.1,0.5-59.8,3.5l-2.5-0.9c-10.1-10.3-31.2-23.5-41.8-33.3
		c-2.6-2.5-6.6-4.7-10.6-7.5c45-3.5,90.7-5.9,135.5-12.8H635.8L635.8,286.1z"/>
	<path d="M529.5,248.9c0,3.2,3.3,6.4,4,10.1c0.8,4.1-1.1,20.1,6.4,18.3c4.3-1,4.6-16.4,5.2-20.5l8.8-3c1.4,6.5-10.4,22.1,0,23.7
		c1.8,0.3,14.8-0.6,15.3-1.3c2.9-12.2,2.4-24.5,3.5-36.8c0.4-4.2,5-8.7,0.7-12c-1.5-1.2-4.6-1.1-4.9-1.4c-0.6-0.7,3.1-15.8-8.8-12.2
		c-6,1.8-4.1,10-5.4,12c-0.9,1.4-10.1,1.6-6,8.7l3.5,2l-6.3,9c-1.6-2.7,1.7-6,1.5-9.1c-0.5-6.7-10.8-7.9-14.6-1.2
		c-2,3.6,0,4.9-0.4,7.8c-0.3,1.6-2.6,3-2.6,5.9H529.5L529.5,248.9z M556,231.5c0-0.2,2.3,0.5,3.2-1.7c1.5-3.6-0.5-9.1,3.7-10.8
		c0.5,2.8-1.5,5.8-0.8,8.4c0.9,3.3,4.2,3.6,4.7,4.4c2.5,4.6,0.5,27.4-1.7,33.1l-7.7-2.8c-0.8-0.7,4.5-15.9,4.3-18.8
		c-0.3-3.4-3.6-2.9-4-3.6c-0.3-0.4,1.4-2.7,1-4.4C558.3,233.8,555.7,232.3,556,231.5L556,231.5L556,231.5z M556.1,266.3h1.4v5.5
		h-2.8L556.1,266.3z M540.7,235.7l-1.4,5.5h-2.8C536,237.9,537.2,235.3,540.7,235.7L540.7,235.7L540.7,235.7z M538,242.6
		c5.9,3.4,1.1,11.5,1.4,16.7l-3.9-9.3L538,242.6z"/>
	<path d="M735.6,375.2c0.6-6.2-2.3-16.7,3.6-20.7c1.8-1.2,4.5-1.4,6.8-2.9c8-5.4,3.3-8,2.2-14.7c-0.5-3,0.5-6.5-0.4-9.4
		c-0.6-2-3.7-3.6-3.7-4.4s4.8-3.9,3.7-9.4c-1.3-7-11.4-8.8-15.2-3.2c-1.8,2.6-0.7,5.7-2,7.7c-0.9,1.4-3.9,1.6-4.7,3.7
		c-1.5,4.2,2.2,6.9,2.7,10.8c1.7,13.3-10.5,8.9-11.2,15.3l6.3,25.8L735.6,375.2L735.6,375.2L735.6,375.2z M738.3,319.6l-1.4-6.9
		C743.7,312.2,744.1,316.9,738.3,319.6z M734.3,345.1c3.8-5-6.8-22.8,2.6-24.1c-1.8,5.6,4.2,7.5,5.3,10.7c1,3.1,0.4,8.4,1.5,12
		c-0.7,2.5-6.7,3.8-9.1,5.6c-3,2.4-5.1,9.3-10.3,5.6v-5.2l9.9-4.6H734.3z"/>
	<path d="M767.5,380.8c2.4-21.1,2.3-43.2,9.7-63.2c-5.3-7-1.5-22.4-13.1-21.6c-5,0.3-10.4,6.6-8.9,11.5c0.7,2.4,5.3,4,4,7.9
		l-5.5-0.8l-2.8,4.2l9.6,61L767.5,380.8L767.5,380.8L767.5,380.8z M765.9,320c0.9-3.8-10.2-17-1.9-17.1c5.2,0,1.4,5.5,2.3,8.7
		c0.7,2.7,5.3,4,5.3,7.2s-3.5,11.5-4,15.5c-1.2,9.2-0.9,19.1-3,28.3l-6.5-35.5L765.9,320L765.9,320L765.9,320z"/>
	<path d="M422.5,213.9l4.8,2.2l2.4-3.9c11.8,4.6,9.9-21.4,11.1-29.8c0.5-3.2,3.7-11.6,3.5-12.8c-0.3-2.3-5-3.3-5.9-4.8
		c-1-1.7,4.2-13-4.2-14c-8.9-0.8-8.3,12.9-9.2,13.8c-0.4,0.5-2.7-0.2-3.5,0.4c-4.2,2.9,1.9,17.9,2.4,22.6
		C424.8,196.5,422.3,205,422.5,213.9L422.5,213.9L422.5,213.9z M433,169.3c7.6,5.1,0.6,15.6,2.1,23.3h-5.5
		C432.6,182.9,419.8,172.2,433,169.3L433,169.3L433,169.3z"/>
	<path d="M385.2,195.9c0.7,8.4,2.5,18.8,10.3,23.1l3.3-2.4c2-11.2,0.9-25,3-35.9c0.9-4.5,6.9-5.2,3.1-12.9c-1.1-2.3-3.8-2.7-4.2-3.4
		c-2-3.4,2.9-13.9-5.3-15c-7.3-1-8.5,7.8-8.5,13.5s2.2,5.9,2.1,6.7c0,1.2-3.1,1.6-4,3c-4.8,7.4,0.6,9.6,1.2,15.4
		c0.4,3.1-1.2,5.4-1,7.8l0,0V195.9z M393.4,155l1.4,8.3C389.2,164.3,393.9,157.8,393.4,155z M389.3,177.4c0.3-0.4,3.1-0.7,4.2-2.1
		c1.7-2.3,0.2-7.7,3.3-6.4l3.5,3.5c-7.8,5.5-3.7,12.6-4.1,20.9c-0.2,4.8-2.3,9.5-1.4,14.5c-4.2,0.7-2.2-1-2.8-3.4
		c-1.9-7.6-1.3-14.6-1.3-22.4s-1.4-4.5-1.3-4.7l0,0L389.3,177.4z"/>
	<path d="M454.6,235.1c4.4,0,26.6,1,27.7-0.9c2.4-3.8-3.3-4.5-3.9-6.3c-0.6-1.7-0.6-11.6,0-12.8c0.8-1.3,7-2,5.3-7.2
		c-5.3-1.3-11.3,1.4-16,1.4s-21.8-4.3-16.7,2.8c7.4,2.6,4.5,9.4,5,15.7C450.3,229.4,446.7,235.1,454.6,235.1z M472.6,213.4
		c-0.4,4.7,0.6,10.1,0,14.6c-0.2,1.9-1.1,4.4-2.8,2.1C470.8,224.9,464.3,214.4,472.6,213.4L472.6,213.4L472.6,213.4z M462.2,213.5
		c2.6,0,4,15.4-0.7,16.6C460.3,225.1,458,217.7,462.2,213.5z"/>
	<path d="M497.6,285.1l19.3,0.5c4-6.4-1.2-5.4-2.2-7c-0.7-1.1-0.6-9.6-0.4-11.6c0.4-3.1,3.5-5.6,2.3-7.6c-3.4-5.4-8-0.7-10.1-0.4
		c-3.5,0.5-9.6-3.6-13,1.1c6.9,3.6,6.5,9.1,5.5,16.6C498.6,279.3,494,282.7,497.6,285.1L497.6,285.1L497.6,285.1z M504.6,264.9h4.2
		v13.9h-4.2V264.9z"/>
	<path d="M555.8,305.4c1.4,1.1,2.3,14.5,1.7,16.9c-0.4,1.8-5.6,1.7-4.2,5.8c1,3,9.8,2.5,12.6,1.5l1.3-6.3h-5.6
		c0.4-5.1-0.6-10.9,0-15.9c0.3-2.1,2.8-3.9,2.6-5.4c-0.8-4.9-10.4-2.1-13.8-1.6l-0.7,3.5C551,305.8,554.7,304.7,555.8,305.4
		L555.8,305.4L555.8,305.4z"/>
	<path d="M525.4,278.8c-1.2-1.6-6.9-1.4-5.5,3.5C521.2,287.2,527.8,282.1,525.4,278.8z"/>
	<path d="M490.7,230.1c-0.6-0.6-7.3-1.3-5.5,3.5C487.2,239,493,232.4,490.7,230.1z"/>
	<path d="M576.9,326.7v-2.1C563.5,324.3,574.6,332.6,576.9,326.7z"/>
	<path d="M208.8,124.1v-0.6c-0.4,1,0.2,2.2,1.2,2.5c14.8,5.2,24.5,6.4,40.2,7.1c1.7,0,3.4,0.1,5.1,0.2c4.6,0.1,9.3,0.3,13.8,1
		c6.3,1,12.5,3.1,18.5,5.1c1.2,0.4,2.5,0.8,3.7,1.2c27.2,9.1,55.8,14,83.5,18.7h0.3c1,0,1.8-0.7,2-1.7c0.2-1.1-0.5-2.1-1.6-2.3
		c-27.5-4.7-56-9.6-82.9-18.6c-1.2-0.4-2.4-0.8-3.7-1.2c-6.2-2.1-12.5-4.3-19.2-5.3c-4.8-0.7-9.6-0.9-14.3-1c-1.7,0-3.3-0.1-5-0.2
		c-14.6-0.7-23.9-1.7-37.3-6.3v1.6C212.3,124.4,209.1,124.1,208.8,124.1L208.8,124.1L208.8,124.1z"/>
	<path d="M142.2,29.3c4.2,1.1,4.6,11.8,7.6,12.5c8.6,2-1.8-12.6-1.9-13.4c0-1.7,2.1-3.4,2.5-5.4c1.8-10.1-4.7-12.3-12.5-7.6v25
		l4.3-0.9V29.3L142.2,29.3L142.2,29.3z"/>
	<path d="M100.9,42.9c10.9-7.5-4.1-13.9-4.6-22l4.9,4.1c9.2-7.6-8.6-15.1-10.2-4.5c-1.1,7.3,7.3,10.9,9.5,17.1l-9-1.4
		C88.3,41.8,96.6,42.6,100.9,42.9L100.9,42.9L100.9,42.9z"/>
	<path d="M120.9,35.1c-0.5,2.5-2,3.1,1.1,5.2l6.9-8.3l0.7,9.7l5.4-2.2c-2.6-5.2,0.7-21.2-4.3-23.9c-1.5-0.8-3.6-0.2-5.2-0.3
		C126.4,22.3,122.2,28.8,120.9,35.1L120.9,35.1L120.9,35.1z"/>
	<path d="M164.4,16.8V37c0,0.2-2.4,2.8,0.7,3.5c2.2,0.5,3.7-0.2,4.7-2.2l-1.3-20.6c0.5-1.7,7.3-0.5,5.7-5.7
		c-0.3-2.1-21.4,0.2-18.1,4.8L164.4,16.8L164.4,16.8z"/>
	<path d="M113.1,21.7l-1.5,21.4h5.5c-2.6-8.1-0.4-14.8,0-22.8l4.3-0.8l-2-5.2l-11.9,1.1c-2,5.9,5.2,4.8,5.7,6.4l0,0L113.1,21.7z"/>
	<path d="M68,133.6v-14.9l0.2-5.4L68.7,57l136.8-7.1c2.5,1.8,5.3,53.4,3.5,73.6v0.6c0.3,0,3.5,0.4,4.3,0.3V0L63.2,6.2v129.9h0.2
		l4.7-1.3L68,133.6L68,133.6L68,133.6z M68.6,13.2L71,10l136.7-4.4V41c-15.2,6.5-33.1,5.1-49.3,6.3c-8.4,0.6-18,2.4-26.4,2.8
		c-20.8,1-42.1-2.4-62.6,2.8C64.9,39.9,69.4,26.6,68.6,13.2L68.6,13.2L68.6,13.2z"/>
</g>
<g id="text" class="st0">
	<g>
		<text transform="matrix(1 0 0 1 659.9849 755.9999)" class="st1 st2 st3">DOHLÁŠKY</text>
	</g>
	<g>
		<text transform="matrix(1 0 0 1 105.0849 725.9999)" class="st1 st2 st3">PŘIHLÁŠKY</text>
	</g>
	<g>
		<text transform="matrix(1 0 0 1 -77.1152 216.5)" class="st1 st2 st3">KORIDOR III.</text>
	</g>
	<g>
		<text transform="matrix(1 0 0 1 226.9849 -23.8)" class="st1 st2 st3">START</text>
	</g>
	<g>
		<text transform="matrix(1 0 0 1 7.3848 271.4)" class="st1 st2 st3">KORIDOR II.</text>
	</g>
	<g>
		<text transform="matrix(1 0 0 1 84.4849 332.6)" class="st1 st2 st3">KORIDOR I.</text>
	</g>
	<g>
		<text transform="matrix(1 0 0 1 -1295.2151 351.5)" class="st1 st2 st3">SBĚRKA</text>
	</g>
	<g>
		<text transform="matrix(1 0 0 1 -974.9151 614.7)" class="st1 st2 st3">CÍL</text>
	</g>
	<g>
		<text transform="matrix(1 0 0 1 -883.7151 -191.4)" class="st1 st2 st3">RADIO 2</text>
	</g>
	<g>
		<text transform="matrix(1 0 0 1 -450.1151 33)" class="st1 st2 st3">RADIO 1</text>
	</g>
	<g>
		<text transform="matrix(1 0 0 1 -712.4151 1044.2)" class="st1 st2 st3">VYČÍTÁNÍ ČIPŮ</text>
	</g>
	<g>
		<text transform="matrix(1 0 0 1 -552.4151 712.7)" class="st1 st2 st3">CENTRUM IT</text>
	</g>
	<g>
		<text transform="matrix(1 0 0 1 -253.5151 1212.2)" class="st1 st2 st3">VÝSLEDKY</text>
		<text transform="matrix(1 0 0 1 -369.6151 1272.2)" class="st1 st2 st3">MY RESULTS BOARD</text>
	</g>
</g>
</svg>
