<?xml version="1.0" encoding="utf-8"?>
<!-- Generator: Adobe Illustrator 23.0.1, SVG Export Plug-In . SVG Version: 6.00 Build 0)  -->
<svg version="1.1" id="Layer_1" xmlns="http://www.w3.org/2000/svg" xmlns:xlink="http://www.w3.org/1999/xlink" x="0px" y="0px"
	 viewBox="0 0 450 183.4" style="enable-background:new 0 0 450 183.4;" xml:space="preserve">
<style type="text/css">
	.st0{display:none;}
	.st1{display:inline;fill:#FF0000;}
	.st2{font-family:'Arial-BoldMT';}
	.st3{font-size:50px;}
</style>
<g id="design">
	<path d="M113.6,139.2c0-31.3-25.5-56.8-56.8-56.8S0,107.9,0,139.2s3.1,21.6,9.1,30.8l0.8-0.5C4,160.5,1,150,1,139.2
		c0-30.8,25.1-55.8,55.8-55.8s55.8,25.1,55.8,55.8s-3.2,21.7-9.3,30.9l0.8,0.6c6.2-9.3,9.5-20.2,9.5-31.4l0,0L113.6,139.2z"/>
	<path d="M95.9,165.3c5.2-7.7,7.9-16.7,7.9-26.1c0-25.9-21.1-47-47-47s-47,21.1-47,47s2.6,17.9,7.5,25.5l0.8-0.5
		c-4.8-7.4-7.4-16.1-7.4-25c0-25.4,20.6-46,46-46s46,20.6,46,46c0,25.4-2.7,17.9-7.7,25.5l0.8,0.6H95.9L95.9,165.3z"/>
	<path d="M87.7,160c4.1-6.1,6.3-13.3,6.3-20.7c0-20.5-16.7-37.2-37.2-37.2s-37.2,16.7-37.2,37.2s2.1,14.1,6,20.2l0.8-0.5
		c-3.8-5.9-5.8-12.6-5.8-19.6c0-19.9,16.2-36.2,36.2-36.2S93,119.4,93,139.4c0,20-2.1,14.2-6.1,20.2l0.8,0.6V160L87.7,160z"/>
	<path d="M73.3,161.3l-1.4-30.6H58c-0.8-0.8,2.1-10.7-4.2-9.7v9.6l-12.5,1.5c0.2,6.7,2.3,13.4,1.5,20.2c-0.4,2.8-2.9,5.6-2.7,6.7
		c0.9,5.4,7.4,1.9,10.2,2.2c7.9,0.9,4.2,14.4,4.9,19.9l5.6,2.3C62.4,169.7,51.1,155.3,73.3,161.3L73.3,161.3L73.3,161.3z
		 M48.3,151.6l-1.2-13.7c5.2-2.4,11-1.5,16.5-1.6L48.3,151.6L48.3,151.6L48.3,151.6z"/>
	<path d="M450,56.8C450,25.5,424.5,0,393.2,0s-56.8,25.5-56.8,56.8s3.1,21.6,9.1,30.8l0.8-0.5c-5.9-9-8.9-19.5-8.9-30.3
		C337.4,26,362.5,1,393.2,1S449,26.1,449,56.8s-3.2,21.7-9.3,30.9l0.8,0.6c6.2-9.3,9.5-20.2,9.5-31.4l0,0V56.8z"/>
	<path d="M432.3,82.9c5.2-7.7,7.9-16.7,7.9-26.1c0-25.9-21.1-47-47-47s-47,21.1-47,47s2.6,17.9,7.5,25.5l0.8-0.5
		c-4.8-7.4-7.4-16.1-7.4-25c0-25.4,20.6-46,46-46s46,20.6,46,46s-2.7,17.9-7.7,25.5L432.3,82.9L432.3,82.9L432.3,82.9z"/>
	<path d="M424,77.5c4.1-6.1,6.3-13.3,6.3-20.7c0-20.5-16.7-37.2-37.2-37.2s-37.2,16.7-37.2,37.2s2.1,14.1,6,20.2l0.8-0.5
		c-3.8-5.9-5.8-12.6-5.8-19.6c0-19.9,16.2-36.2,36.2-36.2s36.2,16.2,36.2,36.2s-2.1,14.2-6.1,20.2l0.8,0.6L424,77.5L424,77.5z"/>
	<path d="M396.5,46.4l-0.3-5.8l-4.2-0.3l-1.3,5.7c-3.6,2.2-11.9-1.9-12,2.4c0,9.5,2,19.5,0.7,29.1c1.2,5.4,10-1.4,11.5,1.8
		c1.8,3.6-3.8,22,2.4,21.2c4.5-2.5,0-20.2,2.5-22.1c4.6,2,13.8-1.3,14.4-6.4c0.3-2.5-2-5.7-2-8.7s1.7-5.2,2.1-8.1
		c1.7-14-8.1-3.5-13.9-8.6v-0.2H396.5z M393.8,62.7l-9.7,7.6l0.7-18.2h17.5C402.3,52.2,393.8,62.7,393.8,62.7z"/>
</g>
<g id="text" class="st0">
	<g>
		<text transform="matrix(1 0 0 1 1374.8 763.8999)" class="st1 st2 st3">DOHLÁŠKY</text>
	</g>
	<g>
		<text transform="matrix(1 0 0 1 819.9 733.8999)" class="st1 st2 st3">PŘIHLÁŠKY</text>
	</g>
	<g>
		<text transform="matrix(1 0 0 1 637.7 224.4)" class="st1 st2 st3">KORIDOR III.</text>
	</g>
	<g>
		<text transform="matrix(1 0 0 1 941.8 -15.9)" class="st1 st2 st3">START</text>
	</g>
	<g>
		<text transform="matrix(1 0 0 1 722.2 279.3)" class="st1 st2 st3">KORIDOR II.</text>
	</g>
	<g>
		<text transform="matrix(1 0 0 1 799.3 340.5)" class="st1 st2 st3">KORIDOR I.</text>
	</g>
	<g>
		<text transform="matrix(1 0 0 1 -580.4 359.4)" class="st1 st2 st3">SBĚRKA</text>
	</g>
	<g>
		<text transform="matrix(1 0 0 1 -260.1 622.6)" class="st1 st2 st3">CÍL</text>
	</g>
	<g>
		<text transform="matrix(1 0 0 1 -168.9 -183.5)" class="st1 st2 st3">RADIO 2</text>
	</g>
	<g>
		<text transform="matrix(1 0 0 1 264.7 40.9)" class="st1 st2 st3">RADIO 1</text>
	</g>
	<g>
		<text transform="matrix(1 0 0 1 2.4 1052.1)" class="st1 st2 st3">VYČÍTÁNÍ ČIPŮ</text>
	</g>
	<g>
		<text transform="matrix(1 0 0 1 162.4 720.6)" class="st1 st2 st3">CENTRUM IT</text>
	</g>
	<g>
		<text transform="matrix(1 0 0 1 461.3 1220.1)" class="st1 st2 st3">VÝSLEDKY</text>
		<text transform="matrix(1 0 0 1 345.2 1280.1)" class="st1 st2 st3">MY RESULTS BOARD</text>
	</g>
</g>
</svg>
